<svg width="24" height="24" viewBox="0 0 24 24" fill="none" xmlns="http://www.w3.org/2000/svg">
<path fill-rule="evenodd" clipRule="evenodd" d="M18.5672 6.91397C18.3707 6.87403 18.1644 6.90473 17.9944 7.00382L17.9692 7.0185L14.2124 8.89381H7.59998C6.82969 8.89381 6.14709 9.17931 5.66263 9.6228C5.22106 10.027 4.89997 10.7971 4.89997 11.4897C4.89997 12.1823 5.22103 12.9522 5.66263 13.3565C5.91066 13.5835 6.21063 13.7692 6.54771 13.8963C6.86902 14.0174 7.22406 14.0854 7.59998 14.0854H8.51534H9.34395H11.3323H14.2124L17.9693 15.961L17.9944 15.9756C18.1101 16.043 18.251 16.0822 18.4 16.0822C18.618 16.0822 18.8006 16.0017 18.9231 15.8895C19.0443 15.7785 19.1 15.6458 19.1 15.5161V7.46336C19.1 7.37308 19.0722 7.27814 19.0104 7.18922C18.9186 7.05725 18.7639 6.95393 18.5672 6.91397ZM17.1149 5.43575C17.6837 5.11375 18.333 5.03242 18.9262 5.15298C19.5291 5.27549 20.1061 5.61385 20.4889 6.16425C20.754 6.54547 20.9 6.99631 20.9 7.46336V15.5161C20.9 16.1953 20.5975 16.7949 20.1396 17.2141C19.683 17.632 19.0656 17.8793 18.4 17.8793C17.9509 17.8793 17.5061 17.7651 17.115 17.5437L13.7875 15.8825H11.6501H9.82232H8.46935H7.59998C7.26575 15.8825 6.93909 15.8485 6.6241 15.7836C5.79127 15.612 5.04003 15.2247 4.44615 14.681C3.58481 13.8925 3.09998 12.6172 3.09998 11.4897C3.09998 10.3623 3.58478 9.08676 4.44615 8.29822C5.26464 7.54895 6.38204 7.09671 7.59998 7.09671H13.7875L17.1149 5.43575Z" fill="#023F80"/>
<path fill-rule="evenodd" clipRule="evenodd" d="M14.9 7.99526L14.9 14.984L13.1 14.984L13.1 7.99526H14.9Z" fill="#023F80"/>
<path d="M8.77582 17.6178L8.46935 15.8825H7.59998C7.26575 15.8825 6.93909 15.8485 6.6241 15.7836L7.00316 17.9299C7.12046 18.594 7.50867 19.1391 8.02535 19.4837C8.54124 19.8279 9.19052 19.9771 9.84852 19.8612C10.5065 19.7454 11.0655 19.3835 11.4324 18.884C11.7999 18.3837 11.9779 17.7389 11.8606 17.0747L11.6501 15.8825H9.82232L10.088 17.3868C10.1145 17.5367 10.0774 17.6898 9.98086 17.8213C9.88373 17.9535 9.72981 18.0573 9.53595 18.0914C9.34209 18.1256 9.16189 18.0806 9.02531 17.9895C8.88953 17.8989 8.80229 17.7677 8.77582 17.6178Z" fill="#023F80"/>
</svg>
