<svg width="28" height="28" viewBox="0 0 28 28" fill="none" xmlns="http://www.w3.org/2000/svg">
<path d="M12.5 15.375C13.3888 14.7083 14.6111 14.7083 15.5 15.375L21 19.5C22.1045 20.3284 22.3284 21.8954 21.5 23C21.0278 23.6295 20.2868 24 19.5 24H8.49995C7.11924 24 5.99995 22.8807 5.99995 21.5C5.99995 20.7131 6.37044 19.9721 6.99995 19.5L12.5 15.375ZM14.3 16.975C14.1222 16.8417 13.8777 16.8417 13.7 16.975L8.19995 21.1C8.07405 21.1944 7.99995 21.3426 7.99995 21.5C7.99995 21.7761 8.22381 22 8.49995 22H19.5C19.6573 22 19.8055 21.9259 19.9 21.8C20.0656 21.5791 20.0209 21.2657 19.8 21.1L14.3 16.975ZM14 3C19.4123 3 23.7999 7.38761 23.7999 12.8C23.7999 14.1875 23.5108 15.5361 22.9587 16.778C22.7343 17.2827 22.1433 17.5099 21.6386 17.2855C21.134 17.0611 20.9068 16.4701 21.1312 15.9654C21.5702 14.9781 21.7999 13.9062 21.7999 12.8C21.7999 8.49218 18.3078 5 14 5C9.69213 5 6.19995 8.49218 6.19995 12.8C6.19995 13.9826 6.46267 15.1259 6.96209 16.1675C7.20086 16.6655 6.99072 17.2628 6.49272 17.5016C5.99472 17.7404 5.39744 17.5302 5.15867 17.0322C4.53053 15.7221 4.19995 14.2836 4.19995 12.8C4.19995 7.38761 8.58756 3 14 3ZM14 7C17.2032 7 19.8 9.59675 19.8 12.8C19.8 13.1202 19.7739 13.4374 19.7225 13.7493L19.6472 14.1269C19.5213 14.6646 18.9833 14.9985 18.4455 14.8725C17.9078 14.7466 17.574 14.2086 17.6999 13.6708L17.71 13.6266C17.7696 13.3577 17.8 13.0812 17.8 12.8C17.8 10.7013 16.0986 9 14 9C11.9013 9 10.2 10.7013 10.2 12.8C10.2 13.0443 10.2229 13.2851 10.2679 13.5204L10.3356 13.8109C10.338 13.8193 10.3408 13.8293 10.345 13.8444C10.4964 14.3755 10.1886 14.9288 9.65747 15.0803C9.12635 15.2317 8.57305 14.9238 8.42164 14.3927L8.3839 14.2538C8.26215 13.7823 8.19995 13.2948 8.19995 12.8C8.19995 9.59675 10.7967 7 14 7Z" fill="#023F80"/>
</svg>
