<svg width="28" height="28" viewBox="0 0 28 28" fill="none" xmlns="http://www.w3.org/2000/svg">
<path fill-rule="evenodd" clipRule="evenodd" d="M3 8C3 6.60355 3 5.90533 3.19641 5.34402C3.5482 4.33866 4.33866 3.5482 5.34402 3.19641C5.90533 3 6.60355 3 8 3C9.39645 3 10.0947 3 10.656 3.19641C11.6613 3.5482 12.4518 4.33866 12.8036 5.34402C13 5.90533 13 6.60355 13 8C13 9.39645 13 10.0947 12.8036 10.656C12.4518 11.6613 11.6613 12.4518 10.656 12.8036C10.0947 13 9.39645 13 8 13C6.60355 13 5.90533 13 5.34402 12.8036C4.33866 12.4518 3.5482 11.6613 3.19641 10.656C3 10.0947 3 9.39645 3 8ZM5 7.4C5 6.55992 5 6.13988 5.16349 5.81901C5.3073 5.53677 5.53677 5.3073 5.81901 5.16349C6.13988 5 6.55992 5 7.4 5H8.6C9.44008 5 9.86012 5 10.181 5.16349C10.4632 5.3073 10.6927 5.53677 10.8365 5.81901C11 6.13988 11 6.55992 11 7.4V8.6C11 9.44008 11 9.86012 10.8365 10.181C10.6927 10.4632 10.4632 10.6927 10.181 10.8365C9.86012 11 9.44008 11 8.6 11H7.4C6.55992 11 6.13988 11 5.81901 10.8365C5.53677 10.6927 5.3073 10.4632 5.16349 10.181C5 9.86012 5 9.44008 5 8.6V7.4ZM3 20C3 18.6036 3 17.9053 3.19641 17.344C3.5482 16.3387 4.33866 15.5482 5.34402 15.1964C5.90533 15 6.60355 15 8 15C9.39645 15 10.0947 15 10.656 15.1964C11.6613 15.5482 12.4518 16.3387 12.8036 17.344C13 17.9053 13 18.6036 13 20C13 21.3965 13 22.0947 12.8036 22.656C12.4518 23.6613 11.6613 24.4518 10.656 24.8036C10.0947 25 9.39645 25 8 25C6.60355 25 5.90533 25 5.34402 24.8036C4.33866 24.4518 3.5482 23.6613 3.19641 22.656C3 22.0947 3 21.3965 3 20ZM5 19.4C5 18.5599 5 18.1399 5.16349 17.819C5.3073 17.5368 5.53677 17.3073 5.81901 17.1635C6.13988 17 6.55992 17 7.4 17H8.6C9.44008 17 9.86012 17 10.181 17.1635C10.4632 17.3073 10.6927 17.5368 10.8365 17.819C11 18.1399 11 18.5599 11 19.4V20.6C11 21.4401 11 21.8601 10.8365 22.181C10.6927 22.4632 10.4632 22.6927 10.181 22.8365C9.86012 23 9.44008 23 8.6 23H7.4C6.55992 23 6.13988 23 5.81901 22.8365C5.53677 22.6927 5.3073 22.4632 5.16349 22.181C5 21.8601 5 21.4401 5 20.6V19.4ZM15.1964 5.34402C15 5.90533 15 6.60355 15 8C15 9.39645 15 10.0947 15.1964 10.656C15.5482 11.6613 16.3387 12.4518 17.344 12.8036C17.9053 13 18.6036 13 20 13C21.3965 13 22.0947 13 22.656 12.8036C23.6613 12.4518 24.4518 11.6613 24.8036 10.656C25 10.0947 25 9.39645 25 8C25 6.60355 25 5.90533 24.8036 5.34402C24.4518 4.33866 23.6613 3.5482 22.656 3.19641C22.0947 3 21.3965 3 20 3C18.6036 3 17.9053 3 17.344 3.19641C16.3387 3.5482 15.5482 4.33866 15.1964 5.34402ZM17.1635 5.81901C17 6.13988 17 6.55992 17 7.4V8.6C17 9.44008 17 9.86012 17.1635 10.181C17.3073 10.4632 17.5368 10.6927 17.819 10.8365C18.1399 11 18.5599 11 19.4 11H20.6C21.4401 11 21.8601 11 22.181 10.8365C22.4632 10.6927 22.6927 10.4632 22.8365 10.181C23 9.86012 23 9.44008 23 8.6V7.4C23 6.55992 23 6.13988 22.8365 5.81901C22.6927 5.53677 22.4632 5.3073 22.181 5.16349C21.8601 5 21.4401 5 20.6 5H19.4C18.5599 5 18.1399 5 17.819 5.16349C17.5368 5.3073 17.3073 5.53677 17.1635 5.81901ZM15 20C15 18.6036 15 17.9053 15.1964 17.344C15.5482 16.3387 16.3387 15.5482 17.344 15.1964C17.9053 15 18.6036 15 20 15C21.3965 15 22.0947 15 22.656 15.1964C23.6613 15.5482 24.4518 16.3387 24.8036 17.344C25 17.9053 25 18.6036 25 20C25 21.3965 25 22.0947 24.8036 22.656C24.4518 23.6613 23.6613 24.4518 22.656 24.8036C22.0947 25 21.3965 25 20 25C18.6036 25 17.9053 25 17.344 24.8036C16.3387 24.4518 15.5482 23.6613 15.1964 22.656C15 22.0947 15 21.3965 15 20ZM17 19.4C17 18.5599 17 18.1399 17.1635 17.819C17.3073 17.5368 17.5368 17.3073 17.819 17.1635C18.1399 17 18.5599 17 19.4 17H20.6C21.4401 17 21.8601 17 22.181 17.1635C22.4632 17.3073 22.6927 17.5368 22.8365 17.819C23 18.1399 23 18.5599 23 19.4V20.6C23 21.4401 23 21.8601 22.8365 22.181C22.6927 22.4632 22.4632 22.6927 22.181 22.8365C21.8601 23 21.4401 23 20.6 23H19.4C18.5599 23 18.1399 23 17.819 22.8365C17.5368 22.6927 17.3073 22.4632 17.1635 22.181C17 21.8601 17 21.4401 17 20.6V19.4Z" fill="#023F80"/>
</svg>
