<svg width="24" height="24" viewBox="0 0 24 24" fill="none" xmlns="http://www.w3.org/2000/svg">
<path fill-rule="evenodd" clipRule="evenodd" d="M4.25012 18.25C4.25012 18.4822 4.25012 18.5983 4.26296 18.6958C4.35157 19.3689 4.88123 19.8986 5.55433 19.9872C5.65181 20 5.76791 20 6.00012 20C6.23233 20 6.34844 20 6.44591 19.9872C7.11901 19.8986 7.64868 19.3689 7.73729 18.6958C7.75012 18.5983 7.75012 18.4822 7.75012 18.25V17.9H16.2501V18.25C16.2501 18.4822 16.2501 18.5983 16.263 18.6958C16.3516 19.3689 16.8812 19.8986 17.5543 19.9872C17.6518 20 17.7679 20 18.0001 20C18.2323 20 18.3484 20 18.4459 19.9872C19.119 19.8986 19.6487 19.3689 19.7373 18.6958C19.7501 18.5983 19.7501 18.4822 19.7501 18.25V17.7869C19.9428 17.7423 20.1319 17.6781 20.3167 17.5839C20.8624 17.3059 21.306 16.8622 21.584 16.3166C21.7685 15.9546 21.8381 15.576 21.8699 15.1869C21.9002 14.8165 21.9001 14.3653 21.9001 13.8354L21.9001 10.9576C21.9002 10.7678 21.9003 10.6028 21.8835 10.4533C21.7585 9.34413 20.9561 8.44604 19.8972 8.18007C19.8908 7.7245 19.8703 7.36739 19.806 7.04406C19.4193 5.10028 17.8999 3.5808 15.9561 3.19416C15.4812 3.09971 14.9335 3.09982 14.1082 3.09999H9.89208C9.06671 3.09982 8.51901 3.09971 8.04418 3.19416C6.1004 3.5808 4.58092 5.10028 4.19428 7.04406C4.12996 7.36739 4.10949 7.7245 4.10303 8.18006C3.04419 8.44603 2.24176 9.34412 2.11679 10.4533C2.09994 10.6028 2.10002 10.7679 2.10011 10.9576L2.10012 11V13.8354C2.10011 14.3653 2.1001 14.8165 2.13036 15.1869C2.16216 15.576 2.23179 15.9546 2.4162 16.3166C2.69424 16.8622 3.13788 17.3059 3.68355 17.5839C3.86834 17.6781 4.05746 17.7423 4.25012 17.7869V18.25ZM4.65495 9.90535C4.68973 9.90143 4.74345 9.9 5.00012 9.9C5.2568 9.9 5.31052 9.90143 5.34529 9.90535C5.73937 9.94975 6.05038 10.2608 6.09478 10.6548C6.0987 10.6896 6.10012 10.7433 6.10012 11L6.10011 12.6137C6.10006 12.6701 6.09998 12.7575 6.10652 12.8375C6.11447 12.9348 6.13642 13.0973 6.22547 13.2721C6.33572 13.4885 6.51165 13.6644 6.72803 13.7747C6.90279 13.8637 7.06529 13.8857 7.16264 13.8936C7.24267 13.9001 7.33006 13.9001 7.38644 13.9H16.6138C16.6702 13.9001 16.7576 13.9001 16.8376 13.8936C16.935 13.8857 17.0975 13.8637 17.2722 13.7747C17.4886 13.6644 17.6645 13.4885 17.7748 13.2721C17.8638 13.0973 17.8858 12.9348 17.8937 12.8375C17.9003 12.7575 17.9002 12.6701 17.9001 12.6137L17.9001 11C17.9001 10.7433 17.9016 10.6896 17.9055 10.6548C17.9499 10.2608 18.2609 9.94975 18.655 9.90535C18.6897 9.90143 18.7434 9.9 19.0001 9.9C19.2568 9.9 19.3105 9.90143 19.3453 9.90535C19.7394 9.94975 20.0504 10.2608 20.0948 10.6548C20.0987 10.6896 20.1001 10.7433 20.1001 11V13.8C20.1001 14.3749 20.0994 14.752 20.0759 15.0403C20.0532 15.3182 20.0138 15.4335 19.9802 15.4994C19.8748 15.7064 19.7065 15.8747 19.4995 15.9801C19.4336 16.0137 19.3183 16.053 19.0404 16.0757C18.7521 16.0993 18.375 16.1 17.8001 16.1H6.20012C5.62522 16.1 5.24817 16.0993 4.95982 16.0757C4.68197 16.053 4.56662 16.0137 4.50073 15.9801C4.29376 15.8747 4.12548 15.7064 4.02002 15.4994C3.98644 15.4335 3.94708 15.3182 3.92438 15.0403C3.90082 14.752 3.90012 14.3749 3.90012 13.8V11C3.90012 10.7433 3.90155 10.6896 3.90547 10.6548C3.94987 10.2608 4.26088 9.94975 4.65495 9.90535ZM18.0406 7.39522C17.796 6.16548 16.8347 5.20418 15.6049 4.95957C15.3274 4.90436 14.9726 4.9 14.0001 4.9H10.0001C9.02768 4.9 8.67288 4.90436 8.39534 4.95957C7.1656 5.20418 6.2043 6.16548 5.95969 7.39522C5.92384 7.57547 5.90943 7.78829 5.90373 8.18171C6.95935 8.44972 7.75874 9.3464 7.88346 10.4533C7.90031 10.6028 7.90023 10.7679 7.90014 10.9576L7.90012 12.1H16.1001L16.1001 10.9576C16.1 10.7678 16.0999 10.6028 16.1168 10.4533C16.2415 9.3464 17.0409 8.44972 18.0965 8.18171C18.0908 7.78829 18.0764 7.57547 18.0406 7.39522Z" fill="#023F80"/>
</svg>
