<svg width="24" height="24" viewBox="0 0 24 24" fill="none" xmlns="http://www.w3.org/2000/svg">
<path fill-rule="evenodd" clipRule="evenodd" d="M13.7637 3.2636C14.1152 2.91213 14.685 2.91213 15.0365 3.2636L19.1365 7.3636C19.3053 7.53239 19.4001 7.76131 19.4001 8C19.4001 8.2387 19.3053 8.46762 19.1365 8.6364L15.0365 12.7364C14.685 13.0878 14.1152 13.0878 13.7637 12.7364C13.4122 12.3849 13.4122 11.815 13.7637 11.4636L16.3273 8.9H12.0001C9.73573 8.9 7.9001 10.7356 7.9001 13C7.9001 15.2644 9.73573 17.1 12.0001 17.1H16.1001C16.5972 17.1 17.0001 17.5029 17.0001 18C17.0001 18.4971 16.5972 18.9 16.1001 18.9H12.0001C8.74162 18.9 6.1001 16.2585 6.1001 13C6.1001 9.74152 8.74162 7.1 12.0001 7.1H16.3273L13.7637 4.5364C13.4122 4.18492 13.4122 3.61508 13.7637 3.2636Z" fill="#023F80"/>
</svg>
