<svg width="28" height="28" viewBox="0 0 28 28" fill="none" xmlns="http://www.w3.org/2000/svg">
<path fill-rule="evenodd" clipRule="evenodd" d="M21 21C22.6569 21 24 19.6569 24 18V7C24 5.34315 22.6569 4 21 4H10C8.34315 4 7 5.34315 7 7L7 18C7 19.6569 8.34315 21 10 21L21 21ZM21 19L15.5 19L10 19C9.44772 19 9 18.5523 9 18L9 7C9 6.44772 9.44772 6 10 6L21 6C21.5523 6 22 6.44772 22 7V18C22 18.5523 21.5523 19 21 19ZM17 25C18.3063 25 19.4175 24.1651 19.8293 22.9999L10.1278 23C8.34473 23 7.69816 22.8143 7.04631 22.4657C6.39446 22.1171 5.88288 21.6055 5.53427 20.9537C5.18565 20.3018 5 19.6552 5 17.8722L5.00009 9.17065C3.83485 9.58247 3 10.6937 3 12V19C3 22.3137 5.68629 25 9 25L17 25ZM19.2067 10.2095C19.5978 9.81843 19.5978 9.18438 19.2067 8.7933C18.8156 8.40223 18.1816 8.40223 17.7905 8.7933L14.0028 12.581L14.0028 10.3338C14.0028 9.78074 13.5545 9.3324 13.0014 9.3324C12.4483 9.3324 12 9.78074 12 10.3338L12 14.9976L12 15.0078C12.0024 15.2601 12.0994 15.5117 12.2912 15.7046L12.2933 15.7067L12.2954 15.7088C12.3909 15.8038 12.5008 15.8755 12.6181 15.924C12.7335 15.9719 12.8597 15.9988 12.9922 16L13.0024 16H17.6662C18.2193 16 18.6676 15.5517 18.6676 14.9986C18.6676 14.4455 18.2193 13.9972 17.6662 13.9972H15.419L19.2067 10.2095Z" fill="#023F80"/>
</svg>
