<svg width="24" height="24" viewBox="0 0 24 24" fill="none" xmlns="http://www.w3.org/2000/svg">
<path d="M11.5319 19.7409C11.8563 19.421 11.8868 18.9155 11.6208 18.5609L11.5409 18.4681L6.05 12.9L20.1 12.9C20.5971 12.9 21 12.4971 21 12C21 11.5412 20.6567 11.1625 20.2129 11.107L20.1 11.1L6.05 11.1L11.5409 5.53187C11.8608 5.20741 11.884 4.70155 11.6131 4.3507L11.5319 4.2591C11.2074 3.93922 10.7016 3.91595 10.3507 4.18693L10.2591 4.26813L3.25911 11.3681C2.94242 11.6893 2.91603 12.1891 3.17994 12.5401L3.25911 12.6319L10.2591 19.7319C10.6081 20.0858 11.1779 20.0899 11.5319 19.7409Z" fill="#023F80"/>
</svg>
