<svg width="28" height="28" viewBox="0 0 28 28" fill="none" xmlns="http://www.w3.org/2000/svg">
<path fill-rule="evenodd" clipRule="evenodd" d="M14 4C8.47715 4 4 8.47715 4 14C4 19.5228 8.47715 24 14 24C19.5228 24 24 19.5228 24 14C24 8.47715 19.5228 4 14 4ZM2 14C2 7.37258 7.37258 2 14 2C20.6274 2 26 7.37258 26 14C26 20.6274 20.6274 26 14 26C7.37258 26 2 20.6274 2 14ZM13 11.4142L10.7071 13.7071C10.3166 14.0976 9.68342 14.0976 9.29289 13.7071C8.90237 13.3166 8.90237 12.6834 9.29289 12.2929L13.2929 8.29288C13.6834 7.90235 14.3166 7.90235 14.7071 8.29288L18.7071 12.2929C19.0976 12.6834 19.0976 13.3166 18.7071 13.7071C18.3166 14.0976 17.6834 14.0976 17.2929 13.7071L15 11.4142V19C15 19.5523 14.5523 20 14 20C13.4477 20 13 19.5523 13 19V11.4142Z" fill="#023F80"/>
</svg>
