<svg width="24" height="24" viewBox="0 0 24 24" fill="none" xmlns="http://www.w3.org/2000/svg">
<path d="M14.5904 2.09998C16.7583 2.09998 17.7924 2.29968 18.8666 2.87418C19.8383 3.39382 20.6062 4.16177 21.1259 5.13342C21.7004 6.20764 21.9001 7.24178 21.9001 9.40969V14.5903C21.9001 16.7582 21.7004 17.7923 21.1259 18.8665C20.6062 19.8382 19.8383 20.6061 18.8666 21.1258C17.7924 21.7003 16.7583 21.9 14.5904 21.9H9.40981C7.2419 21.9 6.20776 21.7003 5.13354 21.1258C4.16189 20.6061 3.39395 19.8382 2.8743 18.8665C2.2998 17.7923 2.1001 16.7582 2.1001 14.5903V9.40969C2.1001 7.24178 2.2998 6.20764 2.8743 5.13342C3.39395 4.16177 4.16189 3.39382 5.13354 2.87418C6.20776 2.29968 7.2419 2.09998 9.40981 2.09998H14.5904ZM14.5904 3.89998H9.40981C7.51364 3.89998 6.76022 4.04547 5.98242 4.46144C5.32445 4.81333 4.81345 5.32433 4.46156 5.9823C4.04559 6.7601 3.9001 7.51351 3.9001 9.40969V14.5903C3.9001 16.4864 4.04559 17.2398 4.46156 18.0177C4.81345 18.6756 5.32445 19.1866 5.98242 19.5385C6.76022 19.9545 7.51364 20.1 9.40981 20.1H14.5904C16.4866 20.1 17.24 19.9545 18.0178 19.5385C18.6757 19.1866 19.1867 18.6756 19.5386 18.0177C19.9546 17.2398 20.1001 16.4864 20.1001 14.5903V9.40969C20.1001 7.51351 19.9546 6.7601 19.5386 5.9823C19.1867 5.32433 18.6757 4.81333 18.0178 4.46144C17.24 4.04547 16.4866 3.89998 14.5904 3.89998ZM12.309 8.2213C12.6838 7.89485 13.2523 7.93405 13.5788 8.30887L16.2788 11.4089C16.5739 11.7477 16.5739 12.2523 16.2788 12.5911L13.5788 15.6911C13.2523 16.0659 12.6838 16.1051 12.309 15.7786C11.9342 15.4522 11.895 14.8837 12.2214 14.5089L13.6221 12.9H8.4001C7.94128 12.9 7.56265 12.5566 7.50711 12.1129L7.5001 12C7.5001 11.5029 7.90304 11.1 8.4001 11.1H13.6221L12.2214 9.49108C11.9222 9.14749 11.9302 8.64116 12.2223 8.30771L12.309 8.2213Z" fill="#023F80"/>
</svg>
