<svg width="24" height="24" viewBox="0 0 24 24" fill="none" xmlns="http://www.w3.org/2000/svg">
<path fill-rule="evenodd" clipRule="evenodd" d="M8.30127 3.9H8.29999C8.17527 3.9 7.95131 3.95577 7.61994 4.14442C7.30075 4.32614 6.95097 4.59134 6.59375 4.90795C5.9485 5.47985 5.34786 6.15741 4.94656 6.64081L6.66402 8.41094C6.67514 8.42241 6.6865 8.43406 6.69804 8.4459C6.82837 8.57963 6.98261 8.73789 7.09763 8.92949C7.19764 9.09609 7.2715 9.27705 7.31663 9.46605C7.36854 9.6834 7.3691 9.90439 7.36957 10.0911C7.36961 10.1077 7.36965 10.1239 7.36973 10.1399L7.3925 14.9239C7.39546 15.5475 7.40195 15.7 7.41875 15.7744C7.44457 15.8889 7.45119 15.9056 7.45201 15.9077C7.45252 15.909 7.4575 15.9239 7.51535 16.027C7.51542 16.027 7.5257 16.0437 7.55559 16.0829C7.58983 16.1278 7.63882 16.1881 7.70844 16.2699C7.84892 16.435 8.04546 16.6554 8.32205 16.9655C9.0346 17.7642 9.73108 18.7338 10.2163 19.4474C10.5268 19.9041 10.5785 19.963 10.6096 19.9883C10.6668 20.0347 10.7101 20.0576 10.7806 20.0788C10.8201 20.0907 10.8878 20.1 11.4067 20.1H12.5933C13.1123 20.1 13.1799 20.0907 13.2194 20.0788C13.2899 20.0576 13.3332 20.0347 13.3904 19.9883C13.4215 19.963 13.4732 19.9041 13.7837 19.4474C14.2675 18.7359 14.9612 17.77 15.6715 16.9727C15.9491 16.6611 16.1464 16.4395 16.2874 16.2735C16.3572 16.1912 16.4064 16.1306 16.4407 16.0855C16.4707 16.046 16.481 16.0293 16.4811 16.0293C16.539 15.9256 16.5439 15.9107 16.5445 15.9093C16.545 15.9078 16.5513 15.8932 16.5775 15.775C16.5942 15.7001 16.6 15.5466 16.6 14.9192V10.1543C16.6 10.1381 16.6 10.1216 16.5999 10.1048C16.5995 9.91523 16.599 9.69094 16.6513 9.4704C16.6968 9.27864 16.7718 9.09512 16.8737 8.92644C16.991 8.73243 17.1485 8.57276 17.2816 8.43784C17.2934 8.42588 17.305 8.41412 17.3164 8.40255L19.0503 6.63707C18.6486 6.15336 18.0485 5.47693 17.4042 4.90617C17.0473 4.59 16.6979 4.32528 16.3791 4.14392C16.0482 3.95564 15.8246 3.9 15.7 3.9H15.6959C15.6957 3.90034 15.6954 3.90067 15.6951 3.90101C15.1958 4.49542 13.9282 5.74615 12 5.74615C10.0636 5.74615 8.80322 4.50186 8.30327 3.9024C8.3026 3.90159 8.30193 3.9008 8.30127 3.9ZM8.37187 2.09983C8.47521 2.09903 8.67699 2.09747 8.86011 2.14671C9.02212 2.19028 9.15259 2.25136 9.28982 2.34788C9.40027 2.42556 9.48188 2.51337 9.52768 2.56425C9.57434 2.61608 9.62716 2.67942 9.6777 2.74003L9.68562 2.74952C10.0698 3.21013 10.8712 3.94615 12 3.94615C13.1184 3.94615 13.9273 3.20702 14.3168 2.74327L14.3247 2.73392C14.3748 2.67419 14.4274 2.61155 14.474 2.56023C14.5199 2.50961 14.6012 2.42284 14.7111 2.34595C14.8479 2.25026 14.9782 2.18952 15.1394 2.14634C15.3218 2.0975 15.5224 2.09904 15.6251 2.09984C15.6364 2.09992 15.6465 2.1 15.6553 2.1H15.7C16.2717 2.1 16.8153 2.32115 17.2692 2.57939C17.7353 2.84454 18.1883 3.19606 18.5978 3.5588C19.4174 4.28482 20.1472 5.132 20.5679 5.64859C20.5751 5.65745 20.5837 5.66767 20.5933 5.6792C20.6877 5.79214 20.8871 6.03064 20.9637 6.33632C21.0274 6.59041 21.0146 6.86557 20.9276 7.11265C20.8623 7.29829 20.7638 7.43501 20.6838 7.53089C20.6176 7.61022 20.5373 7.69195 20.4735 7.75685L18.6006 9.66382C18.5105 9.75552 18.4636 9.80357 18.4304 9.84057C18.4206 9.85155 18.4146 9.85868 18.4114 9.86265C18.4085 9.86816 18.4061 9.87392 18.4043 9.87987C18.4038 9.88497 18.4031 9.89425 18.4024 9.90899C18.4002 9.95864 18.4 10.0258 18.4 10.1543V14.9192C18.4 14.9556 18.4 14.9916 18.4 15.0271C18.4004 15.4883 18.4007 15.8677 18.3348 16.1649C18.3085 16.2837 18.2786 16.4133 18.2266 16.5499C18.1746 16.6864 18.1107 16.8031 18.0513 16.9093C17.9536 17.0842 17.8053 17.2668 17.6594 17.4386C17.5029 17.6229 17.2912 17.8605 17.0239 18.1607L17.0155 18.17C16.3831 18.8799 15.741 19.7701 15.2723 20.4595C15.2541 20.4862 15.2361 20.5128 15.2181 20.5394C15.0009 20.8601 14.7911 21.1698 14.5244 21.3861C14.2852 21.5802 14.0327 21.7139 13.7377 21.8026C13.4092 21.9014 13.0497 21.9007 12.6821 21.9001C12.6526 21.9001 12.6229 21.9 12.5933 21.9H11.4067C11.3771 21.9 11.3474 21.9001 11.3179 21.9001C10.9503 21.9007 10.5908 21.9014 10.2623 21.8026C9.9673 21.7139 9.7148 21.5802 9.47558 21.3861C9.20894 21.1698 8.99914 20.8601 8.78191 20.5394C8.76392 20.5128 8.74587 20.4862 8.72774 20.4595C8.2576 19.768 7.613 18.8746 6.97885 18.1637L6.97042 18.1543C6.70412 17.8558 6.49332 17.6195 6.33739 17.4362C6.19209 17.2654 6.04431 17.0838 5.94681 16.91C5.88764 16.8046 5.82376 16.6887 5.77167 16.553C5.71958 16.4173 5.68948 16.2885 5.66287 16.1705C5.59626 15.8752 5.59477 15.4981 5.59297 15.0397C5.59283 15.0045 5.59269 14.9687 5.59252 14.9325L5.56975 10.1485C5.56915 10.0219 5.56863 9.95578 5.56621 9.90691C5.5655 9.8924 5.56475 9.88327 5.56427 9.87826C5.56248 9.87239 5.56015 9.86669 5.55732 9.86124C5.55416 9.85732 5.5483 9.85028 5.53867 9.83942C5.50619 9.80281 5.46032 9.75524 5.37215 9.66437L3.53042 7.76616C3.5262 7.7618 3.52188 7.75736 3.51748 7.75283C3.45444 7.68791 3.37497 7.60608 3.30954 7.52672C3.23042 7.43077 3.13326 7.29417 3.06902 7.10917C2.98347 6.8628 2.97154 6.58885 3.03536 6.33597C3.11213 6.0318 3.31045 5.79445 3.40437 5.68204C3.41396 5.67056 3.42246 5.66039 3.42963 5.65158C3.84964 5.13568 4.5797 4.28779 5.39983 3.5609C5.80958 3.19772 6.26296 2.8457 6.72939 2.58016C7.18365 2.32155 7.7278 2.1 8.29999 2.1H8.34134C8.35021 2.1 8.36044 2.09992 8.37187 2.09983Z" fill="#023F80"/>
</svg>
