<svg width="24" height="24" viewBox="0 0 24 24" fill="none" xmlns="http://www.w3.org/2000/svg">
<path fill-rule="evenodd" clipRule="evenodd" d="M17.4001 3.9H9.8001C8.94517 3.9 8.3581 3.9007 7.90299 3.93789C7.45839 3.97421 7.21956 4.04082 7.04672 4.12889C6.65158 4.33022 6.33032 4.65148 6.12898 5.04662C6.04092 5.21947 5.97431 5.4583 5.93798 5.9029C5.9008 6.358 5.9001 6.94507 5.9001 7.8V16.3159C6.23931 16.1767 6.61074 16.1 7.0001 16.1H18.1001V4.6C18.1001 4.00002 18.0001 3.9 17.4001 3.9ZM4.1001 7.7623C4.10009 6.95425 4.10008 6.2934 4.14396 5.75632C4.18938 5.20041 4.28626 4.69833 4.52517 4.22944C4.89908 3.49561 5.4957 2.89898 6.22954 2.52508C6.69842 2.28617 7.2005 2.18928 7.75642 2.14386C8.29349 2.09998 8.95434 2.09999 9.7624 2.1L17.4299 2.1C17.6842 2.09998 17.9262 2.09995 18.1302 2.11662C18.3526 2.13479 18.6077 2.17717 18.8627 2.30709C19.2202 2.48925 19.5109 2.77991 19.693 3.13742C19.8229 3.3924 19.8653 3.64751 19.8835 3.86992C19.9001 4.07388 19.9001 4.31592 19.9001 4.57024L19.9001 16.46C19.9001 16.964 19.9001 17.2161 19.802 17.4086C19.7157 17.5779 19.578 17.7156 19.4087 17.8019C19.2162 17.9 18.9641 17.9 18.4601 17.9H18.1551C18.0787 18.2215 18.0421 18.4107 18.0237 18.5989C17.9974 18.8657 17.9974 19.1344 18.0237 19.4011C18.0421 19.5893 18.0787 19.7785 18.1551 20.1H19.0001C19.4972 20.1 19.9001 20.5029 19.9001 21C19.9001 21.4971 19.4972 21.9 19.0001 21.9H7.0001C5.39847 21.9 4.1001 20.6016 4.1001 19C4.1001 15.2543 4.1001 11.5082 4.1001 7.7623ZM16.3119 20.1C16.2757 19.9173 16.2491 19.7481 16.2323 19.5772C16.1945 19.1933 16.1945 18.8067 16.2323 18.4228C16.2491 18.2519 16.2757 18.0827 16.3119 17.9H7.0001C6.39259 17.9 5.9001 18.3925 5.9001 19C5.9001 19.6075 6.39259 20.1 7.0001 20.1H16.3119Z" fill="#023F80"/>
</svg>
