<svg width="24" height="24" viewBox="0 0 24 24" fill="none" xmlns="http://www.w3.org/2000/svg">
<path d="M7.45075 13.3229C7.0205 13.0741 6.46994 13.2211 6.22105 13.6513C5.97216 14.0816 6.11919 14.6322 6.54944 14.881C7.40501 15.376 8.03689 16.2119 8.2609 17.1991C8.37089 17.6839 8.85301 17.9877 9.33775 17.8777C9.82248 17.7677 10.1263 17.2856 10.0163 16.8008C9.67891 15.314 8.7302 14.0631 7.45075 13.3229Z" fill="#023F80"/>
<path d="M9.53976 6.02733C9.14197 5.72928 8.57789 5.81014 8.27984 6.20792C7.98648 6.59945 7.52168 6.84998 6.99812 6.84998C6.50106 6.84998 6.09812 7.25292 6.09812 7.74998C6.09812 8.24703 6.50106 8.64998 6.99812 8.64998C8.11252 8.64998 9.10173 8.11288 9.72035 7.28725C10.0184 6.88946 9.93754 6.32538 9.53976 6.02733Z" fill="#023F80"/>
<path d="M15.9265 6.87254C15.8561 6.38049 15.4002 6.03866 14.9081 6.10904C14.4161 6.17943 14.0742 6.63537 14.1446 7.12741C14.3899 8.84196 15.6203 10.2346 17.2434 10.7176C17.7198 10.8594 18.2209 10.5882 18.3627 10.1118C18.5045 9.63536 18.2332 9.13421 17.7568 8.99243C16.798 8.70706 16.0708 7.88176 15.9265 6.87254Z" fill="#023F80"/>
<path fill-rule="evenodd" clipRule="evenodd" d="M2.1001 14C2.1001 13.1307 2.35221 12.3202 2.7873 11.6378C2.34974 10.8574 2.1001 9.95701 2.1001 8.99998C2.1001 6.36574 3.98566 4.17295 6.48122 3.69611C7.36591 2.4303 8.83556 1.59998 10.5001 1.59998C11.0221 1.59998 11.5265 1.68192 12.0001 1.83408C12.4737 1.68192 12.9781 1.59998 13.5001 1.59998C15.1646 1.59998 16.6343 2.4303 17.519 3.69611C20.0145 4.17295 21.9001 6.36574 21.9001 8.99998C21.9001 9.08539 21.8981 9.17035 21.8942 9.25481C21.8541 10.1176 21.6115 10.9275 21.2129 11.6381C21.6477 12.3205 21.9001 13.1314 21.9001 14C21.9001 15.5523 21.0964 16.9154 19.8845 17.6983C19.8948 17.7976 19.9001 17.8982 19.9001 18C19.9001 19.6016 18.6017 20.9 17.0001 20.9C16.9408 20.9 16.8818 20.8982 16.8234 20.8947C16.2134 21.8019 15.1774 22.4 14.0001 22.4C13.2524 22.4 12.561 22.1582 12.0001 21.7496C11.4392 22.1582 10.7478 22.4 10.0001 22.4C8.82283 22.4 7.78673 21.8019 7.17678 20.8947C7.11828 20.8982 7.05937 20.9 7.0001 20.9C5.39847 20.9 4.1001 19.6016 4.1001 18C4.1001 17.8982 4.10537 17.7976 4.11567 17.6983C2.90381 16.9154 2.1001 15.5523 2.1001 14ZM7.80306 4.97017C8.33756 4.03047 9.34577 3.39998 10.5001 3.39998C10.7058 3.39998 10.9064 3.4199 11.1001 3.45782V20.162C10.8127 20.4344 10.4258 20.6 10.0001 20.6C9.31795 20.6 8.73336 20.1727 8.50363 19.5681C8.33029 19.1119 7.82493 18.8769 7.36441 19.0385C7.25155 19.0781 7.12934 19.1 7.0001 19.1C6.39258 19.1 5.9001 18.6075 5.9001 18C5.9001 17.8485 5.9302 17.7064 5.9839 17.5775C6.17497 17.1189 5.95825 16.5922 5.49973 16.4008C4.55873 16.0081 3.9001 15.0799 3.9001 14C3.9001 12.564 5.06416 11.4 6.5001 11.4C6.90051 11.4 7.27741 11.4899 7.61391 11.6497C8.06289 11.863 8.59975 11.6719 8.81303 11.223C9.02632 10.774 8.83525 10.2371 8.38628 10.0239C7.81353 9.75177 7.17329 9.59998 6.5001 9.59998C5.63039 9.59998 4.81962 9.85231 4.137 10.2878C3.98392 9.88823 3.9001 9.45431 3.9001 8.99998C3.9001 7.14187 5.30855 5.61153 7.11552 5.4202C7.4038 5.38968 7.65973 5.22216 7.80306 4.97017ZM12.9001 20.162C13.1875 20.4344 13.5744 20.6 14.0001 20.6C14.4177 20.6 14.7987 20.4399 15.0841 20.177C14.4808 19.6455 14.1001 18.8672 14.1001 18C14.1001 17.5029 14.503 17.1 15.0001 17.1C15.4972 17.1 15.9001 17.5029 15.9001 18C15.9001 18.5994 16.3796 19.0869 16.9759 19.0997L17.0001 19.1C17.6076 19.1 18.1001 18.6075 18.1001 18C18.1001 17.8485 18.07 17.7064 18.0163 17.5775C17.8252 17.1189 18.0419 16.5922 18.5005 16.4008C19.4415 16.0081 20.1001 15.0799 20.1001 14C20.1001 13.7013 20.05 13.4148 19.9576 13.1481C19.0209 13.9297 17.8154 14.4 16.5001 14.4C16.003 14.4 15.6001 13.997 15.6001 13.5C15.6001 13.0029 16.003 12.6 16.5001 12.6C18.4311 12.6 20.0071 11.0796 20.0961 9.17061C20.0988 9.11408 20.1001 9.05719 20.1001 8.99998C20.1001 7.14187 18.6916 5.61153 16.8847 5.4202C16.5964 5.38968 16.3405 5.22216 16.1971 4.97017C15.6626 4.03047 14.6544 3.39998 13.5001 3.39998C13.2943 3.39998 13.0938 3.4199 12.9001 3.45782V20.162Z" fill="#023F80"/>
</svg>
