<svg width="28" height="28" viewBox="0 0 28 28" fill="none" xmlns="http://www.w3.org/2000/svg">
<path d="M11.1478 5.24539C10.902 5.36888 10.7283 5.51097 10.5478 5.75C10.2149 6.19073 9.59073 6.22283 9.15 5.89C8.70927 5.55717 8.66717 4.94073 9 4.5C9.29289 4.11216 9.63937 3.76508 10.2497 3.45835C10.8522 3.15558 11.5875 3 12.5106 3H15.3077C16.4712 3 17.3393 3.20788 18.0152 3.60856C18.6941 4.01111 19.0708 4.54795 19.3355 4.95236L19.4222 5.08534C19.6506 5.43588 19.7608 5.60514 19.9369 5.74224C20.0805 5.85407 20.3518 6 21.0106 6H21.4999C23.9852 6 25.9999 8.01472 25.9999 10.5V20.3C25.9999 20.8523 25.5522 21.38 24.9999 21.38C24.4476 21.38 23.9999 20.8523 23.9999 20.3V10.5C23.9999 9.11929 22.8806 8 21.4999 8H20.9999L20.9927 7.99997C20.0172 7.99721 19.2834 7.76819 18.7081 7.32026C18.2453 6.9599 17.9422 6.48528 17.7391 6.16735C17.7116 6.12436 17.686 6.08423 17.662 6.04764C17.4358 5.70205 17.265 5.48888 16.9952 5.32894C16.7223 5.16712 16.2404 5 15.3077 5H12.5106C11.8099 5 11.4014 5.11793 11.1478 5.24539Z" fill="#023F80"/>
<path d="M14.432 10.3932C14.6105 9.87057 15.1788 9.59151 15.7015 9.76993C17.2386 10.2947 18.4533 11.5098 18.9772 13.0473C19.1554 13.5701 18.8761 14.1383 18.3533 14.3165C17.8305 14.4946 17.2623 14.2153 17.0842 13.6925C16.7601 12.7416 16.006 11.9872 15.0553 11.6627C14.5327 11.4843 14.2536 10.9159 14.432 10.3932Z" fill="#023F80"/>
<path fill-rule="evenodd" clipRule="evenodd" d="M2.83863 7.98206C3.19239 7.44931 3.66121 6.99835 4.24761 6.66192C4.24489 6.6592 4.24221 6.65648 4.23956 6.65377L3.29289 5.70711C2.90237 5.31658 2.90237 4.68342 3.29289 4.29289C3.68342 3.90237 4.31658 3.90237 4.70711 4.29289L24.7071 24.2929C25.0976 24.6834 25.0976 25.3166 24.7071 25.7071C24.5118 25.9024 24.2559 26 23.9999 26C23.9499 26 23.9 25.9963 23.8504 25.9888C23.6463 25.9581 23.4499 25.8642 23.2928 25.7071L22.1053 24.5196C21.1909 24.8492 20.1506 25 19.0077 25C18.8756 25 18.4537 25.0005 17.8528 25.0013L17.8488 25.0013C15.3103 25.0046 9.58944 25.0119 8.99664 25C5.7289 24.9973 3.85956 23.7983 2.89466 22.1406C2.00905 20.6192 2.00974 18.893 2.01008 18.0476L2.01009 18C2.01009 17.8409 2.00898 17.4218 2.00749 16.8621C2.00251 14.986 1.99332 11.5294 2.00779 10.9852C2.00994 9.97727 2.23194 8.89571 2.83863 7.98206ZM9.37012 12.2648C9.426 12.1605 9.49772 12.0701 9.58073 11.995L5.75842 8.17272C5.15237 8.36496 4.7632 8.6992 4.50476 9.08841C4.17311 9.58786 4.00777 10.2562 4.00777 11V11.0155L4.00729 11.031C3.99337 11.4798 4.00223 14.8409 4.00728 16.7561L4.00729 16.7574C4.00888 17.3608 4.01009 17.8204 4.01009 18C4.01009 18.8734 4.02691 20.1102 4.62316 21.1345C5.15598 22.0499 6.28232 23 9.00772 23H9.01966L9.03159 23.0003C9.51868 23.0119 15.169 23.0047 17.7659 23.0014H17.7671C18.4082 23.0006 18.863 23 19.0077 23C19.5487 23 20.0351 22.9601 20.4708 22.8851L16.7507 19.165C16.6751 19.2489 16.584 19.3214 16.4787 19.3778C15.7401 19.7728 14.8965 19.9964 14.0035 19.9964C11.102 19.9964 8.74991 17.6443 8.74991 14.7428C8.74991 13.8487 8.97408 13.004 9.37012 12.2648ZM11.0224 13.4367L15.3096 17.7239C14.9108 17.899 14.4696 17.9964 14.0035 17.9964C12.2066 17.9964 10.7499 16.5397 10.7499 14.7428C10.7499 14.2768 10.8473 13.8356 11.0224 13.4367Z" fill="#023F80"/>
</svg>
