<svg width="28" height="28" viewBox="0 0 28 28" fill="none" xmlns="http://www.w3.org/2000/svg">
<path fill-rule="evenodd" clipRule="evenodd" d="M2 9C2 6.23858 4.23858 4 7 4H21C23.7614 4 26 6.23858 26 9C26 11.419 24.2822 13.4367 22 13.9V19.8V19.8385V19.8386V19.8387V19.8387C22 20.3658 22 20.8205 21.9694 21.195C21.9371 21.5904 21.8658 21.9836 21.673 22.362C21.3854 22.9265 20.9265 23.3854 20.362 23.673C19.9836 23.8658 19.5904 23.9371 19.195 23.9694C18.8205 24 18.3658 24 17.8387 24H17.8387H17.8386H17.8385H17.8H10.2H10.1615H10.1614H10.1613H10.1613C9.63422 24 9.17951 24 8.80497 23.9694C8.40963 23.9371 8.01641 23.8658 7.63803 23.673C7.07354 23.3854 6.6146 22.9265 6.32698 22.362C6.13419 21.9836 6.06287 21.5904 6.03057 21.195C5.99997 20.8205 5.99998 20.3657 6 19.8386V19.8385V19.8L6 13.9C3.71776 13.4367 2 11.419 2 9ZM6 12.0858C6.00005 11.5907 6.00144 11.1615 6.03057 10.805C6.06287 10.4096 6.13419 10.0164 6.32698 9.63803C6.6146 9.07354 7.07354 8.6146 7.63803 8.32698C8.01641 8.13419 8.40963 8.06287 8.80497 8.03057C9.17953 7.99997 9.63428 7.99998 10.1614 8H10.1614H10.1615H10.2H14H17.8H17.8385H17.8386H17.8386C18.3657 7.99998 18.8205 7.99997 19.195 8.03057C19.5904 8.06287 19.9836 8.13419 20.362 8.32698C20.9265 8.6146 21.3854 9.07354 21.673 9.63803C21.8658 10.0164 21.9371 10.4096 21.9694 10.805C21.9988 11.1642 22 11.5971 22 12.097V11.8293C23.1652 11.4175 24 10.3062 24 9C24 7.34315 22.6569 6 21 6H7C5.34315 6 4 7.34315 4 9C4 10.3062 4.83481 11.4175 6 11.8293V12.0858ZM13 13.0858V10H10.2C9.62345 10 9.25118 10.0008 8.96784 10.0239C8.69618 10.0461 8.59546 10.0838 8.54601 10.109C8.35785 10.2049 8.20487 10.3578 8.109 10.546C8.0838 10.5955 8.04613 10.6962 8.02393 10.9678C8.00078 11.2512 8 11.6234 8 12.2V18H20V12.2C20 11.6234 19.9992 11.2512 19.9761 10.9678C19.9539 10.6962 19.9162 10.5955 19.891 10.546C19.7951 10.3578 19.6422 10.2049 19.454 10.109C19.4045 10.0838 19.3038 10.0461 19.0322 10.0239C18.7488 10.0008 18.3766 10 17.8 10H15V13.0858L15.7929 12.2929C16.1834 11.9024 16.8166 11.9024 17.2071 12.2929C17.5976 12.6834 17.5976 13.3166 17.2071 13.7071L14.7071 16.2071C14.3166 16.5976 13.6834 16.5976 13.2929 16.2071L10.7929 13.7071C10.4024 13.3166 10.4024 12.6834 10.7929 12.2929C11.1834 11.9024 11.8166 11.9024 12.2071 12.2929L13 13.0858ZM8.00007 20C8.00052 20.4651 8.00357 20.783 8.02393 21.0322C8.04613 21.3038 8.0838 21.4045 8.109 21.454C8.20487 21.6422 8.35785 21.7951 8.54601 21.891C8.59546 21.9162 8.69618 21.9539 8.96784 21.9761C9.25118 21.9992 9.62345 22 10.2 22H17.8C18.3766 22 18.7488 21.9992 19.0322 21.9761C19.3038 21.9539 19.4045 21.9162 19.454 21.891C19.6422 21.7951 19.7951 21.6422 19.891 21.454C19.9162 21.4045 19.9539 21.3038 19.9761 21.0322C19.9964 20.783 19.9995 20.4651 19.9999 20H8.00007Z" fill="#023F80"/>
</svg>
