<svg width="28" height="28" viewBox="0 0 28 28" fill="none" xmlns="http://www.w3.org/2000/svg">
<path fill-rule="evenodd" clipRule="evenodd" d="M12.5 6C9.46243 6 7 8.46243 7 11.5C7 11.7564 7.01748 12.0083 7.05119 12.2544C7.11256 12.7026 6.86549 13.1361 6.44865 13.3117C5.00818 13.9185 4 15.3427 4 17C4 19.2091 5.79086 21 8 21H19C21.7614 21 24 18.7614 24 16C24 13.2386 21.7614 11 19 11C18.9515 11 18.9031 11.0007 18.855 11.0021C18.3807 11.0155 17.9622 10.6938 17.8533 10.232C17.2811 7.8053 15.1002 6 12.5 6ZM5 11.5C5 7.35786 8.35786 4 12.5 4C15.7753 4 18.5584 6.09869 19.5813 9.02379C23.1753 9.31924 26 12.3298 26 16C26 19.866 22.866 23 19 23H8C4.68629 23 2 20.3137 2 17C2 14.7754 3.21048 12.8354 5.00589 11.7996C5.00197 11.7001 5 11.6003 5 11.5Z" fill="#023F80"/>
</svg>
