<svg width="28" height="28" viewBox="0 0 28 28" fill="none" xmlns="http://www.w3.org/2000/svg">
<g clip-path="url(#clip0_29720_21396)">
<path fill-rule="evenodd" clipRule="evenodd" d="M18.3163 1.05133C17.7923 0.876678 17.226 1.15984 17.0513 1.68378L16.9049 2.12312C16.5947 3.05386 16.6668 4.06972 17.1056 4.94722C17.3071 5.3503 17.3403 5.81692 17.1978 6.24444L17.0513 6.68378C16.8767 7.20772 17.1599 7.77404 17.6838 7.94869C18.2077 8.12334 18.7741 7.84018 18.9487 7.31624L19.0952 6.8769C19.4054 5.94616 19.3332 4.9303 18.8945 4.0528C18.6929 3.64972 18.6598 3.1831 18.8023 2.75558L18.9487 2.31624C19.1234 1.79229 18.8402 1.22597 18.3163 1.05133Z" fill="#023F80"/>
<path fill-rule="evenodd" clipRule="evenodd" d="M8.31626 1.05133C7.79231 0.876678 7.22599 1.15984 7.05135 1.68378L6.9049 2.12312C6.59465 3.05386 6.66685 4.06972 7.1056 4.94722C7.30714 5.3503 7.3403 5.81692 7.19779 6.24444L7.05134 6.68378C6.8767 7.20772 7.15986 7.77404 7.6838 7.94869C8.20774 8.12334 8.77406 7.84018 8.94871 7.31624L9.09516 6.8769C9.4054 5.94616 9.33321 4.9303 8.89446 4.0528C8.69292 3.64972 8.65976 3.1831 8.80227 2.75558L8.94871 2.31624C9.12336 1.79229 8.8402 1.22597 8.31626 1.05133Z" fill="#023F80"/>
<path fill-rule="evenodd" clipRule="evenodd" d="M13.2677 0.0364915C12.7355 -0.111324 12.1843 0.200229 12.0365 0.732366L11.8141 1.533C11.5743 2.39626 11.6313 3.31502 11.9759 4.14204L12.178 4.62721C12.3503 5.04072 12.3788 5.5001 12.2589 5.93173L12.0365 6.73237C11.8887 7.2645 12.2002 7.81571 12.7324 7.96353C13.2645 8.11134 13.8157 7.79979 13.9635 7.26765L14.1859 6.46702C14.4257 5.60376 14.3688 4.685 14.0242 3.85798L13.822 3.37281C13.6497 2.9593 13.6213 2.49992 13.7411 2.06829L13.9635 1.26765C14.1114 0.735517 13.7998 0.184307 13.2677 0.0364915Z" fill="#023F80"/>
<path fill-rule="evenodd" clipRule="evenodd" d="M20.2182 10.0354C19.8042 9.99997 19.2967 9.99999 18.7037 10H7.29654C6.70352 9.99999 6.19601 9.99997 5.782 10.0354C5.34836 10.0725 4.9158 10.1546 4.51032 10.3812C3.91142 10.7159 3.44533 11.2457 3.18974 11.8824C3.01671 12.3135 2.99048 12.753 3.00895 13.1878C3.02658 13.6029 3.09131 14.1063 3.16694 14.6945L3.55187 17.6887L3.57659 17.8811C3.81944 19.7729 3.97097 20.9533 4.41995 21.9282C5.2475 23.7251 6.79673 25.0879 8.68446 25.6796C9.70864 26.0006 10.8988 26.0004 12.806 26L13.0001 26L13.1941 26C15.1014 26.0004 16.2915 26.0006 17.3156 25.6796C19.2034 25.0879 20.7526 23.7251 21.5801 21.9283C21.6724 21.7281 21.752 21.5192 21.8225 21.2973L24.2443 20.5708C25.8799 20.0801 27 18.5746 27 16.8669C27 14.7313 25.2687 13 23.1331 13H22.9962C22.9992 12.6268 22.9586 12.2515 22.8105 11.8824C22.5549 11.2457 22.0888 10.7159 21.4899 10.3812C21.0844 10.1546 20.6519 10.0725 20.2182 10.0354ZM22.4483 17.6888L22.4235 17.8813C22.3679 18.3149 22.317 18.7111 22.2663 19.0761L23.6696 18.6551C24.4592 18.4182 25 17.6914 25 16.8669C25 15.8359 24.1642 15 23.1331 15H22.794L22.4483 17.6888ZM5.95261 12.0281C5.64421 12.0545 5.53523 12.0995 5.48597 12.1271C5.28634 12.2386 5.13098 12.4152 5.04578 12.6275C5.02476 12.6798 4.99401 12.7937 5.00715 13.1029C5.02071 13.4222 5.07355 13.8399 5.1559 14.4805L5.53555 17.4337C5.81169 19.5816 5.93231 20.431 6.23655 21.0916C6.82766 22.3751 7.93425 23.3485 9.28263 23.7711C9.97664 23.9887 10.8344 24 13.0001 24C15.1657 24 16.0235 23.9887 16.7175 23.7711C18.0659 23.3485 19.1724 22.3751 19.7636 21.0916C20.0678 20.431 20.1884 19.5817 20.4646 17.4338L20.8443 14.4806C20.9267 13.8399 20.9795 13.4222 20.9931 13.1029C21.0062 12.7937 20.9755 12.6798 20.9544 12.6275C20.8692 12.4153 20.7139 12.2386 20.5142 12.1271C20.465 12.0995 20.356 12.0545 20.0476 12.0281C19.7292 12.0009 19.3081 12 18.6623 12H7.33794C6.69206 12 6.27103 12.0009 5.95261 12.0281Z" fill="#023F80"/>
</g>
<defs>
<clipPath id="clip0_29720_21396">
<rect width="28" height="28" fill="white"/>
</clipPath>
</defs>
</svg>
