<svg width="28" height="28" viewBox="0 0 28 28" fill="none" xmlns="http://www.w3.org/2000/svg">
<path fill-rule="evenodd" clipRule="evenodd" d="M3.29289 3.29289C3.68342 2.90237 4.31658 2.90237 4.70711 3.29289L24.7071 23.2929C25.0976 23.6834 25.0976 24.3166 24.7071 24.7071C24.3166 25.0976 23.6834 25.0976 23.2929 24.7071L20.5858 22L17.2924 22L12.9318 25.8155C12.5696 26.1716 12.1567 26.4478 11.6883 26.5454C11.1684 26.6537 10.6963 26.5171 10.3375 26.2479C10.0077 26.0006 9.80563 25.6694 9.6877 25.3894C9.56898 25.1074 9.49996 24.7936 9.49996 24.5V22H7.58329C6.48105 22 5.4848 21.6282 4.7616 20.905C4.03841 20.1818 3.66663 19.1856 3.66663 18.0833V8.75001C3.66663 7.70462 4.00224 6.7596 4.64069 6.0549L3.29289 4.70711C2.90237 4.31658 2.90237 3.68342 3.29289 3.29289ZM6.05942 7.47363C5.82034 7.77478 5.66663 8.19593 5.66663 8.75001V18.0833C5.66663 18.7311 5.87818 19.1932 6.17582 19.4908C6.47345 19.7885 6.93554 20 7.58329 20H10.499C10.764 20 11.0182 20.1052 11.2057 20.2926L11.2067 20.2936C11.3945 20.4811 11.5 20.7356 11.5 21.001V24.418C11.5137 24.405 11.528 24.3911 11.5429 24.3762C11.5585 24.3605 11.5748 24.3454 11.5915 24.3308L16.1167 20.3712C16.3902 20.1319 16.7412 20 17.1045 20L18.5858 20L6.05942 7.47363ZM17.4331 21.8769C17.4333 21.8767 17.4335 21.8765 17.4338 21.8763L17.1045 21.5L17.4337 21.8763L17.4331 21.8769ZM10 5.83334C10 5.28106 10.4477 4.83334 11 4.83334H21.5833C22.6855 4.83334 23.6818 5.20512 24.405 5.92832C25.1282 6.65152 25.5 7.64776 25.5 8.75001V18.0833C25.5 18.6356 25.0522 19.0833 24.5 19.0833C23.9477 19.0833 23.5 18.6356 23.5 18.0833V8.75001C23.5 8.10226 23.2884 7.64017 22.9908 7.34253C22.6931 7.0449 22.231 6.83334 21.5833 6.83334H11C10.4477 6.83334 10 6.38563 10 5.83334Z" fill="#023F80"/>
</svg>
