<svg width="24" height="24" viewBox="0 0 24 24" fill="none" xmlns="http://www.w3.org/2000/svg">
<path d="M5.99995 1.00621C6.49701 1.00621 6.89996 1.40915 6.89996 1.90621V14.8C6.89996 15.3749 6.90065 15.7519 6.92421 16.0403C6.94691 16.3181 6.98628 16.4335 7.01985 16.4994C7.12531 16.7063 7.29359 16.8746 7.50056 16.9801C7.56646 17.0136 7.6818 17.053 7.95965 17.0757C8.248 17.0993 8.62505 17.1 9.19995 17.1H22.0976C22.5947 17.1 22.9976 17.5029 22.9976 18C22.9976 18.497 22.5947 18.9 22.0976 18.9H18.9V22.0976C18.9 22.5947 18.497 22.9976 18 22.9976C17.5029 22.9976 17.1 22.5947 17.1 22.0976V18.9H9.16455C8.6347 18.9 8.18349 18.9 7.81307 18.8697C7.42391 18.8379 7.04532 18.7683 6.68338 18.5839C6.13771 18.3058 5.69407 17.8622 5.41603 17.3165C5.23162 16.9546 5.16199 16.576 5.13019 16.1868C5.09993 15.8164 5.09994 15.3652 5.09995 14.8354L5.09996 6.89998H1.90244C1.40539 6.89998 1.00244 6.49704 1.00244 5.99998C1.00244 5.50293 1.40539 5.09999 1.90244 5.09999H5.09996V1.90621C5.09996 1.40915 5.5029 1.00621 5.99995 1.00621Z" fill="#023F80"/>
<path d="M16.0403 6.92422C15.7519 6.90066 15.3749 6.89996 14.8 6.89996H9.90653C9.40948 6.89996 9.00653 6.49702 9.00653 5.99996C9.00653 5.5029 9.40948 5.09996 9.90653 5.09996H14.8354C15.3652 5.09995 15.8164 5.09993 16.1869 5.1302C16.576 5.16199 16.9546 5.23163 17.3166 5.41604C17.8622 5.69408 18.3059 6.13772 18.5839 6.68339C18.7683 7.04532 18.8379 7.42391 18.8697 7.81308C18.9 8.1835 18.9 8.63467 18.9 9.16451V14.1015C18.9 14.5986 18.497 15.0015 18 15.0015C17.5029 15.0015 17.1 14.5986 17.1 14.1015V9.19996C17.1 8.62506 17.0993 8.24801 17.0757 7.95965C17.053 7.6818 17.0137 7.56646 16.9801 7.50057C16.8746 7.29359 16.7063 7.12531 16.4994 7.01985C16.4335 6.98628 16.3181 6.94692 16.0403 6.92422Z" fill="#023F80"/>
</svg>
