<svg width="24" height="24" viewBox="0 0 24 24" fill="none" xmlns="http://www.w3.org/2000/svg">
<path fill-rule="evenodd" clipRule="evenodd" d="M11.6974 2.15241C11.8931 2.0825 12.1071 2.0825 12.3028 2.15241L19.3028 4.65241C19.661 4.78033 19.9001 5.11962 19.9001 5.49998V13C19.9001 15.8507 18.3319 18.0768 16.6572 19.5506C15.8145 20.2922 14.9201 20.8668 14.1257 21.2598C13.3682 21.6345 12.5894 21.9 12.0001 21.9C11.4108 21.9 10.632 21.6345 9.87452 21.2598C9.08005 20.8668 8.18569 20.2922 7.34303 19.5506C5.66825 18.0768 4.1001 15.8507 4.1001 13V5.49998C4.1001 5.11962 4.3392 4.78033 4.69739 4.65241L11.6974 2.15241ZM5.9001 6.13422V13C5.9001 15.1493 7.08194 16.9231 8.53216 18.1993C9.25201 18.8328 10.0139 19.3206 10.6726 19.6464C11.3682 19.9905 11.8394 20.1 12.0001 20.1C12.1608 20.1 12.632 19.9905 13.3276 19.6464C13.9863 19.3206 14.7482 18.8328 15.468 18.1993C16.9183 16.9231 18.1001 15.1493 18.1001 13V6.13422L12.0001 3.95565L5.9001 6.13422Z" fill="#023F80"/>
<path d="M10.1365 8.86358C9.78502 8.51211 9.21517 8.51211 8.8637 8.86358C8.51223 9.21505 8.51223 9.7849 8.8637 10.1364L10.7273 12L8.8637 13.8636C8.51223 14.2151 8.51223 14.7849 8.8637 15.1364C9.21517 15.4878 9.78502 15.4878 10.1365 15.1364L12.0001 13.2728L13.8637 15.1364C14.2152 15.4878 14.785 15.4878 15.1365 15.1364C15.488 14.7849 15.488 14.2151 15.1365 13.8636L13.2729 12L15.1365 10.1364C15.488 9.7849 15.488 9.21505 15.1365 8.86358C14.785 8.51211 14.2152 8.51211 13.8637 8.86358L12.0001 10.7272L10.1365 8.86358Z" fill="#023F80"/>
</svg>
