<svg width="24" height="24" viewBox="0 0 24 24" fill="none" xmlns="http://www.w3.org/2000/svg">
<path fill-rule="evenodd" clipRule="evenodd" d="M4.15463 5.50189L4.05431 5.54634C3.60509 5.7451 3.18918 5.92913 2.87033 6.2346C2.59168 6.50157 2.37862 6.82943 2.24783 7.19249C2.09817 7.60792 2.09893 8.06273 2.09974 8.55396L2.09987 8.66368V15.4403L2.09974 15.5456C2.0989 16.003 2.09809 16.4394 2.24191 16.8386C2.36747 17.1871 2.57201 17.5019 2.83952 17.7582C3.14592 18.0517 3.54499 18.2282 3.96329 18.4132L4.05961 18.4559L10.4126 21.2795C10.8144 21.4585 11.1534 21.6095 11.517 21.6709C11.8366 21.7249 12.1631 21.7249 12.4827 21.6709C12.8463 21.6095 13.1853 21.4585 13.5871 21.2795L19.9401 18.4559L20.0364 18.4132C20.4547 18.2282 20.8538 18.0517 21.1602 17.7582C21.4277 17.5019 21.6323 17.1871 21.7578 16.8386C21.9016 16.4394 21.9008 16.003 21.9 15.5456L21.8999 15.4403V8.66368L21.9 8.55395C21.9008 8.06272 21.9016 7.60792 21.7519 7.19249C21.6211 6.82943 21.408 6.50157 21.1294 6.2346C20.8106 5.92913 20.3946 5.7451 19.9454 5.54634L19.8451 5.50189L13.5872 2.72053C13.1853 2.54153 12.8463 2.39051 12.4827 2.32912C12.1631 2.27514 11.8366 2.27514 11.517 2.32912C11.1534 2.39051 10.8144 2.54153 10.4126 2.72053L4.15463 5.50189ZM12.183 4.10399C12.0618 4.08352 11.938 4.08352 11.8167 4.10399C11.706 4.12268 11.5865 4.16862 11.0657 4.40005L9.71586 5L16.4999 8.01511L18.7839 7L12.934 4.40005C12.4133 4.16862 12.2937 4.12268 12.183 4.10399ZM20.0989 8.38532L16.8687 9.82096C16.8667 9.82187 16.8646 9.82278 16.8626 9.82367L13.5872 11.2795C13.3412 11.389 13.1188 11.4881 12.8999 11.5626V19.6151L19.2091 16.811C19.7878 16.5538 19.8665 16.5049 19.915 16.4584C19.9818 16.3944 20.033 16.3157 20.0644 16.2285C20.0871 16.1654 20.0999 16.0737 20.0999 15.4403V8.66368C20.0999 8.55758 20.0995 8.46549 20.0989 8.38532ZM11.0999 11.5626C10.8809 11.4881 10.6585 11.389 10.4126 11.2795L3.90084 8.38532C3.90018 8.46549 3.89987 8.55758 3.89987 8.66368V15.4403C3.89987 16.0737 3.91264 16.1654 3.93538 16.2285C3.96677 16.3157 4.0179 16.3944 4.08478 16.4584C4.13322 16.5049 4.21188 16.5538 4.79066 16.811L11.0999 19.6151V11.5626ZM5.21586 7L11.0657 9.59995C11.5865 9.83138 11.706 9.87732 11.8167 9.89601C11.938 9.91648 12.0618 9.91648 12.183 9.89601C12.2937 9.87732 12.4133 9.83138 12.934 9.59995L14.2839 9L7.49987 5.98489L5.21586 7Z" fill="#023F80"/>
</svg>
