<svg width="28" height="28" viewBox="0 0 28 28" fill="none" xmlns="http://www.w3.org/2000/svg">
<path fill-rule="evenodd" clipRule="evenodd" d="M10.0625 4C9.90935 4 9.75824 4.03518 9.62083 4.10283L5.57103 6.09658C5.41143 6.17219 5.2702 6.29077 5.16646 6.44755C5.15718 6.46156 5.14825 6.4758 5.13968 6.49026L2.15467 11.4653C2.14963 11.4733 2.14469 11.4813 2.13986 11.4895C2.09971 11.557 2.06821 11.6282 2.04534 11.7016C2.02198 11.7762 2.00778 11.8523 2.00238 11.9284C1.99443 12.0377 2.00471 12.1455 2.03117 12.2483C2.05784 12.3528 2.10165 12.4538 2.16258 12.5469C2.20344 12.6096 2.25169 12.6682 2.30696 12.7212L13.2874 23.7016C13.3002 23.7146 13.3134 23.7273 13.3269 23.7396C13.4984 23.8959 13.7112 23.9819 13.9281 23.9974L13.952 23.9989L13.9543 23.999C13.9695 23.9997 13.9848 24 14 24C14.0285 24 14.057 23.9988 14.0855 23.9964C14.2976 23.9783 14.5051 23.8927 14.6731 23.7396C14.6866 23.7273 14.6998 23.7146 14.7126 23.7016L25.6929 12.7213C25.6978 12.7166 25.7026 12.7119 25.7073 12.7071C25.7722 12.6424 25.8267 12.5701 25.8705 12.4927C25.9127 12.4182 25.9447 12.3393 25.9663 12.2582C25.9959 12.1478 26.0068 12.0314 25.9964 11.9135C25.9883 11.8187 25.9665 11.7242 25.9306 11.6333C25.9127 11.5878 25.8913 11.5433 25.8665 11.5003C25.848 11.4682 25.8279 11.4375 25.8063 11.408L22.3193 6.42654C22.2258 6.29304 22.1057 6.18936 21.9711 6.11765L18.427 4.12802C18.2775 4.04408 18.109 4 17.9375 4H10.0625ZM21.1208 8.20197L17.731 9.43461L18.9364 12.6489C18.9374 12.6516 18.9384 12.6542 18.9393 12.6569L23.3714 11.4172L21.1208 8.20197ZM16.932 13L15.807 10H12.193L11.068 13H16.932ZM9.06072 12.6569C9.0617 12.6542 9.06269 12.6516 9.0637 12.6489L10.2549 9.47238L6.4448 8.20236L4.53211 11.3902L9.06072 12.6569ZM8.62671 6.82147L10.2953 6H17.676L19.11 6.80504L15.8238 8H12.1623L8.62671 6.82147ZM10.8989 18.4846L6.40506 13.9908L9.25605 14.7883L10.8989 18.4846ZM14 20.5378L11.5388 15H16.4612L14 20.5378ZM17.1011 18.4846L18.7439 14.7883L21.5949 13.9909L17.1011 18.4846Z" fill="#023F80"/>
</svg>
