<svg width="24" height="24" viewBox="0 0 24 24" fill="none" xmlns="http://www.w3.org/2000/svg">
<path fill-rule="evenodd" clipRule="evenodd" d="M4.99974 4.99962C6.7903 3.20906 9.26654 2.09998 12.0001 2.09998C14.7337 2.09998 17.2099 3.20906 19.0005 4.99962C20.791 6.79018 21.9001 9.26641 21.9001 12C21.9001 14.7335 20.791 17.2098 19.0005 19.0003C17.2099 20.7909 14.7337 21.9 12.0001 21.9C9.26654 21.9 6.7903 20.7909 4.99974 19.0003C3.20918 17.2098 2.1001 14.7335 2.1001 12C2.1001 9.26641 3.20918 6.79018 4.99974 4.99962ZM12.0001 3.89998C9.76309 3.89998 7.73933 4.80561 6.27253 6.27241C4.80574 7.73921 3.9001 9.76297 3.9001 12C3.9001 14.237 4.80574 16.2607 6.27253 17.7275C7.73933 19.1943 9.7631 20.1 12.0001 20.1C14.2371 20.1 16.2609 19.1943 17.7277 17.7275C19.1945 16.2607 20.1001 14.237 20.1001 12C20.1001 9.76297 19.1945 7.73921 17.7277 6.27241C16.2609 4.80561 14.2371 3.89998 12.0001 3.89998Z" fill="#023F80"/>
<path fill-rule="evenodd" clipRule="evenodd" d="M9.74773 7.76818C10.3736 7.30502 11.1656 7.09998 11.9278 7.09998C13.1802 7.09998 14.5377 7.6425 15.0151 8.89951C15.1916 9.36418 14.958 9.88394 14.4933 10.0604C14.0286 10.2369 13.5089 10.0033 13.3324 9.5386C13.2289 9.26616 12.7937 8.89998 11.9278 8.89998C11.465 8.89998 11.0717 9.02768 10.8185 9.21507C10.5903 9.38395 10.4571 9.60808 10.4571 9.93669C10.4571 10.1331 10.4998 10.2449 10.5423 10.3161C10.5877 10.3921 10.6656 10.4757 10.8087 10.5656C11.1321 10.7691 11.6011 10.901 12.2592 11.0754C12.2774 11.0802 12.2958 11.0851 12.3144 11.09C12.8875 11.2417 13.6261 11.4372 14.2122 11.8115C14.5331 12.0164 14.8401 12.2924 15.0634 12.6721C15.2893 13.056 15.4001 13.4959 15.4001 13.9809C15.4001 15.0135 14.8794 15.7825 14.1677 16.2578C13.4874 16.7121 12.6424 16.9 11.8666 16.9C10.6027 16.9 9.43465 16.4513 8.75814 15.4659C8.4768 15.0561 8.58092 14.4959 8.99069 14.2145C9.40047 13.9332 9.96072 14.0373 10.2421 14.4471C10.4847 14.8005 10.9984 15.1 11.8666 15.1C12.3829 15.1 12.8547 14.9702 13.1681 14.7609C13.4501 14.5726 13.6001 14.3321 13.6001 13.9809C13.6001 13.7779 13.5564 13.6603 13.512 13.5848C13.465 13.5049 13.3858 13.4195 13.2433 13.3285C12.9216 13.123 12.4535 12.9891 11.798 12.8153C11.7746 12.8091 11.7509 12.8028 11.7269 12.7965C11.1585 12.6462 10.4292 12.4534 9.85031 12.0893C9.52996 11.8878 9.2217 11.6155 8.99679 11.2388C8.76898 10.8572 8.65715 10.4193 8.65715 9.93669C8.65715 8.99409 9.09686 8.24986 9.74773 7.76818Z" fill="#023F80"/>
<path fill-rule="evenodd" clipRule="evenodd" d="M12.0001 5.59998C12.4972 5.59998 12.9001 6.00292 12.9001 6.49998V7.49998C12.9001 7.99703 12.4972 8.39998 12.0001 8.39998C11.503 8.39998 11.1001 7.99703 11.1001 7.49998V6.49998C11.1001 6.00292 11.503 5.59998 12.0001 5.59998Z" fill="#023F80"/>
<path fill-rule="evenodd" clipRule="evenodd" d="M12.0001 15.6C12.4972 15.6 12.9001 16.0029 12.9001 16.5V17.5C12.9001 17.997 12.4972 18.4 12.0001 18.4C11.503 18.4 11.1001 17.997 11.1001 17.5V16.5C11.1001 16.0029 11.503 15.6 12.0001 15.6Z" fill="#023F80"/>
</svg>
