<svg width="24" height="24" viewBox="0 0 24 24" fill="none" xmlns="http://www.w3.org/2000/svg">
<path fill-rule="evenodd" clipRule="evenodd" d="M14.2001 4.89998C14.705 4.89998 15.0295 4.90068 15.2762 4.92083C15.5124 4.94013 15.5968 4.97267 15.636 4.99262C15.7959 5.07411 15.926 5.20415 16.0075 5.36409C16.0274 5.40324 16.0599 5.48771 16.0792 5.72387C16.0994 5.97054 16.1001 6.29508 16.1001 6.79998V8.19998C16.1001 8.70487 16.0994 9.02942 16.0792 9.27609C16.0599 9.51225 16.0274 9.59672 16.0075 9.63587C15.926 9.79581 15.7959 9.92584 15.636 10.0073C15.5968 10.0273 15.5124 10.0598 15.2762 10.0791C15.0295 10.0993 14.705 10.1 14.2001 10.1H7.5001C6.06416 10.1 4.9001 8.93592 4.9001 7.49998C4.9001 6.06404 6.06416 4.89998 7.5001 4.89998H14.2001ZM16.4532 3.38881C16.118 3.21802 15.7703 3.1552 15.4228 3.12681C15.094 3.09995 14.6952 3.09996 14.2346 3.09998H14.2346H14.2001H7.5001C5.07004 3.09998 3.1001 5.06993 3.1001 7.49998C3.1001 9.73191 4.76192 11.5757 6.91572 11.8615L5.50824 19.1H4.0001C3.50304 19.1 3.1001 19.5029 3.1001 20C3.1001 20.497 3.50304 20.9 4.0001 20.9H15.0001C15.4972 20.9 15.9001 20.497 15.9001 20C15.9001 19.5029 15.4972 19.1 15.0001 19.1H11.342L12.742 11.9H14.2001L14.2346 11.9H14.2346H14.2346H14.2346H14.2346H14.2347C14.6952 11.9 15.094 11.9 15.4228 11.8731C15.7703 11.8448 16.118 11.7819 16.4532 11.6111C16.9518 11.3571 17.3572 10.9517 17.6113 10.4531C17.6203 10.4354 17.629 10.4177 17.6374 10.4H18.0001C19.2875 10.4 20.3791 9.56102 20.7577 8.39998H22.1001C22.5972 8.39998 23.0001 7.99703 23.0001 7.49998C23.0001 7.00292 22.5972 6.59998 22.1001 6.59998H20.7577C20.3791 5.43894 19.2875 4.59998 18.0001 4.59998H17.6374C17.629 4.58225 17.6203 4.56456 17.6113 4.5469C17.3572 4.04827 16.9518 3.64288 16.4532 3.38881ZM19.1001 7.49998C19.1001 6.89246 18.6076 6.39998 18.0001 6.39998H17.8996C17.9001 6.51697 17.9001 6.6388 17.9001 6.76529V6.7654V6.76542V6.76544V6.76546V6.76548V6.79998V8.19998V8.23447V8.23449V8.23451V8.23453V8.23455V8.23467C17.9001 8.36116 17.9001 8.48298 17.8996 8.59998H18.0001C18.6076 8.59998 19.1001 8.10749 19.1001 7.49998ZM10.9082 11.9H8.74195L7.34195 19.1H9.50824L10.9082 11.9Z" fill="#023F80"/>
</svg>
