<svg width="28" height="28" viewBox="0 0 28 28" fill="none" xmlns="http://www.w3.org/2000/svg">
<path d="M8.6001 8.99998C8.6001 8.62772 8.6001 8.44159 8.64904 8.29096C8.74796 7.98652 8.98664 7.74784 9.29108 7.64892C9.44171 7.59998 9.62784 7.59998 10.0001 7.59998C10.3724 7.59998 10.5585 7.59998 10.7091 7.64892C11.0136 7.74784 11.2522 7.98652 11.3512 8.29096C11.4001 8.44159 11.4001 8.62772 11.4001 8.99998C11.4001 9.37223 11.4001 9.55836 11.3512 9.70899C11.2522 10.0134 11.0136 10.2521 10.7091 10.351C10.5585 10.4 10.3724 10.4 10.0001 10.4C9.62784 10.4 9.44171 10.4 9.29108 10.351C8.98664 10.2521 8.74796 10.0134 8.64904 9.70899C8.6001 9.55836 8.6001 9.37223 8.6001 8.99998Z" fill="#023F80"/>
<path d="M16.6001 8.99998C16.6001 8.62772 16.6001 8.44159 16.649 8.29096C16.748 7.98652 16.9866 7.74784 17.2911 7.64892C17.4417 7.59998 17.6278 7.59998 18.0001 7.59998C18.3724 7.59998 18.5585 7.59998 18.7091 7.64892C19.0136 7.74784 19.2522 7.98652 19.3512 8.29096C19.4001 8.44159 19.4001 8.62772 19.4001 8.99998C19.4001 9.37223 19.4001 9.55836 19.3512 9.70899C19.2522 10.0134 19.0136 10.2521 18.7091 10.351C18.5585 10.4 18.3724 10.4 18.0001 10.4C17.6278 10.4 17.4417 10.4 17.2911 10.351C16.9866 10.2521 16.748 10.0134 16.649 9.70899C16.6001 9.55836 16.6001 9.37223 16.6001 8.99998Z" fill="#023F80"/>
<path d="M16.6001 14C16.6001 13.6277 16.6001 13.4416 16.649 13.291C16.748 12.9865 16.9866 12.7478 17.2911 12.6489C17.4417 12.6 17.6278 12.6 18.0001 12.6C18.3724 12.6 18.5585 12.6 18.7091 12.6489C19.0136 12.7478 19.2522 12.9865 19.3512 13.291C19.4001 13.4416 19.4001 13.6277 19.4001 14C19.4001 14.3722 19.4001 14.5584 19.3512 14.709C19.2522 15.0134 19.0136 15.2521 18.7091 15.351C18.5585 15.4 18.3724 15.4 18.0001 15.4C17.6278 15.4 17.4417 15.4 17.2911 15.351C16.9866 15.2521 16.748 15.0134 16.649 14.709C16.6001 14.5584 16.6001 14.3722 16.6001 14Z" fill="#023F80"/>
<path d="M16.649 18.291C16.6001 18.4416 16.6001 18.6277 16.6001 19C16.6001 19.3722 16.6001 19.5584 16.649 19.709C16.748 20.0134 16.9866 20.2521 17.2911 20.351C17.4417 20.4 17.6278 20.4 18.0001 20.4C18.3724 20.4 18.5585 20.4 18.7091 20.351C19.0136 20.2521 19.2522 20.0134 19.3512 19.709C19.4001 19.5584 19.4001 19.3722 19.4001 19C19.4001 18.6277 19.4001 18.4416 19.3512 18.291C19.2522 17.9865 19.0136 17.7478 18.7091 17.6489C18.5585 17.6 18.3724 17.6 18.0001 17.6C17.6278 17.6 17.4417 17.6 17.2911 17.6489C16.9866 17.7478 16.748 17.9865 16.649 18.291Z" fill="#023F80"/>
<path d="M8.64904 13.291C8.6001 13.4416 8.6001 13.6277 8.6001 14C8.6001 14.3722 8.6001 14.5584 8.64904 14.709C8.74796 15.0134 8.98664 15.2521 9.29108 15.351C9.44171 15.4 9.62784 15.4 10.0001 15.4C10.3724 15.4 10.5585 15.4 10.7091 15.351C11.0136 15.2521 11.2522 15.0134 11.3512 14.709C11.4001 14.5584 11.4001 14.3722 11.4001 14C11.4001 13.6277 11.4001 13.4416 11.3512 13.291C11.2522 12.9865 11.0136 12.7478 10.7091 12.6489C10.5585 12.6 10.3724 12.6 10.0001 12.6C9.62784 12.6 9.44171 12.6 9.29108 12.6489C8.98664 12.7478 8.74796 12.9865 8.64904 13.291Z" fill="#023F80"/>
<path d="M8.6001 19C8.6001 18.6277 8.6001 18.4416 8.64904 18.291C8.74796 17.9865 8.98664 17.7478 9.29108 17.6489C9.44171 17.6 9.62784 17.6 10.0001 17.6C10.3724 17.6 10.5585 17.6 10.7091 17.6489C11.0136 17.7478 11.2522 17.9865 11.3512 18.291C11.4001 18.4416 11.4001 18.6277 11.4001 19C11.4001 19.3722 11.4001 19.5584 11.3512 19.709C11.2522 20.0134 11.0136 20.2521 10.7091 20.351C10.5585 20.4 10.3724 20.4 10.0001 20.4C9.62784 20.4 9.44171 20.4 9.29108 20.351C8.98664 20.2521 8.74796 20.0134 8.64904 19.709C8.6001 19.5584 8.6001 19.3722 8.6001 19Z" fill="#023F80"/>
<path fill-rule="evenodd" clipRule="evenodd" d="M4.65396 6.27606C4 7.55953 4 9.23969 4 12.6V16.4C4 19.7603 4 20.4405 4.65396 21.7239C5.2292 22.8529 6.14708 23.7708 7.27606 24.346C8.55953 25 10.2397 25 13.6 25H14.4C17.7603 25 19.4405 25 20.7239 24.346C21.8529 23.7708 22.7708 22.8529 23.346 21.7239C24 20.4405 24 18.7603 24 15.4V12.6C24 9.23969 24 7.55953 23.346 6.27606C22.7708 5.14708 21.8529 4.2292 20.7239 3.65396C19.4405 3 17.7603 3 14.4 3H13.6C10.2397 3 8.55953 3 7.27606 3.65396C6.14708 4.2292 5.2292 5.14708 4.65396 6.27606ZM14.4 5H13.6C11.8868 5 10.7223 5.00156 9.82208 5.0751C8.94525 5.14674 8.49684 5.27659 8.18404 5.43597C7.43139 5.81947 6.81947 6.43139 6.43597 7.18404C6.27659 7.49684 6.14674 7.94525 6.0751 8.82208C6.00156 9.72226 6 10.8868 6 12.6V15.4C6 17.1132 6.00156 18.2777 6.0751 19.1779C6.14674 20.0548 6.27659 20.5032 6.43597 20.816C6.81947 21.5686 7.43139 22.1805 8.18404 22.564C8.49684 22.7234 8.94525 22.8533 9.82208 22.9249C10.7223 22.9984 11.8868 23 13.6 23H14.4C16.1132 23 17.2777 22.9984 18.1779 22.9249C19.0548 22.8533 19.5032 22.7234 19.816 22.564C20.5686 22.1805 21.1805 21.5686 21.564 20.816C21.7234 20.5032 21.8533 20.0548 21.9249 19.1779C21.9984 18.2777 22 17.1132 22 15.4V12.6C22 10.8868 21.9984 9.72226 21.9249 8.82208C21.8533 7.94525 21.7234 7.49684 21.564 7.18404C21.1805 6.43139 20.5686 5.81947 19.816 5.43597C19.5032 5.27659 19.0548 5.14674 18.1779 5.0751C17.2777 5.00156 16.1132 5 14.4 5Z" fill="#023F80"/>
</svg>
