<svg width="24" height="24" viewBox="0 0 24 24" fill="none" xmlns="http://www.w3.org/2000/svg">
<path fill-rule="evenodd" clipRule="evenodd" d="M10.1231 3.83923C9.83978 4.07977 9.52075 4.39881 9.14609 4.77349L8.65682 5.26276L7.72197 4.3279C7.50048 4.10628 7.27345 3.88907 6.96813 3.78987C6.68695 3.69851 6.38406 3.69851 6.10288 3.78987C5.8878 3.85975 5.73074 3.97615 5.62439 4.06643L4.06637 5.62445C3.97609 5.73079 3.8597 5.88786 3.78981 6.10294C3.69845 6.38412 3.69845 6.68701 3.78981 6.96819C3.88902 7.2735 4.10622 7.50054 4.32784 7.72202L5.26271 8.65687L4.77347 9.14611C4.39879 9.52077 4.07974 9.8398 3.83921 10.1231C3.58651 10.4208 3.36805 10.7377 3.24252 11.1241C3.05327 11.7065 3.05327 12.3339 3.24252 12.9164C3.36805 13.3027 3.58651 13.6196 3.83921 13.9173C4.07974 14.2006 4.39878 14.5197 4.77347 14.8943L6.1034 16.2243C6.47806 16.5989 6.79709 16.918 7.08042 17.1585C7.37809 17.4112 7.69503 17.6297 8.08136 17.7552C8.6638 17.9444 9.29121 17.9444 9.87365 17.7552C10.26 17.6297 10.5769 17.4112 10.8746 17.1585C11.1579 16.918 11.4769 16.5989 11.8516 16.2242L12.3409 15.735L17.888 21.2822L17.9036 21.2978C17.9886 21.3829 18.0864 21.4807 18.179 21.5593C18.2853 21.6496 18.4424 21.766 18.6575 21.8358C18.9387 21.9272 19.2415 21.9272 19.5227 21.8358C19.7378 21.766 19.8949 21.6496 20.0012 21.5593C20.0938 21.4807 20.1916 21.3829 20.2766 21.2978L21.2978 20.2766C21.3828 20.1916 21.4806 20.0938 21.5592 20.0013C21.6495 19.8949 21.7659 19.7378 21.8358 19.5228C21.9272 19.2416 21.9272 18.9387 21.8358 18.6575C21.7659 18.4424 21.6495 18.2854 21.5592 18.179C21.4806 18.0864 21.3828 17.9887 21.2978 17.9037L21.2821 17.8881L15.735 12.3409L16.2242 11.8516C16.5989 11.477 16.918 11.1579 17.1585 10.8746C17.4112 10.5769 17.6297 10.26 17.7552 9.87368C17.9444 9.29123 17.9444 8.66382 17.7552 8.08138C17.6297 7.69505 17.4112 7.37811 17.1585 7.08045C16.918 6.79711 16.5989 6.47809 16.2242 6.10343L14.8943 4.77349C14.5196 4.39881 14.2006 4.07976 13.9173 3.83923C13.6196 3.58654 13.3027 3.36807 12.9163 3.24254C12.3339 3.05329 11.7065 3.05329 11.124 3.24254C10.7377 3.36807 10.4208 3.58654 10.1231 3.83923ZM5.21142 11.2881C5.03101 11.5006 4.97728 11.61 4.95442 11.6803C4.88264 11.9012 4.88264 12.1392 4.95442 12.3601C4.97728 12.4305 5.03101 12.5399 5.21142 12.7524C5.39866 12.9729 5.66478 13.24 6.0713 13.6466L7.35116 14.9264C7.75768 15.3329 8.02479 15.5991 8.24534 15.7863C8.45786 15.9667 8.56726 16.0204 8.63759 16.0433C8.85851 16.1151 9.0965 16.1151 9.31742 16.0433C9.38776 16.0204 9.49715 15.9667 9.70967 15.7863C9.93022 15.5991 10.1973 15.3329 10.6039 14.9264L14.9264 10.6039C15.3329 10.1974 15.599 9.93024 15.7863 9.70969C15.9667 9.49717 16.0204 9.38778 16.0433 9.31745C16.1151 9.09652 16.1151 8.85854 16.0433 8.63761C16.0204 8.56728 15.9667 8.45788 15.7863 8.24537C15.599 8.02481 15.3329 7.7577 14.9264 7.35118L13.6465 6.07132C13.24 5.6648 12.9729 5.39868 12.7524 5.21144C12.5398 5.03103 12.4304 4.9773 12.3601 4.95444C12.1392 4.88266 11.9012 4.88266 11.6803 4.95444C11.6099 4.9773 11.5006 5.03103 11.288 5.21144C11.0675 5.39868 10.8004 5.6648 10.3938 6.07132L6.0713 10.3939C5.66478 10.8004 5.39866 11.0675 5.21142 11.2881ZM19.0901 19.9387L19.9386 19.0901L14.4622 13.6137L13.6136 14.4622L19.0901 19.9387ZM6.53551 7.38409L5.68698 6.53556L6.53551 5.68703L7.38404 6.53556L6.53551 7.38409Z" fill="#023F80"/>
</svg>
