<svg width="28" height="28" viewBox="0 0 28 28" fill="none" xmlns="http://www.w3.org/2000/svg">
<path fill-rule="evenodd" clipRule="evenodd" d="M14 2C10.6866 2 7.6852 3.34424 5.51472 5.51472C3.34424 7.6852 2 10.6866 2 14C2 17.3134 3.34424 20.3148 5.51472 22.4853C7.6852 24.6558 10.6866 26 14 26C17.3134 26 20.3148 24.6558 22.4853 22.4853C24.6558 20.3148 26 17.3134 26 14C26 10.6866 24.6558 7.6852 22.4853 5.51472C20.3148 3.34424 17.3134 2 14 2ZM6.92893 6.92893C8.73967 5.11819 11.2383 4 14 4C16.7617 4 19.2603 5.11819 21.0711 6.92893C22.8818 8.73967 24 11.2383 24 14C24 16.7617 22.8818 19.2603 21.0711 21.0711C19.2603 22.8818 16.7617 24 14 24C11.2383 24 8.73967 22.8818 6.92893 21.0711C5.11819 19.2603 4 16.7617 4 14C4 11.2383 5.11819 8.73967 6.92893 6.92893ZM11.4219 9C9.27531 9 7.5 10.7331 7.5 12.9002C7.5 14.0271 7.80578 14.9183 8.53116 15.8163C9.19635 16.6399 10.2251 17.4777 11.6065 18.5589L11.6096 18.5614L13.0385 19.6707C13.6041 20.1098 14.3959 20.1098 14.9615 19.6707L16.3904 18.5614L16.3935 18.5589C17.7749 17.4777 18.8036 16.6399 19.4688 15.8163C20.1942 14.9183 20.5 14.0271 20.5 12.9002C20.5 10.7331 18.7247 9 16.5781 9C15.5977 9 14.7329 9.33412 13.9954 9.93721C13.2555 9.33623 12.3945 9 11.4219 9ZM9.5 12.9002C9.5 11.8574 10.3601 11 11.4219 11C12.042 11 12.636 11.2673 13.2276 11.9867C13.4187 12.2191 13.7043 12.3531 14.0051 12.3515C14.3059 12.35 14.5901 12.2131 14.7788 11.9788C15.3498 11.2699 15.9395 11 16.5781 11C17.6399 11 18.5 11.8574 18.5 12.9002C18.5 13.5754 18.3475 14.0217 17.913 14.5597C17.4185 15.1719 16.5862 15.8684 15.1624 16.9827L15.1609 16.984L14 17.8852L12.8391 16.984L12.8376 16.9828C11.4138 15.8684 10.5815 15.1719 10.087 14.5597C9.65255 14.0217 9.5 13.5754 9.5 12.9002Z" fill="#023F80"/>
</svg>
