<svg width="24" height="24" viewBox="0 0 24 24" fill="none" xmlns="http://www.w3.org/2000/svg">
<path fill-rule="evenodd" clipRule="evenodd" d="M12.1855 4.85073C12.065 4.81157 11.9352 4.81157 11.8146 4.85073C11.8014 4.85503 11.7453 4.87474 11.5965 5.00102C11.4398 5.13411 11.2469 5.32598 10.9394 5.6335L5.57371 10.9992C5.19752 11.3754 5.11723 11.4638 5.06215 11.5537C5.00184 11.6522 4.9574 11.7594 4.93045 11.8717C4.90584 11.9742 4.90006 12.0935 4.90006 12.6255V17.6C4.90006 18.0349 4.90076 18.307 4.9175 18.5119C4.93339 18.7064 4.95913 18.76 4.96545 18.7724C5.02298 18.8853 5.11477 18.9771 5.22766 19.0346C5.24008 19.041 5.29368 19.0667 5.48815 19.0826C5.69313 19.0993 5.96517 19.1 6.40006 19.1H9.10006V15.9C9.10006 14.2984 10.3984 13 12.0001 13C13.6017 13 14.9001 14.2984 14.9001 15.9V19.1H17.6001C18.0349 19.1 18.307 19.0993 18.512 19.0826C18.7064 19.0667 18.76 19.041 18.7725 19.0346C18.8853 18.9771 18.9771 18.8853 19.0347 18.7724C19.041 18.76 19.0667 18.7064 19.0826 18.5119C19.0994 18.307 19.1001 18.0349 19.1001 17.6V12.6255C19.1001 12.0935 19.0943 11.9742 19.0697 11.8717C19.0427 11.7594 18.9983 11.6521 18.938 11.5537C18.8829 11.4638 18.8026 11.3754 18.4264 10.9992L13.0607 5.6335C12.7532 5.32598 12.5603 5.13411 12.4036 5.00102C12.2548 4.87474 12.1987 4.85503 12.1855 4.85073ZM11.2584 3.13883C11.7404 2.98221 12.2597 2.98221 12.7417 3.13883C13.0709 3.2458 13.3346 3.43025 13.5685 3.6288C13.7881 3.81527 14.0331 4.06029 14.31 4.33714L19.6992 9.7264C19.7181 9.74531 19.7368 9.76401 19.7554 9.78253C20.0464 10.0731 20.2919 10.3182 20.4727 10.6132C20.6317 10.8727 20.7489 11.1556 20.8199 11.4515C20.9007 11.7879 20.9004 12.1349 20.9001 12.5461C20.9001 12.5723 20.9001 12.5988 20.9001 12.6255V17.6334C20.9001 18.0249 20.9001 18.3714 20.8766 18.6585C20.8516 18.9643 20.7956 19.2812 20.6385 19.5896C20.4084 20.0412 20.0412 20.4084 19.5896 20.6385C19.2812 20.7956 18.9643 20.8516 18.6585 20.8766C18.3714 20.9001 18.0249 20.9001 17.6334 20.9H14.1887C13.5875 20.9 13.1001 20.4126 13.1001 19.8114V15.9C13.1001 15.2925 12.6076 14.8 12.0001 14.8C11.3925 14.8 10.9001 15.2925 10.9001 15.9V19.8114C10.9001 20.4126 10.4126 20.9 9.8114 20.9H6.36672C5.97522 20.9001 5.62873 20.9001 5.34157 20.8766C5.03579 20.8516 4.71894 20.7956 4.41048 20.6385C3.95889 20.4084 3.59174 20.0412 3.36164 19.5896C3.20448 19.2812 3.14847 18.9643 3.12348 18.6585C3.10002 18.3714 3.10004 18.0249 3.10006 17.6334L3.10006 12.6255C3.10006 12.5988 3.10004 12.5723 3.10002 12.5461C3.09969 12.1349 3.09942 11.7879 3.18018 11.4515C3.25122 11.1556 3.3684 10.8727 3.5274 10.6132C3.70816 10.3183 3.95374 10.0731 4.24473 9.78253C4.26327 9.76401 4.28201 9.74531 4.30092 9.7264L9.69018 4.33713C9.967 4.06028 10.212 3.81526 10.4316 3.62881C10.6655 3.43025 10.9292 3.2458 11.2584 3.13883Z" fill="#023F80"/>
</svg>
