<svg width="177" height="67" viewBox="0 0 177 67" fill="none" xmlns="http://www.w3.org/2000/svg">
<path d="M79.1847 31.6783C78.7934 30.6692 78.0921 29.8102 77.1816 29.2249C76.1878 28.609 75.035 28.2984 73.8662 28.3318C73.2227 28.3313 72.5832 28.4331 71.9717 28.6335C71.3854 28.8208 70.824 29.0784 70.2998 29.4008C69.9015 29.6443 69.5276 29.9256 69.1833 30.2409L69.2493 29.8667C69.2932 29.6753 69.2909 29.4762 69.2426 29.2858C69.1944 29.0955 69.1016 28.9193 68.9719 28.7719C68.8298 28.6218 68.6566 28.5046 68.4643 28.4286C68.2721 28.3526 68.0656 28.3197 67.8592 28.3321C67.3981 28.3255 66.9493 28.4812 66.5912 28.7719C66.2407 29.0408 66.004 29.4315 65.9278 29.8667L63.1977 45.3466C63.1505 45.5397 63.1509 45.7412 63.1989 45.9341C63.2469 46.1269 63.341 46.3052 63.4731 46.4536C63.6177 46.6007 63.7922 46.715 63.9848 46.7888C64.1774 46.8626 64.3836 46.8943 64.5895 46.8815C65.0506 46.888 65.4994 46.7323 65.8575 46.4418C66.2078 46.1729 66.4445 45.7823 66.5209 45.3473L67.3568 40.608C67.5366 40.8014 67.732 40.9796 67.9411 41.1408C68.4121 41.499 68.9375 41.7794 69.4973 41.9713C70.1461 42.1962 70.829 42.3069 71.5156 42.2985C72.7546 42.3025 73.9747 41.9954 75.0642 41.4054C76.1819 40.8032 77.1524 39.9609 77.906 38.9391C78.7009 37.8665 79.2291 36.6201 79.4469 35.3029C79.7021 34.0941 79.6112 32.8378 79.1847 31.6783ZM75.3703 37.4542C74.9337 38.0832 74.3589 38.604 73.69 38.9766C73.0117 39.3491 72.2487 39.5397 71.4751 39.5301C70.7566 39.5564 70.0472 39.3633 69.4412 38.9766C68.8989 38.6099 68.4923 38.0749 68.2841 37.4542C68.053 36.761 68.0072 36.0194 68.1512 35.3029C68.2808 34.5272 68.5858 33.7913 69.043 33.1513C69.4856 32.5308 70.0633 32.0188 70.7325 31.654C71.4162 31.2826 72.1835 31.0921 72.9616 31.1005C73.6758 31.073 74.3811 31.2663 74.9816 31.654C75.513 32.019 75.9148 32.5433 76.1291 33.1513C76.364 33.8439 76.4099 34.5867 76.2621 35.3029C76.1285 36.0774 75.8239 36.8124 75.3703 37.4542Z" fill="white"/>
<path d="M96.5065 28.7597C96.3617 28.6128 96.1872 28.4987 95.9946 28.4249C95.8021 28.3511 95.5959 28.3195 95.39 28.3321C94.929 28.3256 94.4803 28.4812 94.1224 28.7719C93.7716 29.0406 93.5347 29.4314 93.4586 29.8667L93.4519 29.9036C93.3052 29.7558 93.1494 29.6174 92.9854 29.4891C92.5064 29.1277 91.9715 28.8473 91.4018 28.6589C90.7155 28.4313 89.9958 28.3207 89.2728 28.3318C88.0387 28.3312 86.8239 28.6381 85.7382 29.2249C84.614 29.8239 83.6378 30.6665 82.8811 31.6912C82.0861 32.7637 81.5579 34.0101 81.3401 35.3273C81.088 36.5319 81.1791 37.7831 81.603 38.9384C81.9918 39.9558 82.6983 40.8207 83.6176 41.4047C84.6081 42.0174 85.7559 42.3278 86.9202 42.2978C87.6018 42.3009 88.2794 42.1947 88.9274 41.9832C89.5212 41.793 90.0913 41.5355 90.6267 41.2159C90.9618 41.0154 91.2803 40.7884 91.579 40.5369C91.5389 40.7246 91.5434 40.9191 91.5921 41.1047C91.6407 41.2904 91.7322 41.4621 91.8592 41.606C92.0011 41.7563 92.1742 41.8735 92.3664 41.9495C92.5586 42.0255 92.7652 42.0584 92.9715 42.0458C93.4327 42.0523 93.8814 41.8967 94.2395 41.606C94.59 41.337 94.8268 40.9464 94.9032 40.5112L96.7805 29.8667C96.8276 29.6738 96.8273 29.4723 96.7796 29.2795C96.7319 29.0868 96.6381 28.9084 96.5065 28.7597ZM90.0543 38.9766C89.3705 39.3481 88.6032 39.5386 87.8252 39.5301C87.1157 39.554 86.4159 39.3609 85.819 38.9766C85.2788 38.6126 84.8719 38.0826 84.6596 37.4668C84.4265 36.7782 84.3798 36.0401 84.5243 35.3276C84.6552 34.5478 84.9607 33.8077 85.4178 33.1625C85.8588 32.5366 86.4375 32.02 87.1093 31.6526C87.784 31.2836 88.5417 31.0931 89.3107 31.0991C90.0291 31.0731 90.7384 31.2661 91.3446 31.6526C91.8846 32.0168 92.2915 32.5468 92.504 33.1625C92.737 33.8602 92.7819 34.607 92.6342 35.3276C92.5026 36.0985 92.1987 36.8297 91.7451 37.4668C91.3043 38.0926 90.7258 38.6092 90.0543 38.9766Z" fill="white"/>
<path d="M111.059 28.772C110.917 28.6218 110.743 28.5046 110.551 28.4286C110.359 28.3527 110.152 28.3197 109.946 28.3322C109.485 28.3256 109.036 28.4812 108.678 28.772C108.328 29.0409 108.091 29.4316 108.015 29.8667L106.879 36.3088C106.788 36.8918 106.567 37.4469 106.232 37.9327C105.926 38.367 105.512 38.714 105.031 38.9391C104.498 39.176 103.92 39.2921 103.338 39.2791C102.396 39.2791 101.702 39.0567 101.255 38.612C100.807 38.1672 100.679 37.3997 100.872 36.3095L102.008 29.8674C102.052 29.676 102.049 29.4769 102.001 29.2865C101.953 29.0961 101.86 28.92 101.73 28.7726C101.588 28.6225 101.415 28.5053 101.223 28.4293C101.03 28.3533 100.824 28.3204 100.617 28.3328C100.156 28.3262 99.7077 28.4819 99.3499 28.7726C98.9992 29.0414 98.7623 29.4322 98.6861 29.8674L97.39 37.2154C97.2169 38.0496 97.2748 38.9152 97.5575 39.7189C97.8194 40.4301 98.3126 41.0326 98.9581 41.4298C99.7004 41.8635 100.551 42.0774 101.41 42.0465C102.173 42.0546 102.934 41.9616 103.673 41.7698C104.321 41.5992 104.935 41.3228 105.492 40.9517C105.738 40.7843 105.97 40.5974 106.186 40.3928L106.138 40.6635C106.039 41.3911 105.769 42.085 105.352 42.6893C104.983 43.1805 104.474 43.5489 103.892 43.7461C103.19 43.971 102.456 44.0772 101.719 44.0604C101.169 44.0737 100.622 43.984 100.105 43.7962C99.6559 43.6203 99.2913 43.4904 99.0112 43.4065C98.627 43.2721 98.2053 43.2946 97.8376 43.4691C97.4056 43.6764 97.0596 44.0281 96.8592 44.4634C96.7648 44.6193 96.7099 44.7961 96.6996 44.9781C96.6892 45.1602 96.7236 45.342 96.7997 45.5077C97.0233 45.894 97.3808 46.1849 97.8045 46.3254C98.3076 46.5199 98.8344 46.6468 99.3708 46.703C99.9878 46.7845 100.609 46.8266 101.232 46.8288C102.492 46.8401 103.745 46.6358 104.937 46.2249C106.063 45.8328 107.066 45.1516 107.846 44.2495C108.709 43.1906 109.264 41.915 109.451 40.562L111.338 29.8671C111.382 29.6755 111.379 29.4762 111.331 29.2858C111.282 29.0954 111.189 28.9192 111.059 28.772Z" fill="white"/>
<path d="M132.318 28.7719C132.189 28.6274 132.03 28.5131 131.852 28.4371C131.674 28.361 131.481 28.3252 131.288 28.3321C130.439 28.3321 129.848 28.6508 129.514 29.2882L125.271 36.5239L124.07 31.2764C124.015 31.0109 123.878 30.7691 123.68 30.5843C123.422 30.4029 123.109 30.3182 122.794 30.3451C122.456 30.3369 122.121 30.4188 121.825 30.5824C121.529 30.7461 121.281 30.9856 121.108 31.2764L117.975 36.6637L116.283 29.2886C116.268 29.1404 116.22 28.9976 116.142 28.8711C116.063 28.7446 115.957 28.6378 115.83 28.5588C115.557 28.4019 115.245 28.3235 114.929 28.3325C114.45 28.3187 113.983 28.4899 113.627 28.8105C113.299 29.089 113.075 29.4708 112.993 29.8931C112.957 30.0847 112.96 30.2815 113.002 30.4719L115.409 40.8394C115.44 41.0018 115.508 41.155 115.607 41.2878C115.706 41.4206 115.833 41.5297 115.979 41.607C116.283 41.7821 116.637 41.8486 116.984 41.7958C117.304 41.7744 117.615 41.6763 117.89 41.5099C118.165 41.3435 118.396 41.1136 118.564 40.8394L121.885 34.6484L123.159 40.8394C123.233 41.1128 123.395 41.3544 123.619 41.5271C123.844 41.6999 124.119 41.7943 124.402 41.7958C124.779 41.8382 125.161 41.7705 125.5 41.6007C125.84 41.431 126.123 41.1666 126.315 40.8394L132.378 30.4719C132.43 30.3881 132.473 30.2995 132.508 30.2074C132.545 30.1054 132.573 30.0002 132.591 29.8931C132.638 29.6979 132.637 29.4945 132.589 29.2995C132.542 29.1046 132.449 28.9238 132.318 28.7719Z" fill="white"/>
<path d="M147.737 28.7598C147.593 28.613 147.419 28.499 147.226 28.4252C147.034 28.3514 146.828 28.3197 146.623 28.3321C146.162 28.3256 145.713 28.4812 145.355 28.7719C145.004 29.0408 144.767 29.4315 144.691 29.8667L144.685 29.9036C144.538 29.756 144.382 29.6176 144.218 29.4891C143.739 29.1278 143.204 28.8474 142.634 28.6589C141.948 28.4313 141.228 28.3207 140.505 28.3318C139.271 28.3312 138.056 28.6381 136.971 29.2249C135.846 29.824 134.87 30.6666 134.113 31.6912C133.318 32.7637 132.79 34.0101 132.572 35.3273C132.321 36.5319 132.412 37.783 132.835 38.9384C133.224 39.9558 133.931 40.8207 134.85 41.4047C135.841 42.0174 136.989 42.3278 138.153 42.2978C138.834 42.3009 139.512 42.1947 140.16 41.9832C140.754 41.7931 141.324 41.5356 141.859 41.2159C142.194 41.0153 142.513 40.7883 142.812 40.5369C142.772 40.7246 142.776 40.9191 142.825 41.1047C142.873 41.2904 142.965 41.4621 143.091 41.606C143.233 41.7562 143.407 41.8735 143.599 41.9494C143.791 42.0254 143.998 42.0583 144.204 42.0458C144.665 42.0524 145.114 41.8967 145.472 41.606C145.822 41.337 146.059 40.9464 146.136 40.5112L148.013 29.8667C148.06 29.6737 148.059 29.4721 148.011 29.2794C147.963 29.0866 147.869 28.9083 147.737 28.7598ZM141.285 38.9767C140.602 39.3481 139.834 39.5387 139.056 39.5301C138.347 39.554 137.647 39.3609 137.05 38.9767C136.51 38.6126 136.103 38.0826 135.891 37.4668C135.658 36.7781 135.611 36.0402 135.755 35.3277C135.886 34.5478 136.192 33.8077 136.649 33.1625C137.09 32.5364 137.669 32.0199 138.341 31.6526C139.015 31.2836 139.773 31.0931 140.542 31.0992C141.26 31.0731 141.97 31.2661 142.576 31.6526C143.116 32.017 143.523 32.5469 143.735 33.1625C143.968 33.8602 144.013 34.607 143.866 35.3277C143.734 36.0985 143.43 36.8297 142.976 37.4668C142.535 38.0927 141.957 38.6093 141.285 38.9767Z" fill="white"/>
<path d="M162.289 28.7719C162.147 28.6218 161.974 28.5047 161.782 28.4287C161.59 28.3527 161.383 28.3197 161.177 28.3321C160.716 28.3255 160.267 28.4812 159.909 28.7719C159.558 29.0408 159.321 29.4315 159.245 29.8667L158.109 36.3088C158.019 36.8918 157.798 37.4469 157.463 37.9326C157.157 38.367 156.743 38.714 156.261 38.9391C155.729 39.1758 155.152 39.2919 154.57 39.2791C153.628 39.2791 152.934 39.0567 152.486 38.612C152.039 38.1672 151.911 37.3997 152.103 36.3095L153.24 29.8674C153.284 29.676 153.281 29.4768 153.233 29.2865C153.185 29.0961 153.092 28.92 152.962 28.7726C152.82 28.6225 152.647 28.5052 152.455 28.4293C152.263 28.3533 152.056 28.3204 151.85 28.3328C151.389 28.3262 150.94 28.4819 150.582 28.7726C150.231 29.0415 149.994 29.4322 149.918 29.8674L148.622 37.2154C148.449 38.0496 148.507 38.9153 148.79 39.7189C149.051 40.4302 149.545 41.0328 150.19 41.4297C150.933 41.8635 151.783 42.0774 152.642 42.0465C153.405 42.0546 154.166 41.9616 154.905 41.7698C155.553 41.5992 156.167 41.3228 156.724 40.9517C156.97 40.7843 157.202 40.5974 157.418 40.3928L157.37 40.6635C157.27 41.391 157.001 42.0849 156.584 42.6893C156.215 43.1805 155.706 43.5489 155.124 43.7461C154.422 43.971 153.688 44.0772 152.951 44.0604C152.401 44.0737 151.854 43.9841 151.337 43.7962C150.888 43.6203 150.523 43.4904 150.243 43.4065C149.859 43.2721 149.437 43.2946 149.07 43.4691C148.638 43.6765 148.292 44.0281 148.091 44.4634C147.997 44.6193 147.942 44.7961 147.932 44.9781C147.921 45.1602 147.955 45.342 148.032 45.5077C148.255 45.894 148.613 46.1849 149.036 46.3254C149.54 46.5198 150.066 46.6467 150.603 46.7029C151.22 46.7845 151.841 46.8265 152.463 46.8288C153.724 46.84 154.977 46.6358 156.169 46.2249C157.295 45.8326 158.298 45.1514 159.078 44.2495C159.941 43.1905 160.496 41.9149 160.683 40.562L162.569 29.867C162.613 29.6754 162.61 29.4761 162.562 29.2856C162.513 29.0952 162.42 28.9191 162.289 28.7719Z" fill="white"/>
<path d="M24.024 23.7033L15.7307 15.4101C15.5204 15.195 15.2346 15.0704 14.934 15.0626C14.7759 15.0576 14.6185 15.0844 14.471 15.1415C14.3235 15.1986 14.1891 15.2847 14.0756 15.3949C13.9621 15.505 13.8719 15.6368 13.8104 15.7825C13.749 15.9283 13.7175 16.0848 13.7178 16.243V32.8312C13.7175 32.9894 13.749 33.146 13.8104 33.2917C13.8719 33.4374 13.9621 33.5692 14.0756 33.6793C14.1891 33.7895 14.3235 33.8756 14.471 33.9327C14.6185 33.9898 14.7759 34.0166 14.934 34.0116C15.2346 34.0038 15.5204 33.8792 15.7307 33.6641L24.024 25.3709C24.2451 25.1497 24.3692 24.8498 24.3692 24.5371C24.3692 24.2244 24.2451 23.9245 24.024 23.7033ZM23.2405 24.8962L15.4736 32.6631C15.4026 32.7342 15.3122 32.7827 15.2136 32.8024C15.1151 32.822 15.013 32.812 14.9201 32.7736C14.8273 32.7351 14.748 32.67 14.6922 32.5864C14.6365 32.5029 14.6068 32.4046 14.6069 32.3042V16.77C14.6068 16.6696 14.6365 16.5713 14.6922 16.4878C14.748 16.4042 14.8273 16.3391 14.9201 16.3006C15.013 16.2622 15.1151 16.2522 15.2136 16.2718C15.3122 16.2915 15.4026 16.34 15.4736 16.4111L23.2405 24.178C23.2877 24.2251 23.3251 24.2811 23.3507 24.3427C23.3762 24.4043 23.3894 24.4704 23.3894 24.5371C23.3894 24.6038 23.3762 24.6699 23.3507 24.7315C23.3251 24.7931 23.2877 24.8491 23.2405 24.8962Z" fill="white"/>
<path d="M51.9612 24.5508C51.9612 24.3177 51.892 24.0898 51.7625 23.8959C51.6329 23.7021 51.4488 23.551 51.2334 23.4618C51.018 23.3725 50.7809 23.3492 50.5523 23.3947C50.3236 23.4401 50.1135 23.5524 49.9486 23.7173L42.289 31.3799L33.452 22.5447C33.2311 22.3238 32.9315 22.1997 32.6191 22.1997C32.3067 22.1997 32.0071 22.3238 31.7862 22.5447L14.0629 40.2582C13.9535 40.3676 13.8667 40.4975 13.8075 40.6404C13.7482 40.7834 13.7178 40.9367 13.7178 41.0914C13.7178 41.2462 13.7482 41.3994 13.8075 41.5424C13.8667 41.6853 13.9535 41.8152 14.0629 41.9247L18.6724 46.5344C18.8934 46.7554 19.193 46.8794 19.5055 46.8794C19.8179 46.8794 20.1176 46.7554 20.3386 46.5344L31.7862 35.0868C31.8956 34.9774 32.0255 34.8906 32.1684 34.8313C32.3114 34.7721 32.4646 34.7416 32.6193 34.7416C32.774 34.7416 32.9272 34.7721 33.0702 34.8313C33.2131 34.8906 33.343 34.9774 33.4524 35.0868L49.9699 51.6043C50.1333 51.7676 50.3414 51.8787 50.5679 51.9237C50.7944 51.9687 51.0292 51.9455 51.2425 51.8571C51.4559 51.7687 51.6382 51.619 51.7665 51.4269C51.8948 51.2349 51.9633 51.0091 51.9633 50.7782L51.9612 24.5508ZM50.2057 24.7173C50.2767 24.6462 50.3672 24.5977 50.4657 24.578C50.5642 24.5584 50.6664 24.5684 50.7592 24.6068C50.852 24.6453 50.9313 24.7104 50.9871 24.794C51.0429 24.8775 51.0726 24.9758 51.0725 25.0762V40.1648L42.9159 32.0075L50.2057 24.7173ZM34.0806 34.4585C33.8887 34.2666 33.6609 34.1143 33.4101 34.0104C33.1594 33.9065 32.8906 33.853 32.6191 33.853C32.3477 33.853 32.0789 33.9065 31.8282 34.0104C31.5774 34.1143 31.3495 34.2666 31.1576 34.4585L19.8646 45.7516C19.8175 45.7988 19.7615 45.8363 19.6999 45.8618C19.6382 45.8874 19.5722 45.9005 19.5055 45.9005C19.4388 45.9005 19.3727 45.8874 19.3111 45.8618C19.2495 45.8363 19.1935 45.7988 19.1464 45.7516L14.8458 41.4507C14.7986 41.4035 14.7611 41.3476 14.7356 41.286C14.71 41.2243 14.6969 41.1583 14.6969 41.0916C14.6969 41.0249 14.71 40.9588 14.7356 40.8972C14.7611 40.8356 14.7986 40.7796 14.8458 40.7325L32.2602 23.3275C32.3073 23.2804 32.3633 23.243 32.4249 23.2174C32.4864 23.1919 32.5525 23.1788 32.6191 23.1788C32.6858 23.1788 32.7518 23.1919 32.8134 23.2174C32.875 23.243 32.931 23.2804 32.9781 23.3275L41.6594 32.0095L36.6477 37.0249L34.0806 34.4585ZM50.2074 50.585L37.2749 37.6529L42.2866 32.6361L51.0721 41.4219L51.0742 50.2257C51.0744 50.3262 51.0447 50.4245 50.9889 50.5081C50.9332 50.5917 50.8539 50.6569 50.761 50.6954C50.6682 50.7339 50.566 50.7439 50.4675 50.7243C50.3689 50.7046 50.2784 50.6562 50.2074 50.585Z" fill="white"/>
</svg>
