<svg width="88" height="34" viewBox="0 0 88 34" fill="none" xmlns="http://www.w3.org/2000/svg">
<path d="M40.0921 16.339C39.8964 15.8345 39.5458 15.405 39.0906 15.1123C38.5937 14.8044 38.0172 14.6491 37.4329 14.6658C37.1111 14.6655 36.7914 14.7164 36.4856 14.8166C36.1925 14.9103 35.9118 15.0391 35.6496 15.2003C35.4505 15.322 35.2635 15.4627 35.0914 15.6203L35.1244 15.4332C35.1463 15.3375 35.1452 15.238 35.1211 15.1428C35.097 15.0476 35.0506 14.9595 34.9857 14.8858C34.9147 14.8108 34.828 14.7522 34.7319 14.7142C34.6358 14.6762 34.5325 14.6597 34.4294 14.6659C34.1988 14.6626 33.9744 14.7405 33.7954 14.8858C33.6201 15.0203 33.5017 15.2156 33.4637 15.4332L32.0986 23.1732C32.075 23.2697 32.0752 23.3705 32.0992 23.4669C32.1232 23.5633 32.1702 23.6525 32.2363 23.7267C32.3086 23.8002 32.3958 23.8574 32.4921 23.8943C32.5884 23.9312 32.6915 23.947 32.7945 23.9406C33.025 23.9439 33.2494 23.866 33.4285 23.7208C33.6037 23.5863 33.722 23.391 33.7602 23.1735L34.1782 20.8039C34.268 20.9006 34.3657 20.9897 34.4703 21.0703C34.7058 21.2494 34.9685 21.3896 35.2484 21.4855C35.5728 21.598 35.9143 21.6533 36.2576 21.6491C36.877 21.6511 37.4871 21.4976 38.0318 21.2026C38.5907 20.9015 39.076 20.4803 39.4527 19.9694C39.8502 19.4331 40.1143 18.8099 40.2232 18.1513C40.3508 17.5469 40.3053 16.9188 40.0921 16.339ZM38.1849 19.227C37.9666 19.5415 37.6792 19.8019 37.3447 19.9882C37.0056 20.1744 36.6241 20.2697 36.2373 20.2649C35.8781 20.2781 35.5234 20.1815 35.2203 19.9882C34.9492 19.8048 34.7459 19.5373 34.6418 19.227C34.5263 18.8804 34.5034 18.5096 34.5753 18.1513C34.6402 17.7635 34.7927 17.3955 35.0212 17.0755C35.2425 16.7653 35.5314 16.5093 35.866 16.3269C36.2079 16.1412 36.5915 16.0459 36.9805 16.0501C37.3377 16.0364 37.6903 16.133 37.9906 16.3269C38.2563 16.5094 38.4572 16.7715 38.5643 17.0755C38.6817 17.4218 38.7047 17.7932 38.6308 18.1513C38.564 18.5386 38.4117 18.9061 38.1849 19.227Z" fill="white"/>
<path d="M48.7535 14.8797C48.6811 14.8063 48.5938 14.7492 48.4975 14.7123C48.4013 14.6754 48.2982 14.6596 48.1952 14.6659C47.9647 14.6626 47.7404 14.7405 47.5614 14.8858C47.386 15.0202 47.2676 15.2155 47.2295 15.4332L47.2262 15.4516C47.1528 15.3778 47.0749 15.3086 46.9929 15.2444C46.7534 15.0637 46.486 14.9235 46.2011 14.8293C45.858 14.7155 45.4981 14.6602 45.1366 14.6657C44.5196 14.6654 43.9122 14.8189 43.3693 15.1123C42.8072 15.4118 42.3191 15.8331 41.9408 16.3454C41.5433 16.8817 41.2792 17.5049 41.1703 18.1635C41.0442 18.7658 41.0898 19.3914 41.3017 19.9691C41.4961 20.4777 41.8494 20.9102 42.309 21.2022C42.8043 21.5085 43.3782 21.6637 43.9603 21.6488C44.3011 21.6503 44.6399 21.5972 44.9639 21.4914C45.2608 21.3963 45.5459 21.2676 45.8136 21.1078C45.9811 21.0076 46.1404 20.894 46.2897 20.7683C46.2697 20.8621 46.2719 20.9594 46.2962 21.0522C46.3206 21.145 46.3663 21.2309 46.4298 21.3028C46.5008 21.378 46.5873 21.4366 46.6834 21.4746C46.7795 21.5126 46.8828 21.529 46.986 21.5227C47.2165 21.526 47.4409 21.4482 47.62 21.3028C47.7952 21.1684 47.9136 20.973 47.9518 20.7554L48.8905 15.4332C48.914 15.3367 48.9139 15.236 48.89 15.1396C48.8662 15.0432 48.8193 14.954 48.7535 14.8797ZM45.5274 19.9882C45.1855 20.1739 44.8018 20.2691 44.4128 20.2649C44.0581 20.2768 43.7082 20.1803 43.4097 19.9882C43.1396 19.8062 42.9362 19.5411 42.83 19.2332C42.7135 18.8889 42.6901 18.5199 42.7624 18.1637C42.8278 17.7738 42.9806 17.4037 43.2091 17.0811C43.4296 16.7681 43.719 16.5099 44.0549 16.3262C44.3922 16.1416 44.7711 16.0464 45.1556 16.0494C45.5148 16.0364 45.8694 16.1329 46.1725 16.3262C46.4425 16.5083 46.646 16.7732 46.7522 17.0811C46.8687 17.4299 46.8912 17.8034 46.8173 18.1637C46.7515 18.5491 46.5996 18.9147 46.3728 19.2332C46.1524 19.5462 45.8631 19.8044 45.5274 19.9882Z" fill="white"/>
<path d="M56.0291 14.886C55.9581 14.8109 55.8714 14.7523 55.7753 14.7143C55.6792 14.6763 55.5759 14.6599 55.4727 14.6661C55.2422 14.6628 55.0178 14.7406 54.8388 14.886C54.6635 15.0204 54.5451 15.2158 54.507 15.4334L53.939 18.6544C53.8938 18.9459 53.7834 19.2234 53.616 19.4663C53.4629 19.6835 53.2558 19.857 53.0151 19.9696C52.7489 20.088 52.4598 20.1461 52.1685 20.1396C51.6979 20.1396 51.3508 20.0284 51.127 19.806C50.9033 19.5836 50.8395 19.1999 50.9355 18.6547L51.5036 15.4337C51.5256 15.338 51.5245 15.2384 51.5004 15.1432C51.4762 15.0481 51.4298 14.96 51.3649 14.8863C51.2938 14.8112 51.2072 14.7527 51.1111 14.7147C51.0149 14.6767 50.9117 14.6602 50.8085 14.6664C50.578 14.6631 50.3536 14.7409 50.1747 14.8863C49.9993 15.0207 49.8809 15.2161 49.8428 15.4337L49.1948 19.1077C49.1082 19.5248 49.1371 19.9576 49.2785 20.3595C49.4094 20.715 49.6561 21.0163 49.9788 21.2149C50.3499 21.4317 50.7751 21.5387 51.2047 21.5232C51.5864 21.5273 51.967 21.4808 52.3365 21.3849C52.6601 21.2996 52.9673 21.1614 53.2458 20.9759C53.3687 20.8922 53.4847 20.7987 53.5926 20.6964L53.5689 20.8317C53.519 21.1955 53.3843 21.5425 53.1756 21.8446C52.9912 22.0902 52.7368 22.2744 52.4459 22.3731C52.095 22.4855 51.7277 22.5386 51.3593 22.5302C51.0844 22.5368 50.8107 22.492 50.5522 22.3981C50.3277 22.3101 50.1454 22.2452 50.0053 22.2032C49.8133 22.136 49.6024 22.1473 49.4186 22.2345C49.2026 22.3382 49.0295 22.514 48.9294 22.7317C48.8821 22.8097 48.8547 22.898 48.8495 22.9891C48.8443 23.0801 48.8615 23.171 48.8996 23.2539C49.0114 23.447 49.1902 23.5925 49.402 23.6627C49.6536 23.7599 49.9169 23.8234 50.1852 23.8515C50.4936 23.8923 50.8044 23.9133 51.1155 23.9144C51.7457 23.92 52.3723 23.8179 52.9681 23.6125C53.5312 23.4164 54.0328 23.0758 54.4228 22.6248C54.8542 22.0953 55.1319 21.4575 55.2255 20.781L56.1687 15.4335C56.1905 15.3377 56.1893 15.2381 56.165 15.1429C56.1408 15.0477 56.0942 14.9596 56.0291 14.886Z" fill="white"/>
<path d="M66.659 14.8858C66.5947 14.8136 66.5152 14.7564 66.4262 14.7184C66.3372 14.6804 66.241 14.6625 66.1443 14.6659C65.7197 14.6659 65.424 14.8253 65.2572 15.144L63.1357 18.7618L62.5352 16.1381C62.5075 16.0053 62.4394 15.8844 62.3402 15.792C62.2113 15.7013 62.0545 15.659 61.8975 15.6724C61.7283 15.6683 61.561 15.7093 61.4128 15.7911C61.2646 15.8729 61.1409 15.9927 61.0543 16.1381L59.4876 18.8317L58.6418 15.1442C58.6344 15.0701 58.6102 14.9987 58.571 14.9354C58.5318 14.8722 58.4786 14.8188 58.4155 14.7793C58.2785 14.7008 58.1226 14.6616 57.9648 14.6661C57.7251 14.6592 57.4919 14.7448 57.3136 14.9051C57.1496 15.0444 57.0378 15.2353 56.9968 15.4464C56.9789 15.5422 56.9804 15.6406 57.0012 15.7359L58.2045 20.9196C58.2204 21.0008 58.2543 21.0774 58.3037 21.1438C58.353 21.2102 58.4166 21.2647 58.4897 21.3034C58.6416 21.3909 58.8188 21.4242 58.9921 21.3978C59.1524 21.3871 59.3079 21.338 59.4453 21.2548C59.5828 21.1716 59.6983 21.0567 59.7822 20.9196L61.443 17.8241L62.0798 20.9196C62.1169 21.0563 62.1977 21.1771 62.31 21.2634C62.4222 21.3498 62.5597 21.397 62.7013 21.3978C62.8899 21.419 63.0806 21.3851 63.2503 21.3002C63.42 21.2154 63.5615 21.0832 63.6577 20.9196L66.6894 15.7359C66.7152 15.6939 66.7369 15.6496 66.7542 15.6036C66.7729 15.5526 66.7868 15.5 66.7958 15.4464C66.8191 15.3488 66.8188 15.2471 66.795 15.1496C66.7712 15.0522 66.7246 14.9618 66.659 14.8858Z" fill="white"/>
<path d="M74.3689 14.8797C74.2967 14.8063 74.2095 14.7493 74.1134 14.7124C74.0173 14.6755 73.9144 14.6597 73.8116 14.6659C73.581 14.6626 73.3566 14.7404 73.1776 14.8858C73.0023 15.0202 72.8838 15.2155 72.8457 15.4331L72.8425 15.4516C72.7691 15.3778 72.6911 15.3086 72.6092 15.2444C72.3697 15.0637 72.1022 14.9235 71.8174 14.8293C71.4742 14.7154 71.1143 14.6601 70.7528 14.6657C70.1357 14.6654 69.5283 14.8189 68.9854 15.1123C68.4234 15.4118 67.9353 15.8331 67.5569 16.3454C67.1594 16.8817 66.8953 17.5049 66.7864 18.1635C66.6605 18.7658 66.706 19.3913 66.9179 19.969C67.1123 20.4777 67.4656 20.9102 67.9253 21.2021C68.4206 21.5085 68.9945 21.6637 69.5766 21.6487C69.9174 21.6503 70.2561 21.5971 70.5801 21.4914C70.877 21.3963 71.162 21.2676 71.4297 21.1078C71.5973 21.0075 71.7566 20.8939 71.9061 20.7683C71.886 20.8621 71.8882 20.9593 71.9125 21.0522C71.9368 21.145 71.9825 21.2308 72.0459 21.3028C72.1169 21.3779 72.2035 21.4365 72.2996 21.4745C72.3957 21.5125 72.499 21.529 72.6021 21.5227C72.8327 21.526 73.0571 21.4482 73.2361 21.3028C73.4113 21.1683 73.5298 20.973 73.568 20.7554L74.5066 15.4331C74.5301 15.3366 74.5298 15.2359 74.5059 15.1395C74.4819 15.0431 74.4349 14.9539 74.3689 14.8797ZM71.1428 19.9881C70.801 20.1739 70.4173 20.2691 70.0283 20.2649C69.6735 20.2768 69.3236 20.1802 69.0252 19.9881C68.7551 19.8061 68.5516 19.5411 68.4455 19.2332C68.3292 18.8888 68.3058 18.5199 68.3778 18.1636C68.4434 17.7737 68.5961 17.4036 68.8247 17.081C69.0452 16.768 69.3345 16.5097 69.6705 16.3261C70.0078 16.1416 70.3867 16.0463 70.7712 16.0494C71.1304 16.0363 71.4851 16.1329 71.7882 16.3261C72.0581 16.5083 72.2615 16.7732 72.3677 17.081C72.4843 17.4299 72.5068 17.8033 72.433 18.1636C72.367 18.549 72.215 18.9146 71.9883 19.2332C71.7679 19.5462 71.4786 19.8044 71.1428 19.9881Z" fill="white"/>
<path d="M81.6446 14.8859C81.5736 14.8108 81.487 14.7523 81.3909 14.7143C81.2948 14.6763 81.1916 14.6598 81.0885 14.666C80.8579 14.6627 80.6335 14.7405 80.4545 14.8859C80.2792 15.0203 80.1607 15.2157 80.1226 15.4333L79.5546 18.6543C79.5094 18.9458 79.3989 19.2234 79.2315 19.4663C79.0784 19.6834 78.8713 19.8569 78.6307 19.9695C78.3647 20.0878 78.0759 20.1459 77.7849 20.1395C77.3142 20.1395 76.9669 20.0283 76.7432 19.8059C76.5195 19.5835 76.4557 19.1998 76.5517 18.6547L77.1199 15.4336C77.1419 15.3379 77.1407 15.2384 77.1166 15.1432C77.0924 15.048 77.046 14.9599 76.981 14.8862C76.9101 14.8112 76.8235 14.7526 76.7274 14.7146C76.6313 14.6766 76.528 14.6601 76.4249 14.6663C76.1943 14.6631 75.9699 14.7409 75.7909 14.8862C75.6156 15.0207 75.4972 15.216 75.459 15.4336L74.8111 19.1077C74.7244 19.5247 74.7534 19.9576 74.8949 20.3594C75.0257 20.7151 75.2723 21.0164 75.5952 21.2148C75.9663 21.4317 76.3913 21.5386 76.8209 21.5232C77.2026 21.5272 77.5832 21.4807 77.9527 21.3848C78.2763 21.2996 78.5835 21.1613 78.862 20.9758C78.985 20.8921 79.101 20.7986 79.209 20.6964L79.1851 20.8317C79.1352 21.1954 79.0006 21.5424 78.792 21.8446C78.6075 22.0902 78.3531 22.2744 78.0621 22.373C77.7112 22.4854 77.344 22.5385 76.9756 22.5302C76.7007 22.5368 76.427 22.492 76.1686 22.398C75.944 22.3101 75.7616 22.2451 75.6216 22.2032C75.4295 22.136 75.2186 22.1472 75.0348 22.2345C74.8188 22.3382 74.6458 22.514 74.5456 22.7316C74.4983 22.8096 74.4709 22.898 74.4658 22.989C74.4606 23.08 74.4777 23.1709 74.5158 23.2538C74.6276 23.4469 74.8063 23.5924 75.0182 23.6626C75.2698 23.7598 75.5331 23.8233 75.8014 23.8514C76.1098 23.8922 76.4206 23.9132 76.7317 23.9143C77.3619 23.9199 77.9885 23.8178 78.5843 23.6124C79.1473 23.4162 79.649 23.0756 80.039 22.6247C80.4703 22.0952 80.7479 21.4574 80.8417 20.7809L81.7847 15.4335C81.8065 15.3376 81.8052 15.238 81.7808 15.1428C81.7565 15.0475 81.7098 14.9595 81.6446 14.8859Z" fill="white"/>
<path d="M12.512 12.3517L8.36535 8.20503C8.2602 8.09752 8.11732 8.0352 7.96699 8.0313C7.88796 8.02879 7.80924 8.0422 7.7355 8.07074C7.66176 8.09928 7.59453 8.14237 7.53779 8.19743C7.48105 8.2525 7.43596 8.31842 7.40522 8.39127C7.37449 8.46413 7.35873 8.54242 7.35889 8.62149V16.9156C7.35873 16.9947 7.37449 17.073 7.40522 17.1458C7.43596 17.2187 7.48105 17.2846 7.53779 17.3397C7.59453 17.3947 7.66176 17.4378 7.7355 17.4664C7.80924 17.4949 7.88796 17.5083 7.96699 17.5058C8.11732 17.5019 8.2602 17.4396 8.36535 17.3321L12.512 13.1854C12.6225 13.0749 12.6846 12.9249 12.6846 12.7686C12.6846 12.6122 12.6225 12.4622 12.512 12.3517ZM12.1202 12.9481L8.23679 16.8315C8.20131 16.8671 8.15609 16.8913 8.10682 16.9012C8.05756 16.911 8.00649 16.906 7.96007 16.8868C7.91366 16.8676 7.874 16.835 7.84611 16.7932C7.81823 16.7514 7.80338 16.7023 7.80343 16.6521V8.88502C7.80338 8.83479 7.81823 8.78567 7.84611 8.74389C7.874 8.70211 7.91366 8.66954 7.96007 8.65032C8.00649 8.6311 8.05756 8.62609 8.10682 8.63592C8.15609 8.64575 8.20131 8.66999 8.23679 8.70556L12.1202 12.589C12.1438 12.6126 12.1626 12.6406 12.1753 12.6714C12.1881 12.7022 12.1947 12.7352 12.1947 12.7686C12.1947 12.8019 12.1881 12.8349 12.1753 12.8657C12.1626 12.8965 12.1438 12.9245 12.1202 12.9481Z" fill="white"/>
<path d="M26.4806 12.7754C26.4806 12.6588 26.446 12.5448 26.3812 12.4479C26.3165 12.351 26.2244 12.2754 26.1167 12.2308C26.009 12.1862 25.8905 12.1745 25.7761 12.1973C25.6618 12.22 25.5567 12.2761 25.4743 12.3586L21.6445 16.1899L17.226 11.7723C17.1156 11.6618 16.9658 11.5998 16.8096 11.5998C16.6534 11.5998 16.5036 11.6618 16.3931 11.7723L7.53147 20.629C7.47675 20.6837 7.43335 20.7487 7.40374 20.8202C7.37412 20.8916 7.35889 20.9683 7.35889 21.0456C7.35889 21.123 7.37412 21.1996 7.40374 21.2711C7.43335 21.3426 7.47675 21.4076 7.53147 21.4623L9.83619 23.7672C9.94668 23.8776 10.0965 23.9397 10.2527 23.9397C10.409 23.9397 10.5588 23.8776 10.6693 23.7672L16.3931 18.0433C16.4478 17.9886 16.5128 17.9452 16.5842 17.9156C16.6557 17.886 16.7323 17.8708 16.8096 17.8708C16.887 17.8708 16.9636 17.886 17.0351 17.9156C17.1066 17.9452 17.1715 17.9886 17.2262 18.0433L25.485 26.3021C25.5666 26.3837 25.6707 26.4393 25.784 26.4618C25.8972 26.4843 26.0146 26.4727 26.1213 26.4285C26.2279 26.3843 26.3191 26.3094 26.3833 26.2134C26.4474 26.1174 26.4816 26.0045 26.4816 25.889L26.4806 12.7754ZM25.6029 12.8586C25.6383 12.823 25.6836 12.7988 25.7328 12.7889C25.7821 12.7791 25.8332 12.7841 25.8796 12.8034C25.926 12.8226 25.9657 12.8551 25.9936 12.8969C26.0214 12.9387 26.0363 12.9878 26.0362 13.0381V20.5823L21.9579 16.5037L25.6029 12.8586ZM17.5403 17.7292C17.4444 17.6332 17.3305 17.5571 17.2051 17.5051C17.0797 17.4532 16.9453 17.4264 16.8096 17.4264C16.6738 17.4264 16.5395 17.4532 16.4141 17.5051C16.2887 17.5571 16.1748 17.6332 16.0788 17.7292L10.4323 23.3757C10.4087 23.3993 10.3807 23.4181 10.3499 23.4308C10.3191 23.4436 10.2861 23.4502 10.2527 23.4502C10.2194 23.4502 10.1864 23.4436 10.1555 23.4308C10.1247 23.4181 10.0967 23.3993 10.0732 23.3757L7.92288 21.2253C7.89928 21.2017 7.88057 21.1737 7.86779 21.1429C7.85502 21.1121 7.84843 21.0791 7.84843 21.0457C7.84843 21.0124 7.85502 20.9793 7.86779 20.9485C7.88057 20.9177 7.89928 20.8897 7.92288 20.8662L16.6301 12.1637C16.6536 12.1401 16.6816 12.1214 16.7124 12.1087C16.7432 12.0959 16.7762 12.0893 16.8096 12.0893C16.8429 12.0893 16.8759 12.0959 16.9067 12.1087C16.9375 12.1214 16.9655 12.1401 16.989 12.1637L21.3297 16.5047L18.8239 19.0124L17.5403 17.7292ZM25.6037 25.7924L19.1375 19.3264L21.6433 16.818L26.0361 21.2109L26.0371 25.6128C26.0372 25.6631 26.0223 25.7122 25.9945 25.754C25.9666 25.7958 25.9269 25.8284 25.8805 25.8476C25.8341 25.8669 25.783 25.8719 25.7337 25.8621C25.6845 25.8523 25.6392 25.828 25.6037 25.7924Z" fill="white"/>
</svg>
