<svg width="177" height="67" viewBox="0 0 177 67" fill="none" xmlns="http://www.w3.org/2000/svg">
<path d="M79.76 31.7679C79.3787 30.8103 78.6955 29.9952 77.8088 29.4398C76.8409 28.8552 75.7181 28.5604 74.5798 28.592C73.9531 28.5915 73.3302 28.6882 72.7347 28.8787C72.1638 29.0562 71.6171 29.3007 71.1067 29.6067C70.7187 29.8374 70.3546 30.1043 70.0195 30.4035L70.0837 30.0488C70.1265 29.8671 70.1243 29.6782 70.0772 29.4975C70.0302 29.3169 69.9397 29.1498 69.8132 29.01C69.6748 28.8675 69.5061 28.7563 69.3189 28.6842C69.1317 28.6121 68.9305 28.5808 68.7295 28.5926C68.2805 28.5864 67.8435 28.7341 67.495 29.01C67.1534 29.265 66.9227 29.6358 66.8485 30.0488L64.1899 44.7376C64.144 44.9207 64.1444 45.112 64.191 45.295C64.2377 45.478 64.3292 45.6473 64.4578 45.7883C64.5985 45.9275 64.7682 46.0358 64.9555 46.1058C65.1427 46.1758 65.3432 46.2059 65.5434 46.194C65.9925 46.2003 66.4296 46.0526 66.7783 45.7767C67.1197 45.5215 67.3504 45.1508 67.4248 44.7379L68.2389 40.2406C68.414 40.4243 68.6043 40.5935 68.8079 40.7466C69.2666 41.0866 69.7783 41.3527 70.3236 41.5347C70.9555 41.7481 71.6205 41.8531 72.2893 41.8451C73.4959 41.8489 74.6842 41.5573 75.7452 40.9973C76.8338 40.4261 77.7791 39.627 78.5129 38.6574C79.2869 37.6394 79.8012 36.4566 80.0133 35.2067C80.2624 34.06 80.1745 32.8681 79.76 31.7679ZM76.0447 37.2481C75.6195 37.8449 75.0598 38.339 74.4085 38.6927C73.7479 39.0462 73.0047 39.2272 72.251 39.2182C71.5513 39.243 70.8604 39.0597 70.2702 38.6927C69.7421 38.3446 69.3461 37.837 69.1434 37.2481C68.9185 36.5901 68.874 35.8863 69.0142 35.2064C69.1405 34.4703 69.4376 33.772 69.8827 33.1646C70.3138 32.5758 70.8764 32.09 71.5282 31.7438C72.1941 31.3914 72.9414 31.2106 73.6991 31.2186C74.3946 31.1926 75.0814 31.3759 75.6661 31.7438C76.1836 32.0903 76.575 32.5878 76.7841 33.1646C77.0128 33.8219 77.0574 34.5267 76.9132 35.2064C76.7835 35.9415 76.4868 36.6391 76.0447 37.2481Z" fill="white"/>
<path d="M96.63 28.9974C96.4891 28.858 96.3191 28.7497 96.1315 28.6797C95.944 28.6097 95.7432 28.5797 95.5427 28.5917C95.0936 28.5855 94.6565 28.7332 94.3078 29.009C93.9663 29.264 93.7356 29.6346 93.6614 30.0475L93.6551 30.0825C93.5121 29.9426 93.3603 29.8114 93.2008 29.6896C92.7343 29.3465 92.2133 29.0803 91.6585 28.9015C90.9899 28.6856 90.2889 28.5807 89.5847 28.591C88.3827 28.5905 87.1996 28.8819 86.1422 29.4389C85.0475 30.0073 84.0969 30.8067 83.3598 31.7788C82.5855 32.7966 82.071 33.9795 81.859 35.2295C81.6136 36.3725 81.7023 37.5597 82.115 38.6561C82.4937 39.6215 83.1819 40.4421 84.0774 40.996C85.0419 41.5777 86.1598 41.8724 87.2938 41.8439C87.9575 41.8468 88.6174 41.746 89.2483 41.5453C89.8266 41.3648 90.3819 41.1206 90.9033 40.8172C91.2296 40.6267 91.5399 40.4111 91.8311 40.1726C91.792 40.3507 91.7962 40.5352 91.8435 40.7114C91.8909 40.8876 91.9799 41.0505 92.1036 41.187C92.2418 41.3296 92.4105 41.4408 92.5977 41.5129C92.7849 41.585 92.986 41.6162 93.1869 41.6044C93.6361 41.6107 94.0732 41.463 94.4218 41.187C94.7634 40.9321 94.9941 40.5614 95.0683 40.1485L96.8966 30.0475C96.9424 29.8645 96.9421 29.6734 96.8957 29.4906C96.8493 29.3077 96.7581 29.1385 96.63 28.9974ZM90.3461 38.6924C89.6803 39.045 88.933 39.2259 88.1752 39.2179C87.4842 39.2404 86.8026 39.0571 86.2213 38.6924C85.6952 38.3471 85.2989 37.8441 85.0925 37.2596C84.8657 36.6063 84.8202 35.9061 84.9607 35.2301C85.0882 34.4901 85.3858 33.7877 85.8312 33.1756C86.2607 32.5814 86.8242 32.0912 87.4786 31.7425C88.1357 31.3923 88.8737 31.2115 89.6226 31.2173C90.3223 31.1926 91.0131 31.3758 91.6034 31.7425C92.1291 32.0884 92.5253 32.5913 92.7322 33.1756C92.9594 33.8376 93.0032 34.5463 92.8594 35.2301C92.731 35.9615 92.4349 36.6552 91.9932 37.2596C91.5639 37.8537 91.0004 38.3439 90.3461 38.6924Z" fill="white"/>
<path d="M110.803 29.0098C110.664 28.8673 110.496 28.7561 110.309 28.684C110.121 28.6119 109.92 28.5806 109.719 28.5924C109.27 28.5862 108.833 28.7339 108.484 29.0098C108.143 29.2649 107.912 29.6357 107.838 30.0486L106.732 36.1615C106.644 36.7148 106.429 37.2416 106.102 37.7024C105.804 38.1148 105.401 38.4441 104.932 38.6578C104.414 38.8819 103.851 38.9915 103.285 38.9788C102.368 38.9788 101.691 38.7679 101.256 38.3461C100.82 37.9243 100.696 37.196 100.883 36.1612L101.989 30.0483C102.032 29.8667 102.03 29.6777 101.983 29.4971C101.936 29.3165 101.846 29.1493 101.719 29.0094C101.581 28.867 101.412 28.7558 101.225 28.6837C101.038 28.6116 100.836 28.5803 100.636 28.5921C100.186 28.5859 99.7493 28.7336 99.4006 29.0094C99.0592 29.2646 98.8285 29.6353 98.7542 30.0483L97.4923 37.0209C97.3231 37.8124 97.3795 38.634 97.6554 39.3965C97.9102 40.0715 98.3906 40.6434 99.0194 41.0202C99.7423 41.4318 100.57 41.6347 101.407 41.6054C102.151 41.6132 102.892 41.5248 103.611 41.3425C104.242 41.181 104.84 40.9188 105.383 40.5666C105.622 40.4077 105.848 40.2303 106.058 40.0363L106.012 40.2931C105.915 40.9834 105.653 41.6419 105.246 42.2154C104.887 42.6816 104.391 43.0312 103.825 43.2183C103.141 43.4319 102.426 43.5328 101.708 43.5168C101.173 43.5294 100.64 43.4444 100.136 43.2661C99.6988 43.0992 99.3436 42.9758 99.0708 42.896C98.6966 42.7687 98.286 42.7901 97.9278 42.9557C97.5072 43.1523 97.1703 43.4859 96.9753 43.8988C96.8833 44.0469 96.8299 44.2146 96.8198 44.3873C96.8097 44.5601 96.8432 44.7326 96.9173 44.8898C97.1349 45.2565 97.483 45.5326 97.8955 45.6661C98.3857 45.8506 98.8988 45.971 99.4214 46.024C100.022 46.1016 100.627 46.1415 101.234 46.1434C102.461 46.1541 103.681 45.9603 104.842 45.5704C105.939 45.1981 106.916 44.5518 107.676 43.696C108.516 42.691 109.057 41.4806 109.239 40.1968L111.076 30.0483C111.118 29.8665 111.116 29.6775 111.068 29.4969C111.021 29.3163 110.93 29.1493 110.803 29.0098Z" fill="white"/>
<path d="M131.507 29.0096C131.381 28.8724 131.226 28.7639 131.053 28.6918C130.88 28.6196 130.692 28.5857 130.504 28.5922C129.677 28.5922 129.101 28.8947 128.776 29.4998L124.644 36.3658L123.474 31.3861C123.42 31.1342 123.287 30.9048 123.094 30.7293C122.843 30.5574 122.538 30.4772 122.232 30.5027C121.903 30.4948 121.577 30.5724 121.288 30.7277C121 30.8829 120.758 31.1102 120.59 31.3861L117.538 36.4984L115.89 29.5001C115.876 29.3595 115.829 29.2239 115.753 29.1038C115.676 28.9838 115.573 28.8824 115.45 28.8076C115.183 28.6586 114.879 28.5841 114.572 28.5926C114.105 28.5795 113.651 28.7421 113.304 29.0465C112.984 29.3107 112.766 29.673 112.686 30.0738C112.652 30.2556 112.654 30.4423 112.695 30.623L115.039 40.4611C115.07 40.6152 115.136 40.7606 115.232 40.8866C115.328 41.0127 115.452 41.1162 115.595 41.1895C115.891 41.3553 116.236 41.4185 116.573 41.3686C116.885 41.3482 117.188 41.2551 117.456 41.0972C117.724 40.9393 117.949 40.7212 118.112 40.4611L121.347 34.5864L122.588 40.4611C122.66 40.7206 122.817 40.9499 123.036 41.1138C123.254 41.2777 123.522 41.3672 123.798 41.3686C124.165 41.4091 124.537 41.3449 124.867 41.1838C125.198 41.0227 125.474 40.7717 125.661 40.4611L131.566 30.623C131.616 30.5435 131.659 30.4595 131.692 30.3723C131.729 30.2754 131.756 30.1755 131.773 30.0738C131.819 29.8885 131.818 29.6953 131.772 29.5103C131.726 29.3252 131.635 29.1536 131.507 29.0096Z" fill="white"/>
<path d="M146.525 28.9975C146.384 28.8582 146.214 28.7499 146.026 28.6799C145.839 28.6099 145.638 28.5799 145.437 28.5918C144.988 28.5855 144.551 28.7332 144.203 29.0091C143.861 29.2639 143.63 29.6346 143.556 30.0476L143.55 30.0826C143.407 29.9425 143.255 29.8113 143.095 29.6897C142.629 29.3466 142.108 29.0804 141.553 28.9015C140.885 28.6857 140.184 28.5807 139.48 28.5911C138.278 28.5906 137.095 28.882 136.037 29.4389C134.942 30.0073 133.992 30.8067 133.255 31.7789C132.48 32.7967 131.966 33.9795 131.754 35.2296C131.509 36.3727 131.598 37.5599 132.011 38.6562C132.389 39.6215 133.077 40.4422 133.973 40.9961C134.937 41.5778 136.055 41.8725 137.189 41.8439C137.853 41.8469 138.513 41.7461 139.144 41.5454C139.722 41.3649 140.277 41.1206 140.799 40.8173C141.125 40.6268 141.435 40.4113 141.726 40.1727C141.687 40.3507 141.692 40.5353 141.739 40.7114C141.786 40.8876 141.875 41.0505 141.999 41.1871C142.137 41.3297 142.306 41.441 142.493 41.5131C142.68 41.5852 142.882 41.6164 143.083 41.6044C143.532 41.6106 143.969 41.4629 144.317 41.1871C144.659 40.9323 144.89 40.5615 144.964 40.1486L146.792 30.0476C146.838 29.8645 146.837 29.6734 146.791 29.4905C146.744 29.3077 146.653 29.1385 146.525 28.9975ZM140.241 38.6924C139.575 39.0449 138.828 39.2258 138.07 39.2179C137.379 39.2405 136.697 39.0572 136.116 38.6924C135.59 38.3471 135.193 37.8441 134.987 37.2597C134.76 36.6064 134.714 35.9062 134.855 35.2302C134.983 34.4902 135.28 33.7879 135.725 33.1757C136.155 32.5815 136.719 32.0913 137.373 31.7426C138.03 31.3924 138.768 31.2116 139.517 31.2174C140.217 31.1927 140.907 31.3759 141.498 31.7426C142.024 32.0884 142.42 32.5914 142.627 33.1757C142.854 33.8377 142.898 34.5464 142.754 35.2302C142.626 35.9616 142.329 36.6554 141.887 37.2597C141.458 37.8538 140.895 38.3439 140.241 38.6924Z" fill="white"/>
<path d="M160.697 29.0097C160.559 28.8672 160.39 28.756 160.203 28.6839C160.016 28.6118 159.814 28.5805 159.613 28.5923C159.164 28.5861 158.727 28.7338 158.379 29.0097C158.037 29.2648 157.807 29.6355 157.732 30.0485L156.626 36.1614C156.538 36.7147 156.323 37.2415 155.997 37.7023C155.699 38.1147 155.295 38.444 154.826 38.6577C154.308 38.8818 153.745 38.9914 153.179 38.9787C152.262 38.9787 151.586 38.7678 151.15 38.346C150.714 37.9241 150.59 37.1959 150.777 36.1611L151.883 30.0482C151.926 29.8665 151.924 29.6776 151.877 29.497C151.83 29.3163 151.74 29.1492 151.613 29.0093C151.475 28.8669 151.306 28.7557 151.119 28.6836C150.932 28.6115 150.731 28.5802 150.53 28.592C150.081 28.5857 149.644 28.7335 149.295 29.0093C148.953 29.2642 148.723 29.6351 148.649 30.0482L147.386 37.0208C147.217 37.8123 147.274 38.6338 147.549 39.3964C147.804 40.0713 148.285 40.6432 148.914 41.0201C149.636 41.4317 150.465 41.6346 151.301 41.6053C152.045 41.6131 152.786 41.5247 153.506 41.3424C154.136 41.1808 154.735 40.9186 155.277 40.5665C155.516 40.4076 155.742 40.2302 155.953 40.0362L155.906 40.293C155.809 40.9834 155.547 41.6419 155.14 42.2153C154.781 42.6814 154.286 43.031 153.719 43.2181C153.035 43.4318 152.32 43.5327 151.602 43.5167C151.067 43.5293 150.534 43.4442 150.03 43.266C149.593 43.0991 149.238 42.9757 148.965 42.8958C148.591 42.7686 148.18 42.79 147.822 42.9555C147.402 43.1522 147.065 43.4858 146.869 43.8987C146.777 44.0467 146.724 44.2144 146.714 44.3872C146.704 44.56 146.737 44.7325 146.811 44.8897C147.029 45.2563 147.377 45.5324 147.79 45.6659C148.28 45.8505 148.793 45.9709 149.315 46.0239C149.916 46.1015 150.522 46.1413 151.128 46.1433C152.355 46.154 153.576 45.9602 154.736 45.5703C155.833 45.1982 156.81 44.5518 157.57 43.6958C158.41 42.6911 158.951 41.4806 159.133 40.1967L160.97 30.0482C161.013 29.8664 161.01 29.6773 160.963 29.4968C160.915 29.3162 160.824 29.1492 160.697 29.0097Z" fill="white"/>
<path d="M26.0377 24.1999L17.9604 16.3303C17.7557 16.1261 17.4773 16.0078 17.1845 16.0006C17.0305 15.9957 16.8771 16.0211 16.7335 16.0752C16.5898 16.1293 16.4588 16.2111 16.3483 16.3156C16.2377 16.4202 16.1499 16.5453 16.0901 16.6836C16.0302 16.8219 15.9996 16.9705 16 17.1206V32.8619C15.9997 33.0119 16.0303 33.1605 16.0902 33.2988C16.15 33.4371 16.2378 33.5621 16.3484 33.6666C16.4589 33.7711 16.5899 33.8529 16.7336 33.907C16.8772 33.9611 17.0306 33.9865 17.1845 33.9816C17.4773 33.9743 17.7556 33.8562 17.9604 33.6522L26.0377 25.7825C26.1444 25.6786 26.229 25.5553 26.2867 25.4195C26.3444 25.2837 26.3741 25.1382 26.3741 24.9912C26.3741 24.8443 26.3444 24.6988 26.2867 24.563C26.229 24.4272 26.1444 24.3039 26.0377 24.1999Z" fill="#1AAAAD"/>
<path d="M53.2457 40.6625L43.8254 31.4841L37.7178 37.4359L51.306 50.6752C51.4651 50.8302 51.6678 50.9358 51.8884 50.9785C52.1091 51.0213 52.3378 50.9993 52.5457 50.9154C52.7535 50.8315 52.9312 50.6894 53.0561 50.5071C53.1811 50.3248 53.2477 50.1105 53.2476 49.8913L53.2457 40.6625Z" fill="#FECF2F"/>
<path d="M35.2218 23.1007C35.1153 22.9969 34.9888 22.9145 34.8496 22.8583C34.7103 22.8021 34.5611 22.7732 34.4104 22.7732C34.2598 22.7732 34.1105 22.8021 33.9713 22.8583C33.8321 22.9145 33.7056 22.9969 33.5991 23.1007L16.3372 39.9101C16.2306 40.014 16.146 40.1372 16.0883 40.2729C16.0307 40.4086 16.001 40.554 16.001 40.7008C16.001 40.8477 16.0307 40.9931 16.0883 41.1287C16.146 41.2644 16.2306 41.3877 16.3372 41.4915L20.8264 45.8661C21.0417 46.0757 21.3336 46.1935 21.638 46.1935C21.9423 46.1935 22.2342 46.0757 22.4495 45.8661L33.5991 35.0026C33.8143 34.793 34.1062 34.6752 34.4106 34.6752C34.715 34.6752 35.0069 34.793 35.2221 35.0026L37.719 37.4354L43.8267 31.4842L35.2218 23.1007Z" fill="#DD2457"/>
<path d="M51.287 24.2132L43.8262 31.4841L53.2464 40.6625L53.2487 25.0042C53.249 24.7827 53.1818 24.566 53.0555 24.3817C52.9293 24.1974 52.7497 24.0538 52.5396 23.9691C52.3294 23.8843 52.0982 23.8623 51.8752 23.9058C51.6522 23.9492 51.4475 24.0563 51.287 24.2132Z" fill="white"/>
</svg>
