<svg width="28" height="28" viewBox="0 0 28 28" fill="none" xmlns="http://www.w3.org/2000/svg">
<path fill-rule="evenodd" clipRule="evenodd" d="M12.1041 4.375C17.3224 4.375 21.4314 6.18149 21.5791 8.51067L21.5832 8.64059L21.5828 11.9578L24.9009 11.9583C25.0962 11.9583 25.2725 12.0777 25.3426 12.2607C25.4137 12.4427 25.3654 12.6493 25.2213 12.782L23.7065 14.1707L25.2213 15.5584C25.3189 15.6485 25.3748 15.7746 25.3748 15.9082C25.3748 16.0419 25.3189 16.1679 25.2213 16.258L23.7065 17.6457L25.2213 19.0344C25.3189 19.1245 25.3748 19.2506 25.3748 19.3833C25.3748 19.516 25.3189 19.643 25.2213 19.733L23.7065 21.1208L25.2213 22.5095C25.3654 22.6422 25.4137 22.8488 25.3426 23.0308C25.2725 23.2138 25.0962 23.3332 24.9009 23.3332H12.1041C6.78917 23.3332 2.625 21.4592 2.625 19.0676V8.64059C2.625 6.24902 6.78917 4.375 12.1041 4.375ZM3.57223 10.53L3.57291 19.0676C3.57291 20.605 6.93765 22.3154 11.8043 22.3832L12.1041 22.3853H23.6828L22.6847 21.4706C22.587 21.3805 22.5311 21.2544 22.5311 21.1217C22.5311 20.989 22.587 20.862 22.6847 20.7719L24.1994 19.3842L22.6847 17.9955C22.587 17.9055 22.5311 17.7784 22.5311 17.6457C22.5311 17.513 22.587 17.386 22.6847 17.296L24.1994 15.9073L22.6847 14.5195C22.587 14.4295 22.5311 14.3034 22.5311 14.1698C22.5311 14.0361 22.587 13.91 22.6847 13.82L23.6828 12.9062H12.1041C8.30582 12.9062 5.09526 11.9491 3.57223 10.53ZM18.1273 11.9582L20.6351 11.9578L20.636 10.53C20.0378 11.0873 19.1794 11.5734 18.1273 11.9582ZM12.1041 5.32291C7.07638 5.32291 3.57291 7.0718 3.57291 8.64059C3.57291 10.2094 7.07638 11.9583 12.1041 11.9583C17.1318 11.9583 20.6353 10.2094 20.6353 8.64059C20.6353 7.0718 17.1318 5.32291 12.1041 5.32291ZM12.1041 6.74477C14.3867 6.74477 16.8436 7.33817 16.8436 8.64059C16.8436 9.94302 14.3867 10.5364 12.1041 10.5364C9.82153 10.5364 7.36455 9.94302 7.36455 8.64059C7.36455 7.33817 9.82153 6.74477 12.1041 6.74477ZM12.1041 7.69268C9.61584 7.69268 8.31246 8.39698 8.31246 8.64059C8.31246 8.88421 9.61584 9.58851 12.1041 9.58851C14.5924 9.58851 15.8957 8.88421 15.8957 8.64059C15.8957 8.39698 14.5924 7.69268 12.1041 7.69268Z" fill="#023F80"/>
</svg>
