<svg width="24" height="24" viewBox="0 0 24 24" fill="none" xmlns="http://www.w3.org/2000/svg">
<path d="M8.31162 7.80825L4.84206 4.15335C4.75413 4.05858 4.63458 4.00366 4.50882 4.00027C4.4427 3.99802 4.37682 4.00981 4.31511 4.03495C4.2534 4.06009 4.19713 4.09806 4.14965 4.14659C4.10216 4.19513 4.06445 4.25324 4.03874 4.31746C4.01303 4.38168 3.99985 4.45069 4 4.52038V11.831C3.99985 11.9006 4.01302 11.9696 4.03873 12.0339C4.06443 12.0981 4.10214 12.1562 4.14961 12.2047C4.19708 12.2532 4.25334 12.2912 4.31503 12.3164C4.37673 12.3415 4.4426 12.3533 4.50872 12.3511C4.63451 12.3477 4.7541 12.2928 4.84206 12.198L8.31162 8.5431C8.40411 8.44564 8.45608 8.31348 8.45608 8.17567C8.45608 8.03786 8.40411 7.9057 8.31162 7.80825Z" fill="#1AAAAD"/>
<path d="M19.9991 15.4537L15.9519 11.1912L13.3281 13.9551L19.1648 20.1035C19.2332 20.1754 19.3202 20.2244 19.415 20.2442C19.5098 20.264 19.608 20.2538 19.6972 20.2149C19.7865 20.1759 19.8628 20.1099 19.9164 20.0253C19.9701 19.9407 19.9988 19.8412 19.9988 19.7395L19.9991 15.4537Z" fill="#FECF2F"/>
<path d="M12.256 7.29777C12.1635 7.20043 12.0382 7.14575 11.9075 7.14575C11.7768 7.14575 11.6514 7.20043 11.559 7.29777L4.14442 15.1043C4.09863 15.1525 4.06231 15.2098 4.03753 15.2728C4.01275 15.3358 4 15.4033 4 15.4715C4 15.5397 4.01275 15.6072 4.03753 15.6702C4.06231 15.7332 4.09863 15.7905 4.14442 15.8387L6.07242 17.8697C6.11819 17.9179 6.17253 17.9561 6.23233 17.9822C6.29213 18.0083 6.35623 18.0218 6.42095 18.0218C6.48568 18.0218 6.54978 18.0083 6.60958 17.9822C6.66938 17.9561 6.72371 17.9179 6.76948 17.8697L11.5586 12.8248C11.6044 12.7765 11.6587 12.7383 11.7185 12.7122C11.7783 12.6861 11.8424 12.6727 11.9071 12.6727C11.9718 12.6727 12.0359 12.6861 12.0957 12.7122C12.1555 12.7383 12.2099 12.7765 12.2556 12.8248L13.3285 13.955L15.9523 11.191L12.256 7.29777Z" fill="#DD2457"/>
<path d="M19.1577 7.81436L15.9517 11.1911L19.9989 15.4536L19.9999 8.18173C20 8.07891 19.9711 7.97838 19.9169 7.89287C19.8627 7.80736 19.7856 7.74072 19.6954 7.70139C19.6052 7.66205 19.506 7.65179 19.4103 7.6719C19.3145 7.69201 19.2266 7.74159 19.1577 7.81436Z" fill="#023F80"/>
</svg>
