<svg width="32" height="32" viewBox="0 0 32 32" fill="none" xmlns="http://www.w3.org/2000/svg">
<path d="M10.4674 9.71237L5.26309 4.23003C5.13119 4.08787 4.95187 4.00549 4.76324 4.00041C4.66405 3.99703 4.56523 4.01472 4.47266 4.05243C4.3801 4.09013 4.29569 4.14709 4.22447 4.21989C4.15325 4.29269 4.09667 4.37986 4.0581 4.47619C4.01954 4.57251 3.99978 4.67603 4 4.78058V15.7464C3.99978 15.851 4.01953 15.9545 4.05809 16.0508C4.09664 16.1471 4.15321 16.2343 4.22442 16.3071C4.29562 16.3799 4.38001 16.4368 4.47255 16.4745C4.5651 16.5123 4.6639 16.53 4.76308 16.5266C4.95177 16.5215 5.13115 16.4392 5.26309 16.297L10.4674 10.8146C10.6062 10.6685 10.6841 10.4702 10.6841 10.2635C10.6841 10.0568 10.6062 9.85855 10.4674 9.71237Z" fill="white"/>
<path d="M27.9984 21.1805L21.9276 14.7867L17.9919 18.9326L26.7469 28.1552C26.8495 28.2631 26.9801 28.3365 27.1222 28.3663C27.2643 28.396 27.4116 28.3807 27.5455 28.3223C27.6794 28.2638 27.7938 28.1649 27.8744 28.038C27.9549 27.9111 27.9979 27.7618 27.9979 27.6092L27.9984 21.1805Z" fill="white"/>
<path d="M16.3843 8.94667C16.2457 8.80066 16.0576 8.71864 15.8616 8.71864C15.6656 8.71864 15.4775 8.80066 15.3389 8.94667L4.21699 20.6564C4.14832 20.7288 4.09384 20.8146 4.05667 20.9091C4.0195 21.0037 4.00037 21.105 4.00037 21.2072C4.00037 21.3095 4.0195 21.4108 4.05667 21.5054C4.09384 21.5999 4.14832 21.6857 4.21699 21.7581L7.109 24.8045C7.17766 24.8769 7.25916 24.9342 7.34886 24.9734C7.43856 25.0125 7.53471 25.0327 7.6318 25.0327C7.72889 25.0327 7.82503 25.0125 7.91473 24.9734C8.00443 24.9342 8.08594 24.8769 8.15459 24.8045L15.3382 17.2372C15.4069 17.1648 15.4884 17.1075 15.5781 17.0683C15.6678 17.0292 15.7639 17.009 15.861 17.009C15.9581 17.009 16.0543 17.0292 16.144 17.0683C16.2337 17.1075 16.3152 17.1648 16.3838 17.2372L17.9932 18.9325L21.9288 14.7865L16.3843 8.94667Z" fill="white"/>
<path d="M26.7366 9.72152L21.9276 14.7867L27.9984 21.1805L28 10.2726C28.0001 10.1183 27.9567 9.96754 27.8754 9.83928C27.7941 9.71102 27.6785 9.61106 27.5432 9.55205C27.4079 9.49305 27.2591 9.47766 27.1155 9.50783C26.9719 9.53799 26.84 9.61237 26.7366 9.72152Z" fill="white"/>
</svg>
