<svg width="24" height="24" viewBox="0 0 24 24" fill="none" xmlns="http://www.w3.org/2000/svg">
<path fill-rule="evenodd" clipRule="evenodd" d="M12.0001 2.1C9.26654 2.1 6.7903 3.20908 4.99974 4.99964C3.20918 6.79021 2.1001 9.26644 2.1001 12C2.1001 14.7336 3.20918 17.2098 4.99974 19.0004C6.7903 20.7909 9.26654 21.9 12.0001 21.9C14.7337 21.9 17.2099 20.7909 19.0005 19.0004C20.791 17.2098 21.9001 14.7336 21.9001 12C21.9001 9.26644 20.791 6.79021 19.0005 4.99964C17.2099 3.20908 14.7337 2.1 12.0001 2.1ZM12.0001 8.9C11.1438 8.9 10.37 9.24599 9.80807 9.80797C9.24609 10.3699 8.9001 11.1437 8.9001 12C8.9001 12.8563 9.24609 13.6301 9.80807 14.192C10.37 14.754 11.1438 15.1 12.0001 15.1C12.8564 15.1 13.6302 14.754 14.1921 14.192C14.7541 13.6301 15.1001 12.8563 15.1001 12C15.1001 11.1437 14.7541 10.3699 14.1921 9.80797C13.6302 9.24599 12.8564 8.9 12.0001 8.9ZM20.1001 12C20.1001 10.0871 19.4379 8.33016 18.3288 6.94404L16.0426 9.23028C16.5831 10.018 16.9001 10.9725 16.9001 12C16.9001 13.0275 16.5831 13.982 16.0426 14.7697L18.3288 17.056C19.4379 15.6698 20.1001 13.9129 20.1001 12ZM12.0001 20.1C10.0872 20.1 8.33026 19.4378 6.94414 18.3288L9.23037 16.0425C10.0181 16.583 10.9726 16.9 12.0001 16.9C13.0276 16.9 13.9821 16.583 14.7698 16.0425L17.0561 18.3287C15.6699 19.4378 13.913 20.1 12.0001 20.1ZM3.9001 12C3.9001 10.0871 4.56231 8.33016 5.67135 6.94404L7.95758 9.23028C7.41705 10.018 7.1001 10.9725 7.1001 12C7.1001 13.0275 7.41705 13.982 7.95758 14.7697L5.67135 17.056C4.56231 15.6698 3.9001 13.9129 3.9001 12ZM6.94414 5.67125C8.33025 4.56221 10.0872 3.9 12.0001 3.9C13.913 3.9 15.6699 4.56221 17.0561 5.67125L14.7698 7.95748C13.9821 7.41696 13.0276 7.1 12.0001 7.1C10.9726 7.1 10.0181 7.41696 9.23037 7.95748L6.94414 5.67125Z" fill="#023F80"/>
</svg>
