<svg width="24" height="24" viewBox="0 0 24 24" fill="none" xmlns="http://www.w3.org/2000/svg">
<path fill-rule="evenodd" clipRule="evenodd" d="M5.4001 10.5C5.4001 6.8549 8.35502 3.89998 12.0001 3.89998C12.611 3.89998 13.2012 3.98274 13.7607 4.13715C14.2224 4.2646 14.664 4.44106 15.0795 4.6607C15.5189 4.89299 16.0635 4.72506 16.2958 4.28562C16.5281 3.84618 16.3601 3.30164 15.9207 3.06935C15.3914 2.78959 14.8285 2.56459 14.2395 2.40203C13.5256 2.20497 12.7744 2.09998 12.0001 2.09998C7.36091 2.09998 3.6001 5.86078 3.6001 10.5C3.6001 12.8726 4.62058 14.4534 5.70718 15.6565C6.06158 16.0489 6.44975 16.4281 6.79595 16.7663C6.95361 16.9203 7.10256 17.0658 7.23565 17.2002C7.6598 17.6284 7.96277 17.9799 8.14982 18.3167L8.39738 19.3777C8.46907 19.685 8.53344 19.9609 8.60455 20.1891C8.68118 20.435 8.78206 20.6829 8.95353 20.9172C9.20857 21.2658 9.55295 21.539 9.95033 21.7082C10.2175 21.8219 10.4819 21.8639 10.7387 21.8826C10.9771 21.9 11.2604 21.9 11.576 21.9H12.4242C12.7398 21.9 13.0231 21.9 13.2615 21.8826C13.5183 21.8639 13.7827 21.8219 14.0499 21.7082C14.4473 21.539 14.7916 21.2658 15.0467 20.9172C15.2181 20.6829 15.319 20.435 15.3956 20.1891C15.4668 19.9609 15.5311 19.685 15.6028 19.3777L15.8505 18.3163C16.1232 17.8236 16.6113 17.3461 17.296 16.6764C18.1455 15.8453 18.9717 14.9827 19.5452 13.9309C19.7832 13.4945 19.6224 12.9478 19.186 12.7098C18.7496 12.4719 18.2029 12.6327 17.9649 13.0691C17.4584 13.9981 16.6989 14.7454 15.9478 15.4768C15.4492 15.9622 14.898 16.4989 14.4893 17.1H12.9001V14.9816L13.9993 14.2488C14.4129 13.9731 14.5247 13.4143 14.2489 13.0007C13.9732 12.5872 13.4144 12.4754 13.0009 12.7511L12.0001 13.4183L10.9993 12.7511C10.5858 12.4754 10.027 12.5872 9.75125 13.0007C9.47554 13.4143 9.58729 13.9731 10.0009 14.2488L11.1001 14.9816L11.0995 17.1H9.51162C9.22008 16.6701 8.8626 16.2849 8.51454 15.9335C8.33866 15.7559 8.16714 15.5886 7.99813 15.4237C7.67497 15.1084 7.36094 14.8021 7.04301 14.45C6.12962 13.4387 5.4001 12.2695 5.4001 10.5ZM10.1438 18.9408L10.1343 18.9H12.0003H13.8659L13.8564 18.9408C13.7762 19.2846 13.7264 19.4957 13.6772 19.6535C13.6313 19.8005 13.6032 19.8417 13.594 19.8543C13.5303 19.9414 13.4442 20.0097 13.3448 20.052C13.3304 20.0582 13.284 20.0762 13.1304 20.0874C12.9655 20.0994 12.7487 20.1 12.3956 20.1H11.6046C11.2515 20.1 11.0347 20.0994 10.8698 20.0874C10.7162 20.0762 10.6698 20.0582 10.6554 20.052C10.556 20.0097 10.4699 19.9414 10.4062 19.8543C10.3969 19.8417 10.3689 19.8005 10.323 19.6535C10.2738 19.4957 10.224 19.2846 10.1438 18.9408ZM18.0765 4.30534C18.2122 3.89822 18.788 3.89822 18.9237 4.30534L19.3811 5.67753C19.5293 6.12202 19.8781 6.4708 20.3226 6.61896L21.6948 7.07636C22.1019 7.21207 22.1019 7.78793 21.6948 7.92364L20.3226 8.38104C19.8781 8.5292 19.5293 8.87798 19.3811 9.32247L18.9237 10.6947C18.788 11.1018 18.2122 11.1018 18.0765 10.6947L17.6191 9.32247C17.4709 8.87799 17.1221 8.5292 16.6776 8.38104L15.3054 7.92364C14.8983 7.78793 14.8983 7.21207 15.3054 7.07636L16.6776 6.61896C17.1221 6.4708 17.4709 6.12202 17.6191 5.67753L18.0765 4.30534Z" fill="#023F80"/>
</svg>
