<svg width="28" height="28" viewBox="0 0 28 28" fill="none" xmlns="http://www.w3.org/2000/svg">
<path d="M9.07812 5C5.48334 5 2.5 7.8745 2.5 11.4782C2.5 13.4088 3.01599 14.8958 4.26999 16.432C5.46296 17.8933 7.33821 19.4128 9.9949 21.4701L13.3887 24.0914C13.8258 24.429 14.4538 24.3484 14.7914 23.9113C15.129 23.4742 15.0484 22.8462 14.6113 22.5086L11.2194 19.8888C8.51896 17.7976 6.84063 16.4183 5.81931 15.1672C4.85901 13.9908 4.5 12.9515 4.5 11.4782C4.5 9.01864 6.54791 7 9.07812 7C10.4716 7 11.8539 7.98244 13.231 9.63919C13.4221 9.86915 13.7061 10.0015 14.0051 9.99999C14.3041 9.99846 14.5868 9.8632 14.7755 9.6313C16.1156 7.98507 17.4984 7 18.9219 7C21.4521 7 23.5 9.01864 23.5 11.4782C23.5 11.9679 23.4597 12.3987 23.3785 12.7931L23.3562 12.8961C23.3515 12.9169 23.3466 12.9375 23.3417 12.9581C23.2121 13.495 23.5424 14.0352 24.0792 14.1648C24.6161 14.2943 25.1564 13.9641 25.2859 13.4272C25.2934 13.3961 25.3007 13.365 25.3077 13.3339C25.3176 13.2902 25.3271 13.2464 25.3362 13.2025C25.4503 12.6506 25.5 12.08 25.5 11.4782C25.5 7.8745 22.5167 5 18.9219 5C16.9559 5 15.3137 6.11024 13.994 7.49297C12.662 6.11399 11.0223 5 9.07812 5Z" fill="#023F80"/>
<path fill-rule="evenodd" clipRule="evenodd" d="M24.5 18.492C24.5 16.8365 23.1569 15.5 21.5 15.5L21.3241 15.5051C19.7521 15.5964 18.5 16.9029 18.5 18.5012V19.999L17.7519 20C17.3418 20 17 20.3402 17 20.7599V25.2401C17 25.6602 17.3366 26 17.7519 26H25.2481C25.6582 26 26 25.6598 26 25.2401V20.7599C26 20.3398 25.6634 20 25.2481 20L24.5 19.999V18.492ZM21.3546 17.0069L21.5 17C22.3284 17 23 17.6658 23 18.5V20H20V18.5C20 17.7203 20.5898 17.0796 21.3546 17.0069Z" fill="#023F80"/>
</svg>
