<svg width="24" height="24" viewBox="0 0 24 24" fill="none" xmlns="http://www.w3.org/2000/svg">
<path fill-rule="evenodd" clipRule="evenodd" d="M4.72685 4.72697C6.58726 2.86656 9.15986 1.71436 11.9999 1.71436C14.84 1.71436 17.4126 2.86656 19.273 4.72697C21.1335 6.58738 22.2857 9.15998 22.2857 12.0001C22.2857 14.8402 21.1335 17.4128 19.273 19.2732C17.4126 21.1336 14.84 22.2858 11.9999 22.2858C9.15986 22.2858 6.58726 21.1336 4.72685 19.2732C2.86644 17.4128 1.71423 14.8402 1.71423 12.0001C1.71423 9.15998 2.86644 6.58738 4.72685 4.72697ZM11.9999 3.42864C9.63277 3.42864 7.49109 4.38709 5.93903 5.93915C4.38697 7.49122 3.42852 9.6329 3.42852 12.0001C3.42852 14.3672 4.38697 16.5089 5.93903 18.061C7.49109 19.613 9.63277 20.5715 11.9999 20.5715C14.3671 20.5715 16.5088 19.613 18.0609 18.061C19.6129 16.5089 20.5714 14.3672 20.5714 12.0001C20.5714 9.6329 19.6129 7.49122 18.0609 5.93915C16.5088 4.38709 14.3671 3.42864 11.9999 3.42864ZM12.1905 6.00007C12.6638 6.00007 13.0476 6.38383 13.0476 6.85721V8.08307C13.4403 8.19675 13.8173 8.39103 14.133 8.67545L14.1407 8.68237L14.1407 8.68242L14.1464 8.68765C14.4942 9.0087 14.516 9.55097 14.195 9.89886C13.8739 10.2467 13.3316 10.2685 12.9837 9.94746L12.9826 9.94639C12.8045 9.7878 12.5101 9.67539 12.1795 9.67355C11.8448 9.67169 11.5936 9.78212 11.4633 9.9142L11.4438 9.93399L11.4231 9.95248C11.3656 10.0037 11.2595 10.1791 11.2388 10.4506C11.2178 10.7239 11.2987 10.8676 11.3295 10.8989L11.3356 10.9051L11.3415 10.9115C11.4285 11.0037 11.6905 11.1736 12.2659 11.336C12.6952 11.451 13.0686 11.5775 13.3721 11.7331L13.3764 11.7353C13.7 11.9036 14.0178 12.1402 14.2465 12.5001C14.4768 12.8624 14.5676 13.2722 14.5713 13.7025L14.5713 13.7057C14.574 14.2583 14.4191 14.7487 14.1143 15.142C13.8217 15.5197 13.4339 15.7529 13.0476 15.8851V17.1429C13.0476 17.6163 12.6638 18.0001 12.1905 18.0001C11.7171 18.0001 11.3333 17.6163 11.3333 17.1429V15.9588C11.1286 15.9125 10.9353 15.8479 10.7612 15.7679L10.7506 15.763L10.7401 15.7579C10.4061 15.5934 9.98518 15.281 9.74144 15.0807C9.37571 14.7802 9.32289 14.24 9.62345 13.8743C9.92402 13.5086 10.4642 13.4558 10.8299 13.7563C11.0414 13.9301 11.3316 14.1355 11.4873 14.2149C11.75 14.3313 12.1695 14.3701 12.4833 14.2663C12.6272 14.2187 12.7113 14.1539 12.7592 14.092C12.8015 14.0375 12.8579 13.9322 12.8571 13.7156C12.8552 13.5196 12.8163 13.4457 12.7997 13.4195C12.7816 13.391 12.7357 13.3347 12.5877 13.2574C12.4407 13.1824 12.2002 13.093 11.8175 12.9907L11.8067 12.9878L11.8067 12.9877C11.1407 12.8003 10.5119 12.5267 10.1002 12.0938C9.60778 11.5876 9.48641 10.8826 9.52946 10.3198C9.57219 9.76116 9.79186 9.12281 10.2617 8.69145C10.5692 8.38692 10.9437 8.18846 11.3333 8.07598V6.85721C11.3333 6.38383 11.7171 6.00007 12.1905 6.00007Z" fill="#023F80"/>
</svg>
