<svg width="24" height="24" viewBox="0 0 24 24" fill="none" xmlns="http://www.w3.org/2000/svg">
<path d="M3.99998 6.89998L18.5 6.89998C18.997 6.89998 19.4 6.49703 19.4 5.99998C19.4 5.50292 18.997 5.09998 18.5 5.09998L3.99998 5.09998C3.50292 5.09998 3.09998 5.50292 3.09998 5.99998C3.09998 6.49704 3.50292 6.89998 3.99998 6.89998Z" fill="#023F80"/>
<path d="M3.99998 10.1C3.50292 10.1 3.09998 10.5029 3.09998 11C3.09998 11.497 3.50292 11.9 3.99998 11.9L6.99998 11.9C7.49703 11.9 7.89998 11.497 7.89998 11C7.89998 10.5029 7.49703 10.1 6.99998 10.1L3.99998 10.1Z" fill="#023F80"/>
<path d="M3.99998 15.1C3.50292 15.1 3.09998 15.5029 3.09998 16C3.09998 16.497 3.50292 16.9 3.99998 16.9H6.49998C6.99703 16.9 7.39998 16.497 7.39998 16C7.39998 15.5029 6.99703 15.1 6.49998 15.1H3.99998Z" fill="#023F80"/>
<path fill-rule="evenodd" clipRule="evenodd" d="M13.1167 9.99997C10.9037 9.99997 9 11.6953 9 13.9178C9 15.0701 9.33636 15.9829 10.1167 16.8977C10.8412 17.7471 11.963 18.612 13.4969 19.7296L14.6315 20.5563C15.4433 21.1478 16.5567 21.1478 17.3685 20.5563L18.5031 19.7296C20.037 18.612 21.1588 17.7471 21.8833 16.8977C22.6636 15.9829 23 15.0701 23 13.9178C23 11.6953 21.0963 9.99997 18.8833 9.99997C17.8588 9.99997 16.8468 10.3845 16 11.1066C15.1533 10.3844 14.1412 9.99997 13.1167 9.99997ZM10.8261 13.9178C10.8261 12.8253 11.791 11.8333 13.1167 11.8333C13.8909 11.8333 14.644 12.459 15.1087 12.8451C15.1742 12.8995 15.2339 12.9491 15.2872 12.9916C15.4193 13.0969 15.514 13.1819 15.5888 13.2492C15.7584 13.4016 15.8266 13.4629 16 13.4629C16.1696 13.4629 16.2349 13.4043 16.3965 13.2593C16.4731 13.1905 16.5714 13.1022 16.7128 12.9916C16.7815 12.9378 16.8603 12.8725 16.947 12.8006C17.4144 12.4128 18.113 11.8333 18.7224 11.8333C20.0481 11.8333 21.1739 12.8253 21.1739 13.9178C21.1739 14.6213 21.0008 15.1138 20.4963 15.7051C19.9361 16.3619 18.9978 17.104 17.4306 18.2459L16.2959 19.0726C16.1238 19.198 15.8762 19.198 15.7041 19.0726L14.5694 18.2459C13.0022 17.104 12.0639 16.3619 11.5037 15.7051C10.9992 15.1138 10.8261 14.6213 10.8261 13.9178Z" fill="#023F80"/>
</svg>
