<svg width="28" height="28" viewBox="0 0 28 28" fill="none" xmlns="http://www.w3.org/2000/svg">
<path fill-rule="evenodd" clipRule="evenodd" d="M5.70711 3.29289C5.31658 2.90237 4.68342 2.90237 4.29289 3.29289C3.90237 3.68342 3.90237 4.31658 4.29289 4.70711L5.58579 6H4.5C3.94772 6 3.5 6.44772 3.5 7C3.5 7.55228 3.94772 8 4.5 8H7.58579L12.6 13.0142C11.6707 13.7939 11.079 14.9505 11.0018 16.223C11.0009 16.2376 11.0004 16.2524 11.0001 16.2671C10.9892 16.9317 11.0395 17.5107 11.2044 18.0547C11.3726 18.6094 11.6415 19.0671 11.9874 19.513C12.7054 20.4384 13.8904 21.4946 15.8009 22.9212L16.9435 23.7712C17.8592 24.4547 19.1311 24.4569 20.0487 23.7771L21.9756 22.3898L24.2929 24.7071C24.6834 25.0976 25.3166 25.0976 25.7071 24.7071C26.0491 24.3651 26.0916 23.8371 25.8347 23.4489L7.29289 4.90712C7.24433 4.85856 7.20181 4.80624 7.16532 4.75111L5.70711 3.29289ZM12.9961 7.78195L12.8901 7.67594C12.7386 7.49795 12.65 7.26062 12.65 7C12.65 6.44772 13.0477 6 13.6 6H21.5C22.0523 6 22.5 6.44772 22.5 7C22.5 7.55228 22.0523 8 21.5 8H13.6C13.3642 8 13.1567 7.91842 12.9961 7.78195ZM14.0255 14.4397C13.4403 14.8566 13.0533 15.5351 12.9995 16.3231C12.9921 16.8617 13.0373 17.2069 13.1184 17.4743C13.1974 17.7348 13.3272 17.9771 13.5677 18.287C14.1108 18.9872 15.1119 19.9106 16.9976 21.3188L18.1401 22.1688C18.3488 22.3246 18.6512 22.3246 18.8599 22.1688L18.8739 22.1584L20.5428 20.957L14.0255 14.4397ZM8 18C8.55228 18 9 18.4477 9 19C9 19.5523 8.55228 20 8 20H4.5C3.94772 20 3.5 19.5523 3.5 19C3.5 18.4477 3.94772 18 4.5 18H8ZM8.5 12C9.05228 12 9.5 12.4477 9.5 13C9.5 13.5523 9.05228 14 8.5 14H4.5C3.94772 14 3.5 13.5523 3.5 13C3.5 12.4477 3.94772 12 4.5 12H8.5ZM21.5735 13.98C21.3099 13.9804 21.0984 14.0089 20.9139 14.0697C20.7715 14.1167 20.6955 14.1441 20.6299 14.1765C20.1348 14.4212 19.5351 14.2182 19.2904 13.723C19.0457 13.2279 19.2487 12.6282 19.7438 12.3835C19.9499 12.2817 20.1491 12.216 20.2861 12.1708L20.2876 12.1703C20.7356 12.0226 21.1744 11.98 21.5789 11.98H21.5895C22.8368 11.9932 23.9341 12.5588 24.7092 13.342C25.4766 14.1175 26 15.1802 26 16.2835C26 16.9142 25.9729 17.5456 25.7412 18.1916C25.5547 18.7114 24.9821 18.9816 24.4622 18.7951C23.9424 18.6086 23.6722 18.036 23.8587 17.5162C23.9669 17.2145 24 16.8768 24 16.2835C24 15.8033 23.7581 15.2243 23.2876 14.7489C22.826 14.2824 22.2148 13.9883 21.5735 13.98Z" fill="#023F80"/>
</svg>
