<svg width="24" height="24" viewBox="0 0 24 24" fill="none" xmlns="http://www.w3.org/2000/svg">
<path fill-rule="evenodd" clipRule="evenodd" d="M12 3.89998C10.9396 3.89998 9.92894 4.10326 9.0032 4.47215C8.54145 4.65615 8.01797 4.43099 7.83398 3.96924C7.64998 3.50749 7.87514 2.98401 8.33689 2.80002C9.4711 2.34805 10.7077 2.09998 12 2.09998C17.4676 2.09998 21.9 6.53236 21.9 12C21.9 13.292 21.652 14.5283 21.2002 15.6623C21.0163 16.1241 20.4928 16.3493 20.031 16.1653C19.5693 15.9814 19.3441 15.4579 19.528 14.9962C19.8968 14.0706 20.1 13.0601 20.1 12C20.1 7.52647 16.4735 3.89998 12 3.89998Z" fill="#023F80"/>
<path fill-rule="evenodd" clipRule="evenodd" d="M11.1312 6.99456C11.1343 6.49751 11.5397 6.09704 12.0367 6.10008C15.263 6.11983 17.8751 8.72884 17.8998 11.954C17.9036 12.451 17.5038 12.8571 17.0067 12.8609C16.5097 12.8647 16.1037 12.4648 16.0998 11.9678C16.0827 9.72688 14.2674 7.91377 12.0257 7.90005C11.5287 7.89701 11.1282 7.49161 11.1312 6.99456Z" fill="#023F80"/>
<path fill-rule="evenodd" clipRule="evenodd" d="M4.99962 19.0003C6.79018 20.7909 9.26641 21.9 12 21.9C14.4094 21.9 16.6188 21.0384 18.3351 19.6079L19.4636 20.7364C19.815 21.0878 20.3849 21.0878 20.7364 20.7364C21.0878 20.3849 21.0878 19.815 20.7364 19.4636L4.53636 3.26357C4.18489 2.9121 3.61504 2.9121 3.26357 3.26357C2.9121 3.61505 2.9121 4.18489 3.26357 4.53637L4.39206 5.66486C2.9616 7.38111 2.09998 9.59059 2.09998 12C2.09998 14.7335 3.20906 17.2098 4.99962 19.0003ZM3.89998 12C3.89998 14.237 4.80561 16.2607 6.27241 17.7275C7.73921 19.1943 9.76297 20.1 12 20.1C13.9129 20.1 15.6698 19.4378 17.0559 18.3287L15.4869 16.7597C14.5103 17.4761 13.3041 17.9 12 17.9C10.371 17.9 8.89475 17.2386 7.82805 16.1719C6.76134 15.1052 6.09998 13.629 6.09998 12C6.09998 10.6958 6.52386 9.48962 7.24026 8.51306L5.67123 6.94402C4.56219 8.33014 3.89998 10.0871 3.89998 12ZM7.89998 12C7.89998 13.1324 8.3579 14.1562 9.10084 14.8991C9.84378 15.6421 10.8675 16.1 12 16.1C12.8067 16.1 13.5583 15.8676 14.1925 15.4653L12.547 13.8198C11.8857 14.0186 11.1461 13.8331 10.6565 13.3435C10.1669 12.8539 9.98138 12.1142 10.1801 11.4529L8.53466 9.80746C8.13237 10.4417 7.89998 11.1932 7.89998 12Z" fill="#023F80"/>
</svg>
