<svg width="24" height="24" viewBox="0 0 24 24" fill="none" xmlns="http://www.w3.org/2000/svg">
<path d="M8.46901 8.99998C8.74861 8.99998 8.85378 9.12361 8.95864 9.42967C9.49369 11.0043 10.3958 12.3805 10.7667 12.3805C10.8919 12.3805 10.9561 12.3281 10.9677 12.0574L10.9696 11.9589V10.3313C10.929 9.58188 10.5349 9.52044 10.5349 9.25403C10.5349 9.14586 10.615 9.03248 10.7514 9.00582L10.8133 8.99998H12.5325C12.7385 8.99998 12.8252 9.09894 12.8419 9.31831L12.845 9.40626V11.5959C12.845 11.8301 12.9457 11.9121 13.0152 11.9121C13.1543 11.9121 13.2702 11.8301 13.5252 11.5725C14.3133 10.6826 14.8696 9.31256 14.8696 9.31256C14.9315 9.16685 15.0397 9.0332 15.2583 9.0053L15.3456 8.99998H16.4396C16.7704 8.99998 16.84 9.17206 16.7704 9.40626C16.6421 10.0007 15.4965 11.6628 15.321 11.915L15.2985 11.9472C15.1826 12.1345 15.1362 12.2282 15.2985 12.439C15.4144 12.6029 15.7969 12.9308 16.0519 13.2352C16.5218 13.7694 16.8759 14.2199 16.9746 14.5305C17.0572 14.8161 16.9328 14.9726 16.6707 14.9967L16.5959 15H15.5019C15.0847 15 14.9624 14.6638 14.2206 13.9144C13.5715 13.2821 13.2934 13.2001 13.1311 13.2001C12.9329 13.2001 12.8597 13.2512 12.8471 13.4916L12.845 13.5789V14.5701C12.845 14.8421 12.759 15 12.0636 15C10.9046 15 9.63087 14.2891 8.72685 12.9776C7.37081 11.0573 6.99992 9.60531 6.99992 9.31256C6.99992 9.16503 7.05056 9.02986 7.28855 9.0043L7.37501 8.99998H8.46901Z" fill="#023F80"/>
<path fill-rule="evenodd" clipRule="evenodd" d="M10.7542 3.09998H13.2456C14.5162 3.09996 15.5338 3.09996 16.3514 3.1777C17.1922 3.25764 17.914 3.4261 18.5602 3.82204C19.2195 4.22607 19.7738 4.78041 20.1779 5.43973C20.5738 6.08585 20.7423 6.80767 20.8222 7.64847C20.8999 8.46609 20.8999 9.48366 20.8999 10.7543V13.2457C20.8999 14.5163 20.8999 15.5339 20.8222 16.3515C20.7423 17.1923 20.5738 17.9141 20.1779 18.5602C19.7738 19.2195 19.2195 19.7739 18.5602 20.1779C17.914 20.5739 17.1922 20.7423 16.3514 20.8223C15.5338 20.9 14.5162 20.9 13.2456 20.9H10.7542C9.4836 20.9 8.46603 20.9 7.6484 20.8223C6.80761 20.7423 6.08579 20.5739 5.43967 20.1779C4.78035 19.7739 4.22601 19.2195 3.82198 18.5602C3.42604 17.9141 3.25758 17.1923 3.17764 16.3515C3.09989 15.5339 3.0999 14.5163 3.09991 13.2457V10.7543C3.0999 9.48367 3.09989 8.4661 3.17764 7.64847C3.25758 6.80767 3.42604 6.08585 3.82198 5.43973C4.22601 4.78041 4.78035 4.22607 5.43967 3.82204C6.08579 3.4261 6.80761 3.25764 7.6484 3.1777C8.46604 3.09996 9.48361 3.09996 10.7542 3.09998ZM7.81878 4.96962C7.10974 5.03703 6.69593 5.16329 6.38017 5.35679C5.96305 5.6124 5.61234 5.96311 5.35673 6.38023C5.16323 6.69599 5.03697 7.1098 4.96955 7.81884C4.90086 8.54128 4.89991 9.47318 4.89991 10.8V13.2C4.89991 14.5268 4.90086 15.4587 4.96955 16.1811C5.03697 16.8902 5.16323 17.304 5.35673 17.6197C5.61234 18.0368 5.96305 18.3875 6.38017 18.6432C6.69593 18.8367 7.10974 18.9629 7.81878 19.0303C8.54122 19.099 9.47312 19.1 10.7999 19.1H13.1999C14.5267 19.1 15.4586 19.099 16.181 19.0303C16.8901 18.9629 17.3039 18.8367 17.6197 18.6432C18.0368 18.3875 18.3875 18.0368 18.6431 17.6197C18.8366 17.304 18.9629 16.8902 19.0303 16.1811C19.099 15.4587 19.0999 14.5268 19.0999 13.2V10.8C19.0999 9.47318 19.099 8.54128 19.0303 7.81884C18.9629 7.1098 18.8366 6.69599 18.6431 6.38023C18.3875 5.96311 18.0368 5.6124 17.6197 5.35679C17.3039 5.16329 16.8901 5.03703 16.181 4.96962C15.4586 4.90093 14.5267 4.89998 13.1999 4.89998H10.7999C9.47312 4.89998 8.54122 4.90093 7.81878 4.96962Z" fill="#023F80"/>
</svg>
