<svg width="28" height="28" viewBox="0 0 28 28" fill="none" xmlns="http://www.w3.org/2000/svg">
<path d="M21.4627 7.15825C21.6959 7.00979 21.9651 6.96976 22.2165 7.02556C22.4678 7.08136 22.6948 7.23156 22.8433 7.46473C22.9455 7.62522 22.9998 7.81153 22.9998 8.00179V20.3538C22.9998 20.9061 23.4475 21.3538 23.9998 21.3538C24.552 21.3538 24.9998 20.9061 24.9998 20.3538V8.00179C24.9998 7.43102 24.8369 6.87209 24.5304 6.39062C24.0856 5.69204 23.3979 5.23915 22.6499 5.07309C21.9019 4.90704 21.0872 5.02639 20.3886 5.47116L16.4171 7.99965H12.6533C12.101 7.99965 11.6533 8.44737 11.6533 8.99965C11.6533 9.55194 12.101 9.99965 12.6533 9.99965H14.9998V12.3419C14.9998 12.8942 15.4475 13.3419 15.9998 13.3419C16.552 13.3419 16.9998 12.8942 16.9998 12.3419V9.99965L21.4627 7.15825Z" fill="#023F80"/>
<path fill-rule="evenodd" clipRule="evenodd" d="M16.7509 17.3395C16.7225 17.3073 16.6922 17.2769 16.6599 17.2485L4.71004 5.29863C4.31951 4.90811 3.68635 4.90811 3.29582 5.29863C2.9053 5.68915 2.9053 6.32232 3.29582 6.71284L5.48225 8.89927C5.3017 9.02423 5.13622 9.1478 4.98821 9.26662L4.98037 9.27292L4.97266 9.27937C4.8471 9.3844 4.72631 9.49492 4.61067 9.61057C3.61646 10.6048 2.99976 11.9811 2.99976 13.4997C2.99976 15.0182 3.61646 16.3945 4.61067 17.3887C5.40105 18.1791 6.43296 18.7309 7.5858 18.924L8.04323 21.5182C8.18703 22.3337 8.64927 23.0152 9.27692 23.4547C9.90457 23.8941 10.703 24.0954 11.5186 23.9516C12.3342 23.8078 13.0156 23.3456 13.4551 22.7179C13.8946 22.0903 14.0959 21.2918 13.9521 20.4763L13.6917 18.9997H15.5826L22.2927 25.7097C22.6832 26.1002 23.3164 26.1002 23.7069 25.7097C24.0974 25.3192 24.0974 24.686 23.7069 24.2955L16.7509 17.3395ZM6.92565 10.3427C6.66094 10.5089 6.43181 10.673 6.24833 10.8198C6.17093 10.8849 6.09637 10.9533 6.02488 11.0248C5.39041 11.6592 4.99976 12.5329 4.99976 13.4997C4.99976 14.4664 5.39041 15.3401 6.02488 15.9745C6.65935 16.609 7.53298 16.9997 8.49976 16.9997H13.5826L6.92565 10.3427ZM10.0128 21.1709L9.63 18.9997H11.6609L11.9825 20.8236C12.0305 21.0958 11.9645 21.3599 11.8168 21.5708C11.6691 21.7817 11.4435 21.934 11.1713 21.982C10.8991 22.03 10.635 21.964 10.4241 21.8164C10.2132 21.6687 10.0608 21.4431 10.0128 21.1709Z" fill="#023F80"/>
</svg>
