<svg width="24" height="24" viewBox="0 0 24 24" fill="none" xmlns="http://www.w3.org/2000/svg">
<path fill-rule="evenodd" clipRule="evenodd" d="M7.8001 4.10001H7.7624H7.76237C6.95433 4.1 6.29349 4.09999 5.75642 4.14387C5.2005 4.18929 4.69842 4.28617 4.22954 4.52508C3.4957 4.89899 2.89908 5.49561 2.52517 6.22944C2.28626 6.69833 2.18938 7.20041 2.14396 7.75632C2.10008 8.2934 2.10009 8.95424 2.1001 9.76229V9.76231V9.80001V14.2V14.2377V14.2377C2.10009 15.0458 2.10008 15.7066 2.14396 16.2437C2.18938 16.7996 2.28626 17.3017 2.52517 17.7706C2.89908 18.5044 3.4957 19.101 4.22954 19.4749C4.69842 19.7138 5.2005 19.8107 5.75642 19.8561C6.29349 19.9 6.95434 19.9 7.76239 19.9H7.8001H16.2001H16.2378C17.0459 19.9 17.7067 19.9 18.2438 19.8561C18.7997 19.8107 19.3018 19.7138 19.7707 19.4749C20.5045 19.101 21.1011 18.5044 21.475 17.7706C21.7139 17.3017 21.8108 16.7996 21.8562 16.2437C21.9001 15.7066 21.9001 15.0458 21.9001 14.2377V14.2V9.80001V9.7623C21.9001 8.95425 21.9001 8.2934 21.8562 7.75632C21.8108 7.20041 21.7139 6.69833 21.475 6.22944C21.1011 5.49561 20.5045 4.89899 19.7707 4.52508C19.3018 4.28617 18.7997 4.18929 18.2438 4.14387C17.7067 4.09999 17.0459 4.1 16.2378 4.10001H16.2378H16.2001H7.8001ZM5.38073 6.01217C5.5163 5.98082 5.68489 5.95571 5.90299 5.93789C6.3581 5.90071 6.94517 5.90001 7.8001 5.90001H16.2001C17.055 5.90001 17.6421 5.90071 18.0972 5.93789C18.3153 5.95571 18.4839 5.98082 18.6195 6.01217L14.6104 9.52009C14.0326 10.0257 13.637 10.371 13.3075 10.6174C12.9871 10.857 12.7833 10.9605 12.607 11.0127C12.2109 11.1298 11.7893 11.1298 11.3932 11.0127C11.2169 10.9605 11.0131 10.857 10.6926 10.6174C10.3632 10.371 9.9676 10.0257 9.38979 9.52009L5.38073 6.01217ZM4.0505 7.24C4.00096 7.39568 3.96255 7.60224 3.93798 7.9029C3.9008 8.35801 3.9001 8.94508 3.9001 9.80001V14.2C3.9001 15.0549 3.9008 15.642 3.93798 16.0971C3.97431 16.5417 4.04092 16.7805 4.12898 16.9534C4.33032 17.3485 4.65158 17.6698 5.04672 17.8711C5.21956 17.9592 5.45839 18.0258 5.90299 18.0621C6.3581 18.0993 6.94517 18.1 7.8001 18.1H16.2001C17.055 18.1 17.6421 18.0993 18.0972 18.0621C18.5418 18.0258 18.7806 17.9592 18.9535 17.8711C19.3486 17.6698 19.6699 17.3485 19.8712 16.9534C19.9593 16.7805 20.0259 16.5417 20.0622 16.0971C20.0994 15.642 20.1001 15.0549 20.1001 14.2V9.80001C20.1001 8.94508 20.0994 8.35801 20.0622 7.9029C20.0377 7.60224 19.9992 7.39568 19.9497 7.24L15.7957 10.8747L15.7695 10.8977C15.2244 11.3747 14.7769 11.7662 14.3855 12.0589C13.9789 12.363 13.5797 12.6021 13.1174 12.7388C12.3882 12.9545 11.612 12.9545 10.8828 12.7388C10.4205 12.6021 10.0213 12.363 9.61468 12.0589C9.22329 11.7662 8.77586 11.3747 8.23074 10.8977L8.20448 10.8747L4.0505 7.24Z" fill="#023F80"/>
</svg>
