<svg width="28" height="28" viewBox="0 0 28 28" fill="none" xmlns="http://www.w3.org/2000/svg">
<path fill-rule="evenodd" clipRule="evenodd" d="M21.575 15.0069C20.6913 15.053 19.8737 15.3287 19.1372 15.8238L19 15.92L18.8628 15.8238C18.0526 15.2792 17.1444 15 16.1579 15C13.8616 15 12 16.8615 12 19.1577C12 21.4005 12.8916 22.6451 16.4473 25.4104L18.0937 26.6909C18.6268 27.1055 19.3732 27.1055 19.9063 26.6909L21.5527 25.4104C25.1084 22.6451 26 21.4005 26 19.1577C26 16.8615 24.1384 15 21.8421 15L21.575 15.0069ZM21.8421 17C23.0339 17 24 17.966 24 19.1577L23.9984 19.2804C23.9656 20.5316 23.4002 21.4045 20.8447 23.4244L19 24.8619L17.6752 23.8317C14.5841 21.4277 14 20.5679 14 19.1577C14 17.966 14.9661 17 16.1579 17C16.9611 17 17.6562 17.3008 18.2931 17.9373L18.6466 18.2905C18.8418 18.4856 19.1582 18.4856 19.3534 18.2905L19.7069 17.9373C20.3438 17.3008 21.0389 17 21.8421 17Z" fill="#023F80"/>
<path fill-rule="evenodd" clipRule="evenodd" d="M9 12C8.44772 12 8 12.4477 8 13C8 13.5523 8.44772 14 9 14C9.55228 14 10 13.5523 10 13C10 12.4477 9.55228 12 9 12Z" fill="#023F80"/>
<path fill-rule="evenodd" clipRule="evenodd" d="M14 2C17.3137 2 20 4.68629 20 8H21.1542C22.4915 8 22.9764 8.13924 23.4653 8.4007C23.9542 8.66216 24.3378 9.04584 24.5993 9.53473L24.6916 9.71955C24.8934 10.1582 25 10.6757 25 11.8458V12.5C25 13.0523 24.5523 13.5 24 13.5C23.4477 13.5 23 13.0523 23 12.5V11.8458C23 10.9285 22.9567 10.7042 22.8357 10.4779C22.7606 10.3376 22.6624 10.2394 22.5221 10.1643C22.3281 10.0606 22.1356 10.014 21.5069 10.0028L21.1542 10H6.84583L6.4931 10.0028C5.86439 10.014 5.67186 10.0606 5.47793 10.1643C5.33758 10.2394 5.23939 10.3376 5.16433 10.4779C5.04332 10.7042 5 10.9285 5 11.8458V18.9493C5 20.8826 5.12962 21.5539 5.49824 22.2431C5.79119 22.7909 6.20911 23.2088 6.75687 23.5018C7.44613 23.8704 8.11737 24 10.0507 24H11.5C12.0523 24 12.5 24.4477 12.5 25C12.5 25.5523 12.0523 26 11.5 26H10.0507L9.46941 25.9947C7.45078 25.9559 6.63528 25.7048 5.81367 25.2654C4.91738 24.786 4.21396 24.0826 3.73462 23.1863C3.27524 22.3274 3.02166 21.4751 3.00133 19.2477L3 11.8458C3 10.5085 3.13924 10.0236 3.4007 9.53473C3.66216 9.04584 4.04584 8.66216 4.53473 8.4007L4.71955 8.30841C5.12684 8.12102 5.60218 8.01572 6.60487 8.00163L8 8C8 4.68629 10.6863 2 14 2ZM10 8C10 5.79086 11.7909 4 14 4C16.2091 4 18 5.79086 18 8H10Z" fill="#023F80"/>
</svg>
