<svg width="28" height="28" viewBox="0 0 28 28" fill="none" xmlns="http://www.w3.org/2000/svg">
<path d="M19 12C19.5523 12 20 12.4477 20 13C20 13.5523 19.5523 14 19 14C18.4477 14 18 13.5523 18 13C18 12.4477 18.4477 12 19 12Z" fill="#023F80"/>
<path fill-rule="evenodd" clipRule="evenodd" d="M22.0322 10.0239C21.7488 10.0008 21.3766 10 20.8 10H14.6563C14.104 10 13.6563 9.55228 13.6563 9C13.6563 8.44772 14.104 8 14.6563 8L20.8385 8C21.3657 7.99998 21.8205 7.99997 22.195 8.03057C22.5904 8.06287 22.9836 8.13419 23.362 8.32698C23.9265 8.6146 24.3854 9.07354 24.673 9.63803C24.8658 10.0164 24.9371 10.4096 24.9694 10.805C25 11.1795 25 11.6343 25 12.1614V17.8C25 17.9908 25 18.1752 24.9998 18.3528C24.9991 18.9051 24.5509 19.3522 23.9986 19.3516C23.4463 19.3509 22.9991 18.9026 22.9998 18.3504C23 18.1742 23 17.9911 23 17.8V12.2C23 11.6234 22.9992 11.2512 22.9761 10.9678C22.9539 10.6962 22.9162 10.5955 22.891 10.546C22.7951 10.3578 22.6422 10.2049 22.454 10.109C22.4045 10.0838 22.3038 10.0461 22.0322 10.0239Z" fill="#023F80"/>
<path fill-rule="evenodd" clipRule="evenodd" d="M4.2929 4.29289C4.68342 3.90237 5.31658 3.90237 5.70711 4.29289L25.7071 24.2929C26.0976 24.6834 26.0976 25.3166 25.7071 25.7071C25.3166 26.0976 24.6834 26.0976 24.2929 25.7071L23.1765 24.5907L21.7591 23.1733L8.58244 9.99665L6.58749 8.00171L4.2929 5.70711C3.90237 5.31658 3.90237 4.68342 4.2929 4.29289Z" fill="#023F80"/>
<path d="M7.2 10H8.5C8.52776 10 8.55525 9.99887 8.58244 9.99665L6.58749 8.00171C6.29738 8.00447 6.03594 8.0117 5.80497 8.03057C5.40963 8.06287 5.01641 8.13419 4.63803 8.32698C4.07354 8.6146 3.6146 9.07354 3.32698 9.63803C3.13419 10.0164 3.06287 10.4096 3.03057 10.805C2.99997 11.1795 2.99998 11.6343 3 12.1615L3 17.8433C2.99999 19.0667 2.99999 20.0458 3.06463 20.837C3.13099 21.6492 3.27043 22.3512 3.59947 22.9969C4.12677 24.0318 4.96816 24.8732 6.00305 25.4005C6.64882 25.7296 7.35075 25.869 8.16298 25.9354C8.95421 26 9.93328 26 11.1566 26H16.8434C18.0667 26 19.0458 26 19.837 25.9354C20.6493 25.869 21.3512 25.7296 21.997 25.4005C22.4263 25.1818 22.8223 24.9089 23.1765 24.5907L21.7591 23.1733C21.5547 23.346 21.3301 23.4957 21.089 23.6185C20.7721 23.78 20.3627 23.8858 19.6742 23.942C18.9739 23.9992 18.0766 24 16.8 24H11.2C9.92338 24 9.02606 23.9992 8.32584 23.942C7.6373 23.8858 7.22787 23.78 6.91104 23.6185C6.25247 23.283 5.71704 22.7475 5.38148 22.089C5.22004 21.7721 5.11425 21.3627 5.05799 20.6742C5.00078 19.9739 5 19.0766 5 17.8V12.2C5 11.6234 5.00078 11.2512 5.02393 10.9678C5.04612 10.6962 5.0838 10.5955 5.109 10.546C5.20487 10.3578 5.35785 10.2049 5.54601 10.109C5.59546 10.0838 5.69617 10.0461 5.96784 10.0239C6.25117 10.0008 6.62345 10 7.2 10Z" fill="#023F80"/>
<path d="M17.9999 8H19.9999C19.9999 4.68629 17.3136 2 13.9999 2C12.2347 2 10.6465 2.76349 9.55005 3.97513C9.17946 4.38462 9.21101 5.017 9.62051 5.38758C10.03 5.75817 10.6624 5.72662 11.033 5.31712C11.7663 4.50679 12.8232 4 13.9999 4C16.209 4 17.9999 5.79086 17.9999 8Z" fill="#023F80"/>
</svg>
