<svg width="28" height="28" viewBox="0 0 28 28" fill="none" xmlns="http://www.w3.org/2000/svg">
<path d="M23.7065 9.66186C25.1706 11.1144 26.0002 12.9977 26.0002 15C26.0002 16.2695 25.667 17.4958 25.0401 18.5987C25.1412 19.2021 25.4326 20.118 25.9159 21.315L26.1744 21.9388L26.2313 22.1068L26.2564 22.205C26.3872 22.8531 26.0456 23.5097 25.4304 23.7705C25.2347 23.8535 25.0227 23.8908 24.8104 23.8797C22.9024 23.7794 21.3803 23.3142 20.2705 22.4561C19.2381 22.8137 18.1332 23 17.0002 23C15.8457 23 14.7196 22.8066 13.6682 22.4344C13.1476 22.2502 12.8749 21.6787 13.0592 21.1581C13.2435 20.6374 13.8149 20.3648 14.3355 20.5491C15.1727 20.8454 16.073 21 17.0002 21C18.0867 21 19.1355 20.7876 20.0869 20.3854C20.4635 20.2262 20.8991 20.3123 21.1868 20.6028C21.7364 21.1577 22.5583 21.5442 23.6684 21.7437L23.952 21.7897C23.3782 20.3343 23.0636 19.2351 23.0091 18.4466C22.9944 18.2341 23.0479 18.0225 23.1619 17.8426C23.7106 16.9762 24.0002 16.0067 24.0002 15C24.0002 13.5462 23.3933 12.1684 22.2979 11.0817C21.9058 10.6927 21.9033 10.0595 22.2923 9.66746C22.6813 9.27539 23.3144 9.27288 23.7065 9.66186ZM11.0001 3C15.9431 3 20.0001 6.54982 20.0001 11C20.0001 15.4502 15.9431 19 11.0001 19C9.86707 19 8.76223 18.8137 7.72982 18.4561C6.62003 19.3142 5.09787 19.7794 3.18987 19.8797C2.9776 19.8908 2.76557 19.8535 2.56986 19.7705C1.9547 19.5097 1.61307 18.8531 1.74392 18.205L1.76898 18.1068L1.82591 17.9388L1.95953 17.6201C2.47484 16.3764 2.79813 15.4113 2.93098 14.756L2.96022 14.5987L2.80962 14.3204C2.28002 13.2911 2.00006 12.1637 2.00006 11C2.00006 6.54982 6.05699 3 11.0001 3ZM11.0001 5C7.10657 5 4.00006 7.7182 4.00006 11C4.00006 12.0067 4.28971 12.9762 4.83843 13.8426C4.95238 14.0225 5.00591 14.2341 4.99122 14.4466C4.94062 15.1788 4.66569 16.1788 4.16729 17.4833L4.04831 17.7897L4.33185 17.7437C5.44194 17.5442 6.26387 17.1577 6.8135 16.6028C7.10123 16.3123 7.53681 16.2262 7.9134 16.3854C8.86477 16.7876 9.91361 17 11.0001 17C14.8935 17 18.0001 14.2818 18.0001 11C18.0001 7.7182 14.8935 5 11.0001 5Z" fill="#023F80"/>
</svg>
