<svg width="28" height="28" viewBox="0 0 28 28" fill="none" xmlns="http://www.w3.org/2000/svg">
<path d="M9.44015 5.00039C9.46005 5.00013 9.47997 5 9.49992 5C11.985 5 13.9996 7.01444 13.9999 9.49949L14 9.73949C14.0003 10.2918 13.5528 10.7397 13.0006 10.74C12.4483 10.7403 12.0003 10.2928 12 9.74051L11.9999 9.50051C11.9999 8.1198 10.8806 7 9.49992 7L9.4663 7.00022C8.91406 7.00744 8.46053 6.56562 8.45331 6.01338C8.44609 5.46114 8.88791 5.00761 9.44015 5.00039Z" fill="#023F80"/>
<path fill-rule="evenodd" clipRule="evenodd" d="M5.08846 8.6083L3.29289 6.70711C2.90237 6.31658 2.90237 5.68342 3.29289 5.29289C3.68342 4.90237 4.31658 4.90237 4.70711 5.29289L21.7068 23.2926C22.0974 23.6832 22.0974 24.3163 21.7068 24.7068C21.3163 25.0974 20.6832 25.0974 20.2926 24.7068L18.5908 22.9049C18.1917 22.9631 17.6944 22.995 17.0331 22.9995L17.0175 22.9999L17 23C16.4477 23 16 22.5523 16 22C16 21.5131 16.348 21.1074 16.8089 21.0182L15.4454 19.5745C14.1374 20.8547 12.4161 21.717 10.4999 21.9417V23C10.4999 23.5523 10.0522 24 9.49992 24C8.94764 24 8.49992 23.5523 8.49992 23V21.9417C5.77411 21.6222 3.44353 20.0128 2.13387 17.7441C1.85775 17.2658 2.02167 16.6542 2.49997 16.3781C2.97828 16.102 3.58986 16.2659 3.86598 16.7442C4.99064 18.6924 7.09318 20 9.49992 20C11.2822 20 12.8967 19.2835 14.072 18.1202L12.6981 16.6655C11.8831 17.4888 10.7516 18 9.49992 18C7.01464 18 4.99992 15.9853 4.99992 13.5V9.5C4.99992 9.19542 5.03033 8.89713 5.08846 8.6083ZM11.3236 15.2102C10.8668 15.6972 10.2183 16 9.49992 16C8.11921 16 6.99992 14.8807 6.99992 13.5V10.6322L11.3236 15.2102Z" fill="#023F80"/>
<path fill-rule="evenodd" clipRule="evenodd" d="M17 12C16.4477 12 16 11.5523 16 11C16 10.4477 16.4477 10 17 10C18.6857 10.0089 19.3168 10.1943 19.9528 10.5343C20.6049 10.8829 21.1167 11.3945 21.4655 12.0463C21.6528 12.3964 21.7931 12.745 21.8829 13.269L22.94 12.6083C24.2721 11.7757 26 12.7334 26 14.3043V18.6958C26 20.2666 24.2721 21.2243 22.94 20.3918L20.4808 18.8549C20.4561 18.8398 20.4321 18.8237 20.4088 18.8066C20.3306 18.7493 20.262 18.6816 20.2045 18.606C20.1147 18.4883 20.0504 18.3501 20.0199 18.1995L19.9973 18.1992C19.9985 18.0968 19.9991 17.9881 19.9991 17.8722L19.9982 14.8901C19.9888 13.7536 19.9075 13.3752 19.7011 12.9895C19.5388 12.6862 19.3126 12.4601 19.0092 12.2979C18.6113 12.0852 18.2213 12.0051 17 12ZM22 17.4458L24 18.6958V14.3043L22 15.5543V17.4458Z" fill="#023F80"/>
</svg>
