<svg width="28" height="28" viewBox="0 0 28 28" fill="none" xmlns="http://www.w3.org/2000/svg">
<path fill-rule="evenodd" clipRule="evenodd" d="M4.99992 9.5C4.99992 7.01472 7.01464 5 9.49992 5C11.9852 5 13.9999 7.01472 13.9999 9.5V13.5C13.9999 15.9853 11.9852 18 9.49992 18C7.01464 18 4.99992 15.9853 4.99992 13.5V9.5ZM9.49992 7C8.11921 7 6.99992 8.11929 6.99992 9.5V13.5C6.99992 14.8807 8.11921 16 9.49992 16C10.8806 16 11.9999 14.8807 11.9999 13.5V9.5C11.9999 8.11929 10.8806 7 9.49992 7Z" fill="#023F80"/>
<path d="M10.4999 21.9417C13.2257 21.6222 15.5563 20.0128 16.866 17.7441C17.1421 17.2658 16.9782 16.6542 16.4999 16.3781C16.0216 16.102 15.41 16.2659 15.1339 16.7442C14.0092 18.6924 11.9067 20 9.49992 20C7.09318 20 4.99064 18.6924 3.86598 16.7442C3.58986 16.2659 2.97828 16.102 2.49997 16.3781C2.02167 16.6542 1.85775 17.2658 2.13387 17.7441C3.44353 20.0128 5.77411 21.6222 8.49992 21.9417V23C8.49992 23.5523 8.94764 24 9.49992 24C10.0522 24 10.4999 23.5523 10.4999 23V21.9417Z" fill="#023F80"/>
<path fill-rule="evenodd" clipRule="evenodd" d="M17 12C16.4477 12 16 11.5523 16 11C16 10.4477 16.4477 10 17 10C18.6857 10.0089 19.3168 10.1943 19.9528 10.5343C20.6049 10.8829 21.1167 11.3945 21.4655 12.0463C21.6528 12.3964 21.7931 12.745 21.8829 13.269L22.94 12.6083C24.2721 11.7757 26 12.7334 26 14.3043V18.6958C26 20.2666 24.2721 21.2243 22.94 20.3918L21.8829 19.7311C21.7931 20.255 21.6528 20.6036 21.4655 20.9537C21.1167 21.6055 20.6049 22.1171 19.9528 22.4657C19.3209 22.8035 18.694 22.9883 17.0331 22.9995C17.0221 22.9998 17.0111 23 17 23C16.4477 23 16 22.5523 16 22C16 21.4477 16.4477 21 17 21C18.2213 20.9949 18.6113 20.9148 19.0092 20.7021C19.3126 20.5399 19.5388 20.3138 19.7011 20.0105C19.9213 19.599 19.9991 19.1959 19.9991 17.8722L19.9982 14.8901C19.9888 13.7536 19.9075 13.3752 19.7011 12.9895C19.5388 12.6862 19.3126 12.4601 19.0092 12.2979C18.6113 12.0852 18.2213 12.0051 17 12ZM22 17.4458L24 18.6958V14.3043L22 15.5543V17.4458Z" fill="#023F80"/>
</svg>
