<svg width="24" height="24" viewBox="0 0 24 24" fill="none" xmlns="http://www.w3.org/2000/svg">
<path d="M17.7952 3.10001C18.9471 3.10001 19.5344 3.21341 20.1456 3.54029C20.7098 3.84205 21.1581 4.29026 21.4598 4.85451C21.7616 5.41871 21.8814 5.96249 21.898 6.9488L21.9001 7.20486V12C21.9001 12.4971 21.4972 12.9 21.0001 12.9C20.5413 12.9 20.1626 12.5567 20.1071 12.1129L20.1001 12L20.0991 8.90001H3.8991L3.9001 14.7951C3.9001 15.6753 3.95929 15.9818 4.12765 16.2966C4.26165 16.5472 4.45291 16.7385 4.70348 16.8725C4.99406 17.0279 5.27759 17.0903 6.01176 17.0989L6.20495 17.1H18.8271L17.3637 15.6364C17.0415 15.3142 17.0147 14.8085 17.2832 14.4558L17.3637 14.3636C17.6859 14.0414 18.1916 14.0146 18.5443 14.2831L18.6365 14.3636L21.6365 17.3636C21.9587 17.6858 21.9855 18.1915 21.717 18.5442L21.6365 18.6364L18.6365 21.6364C18.285 21.9879 17.7152 21.9879 17.3637 21.6364C17.0415 21.3142 17.0147 20.8085 17.2832 20.4558L17.3637 20.3636L18.8271 18.9H6.20495C5.14167 18.9 4.5595 18.8034 3.99549 18.5314L3.8546 18.4597C3.29035 18.158 2.84215 17.7098 2.54038 17.1455C2.23865 16.5813 2.11881 16.0375 2.10216 15.0512L2.1001 14.7951V7.20486C2.1001 6.05297 2.2135 5.46572 2.54038 4.85451C2.84215 4.29026 3.29035 3.84205 3.8546 3.54029C4.4188 3.23855 4.96258 3.11872 5.94889 3.10206L6.20495 3.10001H17.7952ZM17.7952 4.90001H6.20495C5.3248 4.90001 5.01828 4.9592 4.70348 5.12755C4.45291 5.26156 4.26165 5.45282 4.12765 5.70339C3.97224 5.99397 3.90985 6.2775 3.90117 7.01167L3.9001 7.10001H20.0981L20.099 7.01167C20.0903 6.2775 20.028 5.99397 19.8725 5.70339C19.7385 5.45282 19.5473 5.26156 19.2967 5.12755C19.0061 4.97215 18.7226 4.90976 17.9884 4.90108L17.7952 4.90001Z" fill="#023F80"/>
</svg>
