<svg width="24" height="24" viewBox="0 0 24 24" fill="none" xmlns="http://www.w3.org/2000/svg">
<path fill-rule="evenodd" clipRule="evenodd" d="M5.98556 5.51655C5.60677 4.10287 6.44571 2.64977 7.8594 2.27098C9.27308 1.89218 10.7262 2.73113 11.105 4.14481L11.8968 7.09998H18.4937L18.5298 7.09998C18.9745 7.09996 19.3642 7.09994 19.6837 7.12739C20.0206 7.15633 20.372 7.22131 20.7045 7.4085C21.1858 7.67934 21.5589 8.10784 21.7609 8.62174C21.9006 8.97691 21.9166 9.33383 21.8989 9.67158C21.8822 9.99181 21.8285 10.3777 21.7673 10.8182L21.7624 10.854L21.6582 11.6042L21.6532 11.6397C21.5216 12.5878 21.4157 13.3501 21.2817 13.9651C21.1436 14.5987 20.9629 15.142 20.6483 15.6353C20.1414 16.4299 19.416 17.0615 18.5592 17.4542C18.5065 17.4784 18.4535 17.5012 18.4001 17.5227V17.8V17.8354C18.4001 18.3652 18.4001 18.8164 18.3699 19.1869C18.3381 19.576 18.2684 19.9546 18.084 20.3166C17.806 20.8622 17.3624 21.3059 16.8167 21.5839C16.4548 21.7683 16.0762 21.8379 15.687 21.8697C15.3166 21.9 14.8654 21.9 14.3355 21.9H14.3001H9.70011H9.66471C9.13484 21.9 8.68366 21.9 8.31323 21.8697C7.92407 21.8379 7.54547 21.7683 7.18354 21.5839C6.63787 21.3059 6.19423 20.8622 5.91619 20.3166C5.73178 19.9546 5.66215 19.576 5.63035 19.1869C5.60009 18.8164 5.6001 18.3653 5.60011 17.8354L5.60011 17.8V17.5227C5.54674 17.5012 5.49373 17.4784 5.44102 17.4542C4.58421 17.0615 3.85887 16.4299 3.35195 15.6353C3.0373 15.142 2.85662 14.5987 2.71854 13.9651C2.58454 13.3501 2.47868 12.5879 2.347 11.6398L2.34207 11.6042L2.23786 10.854L2.2329 10.8182C2.1717 10.3777 2.11808 9.99182 2.10131 9.67158C2.08362 9.33383 2.09966 8.97691 2.23931 8.62174C2.44138 8.10784 2.81448 7.67934 3.2957 7.4085C3.62827 7.22131 3.9796 7.15633 4.31657 7.12739C4.63607 7.09994 5.02569 7.09996 5.47041 7.09998L5.50649 7.09998H6.40984L5.98556 5.51655ZM8.27334 7.09998H10.0333L9.3663 4.61069C9.2448 4.15724 8.77872 3.88814 8.32527 4.00964C7.87183 4.13114 7.60273 4.59723 7.72423 5.05068L8.27334 7.09998ZM9.51572 16.1C9.53459 16.1 9.55357 16.1 9.57266 16.1H14.4276C14.4467 16.1 14.4656 16.1 14.4845 16.1C15.4556 16.0999 16.1399 16.0986 16.6801 16.0571C17.2195 16.0158 17.5472 15.938 17.8091 15.818C18.3512 15.5695 18.8101 15.1699 19.1308 14.6672C19.2857 14.4243 19.4078 14.1105 19.523 13.5818C19.6405 13.0422 19.7375 12.3485 19.8753 11.3566L19.9795 10.6063C20.0471 10.1196 20.0891 9.81111 20.1014 9.57744C20.1132 9.35266 20.09 9.29112 20.0858 9.28042C20.0353 9.15195 19.942 9.04482 19.8217 8.97711C19.8117 8.97148 19.7539 8.94005 19.5296 8.92078C19.2965 8.90076 18.9852 8.89998 18.4937 8.89998H5.50649C5.01506 8.89998 4.70373 8.90076 4.47061 8.92078C4.24634 8.94005 4.18858 8.97148 4.17856 8.97711C4.05826 9.04482 3.96498 9.15195 3.91446 9.28042C3.91026 9.29112 3.88708 9.35266 3.89885 9.57744C3.91109 9.81111 3.95314 10.1196 4.02075 10.6063L4.12495 11.3566C4.26271 12.3485 4.35969 13.0422 4.47727 13.5818C4.59246 14.1105 4.71451 14.4243 4.86946 14.6672C5.19016 15.1699 5.64905 15.5695 6.19112 15.818C6.45302 15.938 6.78068 16.0158 7.32012 16.0571C7.86029 16.0986 8.54463 16.0999 9.51572 16.1ZM9.44317 17.9H7.40013C7.40028 18.4192 7.40221 18.769 7.42437 19.0403C7.44707 19.3181 7.48643 19.4335 7.52001 19.4994C7.62547 19.7064 7.79375 19.8746 8.00072 19.9801C8.06661 20.0137 8.18196 20.053 8.45981 20.0757C8.74816 20.0993 9.12521 20.1 9.70011 20.1H14.3001C14.875 20.1 15.2521 20.0993 15.5404 20.0757C15.8183 20.053 15.9336 20.0137 15.9995 19.9801C16.2065 19.8746 16.3748 19.7064 16.4802 19.4994C16.5138 19.4335 16.5532 19.3181 16.5759 19.0403C16.598 18.769 16.6 18.4192 16.6001 17.9H14.5571C14.5261 17.9 14.4949 17.9 14.4635 17.9H14.4276H9.57266H9.53675C9.50535 17.9 9.47416 17.9 9.44317 17.9Z" fill="#023F80"/>
</svg>
