<svg width="24" height="24" viewBox="0 0 24 24" fill="none" xmlns="http://www.w3.org/2000/svg">
<path fill-rule="evenodd" clipRule="evenodd" d="M10.1001 4.99998C10.1001 4.50292 10.503 4.09998 11.0001 4.09998H14.5001C14.8875 4.09998 15.2314 4.34786 15.3539 4.71537L15.8154 6.09998H17.2501C18.7137 6.09998 19.9001 7.28642 19.9001 8.74998C19.9001 10.1034 18.8856 11.2198 17.5755 11.3802L18.1497 13.1028C20.2343 13.1814 21.9001 14.8962 21.9001 17C21.9001 19.1539 20.154 20.9 18.0001 20.9C15.8462 20.9 14.1001 19.1539 14.1001 17C14.1001 16.9665 14.1005 16.9332 14.1014 16.9H12.5001H10.9001V17C10.9001 19.1539 9.15401 20.9 7.0001 20.9C4.84619 20.9 3.1001 19.1539 3.1001 17V16.9H2.5001C2.00304 16.9 1.6001 16.497 1.6001 16V15V14.9632V14.9632C1.60009 14.2944 1.60008 13.7384 1.63715 13.2847C1.67576 12.8122 1.75901 12.3718 1.97068 11.9564C2.29665 11.3167 2.81678 10.7965 3.45653 10.4706C3.87194 10.2589 4.31228 10.1756 4.78482 10.137C5.23855 10.1 5.79452 10.1 6.4633 10.1H6.46331H6.46332H6.46335L6.5001 10.1H7.5001L7.67703 10.0999C8.90157 10.0994 9.74492 10.099 10.4533 10.3469C11.7172 10.7891 12.7109 11.7829 13.1532 13.0467C13.349 13.6064 13.3899 14.2504 13.3982 15.1H14.5934C14.9953 14.381 15.6181 13.8023 16.3701 13.4559L13.8514 5.89998H11.0001C10.503 5.89998 10.1001 5.49703 10.1001 4.99998ZM16.9821 9.59998H17.2501C17.7195 9.59998 18.1001 9.21942 18.1001 8.74998C18.1001 8.28053 17.7195 7.89998 17.2501 7.89998H16.4154L16.9821 9.59998ZM7.5001 11.9C8.97187 11.9 9.47824 11.9127 9.85882 12.0459C10.6057 12.3072 11.1929 12.8944 11.4542 13.6413C11.5556 13.931 11.5872 14.2937 11.5965 15.1H3.4001V15C3.4001 14.2851 3.4008 13.803 3.43117 13.4313C3.46068 13.07 3.51367 12.893 3.57449 12.7736C3.72789 12.4725 3.97265 12.2278 4.27371 12.0744C4.39308 12.0135 4.57017 11.9606 4.93139 11.931C5.30312 11.9007 5.78518 11.9 6.5001 11.9H7.5001ZM4.9001 16.9V17C4.9001 18.1598 5.8403 19.1 7.0001 19.1C8.1599 19.1 9.1001 18.1598 9.1001 17V16.9H4.9001ZM18.0001 14.9C16.8403 14.9 15.9001 15.8402 15.9001 17C15.9001 18.1598 16.8403 19.1 18.0001 19.1C19.1599 19.1 20.1001 18.1598 20.1001 17C20.1001 15.8402 19.1599 14.9 18.0001 14.9Z" fill="#023F80"/>
</svg>
