<svg width="24" height="24" viewBox="0 0 24 24" fill="none" xmlns="http://www.w3.org/2000/svg">
<path d="M14.3009 1.1058C15.0333 1.27674 15.678 1.64898 16.1923 2.19775C16.7135 2.75405 17.0168 3.34346 17.3433 4.49563L18.1341 7.44002C18.277 7.97348 17.9605 8.52182 17.427 8.66476C16.8935 8.8077 16.3452 8.49112 16.2023 7.95765L15.4818 5.26897L15.3692 4.86667C15.1542 4.13809 14.9927 3.84255 14.7328 3.56527C14.4889 3.30492 14.1938 3.13455 13.8463 3.05345C13.4763 2.96708 13.1396 2.97494 12.4011 3.15306L11.9964 3.25666L6.86894 4.63056C6.01496 4.85939 5.6152 5.02518 5.36012 5.21376L5.29919 5.26142L5.16524 5.37955C4.90489 5.6235 4.73453 5.91859 4.65343 6.26604C4.55986 6.66692 4.57688 7.02869 4.80116 7.90449L7.52463 18.0731L7.63727 18.4754C7.85224 19.204 8.01379 19.4995 8.27362 19.7768C8.51757 20.0371 8.81266 20.2075 9.16011 20.2886C9.56132 20.3822 9.90542 20.3649 10.7675 20.1484C11.3031 20.0139 11.8464 20.3391 11.9809 20.8747C12.1155 21.4104 11.7903 21.9537 11.2546 22.0882C10.1058 22.3767 9.44888 22.4097 8.70551 22.2362C7.97316 22.0653 7.32842 21.6931 6.8142 21.1443C6.29293 20.588 5.98963 19.9986 5.66318 18.8464L2.92479 8.63362C2.57016 7.31011 2.52012 6.60688 2.70578 5.81144C2.85772 5.16046 3.16872 4.5787 3.63591 4.08307L3.81842 3.90128L3.99726 3.74354C4.49295 3.33191 5.0745 3.05919 6.08858 2.77113L6.3513 2.69871L11.4788 1.32481C12.8023 0.97018 13.5055 0.920139 14.3009 1.1058ZM18.3717 10.671C20.3719 10.671 22.0032 12.2625 22.0032 14.2383C22.0032 16.1473 21.2316 17.0893 18.2233 19.3719L16.8955 20.3794C16.368 20.7797 15.6385 20.7797 15.1109 20.3794L13.7831 19.3719C10.7749 17.0893 10.0032 16.1473 10.0032 14.2383C10.0032 12.2625 11.6346 10.671 13.6348 10.671C14.464 10.671 15.2307 10.8947 15.9172 11.3307L16.0032 11.388L16.0893 11.3307C16.7071 10.9383 17.3899 10.7179 18.1248 10.6777L18.3717 10.671ZM18.3717 12.671C17.7422 12.671 17.2016 12.8993 16.7013 13.387L16.3523 13.7273C16.1581 13.9167 15.8484 13.9167 15.6542 13.7273L15.3051 13.387C14.8049 12.8993 14.2643 12.671 13.6348 12.671C12.7282 12.671 12.0032 13.3783 12.0032 14.2383C12.0032 15.2307 12.4041 15.7842 14.5277 17.4235L16.0022 18.546L17.0144 17.7787C19.4635 15.9204 19.9715 15.3367 20.0017 14.3394L20.0032 14.2383C20.0032 13.3783 19.2782 12.671 18.3717 12.671Z" fill="#023F80"/>
</svg>
