<svg width="24" height="24" viewBox="0 0 24 24" fill="none" xmlns="http://www.w3.org/2000/svg">
<path d="M12.0041 2.09998C16.0194 2.09998 18.9 5.37829 18.9 9.63156V11.2312C18.9 11.4599 19.0932 11.763 19.6205 12.307C19.6881 12.3768 19.7518 12.4415 19.8909 12.5823C20.9721 13.6789 21.4 14.3107 21.4 15.3272C21.4 15.7717 21.3481 16.1182 21.1323 16.5334C20.6761 17.411 19.7089 17.9 18.2631 17.9L16.3514 17.901C15.7221 20.2335 14.2209 21.5002 12 21.5002C9.75537 21.5002 8.24589 20.2064 7.62878 17.8261L7.64798 17.9H5.73682C4.24886 17.9 3.27132 17.3977 2.83464 16.4894C2.64368 16.0922 2.59998 15.7698 2.59998 15.3272C2.59998 14.3107 3.02785 13.6789 4.1091 12.5823C4.24817 12.4415 4.31184 12.3768 4.37946 12.307C4.90673 11.763 5.09998 11.4599 5.09998 11.2312V9.63156C5.09998 5.37994 7.98769 2.09998 12.0041 2.09998ZM14.4659 17.9018H9.53401C9.98996 19.1485 10.7758 19.7002 12 19.7002C13.2242 19.7002 14.01 19.1485 14.4659 17.9018ZM12.0041 3.89998C9.03644 3.89998 6.89998 6.32665 6.89998 9.63156V11.2312C6.89998 12.0838 6.51053 12.6946 5.67198 13.5598C5.59872 13.6354 5.52956 13.7056 5.39086 13.8461C4.64397 14.6036 4.39998 14.9639 4.39998 15.3272C4.39998 15.5193 4.41352 15.6192 4.4569 15.7094C4.5642 15.9326 4.88988 16.1 5.73682 16.1H18.2631C19.0832 16.1 19.4165 15.9315 19.5352 15.7032C19.5846 15.6081 19.6 15.5055 19.6 15.3272C19.6 14.9639 19.356 14.6036 18.6091 13.8461C18.4704 13.7056 18.4012 13.6354 18.328 13.5598C17.4894 12.6946 17.1 12.0838 17.1 11.2312V9.63156C17.1 6.32433 14.9697 3.89998 12.0041 3.89998Z" fill="#023F80"/>
</svg>
