<svg width="24" height="24" viewBox="0 0 24 24" fill="none" xmlns="http://www.w3.org/2000/svg">
<path fill-rule="evenodd" clipRule="evenodd" d="M7.36677 2.1C7.37784 2.1 7.38895 2.1 7.4001 2.1L14.6334 2.1C15.0249 2.09998 15.3714 2.09996 15.6586 2.12343C15.9644 2.14841 16.2812 2.20442 16.5897 2.36158C17.0413 2.59168 17.4084 2.95883 17.6385 3.41042C17.7957 3.71888 17.8517 4.03573 17.8767 4.34151C17.8834 4.42404 17.8882 4.51146 17.8916 4.60344C18.2455 4.61178 18.5584 4.63885 18.8419 4.72487C19.7688 5.00603 20.4941 5.73133 20.7752 6.65817C20.9012 7.07357 20.9008 7.55188 20.9002 8.12983C20.9001 8.16941 20.9001 8.20947 20.9001 8.25C20.9001 8.29053 20.9001 8.33058 20.9002 8.37017C20.9008 8.94812 20.9012 9.42642 20.7752 9.84182C20.4941 10.7687 19.7688 11.494 18.8419 11.7751C18.4265 11.9011 17.9482 11.9007 17.3703 11.9001C17.3307 11.9 17.2906 11.9 17.2501 11.9H13.2144C12.4877 11.9 12.314 11.9089 12.1956 11.943C11.832 12.0477 11.5478 12.3319 11.4431 12.6955C11.4218 12.7692 11.4104 12.8644 11.4048 13.1011C11.4718 13.1022 11.5391 13.1047 11.6018 13.1098C11.7408 13.1212 11.9342 13.1499 12.1357 13.2526C12.3991 13.3868 12.6133 13.601 12.7475 13.8644C12.8502 14.0659 12.8789 14.2593 12.8903 14.3983C12.9002 14.5194 12.9001 14.6577 12.9001 14.7779C12.9001 14.7853 12.9001 14.7927 12.9001 14.8L12.9001 20.2221C12.9001 20.3423 12.9002 20.4806 12.8903 20.6017C12.8789 20.7407 12.8502 20.9341 12.7475 21.1356C12.6133 21.399 12.3991 21.6132 12.1357 21.7474C11.9342 21.8501 11.7408 21.8788 11.6018 21.8902C11.4807 21.9001 11.3424 21.9 11.2222 21.9H9.77799C9.65775 21.9 9.51945 21.9001 9.39841 21.8902C9.25938 21.8788 9.06601 21.8501 8.86451 21.7474C8.60109 21.6132 8.38691 21.399 8.25269 21.1356C8.15002 20.9341 8.12126 20.7407 8.1099 20.6017C8.10001 20.4806 8.10006 20.3423 8.10009 20.2221L8.1001 14.8C8.1001 14.7927 8.1001 14.7853 8.10009 14.7779C8.10006 14.6577 8.10001 14.5194 8.1099 14.3983C8.12126 14.2593 8.15002 14.0659 8.25269 13.8644C8.38691 13.601 8.60109 13.3868 8.86451 13.2526C9.06601 13.1499 9.25938 13.1212 9.39841 13.1098C9.46353 13.1045 9.53365 13.102 9.60327 13.1009C9.6109 12.7649 9.63555 12.4675 9.71343 12.1972C9.98955 11.2387 10.7388 10.4895 11.6973 10.2133C12.0943 10.099 12.5496 10.0994 13.0999 10.0999C13.1376 10.1 13.1758 10.1 13.2144 10.1H17.2501C18.0134 10.1 18.1955 10.0902 18.3194 10.0526C18.671 9.94599 18.9461 9.67087 19.0527 9.31931C19.0903 9.19537 19.1001 9.01326 19.1001 8.25C19.1001 7.48674 19.0903 7.30462 19.0527 7.18068C18.9461 6.82912 18.671 6.55401 18.3194 6.44736C18.242 6.42387 18.1418 6.41124 17.8913 6.40507C17.8879 6.49394 17.8832 6.57852 17.8767 6.65849C17.8517 6.96427 17.7957 7.28112 17.6385 7.58958C17.4084 8.04117 17.0413 8.40832 16.5897 8.63842C16.2812 8.79558 15.9644 8.85159 15.6586 8.87657C15.3714 8.90004 15.0249 8.90002 14.6334 8.9H7.36676C6.97526 8.90002 6.62877 8.90004 6.34161 8.87657C6.03583 8.85159 5.71898 8.79558 5.41052 8.63842C4.95893 8.40832 4.59178 8.04117 4.36168 7.58958C4.20452 7.28112 4.14851 6.96427 4.12353 6.65849C4.10006 6.37133 4.10008 6.02484 4.1001 5.63333C4.1001 5.62226 4.1001 5.61115 4.1001 5.6V5.4C4.1001 5.38885 4.1001 5.37774 4.1001 5.36667C4.10008 4.97516 4.10006 4.62867 4.12353 4.34151C4.14851 4.03573 4.20452 3.71888 4.36168 3.41042C4.59178 2.95883 4.95893 2.59168 5.41052 2.36158C5.71898 2.20442 6.03583 2.14841 6.34161 2.12343C6.62877 2.09996 6.97526 2.09998 7.36677 2.1ZM9.9001 14.9V20.1H11.1001V14.9H9.9001ZM6.48819 3.91745C6.29372 3.93334 6.24012 3.95907 6.22771 3.9654C6.11481 4.02292 6.02302 4.11471 5.9655 4.22761C5.95917 4.24002 5.93344 4.29362 5.91755 4.48809C5.9008 4.69307 5.9001 4.96511 5.9001 5.4V5.6C5.9001 6.03489 5.9008 6.30693 5.91755 6.51191C5.93344 6.70638 5.95917 6.75998 5.9655 6.7724C6.02302 6.88529 6.11481 6.97708 6.22771 7.0346C6.24012 7.04093 6.29372 7.06666 6.48819 7.08255C6.69317 7.0993 6.96521 7.1 7.4001 7.1H14.6001C15.035 7.1 15.307 7.0993 15.512 7.08255C15.7065 7.06666 15.7601 7.04093 15.7725 7.0346C15.8854 6.97708 15.9772 6.88529 16.0347 6.7724C16.041 6.75998 16.0668 6.70638 16.0827 6.51191C16.0994 6.30693 16.1001 6.03489 16.1001 5.6V5.4C16.1001 4.96511 16.0994 4.69307 16.0827 4.48809C16.0668 4.29362 16.041 4.24002 16.0347 4.22761C15.9772 4.11471 15.8854 4.02292 15.7725 3.9654C15.7601 3.95907 15.7065 3.93334 15.512 3.91745C15.307 3.9007 15.035 3.9 14.6001 3.9H7.4001C6.96521 3.9 6.69317 3.9007 6.48819 3.91745Z" fill="#023F80"/>
</svg>
