<svg width="28" height="28" viewBox="0 0 28 28" fill="none" xmlns="http://www.w3.org/2000/svg">
<path fill-rule="evenodd" clipRule="evenodd" d="M9.3052 8.41241C9.29699 8.56243 9.29283 8.71353 9.29283 8.86561C9.29283 9.23788 9.31776 9.60429 9.36603 9.96323L9.18548 9.96301C8.74965 9.96301 8.45719 10.2361 8.45719 10.6435C8.45719 11.0205 8.69408 11.3048 9.05918 11.3579L9.18548 11.3669L9.68346 11.3667C9.84493 11.8682 10.0536 12.3483 10.3043 12.8017L6.53497 12.8007C6.09629 12.8007 5.80526 13.0838 5.80526 13.4912C5.80526 13.8785 6.04099 14.1453 6.40794 14.1948L6.53497 14.2031L11.2848 14.2027C11.7672 14.7572 12.3235 15.2448 12.9383 15.65L5.23455 15.6499C4.7973 15.6499 4.49633 15.9429 4.49633 16.3618C4.49633 16.7285 4.73321 17.0025 5.10556 17.0537L5.23455 17.0623H13.9584C14.3729 17.0623 14.6867 17.3768 14.6867 17.7628C14.6867 18.1308 14.4326 18.4316 14.0795 18.4881L13.9584 18.4976H6.53497C6.09629 18.4976 5.80526 18.7907 5.80526 19.2095C5.80526 19.5762 6.04099 19.8503 6.40794 19.9014L6.53497 19.91H16.8077C17.3372 19.91 17.7006 20.2345 17.7006 20.6949C17.7006 21.0538 17.558 21.3618 17.1207 21.6095L16.9638 21.6898L13.7909 23.1466C13.3749 23.3339 13.1676 23.6798 13.3139 24.0558C13.4442 24.3955 13.7608 24.5406 14.1861 24.436L14.3318 24.3918L19.4894 22.5376C23.0144 21.271 24.3972 19.0523 24.3972 16.0044C24.3972 15.0658 24.2478 14.2184 23.9582 13.4753C24.3231 12.9445 24.6276 12.3664 24.8601 11.7526C25.6024 12.9385 26 14.3978 26 16.0573C26 19.7531 24.0924 22.3654 20.3458 23.8186L19.9891 23.9514L14.8216 25.8042C13.4814 26.2874 12.3471 25.8571 11.9311 24.7263C11.5891 23.7696 11.955 22.8231 12.9272 22.3146L13.1165 22.2245L14.5504 21.6269C14.6043 21.6069 14.6228 21.5741 14.6228 21.544C14.6228 21.4969 14.606 21.473 14.5713 21.464L14.5305 21.4597H6.3788C5.12098 21.4597 4.30893 20.6434 4.30893 19.3968C4.30893 18.9894 4.4438 18.612 4.6823 18.3189C3.63317 18.1402 3 17.4283 3 16.3618C3 15.3239 3.65447 14.5806 4.66385 14.3933C4.43386 14.1188 4.30893 13.7643 4.30893 13.3969C4.30893 12.31 5.013 11.5585 6.10779 11.4783L6.30498 11.4712H7.33424C7.07586 11.1982 6.93957 10.7907 6.93957 10.3719C6.93957 9.28365 7.69176 8.504 8.79907 8.42074L8.99809 8.41335L9.3052 8.41241ZM17.3393 2C21.1048 2 24.1573 5.07384 24.1573 8.86562C24.1573 12.6574 21.1048 15.7312 17.3393 15.7312C13.5739 15.7312 10.5213 12.6574 10.5213 8.86562C10.5213 5.07384 13.5739 2 17.3393 2ZM17.3393 3.42958C14.3579 3.42958 11.941 5.86337 11.941 8.86561C11.941 11.8679 14.3579 14.3017 17.3393 14.3017C20.3208 14.3017 22.7377 11.8679 22.7377 8.86561C22.7377 5.86337 20.3208 3.42958 17.3393 3.42958ZM17.3832 4.69401C17.5644 4.69401 17.712 4.74993 17.8259 4.86176C17.9171 4.95122 17.9718 5.06329 17.9901 5.19796L17.9969 5.3032V5.71815L18.2866 5.77713C18.6709 5.87318 19.0478 6.03893 19.4172 6.27436C19.5225 6.34499 19.597 6.42298 19.6408 6.50833C19.6847 6.59367 19.7066 6.69815 19.7066 6.82175C19.7066 6.99833 19.654 7.15136 19.5488 7.28085C19.4435 7.41034 19.3208 7.47508 19.1805 7.47508C19.1104 7.47508 19.0432 7.46331 18.9789 7.43977C18.9146 7.41622 18.8211 7.37208 18.6983 7.30733C18.6574 7.28379 18.5668 7.23523 18.4265 7.16166C18.2862 7.08808 18.1357 7.02923 17.975 6.98508C17.8142 6.94094 17.6433 6.91887 17.4621 6.91887C17.1991 6.91887 16.9857 6.97625 16.822 7.09103C16.6584 7.2058 16.5766 7.36031 16.5766 7.55454C16.5766 7.74289 16.6701 7.88415 16.8571 7.97832C17.0442 8.0725 17.3393 8.16667 17.7426 8.26084C18.1752 8.3609 18.5303 8.46685 18.8079 8.57868C19.0855 8.69051 19.3252 8.87003 19.5268 9.11724C19.7285 9.36444 19.8293 9.69699 19.8293 10.1149C19.8293 10.5916 19.6671 10.9978 19.3427 11.3333C19.0647 11.6208 18.7039 11.8241 18.2606 11.943L18.032 11.9954V12.428L18.0251 12.5333C18.0069 12.6679 17.9522 12.78 17.861 12.8695C17.747 12.9813 17.5994 13.0372 17.4182 13.0372C17.237 13.0372 17.0895 12.9813 16.9755 12.8695C16.8843 12.78 16.8296 12.6679 16.8113 12.5333L16.8045 12.428V12.0307L16.5322 11.9888C15.999 11.8915 15.5345 11.7142 15.1387 11.4569C15.0335 11.3921 14.9589 11.3185 14.9151 11.2361C14.8713 11.1537 14.8493 11.0449 14.8493 10.9095C14.8493 10.7329 14.9005 10.5799 15.0028 10.4504C15.1051 10.3209 15.2263 10.2561 15.3666 10.2561C15.4368 10.2561 15.5069 10.2679 15.577 10.2915C15.6472 10.315 15.7378 10.3592 15.8488 10.4239C16.106 10.5652 16.3457 10.6652 16.5678 10.7241C16.7899 10.7829 17.0266 10.8124 17.278 10.8124C17.5877 10.8124 17.823 10.7609 17.9837 10.6579C18.1445 10.5549 18.2249 10.4004 18.2249 10.1943C18.2249 10.0707 18.1766 9.96921 18.0802 9.88975C17.9837 9.8103 17.8639 9.74702 17.7207 9.69994C17.5775 9.65285 17.3686 9.59399 17.0938 9.52336C16.6555 9.41153 16.296 9.29823 16.0154 9.18345C15.7349 9.06868 15.4923 8.88916 15.2877 8.64489C15.0831 8.40063 14.9809 8.07249 14.9809 7.66048C14.9809 7.18962 15.1445 6.78055 15.4718 6.43328C15.7524 6.13563 16.1103 5.92446 16.5454 5.79977L16.7694 5.74464V5.3032L16.7804 5.17656C16.8023 5.05572 16.8571 4.95225 16.9448 4.86617C17.0617 4.7514 17.2078 4.69401 17.3832 4.69401Z" fill="#023F80"/>
</svg>
