<svg width="24" height="24" viewBox="0 0 24 24" fill="none" xmlns="http://www.w3.org/2000/svg">
<path fill-rule="evenodd" clipRule="evenodd" d="M17.7952 4.09998C18.9471 4.09998 19.5344 4.21338 20.1456 4.54026C20.7098 4.84202 21.1581 5.29023 21.4598 5.85448C21.7616 6.41868 21.8814 6.96246 21.898 7.94877L21.9001 8.20483V15.7951L21.898 16.0512C21.8814 17.0375 21.7616 17.5813 21.4598 18.1455C21.1581 18.7097 20.7098 19.1579 20.1456 19.4597L20.0047 19.5314C19.4407 19.8033 18.8585 19.9 17.7952 19.9H6.20495C5.14167 19.9 4.5595 19.8033 3.99549 19.5314L3.8546 19.4597C3.29035 19.1579 2.84215 18.7097 2.54038 18.1455C2.23865 17.5813 2.11881 17.0375 2.10216 16.0512L2.1001 15.7951V8.20483C2.1001 7.05294 2.2135 6.46569 2.54038 5.85448C2.84215 5.29023 3.29035 4.84202 3.8546 4.54026C4.4188 4.23852 4.96258 4.11869 5.94889 4.10203L6.20495 4.09998H17.7952ZM20.0991 9.89998L20.1001 15.7951C20.1001 16.6753 20.0409 16.9818 19.8725 17.2966C19.7385 17.5472 19.5473 17.7384 19.2967 17.8724C19.0061 18.0278 18.7226 18.0902 17.9884 18.0989L17.7952 18.1H6.20495L6.01176 18.0989C5.27759 18.0902 4.99406 18.0278 4.70348 17.8724C4.45291 17.7384 4.26165 17.5472 4.12765 17.2966C3.95929 16.9818 3.9001 16.6753 3.9001 15.7951L3.8991 9.89998H20.0991ZM6.20495 5.89998H17.7952L17.9884 5.90105C18.7226 5.90973 19.0061 5.97212 19.2967 6.12752C19.5473 6.26153 19.7385 6.45279 19.8725 6.70336C20.028 6.99394 20.0903 7.27747 20.099 8.01164L20.0981 8.09998H3.9001L3.90117 8.01164C3.90985 7.27747 3.97224 6.99394 4.12765 6.70336C4.26165 6.45279 4.45291 6.26153 4.70348 6.12752C5.01828 5.95917 5.3248 5.89998 6.20495 5.89998Z" fill="#023F80"/>
<path d="M6.00009 14.8C6.00009 14.52 6.00009 14.38 6.05459 14.273C6.10253 14.1789 6.17902 14.1024 6.2731 14.0545C6.38005 14 6.52007 14 6.80009 14H7.20009C7.48012 14 7.62013 14 7.72709 14.0545C7.82117 14.1024 7.89766 14.1789 7.94559 14.273C8.00009 14.38 8.00009 14.52 8.00009 14.8V15.2C8.00009 15.48 8.00009 15.62 7.94559 15.727C7.89766 15.8211 7.82117 15.8976 7.72709 15.9455C7.62013 16 7.48012 16 7.20009 16H6.80009C6.52007 16 6.38005 16 6.2731 15.9455C6.17902 15.8976 6.10253 15.8211 6.05459 15.727C6.00009 15.62 6.00009 15.48 6.00009 15.2V14.8Z" fill="#023F80"/>
</svg>
