<svg width="28" height="28" viewBox="0 0 28 28" fill="none" xmlns="http://www.w3.org/2000/svg">
<path fill-rule="evenodd" clipRule="evenodd" d="M20.4227 3.42108C20.1687 2.93068 19.5652 2.73906 19.0748 2.99309C18.5844 3.24711 18.3928 3.85058 18.6468 4.34098C20.1931 7.32615 21.0002 10.6389 21 14.0008C20.9999 17.3627 20.1926 20.6754 18.6461 23.6605C18.392 24.1509 18.5836 24.7543 19.074 25.0084C19.5643 25.2625 20.1678 25.0709 20.4219 24.5805C22.1157 21.3112 22.9999 17.683 23 14.0009C23.0002 10.3188 22.1163 6.69054 20.4227 3.42108ZM14.7626 5.51075C15.2567 5.26402 15.8572 5.46456 16.104 5.95867C17.351 8.45612 18.0002 11.2094 18 14.0009C17.9999 16.7924 17.3505 19.5456 16.1032 22.0429C15.8564 22.537 15.2558 22.7375 14.7617 22.4907C14.2676 22.2439 14.0672 21.6434 14.3139 21.1493C15.4227 18.9294 15.9999 16.4821 16 14.0008C16.0001 11.5195 15.4232 9.07211 14.3146 6.85215C14.0679 6.35804 14.2685 5.75747 14.7626 5.51075ZM11.7822 8.5064C11.5488 8.00585 10.9539 7.78927 10.4533 8.02266C9.95277 8.25605 9.73619 8.85102 9.96958 9.35157C10.6481 10.8069 10.9999 12.3931 11 13.9989C11.0002 15.6046 10.6488 17.191 9.97052 18.6464C9.73723 19.147 9.95393 19.742 10.4545 19.9752C10.9551 20.2085 11.55 19.9918 11.7833 19.4912C12.5849 17.7711 13.0002 15.8964 13 13.9987C12.9998 12.101 12.5842 10.2263 11.7822 8.5064ZM7.45966 11.1097C7.26012 10.5947 6.6809 10.339 6.16592 10.5385C5.65094 10.7381 5.39522 11.3173 5.59475 11.8323C6.13644 13.2303 6.13507 14.7805 5.59091 16.1776C5.39047 16.6922 5.64517 17.2719 6.1598 17.4724C6.67442 17.6728 7.2541 17.4181 7.45454 16.9035C8.18008 15.0407 8.18191 12.9738 7.45966 11.1097Z" fill="#023F80"/>
</svg>
