<svg width="28" height="28" viewBox="0 0 28 28" fill="none" xmlns="http://www.w3.org/2000/svg">
<path d="M18 3C19.0544 3 19.9182 3.81588 19.9945 4.85074L20 5H8C8 3.89543 8.89543 3 10 3H18Z" fill="#023F80"/>
<path d="M15.6873 13.8126C16.1155 14.2407 16.1155 14.9349 15.6873 15.3631L12.8063 18.2441C12.1419 18.9086 11.3523 19.4346 10.4832 19.792L10.0503 19.9699C9.84664 20.0537 9.61368 19.9565 9.52995 19.7528C9.49002 19.6557 9.49002 19.5467 9.52995 19.4496L9.70794 19.0167C10.0652 18.1476 10.5913 17.358 11.2558 16.6936L14.1368 13.8126C14.565 13.3844 15.2592 13.3844 15.6873 13.8126Z" fill="#023F80"/>
<path d="M17.3038 11C17.9644 11 18.4999 11.5355 18.4999 12.1961C18.4999 12.8566 17.9644 13.3921 17.3038 13.3921C16.6433 13.3921 16.1078 12.8566 16.1078 12.1961C16.1078 11.5355 16.6433 11 17.3038 11Z" fill="#023F80"/>
<path fill-rule="evenodd" clipRule="evenodd" d="M3 13.4C3 11.1598 3 10.0397 3.43597 9.18404C3.81947 8.43139 4.43139 7.81947 5.18404 7.43597C6.03969 7 7.15979 7 9.4 7H18.6C20.8402 7 21.9603 7 22.816 7.43597C23.5686 7.81947 24.1805 8.43139 24.564 9.18404C25 10.0397 25 11.1598 25 13.4V17.6C25 19.8402 25 20.9603 24.564 21.816C24.1805 22.5686 23.5686 23.1805 22.816 23.564C21.9603 24 20.8402 24 18.6 24H9.4C7.15979 24 6.03969 24 5.18404 23.564C4.43139 23.1805 3.81947 22.5686 3.43597 21.816C3 20.9603 3 19.8402 3 17.6V13.4ZM9.4 9H18.6C19.7531 9 20.4977 9.00156 21.0643 9.04785C21.6077 9.09225 21.8091 9.1676 21.908 9.21799C22.2843 9.40973 22.5903 9.71569 22.782 10.092C22.8324 10.1909 22.9078 10.3923 22.9521 10.9357C22.9984 11.5023 23 12.2469 23 13.4V17.6C23 18.7531 22.9984 19.4977 22.9521 20.0643C22.9078 20.6077 22.8324 20.8091 22.782 20.908C22.5903 21.2843 22.2843 21.5903 21.908 21.782C21.8091 21.8324 21.6077 21.9078 21.0643 21.9521C20.4977 21.9984 19.7531 22 18.6 22H9.4C8.24689 22 7.50235 21.9984 6.93567 21.9521C6.39235 21.9078 6.19091 21.8324 6.09202 21.782C5.71569 21.5903 5.40973 21.2843 5.21799 20.908C5.1676 20.8091 5.09225 20.6077 5.04785 20.0643C5.00156 19.4977 5 18.7531 5 17.6V13.4C5 12.2469 5.00156 11.5023 5.04785 10.9357C5.09225 10.3923 5.1676 10.1909 5.21799 10.092C5.40973 9.71569 5.71569 9.40973 6.09202 9.21799C6.19091 9.1676 6.39235 9.09225 6.93567 9.04785C7.50235 9.00156 8.24689 9 9.4 9Z" fill="#023F80"/>
</svg>
