<svg width="24" height="24" viewBox="0 0 24 24" fill="none" xmlns="http://www.w3.org/2000/svg">
<path fill-rule="evenodd" clipRule="evenodd" d="M6.10004 11.5C6.10004 10.7268 6.72684 10.1 7.50004 10.1C8.27324 10.1 8.90004 10.7268 8.90004 11.5C8.90004 12.2732 8.27324 12.9 7.50004 12.9C6.72684 12.9 6.10004 12.2732 6.10004 11.5Z" fill="#023F80"/>
<path d="M7.00004 3.89998C7.00004 2.90586 7.80593 2.09998 8.80004 2.09998H15.2C16.1941 2.09998 17 2.90586 17 3.89998H7.00004Z" fill="#023F80"/>
<path fill-rule="evenodd" clipRule="evenodd" d="M7.76234 6.1H16.2377C17.0458 6.09999 17.7066 6.09998 18.2437 6.14386C18.7996 6.18928 19.3017 6.28616 19.7706 6.52507C20.5044 6.89898 21.1011 7.4956 21.475 8.22944C21.7139 8.69833 21.8108 9.2004 21.8562 9.75632C21.9001 10.2934 21.9 10.9542 21.9 11.7623V15.2377C21.9 16.0458 21.9001 16.7066 21.8562 17.2437C21.8108 17.7996 21.7139 18.3017 21.475 18.7706C21.1011 19.5044 20.5044 20.101 19.7706 20.4749C19.3017 20.7138 18.7996 20.8107 18.2437 20.8561C17.7066 20.9 17.0458 20.9 16.2377 20.9H7.76233C6.95428 20.9 6.29343 20.9 5.75636 20.8561C5.20044 20.8107 4.69836 20.7138 4.22948 20.4749C3.49564 20.101 2.89902 19.5044 2.52511 18.7706C2.2862 18.3017 2.18932 17.7996 2.1439 17.2437C2.10002 16.7066 2.10003 16.0458 2.10004 15.2377V11.7623C2.10003 10.9542 2.10002 10.2934 2.1439 9.75632C2.18932 9.2004 2.2862 8.69833 2.52511 8.22944C2.89902 7.4956 3.49564 6.89898 4.22948 6.52507C4.69836 6.28616 5.20044 6.18928 5.75636 6.14386C6.29343 6.09998 6.95428 6.09999 7.76234 6.1ZM11.6351 17.4926C11.7274 17.5701 11.8336 17.6591 11.9329 17.7293C12.0469 17.81 12.2139 17.9123 12.4347 17.963C12.7233 18.0292 13.0255 18.0022 13.2978 17.8858C13.5061 17.7968 13.6523 17.6665 13.7503 17.5669C13.8355 17.4801 13.9242 17.3737 14.0014 17.2811L17.5335 13.0452L20.1 15.046C20.1 15.179 20.1007 15.3121 20.1014 15.4453C20.1042 15.9961 20.107 16.5486 20.0622 17.0971C20.0258 17.5417 19.9592 17.7805 19.8712 17.9534C19.6698 18.3485 19.3486 18.6698 18.9534 18.8711C18.7806 18.9592 18.5417 19.0258 18.0971 19.0621C17.642 19.0993 17.055 19.1 16.2 19.1H7.80004C7.33674 19.1 6.95211 19.0998 6.62451 19.0937L9.77996 15.9382L11.6351 17.4926ZM18.2495 11.333C18.3487 11.3982 18.455 11.4812 18.5469 11.5529L20.1 12.7637V11.8C20.1 10.9451 20.0993 10.358 20.0622 9.90289C20.0258 9.45829 19.9592 9.21947 19.8712 9.04662C19.6698 8.65148 19.3486 8.33022 18.9534 8.12889C18.7806 8.04082 18.5417 7.97421 18.0971 7.93788C17.642 7.9007 17.055 7.9 16.2 7.9H7.80004C6.94511 7.9 6.35804 7.9007 5.90293 7.93788C5.45833 7.97421 5.2195 8.04082 5.04666 8.12889C4.65152 8.33022 4.33026 8.65148 4.12892 9.04662C4.04085 9.21947 3.97425 9.4583 3.93792 9.90289C3.90074 10.358 3.90004 10.9451 3.90004 11.8V15.2C3.90004 16.0549 3.90074 16.642 3.93792 17.0971C3.97425 17.5417 4.04085 17.7805 4.12892 17.9534C4.24829 18.1877 4.40982 18.396 4.60391 18.5687L8.58654 14.5861C8.66481 14.5077 8.75603 14.4165 8.84272 14.3424C9.3331 13.9235 10.042 13.8877 10.5734 14.2662C10.6662 14.3324 10.7651 14.4153 10.85 14.4865L12.6973 16.0343L16.2269 11.8016C16.3015 11.712 16.3878 11.6084 16.4709 11.5237C16.5666 11.426 16.7087 11.2991 16.9105 11.2103C17.1754 11.0938 17.4699 11.0622 17.7534 11.1199C17.9695 11.1639 18.1352 11.2579 18.2495 11.333ZM7.50004 10.1C6.72684 10.1 6.10004 10.7268 6.10004 11.5C6.10004 12.2732 6.72684 12.9 7.50004 12.9C8.27324 12.9 8.90004 12.2732 8.90004 11.5C8.90004 10.7268 8.27324 10.1 7.50004 10.1Z" fill="#023F80"/>
</svg>
