<svg width="24" height="24" viewBox="0 0 24 24" fill="none" xmlns="http://www.w3.org/2000/svg">
<path d="M7.76228 4.09998H14.2377C15.0457 4.09997 15.7066 4.09996 16.2437 4.14384C16.7996 4.18926 17.3017 4.28614 17.7705 4.52505C18.5044 4.89896 19.101 5.49558 19.4749 6.22941C19.7138 6.6983 19.8107 7.20038 19.8561 7.75629C19.9 8.29337 19.9 8.95422 19.9 9.76227V11.3C19.9 11.797 19.497 12.2 19 12.2C18.5029 12.2 18.1 11.797 18.1 11.3V9.79998C18.1 8.94505 18.0993 8.35798 18.0621 7.90287C18.0258 7.45827 17.9592 7.21944 17.8711 7.0466C17.6698 6.65146 17.3485 6.3302 16.9534 6.12886C16.7805 6.04079 16.5417 5.97419 16.0971 5.93786C15.642 5.90068 15.0549 5.89998 14.2 5.89998H7.79998C6.94505 5.89998 6.35798 5.90068 5.90287 5.93786C5.45827 5.97419 5.21944 6.04079 5.0466 6.12886C4.65146 6.3302 4.3302 6.65146 4.12886 7.0466C4.04079 7.21944 3.97419 7.45827 3.93786 7.90287C3.90068 8.35798 3.89998 8.94505 3.89998 9.79998V12.2C3.89998 13.0549 3.90068 13.642 3.93786 14.0971C3.97419 14.5417 4.04079 14.7805 4.12886 14.9534C4.3302 15.3485 4.65146 15.6698 5.0466 15.8711C5.21944 15.9592 5.45827 16.0258 5.90287 16.0621C6.35798 16.0993 6.94505 16.1 7.79998 16.1H10.3C10.797 16.1 11.2 16.5029 11.2 17C11.2 17.497 10.797 17.9 10.3 17.9H7.76227C6.95422 17.9 6.29337 17.9 5.75629 17.8561C5.20038 17.8107 4.6983 17.7138 4.22941 17.4749C3.49558 17.101 2.89896 16.5044 2.52505 15.7705C2.28614 15.3017 2.18926 14.7996 2.14384 14.2437C2.09996 13.7066 2.09997 13.0458 2.09998 12.2377V9.76228C2.09997 8.95424 2.09996 8.29336 2.14384 7.75629C2.18926 7.20038 2.28614 6.6983 2.52505 6.22941C2.89896 5.49558 3.49558 4.89896 4.22941 4.52505C4.6983 4.28614 5.20038 4.18926 5.75629 4.14384C6.29336 4.09996 6.95424 4.09997 7.76228 4.09998Z" fill="#023F80"/>
<path d="M13 16.8C13 15.8199 13 15.3299 13.1907 14.9555C13.3585 14.6262 13.6262 14.3585 13.9555 14.1907C14.3299 14 14.8199 14 15.8 14H19.2C20.1801 14 20.6701 14 21.0445 14.1907C21.3738 14.3585 21.6415 14.6262 21.8093 14.9555C22 15.3299 22 15.8199 22 16.8V17.2C22 18.1801 22 18.6701 21.8093 19.0445C21.6415 19.3738 21.3738 19.6415 21.0445 19.8093C20.6701 20 20.1801 20 19.2 20H15.8C14.8199 20 14.3299 20 13.9555 19.8093C13.6262 19.6415 13.3585 19.3738 13.1907 19.0445C13 18.6701 13 18.1801 13 17.2V16.8Z" fill="#023F80"/>
<path d="M7.63637 8.36358C7.2849 8.01211 6.71505 8.01211 6.36358 8.36358C6.01211 8.71505 6.01211 9.2849 6.36358 9.63637L8.82718 12.1H7.89998C7.40292 12.1 6.99998 12.5029 6.99998 13C6.99998 13.497 7.40292 13.9 7.89998 13.9H11C11.497 13.9 11.9 13.497 11.9 13V9.89998C11.9 9.40292 11.497 8.99998 11 8.99998C10.5029 8.99998 10.1 9.40292 10.1 9.89998V10.8272L7.63637 8.36358Z" fill="#023F80"/>
</svg>
