<svg width="28" height="28" viewBox="0 0 28 28" fill="none" xmlns="http://www.w3.org/2000/svg">
<path fill-rule="evenodd" clipRule="evenodd" d="M20.5 7C18.8431 7 17.5 8.34315 17.5 10V11.0647C17.208 11.1077 16.9189 11.1839 16.638 11.327C16.0735 11.6146 15.6146 12.0735 15.327 12.638C15.1342 13.0164 15.0629 13.4096 15.0306 13.805C15 14.1795 15 14.6343 15 15.1615L15 15.2V17.8L15 17.8385C15 18.3657 15 18.8205 15.0306 19.195C15.0629 19.5904 15.1342 19.9836 15.327 20.362C15.6146 20.9265 16.0735 21.3854 16.638 21.673C17.0164 21.8658 17.4096 21.9371 17.805 21.9694C18.1795 22 18.6343 22 19.1614 22H19.1615H19.2H21.8H21.8385H21.8386C22.3657 22 22.8205 22 23.195 21.9694C23.5904 21.9371 23.9836 21.8658 24.362 21.673C24.9265 21.3854 25.3854 20.9265 25.673 20.362C25.8658 19.9836 25.9371 19.5904 25.9694 19.195C26 18.8205 26 18.3657 26 17.8385V17.8V15.2V15.1615C26 14.6343 26 14.1795 25.9694 13.805C25.9371 13.4096 25.8658 13.0164 25.673 12.638C25.3854 12.0735 24.9265 11.6146 24.362 11.327C24.0811 11.1839 23.792 11.1077 23.5 11.0647V10C23.5 8.34315 22.1569 7 20.5 7ZM19.2 13C18.6234 13 18.2512 13.0008 17.9678 13.0239C17.6962 13.0461 17.5955 13.0838 17.546 13.109C17.3578 13.2049 17.2049 13.3578 17.109 13.546C17.0838 13.5955 17.0461 13.6962 17.0239 13.9678C17.0008 14.2512 17 14.6234 17 15.2V17.8C17 18.3766 17.0008 18.7488 17.0239 19.0322C17.0461 19.3038 17.0838 19.4045 17.109 19.454C17.2049 19.6422 17.3578 19.7951 17.546 19.891C17.5955 19.9162 17.6962 19.9539 17.9678 19.9761C18.2512 19.9992 18.6234 20 19.2 20H21.8C22.3766 20 22.7488 19.9992 23.0322 19.9761C23.3038 19.9539 23.4045 19.9162 23.454 19.891C23.6422 19.7951 23.7951 19.6422 23.891 19.454C23.9162 19.4045 23.9539 19.3038 23.9761 19.0322C23.9992 18.7488 24 18.3766 24 17.8V15.2C24 14.6234 23.9992 14.2512 23.9761 13.9678C23.9539 13.6962 23.9162 13.5955 23.891 13.546C23.7951 13.3578 23.6422 13.2049 23.454 13.109C23.4045 13.0838 23.3038 13.0461 23.0322 13.0239C22.7488 13.0008 22.3766 13 21.8 13H19.2ZM21.5 11V10C21.5 9.44772 21.0523 9 20.5 9C19.9477 9 19.5 9.44772 19.5 10V11H21.5ZM7.7587 8L7.8 8H14.5C15.0523 8 15.5 8.44772 15.5 9C15.5 9.55228 15.0523 10 14.5 10H7.8C6.94342 10 6.36113 10.0008 5.91104 10.0376C5.47262 10.0734 5.24842 10.1383 5.09202 10.218C4.7157 10.4097 4.40974 10.7157 4.21799 11.092C4.1383 11.2484 4.07337 11.4726 4.03755 11.911C4.00078 12.3611 4 12.9434 4 13.8V14.2C4 15.0566 4.00078 15.6389 4.03755 16.089C4.07337 16.5274 4.1383 16.7516 4.21799 16.908C4.40974 17.2843 4.7157 17.5903 5.09202 17.782C5.24842 17.8617 5.47262 17.9266 5.91104 17.9624C6.36113 17.9992 6.94342 18 7.8 18H12C12.5523 18 13 18.4477 13 19C13 19.5523 12.5523 20 12 20H7.8H7.75873C6.95374 20 6.28938 20 5.74818 19.9558C5.18608 19.9099 4.66937 19.8113 4.18404 19.564C3.43139 19.1805 2.81947 18.5686 2.43598 17.816C2.18868 17.3306 2.09012 16.8139 2.04419 16.2518C1.99998 15.7106 1.99999 15.0463 2 14.2413V14.2413V14.2V13.8V13.7587V13.7587C1.99999 12.9537 1.99998 12.2894 2.04419 11.7482C2.09012 11.1861 2.18868 10.6694 2.43598 10.184C2.81947 9.43139 3.43139 8.81947 4.18404 8.43597C4.66937 8.18868 5.18608 8.09012 5.74818 8.04419C6.28937 7.99998 6.95373 7.99999 7.7587 8ZM12 14C12 14.5523 11.5523 15 11 15C10.4477 15 10 14.5523 10 14C10 13.4477 10.4477 13 11 13C11.5523 13 12 13.4477 12 14ZM7 15C7.55229 15 8 14.5523 8 14C8 13.4477 7.55229 13 7 13C6.44772 13 6 13.4477 6 14C6 14.5523 6.44772 15 7 15ZM21 16.8662V17.5C21 17.7761 20.7761 18 20.5 18C20.2239 18 20 17.7761 20 17.5V16.8662C19.7011 16.6933 19.5 16.3701 19.5 16C19.5 15.4477 19.9477 15 20.5 15C21.0523 15 21.5 15.4477 21.5 16C21.5 16.3701 21.2989 16.6933 21 16.8662Z" fill="#023F80"/>
</svg>
