<svg width="24" height="24" viewBox="0 0 24 24" fill="none" xmlns="http://www.w3.org/2000/svg">
<path fill-rule="evenodd" clipRule="evenodd" d="M11.2001 3.1H11.1647H11.1647C10.6348 3.09998 10.1836 3.09997 9.81321 3.13024C9.42405 3.16203 9.04546 3.23167 8.68353 3.41608C8.13786 3.69411 7.69421 4.13776 7.41618 4.68343C7.23177 5.04536 7.16213 5.42395 7.13034 5.81312C7.10131 6.1684 7.10013 6.59797 7.1001 7.1C6.59807 7.10003 6.1685 7.10121 5.81321 7.13024C5.42405 7.16203 5.04546 7.23167 4.68353 7.41608C4.13786 7.69411 3.69421 8.13776 3.41618 8.68343C3.23177 9.04536 3.16213 9.42395 3.13034 9.81312C3.10007 10.1835 3.10008 10.6347 3.1001 11.1646V11.1646V11.2V12.8V12.8354V12.8354C3.10008 13.3653 3.10007 13.8165 3.13034 14.1869C3.16213 14.576 3.23177 14.9546 3.41618 15.3166C3.69421 15.8622 4.13786 16.3059 4.68353 16.5839C5.04546 16.7683 5.42405 16.838 5.81321 16.8698C6.1685 16.8988 6.59807 16.9 7.1001 16.9C7.10013 17.402 7.10131 17.8316 7.13034 18.1869C7.16213 18.576 7.23177 18.9546 7.41618 19.3166C7.69421 19.8622 8.13786 20.3059 8.68353 20.5839C9.04546 20.7683 9.42405 20.838 9.81321 20.8698C10.1836 20.9 10.6348 20.9 11.1647 20.9L11.2001 20.9H12.8001L12.8355 20.9C13.3654 20.9 13.8166 20.9 14.187 20.8698C14.5761 20.838 14.9547 20.7683 15.3167 20.5839C15.8623 20.3059 16.306 19.8622 16.584 19.3166C16.7684 18.9546 16.8381 18.576 16.8699 18.1869C16.8989 17.8316 16.9001 17.402 16.9001 16.9C17.4021 16.9 17.8317 16.8988 18.187 16.8698C18.5761 16.838 18.9547 16.7683 19.3167 16.5839C19.8623 16.3059 20.306 15.8622 20.584 15.3166C20.7684 14.9546 20.8381 14.576 20.8699 14.1869C20.9001 13.8165 20.9001 13.3653 20.9001 12.8355V12.8354V12.8354V12.8354V12.8V11.2V11.1646V11.1646V11.1646V11.1645C20.9001 10.6347 20.9001 10.1835 20.8699 9.81312C20.8381 9.42395 20.7684 9.04536 20.584 8.68343C20.306 8.13776 19.8623 7.69411 19.3167 7.41608C18.9547 7.23167 18.5761 7.16203 18.187 7.13024C17.8317 7.10121 17.4021 7.10003 16.9001 7.1C16.9001 6.59797 16.8989 6.1684 16.8699 5.81312C16.8381 5.42395 16.7684 5.04536 16.584 4.68343C16.306 4.13776 15.8623 3.69411 15.3167 3.41608C14.9547 3.23167 14.5761 3.16203 14.187 3.13024C13.8166 3.09997 13.3654 3.09998 12.8355 3.1H12.8355H12.8001H11.2001ZM7.1001 14V15.1C6.58088 15.0998 6.23108 15.0979 5.95979 15.0757C5.68194 15.053 5.5666 15.0137 5.50071 14.9801C5.29373 14.8746 5.12545 14.7064 5.01999 14.4994C4.98642 14.4335 4.94706 14.3182 4.92436 14.0403C4.9008 13.752 4.9001 13.3749 4.9001 12.8V11.2C4.9001 10.6251 4.9008 10.248 4.92436 9.95969C4.94706 9.68185 4.98642 9.5665 5.01999 9.50061C5.12545 9.29363 5.29373 9.12535 5.50071 9.01989C5.5666 8.98632 5.68194 8.94696 5.95979 8.92426C6.24815 8.9007 6.6252 8.9 7.2001 8.9H8.0001H16.0001H16.8001C17.375 8.9 17.7521 8.9007 18.0404 8.92426C18.3183 8.94696 18.4336 8.98632 18.4995 9.01989C18.7065 9.12535 18.8747 9.29363 18.9802 9.50061C19.0138 9.5665 19.0531 9.68185 19.0758 9.95969C19.0994 10.248 19.1001 10.6251 19.1001 11.2V12.8C19.1001 13.3749 19.0994 13.752 19.0758 14.0403C19.0531 14.3182 19.0138 14.4335 18.9802 14.4994C18.8747 14.7064 18.7065 14.8746 18.4995 14.9801C18.4336 15.0137 18.3183 15.053 18.0404 15.0757C17.7691 15.0979 17.4193 15.0998 16.9001 15.1V14C16.9001 13.5029 16.4972 13.1 16.0001 13.1H8.0001C7.50304 13.1 7.1001 13.5029 7.1001 14ZM15.1001 7.1C15.0999 6.58079 15.098 6.23098 15.0758 5.95969C15.0531 5.68185 15.0138 5.5665 14.9802 5.50061C14.8747 5.29363 14.7065 5.12535 14.4995 5.01989C14.4336 4.98632 14.3183 4.94696 14.0404 4.92426C13.7521 4.9007 13.375 4.9 12.8001 4.9H11.2001C10.6252 4.9 10.2481 4.9007 9.95979 4.92426C9.68194 4.94696 9.5666 4.98632 9.50071 5.01989C9.29373 5.12535 9.12545 5.29363 9.01999 5.50061C8.98642 5.5665 8.94706 5.68185 8.92436 5.95969C8.90219 6.23098 8.90026 6.58079 8.90011 7.1H15.1001ZM8.9001 14.9V16.8C8.9001 17.3749 8.9008 17.752 8.92436 18.0403C8.94706 18.3182 8.98642 18.4335 9.01999 18.4994C9.12545 18.7064 9.29373 18.8746 9.50071 18.9801C9.5666 19.0137 9.68194 19.053 9.95979 19.0757C10.2481 19.0993 10.6252 19.1 11.2001 19.1H12.8001C13.375 19.1 13.7521 19.0993 14.0404 19.0757C14.3183 19.053 14.4336 19.0137 14.4995 18.9801C14.7065 18.8746 14.8747 18.7064 14.9802 18.4994C15.0138 18.4335 15.0531 18.3182 15.0758 18.0403C15.0994 17.752 15.1001 17.3749 15.1001 16.8V14.9H8.9001ZM17.0001 10.1C16.503 10.1 16.1001 10.5029 16.1001 11C16.1001 11.4971 16.503 11.9 17.0001 11.9C17.4972 11.9 17.9001 11.4971 17.9001 11C17.9001 10.5029 17.4972 10.1 17.0001 10.1Z" fill="#023F80"/>
</svg>
