<svg width="24" height="24" viewBox="0 0 24 24" fill="none" xmlns="http://www.w3.org/2000/svg">
<path d="M8.5 13C9.88071 13 11 14.1193 11 15.5V19.5C11 20.8807 9.88071 22 8.5 22H4.5C3.11929 22 2 20.8807 2 19.5V15.5C2 14.1193 3.11929 13 4.5 13H8.5ZM8.25 14.75H4.75C4.19772 14.75 3.75 15.1977 3.75 15.75V19.25C3.75 19.8023 4.19772 20.25 4.75 20.25H8.25C8.80228 20.25 9.25 19.8023 9.25 19.25V15.75C9.25 15.1977 8.80228 14.75 8.25 14.75ZM7.25 16.25C7.52614 16.25 7.75 16.4739 7.75 16.75V18.25C7.75 18.5261 7.52614 18.75 7.25 18.75H5.75C5.47386 18.75 5.25 18.5261 5.25 18.25V16.75C5.25 16.4739 5.47386 16.25 5.75 16.25H7.25ZM19.5 2C20.8807 2 22 3.11929 22 4.5V8.5C22 9.88071 20.8807 11 19.5 11H15.5C14.1193 11 13 9.88071 13 8.5V4.5C13 3.11929 14.1193 2 15.5 2H19.5ZM8.5 2C9.88071 2 11 3.11929 11 4.5V8.5C11 9.88071 9.88071 11 8.5 11H4.5C3.11929 11 2 9.88071 2 8.5V4.5C2 3.11929 3.11929 2 4.5 2H8.5ZM19.25 3.75H15.75C15.1977 3.75 14.75 4.19772 14.75 4.75V8.25C14.75 8.80228 15.1977 9.25 15.75 9.25H19.25C19.8023 9.25 20.25 8.80228 20.25 8.25V4.75C20.25 4.19772 19.8023 3.75 19.25 3.75ZM8.25 3.75H4.75C4.19772 3.75 3.75 4.19772 3.75 4.75V8.25C3.75 8.80228 4.19772 9.25 4.75 9.25H8.25C8.80228 9.25 9.25 8.80228 9.25 8.25V4.75C9.25 4.19772 8.80228 3.75 8.25 3.75ZM18.25 5.25C18.5261 5.25 18.75 5.47386 18.75 5.75V7.25C18.75 7.52614 18.5261 7.75 18.25 7.75H16.75C16.4739 7.75 16.25 7.52614 16.25 7.25V5.75C16.25 5.47386 16.4739 5.25 16.75 5.25H18.25ZM7.25 5.25C7.52614 5.25 7.75 5.47386 7.75 5.75V7.25C7.75 7.52614 7.52614 7.75 7.25 7.75H5.75C5.47386 7.75 5.25 7.52614 5.25 7.25V5.75C5.25 5.47386 5.47386 5.25 5.75 5.25H7.25Z" fill="#023F80"/>
<path d="M19.2764 14.1626C20.5529 14.1626 21.5876 15.1974 21.5876 16.4738C21.5876 17.7559 21.0746 18.3979 18.919 20.0744L17.9375 20.8378C17.6802 21.0379 17.32 21.0379 17.0627 20.8378L16.0812 20.0744C13.9256 18.3979 13.4126 17.7559 13.4126 16.4738C13.4126 15.1974 14.4474 14.1626 15.7238 14.1626C16.4051 14.1626 16.9961 14.5605 17.5001 15.32C18.0041 14.5605 18.5951 14.1626 19.2764 14.1626Z" fill="#023F80"/>
<path d="M15.9014 14.5686C14.7429 14.5686 13.8037 15.5078 13.8037 16.6663C13.8037 17.8276 14.2681 18.4088 16.2122 19.9209L17.1054 20.6156C17.3376 20.7961 17.6626 20.7961 17.8948 20.6156L18.788 19.9209C20.7321 18.4088 21.1965 17.8276 21.1965 16.6663C21.1965 15.5078 20.2573 14.5686 19.0988 14.5686C18.4972 14.5686 17.9616 14.8419 17.5001 15.3678C17.0386 14.8419 16.503 14.5686 15.9014 14.5686Z" fill="#023F80"/>
</svg>
