<svg width="24" height="24" viewBox="0 0 24 24" fill="none" xmlns="http://www.w3.org/2000/svg">
<path d="M8.01124 12.8572C9.10016 12.8572 9.49504 12.9706 9.89313 13.1835C10.2912 13.3964 10.6037 13.7089 10.8166 14.107C11.0295 14.5051 11.1428 14.8999 11.1428 15.9889V18.2971C11.1428 19.386 11.0295 19.7809 10.8166 20.179C10.6037 20.5771 10.2912 20.8895 9.89313 21.1024C9.49504 21.3153 9.10016 21.4287 8.01124 21.4287H5.70301C4.61409 21.4287 4.21922 21.3153 3.82112 21.1024C3.42303 20.8895 3.1106 20.5771 2.89769 20.179C2.68479 19.7809 2.57141 19.386 2.57141 18.2971V15.9889C2.57141 14.8999 2.68479 14.5051 2.89769 14.107C3.1106 13.7089 3.42303 13.3964 3.82112 13.1835C4.21922 12.9706 4.61409 12.8572 5.70301 12.8572H8.01124ZM20.1759 18.8572C20.4624 18.8572 20.5664 18.8871 20.6711 18.9431C20.7759 18.9991 20.8581 19.0814 20.9141 19.1861C20.9701 19.2909 21 19.3948 21 19.6814V20.176C21 20.4626 20.9701 20.5665 20.9141 20.6712C20.8581 20.776 20.7759 20.8582 20.6711 20.9142C20.5664 20.9703 20.4624 21.0001 20.1759 21.0001H19.6812C19.3947 21.0001 19.2908 20.9703 19.186 20.9142C19.0812 20.8582 18.999 20.776 18.943 20.6712C18.887 20.5665 18.8571 20.4626 18.8571 20.176V19.6814C18.8571 19.3948 18.887 19.2909 18.943 19.1861C18.999 19.0814 19.0812 18.9991 19.186 18.9431C19.2908 18.8871 19.3947 18.8572 19.6812 18.8572H20.1759ZM14.6045 18.8572C14.891 18.8572 14.9949 18.8871 15.0997 18.9431C15.2044 18.9991 15.2867 19.0814 15.3427 19.1861C15.3987 19.2909 15.4286 19.3948 15.4286 19.6814V20.176C15.4286 20.4626 15.3987 20.5665 15.3427 20.6712C15.2867 20.776 15.2044 20.8582 15.0997 20.9142C14.9949 20.9703 14.891 21.0001 14.6045 21.0001H14.1098C13.8232 21.0001 13.7193 20.9703 13.6146 20.9142C13.5098 20.8582 13.4276 20.776 13.3716 20.6712C13.3155 20.5665 13.2857 20.4626 13.2857 20.176V19.6814C13.2857 19.3948 13.3155 19.2909 13.3716 19.1861C13.4276 19.0814 13.5098 18.9991 13.6146 18.9431C13.7193 18.8871 13.8232 18.8572 14.1098 18.8572H14.6045ZM8.16009 14.572L5.70301 14.5715C4.96901 14.5715 4.7997 14.6042 4.62958 14.6952C4.53023 14.7483 4.46251 14.8161 4.40937 14.9154C4.32489 15.0734 4.29067 15.2307 4.28621 15.84L4.2857 18.2971C4.2857 19.0311 4.31839 19.2004 4.40937 19.3705C4.46251 19.4699 4.53023 19.5376 4.62958 19.5907C4.7997 19.6817 4.96901 19.7144 5.70301 19.7144H8.01124C8.74524 19.7144 8.91456 19.6817 9.08468 19.5907C9.18402 19.5376 9.25174 19.4699 9.30488 19.3705C9.39586 19.2004 9.42856 19.0311 9.42856 18.2971V15.9889C9.42856 15.2549 9.39586 15.0855 9.30488 14.9154C9.25174 14.8161 9.18402 14.7483 9.08468 14.6952C8.92671 14.6107 8.76943 14.5765 8.16009 14.572ZM7.10445 16.0715C7.39101 16.0715 7.49492 16.1014 7.59968 16.1574C7.70445 16.2134 7.78666 16.2956 7.84269 16.4004C7.89872 16.5052 7.92855 16.6091 7.92855 16.8956V17.3903C7.92855 17.6768 7.89872 17.7808 7.84269 17.8855C7.78666 17.9903 7.70445 18.0725 7.59968 18.1285C7.49492 18.1846 7.39101 18.2144 7.10445 18.2144H6.6098C6.32324 18.2144 6.21933 18.1846 6.11457 18.1285C6.00981 18.0725 5.92759 17.9903 5.87156 17.8855C5.81553 17.7808 5.7857 17.6768 5.7857 17.3903V16.8956C5.7857 16.6091 5.81553 16.5052 5.87156 16.4004C5.92759 16.2956 6.00981 16.2134 6.11457 16.1574C6.21933 16.1014 6.32324 16.0715 6.6098 16.0715H7.10445ZM17.3902 16.0715C17.6767 16.0715 17.7806 16.1014 17.8854 16.1574C17.9902 16.2134 18.0724 16.2956 18.1284 16.4004C18.1844 16.5052 18.2143 16.6091 18.2143 16.8956V17.3903C18.2143 17.6768 18.1844 17.7808 18.1284 17.8855C18.0724 17.9903 17.9902 18.0725 17.8854 18.1285C17.7806 18.1846 17.6767 18.2144 17.3902 18.2144H16.8955C16.609 18.2144 16.505 18.1846 16.4003 18.1285C16.2955 18.0725 16.2133 17.9903 16.1573 17.8855C16.1012 17.7808 16.0714 17.6768 16.0714 17.3903V16.8956C16.0714 16.6091 16.1012 16.5052 16.1573 16.4004C16.2133 16.2956 16.2955 16.2134 16.4003 16.1574C16.505 16.1014 16.609 16.0715 16.8955 16.0715H17.3902ZM14.6045 13.2858C14.891 13.2858 14.9949 13.3157 15.0997 13.3717C15.2044 13.4277 15.2867 13.5099 15.3427 13.6147C15.3987 13.7195 15.4286 13.8234 15.4286 14.1099V14.6046C15.4286 14.8911 15.3987 14.995 15.3427 15.0998C15.2867 15.2046 15.2044 15.2868 15.0997 15.3428C14.9949 15.3988 14.891 15.4287 14.6045 15.4287H14.1098C13.8232 15.4287 13.7193 15.3988 13.6146 15.3428C13.5098 15.2868 13.4276 15.2046 13.3716 15.0998C13.3155 14.995 13.2857 14.8911 13.2857 14.6046V14.1099C13.2857 13.8234 13.3155 13.7195 13.3716 13.6147C13.4276 13.5099 13.5098 13.4277 13.6146 13.3717C13.7193 13.3157 13.8232 13.2858 14.1098 13.2858H14.6045ZM20.1759 13.2858C20.4624 13.2858 20.5664 13.3157 20.6711 13.3717C20.7759 13.4277 20.8581 13.5099 20.9141 13.6147C20.9701 13.7195 21 13.8234 21 14.1099V14.6046C21 14.8911 20.9701 14.995 20.9141 15.0998C20.8581 15.2046 20.7759 15.2868 20.6711 15.3428C20.5664 15.3988 20.4624 15.4287 20.1759 15.4287H19.6812C19.3947 15.4287 19.2908 15.3988 19.186 15.3428C19.0812 15.2868 18.999 15.2046 18.943 15.0998C18.887 14.995 18.8571 14.8911 18.8571 14.6046V14.1099C18.8571 13.8234 18.887 13.7195 18.943 13.6147C18.999 13.5099 19.0812 13.4277 19.186 13.3717C19.2908 13.3157 19.3947 13.2858 19.6812 13.2858H20.1759ZM8.01124 2.57153C9.10016 2.57153 9.49504 2.68491 9.89313 2.89782C10.2912 3.11072 10.6037 3.42315 10.8166 3.82124C11.0295 4.21934 11.1428 4.61421 11.1428 5.70314V8.01136C11.1428 9.10029 11.0295 9.49516 10.8166 9.89325C10.6037 10.2913 10.2912 10.6038 9.89313 10.8167C9.49504 11.0296 9.10016 11.143 8.01124 11.143H5.70301C4.61409 11.143 4.21922 11.0296 3.82112 10.8167C3.42303 10.6038 3.1106 10.2913 2.89769 9.89325C2.68479 9.49516 2.57141 9.10029 2.57141 8.01136V5.70314C2.57141 4.61421 2.68479 4.21934 2.89769 3.82124C3.1106 3.42315 3.42303 3.11072 3.82112 2.89782C4.21922 2.68491 4.61409 2.57153 5.70301 2.57153H8.01124ZM18.297 2.57153C19.3859 2.57153 19.7808 2.68491 20.1788 2.89782C20.5769 3.11072 20.8894 3.42315 21.1023 3.82124C21.3152 4.21934 21.4286 4.61421 21.4286 5.70314V8.01136C21.4286 9.10029 21.3152 9.49516 21.1023 9.89325C20.8894 10.2913 20.5769 10.6038 20.1788 10.8167C19.7808 11.0296 19.3859 11.143 18.297 11.143H15.9887C14.8998 11.143 14.5049 11.0296 14.1068 10.8167C13.7087 10.6038 13.3963 10.2913 13.1834 9.89325C12.9705 9.49516 12.8571 9.10029 12.8571 8.01136V5.70314C12.8571 4.61421 12.9705 4.21934 13.1834 3.82124C13.3963 3.42315 13.7087 3.11072 14.1068 2.89782C14.5049 2.68491 14.8998 2.57153 15.9887 2.57153H18.297ZM8.16009 4.28633L5.70301 4.28582C4.96901 4.28582 4.7997 4.31852 4.62958 4.4095C4.53023 4.46263 4.46251 4.53035 4.40937 4.6297C4.32489 4.78767 4.29067 4.94494 4.28621 5.55429L4.2857 8.01136C4.2857 8.74536 4.31839 8.91468 4.40937 9.0848C4.46251 9.18415 4.53023 9.25187 4.62958 9.305C4.7997 9.39598 4.96901 9.42868 5.70301 9.42868H8.01124C8.74524 9.42868 8.91456 9.39598 9.08468 9.305C9.18402 9.25187 9.25174 9.18415 9.30488 9.0848C9.39586 8.91468 9.42856 8.74536 9.42856 8.01136V5.70314C9.42856 4.96914 9.39586 4.79982 9.30488 4.6297C9.25174 4.53035 9.18402 4.46263 9.08468 4.4095C8.92671 4.32501 8.76943 4.29079 8.16009 4.28633ZM18.4458 4.28633L15.9887 4.28582C15.2547 4.28582 15.0854 4.31852 14.9153 4.4095C14.8159 4.46263 14.7482 4.53035 14.6951 4.6297C14.6106 4.78767 14.5764 4.94494 14.5719 5.55429L14.5714 8.01136C14.5714 8.74536 14.6041 8.91468 14.6951 9.0848C14.7482 9.18415 14.8159 9.25187 14.9153 9.305C15.0854 9.39598 15.2547 9.42868 15.9887 9.42868H18.297C19.031 9.42868 19.2003 9.39598 19.3704 9.305C19.4697 9.25187 19.5375 9.18415 19.5906 9.0848C19.6816 8.91468 19.7143 8.74536 19.7143 8.01136V5.70314C19.7143 4.96914 19.6816 4.79982 19.5906 4.6297C19.5375 4.53035 19.4697 4.46263 19.3704 4.4095C19.2124 4.32501 19.0551 4.29079 18.4458 4.28633ZM7.10445 5.78582C7.39101 5.78582 7.49492 5.81566 7.59968 5.87168C7.70445 5.92771 7.78666 6.00993 7.84269 6.11469C7.89872 6.21945 7.92855 6.32337 7.92855 6.60993V7.10457C7.92855 7.39113 7.89872 7.49504 7.84269 7.59981C7.78666 7.70457 7.70445 7.78679 7.59968 7.84281C7.49492 7.89884 7.39101 7.92868 7.10445 7.92868H6.6098C6.32324 7.92868 6.21933 7.89884 6.11457 7.84281C6.00981 7.78679 5.92759 7.70457 5.87156 7.59981C5.81553 7.49504 5.7857 7.39113 5.7857 7.10457V6.60993C5.7857 6.32337 5.81553 6.21945 5.87156 6.11469C5.92759 6.00993 6.00981 5.92771 6.11457 5.87168C6.21933 5.81566 6.32324 5.78582 6.6098 5.78582H7.10445ZM17.3902 5.78582C17.6767 5.78582 17.7806 5.81566 17.8854 5.87168C17.9902 5.92771 18.0724 6.00993 18.1284 6.11469C18.1844 6.21945 18.2143 6.32337 18.2143 6.60993V7.10457C18.2143 7.39113 18.1844 7.49504 18.1284 7.59981C18.0724 7.70457 17.9902 7.78679 17.8854 7.84281C17.7806 7.89884 17.6767 7.92868 17.3902 7.92868H16.8955C16.609 7.92868 16.505 7.89884 16.4003 7.84281C16.2955 7.78679 16.2133 7.70457 16.1573 7.59981C16.1012 7.49504 16.0714 7.39113 16.0714 7.10457V6.60993C16.0714 6.32337 16.1012 6.21945 16.1573 6.11469C16.2133 6.00993 16.2955 5.92771 16.4003 5.87168C16.505 5.81566 16.609 5.78582 16.8955 5.78582H17.3902Z" fill="#023F80"/>
</svg>
