<svg width="28" height="28" viewBox="0 0 28 28" fill="none" xmlns="http://www.w3.org/2000/svg">
<path d="M7.49097 5.69783C7.87221 6.09742 7.85733 6.73041 7.45773 7.11165C7.4496 7.11941 7.4496 7.11941 7.42506 7.14288C7.41291 7.15453 7.41291 7.15453 7.40429 7.16283C5.55984 8.94258 4.5 11.3857 4.5 14C4.5 16.6291 5.57194 19.0848 7.43479 20.8665C7.83391 21.2482 7.84801 21.8812 7.46628 22.2803C7.08455 22.6794 6.45154 22.6935 6.05242 22.3118C3.79904 20.1566 2.5 17.1807 2.5 14C2.5 10.8372 3.7844 7.87649 6.01554 5.7236C6.02807 5.71153 6.02807 5.71153 6.04156 5.69861C6.06826 5.67307 6.06826 5.67307 6.07714 5.6646C6.47674 5.28336 7.10973 5.29824 7.49097 5.69783ZM20.509 5.69783C20.8903 5.29824 21.5233 5.28336 21.9229 5.6646C21.9317 5.67307 21.9317 5.67307 21.9584 5.69861C21.9719 5.71153 21.9719 5.71153 21.9845 5.7236C24.2156 7.87649 25.5 10.8372 25.5 14C25.5 17.1807 24.201 20.1566 21.9476 22.3118C21.5485 22.6935 20.9155 22.6794 20.5337 22.2803C20.152 21.8812 20.1661 21.2482 20.5652 20.8665C22.4281 19.0848 23.5 16.6291 23.5 14C23.5 11.3857 22.4402 8.94258 20.5957 7.16283C20.5871 7.15453 20.5871 7.15453 20.5749 7.14288C20.5504 7.11941 20.5504 7.11941 20.5423 7.11165C20.1427 6.73041 20.1278 6.09742 20.509 5.69783ZM10.8378 9.09428C11.2122 9.50026 11.1866 10.1329 10.7807 10.5073C9.81082 11.4018 9.25 12.6547 9.25 14C9.25 15.3449 9.81054 16.5975 10.7799 17.492C11.1858 17.8665 11.2113 18.4992 10.8368 18.9051C10.4622 19.311 9.82959 19.3364 9.42369 18.9619C8.04811 17.6926 7.25 15.9092 7.25 14C7.25 12.0903 8.04851 10.3064 9.4247 9.03718C9.83067 8.66274 10.4633 8.68831 10.8378 9.09428ZM17.1622 9.09428C17.5367 8.68831 18.1693 8.66274 18.5753 9.03718C19.9515 10.3064 20.75 12.0903 20.75 14C20.75 15.9092 19.9519 17.6926 18.5763 18.9619C18.1704 19.3364 17.5378 19.311 17.1632 18.9051C16.7887 18.4992 16.8142 17.8665 17.2201 17.492C18.1895 16.5975 18.75 15.3449 18.75 14C18.75 12.6547 18.1892 11.4018 17.2193 10.5073C16.8134 10.1329 16.7878 9.50026 17.1622 9.09428ZM14 11.75C15.2426 11.75 16.25 12.7573 16.25 14C16.25 15.2426 15.2426 16.25 14 16.25C12.7574 16.25 11.75 15.2426 11.75 14C11.75 12.7573 12.7574 11.75 14 11.75Z" fill="#023F80"/>
</svg>
