<svg width="24" height="24" viewBox="0 0 24 24" fill="none" xmlns="http://www.w3.org/2000/svg">
<path d="M10.0001 11.5C10.0001 12.3284 9.32852 13 8.50009 13C7.67166 13 7.00009 12.3284 7.00009 11.5C7.00009 10.6716 7.67166 10 8.50009 10C9.32852 10 10.0001 10.6716 10.0001 11.5Z" fill="#023F80"/>
<path d="M9.72358 15.3731C9.99387 14.9893 10.5241 14.8973 10.908 15.1675C10.9541 15.2001 11.0017 15.2305 11.0507 15.2589C11.3293 15.42 11.6526 15.5125 12.0001 15.5125C12.3476 15.5125 12.6709 15.42 12.9495 15.2589C12.9984 15.2305 13.0461 15.2001 13.0922 15.1675C13.4761 14.8973 14.0063 14.9893 14.2766 15.3731C14.5469 15.7569 14.4549 16.2872 14.071 16.5575C13.9837 16.619 13.8936 16.6767 13.8007 16.7304C13.2703 17.0372 12.6544 17.2125 12.0001 17.2125C11.3458 17.2125 10.7299 17.0372 10.1995 16.7304C10.1066 16.6767 10.0164 16.619 9.92915 16.5575C9.54533 16.2872 9.45329 15.7569 9.72358 15.3731Z" fill="#023F80"/>
<path d="M14.8257 12.4564C14.9205 12.4016 15.0303 12.37 15.1501 12.37C15.2699 12.37 15.3798 12.4016 15.4745 12.4564C15.5133 12.4789 15.5497 12.5053 15.5832 12.5353C15.933 12.8484 16.4704 12.8186 16.7835 12.4688C17.0966 12.119 17.0668 11.5816 16.717 11.2686C16.5972 11.1613 16.4662 11.0661 16.3257 10.9849C15.9792 10.7844 15.5767 10.67 15.1501 10.67C14.7235 10.67 14.321 10.7844 13.9745 10.9849C13.8341 11.0661 13.703 11.1613 13.5832 11.2686C13.2334 11.5816 13.2037 12.119 13.5168 12.4688C13.8298 12.8186 14.3672 12.8484 14.717 12.5353C14.7505 12.5053 14.7869 12.4789 14.8257 12.4564Z" fill="#023F80"/>
<path fill-rule="evenodd" clipRule="evenodd" d="M14.0001 3C14.0001 3.78083 13.5526 4.45716 12.9001 4.78653V6.09998H15.2378C16.0459 6.09997 16.7067 6.09996 17.2438 6.14384C17.7997 6.18926 18.3018 6.28614 18.7707 6.52505C19.5045 6.89896 20.1011 7.49558 20.475 8.22941C20.7139 8.6983 20.8108 9.20038 20.8562 9.75629C20.9001 10.2934 20.9001 10.9542 20.9001 11.7623V15.2377C20.9001 16.0457 20.9001 16.7066 20.8562 17.2437C20.8108 17.7996 20.7139 18.3017 20.475 18.7705C20.1011 19.5044 19.5045 20.101 18.7707 20.4749C18.3018 20.7138 17.7997 20.8107 17.2438 20.8561C16.7067 20.9 16.0459 20.9 15.2378 20.9H8.76239C7.95434 20.9 7.29349 20.9 6.75642 20.8561C6.2005 20.8107 5.69842 20.7138 5.22954 20.4749C4.4957 20.101 3.89908 19.5044 3.52517 18.7705C3.28626 18.3017 3.18938 17.7996 3.14396 17.2437C3.10008 16.7066 3.10009 16.0457 3.1001 15.2377V11.7623C3.10009 10.9542 3.10008 10.2934 3.14396 9.75629C3.18938 9.20038 3.28626 8.6983 3.52517 8.22941C3.89908 7.49558 4.4957 6.89896 5.22954 6.52505C5.69842 6.28614 6.2005 6.18926 6.75642 6.14384C7.29349 6.09996 7.95434 6.09997 8.7624 6.09998H11.1001V4.78656C10.4476 4.4572 10.0001 3.78086 10.0001 3C10.0001 1.89543 10.8955 1 12.0001 1C13.1047 1 14.0001 1.89543 14.0001 3ZM6.90299 7.93786C6.45839 7.97418 6.21956 8.04079 6.04672 8.12886C5.65158 8.3302 5.33032 8.65146 5.12898 9.0466C5.04092 9.21944 4.97431 9.45827 4.93798 9.90287C4.9008 10.358 4.9001 10.945 4.9001 11.8V15.2C4.9001 16.0549 4.9008 16.642 4.93798 17.0971C4.97431 17.5417 5.04092 17.7805 5.12898 17.9534C5.33032 18.3485 5.65158 18.6698 6.04672 18.8711C6.21956 18.9592 6.45839 19.0258 6.90299 19.0621C7.3581 19.0993 7.94517 19.1 8.8001 19.1H15.2001C16.055 19.1 16.6421 19.0993 17.0972 19.0621C17.5418 19.0258 17.7806 18.9592 17.9535 18.8711C18.3486 18.6698 18.6699 18.3485 18.8712 17.9534C18.9593 17.7805 19.0259 17.5417 19.0622 17.0971C19.0994 16.642 19.1001 16.0549 19.1001 15.2V11.8C19.1001 10.945 19.0994 10.358 19.0622 9.90287C19.0259 9.45827 18.9593 9.21944 18.8712 9.0466C18.6699 8.65146 18.3486 8.3302 17.9535 8.12886C17.7806 8.04079 17.5418 7.97418 17.0972 7.93786C16.6421 7.90068 16.055 7.89998 15.2001 7.89998H8.8001C7.94517 7.89998 7.3581 7.90068 6.90299 7.93786Z" fill="#023F80"/>
</svg>
