<svg width="28" height="28" viewBox="0 0 28 28" fill="none" xmlns="http://www.w3.org/2000/svg">
<path fill-rule="evenodd" clipRule="evenodd" d="M12.3572 2H12.4H15.6H15.6428C16.7266 1.99999 17.6007 1.99998 18.3086 2.05782C19.0375 2.11737 19.6777 2.24318 20.27 2.54497C21.2108 3.02434 21.9757 3.78924 22.455 4.73005C22.7568 5.32234 22.8826 5.96253 22.9422 6.69138C23 7.39923 23 8.27334 23 9.35706V9.35717V9.4V18.6V18.6428V18.6429C23 19.7267 23 20.6008 22.9422 21.3086C22.8826 22.0375 22.7568 22.6777 22.455 23.27C21.9757 24.2108 21.2108 24.9757 20.27 25.455C19.6777 25.7568 19.0375 25.8826 18.3086 25.9422C17.6008 26 16.7267 26 15.6429 26H15.6428H15.6H12.4H12.3572H12.3571C11.2733 26 10.3992 26 9.69138 25.9422C8.96253 25.8826 8.32234 25.7568 7.73005 25.455C6.78924 24.9757 6.02433 24.2108 5.54497 23.27C5.24318 22.6777 5.11737 22.0375 5.05782 21.3086C4.99998 20.6007 4.99999 19.7266 5 18.6428V18.6V9.4V9.35719C4.99999 8.27341 4.99998 7.39926 5.05782 6.69138C5.11737 5.96253 5.24318 5.32234 5.54497 4.73005C6.02433 3.78924 6.78924 3.02434 7.73005 2.54497C8.32234 2.24318 8.96253 2.11737 9.69138 2.05782C10.3993 1.99998 11.2734 1.99999 12.3572 2H12.3572ZM9.85424 4.05118C9.24907 4.10062 8.90138 4.19279 8.63803 4.32698C8.07354 4.6146 7.6146 5.07354 7.32698 5.63803C7.19279 5.90138 7.10062 6.24907 7.05118 6.85424C7.00078 7.47108 7 8.26339 7 9.4V9.5L21 9.5V9.4C21 8.26339 20.9992 7.47108 20.9488 6.85424C20.8994 6.24907 20.8072 5.90138 20.673 5.63803C20.3854 5.07354 19.9265 4.6146 19.362 4.32698C19.0986 4.19279 18.7509 4.10062 18.1458 4.05118C17.5289 4.00078 16.7366 4 15.6 4H12.4C11.2634 4 10.4711 4.00078 9.85424 4.05118ZM21 11.5H7V16.5L21 16.5V11.5ZM7 18.6V18.5H21V18.6C21 19.7366 20.9992 20.5289 20.9488 21.1458C20.8994 21.7509 20.8072 22.0986 20.673 22.362C20.3854 22.9265 19.9265 23.3854 19.362 23.673C19.0986 23.8072 18.7509 23.8994 18.1458 23.9488C17.5289 23.9992 16.7366 24 15.6 24H12.4C11.2634 24 10.4711 23.9992 9.85424 23.9488C9.24907 23.8994 8.90138 23.8072 8.63803 23.673C8.07354 23.3854 7.6146 22.9265 7.32698 22.362C7.19279 22.0986 7.10062 21.7509 7.05118 21.1458C7.00078 20.5289 7 19.7366 7 18.6Z" fill="#023F80"/>
</svg>
