<svg width="28" height="28" viewBox="0 0 28 28" fill="none" xmlns="http://www.w3.org/2000/svg">
<path fill-rule="evenodd" clipRule="evenodd" d="M3.85706 18C3.62068 18 3.38967 18.0197 3.16537 18.0573C2.6207 18.1487 2.10507 17.7812 2.0137 17.2366C1.92232 16.6919 2.28978 16.1763 2.83446 16.0849C3.16766 16.029 3.50935 16 3.85706 16C7.24966 16 9.99991 18.7503 9.99991 22.1429C9.99991 22.4906 9.97092 22.8323 9.91502 23.1655C9.82364 23.7101 9.30802 24.0776 8.76335 23.9862C8.21868 23.8948 7.85121 23.3792 7.94259 22.8345C7.98022 22.6102 7.99991 22.3792 7.99991 22.1429C7.99991 19.8548 6.14509 18 3.85706 18Z" fill="#023F80"/>
<path fill-rule="evenodd" clipRule="evenodd" d="M3.99991 24C5.10448 24 5.99991 23.1046 5.99991 22C5.99991 20.8954 5.10448 20 3.99991 20C2.89534 20 1.99991 20.8954 1.99991 22C1.99991 23.1046 2.89534 24 3.99991 24Z" fill="#023F80"/>
<path fill-rule="evenodd" clipRule="evenodd" d="M3.83325 14C3.58234 14 3.33433 14.0113 3.08966 14.0333C2.53961 14.0829 2.05352 13.6772 2.00395 13.1271C1.95438 12.5771 2.36011 12.091 2.91016 12.0414C3.21443 12.014 3.52234 12 3.83325 12C9.44814 12 13.9999 16.5518 13.9999 22.1667C13.9999 22.4776 13.9859 22.7855 13.9585 23.0898C13.9089 23.6398 13.4228 24.0455 12.8728 23.996C12.3227 23.9464 11.917 23.4603 11.9666 22.9102C11.9886 22.6656 11.9999 22.4176 11.9999 22.1667C11.9999 17.6563 8.34357 14 3.83325 14Z" fill="#023F80"/>
<path fill-rule="evenodd" clipRule="evenodd" d="M10.9561 4H17.0436C18.4067 3.99999 19.4907 3.99999 20.3653 4.07144C21.2609 4.14462 22.0246 4.29768 22.7238 4.65396C23.8528 5.2292 24.7707 6.14709 25.3459 7.27606C25.7022 7.9753 25.8553 8.73898 25.9284 9.63458C25.9999 10.5092 25.9999 11.5932 25.9999 12.9562V15.0438C25.9999 16.4068 25.9999 17.4908 25.9284 18.3654C25.8553 19.261 25.7022 20.0247 25.3459 20.7239C24.7707 21.8529 23.8528 22.7708 22.7238 23.346C22.0246 23.7023 21.2609 23.8554 20.3653 23.9286C19.4907 24 18.4067 24 17.0437 24H16.9999C16.4476 24 15.9999 23.5523 15.9999 23C15.9999 22.4477 16.4476 22 16.9999 22C18.4165 22 19.4189 21.9992 20.2024 21.9352C20.9744 21.8721 21.4455 21.7527 21.8158 21.564C22.5685 21.1805 23.1804 20.5686 23.5639 19.816C23.7526 19.4457 23.872 18.9745 23.9351 18.2026C23.9991 17.419 23.9999 16.4166 23.9999 15V13C23.9999 11.5834 23.9991 10.581 23.9351 9.79744C23.872 9.02552 23.7526 8.55435 23.5639 8.18404C23.1804 7.43139 22.5685 6.81947 21.8158 6.43597C21.4455 6.24729 20.9744 6.12787 20.2024 6.0648C19.4189 6.00078 18.4165 6 16.9999 6H10.9999C9.58326 6 8.58092 6.00078 7.79733 6.0648C6.02227 6.20983 4.44694 7.28748 4.1397 9.16177C4.05036 9.70678 3.53611 10.0762 2.9911 9.98683C2.44609 9.89749 2.0767 9.38325 2.16604 8.83824C2.462 7.03275 3.64483 5.48506 5.27595 4.65396C5.97519 4.29768 6.73887 4.14462 7.63447 4.07144C8.50906 3.99999 9.59309 3.99999 10.9561 4Z" fill="#023F80"/>
</svg>
