<svg width="28" height="28" viewBox="0 0 28 28" fill="none" xmlns="http://www.w3.org/2000/svg">
<path fill-rule="evenodd" clipRule="evenodd" d="M12.4 2H12.3572H12.3572C11.2734 1.99999 10.3993 1.99998 9.69138 2.05782C8.96253 2.11737 8.32234 2.24318 7.73005 2.54497C6.78924 3.02434 6.02433 3.78924 5.54497 4.73005C5.24318 5.32234 5.11737 5.96253 5.05782 6.69138C4.99998 7.39926 4.99999 8.27341 5 9.35719V9.4V18.6V18.6428C4.99999 19.7266 4.99998 20.6007 5.05782 21.3086C5.11737 22.0375 5.24318 22.6777 5.54497 23.27C6.02433 24.2108 6.78924 24.9757 7.73005 25.455C8.32234 25.7568 8.96253 25.8826 9.69138 25.9422C10.3992 26 11.2733 26 12.3571 26H12.3572H12.4H15.6H15.6428H15.6429C16.7267 26 17.6008 26 18.3086 25.9422C19.0375 25.8826 19.6777 25.7568 20.27 25.455C21.2108 24.9757 21.9757 24.2108 22.455 23.27C22.7568 22.6777 22.8826 22.0375 22.9422 21.3086C23 20.6008 23 19.7267 23 18.6429V18.6428V18.6V9.4V9.35717V9.35706C23 8.27334 23 7.39923 22.9422 6.69138C22.8826 5.96253 22.7568 5.32234 22.455 4.73005C21.9757 3.78924 21.2108 3.02434 20.27 2.54497C19.6777 2.24318 19.0375 2.11737 18.3086 2.05782C17.6007 1.99998 16.7266 1.99999 15.6428 2H15.6H12.4ZM8.63803 4.32698C8.90138 4.19279 9.24907 4.10062 9.85424 4.05118C10.4711 4.00078 11.2634 4 12.4 4H15.6C16.7366 4 17.5289 4.00078 18.1458 4.05118C18.7509 4.10062 19.0986 4.19279 19.362 4.32698C19.9265 4.6146 20.3854 5.07354 20.673 5.63803C20.8072 5.90138 20.8994 6.24907 20.9488 6.85424C20.9992 7.47108 21 8.26339 21 9.4V13L7 13V9.4C7 8.26339 7.00078 7.47108 7.05118 6.85424C7.10062 6.24907 7.19279 5.90138 7.32698 5.63803C7.6146 5.07354 8.07354 4.6146 8.63803 4.32698ZM7 15V18.6C7 19.7366 7.00078 20.5289 7.05118 21.1458C7.10062 21.7509 7.19279 22.0986 7.32698 22.362C7.6146 22.9265 8.07354 23.3854 8.63803 23.673C8.90138 23.8072 9.24907 23.8994 9.85424 23.9488C10.4711 23.9992 11.2634 24 12.4 24H15.6C16.7366 24 17.5289 23.9992 18.1458 23.9488C18.7509 23.8994 19.0986 23.8072 19.362 23.673C19.9265 23.3854 20.3854 22.9265 20.673 22.362C20.8072 22.0986 20.8994 21.7509 20.9488 21.1458C20.9992 20.5289 21 19.7366 21 18.6V15L7 15Z" fill="#023F80"/>
</svg>
