<svg width="28" height="28" viewBox="0 0 28 28" fill="none" xmlns="http://www.w3.org/2000/svg">
<path fill-rule="evenodd" clipRule="evenodd" d="M14.7139 2.625C15.8687 2.625 16.8082 3.5645 16.8082 4.71929V5.20233C17.2992 5.35918 17.7761 5.55717 18.2344 5.79431L18.5767 5.452C19.4058 4.62189 20.7339 4.64624 21.5389 5.45231L22.548 6.4614C23.3544 7.26693 23.3776 8.59456 22.5477 9.42356L22.2057 9.76561C22.4428 10.2239 22.6408 10.7008 22.7977 11.1918H23.2807C24.4355 11.1918 25.375 12.1313 25.375 13.2861V14.7139C25.375 15.8687 24.4355 16.8082 23.2807 16.8082H22.7977C22.6408 17.2992 22.4428 17.7761 22.2057 18.2344L22.548 18.5767C23.3774 19.4052 23.3545 20.733 22.5477 21.5389L21.5385 22.548C20.7316 23.356 19.4039 23.3762 18.5764 22.5478L18.2344 22.2058C17.7761 22.4429 17.2992 22.6409 16.8082 22.7978V23.2808C16.8082 24.4355 15.8687 25.375 14.7139 25.375H13.2861C12.1313 25.375 11.1918 24.4355 11.1918 23.2807V22.7977C10.7008 22.6408 10.2238 22.4428 9.76557 22.2057L9.42325 22.548C8.59416 23.3781 7.26609 23.3538 6.46109 22.5477L5.45195 21.5386C4.64553 20.7331 4.62233 19.4054 5.45222 18.5764L5.79427 18.2344C5.55713 17.7761 5.35918 17.2992 5.20228 16.8082H4.71929C3.56455 16.8082 2.625 15.8687 2.625 14.7139V13.2861C2.625 12.1313 3.56455 11.1918 4.71933 11.1918H5.20233C5.35922 10.7008 5.55717 10.2239 5.79431 9.76561L5.452 9.42334C4.6226 8.59483 4.64548 7.26707 5.45227 6.46117L6.46149 5.452C7.26836 4.64402 8.59612 4.62385 9.42361 5.45227L9.76561 5.79427C10.2239 5.55717 10.7008 5.35918 11.1918 5.20228V4.71929C11.1918 3.5645 12.1313 2.625 13.2861 2.625H14.7139ZM14.714 3.95801H13.2862C12.8664 3.95801 12.5248 4.29952 12.5248 4.71929V5.7034C12.5248 6.00737 12.3192 6.27282 12.0249 6.34876C11.3102 6.5332 10.625 6.81762 9.98845 7.19411C9.72647 7.34896 9.39299 7.30683 9.17784 7.09169L8.48077 6.39457C8.18022 6.09366 7.69754 6.10064 7.40441 6.39426L6.39457 7.40406C6.10211 7.69616 6.09233 8.17884 6.3943 8.48046L7.09169 9.17784C7.30683 9.39299 7.34896 9.72651 7.19411 9.9884C6.81762 10.625 6.53325 11.3101 6.3488 12.0248C6.27282 12.3192 6.00737 12.5248 5.70345 12.5248H4.71933C4.29957 12.5248 3.95801 12.8663 3.95801 13.2861V14.7139C3.95801 15.1337 4.29957 15.4752 4.71933 15.4752H5.7034C6.00737 15.4752 6.27278 15.6808 6.34876 15.9751C6.5332 16.6898 6.81762 17.375 7.19406 18.0116C7.34891 18.2734 7.30679 18.607 7.09164 18.8221L6.39452 19.5192C6.09318 19.8202 6.10104 20.3028 6.39426 20.5956L7.40401 21.6054C7.69669 21.8985 8.17942 21.907 8.48041 21.6057L9.17776 20.9083C9.33629 20.7498 9.66613 20.6153 9.9884 20.8059C10.625 21.1824 11.3102 21.4668 12.0248 21.6512C12.3192 21.7272 12.5248 21.9926 12.5248 22.2966V23.2807C12.5248 23.7005 12.8664 24.042 13.2861 24.042H14.7139C15.1337 24.042 15.4752 23.7005 15.4752 23.2807V22.2966C15.4752 21.9926 15.6809 21.7272 15.9752 21.6512C16.6899 21.4668 17.375 21.1824 18.0116 20.8059C18.2736 20.651 18.6071 20.6931 18.8222 20.9083L19.5193 21.6054C19.8199 21.9063 20.3025 21.8994 20.5957 21.6057L21.6055 20.5959C21.898 20.3038 21.9078 19.8211 21.6058 19.5195L20.9084 18.8222C20.6933 18.607 20.6511 18.2735 20.806 18.0116C21.1825 17.375 21.4668 16.6899 21.6513 15.9752C21.7273 15.6808 21.9927 15.4752 22.2966 15.4752H23.2807C23.7005 15.4752 24.042 15.1337 24.042 14.714V13.2861C24.042 12.8664 23.7005 12.5248 23.2807 12.5248H22.2966C21.9927 12.5248 21.7273 12.3192 21.6513 12.0249C21.4668 11.3102 21.1824 10.625 20.806 9.98849C20.6511 9.7266 20.6933 9.39308 20.9084 9.17793L21.6055 8.48081C21.9069 8.17982 21.899 7.69727 21.6058 7.40441L20.596 6.39466C20.3033 6.10157 19.8206 6.093 19.5196 6.39439L18.8223 7.09178C18.6071 7.30697 18.2735 7.34909 18.0117 7.1942C17.3751 6.81771 16.6899 6.53329 15.9753 6.34885C15.6809 6.27291 15.4753 6.00746 15.4753 5.70349V4.71929C15.4753 4.29952 15.1337 3.95801 14.714 3.95801ZM14 9.0501C16.7294 9.0501 18.9499 11.2706 18.9499 14C18.9499 16.7294 16.7294 18.9499 14 18.9499C11.2706 18.9499 9.0501 16.7294 9.0501 14C9.0501 11.2706 11.2706 9.0501 14 9.0501ZM14 10.3831C12.0056 10.3831 10.3831 12.0056 10.3831 14C10.3831 15.9944 12.0056 17.6169 14 17.6169C15.9944 17.6169 17.6169 15.9944 17.6169 14C17.6169 12.0056 15.9944 10.3831 14 10.3831Z" fill="#023F80"/>
</svg>
