<svg width="24" height="24" viewBox="0 0 24 24" fill="none" xmlns="http://www.w3.org/2000/svg">
<path fill-rule="evenodd" clipRule="evenodd" d="M17.8508 7.59368C18.1979 7.94081 18.1979 8.50363 17.8508 8.85076C17.5036 9.19789 16.9408 9.19789 16.5937 8.85076L12.7778 5.03486L12.7778 15.3333C12.7778 15.8243 12.3798 16.2222 11.8889 16.2222C11.398 16.2222 11 15.8243 11 15.3333L11 5.03486L7.1841 8.85076C6.83696 9.19789 6.27415 9.19789 5.92702 8.85076C5.57988 8.50363 5.57988 7.94081 5.92702 7.59368L11.2602 2.26047C11.4331 2.08758 11.6596 2.00068 11.8862 2C11.8871 2 11.888 2 11.8889 2C11.8898 2 11.8907 2 11.8916 2C12.0111 2.00035 12.1251 2.02431 12.2291 2.06745C12.3324 2.11018 12.4293 2.17322 12.5136 2.25656M17.8508 7.59368L12.5179 2.26082L17.8508 7.59368ZM3 15.9047V14.4444C3 13.9535 3.39797 13.5556 3.88889 13.5556C4.37981 13.5556 4.77778 13.9535 4.77778 14.4444L4.77778 15.8667C4.77778 16.877 4.77847 17.5813 4.82327 18.1296C4.86722 18.6675 4.94915 18.9765 5.06843 19.2106C5.32409 19.7124 5.73204 20.1204 6.2338 20.376C6.4679 20.4953 6.77695 20.5772 7.31488 20.6212C7.86318 20.666 8.56746 20.6667 9.57778 20.6667H14.2C15.2103 20.6667 15.9146 20.666 16.4629 20.6212C17.0008 20.5772 17.3099 20.4953 17.544 20.376C18.0457 20.1204 18.4537 19.7124 18.7094 19.2106C18.8286 18.9765 18.9106 18.6675 18.9545 18.1296C18.9993 17.5813 19 16.877 19 15.8667V14.4444C19 13.9535 19.398 13.5556 19.8889 13.5556C20.3798 13.5556 20.7778 13.9535 20.7778 14.4444V15.9047C20.7778 16.8681 20.7778 17.6451 20.7264 18.2743C20.6735 18.9222 20.5616 19.4913 20.2934 20.0177C19.8673 20.854 19.1873 21.5339 18.3511 21.96C17.8246 22.2283 17.2555 22.3401 16.6077 22.3931C15.9785 22.4445 15.2015 22.4445 14.2381 22.4444H9.53973C8.57636 22.4445 7.79934 22.4445 7.17011 22.3931C6.52225 22.3401 5.95319 22.2283 5.42671 21.96C4.59043 21.5339 3.91052 20.854 3.48442 20.0177C3.21616 19.4913 3.10433 18.9222 3.05139 18.2743C2.99998 17.6451 2.99999 16.8681 3 15.9047Z" fill="#023F80"/>
</svg>
