<svg width="28" height="28" viewBox="0 0 28 28" fill="none" xmlns="http://www.w3.org/2000/svg">
<path d="M16.5 12.5C16.5 13.5252 15.883 14.4062 15 14.792V17C15 17.5523 14.5523 18 14 18C13.4477 18 13 17.5523 13 17V14.792C12.117 14.4062 11.5 13.5252 11.5 12.5C11.5 11.1193 12.6193 10 14 10C15.3807 10 16.5 11.1193 16.5 12.5Z" fill="#023F80"/>
<path fill-rule="evenodd" clipRule="evenodd" d="M14.5935 2.04496C14.2 1.98595 13.7999 1.98599 13.4063 2.04508C12.9604 2.11205 12.5381 2.27726 11.9793 2.49587L5.65383 4.96725L5.576 4.99741C5.29406 5.10622 4.94009 5.24284 4.66333 5.4915C4.42448 5.7061 4.24081 5.97505 4.12785 6.27562C3.99696 6.62389 3.99852 7.00331 3.99976 7.30551L3.99999 7.38898V16C3.99999 18.6473 5.34564 23.1181 11.6503 26.3314L11.7109 26.3622C12.2332 26.6287 12.6383 26.8354 13.2092 26.9415C13.6576 27.0249 14.2863 27.02 14.7333 26.9295C15.3027 26.8144 15.7234 26.5913 16.2667 26.3032L16.335 26.267C19.3927 24.6473 24 21.5097 24 16V7.38715L24.0002 7.30367C24.0015 7.00141 24.003 6.62191 23.8721 6.27359C23.7591 5.97298 23.5754 5.704 23.3365 5.4894C23.0596 5.24074 22.7055 5.10416 22.4235 4.99538L22.3457 4.96523L16.0207 2.49547C15.4618 2.27697 15.0395 2.11184 14.5935 2.04496ZM13.7033 4.02291C13.9001 3.99336 14.1001 3.99334 14.2969 4.02285C14.493 4.05226 14.6954 4.12507 15.3827 4.39344L21.6182 6.82825C21.7439 6.87733 21.8716 6.9238 21.9937 6.9816C22.0032 7.11633 22 7.25221 22 7.38715V16C22 20.2561 18.4355 22.8911 15.3988 24.4996C14.7675 24.834 14.5952 24.917 14.3368 24.9692C14.141 25.0088 13.7711 25.0117 13.5747 24.9752C13.3135 24.9267 13.1538 24.8529 12.5585 24.5494C6.93379 21.6827 5.99999 17.9065 5.99999 16V7.38898C5.99999 7.25406 5.99684 7.11822 6.00627 6.98351C6.12831 6.92571 6.25598 6.87922 6.38165 6.83012L12.6176 4.39371C13.3049 4.12521 13.5072 4.05236 13.7033 4.02291Z" fill="#023F80"/>
</svg>
