<svg width="24" height="24" viewBox="0 0 24 24" fill="none" xmlns="http://www.w3.org/2000/svg">
<path fill-rule="evenodd" clipRule="evenodd" d="M8.34328 2.1C8.35267 2.1 8.36207 2.1 8.37148 2.1L15.6568 2.1C15.8724 2.09997 16.0847 2.09994 16.2649 2.11467C16.4635 2.13089 16.7009 2.16938 16.9406 2.29152C17.2713 2.45998 17.5401 2.72879 17.7085 3.05942C17.8307 3.29911 17.8692 3.53658 17.8854 3.73517C17.9001 3.91539 17.9001 4.12768 17.9001 4.34322L17.9001 5.92717L21.6307 17.0502C21.6351 17.0631 21.6396 17.0763 21.6442 17.0899C21.7072 17.2758 21.7916 17.5248 21.7835 17.8391C21.7797 17.9894 21.7496 18.1357 21.7215 18.242C21.6934 18.3484 21.6472 18.4904 21.5763 18.623C21.4295 18.8974 21.2646 19.0448 21.1347 19.1609C21.1295 19.1655 21.1243 19.1701 21.1193 19.1747C19.9944 20.1821 17.2858 21.9 12.0001 21.9C6.71429 21.9 4.00571 20.1821 2.88085 19.1747C2.87577 19.1701 2.87063 19.1655 2.86544 19.1609C2.73549 19.0448 2.57057 18.8974 2.42379 18.623C2.35288 18.4904 2.30674 18.3484 2.27862 18.242C2.2505 18.1357 2.22045 17.9894 2.2166 17.8391C2.20855 17.5248 2.29293 17.2758 2.35595 17.0899C2.36055 17.0763 2.36503 17.0631 2.36935 17.0502L6.10005 5.92715V4.37143C6.10005 4.36202 6.10005 4.35262 6.10005 4.34323C6.10002 4.12769 6.09999 3.9154 6.11472 3.73517C6.13094 3.53658 6.16944 3.29911 6.29157 3.05942C6.46003 2.72879 6.72884 2.45998 7.05947 2.29152C7.29916 2.16938 7.53663 2.13089 7.73522 2.11467C7.91544 2.09994 8.12774 2.09997 8.34328 2.1ZM7.90005 5.6H16.1001V4.37143C16.1001 4.13763 16.0995 4.00299 16.0932 3.90685C15.9971 3.90059 15.8624 3.9 15.6286 3.9H8.37148C8.13768 3.9 8.00305 3.90059 7.9069 3.90685C7.90064 4.00299 7.90005 4.13763 7.90005 4.37143V5.6ZM7.5046 7.4L4.07592 17.6226C4.05685 17.6794 4.04354 17.7192 4.03271 17.7535C4.02922 17.7645 4.02635 17.7739 4.024 17.7818C4.038 17.7946 4.05562 17.8105 4.08169 17.8338C4.55052 18.2537 5.55373 18.9822 7.32411 19.4998L9.21974 7.4H7.5046ZM11.0417 7.4L9.0853 19.8877C9.93305 20.0198 10.9004 20.1 12.0001 20.1C13.0997 20.1 14.0671 20.0198 14.9148 19.8877L12.9584 7.4H11.0417ZM14.7804 7.4L16.676 19.4998C18.4464 18.9822 19.4496 18.2537 19.9184 17.8338C19.9445 17.8105 19.9621 17.7946 19.9761 17.7818C19.9737 17.7739 19.9709 17.7645 19.9674 17.7535C19.9566 17.7192 19.9433 17.6794 19.9242 17.6226L16.4955 7.4H14.7804Z" fill="#023F80"/>
</svg>
