<svg width="24" height="24" viewBox="0 0 24 24" fill="none" xmlns="http://www.w3.org/2000/svg">
<path fill-rule="evenodd" clipRule="evenodd" d="M11.1801 3.89997H12.8201C13.9139 3.89997 14.626 3.90138 15.1693 3.94577C15.6917 3.98845 15.8977 4.06172 16.0081 4.11796C16.3844 4.30971 16.6904 4.61567 16.8821 4.99199C16.9384 5.10238 17.0116 5.30838 17.0543 5.83072C17.0987 6.37408 17.1001 7.08617 17.1001 8.17998V15.82C17.1001 16.9138 17.0987 17.6259 17.0543 18.1693C17.0116 18.6916 16.9384 18.8976 16.8821 19.008C16.6904 19.3843 16.3844 19.6903 16.0081 19.882C15.8977 19.9383 15.6917 20.0115 15.1693 20.0542C14.626 20.0986 13.9139 20.1 12.8201 20.1H11.1801C10.0863 20.1 9.3742 20.0986 8.83084 20.0542C8.3085 20.0115 8.10251 19.9383 7.99212 19.882C7.61579 19.6903 7.30983 19.3843 7.11808 19.008C7.06184 18.8976 6.98857 18.6916 6.94589 18.1693C6.9015 17.6259 6.9001 16.9138 6.9001 15.82V8.17997C6.9001 7.08617 6.9015 6.37408 6.94589 5.83072C6.98857 5.30838 7.06184 5.10239 7.11808 4.99199C7.30983 4.61567 7.61579 4.30971 7.99212 4.11796C8.10251 4.06172 8.3085 3.98845 8.83084 3.94577C9.3742 3.90138 10.0863 3.89997 11.1801 3.89997ZM5.1001 8.17997C5.1001 6.05177 5.1001 4.98768 5.51427 4.17481C5.87859 3.4598 6.45992 2.87847 7.17493 2.51415C7.9878 2.09998 9.0519 2.09998 11.1801 2.09998H12.8201C14.9483 2.09998 16.0124 2.09998 16.8253 2.51415C17.5403 2.87847 18.1216 3.4598 18.4859 4.17481C18.9001 4.98768 18.9001 6.05178 18.9001 8.17998V15.82C18.9001 17.9482 18.9001 19.0123 18.4859 19.8252C18.1216 20.5402 17.5403 21.1215 16.8253 21.4858C16.0124 21.9 14.9483 21.9 12.8201 21.9H11.1801C9.0519 21.9 7.9878 21.9 7.17493 21.4858C6.45992 21.1215 5.87859 20.5402 5.51427 19.8252C5.1001 19.0123 5.1001 17.9482 5.1001 15.82V8.17997ZM11.2501 16.2C10.753 16.2 10.3501 16.6029 10.3501 17.1C10.3501 17.597 10.753 18 11.2501 18H12.7501C13.2471 18 13.6501 17.597 13.6501 17.1C13.6501 16.6029 13.2471 16.2 12.7501 16.2H11.2501Z" fill="#023F80"/>
</svg>
