<svg width="28" height="28" viewBox="0 0 28 28" fill="none" xmlns="http://www.w3.org/2000/svg">
<path fill-rule="evenodd" clipRule="evenodd" d="M10 7C6.13401 7 3 10.134 3 14C3 17.866 6.13401 21 10 21C12.6213 21 14.9061 19.5592 16.1056 17.4263C16.1184 17.4006 16.1322 17.3757 16.1471 17.3514C16.6909 16.3561 17 15.2141 17 14C17 10.134 13.866 7 10 7ZM17.5009 18.9753C17.6653 18.9916 17.8318 19 18 19C19.4935 19 20.835 18.3439 21.7497 17.3075C22.1152 16.8935 22.0758 16.2615 21.6617 15.8961C21.2477 15.5306 20.6157 15.57 20.2503 15.9841C19.8045 16.4892 19.1938 16.8418 18.5026 16.9582C18.8249 16.0317 19 15.0363 19 14C19 11.3337 17.8405 8.93813 15.9983 7.29012C16.632 7.1014 17.3037 7 18 7C21.866 7 25 10.134 25 14C25 17.866 21.866 21 18 21C17.3037 21 16.632 20.8986 15.9983 20.7099C16.5695 20.1988 17.0752 19.6159 17.5009 18.9753ZM14.0003 22.0644C12.7952 22.6632 11.4369 23 10 23C5.02944 23 1 18.9706 1 14C1 9.02944 5.02944 5 10 5C11.4369 5 12.7952 5.33675 14.0003 5.93565C15.206 5.33662 16.5648 5 18 5C22.9706 5 27 9.02944 27 14C27 18.9706 22.9706 23 18 23C16.5648 23 15.206 22.6634 14.0003 22.0644ZM6.33827 15.8961C6.75234 15.5306 7.38427 15.57 7.74974 15.9841C8.30091 16.6086 9.10412 17 10 17C10.8959 17 11.6991 16.6086 12.2503 15.9841C12.6157 15.57 13.2477 15.5306 13.6617 15.8961C14.0758 16.2615 14.1152 16.8935 13.7497 17.3075C12.835 18.3439 11.4935 19 10 19C8.50649 19 7.16498 18.3439 6.25026 17.3075C5.8848 16.8935 5.9242 16.2615 6.33827 15.8961ZM6.75 11C6.05964 11 5.5 11.5596 5.5 12.25C5.5 12.9404 6.05964 13.5 6.75 13.5C7.44036 13.5 8 12.9404 8 12.25C8 11.5596 7.44036 11 6.75 11ZM12 12.25C12 11.5596 12.5596 11 13.25 11C13.9404 11 14.5 11.5596 14.5 12.25C14.5 12.9404 13.9404 13.5 13.25 13.5C12.5596 13.5 12 12.9404 12 12.25ZM20 12.25C20 11.5596 20.5596 11 21.25 11C21.9404 11 22.5 11.5596 22.5 12.25C22.5 12.9404 21.9404 13.5 21.25 13.5C20.5596 13.5 20 12.9404 20 12.25Z" fill="#023F80"/>
</svg>
