<svg width="28" height="28" viewBox="0 0 28 28" fill="none" xmlns="http://www.w3.org/2000/svg">
<path fill-rule="evenodd" clipRule="evenodd" d="M10.2929 2.79289C10.6835 2.40237 11.3166 2.40237 11.7072 2.79289L14 5.08579L16.2929 2.7929C16.6835 2.40237 17.3166 2.40237 17.7071 2.79289C18.0977 3.18342 18.0977 3.81658 17.7072 4.20711L15 6.91422V12.2679L19.6365 9.59108L20.6274 5.8931C20.7703 5.35963 21.3187 5.04305 21.8521 5.18599C22.3856 5.32893 22.7022 5.87727 22.5592 6.41074L21.72 9.54289L24.8521 10.3821C25.3856 10.5251 25.7022 11.0734 25.5592 11.6069C25.4163 12.1404 24.868 12.4569 24.3345 12.314L20.6365 11.3231L16.0001 14L20.6365 16.6768L24.3345 15.686C24.868 15.543 25.4163 15.8596 25.5592 16.3931C25.7022 16.9265 25.3856 17.4749 24.8521 17.6178L21.72 18.4571L22.5592 21.5892C22.7022 22.1227 22.3856 22.671 21.8521 22.814C21.3187 22.9569 20.7703 22.6403 20.6274 22.1069L19.6365 18.4089L15 15.732L15 21.0858L17.7072 23.7929C18.0977 24.1834 18.0977 24.8166 17.7072 25.2071C17.3166 25.5976 16.6835 25.5976 16.2929 25.2071L14 22.9142L11.7072 25.2071C11.3166 25.5976 10.6835 25.5976 10.2929 25.2071C9.90241 24.8166 9.90241 24.1834 10.2929 23.7929L13 21.0858L13 15.732L8.36357 18.4089L7.3727 22.1069C7.22976 22.6404 6.68142 22.9569 6.14795 22.814C5.61449 22.6711 5.2979 22.1227 5.44085 21.5892L6.28011 18.4571L3.14795 17.6178C2.61449 17.4749 2.2979 16.9266 2.44085 16.3931C2.58379 15.8596 3.13213 15.543 3.66559 15.686L7.36357 16.6769L12.0001 14L7.36358 11.3231L3.6656 12.314C3.13214 12.4569 2.5838 12.1403 2.44086 11.6069C2.29791 11.0734 2.6145 10.5251 3.14796 10.3821L6.28012 9.54287L5.44086 6.41072C5.29791 5.87726 5.6145 5.32892 6.14796 5.18597C6.68143 5.04303 7.22977 5.35962 7.37271 5.89308L8.36358 9.59106L13 12.2679V6.91422L10.2929 4.20711C9.90241 3.81658 9.90241 3.18342 10.2929 2.79289Z" fill="#023F80"/>
</svg>
