<svg width="24" height="24" viewBox="0 0 24 24" fill="none" xmlns="http://www.w3.org/2000/svg">
<path fill-rule="evenodd" clipRule="evenodd" d="M14.0051 10.4442C13.6376 11.2053 13.1693 11.9759 12.5726 12.5725C11.976 13.1691 11.2054 13.6375 10.4444 14.005C11.2054 14.3725 11.976 14.8408 12.5726 15.4374C13.169 16.0338 13.6374 16.8033 14.0051 17.5631C14.3728 16.8033 14.8412 16.0338 15.4376 15.4374C16.034 14.8411 16.8034 14.3726 17.5633 14.005C16.8034 13.6373 16.034 13.1688 15.4376 12.5725C14.841 11.9759 14.3726 11.2053 14.0051 10.4442ZM13.0591 7.9815C12.6248 9.2619 12.0395 10.56 11.2999 11.2997C10.5602 12.0393 9.26205 12.6246 7.98162 13.0589C7.82703 13.1113 7.6727 13.1615 7.51964 13.2096C7.18089 13.3159 6.84836 13.4114 6.53307 13.4963C6.4495 13.5188 6.36714 13.5405 6.2862 13.5615C5.90489 13.6603 5.90489 14.3496 6.2862 14.4484C6.36714 14.4694 6.4495 14.4912 6.53307 14.5136C6.84836 14.5985 7.18089 14.694 7.51964 14.8003C7.6727 14.8484 7.82703 14.8986 7.98162 14.951C9.26205 15.3853 10.5602 15.9706 11.2999 16.7102C12.0393 17.4497 12.6246 18.7442 13.0588 20.0204C13.111 20.1738 13.161 20.3269 13.2088 20.4788C13.3154 20.8172 13.4112 21.1493 13.4962 21.4642C13.5188 21.548 13.5407 21.6307 13.5619 21.7119C13.661 22.0928 14.3493 22.0928 14.4484 21.7119C14.4695 21.6307 14.4914 21.548 14.5141 21.4642C14.5991 21.1493 14.6949 20.8172 14.8014 20.4788C14.8493 20.3269 14.8993 20.1738 14.9515 20.0204C15.3857 18.7442 15.9709 17.4497 16.7104 16.7102C17.4499 15.9707 18.7443 15.3855 20.0206 14.9513C20.174 14.8991 20.3271 14.8491 20.479 14.8013C20.8173 14.6947 21.1495 14.5989 21.4643 14.5139C21.5482 14.4912 21.6308 14.4694 21.712 14.4482C22.093 14.3491 22.093 13.6608 21.712 13.5617C21.6308 13.5406 21.5482 13.5187 21.4643 13.496C21.1495 13.411 20.8173 13.3152 20.479 13.2087C20.3271 13.1608 20.174 13.1108 20.0206 13.0586C18.7443 12.6244 17.4499 12.0392 16.7104 11.2997C15.9707 10.56 15.3854 9.2619 14.9512 7.9815C14.8988 7.82691 14.8485 7.6726 14.8005 7.51954C14.6942 7.18079 14.5987 6.84826 14.5138 6.53297C14.4913 6.4494 14.4696 6.36704 14.4486 6.2861C14.3497 5.9048 13.6605 5.9048 13.5616 6.2861C13.5407 6.36704 13.5189 6.4494 13.4964 6.53297C13.4116 6.84826 13.316 7.18079 13.2097 7.51954C13.1617 7.6726 13.1115 7.82691 13.0591 7.9815Z" fill="#023F80"/>
<path d="M6.42595 2.31759C6.28312 1.88909 5.67702 1.88909 5.53419 2.31759L5.01467 3.87613C4.83551 4.41362 4.41374 4.83539 3.87625 5.01455L2.31771 5.53407C1.88921 5.6769 1.88921 6.28299 2.31771 6.42583L3.87203 6.94393C4.41189 7.12389 4.83487 7.54854 5.01269 8.08911L5.5336 9.6727C5.67533 10.1036 6.28481 10.1036 6.42653 9.6727L6.94606 8.09335C7.12466 7.55039 7.55052 7.12454 8.09347 6.94593L9.67282 6.42641C10.1037 6.28469 10.1037 5.67521 9.67283 5.53348L8.08923 5.01256C7.54866 4.83474 7.12401 4.41177 6.94406 3.87191L6.42595 2.31759Z" fill="#023F80"/>
</svg>
