<svg width="28" height="28" viewBox="0 0 28 28" fill="none" xmlns="http://www.w3.org/2000/svg">
<path d="M8.5 9C7.94772 9 7.5 9.44772 7.5 10C7.5 10.5523 7.94772 11 8.5 11H19.5C20.0523 11 20.5 10.5523 20.5 10C20.5 9.44772 20.0523 9 19.5 9H8.5Z" fill="#023F80"/>
<path d="M7.5 15C7.5 14.4477 7.94772 14 8.5 14H19.5C20.0523 14 20.5 14.4477 20.5 15C20.5 15.5523 20.0523 16 19.5 16H8.5C7.94772 16 7.5 15.5523 7.5 15Z" fill="#023F80"/>
<path fill-rule="evenodd" clipRule="evenodd" d="M15.9945 3H12.0055C10.6195 2.99999 9.51721 2.99999 8.62839 3.0738C7.71811 3.14939 6.94253 3.30755 6.23415 3.67552C5.1383 4.24477 4.24477 5.1383 3.67552 6.23415C3.30755 6.94253 3.14939 7.71811 3.0738 8.62839C2.99999 9.51721 2.99999 10.6195 3 12.0055V15.9945C2.99999 17.3805 2.99999 18.4828 3.0738 19.3716C3.14939 20.2819 3.30755 21.0575 3.67552 21.7658C4.24477 22.8617 5.1383 23.7552 6.23415 24.3245C6.94253 24.6925 7.71811 24.8506 8.62839 24.9262C9.5172 25 10.6195 25 12.0054 25H15.9945C17.3805 25 18.4828 25 19.3716 24.9262C20.2819 24.8506 21.0575 24.6925 21.7658 24.3245C22.8617 23.7552 23.7552 22.8617 24.3245 21.7658C24.6925 21.0575 24.8506 20.2819 24.9262 19.3716C25 18.4828 25 17.3805 25 15.9946V12.0055C25 10.6195 25 9.5172 24.9262 8.62839C24.8506 7.71811 24.6925 6.94253 24.3245 6.23415C23.7552 5.1383 22.8617 4.24477 21.7658 3.67552C21.0575 3.30755 20.2819 3.14939 19.3716 3.0738C18.4828 2.99999 17.3805 2.99999 15.9945 3ZM7.1561 5.45035C7.53142 5.25539 8.00955 5.13208 8.79391 5.06694C9.59025 5.0008 10.6095 5 12.05 5H15.95C17.3905 5 18.4097 5.0008 19.2061 5.06694C19.9905 5.13208 20.4686 5.25539 20.8439 5.45035C21.5745 5.82985 22.1702 6.42553 22.5497 7.1561C22.7446 7.53142 22.8679 8.00955 22.9331 8.79391C22.9992 9.59025 23 10.6095 23 12.05V15.95C23 17.3905 22.9992 18.4097 22.9331 19.2061C22.8679 19.9905 22.7446 20.4686 22.5497 20.8439C22.1702 21.5745 21.5745 22.1702 20.8439 22.5497C20.4686 22.7446 19.9905 22.8679 19.2061 22.9331C18.8535 22.9623 18.4572 22.9788 18 22.9881V20C18 19.4477 17.5523 19 17 19C16.4477 19 16 19.4477 16 20V23C15.9834 23 15.9667 23 15.95 23H12.05C12.0333 23 12.0166 23 12 23V20C12 19.4477 11.5523 19 11 19C10.4477 19 10 19.4477 10 20V22.9881C9.5428 22.9788 9.14651 22.9623 8.79391 22.9331C8.00955 22.8679 7.53142 22.7446 7.1561 22.5497C6.42553 22.1702 5.82985 21.5745 5.45035 20.8439C5.25539 20.4686 5.13208 19.9905 5.06694 19.2061C5.0008 18.4097 5 17.3905 5 15.95V12.05C5 10.6095 5.0008 9.59025 5.06694 8.79391C5.13208 8.00955 5.25539 7.53142 5.45035 7.1561C5.82985 6.42553 6.42553 5.82985 7.1561 5.45035Z" fill="#023F80"/>
</svg>
