<svg width="28" height="28" viewBox="0 0 28 28" fill="none" xmlns="http://www.w3.org/2000/svg">
<path fill-rule="evenodd" clipRule="evenodd" d="M20.3759 3.40535C19.8052 2.83473 19.334 2.36361 18.9175 2.01163C18.4921 1.6521 18.0609 1.36092 17.5483 1.19435C16.7449 0.933323 15.8795 0.933323 15.0762 1.19435C14.5581 1.36268 14.1231 1.65835 13.6931 2.02333C13.2792 2.37475 12.8094 2.84453 12.2402 3.41373L3.4137 12.2403C2.84449 12.8095 2.3747 13.2792 2.02329 13.6932C1.6583 14.1231 1.36263 14.5582 1.19431 15.0762C0.933277 15.8796 0.933278 16.745 1.19431 17.5484C1.36087 18.061 1.65206 18.4922 2.01159 18.9176C2.36356 19.334 2.83469 19.8053 3.40531 20.3759C3.76697 20.7376 4.34324 20.7681 4.74103 20.4466C5.52562 19.8124 6.68012 19.8607 7.40975 20.5903C8.13938 21.3199 8.18763 22.4744 7.55348 23.259C7.23197 23.6568 7.26244 24.2331 7.62412 24.5947C8.19477 25.1654 8.66601 25.6365 9.08246 25.9885C9.50786 26.348 9.93906 26.6392 10.4517 26.8057C11.2551 27.0668 12.1205 27.0668 12.9238 26.8057C13.4419 26.6374 13.8769 26.3418 14.3069 25.9768C14.7208 25.6254 15.1906 25.1556 15.7598 24.5864L24.5863 15.7598C25.1555 15.1906 25.6253 14.7209 25.9767 14.3069C26.3417 13.877 26.6374 13.4419 26.8057 12.9239C27.0667 12.1205 27.0667 11.2551 26.8057 10.4517C26.6391 9.93911 26.3479 9.5079 25.9884 9.08251C25.6364 8.66606 25.1653 8.19482 24.5947 7.62417C24.233 7.26249 23.6567 7.23202 23.259 7.55354C22.4744 8.1877 21.3199 8.13945 20.5902 7.40982C19.8606 6.68018 19.8123 5.52567 20.4465 4.74108C20.768 4.34329 20.7375 3.76701 20.3759 3.40535ZM16.9303 3.09647C17.0954 3.15011 17.2974 3.26095 17.6265 3.53914C17.8453 3.72408 18.092 3.95783 18.3995 4.26035C17.6827 5.74938 17.9413 7.58937 19.176 8.82403C20.4107 10.0587 22.2507 10.3173 23.7397 9.60058C24.0422 9.90802 24.276 10.1547 24.4609 10.3735C24.7391 10.7027 24.8499 10.9047 24.9036 11.0698C25.0341 11.4715 25.0341 11.9042 24.9036 12.3058C24.8493 12.4728 24.7367 12.6772 24.452 13.0126C24.1598 13.3568 23.7486 13.7691 23.1429 14.3748L21.466 16.0517L20.2071 14.7929C19.8166 14.4024 19.1834 14.4024 18.7929 14.7929C18.4024 15.1834 18.4024 15.8166 18.7929 16.2071L20.0518 17.466L14.3748 23.1429C13.7691 23.7486 13.3568 24.1598 13.0125 24.4521C12.6772 24.7368 12.4727 24.8494 12.3058 24.9036C11.9041 25.0341 11.4714 25.0341 11.0697 24.9036C10.9046 24.85 10.7026 24.7392 10.3735 24.461C10.1547 24.276 9.90797 24.0422 9.60052 23.7397C10.3173 22.2507 10.0586 20.4107 8.82396 19.1761C7.58931 17.9414 5.74933 17.6828 4.26031 18.3995C3.95779 18.0921 3.72403 17.8454 3.53909 17.6266C3.2609 17.2974 3.15006 17.0954 3.09642 16.9303C2.96591 16.5286 2.96591 16.0959 3.09642 15.6943C3.15066 15.5273 3.26329 15.3229 3.54797 14.9875C3.84023 14.6433 4.25142 14.231 4.85711 13.6253L10.5341 7.9483L11.7929 9.2071C12.1834 9.59762 12.8166 9.59762 13.2071 9.2071C13.5976 8.81657 13.5976 8.18341 13.2071 7.79288L11.9483 6.53409L13.6252 4.85716C14.2309 4.25147 14.6432 3.84027 14.9875 3.54801C15.3228 3.26334 15.5273 3.15071 15.6942 3.09647C16.0959 2.96595 16.5286 2.96595 16.9303 3.09647ZM15.9571 10.5429C15.5666 10.1524 14.9334 10.1524 14.5429 10.5429C14.1524 10.9334 14.1524 11.5666 14.5429 11.9571L16.0429 13.4571C16.4334 13.8476 17.0666 13.8476 17.4571 13.4571C17.8476 13.0666 17.8476 12.4334 17.4571 12.0429L15.9571 10.5429Z" fill="#023F80"/>
</svg>
