<svg width="28" height="28" viewBox="0 0 28 28" fill="none" xmlns="http://www.w3.org/2000/svg">
<path fill-rule="evenodd" clipRule="evenodd" d="M6.78831 11.6354C7.22166 11.7438 7.43833 11.7979 7.59966 11.9187C7.74201 12.0253 7.85336 12.1679 7.92224 12.3318C8.0003 12.5177 8.0003 12.741 8.0003 13.1877V21.6741C8.0003 21.7734 8.0004 21.8322 8.00146 21.8809C8.00523 21.887 8.00914 21.8933 8.01314 21.8997C8.01749 21.9066 8.02182 21.9134 8.02608 21.92C8.93244 22.3466 10.9037 23 14.5012 23C17.4475 23 19.1595 22.3707 19.9776 21.9526C19.9815 21.9464 19.9855 21.9399 19.9895 21.9334C19.993 21.9278 19.9963 21.9222 19.9995 21.9168C19.9997 21.9113 19.9998 21.9053 20 21.8987C20.0011 21.8442 20.0012 21.7793 20.0012 21.674V13.1877C20.0012 12.7411 20.0012 12.5178 20.0793 12.332C20.1481 12.1681 20.2594 12.0255 20.4018 11.9189C20.563 11.7981 20.7797 11.7439 21.2129 11.6356L21.5001 11.5637L21.5044 11.5625C21.5197 11.558 21.5534 11.5479 21.6032 11.5311C21.703 11.4975 21.8664 11.4375 22.077 11.3434C22.43 11.1857 22.9095 10.9347 23.4425 10.555L21.3656 6.91941C20.9007 6.10562 20.1521 5.49182 19.263 5.19544C18.8746 5.06599 18.468 5 18.0586 5H18.0434C16.016 7.66757 11.9841 7.66757 9.95664 5H9.94393C9.5345 5 9.12774 5.06601 8.73931 5.19548C7.85017 5.49187 7.10149 6.10563 6.63649 6.91939L4.5588 10.5553C5.09142 10.9348 5.57086 11.1857 5.92383 11.3433C6.13449 11.4374 6.29801 11.4973 6.39787 11.531C6.44771 11.5478 6.48136 11.5579 6.49673 11.5624L6.50111 11.5636L6.78831 11.6354ZM22.0012 13.5C22.0012 13.5 23.3812 13.1548 24.9952 11.8907C25.6194 11.4019 25.7272 10.5225 25.334 9.83407L23.1022 5.92736C22.3932 4.68622 21.2515 3.75009 19.8954 3.29808C19.3032 3.10065 18.6829 3 18.0586 3H17.4893C17.1829 3 16.8962 3.15057 16.7223 3.40275L16.5401 3.66689C15.3136 5.44528 12.6864 5.44528 11.4599 3.66689L11.2774 3.40227C11.1037 3.1504 10.8173 3 10.5114 3H9.94393C9.31953 3 8.69921 3.10066 8.10686 3.29812C6.75089 3.75011 5.60914 4.68612 4.9 5.92711L2.66746 9.83406C2.27407 10.5225 2.38171 11.402 3.00591 11.891C4.61946 13.1548 6.0003 13.5 6.0003 13.5V21.6741C6.0003 22.0566 6.0003 22.2479 6.11274 22.5689C6.18213 22.767 6.43853 23.1746 6.58708 23.323C6.82774 23.5633 6.9245 23.6098 7.118 23.7027C8.31757 24.279 10.5984 25 14.5012 25C17.7544 25 19.7834 24.3 20.898 23.7282C21.1057 23.6217 21.2095 23.5685 21.4401 23.3296C21.5859 23.1785 21.8261 22.7855 21.8939 22.5868C22.0012 22.2725 22.0012 22.073 22.0012 21.674V13.5Z" fill="#023F80"/>
</svg>
