<svg width="28" height="28" viewBox="0 0 28 28" fill="none" xmlns="http://www.w3.org/2000/svg">
<path fill-rule="evenodd" clipRule="evenodd" d="M19.6 4C21.8402 4 22.9603 4 23.816 4.43597C24.5686 4.81947 25.1805 5.43139 25.564 6.18404C26 7.03969 26 8.15979 26 10.4V14.6C26 16.8402 26 17.9603 25.564 18.816C25.1805 19.5686 24.5686 20.1805 23.816 20.564C22.9603 21 21.8402 21 19.6 21L18.4999 21L19.6331 22.3598C20.1759 23.0111 19.7127 24 18.8649 24H9.13497C8.28713 24 7.82397 23.0111 8.36675 22.3598L9.49993 21L8.4 21C6.15979 21 5.03968 21 4.18404 20.564C3.43139 20.1805 2.81947 19.5686 2.43597 18.816C2 17.9603 2 16.8402 2 14.6V10.4C2 8.15979 2 7.03968 2.43597 6.18404C2.81947 5.43139 3.43139 4.81947 4.18404 4.43597C5.03968 4 6.15979 4 8.4 4H19.6ZM24 10.4V14.6C24 15.7531 23.9984 16.4977 23.9521 17.0643C23.9078 17.6077 23.8324 17.8091 23.782 17.908C23.5903 18.2843 23.2843 18.5903 22.908 18.782C22.8091 18.8324 22.6077 18.9078 22.0643 18.9521C21.4977 18.9984 20.7531 19 19.6 19L8.4 19C7.24689 19 6.50235 18.9984 5.93567 18.9521C5.39234 18.9078 5.19091 18.8324 5.09202 18.782C4.71569 18.5903 4.40973 18.2843 4.21799 17.908C4.1676 17.8091 4.09224 17.6077 4.04785 17.0643C4.00155 16.4977 4 15.7531 4 14.6L4 10.4C4 9.24689 4.00155 8.50235 4.04785 7.93567C4.09224 7.39234 4.1676 7.19091 4.21799 7.09202C4.40973 6.71569 4.71569 6.40973 5.09202 6.21799C5.19091 6.1676 5.39234 6.09225 5.93567 6.04785C6.50235 6.00155 7.24689 6 8.4 6L19.6 6C20.7531 6 21.4977 6.00156 22.0643 6.04785C22.6077 6.09225 22.8091 6.1676 22.908 6.21799C23.2843 6.40973 23.5903 6.71569 23.782 7.09202C23.8324 7.19091 23.9078 7.39235 23.9521 7.93567C23.9984 8.50235 24 9.24689 24 10.4Z" fill="#023F80"/>
</svg>
