<svg width="24" height="24" viewBox="0 0 24 24" fill="none" xmlns="http://www.w3.org/2000/svg">
<path fill-rule="evenodd" clipRule="evenodd" d="M6.16458 3.09998H17.8354C18.3653 3.09996 18.8164 3.09995 19.1869 3.13021C19.576 3.16201 19.9546 3.23164 20.3166 3.41606C20.8622 3.69409 21.3059 4.13773 21.5839 4.6834C21.7683 5.04534 21.8379 5.42393 21.8697 5.81309C21.9 6.18352 21.9 6.6347 21.9 7.16457L21.9 7.42974C21.9 7.68406 21.9 7.9261 21.8834 8.13006C21.8652 8.35247 21.8228 8.60758 21.6929 8.86256C21.5107 9.22007 21.2201 9.51073 20.8626 9.69289C20.6076 9.82281 20.3525 9.86519 20.1301 9.88336C19.9261 9.90003 19.6841 9.9 19.4297 9.89998H4.57022C4.3159 9.9 4.07385 9.90003 3.86989 9.88336C3.64748 9.86519 3.39237 9.82281 3.1374 9.69289C2.77989 9.51073 2.48923 9.22007 2.30707 8.86256C2.17715 8.60758 2.13476 8.35247 2.11659 8.13006C2.09993 7.9261 2.09995 7.68406 2.09998 7.42974C2.09998 7.41983 2.09998 7.40991 2.09998 7.39998L2.09998 7.16457C2.09996 6.63471 2.09995 6.18352 2.13022 5.81309C2.16201 5.42393 2.23165 5.04534 2.41606 4.6834C2.69409 4.13773 3.13774 3.69409 3.68341 3.41606C4.04534 3.23164 4.42393 3.16201 4.81309 3.13021C5.18353 3.09995 5.63471 3.09996 6.16458 3.09998ZM4.95967 4.92424C4.68182 4.94694 4.56648 4.9863 4.50059 5.01987C4.29361 5.12533 4.12533 5.29361 4.01987 5.50059C3.9863 5.56648 3.94694 5.68182 3.92424 5.95967C3.90068 6.24802 3.89998 6.62507 3.89998 7.19998V7.39998C3.89998 7.69485 3.90068 7.86188 3.91061 7.98349C3.91375 8.02187 3.91725 8.04602 3.91962 8.0595C3.9255 8.06743 3.93252 8.07446 3.94046 8.08033C3.95394 8.08271 3.97809 8.08621 4.01647 8.08934C4.13807 8.09928 4.3051 8.09998 4.59998 8.09998H19.4C19.6949 8.09998 19.8619 8.09928 19.9835 8.08934C20.0219 8.08621 20.046 8.08271 20.0595 8.08033C20.0674 8.07446 20.0745 8.06743 20.0803 8.0595C20.0827 8.04602 20.0862 8.02187 20.0893 7.98349C20.0993 7.86188 20.1 7.69485 20.1 7.39998V7.19998C20.1 6.62507 20.0993 6.24802 20.0757 5.95967C20.053 5.68182 20.0137 5.56648 19.9801 5.50059C19.8746 5.29361 19.7063 5.12533 19.4994 5.01987C19.4335 4.9863 19.3181 4.94694 19.0403 4.92424C18.7519 4.90068 18.3749 4.89998 17.8 4.89998H6.19998C5.62508 4.89998 5.24803 4.90068 4.95967 4.92424Z" fill="#023F80"/>
<path fill-rule="evenodd" clipRule="evenodd" d="M15.8354 20.9H8.16458C7.63471 20.9 7.18353 20.9 6.81309 20.8697C6.42393 20.8379 6.04534 20.7683 5.68341 20.5839C5.13774 20.3059 4.69409 19.8622 4.41606 19.3165C4.23165 18.9546 4.16201 18.576 4.13022 18.1869C4.09995 17.8164 4.09996 17.3652 4.09998 16.8354L4.09998 8.09998H19.9V16.8354C19.9 17.3653 19.9 17.8164 19.8697 18.1869C19.8379 18.576 19.7683 18.9546 19.5839 19.3165C19.3059 19.8622 18.8622 20.3059 18.3166 20.5839C17.9546 20.7683 17.576 20.8379 17.1869 20.8697C16.8164 20.9 16.3653 20.9 15.8354 20.9ZM5.89998 9.89998H18.1V16.8C18.1 17.3749 18.0993 17.7519 18.0757 18.0403C18.053 18.3181 18.0137 18.4335 17.9801 18.4994C17.8746 18.7063 17.7063 18.8746 17.4994 18.9801C17.4335 19.0137 17.3181 19.053 17.0403 19.0757C16.7519 19.0993 16.3749 19.1 15.8 19.1H12.9V15.1371L13.7508 16.0233C14.095 16.3819 14.6647 16.3935 15.0233 16.0493C15.3819 15.705 15.3935 15.1353 15.0493 14.7767L12.6492 12.2767C12.4817 12.1022 12.251 12.0025 12.0092 12C11.7673 11.9976 11.5346 12.0926 11.3636 12.2636L8.86357 14.7636C8.5121 15.1151 8.5121 15.685 8.86358 16.0364C9.21505 16.3879 9.7849 16.3879 10.1364 16.0364L11.1 15.0728V19.1H8.19998C7.62508 19.1 7.24803 19.0993 6.95967 19.0757C6.68182 19.053 6.56648 19.0137 6.50059 18.9801C6.29361 18.8746 6.12533 18.7063 6.01987 18.4994C5.9863 18.4335 5.94694 18.3181 5.92424 18.0403C5.90068 17.7519 5.89998 17.3749 5.89998 16.8V9.89998Z" fill="#023F80"/>
</svg>
