<svg width="28" height="28" viewBox="0 0 28 28" fill="none" xmlns="http://www.w3.org/2000/svg">
<path d="M12.3701 8.9543L13.7843 10.3685L17.6726 14.2584L19.0876 15.6718L23.7071 20.2929C24.0976 20.6834 24.0976 21.3166 23.7071 21.7071C23.3166 22.0976 22.6834 22.0976 22.2929 21.7071L17.9229 17.3371L17.5252 22.5073C17.467 23.2645 16.806 23.831 16.0488 23.7728C15.7215 23.7476 15.4141 23.6062 15.182 23.3741L10.632 18.8241L4.97514 24.481C4.03233 25.4238 2.61811 24.0096 3.56092 23.0668L9.21778 17.4099L4.66778 12.8599C4.13081 12.3229 4.13081 11.4523 4.66778 10.9154C4.89987 10.6833 5.20733 10.5419 5.53459 10.5167L10.7048 10.119L6.29289 5.70711C5.90237 5.31658 5.90237 4.68342 6.29289 4.29289C6.68342 3.90237 7.31658 3.90237 7.70711 4.29289L12.3693 8.95508L12.3701 8.9543ZM14.4914 6.83298L14.907 6.41734C14.9768 6.34754 15.0244 6.25864 15.0438 6.16184L15.485 3.95553C15.6417 3.17235 16.608 2.87978 17.1727 3.44454L24.5973 10.8692C25.1621 11.4339 24.8695 12.4002 24.0864 12.5569L21.8801 12.9981C21.7833 13.0175 21.6944 13.0651 21.6246 13.1349L21.2089 13.5505C20.8184 13.941 20.1852 13.941 19.7947 13.5505C19.4042 13.16 19.4042 12.5268 19.7947 12.1363L20.2103 11.7206C20.5593 11.3716 21.0038 11.1337 21.4878 11.037L21.8619 10.9621L17.0798 6.18L17.0049 6.55407C16.9081 7.03805 16.6703 7.48255 16.3213 7.83155L15.9056 8.24719C15.5151 8.63771 14.8819 8.63771 14.4914 8.24719C14.1009 7.85666 14.1009 7.2235 14.4914 6.83298ZM12.318 11.7322C11.9857 11.9331 11.6087 12.0554 11.2161 12.0856L7.04287 12.4066L15.6353 20.999L15.9563 16.8258C15.9865 16.4331 16.1088 16.0562 16.3097 15.7239L12.318 11.7322Z" fill="#023F80"/>
</svg>
