<svg width="24" height="24" viewBox="0 0 24 24" fill="none" xmlns="http://www.w3.org/2000/svg">
<path fill-rule="evenodd" clipRule="evenodd" d="M11.3637 2.36358C11.7152 2.01211 12.285 2.01211 12.6365 2.36358L18.6365 8.36358C18.988 8.71505 18.988 9.2849 18.6365 9.63637C18.285 9.98784 17.7152 9.98784 17.3637 9.63637L12.9001 5.17277V16C12.9001 16.497 12.4972 16.9 12.0001 16.9C11.503 16.9 11.1001 16.497 11.1001 16V5.17277L6.63649 9.63637C6.28502 9.98784 5.71517 9.98784 5.3637 9.63637C5.01223 9.2849 5.01223 8.71505 5.3637 8.36358L11.3637 2.36358ZM4.1001 20C4.1001 19.5029 4.50304 19.1 5.0001 19.1H19.0001C19.4972 19.1 19.9001 19.5029 19.9001 20C19.9001 20.497 19.4972 20.9 19.0001 20.9H5.0001C4.50304 20.9 4.1001 20.497 4.1001 20Z" fill="#023F80"/>
</svg>
