<svg width="24" height="24" viewBox="0 0 24 24" fill="none" xmlns="http://www.w3.org/2000/svg">
<path fill-rule="evenodd" clipRule="evenodd" d="M8.4998 8.09998C8.4998 6.16698 10.0668 4.59998 11.9998 4.59998C13.9328 4.59998 15.4998 6.16698 15.4998 8.09998C15.4998 10.033 13.9328 11.6 11.9998 11.6C10.0668 11.6 8.4998 10.033 8.4998 8.09998ZM11.9998 9.79998C11.0609 9.79998 10.2998 9.03886 10.2998 8.09998C10.2998 7.16109 11.0609 6.39998 11.9998 6.39998C12.9387 6.39998 13.6998 7.16109 13.6998 8.09998C13.6998 9.03886 12.9387 9.79998 11.9998 9.79998Z" fill="#023F80"/>
<path fill-rule="evenodd" clipRule="evenodd" d="M12.0002 13.1C10.4962 13.1 9.07464 13.4536 7.99811 14.115C6.92022 14.7773 6.10019 15.8173 6.10019 17.1547C6.10019 17.9642 6.37866 18.6871 6.9514 19.1975C7.50957 19.695 8.24524 19.9 9.00019 19.9H15.0002C15.7551 19.9 16.4908 19.695 17.049 19.1975C17.6217 18.6871 17.9002 17.9642 17.9002 17.1547C17.9002 15.8173 17.0802 14.7773 16.0023 14.115C14.9257 13.4536 13.5042 13.1 12.0002 13.1ZM7.90019 17.1547C7.90019 16.6374 8.20555 16.1002 8.94035 15.6487C9.67652 15.1964 10.755 14.9 12.0002 14.9C13.2454 14.9 14.3239 15.1964 15.06 15.6487C15.7948 16.1002 16.1002 16.6374 16.1002 17.1547C16.1002 17.5406 15.9787 17.7403 15.8514 17.8537C15.7096 17.9801 15.4452 18.1 15.0002 18.1H9.00019C8.55513 18.1 8.2908 17.9801 8.14898 17.8537C8.02172 17.7403 7.90019 17.5406 7.90019 17.1547Z" fill="#023F80"/>
<path d="M5.90322 13.7C5.90322 13.2029 5.50028 12.8 5.00322 12.8C2.99647 12.8 1.05322 14.076 1.05322 16.1571C1.05322 17.4202 1.92338 18.9 3.66033 18.9C4.15738 18.9 4.56033 18.4971 4.56033 18C4.56033 17.5029 4.15738 17.1 3.66033 17.1C3.38839 17.1 3.2105 16.9958 3.08499 16.846C2.94514 16.6791 2.85322 16.4292 2.85322 16.1571C2.85322 15.4261 3.5925 14.6 5.00322 14.6C5.50028 14.6 5.90322 14.1971 5.90322 13.7Z" fill="#023F80"/>
<path d="M6.31434 5.45905C6.8064 5.38875 7.26228 5.73065 7.33258 6.22271C7.40288 6.71477 7.06098 7.17065 6.56892 7.24095C5.96098 7.32781 5.50005 7.84759 5.50005 8.46644C5.50005 9.14569 6.05505 9.70472 6.75005 9.70472C7.24711 9.70472 7.65005 10.1077 7.65005 10.6047C7.65005 11.1018 7.24711 11.5047 6.75005 11.5047C5.07022 11.5047 3.70005 10.1491 3.70005 8.46644C3.70005 6.93173 4.83968 5.66973 6.31434 5.45905Z" fill="#023F80"/>
<path d="M18.0964 13.7C18.0964 13.2029 18.4993 12.8 18.9964 12.8C21.0031 12.8 22.9464 14.076 22.9464 16.1571C22.9464 17.4202 22.0762 18.9 20.3393 18.9C19.8422 18.9 19.4393 18.4971 19.4393 18C19.4393 17.5029 19.8422 17.1 20.3393 17.1C20.6112 17.1 20.7891 16.9958 20.9146 16.846C21.0545 16.6791 21.1464 16.4292 21.1464 16.1571C21.1464 15.4261 20.4071 14.6 18.9964 14.6C18.4993 14.6 18.0964 14.1971 18.0964 13.7Z" fill="#023F80"/>
<path d="M17.6858 5.45905C17.1937 5.38875 16.7378 5.73065 16.6675 6.22271C16.5972 6.71477 16.9391 7.17065 17.4312 7.24095C18.0391 7.32781 18.5 7.84759 18.5 8.46644C18.5 9.14569 17.945 9.70472 17.25 9.70472C16.753 9.70472 16.35 10.1077 16.35 10.6047C16.35 11.1018 16.753 11.5047 17.25 11.5047C18.9299 11.5047 20.3 10.1491 20.3 8.46644C20.3 6.93173 19.1604 5.66973 17.6858 5.45905Z" fill="#023F80"/>
</svg>
