<svg width="28" height="28" viewBox="0 0 28 28" fill="none" xmlns="http://www.w3.org/2000/svg">
<path fill-rule="evenodd" clipRule="evenodd" d="M9.35719 5H13.6428C14.7266 4.99999 15.6007 4.99998 16.3086 5.05782C17.0375 5.11737 17.6777 5.24318 18.27 5.54497C19.2108 6.02433 19.9757 6.78924 20.455 7.73005C20.6862 8.18379 20.8141 8.66564 20.8881 9.19393L21.3254 8.91036C21.6264 8.71518 21.9274 8.52 22.2282 8.32466C22.467 8.16964 22.748 7.9872 23.0015 7.85392C23.2557 7.72023 23.795 7.45894 24.4826 7.50552C25.2644 7.55847 25.9856 7.94844 26.4577 8.57574C26.8732 9.12781 26.9478 9.72379 26.9741 10.0099C27.0003 10.295 27.0001 10.63 27 10.9141V17.0859C27.0001 17.37 27.0003 17.705 26.9741 17.9901C26.9478 18.2762 26.8732 18.8722 26.4577 19.4243C25.9856 20.0516 25.2644 20.4415 24.4826 20.4945C23.795 20.5411 23.2557 20.2798 23.0015 20.1461C22.748 20.0128 22.467 19.8304 22.2282 19.6753C21.9265 19.4795 21.6248 19.2838 21.323 19.0881L20.8881 18.8061C20.8141 19.3344 20.6862 19.8162 20.455 20.27C19.9757 21.2108 19.2108 21.9757 18.27 22.455C17.6777 22.7568 17.0375 22.8826 16.3086 22.9422C15.6008 23 14.7266 23 13.6428 23H9.35717C8.2734 23 7.39925 23 6.69138 22.9422C5.96253 22.8826 5.32234 22.7568 4.73005 22.455C3.78924 21.9757 3.02433 21.2108 2.54497 20.27C2.24318 19.6777 2.11737 19.0375 2.05782 18.3086C1.99998 17.6007 1.99999 16.7266 2 15.6428V12.3572C1.99999 11.2734 1.99998 10.3993 2.05782 9.69138C2.11737 8.96253 2.24318 8.32234 2.54497 7.73005C3.02433 6.78924 3.78924 6.02433 4.73005 5.54497C5.32234 5.24318 5.96253 5.11737 6.69138 5.05782C7.39925 4.99998 8.27341 4.99999 9.35719 5ZM21 15.6428V12.3572V11.5052L23.2696 10.0331C23.8328 9.6678 24.1144 9.48516 24.3474 9.50094C24.5505 9.5147 24.7375 9.61598 24.8597 9.77839C25 9.96478 25 10.2999 25 10.9702V17.0298C25 17.7001 25 18.0352 24.8597 18.2216C24.7375 18.384 24.5505 18.4853 24.3474 18.4991C24.1144 18.5148 23.8328 18.3322 23.2696 17.9669L21 16.4948V15.6428ZM6.85424 7.05118C6.24907 7.10062 5.90139 7.19279 5.63803 7.32698C5.07354 7.6146 4.6146 8.07354 4.32698 8.63803C4.19279 8.90138 4.10062 9.24907 4.05118 9.85424C4.00078 10.4711 4 11.2634 4 12.4V15.6C4 16.7366 4.00078 17.5289 4.05118 18.1458C4.10062 18.7509 4.19279 19.0986 4.32698 19.362C4.6146 19.9265 5.07354 20.3854 5.63803 20.673C5.90139 20.8072 6.24907 20.8994 6.85424 20.9488C7.47108 20.9992 8.26339 21 9.4 21H13.6C14.7366 21 15.5289 20.9992 16.1458 20.9488C16.7509 20.8994 17.0986 20.8072 17.362 20.673C17.9265 20.3854 18.3854 19.9265 18.673 19.362C18.8072 19.0986 18.8994 18.7509 18.9488 18.1458C18.9992 17.5289 19 16.7366 19 15.6V12.4C19 11.2634 18.9992 10.4711 18.9488 9.85424C18.8994 9.24907 18.8072 8.90138 18.673 8.63803C18.3854 8.07354 17.9265 7.6146 17.362 7.32698C17.0986 7.19279 16.7509 7.10062 16.1458 7.05118C15.5289 7.00078 14.7366 7 13.6 7H9.4C8.2634 7 7.47108 7.00078 6.85424 7.05118Z" fill="#023F80"/>
<path d="M12.5 13.4142V17C12.5 17.5523 12.0523 18 11.5 18C10.9477 18 10.5 17.5523 10.5 17V13.4142L9.20711 14.7071C8.81658 15.0976 8.18342 15.0976 7.79289 14.7071C7.40237 14.3166 7.40237 13.6834 7.79289 13.2929L10.7929 10.2929C11.1834 9.90237 11.8166 9.90237 12.2071 10.2929L15.2071 13.2929C15.5976 13.6834 15.5976 14.3166 15.2071 14.7071C14.8166 15.0976 14.1834 15.0976 13.7929 14.7071L12.5 13.4142Z" fill="#023F80"/>
</svg>
