<svg width="24" height="24" viewBox="0 0 24 24" fill="none" xmlns="http://www.w3.org/2000/svg">
<path fill-rule="evenodd" clipRule="evenodd" d="M7.7624 3.09998H7.8001H15.5001C17.3779 3.09998 18.9001 4.62221 18.9001 6.49998V7.23155C19.2047 7.29223 19.4935 7.38383 19.7707 7.52505C20.5045 7.89896 21.1011 8.49558 21.475 9.22941C21.7139 9.6983 21.8108 10.2004 21.8562 10.7563C21.9001 11.2934 21.9001 11.9542 21.9001 12.7623V12.8V14.2V14.2377C21.9001 15.0457 21.9001 15.7066 21.8562 16.2437C21.8108 16.7996 21.7139 17.3017 21.475 17.7705C21.1011 18.5044 20.5045 19.101 19.7707 19.4749C19.3018 19.7138 18.7997 19.8107 18.2438 19.8561C17.7067 19.9 17.0459 19.9 16.2378 19.9H16.2001H10.502C10.5013 19.9 10.5007 19.9 10.5001 19.9H7.8001H7.76239C7.76236 19.9 7.76233 19.9 7.7623 19.9C6.95429 19.9 6.29347 19.9 5.75642 19.8561C5.72167 19.8533 5.68714 19.8502 5.65281 19.847C5.13787 19.798 4.66912 19.6989 4.22954 19.4749C4.18367 19.4515 4.13834 19.4273 4.09357 19.4022C3.422 19.0259 2.87571 18.4585 2.52517 17.7705C2.28626 17.3017 2.18938 16.7996 2.14396 16.2437C2.10008 15.7066 2.10009 15.0457 2.1001 14.2377V14.2377V14.2V8.99998V8.79998V8.76228V8.76226C2.10009 7.95421 2.10008 7.29337 2.14396 6.75629C2.18938 6.20038 2.28626 5.6983 2.52517 5.22941C2.89908 4.49558 3.4957 3.89896 4.22954 3.52505C4.69842 3.28614 5.2005 3.18926 5.75642 3.14384C6.29349 3.09996 6.95433 3.09997 7.76238 3.09998H7.7624ZM3.9001 8.99998V14.2C3.9001 15.0549 3.9008 15.642 3.93798 16.0971C3.97431 16.5417 4.04092 16.7805 4.12898 16.9534C4.33032 17.3485 4.65158 17.6698 5.04672 17.8711C5.21956 17.9592 5.45839 18.0258 5.90299 18.0621C6.3581 18.0993 6.94517 18.1 7.8001 18.1H10.5001H16.2001C17.055 18.1 17.6421 18.0993 18.0972 18.0621C18.5418 18.0258 18.7806 17.9592 18.9535 17.8711C19.3486 17.6698 19.6699 17.3485 19.8712 16.9534C19.9593 16.7805 20.0259 16.5417 20.0622 16.0971C20.0994 15.642 20.1001 15.0549 20.1001 14.2V12.8C20.1001 11.945 20.0994 11.358 20.0622 10.9029C20.0259 10.4583 19.9593 10.2194 19.8712 10.0466C19.6699 9.65146 19.3486 9.3302 18.9535 9.12886C18.7806 9.04079 18.5418 8.97419 18.0972 8.93786C17.6421 8.90068 17.055 8.89998 16.2001 8.89998H3.9001V8.99998ZM3.92453 7.09998H16.2001L16.2378 7.09998H16.2378C16.5463 7.09997 16.8332 7.09997 17.1001 7.10241V6.49998C17.1001 5.61632 16.3838 4.89998 15.5001 4.89998H7.8001C6.94517 4.89998 6.3581 4.90068 5.90299 4.93786C5.45839 4.97419 5.21956 5.04079 5.04672 5.12886C4.65158 5.3302 4.33032 5.65146 4.12898 6.0466C4.04092 6.21944 3.97431 6.45827 3.93798 6.90287C3.93283 6.96592 3.92838 7.0315 3.92453 7.09998ZM15.1001 14C15.1001 13.5029 15.503 13.1 16.0001 13.1H17.2001C17.6972 13.1 18.1001 13.5029 18.1001 14C18.1001 14.497 17.6972 14.9 17.2001 14.9H16.0001C15.503 14.9 15.1001 14.497 15.1001 14Z" fill="#023F80"/>
</svg>
