<svg width="24" height="24" viewBox="0 0 24 24" fill="none" xmlns="http://www.w3.org/2000/svg">
<path fill-rule="evenodd" clipRule="evenodd" d="M9.7624 2.09998H9.8001H14.2001H14.2378C15.0458 2.09997 15.7067 2.09996 16.2438 2.14384C16.7997 2.18926 17.3018 2.28614 17.7707 2.52505C18.5045 2.89896 19.1011 3.49558 19.475 4.22941C19.7139 4.6983 19.8108 5.20038 19.8562 5.75629C19.9001 6.29337 19.9001 6.95422 19.9001 7.76227V7.79998V16.2V16.2377C19.9001 17.0457 19.9001 17.7066 19.8562 18.2437C19.8108 18.7996 19.7139 19.3017 19.475 19.7705C19.1011 20.5044 18.5045 21.101 17.7707 21.4749C17.3018 21.7138 16.7997 21.8107 16.2438 21.8561C15.7067 21.9 15.0459 21.9 14.2378 21.9H14.2001H9.8001H9.7624C8.95434 21.9 8.29349 21.9 7.75642 21.8561C7.2005 21.8107 6.69842 21.7138 6.22954 21.4749C5.4957 21.101 4.89908 20.5044 4.52517 19.7705C4.28626 19.3017 4.18938 18.7996 4.14396 18.2437C4.10008 17.7066 4.10009 17.0457 4.1001 16.2377V16.2V7.79998V7.76227C4.10009 6.95424 4.10008 6.29336 4.14396 5.75629C4.18938 5.20038 4.28626 4.6983 4.52517 4.22941C4.89908 3.49558 5.4957 2.89896 6.22954 2.52505C6.69842 2.28614 7.2005 2.18926 7.75642 2.14384C8.29349 2.09996 8.95435 2.09997 9.7624 2.09998ZM7.90299 3.93786C7.45839 3.97419 7.21957 4.04079 7.04672 4.12886C6.65158 4.3302 6.33032 4.65146 6.12899 5.0466C6.04092 5.21944 5.97431 5.45827 5.93798 5.90287C5.9008 6.35798 5.9001 6.94505 5.9001 7.79998V8.09998H18.1001V7.79998C18.1001 6.94505 18.0994 6.35798 18.0622 5.90287C18.0259 5.45827 17.9593 5.21944 17.8712 5.0466C17.6699 4.65146 17.3486 4.3302 16.9535 4.12886C16.7806 4.04079 16.5418 3.97419 16.0972 3.93786C15.6421 3.90068 15.055 3.89998 14.2001 3.89998H9.8001C8.94517 3.89998 8.3581 3.90068 7.90299 3.93786ZM5.9001 16.2V9.89998H18.1001V16.2C18.1001 17.0549 18.0994 17.642 18.0622 18.0971C18.0259 18.5417 17.9593 18.7805 17.8712 18.9534C17.6699 19.3485 17.3486 19.6698 16.9535 19.8711C16.7806 19.9592 16.5418 20.0258 16.0972 20.0621C15.6421 20.0993 15.055 20.1 14.2001 20.1H9.8001C8.94517 20.1 8.3581 20.0993 7.90299 20.0621C7.45839 20.0258 7.21957 19.9592 7.04672 19.8711C6.65158 19.6698 6.33032 19.3485 6.12899 18.9534C6.04092 18.7805 5.97431 18.5417 5.93798 18.0971C5.9008 17.642 5.9001 17.0549 5.9001 16.2ZM10.4001 15C10.4001 14.1163 11.1164 13.4 12.0001 13.4C12.8838 13.4 13.6001 14.1163 13.6001 15C13.6001 15.8836 12.8838 16.6 12.0001 16.6C11.1164 16.6 10.4001 15.8836 10.4001 15ZM12.0001 11.6C10.1223 11.6 8.6001 13.1222 8.6001 15C8.6001 16.8777 10.1223 18.4 12.0001 18.4C13.8779 18.4 15.4001 16.8777 15.4001 15C15.4001 13.1222 13.8779 11.6 12.0001 11.6ZM13.0001 5.99998C13.0001 5.50292 13.403 5.09998 13.9001 5.09998H15.4001C15.8971 5.09998 16.3001 5.50292 16.3001 5.99998C16.3001 6.49703 15.8971 6.89998 15.4001 6.89998H13.9001C13.403 6.89998 13.0001 6.49703 13.0001 5.99998ZM11.0001 5.09998C10.503 5.09998 10.1001 5.50292 10.1001 5.99998C10.1001 6.49703 10.503 6.89998 11.0001 6.89998C11.4972 6.89998 11.9001 6.49703 11.9001 5.99998C11.9001 5.50292 11.4972 5.09998 11.0001 5.09998Z" fill="#023F80"/>
</svg>
