<svg width="28" height="28" viewBox="0 0 28 28" fill="none" xmlns="http://www.w3.org/2000/svg">
<path fill-rule="evenodd" clipRule="evenodd" d="M11.6 6H16.4C18.1132 6 19.2777 6.00156 20.1779 6.0751C21.0548 6.14674 21.5032 6.27659 21.816 6.43597C22.5686 6.81947 23.1805 7.43139 23.564 8.18404C23.7234 8.49684 23.8533 8.94524 23.9249 9.82208C23.9984 10.7223 24 11.8868 24 13.6V14.4C24 16.1132 23.9984 17.2777 23.9249 18.1779C23.8533 19.0548 23.7234 19.5032 23.564 19.816C23.1805 20.5686 22.5686 21.1805 21.816 21.564C21.5032 21.7234 21.0548 21.8533 20.1779 21.9249C19.2777 21.9984 18.1132 22 16.4 22H11.6C9.88684 22 8.72225 21.9984 7.82208 21.9249C6.94524 21.8533 6.49684 21.7234 6.18404 21.564C5.43139 21.1805 4.81947 20.5686 4.43597 19.816C4.27659 19.5032 4.14674 19.0548 4.0751 18.1779C4.00156 17.2777 4 16.1132 4 14.4V13.6C4 11.8868 4.00156 10.7223 4.0751 9.82208C4.14674 8.94524 4.27659 8.49684 4.43597 8.18404C4.81947 7.43139 5.43139 6.81947 6.18404 6.43597C6.49684 6.27659 6.94524 6.14674 7.82208 6.0751C8.72225 6.00156 9.88684 6 11.6 6ZM2 13.6C2 10.2397 2 8.55953 2.65396 7.27606C3.2292 6.14708 4.14708 5.2292 5.27606 4.65396C6.55953 4 8.23969 4 11.6 4H16.4C19.7603 4 21.4405 4 22.7239 4.65396C23.8529 5.2292 24.7708 6.14708 25.346 7.27606C26 8.55953 26 10.2397 26 13.6V14.4C26 17.7603 26 19.4405 25.346 20.7239C24.7708 21.8529 23.8529 22.7708 22.7239 23.346C21.4405 24 19.7603 24 16.4 24H11.6C8.23969 24 6.55953 24 5.27606 23.346C4.14708 22.7708 3.2292 21.8529 2.65396 20.7239C2 19.4405 2 17.7603 2 14.4V13.6ZM8.5 9.25C8.5 8.55964 7.94036 8 7.25 8C6.55964 8 6 8.55964 6 9.25C6 9.94036 6.55964 10.5 7.25 10.5C7.94036 10.5 8.5 9.94036 8.5 9.25ZM12 9.25C12 8.55964 11.4404 8 10.75 8C10.0596 8 9.5 8.55964 9.5 9.25C9.5 9.94036 10.0596 10.5 10.75 10.5C11.4404 10.5 12 9.94036 12 9.25ZM14.25 8C14.9404 8 15.5 8.55964 15.5 9.25C15.5 9.94036 14.9404 10.5 14.25 10.5C13.5596 10.5 13 9.94036 13 9.25C13 8.55964 13.5596 8 14.25 8ZM18.169 12.2567C18.5795 12.6262 18.6128 13.2585 18.2433 13.669L13.7433 18.669C13.3837 19.0685 12.7727 19.1123 12.3598 18.7682L9.35982 16.2682C8.93554 15.9147 8.87821 15.2841 9.23178 14.8598C9.58534 14.4355 10.2159 14.3782 10.6402 14.7318L12.9007 16.6155L16.7567 12.331C17.1262 11.9205 17.7585 11.8872 18.169 12.2567Z" fill="#023F80"/>
</svg>
