<svg width="24" height="24" viewBox="0 0 24 24" fill="none" xmlns="http://www.w3.org/2000/svg">
<path d="M9.0001 12.1972C9.0001 14.5183 10.1303 16 11.9807 16C13.8311 16 15.0001 14.4845 15.0001 12.1972V11.7859C15.0001 9.46476 13.8865 7.99998 12.0195 7.99998C10.158 7.99998 9.0001 9.49293 9.0001 11.7859V12.1972ZM10.8394 11.7915C10.8394 10.3324 11.266 9.4873 11.9973 9.4873C12.7286 9.4873 13.1663 10.338 13.1663 11.7915V12.1915C13.1663 13.6507 12.7286 14.5127 12.0029 14.5127C11.2716 14.5127 10.8394 13.6563 10.8394 12.1915V11.7915Z" fill="#023F80"/>
<path fill-rule="evenodd" clipRule="evenodd" d="M12.0001 2.09998C17.4672 2.09998 21.9001 6.53285 21.9001 12C21.9001 17.4671 17.4672 21.9 12.0001 21.9C6.53297 21.9 2.1001 17.4671 2.1001 12C2.1001 6.53285 6.53298 2.09998 12.0001 2.09998ZM12.0001 3.89998C7.52609 3.89998 3.9001 7.52597 3.9001 12C3.9001 16.474 7.52609 20.1 12.0001 20.1C16.4741 20.1 20.1001 16.474 20.1001 12C20.1001 7.52597 16.4741 3.89998 12.0001 3.89998Z" fill="#023F80"/>
</svg>
