<svg width="24" height="24" viewBox="0 0 24 24" fill="none" xmlns="http://www.w3.org/2000/svg">
<path d="M8.14653 15.007C8.14653 15.6389 8.48227 16 9.07979 16C9.67162 16 10.0074 15.6445 10.0074 15.007V9.13397C10.0074 8.44567 9.5635 7.99998 8.89769 7.99998C8.51642 7.99998 8.11238 8.12974 7.66851 8.41182L6.74094 9.02677C6.40519 9.23552 6.23447 9.48376 6.23447 9.7602C6.23447 10.1326 6.50762 10.4034 6.88321 10.4034C7.071 10.4034 7.23033 10.3469 7.52625 10.1608L8.12376 9.7602H8.14653V15.007Z" fill="#023F80"/>
<path d="M11.1683 12.0451C11.1683 13.2524 11.4357 14.2397 11.9479 14.9111C12.4885 15.6276 13.3079 16 14.3152 16C16.0565 16 17.2345 14.9055 17.2345 13.2637C17.2345 11.8025 16.2443 10.7814 14.8216 10.7814C13.9851 10.7814 13.2453 11.2214 12.9722 11.8815H12.921C12.9267 10.2962 13.4559 9.43298 14.4688 9.43298C14.8558 9.43298 15.1631 9.55146 15.5444 9.83919C15.8516 10.0592 16.0394 10.1326 16.2841 10.1326C16.6996 10.1326 16.9898 9.86175 16.9898 9.47247C16.9898 9.13961 16.7394 8.7729 16.324 8.49645C15.8403 8.17487 15.1802 7.99998 14.4574 7.99998C12.3576 7.99998 11.1683 9.46119 11.1683 12.0451ZM13.1315 13.3314C13.1315 12.6206 13.6209 12.1072 14.3038 12.1072C14.9924 12.1072 15.4647 12.6093 15.4647 13.3371C15.4647 14.0761 14.9924 14.5783 14.3209 14.5783C13.6323 14.5783 13.1315 14.0649 13.1315 13.3314Z" fill="#023F80"/>
<path fill-rule="evenodd" clipRule="evenodd" d="M12.0001 2.09998C17.4672 2.09998 21.9001 6.53285 21.9001 12C21.9001 17.4671 17.4672 21.9 12.0001 21.9C6.53297 21.9 2.1001 17.4671 2.1001 12C2.1001 6.53285 6.53298 2.09998 12.0001 2.09998ZM12.0001 3.89998C7.52609 3.89998 3.9001 7.52597 3.9001 12C3.9001 16.474 7.52609 20.1 12.0001 20.1C16.4741 20.1 20.1001 16.474 20.1001 12C20.1001 7.52597 16.4741 3.89998 12.0001 3.89998Z" fill="#023F80"/>
</svg>
