<svg width="24" height="24" viewBox="0 0 24 24" fill="none" xmlns="http://www.w3.org/2000/svg">
<path fill-rule="evenodd" clipRule="evenodd" d="M7.97587 7.21071C7.96883 7.33929 7.96526 7.46881 7.96526 7.59917C7.96526 7.91825 7.98663 8.23231 8.02801 8.53998L7.87325 8.53979C7.49968 8.53979 7.24901 8.77384 7.24901 9.12306C7.24901 9.44619 7.45205 9.68991 7.765 9.73542L7.87325 9.74309L8.30009 9.74292C8.43849 10.1728 8.61739 10.5844 8.83227 10.9729L5.60138 10.9721C5.22537 10.9721 4.97592 11.2147 4.97592 11.564C4.97592 11.8959 5.17798 12.1246 5.4925 12.1671L5.60138 12.1742L9.67264 12.1738C10.0861 12.6491 10.563 13.067 11.0899 13.4144L4.48674 13.4142C4.11195 13.4142 3.85398 13.6654 3.85398 14.0245C3.85398 14.3388 4.05702 14.5737 4.37618 14.6175L4.48674 14.6249H11.9643C12.3196 14.6249 12.5886 14.8945 12.5886 15.2253C12.5886 15.5407 12.3707 15.7986 12.0681 15.847L11.9643 15.8552H5.60138C5.22537 15.8552 4.97592 16.1064 4.97592 16.4654C4.97592 16.7797 5.17798 17.0146 5.4925 17.0584L5.60138 17.0658H14.4066C14.8604 17.0658 15.172 17.344 15.172 17.7385C15.172 18.0462 15.0497 18.3102 14.6749 18.5225L14.5404 18.5914L11.8207 19.84C11.4642 20.0005 11.2865 20.2971 11.4119 20.6193C11.5236 20.9105 11.795 21.0349 12.1595 20.9452L12.2844 20.9073L16.7052 19.318C19.7266 18.2323 20.9119 16.3306 20.9119 13.7181C20.9119 12.9136 20.7838 12.1873 20.5356 11.5503C20.8483 11.0953 21.1093 10.5999 21.3086 10.0737C21.9449 11.0902 22.2857 12.3411 22.2857 13.7635C22.2857 16.9313 20.6506 19.1704 17.4392 20.416L17.1335 20.5299L12.7042 22.1179C11.5555 22.5321 10.5832 22.1633 10.2267 21.194C9.93346 20.374 10.2471 19.5627 11.0804 19.1269L11.2427 19.0496L12.4718 18.5375C12.518 18.5203 12.5338 18.4921 12.5338 18.4664C12.5338 18.4259 12.5194 18.4055 12.4897 18.3978L12.4547 18.3941H5.46753C4.38939 18.3941 3.69335 17.6944 3.69335 16.6259C3.69335 16.2767 3.80895 15.9532 4.01339 15.702C3.11413 15.5488 2.57141 14.9386 2.57141 14.0245C2.57141 13.1349 3.13238 12.4977 3.99757 12.3372C3.80044 12.1019 3.69335 11.798 3.69335 11.4831C3.69335 10.5515 4.29684 9.90733 5.23523 9.83863L5.40425 9.83254H6.28647C6.065 9.5985 5.94819 9.24927 5.94819 8.89025C5.94819 7.95748 6.59292 7.28922 7.54204 7.21784L7.71263 7.21151L7.97587 7.21071ZM14.8623 1.71436C18.0898 1.71436 20.7063 4.34908 20.7063 7.59917C20.7063 10.8493 18.0898 13.484 14.8623 13.484C11.6347 13.484 9.01826 10.8493 9.01826 7.59917C9.01826 4.34908 11.6347 1.71436 14.8623 1.71436ZM14.8623 2.93971C12.3068 2.93971 10.2351 5.02582 10.2351 7.59917C10.2351 10.1725 12.3068 12.2586 14.8623 12.2586C17.4178 12.2586 19.4894 10.1725 19.4894 7.59917C19.4894 5.02582 17.4178 2.93971 14.8623 2.93971ZM14.8998 4.02351C15.0552 4.02351 15.1817 4.07144 15.2794 4.16729C15.3575 4.24398 15.4044 4.34003 15.42 4.45546L15.4259 4.54567V4.90134L15.6742 4.95189C16.0037 5.03423 16.3267 5.1763 16.6433 5.3781C16.7335 5.43864 16.7974 5.50548 16.835 5.57864C16.8725 5.65179 16.8913 5.74134 16.8913 5.84728C16.8913 5.99863 16.8462 6.12981 16.7561 6.2408C16.6659 6.35179 16.5607 6.40728 16.4404 6.40728C16.3803 6.40728 16.3227 6.39719 16.2676 6.37701C16.2125 6.35683 16.1323 6.31899 16.0271 6.2635C15.992 6.24332 15.9144 6.2017 15.7941 6.13863C15.6739 6.07557 15.5449 6.02512 15.4071 5.98728C15.2693 5.94945 15.1228 5.93053 14.9675 5.93053C14.742 5.93053 14.5592 5.97972 14.4189 6.07809C14.2786 6.17647 14.2085 6.3089 14.2085 6.47539C14.2085 6.63683 14.2886 6.75791 14.4489 6.83863C14.6093 6.91935 14.8623 7.00007 15.208 7.08079C15.5787 7.16656 15.8831 7.25737 16.121 7.35322C16.359 7.44908 16.5644 7.60295 16.7373 7.81484C16.9101 8.02673 16.9965 8.31178 16.9965 8.66997C16.9965 9.07862 16.8575 9.42673 16.5795 9.71429C16.3411 9.96078 16.0319 10.135 15.6519 10.2369L15.456 10.2819V10.6527L15.4501 10.7429C15.4345 10.8583 15.3876 10.9544 15.3094 11.031C15.2117 11.1269 15.0852 11.1748 14.9299 11.1748C14.7746 11.1748 14.6481 11.1269 14.5504 11.031C14.4722 10.9544 14.4253 10.8583 14.4097 10.7429L14.4038 10.6527V10.3121L14.1704 10.2761C13.7134 10.1927 13.3152 10.0408 12.976 9.82024C12.8858 9.76474 12.8219 9.70168 12.7844 9.63105C12.7468 9.56042 12.728 9.46709 12.728 9.35105C12.728 9.1997 12.7718 9.06853 12.8595 8.95754C12.9472 8.84655 13.0511 8.79106 13.1714 8.79106C13.2315 8.79106 13.2916 8.80115 13.3517 8.82133C13.4119 8.84151 13.4895 8.87934 13.5847 8.93484C13.8051 9.05592 14.0106 9.14168 14.2009 9.19213C14.3913 9.24258 14.5942 9.26781 14.8097 9.26781C15.0752 9.26781 15.2768 9.22367 15.4146 9.13538C15.5524 9.04709 15.6213 8.91466 15.6213 8.73808C15.6213 8.63214 15.58 8.54511 15.4973 8.477C15.4146 8.40889 15.3119 8.35466 15.1892 8.3143C15.0664 8.27394 14.8873 8.22349 14.6518 8.16295C14.2761 8.06709 13.968 7.96998 13.7275 7.8716C13.487 7.77322 13.2791 7.61935 13.1037 7.40998C12.9284 7.20061 12.8407 6.91935 12.8407 6.5662C12.8407 6.1626 12.981 5.81197 13.2616 5.51431C13.502 5.25918 13.8088 5.07818 14.1818 4.9713L14.3738 4.92404V4.54567L14.3832 4.43712C14.402 4.33354 14.4489 4.24486 14.5241 4.17108C14.6243 4.0727 14.7495 4.02351 14.8998 4.02351Z" fill="#023F80"/>
</svg>
