<svg width="28" height="28" viewBox="0 0 28 28" fill="none" xmlns="http://www.w3.org/2000/svg">
<path fill-rule="evenodd" clipRule="evenodd" d="M11.6628 2.97972C12.9404 1.65747 15.0596 1.65748 16.3372 2.97973L17.1297 3.79994C17.3969 4.07647 17.7765 4.21463 18.159 4.17455L19.2933 4.05565C21.1219 3.86399 22.7453 5.22617 22.8741 7.06031L22.954 8.19805C22.9809 8.58164 23.1829 8.93148 23.5016 9.14659L24.447 9.78465C25.971 10.8133 26.339 12.9002 25.2587 14.388L24.5886 15.311C24.3626 15.6221 24.2925 16.0199 24.3984 16.3896L24.7124 17.4861C25.2187 19.2536 24.1591 21.0889 22.3752 21.5342L21.2687 21.8105C20.8956 21.9036 20.5861 22.1633 20.4296 22.5145L19.9654 23.5563C19.2171 25.2358 17.2257 25.9606 15.5729 25.155L14.5476 24.6554C14.202 24.4869 13.798 24.4869 13.4524 24.6554L12.4271 25.155C10.7743 25.9606 8.78293 25.2358 8.03459 23.5563L7.57039 22.5145C7.41389 22.1633 7.10444 21.9036 6.73136 21.8105L5.62477 21.5342C3.84086 21.0889 2.78127 19.2536 3.28756 17.4861L3.60163 16.3896C3.70751 16.0199 3.63736 15.6221 3.41143 15.311L2.7413 14.388C1.66099 12.9002 2.02899 10.8133 3.553 9.78465L4.49838 9.14659C4.8171 8.93148 5.01908 8.58164 5.04602 8.19805L5.12591 7.0603C5.25469 5.22616 6.87807 3.86399 8.70671 4.05565L9.84105 4.17455C10.2235 4.21463 10.6031 4.07647 10.8703 3.79994L11.6628 2.97972ZM14.8989 4.36946C14.4075 3.8609 13.5925 3.8609 13.1011 4.36946L12.3086 5.18967C11.6138 5.90865 10.6269 6.26787 9.63256 6.16365L8.49823 6.04476C7.7949 5.97104 7.17053 6.49495 7.12099 7.20039L7.04111 8.33814C6.97108 9.33546 6.44593 10.245 5.61724 10.8043L4.67187 11.4424C4.08571 11.838 3.94417 12.6407 4.35967 13.2129L5.02981 14.1359C5.61722 14.9449 5.79961 15.9792 5.52431 16.9403L5.21025 18.0368C5.01552 18.7166 5.42305 19.4225 6.10917 19.5938L7.21576 19.87C8.18577 20.1122 8.99034 20.7873 9.39725 21.7005L9.86145 22.7423C10.1493 23.3883 10.9152 23.667 11.5509 23.3572L12.5761 22.8575C13.4749 22.4195 14.5252 22.4195 15.4239 22.8575L16.4491 23.3572C17.0848 23.667 17.8507 23.3883 18.1386 22.7423L18.6028 21.7005C19.0097 20.7873 19.8142 20.1122 20.7842 19.87L21.8908 19.5938C22.577 19.4225 22.9845 18.7166 22.7898 18.0368L22.4757 16.9403C22.2004 15.9792 22.3828 14.9449 22.9702 14.1359L23.6403 13.2129C24.0558 12.6407 23.9143 11.838 23.3281 11.4424L22.3828 10.8043C21.5541 10.245 21.0289 9.33546 20.9589 8.33814L20.879 7.20039C20.8295 6.49495 20.2051 5.97104 19.5018 6.04476L18.3674 6.16365C17.3731 6.26787 16.3862 5.90865 15.6915 5.18967L14.8989 4.36946ZM18 14C18 14.5523 17.5523 15 17 15H15V17C15 17.5523 14.5523 18 14 18C13.4477 18 13 17.5523 13 17V15H11C10.4477 15 10 14.5523 10 14C10 13.4477 10.4477 13 11 13H13V11C13 10.4477 13.4477 10 14 10C14.5523 10 15 10.4477 15 11V13H17C17.5523 13 18 13.4477 18 14Z" fill="#023F80"/>
</svg>
