<svg width="28" height="28" viewBox="0 0 28 28" fill="none" xmlns="http://www.w3.org/2000/svg">
<path fill-rule="evenodd" clipRule="evenodd" d="M20.1624 19.8155C21.166 19.8155 21.6953 20.9198 21.0237 21.6127L15.2202 27.6003C14.7599 28.0753 13.958 28.0753 13.4976 27.6003L7.69403 21.6127C7.02256 20.9198 7.5518 19.8155 8.55534 19.8155H20.1624ZM12.3817 6.66669V17.3153H9.26444V10.2855L7 11.819V8.94546L10.368 6.66669H12.3817ZM16.4089 6.56633C17.8994 6.56633 19.0113 6.82792 19.7447 7.351C20.4779 7.87412 20.8446 8.68997 20.8446 9.7982C20.8446 10.3428 20.7336 10.8815 20.5114 11.4141C20.2892 11.9469 19.9154 12.5118 19.3899 13.1089L17.9281 14.7643H21.3104V17.3153H13.8076V15.6529L16.6668 12.2633C17.0681 11.7808 17.3536 11.3736 17.5232 11.0415C17.6927 10.7095 17.7776 10.4001 17.7776 10.1135C17.7776 9.7552 17.645 9.48773 17.3799 9.3109C17.1148 9.13426 16.6741 9.04576 16.0577 9.04576C15.6468 9.04576 15.2276 9.08287 14.8001 9.15685C14.3725 9.23098 13.9963 9.33007 13.6715 9.45422V6.96047C14.0058 6.85065 14.4358 6.75749 14.9614 6.68099C15.4868 6.60463 15.9693 6.56633 16.4089 6.56633ZM14.8362 1.39188C15.3048 1.39188 15.6672 1.52324 15.9235 1.78596C16.1799 2.04878 16.308 2.43647 16.308 2.9491C16.308 3.2927 16.2488 3.58119 16.1302 3.81454C16.0117 4.04789 15.8427 4.22244 15.6231 4.33819C15.4035 4.45394 15.1412 4.51183 14.8362 4.51183C14.5312 4.51183 14.2689 4.45394 14.0494 4.33819C13.8298 4.22244 13.6607 4.04836 13.5422 3.81587C13.4237 3.58347 13.3644 3.29635 13.3644 2.95461C13.3644 2.43647 13.4922 2.04646 13.7476 1.78463C14.0029 1.52281 14.3658 1.39188 14.8362 1.39188ZM8.43928 1.39187C8.76811 1.39187 9.03364 1.4323 9.23581 1.51312C9.43788 1.59404 9.58761 1.72673 9.68504 1.91138C9.78238 2.09604 9.83112 2.34643 9.83112 2.66245V4.45393H9.1035L9.04285 4.15627H9.00151C8.91333 4.27577 8.80029 4.36437 8.66252 4.42223C8.5247 4.48012 8.37127 4.50907 8.20223 4.50907C8.00011 4.50907 7.82556 4.47277 7.67854 4.4002C7.53156 4.32764 7.41904 4.22566 7.34092 4.09425C7.26281 3.96293 7.2238 3.80997 7.2238 3.63538C7.2238 3.34693 7.32441 3.12369 7.52563 2.96566C7.7268 2.80762 8.0442 2.71479 8.47782 2.68727L8.96843 2.64593V2.6073C8.96843 2.46768 8.94589 2.35839 8.9009 2.27937C8.85586 2.20035 8.7842 2.14388 8.68592 2.10985C8.58763 2.07587 8.45304 2.05884 8.28215 2.05884C8.159 2.05884 8.02445 2.06899 7.87838 2.08916C7.7323 2.10943 7.59401 2.13975 7.46355 2.18014V1.51863C7.60692 1.47824 7.76581 1.44701 7.94041 1.42494C8.11496 1.40288 8.28125 1.39187 8.43928 1.39187ZM19.9075 1.39187C20.2364 1.39187 20.5019 1.4323 20.7041 1.51312C20.9061 1.59404 21.0559 1.72673 21.1533 1.91138C21.2506 2.09604 21.2994 2.34643 21.2994 2.66245V4.45393H20.5717L20.5111 4.15627H20.4698C20.3816 4.27577 20.2685 4.36437 20.1308 4.42223C19.9929 4.48012 19.8395 4.50907 19.6705 4.50907C19.4684 4.50907 19.2938 4.47277 19.1468 4.4002C18.9998 4.32764 18.8873 4.22566 18.8092 4.09425C18.731 3.96293 18.692 3.80997 18.692 3.63538C18.692 3.34693 18.7926 3.12369 18.9939 2.96566C19.195 2.80762 19.5124 2.71479 19.9461 2.68727L20.4367 2.64593V2.6073C20.4367 2.46768 20.4141 2.35839 20.3691 2.27937C20.3241 2.20035 20.2524 2.14388 20.1542 2.10985C20.0559 2.07587 19.9213 2.05884 19.7504 2.05884C19.6272 2.05884 19.4927 2.06899 19.3466 2.08916C19.2005 2.10943 19.0623 2.13975 18.9318 2.18014V1.51863C19.0752 1.47824 19.2341 1.44701 19.4086 1.42494C19.5832 1.40288 19.7495 1.39187 19.9075 1.39187ZM11.1788 0V1.74188H11.2202C11.3231 1.62799 11.4444 1.54119 11.584 1.48144C11.7236 1.42174 11.8789 1.39188 12.0498 1.39188C12.3474 1.39188 12.5863 1.48742 12.7664 1.67853C12.9464 1.86964 13.0365 2.1691 13.0365 2.577V4.45395H12.1546V2.63489C12.1546 2.45849 12.1187 2.33354 12.047 2.26007C11.9754 2.18661 11.8697 2.14978 11.7301 2.14978C11.6271 2.14978 11.5257 2.17095 11.4255 2.21319C11.3253 2.25547 11.2431 2.31702 11.1788 2.39784V4.45395H10.2969V0H11.1788ZM18.2897 1.39739C18.3779 1.39739 18.4587 1.40474 18.5322 1.41941V2.21593C18.4513 2.19942 18.3521 2.19116 18.2345 2.19116C18.1004 2.19116 17.969 2.21688 17.8404 2.26833C17.7118 2.31977 17.6126 2.39053 17.5427 2.48056V4.45394H16.6608V1.43872H17.3802L17.449 1.8273H17.4904C17.5731 1.68223 17.6833 1.57421 17.8211 1.5035C17.9589 1.43279 18.1151 1.39739 18.2897 1.39739ZM8.96843 3.14201L8.56604 3.17233C8.40065 3.18524 8.2803 3.2233 8.20498 3.28671C8.12962 3.35011 8.09199 3.43876 8.09199 3.55271C8.09199 3.6648 8.12597 3.75022 8.19397 3.80902C8.26188 3.86782 8.36112 3.8972 8.49163 3.8972C8.578 3.8972 8.66252 3.88206 8.74519 3.85174C8.82786 3.82141 8.90232 3.77319 8.96843 3.70704V3.14201ZM20.4367 3.14201L20.0343 3.17233C19.8689 3.18524 19.7485 3.2233 19.6732 3.28671C19.5979 3.35011 19.5602 3.43876 19.5602 3.55271C19.5602 3.6648 19.5942 3.75022 19.6622 3.80902C19.7301 3.86782 19.8294 3.8972 19.9599 3.8972C20.0462 3.8972 20.1308 3.88206 20.2134 3.85174C20.2961 3.82141 20.3706 3.77319 20.4367 3.70704V3.14201ZM14.8362 2.05884C14.7076 2.05884 14.6006 2.08642 14.5151 2.14156C14.4297 2.19666 14.3645 2.28901 14.3195 2.41853C14.2744 2.54809 14.252 2.72406 14.252 2.94635C14.252 3.17054 14.2744 3.34832 14.3195 3.47963C14.3645 3.61104 14.4292 3.70425 14.5137 3.75939C14.5982 3.81454 14.7058 3.84207 14.8362 3.84207C14.9667 3.84207 15.0742 3.81454 15.1587 3.75939C15.2432 3.70425 15.308 3.61194 15.353 3.48243C15.398 3.35287 15.4206 3.17785 15.4206 2.95736C15.4206 2.73322 15.398 2.55497 15.353 2.42265C15.308 2.29034 15.2427 2.19666 15.1574 2.14156C15.0719 2.08642 14.9648 2.05884 14.8362 2.05884Z" fill="#023F80"/>
</svg>
