<svg width="24" height="24" viewBox="0 0 24 24" fill="none" xmlns="http://www.w3.org/2000/svg">
<path fill-rule="evenodd" clipRule="evenodd" d="M4.99974 4.99962C6.7903 3.20906 9.26654 2.09998 12.0001 2.09998C14.7337 2.09998 17.2099 3.20906 19.0005 4.99962C20.791 6.79018 21.9001 9.26641 21.9001 12C21.9001 14.7335 20.791 17.2098 19.0005 19.0003C17.2099 20.7909 14.7337 21.9 12.0001 21.9C9.26654 21.9 6.7903 20.7909 4.99974 19.0003C3.20918 17.2098 2.1001 14.7335 2.1001 12C2.1001 9.26641 3.20918 6.79018 4.99974 4.99962ZM12.8999 20C12.8999 17.8665 12.1491 15.9083 10.8974 14.3752L12.4999 12.7728L17.5895 17.8624C16.3391 19.055 14.7096 19.8508 12.8997 20.0506L12.8999 20ZM11.0999 20C11.0999 18.3638 10.5464 16.8568 9.61646 15.6562L6.94401 18.3286C8.10959 19.2612 9.53742 19.8779 11.0997 20.0505L11.0999 20ZM3.99986 12.9C5.63607 12.9 7.143 13.4534 8.34367 14.3834L5.67124 17.0558C4.73869 15.8902 4.12208 14.4624 3.9495 12.9001L3.99986 12.9ZM12.4999 10.2272L14.1023 8.62476C13.0291 7.31028 12.3241 5.6833 12.1449 3.90124C12.0968 3.9004 12.0485 3.89998 12.0001 3.89998C10.344 3.89998 8.8048 4.39632 7.52192 5.24925L12.4999 10.2272ZM17.0559 5.67112L15.3833 7.34378C14.6752 6.42956 14.1854 5.33776 13.992 4.14653C15.1278 4.43361 16.168 4.96068 17.0559 5.67112ZM19.8535 10.0079C18.6622 9.81452 17.5703 9.32469 16.6561 8.61657L18.3287 6.94389C19.0392 7.83186 19.5664 8.87204 19.8535 10.0079ZM13.7727 11.5L15.3751 9.89756C16.6896 10.9708 18.3167 11.6758 20.0988 11.8549C20.0997 11.9032 20.1001 11.9515 20.1001 12C20.1001 13.6561 19.6038 15.1953 18.7508 16.4781L13.7727 11.5ZM9.62465 13.1024L11.2271 11.5L6.13763 6.41054C4.94508 7.66089 4.14932 9.29031 3.94947 11.1001L3.99986 11.1C6.13338 11.1 8.09156 11.8507 9.62465 13.1024Z" fill="#023F80"/>
</svg>
