<svg width="28" height="28" viewBox="0 0 28 28" fill="none" xmlns="http://www.w3.org/2000/svg">
<path fill-rule="evenodd" clipRule="evenodd" d="M9.7587 2H9.8H18.2H18.2413H18.2413C19.0463 1.99999 19.7106 1.99998 20.2518 2.04419C20.8139 2.09012 21.3306 2.18868 21.816 2.43598C22.5686 2.81947 23.1805 3.43139 23.564 4.18404C23.8113 4.66937 23.9099 5.18608 23.9558 5.74818C24 6.28937 24 6.95372 24 7.75868V7.8V9H22V7.8C22 6.94342 21.9992 6.36113 21.9624 5.91104C21.9266 5.47262 21.8617 5.24842 21.782 5.09202C21.5903 4.7157 21.2843 4.40974 20.908 4.21799C20.7516 4.1383 20.5274 4.07337 20.089 4.03755C19.6389 4.00078 19.0566 4 18.2 4H9.8C8.94342 4 8.36113 4.00078 7.91104 4.03755C7.47262 4.07337 7.24842 4.1383 7.09202 4.21799C6.7157 4.40974 6.40974 4.7157 6.21799 5.09202C6.1383 5.24842 6.07337 5.47262 6.03755 5.91104C6.00078 6.36113 6 6.94342 6 7.8V9V20.1707C6.31278 20.0602 6.64937 20 7 20H21H22V19.994V9.00167H24V21C24 21.5523 23.5523 22 23 22H22.0998C22.0344 22.3226 22 22.6569 22 23C22 23.343 22.0344 23.6773 22.0998 24H23.1186C23.6709 24 24.1186 24.4477 24.1186 25C24.1186 25.5523 23.6709 26 23.1186 26H7C5.34315 26 4 24.6569 4 23V9V7.8V7.7587V7.75868C3.99999 6.95372 3.99998 6.28937 4.04419 5.74818C4.09012 5.18608 4.18868 4.66937 4.43598 4.18404C4.81947 3.43139 5.43139 2.81947 6.18404 2.43598C6.66937 2.18868 7.18608 2.09012 7.74818 2.04419C8.28937 1.99998 8.95372 1.99999 9.75868 2H9.7587ZM20.071 24C20.0242 23.6732 20 23.3393 20 23C20 22.6608 20.0242 22.3269 20.071 22H7C6.44772 22 6 22.4477 6 23C6 23.5523 6.44772 24 7 24H20.071Z" fill="#023F80"/>
</svg>
