<svg width="24" height="24" viewBox="0 0 24 24" fill="none" xmlns="http://www.w3.org/2000/svg">
<path fill-rule="evenodd" clipRule="evenodd" d="M5.62609 2.73189C5.97756 2.38042 6.54741 2.38042 6.89888 2.73189L13.2164 9.04937C13.2328 9.06578 13.2484 9.08268 13.2633 9.10001H19.6668C19.6886 9.10001 19.7108 9.09995 19.7333 9.09989C19.971 9.09927 20.2448 9.09855 20.4918 9.16475C21.1475 9.34043 21.6597 9.85257 21.8354 10.5082C21.9015 10.7553 21.9008 11.0291 21.9002 11.2668C21.9001 11.2893 21.9001 11.3115 21.9001 11.3333C21.9001 11.3854 21.9001 11.4369 21.9001 11.4876C21.9004 12.8896 21.9005 13.7751 21.6991 14.527C21.1873 16.437 19.7561 17.9547 17.9001 18.5857V19.02C17.9001 19.0489 17.9001 19.0777 17.9002 19.1064C17.9007 19.4645 17.9011 19.7992 17.8247 20.0969C17.607 20.9448 16.9449 21.6069 16.0969 21.8246C15.7993 21.901 15.4646 21.9006 15.1064 21.9001C15.0778 21.9 15.049 21.9 15.0201 21.9H8.98009C8.95116 21.9 8.92238 21.9 8.89374 21.9001C8.53556 21.9006 8.20087 21.901 7.90324 21.8246C7.05532 21.6069 6.3932 20.9448 6.17549 20.0969C6.09907 19.7992 6.09953 19.4645 6.10001 19.1064C6.10005 19.0777 6.10009 19.0489 6.10009 19.02V18.5857C4.24407 17.9547 2.8129 16.437 2.30113 14.527C2.09965 13.7751 2.09982 12.8896 2.10007 11.4876C2.10008 11.4369 2.10009 11.3855 2.10009 11.3333C2.10009 11.3115 2.10003 11.2893 2.09998 11.2668C2.09936 11.0291 2.09864 10.7553 2.16483 10.5082C2.34052 9.85257 2.85266 9.34043 3.50834 9.16475C3.75537 9.09855 4.0292 9.09927 4.26684 9.09989C4.28938 9.09995 4.31159 9.10001 4.33343 9.10001H6.47877L3.50477 6.126C3.15329 5.77453 3.15329 5.20468 3.50477 4.85321C3.85624 4.50174 4.42609 4.50174 4.77756 4.85321L9.02436 9.10001H10.7214L5.62609 4.00468C5.27461 3.65321 5.27461 3.08336 5.62609 2.73189ZM9.66676 17.1H14.3334C15.9413 17.1 16.5687 17.0923 17.0613 16.9603C18.4761 16.5812 19.5813 15.476 19.9604 14.0612C20.0924 13.5686 20.1001 12.9412 20.1001 11.3333C20.1001 11.1702 20.0999 11.0778 20.0968 11.0097C20.0957 10.9871 20.0946 10.9729 20.0938 10.965C20.0837 10.9379 20.0622 10.9164 20.0351 10.9063C20.0272 10.9055 20.013 10.9044 19.9904 10.9033C19.9223 10.9002 19.8299 10.9 19.6668 10.9H4.33343C4.17027 10.9 4.07793 10.9002 4.00979 10.9033C3.98722 10.9044 3.97296 10.9055 3.96512 10.9063C3.93798 10.9164 3.91653 10.9379 3.9064 10.965C3.90563 10.9729 3.90445 10.9871 3.90342 11.0097C3.90031 11.0778 3.90009 11.1702 3.90009 11.3333C3.90009 12.9412 3.90782 13.5686 4.0398 14.0612C4.41891 15.476 5.52406 16.5812 6.93893 16.9603C7.43147 17.0923 8.05886 17.1 9.66676 17.1ZM7.90009 18.9V19.02C7.90009 19.5219 7.90722 19.6036 7.91894 19.6492C7.97337 19.8612 8.1389 20.0267 8.35088 20.0812C8.39653 20.0929 8.47821 20.1 8.98009 20.1H15.0201C15.522 20.1 15.6036 20.0929 15.6493 20.0812C15.8613 20.0267 16.0268 19.8612 16.0812 19.6492C16.093 19.6036 16.1001 19.5219 16.1001 19.02V18.9H14.7789C14.6844 18.9001 14.5873 18.9 14.4877 18.9C14.437 18.9 14.3855 18.9 14.3334 18.9H9.66676C9.61464 18.9 9.56322 18.9 9.51248 18.9C9.41284 18.9 9.3158 18.9001 9.22124 18.9H7.90009Z" fill="#023F80"/>
</svg>
