<svg width="28" height="28" viewBox="0 0 28 28" fill="none" xmlns="http://www.w3.org/2000/svg">
<path fill-rule="evenodd" clipRule="evenodd" d="M14 3H13.968H13.968C13.5293 2.99999 13.1509 2.99998 12.8376 3.02135C12.5078 3.04386 12.1779 3.09336 11.8519 3.22836C11.1169 3.53285 10.5328 4.11687 10.2284 4.85195C10.0934 5.17788 10.0439 5.50779 10.0213 5.83762C9.99998 6.15087 9.99999 6.52934 10 6.96798V6.96802L10 7H8.4C6.15979 7 5.03969 7 4.18404 7.43598C3.43139 7.81947 2.81947 8.43139 2.43597 9.18404C2 10.0397 2 11.1598 2 13.4V17.6C2 19.8402 2 20.9603 2.43597 21.816C2.81947 22.5686 3.43139 23.1805 4.18404 23.564C5.03969 24 6.15979 24 8.4 24H19.6C21.8402 24 22.9603 24 23.816 23.564C24.5686 23.1805 25.1805 22.5686 25.564 21.816C26 20.9603 26 19.8402 26 17.6V13.4C26 11.1598 26 10.0397 25.564 9.18404C25.1805 8.43139 24.5686 7.81947 23.816 7.43598C22.9603 7 21.8402 7 19.6 7H18V6.96801C18 6.52936 18 6.15088 17.9787 5.83762C17.9561 5.50779 17.9066 5.17788 17.7716 4.85195C17.4672 4.11687 16.8831 3.53285 16.1481 3.22836C15.8221 3.09336 15.4922 3.04386 15.1624 3.02135C14.8491 2.99998 14.4707 2.99999 14.032 3H14.032H14ZM16 7C16 6.52038 15.9995 6.21074 15.9833 5.97376C15.9677 5.74576 15.9411 5.65893 15.9239 5.61732C15.8224 5.37229 15.6277 5.17762 15.3827 5.07612C15.3411 5.05889 15.2542 5.03227 15.0262 5.01671C14.7893 5.00054 14.4796 5 14 5C13.5204 5 13.2107 5.00054 12.9738 5.01671C12.7458 5.03227 12.6589 5.05889 12.6173 5.07612C12.3723 5.17762 12.1776 5.37229 12.0761 5.61732C12.0589 5.65893 12.0323 5.74576 12.0167 5.97376C12.0005 6.21074 12 6.52038 12 7H16ZM9 22V9H19V22H19.7432L19.6 22H8.4L8.25681 22H9ZM22.0643 21.9521C21.7688 21.9763 21.425 21.9883 21 21.9942V9.0058C21.425 9.01174 21.7688 9.02371 22.0643 9.04786C22.6077 9.09225 22.8091 9.1676 22.908 9.21799C23.2843 9.40974 23.5903 9.7157 23.782 10.092C23.8324 10.1909 23.9078 10.3923 23.9521 10.9357C23.9984 11.5023 24 12.2469 24 13.4V17.6C24 18.7531 23.9984 19.4977 23.9521 20.0643C23.9078 20.6077 23.8324 20.8091 23.782 20.908C23.5903 21.2843 23.2843 21.5903 22.908 21.782C22.8091 21.8324 22.6077 21.9078 22.0643 21.9521ZM7 9.0058V21.9942C6.57505 21.9883 6.23117 21.9763 5.93567 21.9521C5.39235 21.9078 5.19091 21.8324 5.09202 21.782C4.71569 21.5903 4.40973 21.2843 4.21799 20.908C4.1676 20.8091 4.09225 20.6077 4.04785 20.0643C4.00156 19.4977 4 18.7531 4 17.6V13.4C4 12.2469 4.00156 11.5023 4.04785 10.9357C4.09225 10.3923 4.1676 10.1909 4.21799 10.092C4.40973 9.7157 4.71569 9.40974 5.09202 9.21799C5.19091 9.1676 5.39235 9.09225 5.93567 9.04786C6.23117 9.02371 6.57505 9.01174 7 9.0058Z" fill="#023F80"/>
</svg>
