<svg width="28" height="28" viewBox="0 0 28 28" fill="none" xmlns="http://www.w3.org/2000/svg">
<path fill-rule="evenodd" clipRule="evenodd" d="M14.1616 2C13.6345 1.99998 13.1796 1.99997 12.8051 2.03057C12.4097 2.06287 12.0165 2.13419 11.6381 2.32698C11.0737 2.6146 10.6147 3.07355 10.3271 3.63803C10.1343 4.01641 10.063 4.40963 10.0307 4.80498C10.0001 5.17955 10.0001 5.63431 10.0001 6.16146L10.0001 11.6907C9.70802 11.6907 9.41593 11.7334 9.13328 11.8187C8.75706 11.9322 8.44548 12.1282 8.15495 12.3514C7.81883 12.6095 7.50531 12.8999 7.19046 13.1833L5.32384 14.8632C4.99938 15.1546 4.71339 15.4115 4.50161 15.7302C4.31564 16.01 4.17799 16.319 4.09442 16.6445C3.99924 17.015 3.99962 17.3995 4.00006 17.8356L4.00012 21.8385C4.0001 22.3657 4.00008 22.8205 4.03069 23.195C4.06299 23.5904 4.1343 23.9836 4.3271 24.362C4.61472 24.9265 5.07366 25.3854 5.63815 25.673C6.01652 25.8658 6.40974 25.9371 6.80509 25.9694C7.17966 26 7.63441 26 8.16155 26H19.8387C20.3658 26 20.8206 26 21.1951 25.9694C21.5905 25.9371 21.9837 25.8658 22.3621 25.673C22.9266 25.3854 23.3855 24.9265 23.6731 24.362C23.8659 23.9836 23.9372 23.5904 23.9695 23.195C24.0002 22.8205 24.0001 22.3657 24.0001 21.8386V6.16144C24.0001 5.6343 24.0002 5.17954 23.9695 4.80498C23.9372 4.40963 23.8659 4.01641 23.6731 3.63803C23.3855 3.07355 22.9266 2.6146 22.3621 2.32698C21.9837 2.13419 21.5905 2.06287 21.1951 2.03057C20.8206 1.99997 20.3659 1.99998 19.8387 2H14.1616ZM12.7829 13.1592C12.493 12.8982 12.2343 12.6653 12.0001 12.4742V6.20001C12.0001 5.62345 12.0009 5.25118 12.024 4.96784C12.0462 4.69618 12.0839 4.59546 12.1091 4.54601C12.205 4.35785 12.358 4.20487 12.5461 4.109C12.5956 4.0838 12.6963 4.04613 12.968 4.02393C13.2513 4.00078 13.6236 4 14.2001 4H19.8001C20.3767 4 20.7489 4.00078 21.0323 4.02393C21.3039 4.04613 21.4047 4.0838 21.4541 4.109C21.6423 4.20487 21.7952 4.35785 21.8911 4.54601C21.9163 4.59546 21.954 4.69618 21.9762 4.96784C21.9993 5.25118 22.0001 5.62345 22.0001 6.2V21.8C22.0001 22.3766 21.9993 22.7488 21.9762 23.0322C21.954 23.3038 21.9163 23.4045 21.8911 23.454C21.7952 23.6422 21.6423 23.7951 21.4541 23.891C21.4047 23.9162 21.3039 23.9539 21.0323 23.9761C20.7831 23.9964 20.4652 23.9995 20.0001 23.9999V23C20.0001 22.6736 20.0001 22.5105 19.9429 22.3832C19.8777 22.2384 19.7617 22.1224 19.6169 22.0573C19.4896 22 19.3265 22 19.0001 22C18.6738 22 18.5106 22 18.3833 22.0573C18.2385 22.1224 18.1226 22.2384 18.0574 22.3832C18.0001 22.5105 18.0001 22.6736 18.0001 23V24H16.0001L16.0002 17.8356C16.0006 17.3995 16.001 17.015 15.9058 16.6445C15.8222 16.319 15.6846 16.01 15.4986 15.7302C15.2868 15.4115 15.0009 15.1547 14.6764 14.8632L12.7829 13.1592ZM14.0001 17.9252V24L11 24V22C11 21.6736 11 21.5105 10.9427 21.3832C10.8776 21.2384 10.7616 21.1224 10.6168 21.0573C10.4895 21 10.3264 21 10 21C9.67365 21 9.51047 21 9.38323 21.0573C9.2384 21.1224 9.12245 21.2384 9.05727 21.3832C9 21.5105 9 21.6736 9 22V24L8.20012 24C7.62356 24 7.25129 23.9992 6.96795 23.9761C6.69629 23.9539 6.59557 23.9162 6.54613 23.891C6.35796 23.7951 6.20498 23.6422 6.10911 23.454C6.08392 23.4045 6.04624 23.3038 6.02404 23.0322C6.00089 22.7488 6.00012 22.3766 6.00012 21.8V17.9252C6.00012 17.349 6.00745 17.2358 6.03155 17.142C6.05941 17.0335 6.10529 16.9305 6.16728 16.8372C6.2209 16.7565 6.30017 16.6753 6.72839 16.2899L8.52839 14.6699C8.91829 14.319 9.16871 14.0946 9.37329 13.9374C9.56804 13.7878 9.65954 13.749 9.71117 13.7334C9.8996 13.6765 10.1006 13.6765 10.2891 13.7334C10.3407 13.749 10.4322 13.7878 10.6269 13.9374C10.8315 14.0946 11.0819 14.319 11.4718 14.6699L13.2718 16.2899C13.7001 16.6753 13.7793 16.7565 13.833 16.8372C13.8949 16.9305 13.9408 17.0335 13.9687 17.142C13.9928 17.2358 14.0001 17.349 14.0001 17.9252ZM14.0574 6.38324C14.0001 6.51047 14.0001 6.67365 14.0001 7C14.0001 7.32636 14.0001 7.48953 14.0574 7.61677C14.1226 7.7616 14.2385 7.87756 14.3833 7.94274C14.5106 8 14.6738 8 15.0001 8C15.3265 8 15.4896 8 15.6169 7.94274C15.7617 7.87756 15.8777 7.7616 15.9429 7.61677C16.0001 7.48953 16.0001 7.32636 16.0001 7C16.0001 6.67365 16.0001 6.51047 15.9429 6.38324C15.8777 6.23841 15.7617 6.12245 15.6169 6.05727C15.4896 6 15.3265 6 15.0001 6C14.6738 6 14.5106 6 14.3833 6.05727C14.2385 6.12245 14.1226 6.23841 14.0574 6.38324ZM18.0001 7C18.0001 6.67365 18.0001 6.51047 18.0574 6.38324C18.1226 6.23841 18.2385 6.12245 18.3833 6.05727C18.5106 6 18.6738 6 19.0001 6C19.3265 6 19.4896 6 19.6169 6.05727C19.7617 6.12245 19.8777 6.23841 19.9429 6.38324C20.0001 6.51047 20.0001 6.67365 20.0001 7C20.0001 7.32636 20.0001 7.48953 19.9429 7.61677C19.8777 7.7616 19.7617 7.87756 19.6169 7.94274C19.4896 8 19.3265 8 19.0001 8C18.6738 8 18.5106 8 18.3833 7.94274C18.2385 7.87756 18.1226 7.7616 18.0574 7.61677C18.0001 7.48953 18.0001 7.32636 18.0001 7ZM18.0574 10.3832C18.0001 10.5105 18.0001 10.6736 18.0001 11C18.0001 11.3264 18.0001 11.4895 18.0574 11.6168C18.1226 11.7616 18.2385 11.8776 18.3833 11.9427C18.5106 12 18.6738 12 19.0001 12C19.3265 12 19.4896 12 19.6169 11.9427C19.7617 11.8776 19.8777 11.7616 19.9429 11.6168C20.0001 11.4895 20.0001 11.3264 20.0001 11C20.0001 10.6736 20.0001 10.5105 19.9429 10.3832C19.8777 10.2384 19.7617 10.1225 19.6169 10.0573C19.4896 10 19.3265 10 19.0001 10C18.6738 10 18.5106 10 18.3833 10.0573C18.2385 10.1225 18.1226 10.2384 18.0574 10.3832ZM14.0001 11C14.0001 10.6736 14.0001 10.5105 14.0574 10.3832C14.1226 10.2384 14.2385 10.1225 14.3833 10.0573C14.5106 10 14.6738 10 15.0001 10C15.3265 10 15.4896 10 15.6169 10.0573C15.7617 10.1225 15.8777 10.2384 15.9429 10.3832C16.0001 10.5105 16.0001 10.6736 16.0001 11C16.0001 11.3264 16.0001 11.4895 15.9429 11.6168C15.8777 11.7616 15.7617 11.8776 15.6169 11.9427C15.4896 12 15.3265 12 15.0001 12C14.6738 12 14.5106 12 14.3833 11.9427C14.2385 11.8776 14.1226 11.7616 14.0574 11.6168C14.0001 11.4895 14.0001 11.3264 14.0001 11ZM18.0574 14.3832C18.0001 14.5105 18.0001 14.6736 18.0001 15C18.0001 15.3264 18.0001 15.4895 18.0574 15.6168C18.1226 15.7616 18.2385 15.8776 18.3833 15.9427C18.5106 16 18.6738 16 19.0001 16C19.3265 16 19.4896 16 19.6169 15.9427C19.7617 15.8776 19.8777 15.7616 19.9429 15.6168C20.0001 15.4895 20.0001 15.3264 20.0001 15C20.0001 14.6736 20.0001 14.5105 19.9429 14.3832C19.8777 14.2384 19.7617 14.1225 19.6169 14.0573C19.4896 14 19.3265 14 19.0001 14C18.6738 14 18.5106 14 18.3833 14.0573C18.2385 14.1225 18.1226 14.2384 18.0574 14.3832ZM18.0001 19C18.0001 18.6736 18.0001 18.5105 18.0574 18.3832C18.1226 18.2384 18.2385 18.1224 18.3833 18.0573C18.5106 18 18.6738 18 19.0001 18C19.3265 18 19.4896 18 19.6169 18.0573C19.7617 18.1224 19.8777 18.2384 19.9429 18.3832C20.0001 18.5105 20.0001 18.6736 20.0001 19C20.0001 19.3264 20.0001 19.4895 19.9429 19.6168C19.8777 19.7616 19.7617 19.8776 19.6169 19.9427C19.4896 20 19.3265 20 19.0001 20C18.6738 20 18.5106 20 18.3833 19.9427C18.2385 19.8776 18.1226 19.7616 18.0574 19.6168C18.0001 19.4895 18.0001 19.3264 18.0001 19ZM9 18C9 17.6736 9 17.5105 9.05727 17.3832C9.12245 17.2384 9.2384 17.1224 9.38323 17.0573C9.51047 17 9.67365 17 10 17C10.3264 17 10.4895 17 10.6168 17.0573C10.7616 17.1224 10.8776 17.2384 10.9427 17.3832C11 17.5105 11 17.6736 11 18C11 18.3264 11 18.4895 10.9427 18.6168C10.8776 18.7616 10.7616 18.8776 10.6168 18.9427C10.4895 19 10.3264 19 10 19C9.67365 19 9.51047 19 9.38323 18.9427C9.2384 18.8776 9.12245 18.7616 9.05727 18.6168C9 18.4895 9 18.3264 9 18Z" fill="#023F80"/>
</svg>
