<svg width="28" height="28" viewBox="0 0 28 28" fill="none" xmlns="http://www.w3.org/2000/svg">
<path fill-rule="evenodd" clipRule="evenodd" d="M13 2H12.9562C11.5932 1.99999 10.5092 1.99999 9.63458 2.07144C8.73898 2.14462 7.9753 2.29768 7.27606 2.65396C6.14708 3.2292 5.2292 4.14708 4.65396 5.27606C4.29768 5.9753 4.14462 6.73898 4.07144 7.63458C3.99999 8.50917 3.99999 9.5932 4 10.9562L4 11V12H3.54014C3.50287 12 3.48424 12 3.46848 12.0005C2.94092 12.0171 2.51713 12.4409 2.5005 12.9685C2.5 12.9842 2.5 13.0029 2.5 13.0401V13.3537C2.5 14.2865 3.17007 15.0148 4 15.1799V16.6L4 16.6428C3.99999 17.7266 3.99998 18.6007 4.05782 19.3086C4.11737 20.0375 4.24318 20.6777 4.54497 21.27C4.89326 21.9535 5.39229 22.5442 6 23V24C6 24.5586 6 24.8379 6.07856 25.0624C6.21928 25.4645 6.53546 25.7807 6.93761 25.9214C7.16213 26 7.44142 26 8 26C8.55858 26 8.83787 26 9.06239 25.9214C9.46454 25.7807 9.78072 25.4645 9.92144 25.0624C10 24.8379 10 24.5586 10 24V23.9945C10.4112 24 10.8618 24 11.3561 24H11.3562H11.3563H11.3564H11.3565H11.3571H11.3572H11.4H16.6H16.6428H16.6429H16.6435H16.6436H16.6437H16.6438C17.1381 24 17.5888 24 18 23.9945V24C18 24.5586 18 24.8379 18.0786 25.0624C18.2193 25.4645 18.5355 25.7807 18.9376 25.9214C19.1621 26 19.4414 26 20 26C20.5586 26 20.8379 26 21.0624 25.9214C21.4645 25.7807 21.7807 25.4645 21.9214 25.0624C22 24.8379 22 24.5586 22 24V23C22.6077 22.5442 23.1067 21.9535 23.455 21.27C23.7568 20.6777 23.8826 20.0375 23.9422 19.3086C24 18.6008 24 17.7267 24 16.6429V16.6428V16.6V15.1799C24.8299 15.0148 25.5 14.2865 25.5 13.3537V13.0401C25.5 13.0029 25.5 12.9842 25.4995 12.9685C25.4829 12.4409 25.0591 12.0171 24.5315 12.0005C24.5158 12 24.4971 12 24.4599 12H24V11V10.9562V10.9561C24 9.59313 24 8.50914 23.9286 7.63458C23.8554 6.73898 23.7023 5.9753 23.346 5.27606C22.7708 4.14708 21.8529 3.2292 20.7239 2.65396C20.0247 2.29768 19.261 2.14462 18.3654 2.07144C17.4908 1.99999 16.4068 1.99999 15.0438 2H15H13ZM22 12V11C22 9.58337 21.9992 8.58104 21.9352 7.79744C21.8721 7.02552 21.7527 6.55435 21.564 6.18404C21.1805 5.43139 20.5686 4.81947 19.816 4.43597C19.4457 4.24729 18.9745 4.12787 18.2026 4.0648C17.419 4.00078 16.4166 4 15 4H13C11.5834 4 10.581 4.00078 9.79744 4.0648C9.02552 4.12787 8.55435 4.24729 8.18404 4.43597C7.43139 4.81947 6.81947 5.43139 6.43597 6.18404C6.24729 6.55435 6.12787 7.02552 6.0648 7.79744C6.00078 8.58104 6 9.58337 6 11V14H22V12ZM6 16V16.6C6 17.7366 6.00078 18.5289 6.05118 19.1458C6.10062 19.7509 6.19279 20.0986 6.32698 20.362C6.6146 20.9265 7.07354 21.3854 7.63803 21.673C7.90138 21.8072 8.24907 21.8994 8.85424 21.9488C9.47108 21.9992 10.2634 22 11.4 22H16.6C17.7366 22 18.5289 21.9992 19.1458 21.9488C19.7509 21.8994 20.0986 21.8072 20.362 21.673C20.9265 21.3854 21.3854 20.9265 21.673 20.362C21.8072 20.0986 21.8994 19.7509 21.9488 19.1458C21.9992 18.5289 22 17.7366 22 16.6V16H6ZM8 19C8 18.4477 8.44772 18 9 18H10C10.5523 18 11 18.4477 11 19C11 19.5523 10.5523 20 10 20H9C8.44772 20 8 19.5523 8 19ZM19 18C19.5523 18 20 18.4477 20 19C20 19.5523 19.5523 20 19 20H18C17.4477 20 17 19.5523 17 19C17 18.4477 17.4477 18 18 18H19Z" fill="#023F80"/>
</svg>
