<svg width="24" height="24" viewBox="0 0 24 24" fill="none" xmlns="http://www.w3.org/2000/svg">
<path d="M14.2525 3C15.1557 3 15.7965 3.29087 16.3542 3.94734C16.3626 3.95724 16.8263 4.53719 17.0503 4.81415C17.1274 4.90961 17.4813 5 18.0454 5H18.4772C20.7982 5 22.4 6.66418 22.4 9.22491V15.6385C22.4 17.9493 20.1828 20 17.6136 20H6.38634C3.81717 20 1.59998 17.9493 1.59998 15.6385V9.22491C1.59998 6.66418 3.20176 5 5.5227 5H5.95452C6.51862 5 6.8725 4.90961 6.94968 4.81415C7.17362 4.53719 7.63736 3.95724 7.64577 3.94734C8.20341 3.29087 8.84422 3 9.74745 3H14.2525ZM14.2525 4.8H9.74745C9.36781 4.8 9.23015 4.86249 9.01763 5.11267C9.02948 5.09872 8.59226 5.64551 8.3494 5.94587C7.82427 6.59536 7.02306 6.8 5.95452 6.8H5.5227C4.21159 6.8 3.39998 7.64323 3.39998 9.22491V15.6385C3.39998 16.9224 4.78126 18.2 6.38634 18.2H17.6136C19.2187 18.2 20.6 16.9224 20.6 15.6385V9.22491C20.6 7.64323 19.7884 6.8 18.4772 6.8H18.0454C16.9769 6.8 16.1757 6.59536 15.6505 5.94587C15.4077 5.64551 14.9705 5.09872 14.9823 5.11267C14.7698 4.86249 14.6321 4.8 14.2525 4.8ZM12 7.70001C14.4302 7.70001 16.4 9.66975 16.4 12.1C16.4 14.5303 14.4302 16.5 12 16.5C9.56972 16.5 7.59998 14.5303 7.59998 12.1C7.59998 9.66975 9.56972 7.70001 12 7.70001ZM12 9.50001C10.5638 9.50001 9.39998 10.6639 9.39998 12.1C9.39998 13.5362 10.5638 14.7 12 14.7C13.4361 14.7 14.6 13.5362 14.6 12.1C14.6 10.6639 13.4361 9.50001 12 9.50001Z" fill="#023F80"/>
</svg>
