<svg width="28" height="28" viewBox="0 0 28 28" fill="none" xmlns="http://www.w3.org/2000/svg">
<path d="M8.41421 14L14.2071 19.7929C14.5976 20.1834 14.5976 20.8166 14.2071 21.2071C13.8166 21.5976 13.1834 21.5976 12.7929 21.2071L6.29289 14.7071C5.90237 14.3166 5.90237 13.6834 6.29289 13.2929L12.7929 6.79289C13.1834 6.40237 13.8166 6.40237 14.2071 6.79289C14.5976 7.18342 14.5976 7.81658 14.2071 8.20711L8.41421 14Z" fill="#023F80"/>
<path d="M16.4142 14L22.2071 19.7929C22.5976 20.1834 22.5976 20.8166 22.2071 21.2071C21.8166 21.5976 21.1834 21.5976 20.7929 21.2071L14.2929 14.7071C13.9024 14.3166 13.9024 13.6834 14.2929 13.2929L20.7929 6.79289C21.1834 6.40237 21.8166 6.40237 22.2071 6.79289C22.5976 7.18342 22.5976 7.81658 22.2071 8.20711L16.4142 14Z" fill="#023F80"/>
</svg>
