<svg width="28" height="28" viewBox="0 0 28 28" fill="none" xmlns="http://www.w3.org/2000/svg">
<path d="M20.0858 14L14.2929 8.20711C13.9024 7.81658 13.9024 7.18342 14.2929 6.79289C14.6834 6.40237 15.3166 6.40237 15.7071 6.79289L22.2071 13.2929C22.5976 13.6834 22.5976 14.3166 22.2071 14.7071L15.7071 21.2071C15.3166 21.5976 14.6834 21.5976 14.2929 21.2071C13.9024 20.8166 13.9024 20.1834 14.2929 19.7929L20.0858 14Z" fill="#023F80"/>
<path d="M12.0858 14L6.29289 8.20711C5.90237 7.81658 5.90237 7.18341 6.29289 6.79289C6.68342 6.40237 7.31658 6.40237 7.70711 6.79289L14.2071 13.2929C14.5976 13.6834 14.5976 14.3166 14.2071 14.7071L7.70711 21.2071C7.31658 21.5976 6.68342 21.5976 6.29289 21.2071C5.90237 20.8166 5.90237 20.1834 6.29289 19.7929L12.0858 14Z" fill="#023F80"/>
</svg>
