<svg width="24" height="24" viewBox="0 0 24 24" fill="none" xmlns="http://www.w3.org/2000/svg">
<path d="M12.4 7.99998C12.4 7.50292 11.997 7.09998 11.5 7.09998C11.0029 7.09998 10.6 7.50292 10.6 7.99998V12.5C10.6 12.8751 10.8327 13.2109 11.184 13.3427L15.184 14.8427C15.6494 15.0172 16.1681 14.7814 16.3427 14.316C16.5172 13.8506 16.2814 13.3318 15.816 13.1573L12.4 11.8763V7.99998Z" fill="#023F80"/>
<path fill-rule="evenodd" clipRule="evenodd" d="M12 2.09998C6.53236 2.09998 2.09998 6.53236 2.09998 12C2.09998 17.4676 6.53236 21.9 12 21.9C17.4676 21.9 21.9 17.4676 21.9 12C21.9 6.53236 17.4676 2.09998 12 2.09998ZM3.89998 12C3.89998 7.52647 7.52647 3.89998 12 3.89998C16.4735 3.89998 20.1 7.52647 20.1 12C20.1 16.4735 16.4735 20.1 12 20.1C7.52647 20.1 3.89998 16.4735 3.89998 12Z" fill="#023F80"/>
</svg>
