<svg width="24" height="19" viewBox="0 0 24 19" fill="none" xmlns="http://www.w3.org/2000/svg">
<path d="M15.2143 10.8572C19.4581 10.8572 23.1429 12.368 23.1429 15.6939C23.1429 17.4223 22.4733 18.1429 21.0378 18.1429H9.39076C7.95524 18.1429 7.28571 17.4223 7.28571 15.6939C7.28571 12.368 10.9705 10.8572 15.2143 10.8572ZM15.2143 12.5714C11.832 12.5714 9 13.7326 9 15.6939C9 16.4576 8.93874 16.4341 9.31897 16.4291L21.0378 16.4286C21.4973 16.4286 21.4286 16.5025 21.4286 15.6939C21.4286 13.7326 18.5966 12.5714 15.2143 12.5714ZM4.28571 4.00001C4.7591 4.00001 5.14286 4.38377 5.14286 4.85716V7.42859H7.71429C8.18767 7.42859 8.57143 7.81234 8.57143 8.28573C8.57143 8.75912 8.18767 9.14287 7.71429 9.14287H5.14286V11.7143C5.14286 12.1877 4.7591 12.5714 4.28571 12.5714C3.81233 12.5714 3.42857 12.1877 3.42857 11.7143V9.14287H0.857143C0.383756 9.14287 0 8.75912 0 8.28573C0 7.81234 0.383756 7.42859 0.857143 7.42859H3.42857V4.85716C3.42857 4.38377 3.81233 4.00001 4.28571 4.00001ZM15 0.571442C17.6045 0.571442 19.7143 2.68127 19.7143 5.28573C19.7143 7.89019 17.6045 10 15 10C12.3955 10 10.2857 7.89019 10.2857 5.28573C10.2857 2.68127 12.3955 0.571442 15 0.571442ZM15 2.28573C13.3423 2.28573 12 3.62804 12 5.28573C12 6.94341 13.3423 8.28573 15 8.28573C16.6577 8.28573 18 6.94341 18 5.28573C18 3.62804 16.6577 2.28573 15 2.28573Z" fill="#023F80"/>
</svg>
