<svg width="24" height="24" viewBox="0 0 24 24" fill="none" xmlns="http://www.w3.org/2000/svg">
<path fill-rule="evenodd" clipRule="evenodd" d="M3.1001 10.5C3.1001 8.25977 3.1001 7.13966 3.53607 6.28401C3.91957 5.53137 4.53149 4.91944 5.28414 4.53595C6.13978 4.09998 7.25989 4.09998 9.5001 4.09998H14.5001C16.7403 4.09998 17.8604 4.09998 18.7161 4.53595C19.4687 4.91944 20.0806 5.53137 20.4641 6.28401C20.9001 7.13966 20.9001 8.25977 20.9001 10.5C20.9001 12.7402 20.9001 13.8603 20.4641 14.7159C20.0806 15.4686 19.4687 16.0805 18.7161 16.464C17.8801 16.89 16.7917 16.8997 14.6528 16.9L15.2028 19.1H17.1001C17.5971 19.1 18.0001 19.5029 18.0001 20C18.0001 20.4971 17.5971 20.9 17.1001 20.9H6.90009C6.40304 20.9 6.00009 20.4971 6.00009 20C6.00009 19.5029 6.40304 19.1 6.90009 19.1H8.79739L9.3474 16.9C7.20854 16.8997 6.12012 16.89 5.28414 16.464C4.53149 16.0805 3.91957 15.4686 3.53607 14.7159C3.1001 13.8603 3.1001 12.7402 3.1001 10.5ZM14.5001 5.89998H9.5001C8.35029 5.89998 7.59619 5.90138 7.01948 5.94849C6.46379 5.9939 6.2331 6.07262 6.10132 6.13976C5.68736 6.35068 5.3508 6.68724 5.13988 7.1012C5.07274 7.23298 4.99402 7.46367 4.94862 8.01936C4.9015 8.59607 4.9001 9.35017 4.9001 10.5C4.9001 11.6498 4.9015 12.4039 4.94862 12.9806C4.99402 13.5363 5.07274 13.767 5.13988 13.8988C5.3508 14.3127 5.68736 14.6493 6.10132 14.8602C6.2331 14.9273 6.46379 15.0061 7.01948 15.0515C7.59619 15.0986 8.35029 15.1 9.5001 15.1H14.5001C15.6499 15.1 16.404 15.0986 16.9807 15.0515C17.5364 15.0061 17.7671 14.9273 17.8989 14.8602C18.3128 14.6493 18.6494 14.3127 18.8603 13.8988C18.9275 13.767 19.0062 13.5363 19.0516 12.9806C19.0987 12.4039 19.1001 11.6498 19.1001 10.5C19.1001 9.35017 19.0987 8.59607 19.0516 8.01936C19.0062 7.46367 18.9275 7.23298 18.8603 7.1012C18.6494 6.68724 18.3128 6.35068 17.8989 6.13976C17.7671 6.07262 17.5364 5.9939 16.9807 5.94849C16.404 5.90138 15.6499 5.89998 14.5001 5.89998ZM11.2028 16.9L10.6528 19.1H13.3474L12.7974 16.9H11.2028Z" fill="#023F80"/>
</svg>
