<svg width="28" height="28" viewBox="0 0 28 28" fill="none" xmlns="http://www.w3.org/2000/svg">
<path fill-rule="evenodd" clipRule="evenodd" d="M6.24821 3.98132L6 4.95002C6.24821 3.98132 6.24872 3.98145 6.24925 3.98158L6.25047 3.9819L6.25347 3.98268L6.26165 3.98483L6.28664 3.99156C6.30707 3.99714 6.33496 4.00495 6.36983 4.01511C6.43954 4.03545 6.53724 4.06526 6.65895 4.10568C6.90215 4.18645 7.24245 4.31001 7.64759 4.48557C8.4555 4.83564 9.53497 5.39841 10.6187 6.25181C11.8865 7.25018 13.1563 8.6463 14 10.5427C14.8437 8.6463 16.1135 7.25018 17.3813 6.25181C18.465 5.39841 19.5445 4.83564 20.3524 4.48557C20.7575 4.31001 21.0979 4.18645 21.3411 4.10568C21.4628 4.06526 21.5605 4.03545 21.6302 4.01511C21.665 4.00495 21.6929 3.99714 21.7134 3.99156L21.7383 3.98483L21.7465 3.98268L21.7495 3.9819L21.7507 3.98158C21.7513 3.98145 21.7518 3.98132 22 4.95002L21.7518 3.98132C22.104 3.89106 22.4775 3.99913 22.7271 4.26354C24.7552 6.41178 26 9.31156 26 12.4999C26 19.1273 20.6274 24.4999 14 24.4999C7.37258 24.4999 2 19.1273 2 12.4999C2 9.31156 3.24476 6.41178 5.27285 4.26354C5.52248 3.99913 5.89596 3.89106 6.24821 3.98132ZM21.6873 6.10368C21.5323 6.16105 21.3503 6.23284 21.1476 6.32069C20.4555 6.62059 19.535 7.10153 18.6187 7.8231C16.8063 9.25031 15 11.6182 15 15.4999C15 16.0522 14.5523 16.4999 14 16.4999C13.4477 16.4999 13 16.0522 13 15.4999C13 11.6182 11.1937 9.25031 9.38132 7.8231C8.46503 7.10153 7.54451 6.62059 6.85241 6.32069C6.64968 6.23284 6.46774 6.16104 6.31273 6.10368C4.86798 7.83786 4 10.0666 4 12.4999C4 18.0227 8.47715 22.4999 14 22.4999C19.5228 22.4999 24 18.0227 24 12.4999C24 10.0666 23.132 7.83786 21.6873 6.10368Z" fill="#023F80"/>
</svg>
