<svg width="24" height="24" viewBox="0 0 24 24" fill="none" xmlns="http://www.w3.org/2000/svg">
<path fill-rule="evenodd" clipRule="evenodd" d="M9.71323 3.07156C10.9633 1.77778 13.0369 1.77778 14.287 3.07155L14.5122 3.30468C14.8115 3.61439 15.2366 3.76914 15.665 3.72424L15.9668 3.69261C17.7673 3.50389 19.3657 4.84511 19.4925 6.65103L19.5137 6.95376C19.5439 7.38338 19.7701 7.7752 20.1271 8.01613L20.3786 8.1859C21.8792 9.19868 22.2415 11.2535 21.1779 12.7185L20.9996 12.964C20.7465 13.3125 20.6679 13.7581 20.7865 14.1721L20.8701 14.4639C21.3686 16.2042 20.3253 18.0113 18.5689 18.4497L18.2744 18.5232C17.8566 18.6276 17.51 18.9184 17.3347 19.3118L17.2112 19.589C16.4744 21.2426 14.5136 21.9563 12.8863 21.1631L12.6135 21.0302C12.2263 20.8415 11.7739 20.8415 11.3867 21.0302L11.1139 21.1631C9.48657 21.9563 7.52583 21.2426 6.78901 19.589L6.6655 19.3118C6.49021 18.9184 6.14362 18.6276 5.72578 18.5232L5.43134 18.4497C3.67487 18.0113 2.63159 16.2042 3.13009 14.4639L3.21365 14.1721C3.33224 13.7581 3.25368 13.3125 3.00064 12.964L2.82233 12.7185C1.75865 11.2536 2.12097 9.19868 3.62155 8.1859L3.87309 8.01613C4.23006 7.7752 4.45628 7.38338 4.48645 6.95376L4.5077 6.65104C4.63451 4.84511 6.23291 3.50389 8.03342 3.69261L8.33524 3.72424C8.76356 3.76914 9.18872 3.61439 9.48797 3.30468L9.71323 3.07156ZM12.9925 4.32231C12.45 3.76086 11.5502 3.76086 11.0077 4.32231L10.7824 4.55544C10.0984 5.26335 9.12663 5.61705 8.1476 5.51444L7.84578 5.4828C7.05806 5.40024 6.35876 5.98702 6.30328 6.77711L6.28203 7.07984C6.21308 8.06181 5.696 8.95741 4.88006 9.50811L4.62852 9.67788C3.97202 10.121 3.8135 11.02 4.27887 11.6609L4.45717 11.9064C5.03555 12.703 5.21513 13.7214 4.94407 14.6678L4.8605 14.9595C4.64241 15.7209 5.09885 16.5115 5.8673 16.7033L6.16174 16.7768C7.11682 17.0153 7.90902 17.68 8.30967 18.5792L8.43318 18.8564C8.75554 19.5798 9.61336 19.8921 10.3253 19.5451L10.5981 19.4121C11.483 18.9808 12.5172 18.9808 13.4021 19.4121L13.6749 19.5451C14.3868 19.8921 15.2447 19.5798 15.567 18.8564L15.6905 18.5792C16.0912 17.68 16.8834 17.0153 17.8385 16.7768L18.1329 16.7033C18.9013 16.5115 19.3578 15.7209 19.1397 14.9595L19.0561 14.6678C18.7851 13.7214 18.9646 12.703 19.543 11.9064L19.7213 11.6609C20.1867 11.02 20.0282 10.121 19.3717 9.67788L19.1201 9.50811C18.3042 8.95741 17.7871 8.06181 17.7182 7.07984L17.6969 6.77711C17.6414 5.98702 16.9421 5.40024 16.1544 5.4828L15.8526 5.51444C14.8736 5.61705 13.9018 5.26335 13.2178 4.55544L12.9925 4.32231Z" fill="#023F80"/>
<path fill-rule="evenodd" clipRule="evenodd" d="M9.45004 10.225V9.67501C9.45004 9.46791 9.28215 9.30001 9.07504 9.30001C8.86793 9.30001 8.70004 9.46791 8.70004 9.67501V10.225C8.70004 10.4321 8.86793 10.6 9.07504 10.6C9.28215 10.6 9.45004 10.4321 9.45004 10.225ZM9.07504 8.00001C8.14996 8.00001 7.40004 8.74994 7.40004 9.67501V10.225C7.40004 11.1501 8.14996 11.9 9.07504 11.9C10.0001 11.9 10.75 11.1501 10.75 10.225V9.67501C10.75 8.74994 10.0001 8.00001 9.07504 8.00001Z" fill="#023F80"/>
<path fill-rule="evenodd" clipRule="evenodd" d="M15.3 14.3238V13.7738C15.3 13.5667 15.1321 13.3988 14.925 13.3988C14.7179 13.3988 14.55 13.5667 14.55 13.7738V14.3238C14.55 14.5309 14.7179 14.6988 14.925 14.6988C15.1321 14.6988 15.3 14.5309 15.3 14.3238ZM14.925 12.0988C14 12.0988 13.25 12.8487 13.25 13.7738V14.3238C13.25 15.2488 14 15.9988 14.925 15.9988C15.8501 15.9988 16.6 15.2488 16.6 14.3238V13.7738C16.6 12.8487 15.8501 12.0988 14.925 12.0988Z" fill="#023F80"/>
<path fill-rule="evenodd" clipRule="evenodd" d="M14.621 8.08581C14.9326 8.29046 15.0193 8.70896 14.8147 9.02056L10.4143 15.7206C10.2096 16.0322 9.79114 16.1189 9.47955 15.9142C9.16795 15.7096 9.08125 15.2911 9.2859 14.9795L13.6863 8.27946C13.8909 7.96786 14.3094 7.88117 14.621 8.08581Z" fill="#023F80"/>
</svg>
