<svg width="24" height="24" viewBox="0 0 24 24" fill="none" xmlns="http://www.w3.org/2000/svg">
<path fill-rule="evenodd" clipRule="evenodd" d="M3.9001 12C3.9001 7.52647 7.52659 3.89998 12.0001 3.89998C16.4736 3.89998 20.1001 7.52647 20.1001 12C20.1001 16.4735 16.4736 20.1 12.0001 20.1C7.52659 20.1 3.9001 16.4735 3.9001 12ZM12.0001 2.09998C6.53248 2.09998 2.1001 6.53236 2.1001 12C2.1001 17.4676 6.53248 21.9 12.0001 21.9C17.4677 21.9 21.9001 17.4676 21.9001 12C21.9001 6.53236 17.4677 2.09998 12.0001 2.09998ZM12.9001 7.89998C12.9001 7.40292 12.4971 6.99998 12.0001 6.99998C11.503 6.99998 11.1001 7.40292 11.1001 7.89998V13.1C11.1001 13.5971 11.503 14 12.0001 14C12.4971 14 12.9001 13.5971 12.9001 13.1V7.89998ZM13.0001 16C13.0001 16.5523 12.5524 17 12.0001 17C11.4478 17 11.0001 16.5523 11.0001 16C11.0001 15.4477 11.4478 15 12.0001 15C12.5524 15 13.0001 15.4477 13.0001 16Z" fill="#023F80"/>
</svg>
