<svg width="28" height="28" viewBox="0 0 28 28" fill="none" xmlns="http://www.w3.org/2000/svg">
<path fill-rule="evenodd" clipRule="evenodd" d="M19 5C18.4477 5 18 4.55228 18 4C18 3.44772 18.4477 3 19 3C19.0108 3 19.0216 3.00017 19.0324 3.00051C19.7134 3.00239 20.2912 3.01105 20.7802 3.05101C21.4257 3.10374 22.0041 3.21593 22.543 3.49047C23.3897 3.9219 24.0781 4.61031 24.5095 5.45704C24.7841 5.99586 24.8963 6.5743 24.949 7.21978C24.989 7.70882 24.9976 8.2866 24.9995 8.96768C24.9998 8.97841 25 8.98918 25 9C25 9.55228 24.5523 10 24 10C23.4477 10 23 9.55228 23 9C22.9982 8.31571 22.9899 7.80171 22.9556 7.38264C22.913 6.86085 22.8345 6.5749 22.7275 6.36502C22.4878 5.89462 22.1054 5.51217 21.635 5.27248C21.4251 5.16555 21.1392 5.087 20.6174 5.04436C20.1983 5.01012 19.6843 5.00178 19 5ZM5.00052 9C5.0023 8.31571 5.01013 7.80171 5.04436 7.38264C5.087 6.86085 5.16555 6.5749 5.27248 6.36502C5.51217 5.89462 5.89462 5.51217 6.36502 5.27248C6.5749 5.16555 6.86085 5.087 7.38264 5.04436C7.80171 5.01012 8.31571 5.0023 9 5.00052C9.55229 5.00052 10 4.55228 10 4C10 3.44772 9.55228 3 9 3C8.98917 3 8.97837 3.00017 8.96762 3.00051C8.28657 3.00239 7.70881 3.01105 7.21978 3.05101C6.5743 3.10374 5.99586 3.21593 5.45704 3.49047C4.61031 3.9219 3.9219 4.61031 3.49047 5.45704C3.21593 5.99586 3.10374 6.5743 3.05101 7.21978C3.01105 7.70881 3.00239 8.28656 3.00051 8.96762C3.00017 8.97837 3 8.98916 3 9C3 9.55228 3.44772 10 4 10C4.55228 10 5.00052 9.55228 5.00052 9ZM3.00051 19.0324C3.00239 19.7134 3.01105 20.2912 3.05101 20.7802C3.10374 21.4257 3.21593 22.0041 3.49047 22.543C3.9219 23.3897 4.61031 24.0781 5.45704 24.5095C5.99586 24.7841 6.5743 24.8963 7.21978 24.949C7.7088 24.989 8.28655 24.9976 8.9676 24.9995C8.97836 24.9998 8.98916 25 9 25C9.55228 25 10 24.5523 10 24C10 23.4477 9.55228 23 9 23C8.31571 22.9982 7.80171 22.9899 7.38264 22.9556C6.86085 22.913 6.5749 22.8345 6.36502 22.7275C5.89462 22.4878 5.51217 22.1054 5.27248 21.635C5.16555 21.4251 5.087 21.1392 5.04436 20.6174C5.01013 20.1983 5.0023 19.6843 5.00052 19C5.00052 18.4477 4.55228 18 4 18C3.44772 18 3 18.4477 3 19C3 19.0108 3.00017 19.0216 3.00051 19.0324ZM23 19C23 18.4477 23.4477 18 24 18C24.5523 18 25 18.4477 25 19C25 19.0108 24.9998 19.0216 24.9995 19.0323C24.9976 19.7134 24.989 20.2912 24.949 20.7802C24.8963 21.4257 24.7841 22.0041 24.5095 22.543C24.0781 23.3897 23.3897 24.0781 22.543 24.5095C22.0041 24.7841 21.4257 24.8963 20.7802 24.949C20.2912 24.989 19.7134 24.9976 19.0324 24.9995C19.0216 24.9998 19.0108 25 19 25C18.4477 25 18 24.5523 18 24C18 23.4477 18.4477 23 19 23C19.6843 22.9982 20.1983 22.9899 20.6174 22.9556C21.1392 22.913 21.4251 22.8345 21.635 22.7275C22.1054 22.4878 22.4878 22.1054 22.7275 21.635C22.8345 21.4251 22.913 21.1392 22.9556 20.6174C22.9899 20.1983 22.9982 19.6843 23 19ZM17.9033 18.4009C18.1402 18.8997 17.928 19.4963 17.4291 19.7332C16.3886 20.2275 15.2251 20.5036 14 20.5036C12.7748 20.5036 11.6114 20.2275 10.5709 19.7333C10.0721 19.4963 9.85976 18.8998 10.0967 18.4009C10.3337 17.9021 10.9302 17.6898 11.4291 17.9267C12.2071 18.2963 13.0779 18.5036 14 18.5036C14.922 18.5036 15.7929 18.2963 16.5709 17.9267C17.0698 17.6897 17.6663 17.902 17.9033 18.4009ZM18.5 9C17.9477 9 17.5 9.44772 17.5 10V11C17.5 11.5523 17.9477 12 18.5 12C19.0523 12 19.5 11.5523 19.5 11V10C19.5 9.44772 19.0523 9 18.5 9ZM8.5 10C8.5 9.44772 8.94772 9 9.5 9C10.0523 9 10.5 9.44772 10.5 10V11C10.5 11.5523 10.0523 12 9.5 12C8.94772 12 8.5 11.5523 8.5 11V10ZM15 10C15 9.44772 14.5523 9 14 9C13.4477 9 13 9.44772 13 10V13.5C13 13.7761 12.7761 14 12.5 14C11.9477 14 11.5 14.4477 11.5 15C11.5 15.5523 11.9477 16 12.5 16C13.8807 16 15 14.8807 15 13.5V10Z" fill="#023F80"/>
</svg>
