<svg width="24" height="24" viewBox="0 0 24 24" fill="none" xmlns="http://www.w3.org/2000/svg">
<path d="M12.7225 2.21254C13.9303 2.25014 14.7158 2.91468 15.1299 4.16745L15.1955 4.38168L15.2462 4.57348C15.2647 4.64735 15.2877 4.726 15.3146 4.80768L15.372 4.96704L15.406 4.98404L15.475 4.96124L15.6086 4.91006L15.7644 4.84223C17.1783 4.18403 18.2659 4.30619 19.1515 5.27941L19.2767 5.42424L20.0969 6.44075C20.8278 7.40309 20.8056 8.4317 20.0926 9.54192L19.9674 9.72772L19.8503 9.88786C19.8035 9.95001 19.7559 10.0189 19.7084 10.0929L19.6375 10.2076L19.604 10.265L19.608 10.285L19.6996 10.3455L19.8262 10.4219L19.9795 10.5053C21.3686 11.2142 21.942 12.1464 21.7208 13.4414L21.6838 13.6289L21.4397 14.6872C21.2816 15.372 21.1574 15.6962 20.6689 16.141C20.1943 16.5732 19.6528 16.7516 18.9373 16.8108L18.7173 16.8251L18.519 16.8314C18.4421 16.8328 18.3594 16.8376 18.2728 16.8456L18.092 16.867L18.1051 17.0094L18.1185 17.1052L18.1507 17.284C18.474 18.8096 18.1103 19.8419 16.9628 20.4859L16.7936 20.5752L15.6186 21.1458C14.5165 21.6414 13.5192 21.3885 12.5979 20.444L12.445 20.2802L12.3153 20.1301C12.2647 20.0699 12.2077 20.0074 12.1455 19.9438L12.0486 19.848L11.999 19.802L11.9073 19.8893L11.8023 19.9973L11.6846 20.1301C10.7322 21.2638 9.72687 21.6707 8.5084 21.1968L8.33287 21.1231L7.28146 20.6121L6.96913 20.4523C6.49307 20.1923 6.22592 19.9433 5.96485 19.392C5.69002 18.8116 5.67155 18.2416 5.80478 17.5088L5.8492 17.284C5.86511 17.2089 5.87902 17.1275 5.89065 17.0415L5.90897 16.87L5.90497 16.866L5.80129 16.8522L5.65479 16.839L5.4809 16.8314C3.92161 16.8032 2.99765 16.2166 2.62829 14.9537L2.57928 14.7686L2.2877 13.4954C2.05263 12.3101 2.52345 11.3953 3.65095 10.71L3.84494 10.5979L4.02041 10.5053C4.08918 10.4702 4.16165 10.4295 4.2362 10.3841L4.39097 10.283L4.39497 10.264L4.33242 10.1562L4.25161 10.031L4.14962 9.88786C3.21185 8.64176 3.10522 7.55254 3.87304 6.48392L3.98868 6.33139L4.81245 5.31777C5.6018 4.40275 6.61254 4.21056 7.84674 4.67711L8.0545 4.76096L8.23549 4.84223C8.30359 4.87393 8.37809 4.90515 8.45738 4.93525L8.59297 4.98304L8.62897 4.96604L8.66259 4.8774L8.70768 4.73945L8.75371 4.57348C9.11283 3.137 9.83798 2.33055 11.1431 2.22237L11.3335 2.21167L12.7225 2.21254ZM12.6665 4.01167H11.3335L11.1941 4.02188C10.908 4.05913 10.7211 4.21354 10.5414 4.85356L10.5 5.01004L10.4435 5.2158C10.3385 5.56832 10.1799 5.965 9.97556 6.35014C9.57103 6.4951 9.1866 6.68228 8.8282 6.90825C8.40648 6.82276 8.00436 6.69736 7.66879 6.55867L7.31878 6.40374C7.06988 6.29712 6.88344 6.24273 6.7357 6.22949L6.65152 6.2264C6.4739 6.23011 6.35663 6.30306 6.24334 6.419L6.17539 6.49352L5.38626 7.46576L5.29155 7.59113C5.10815 7.85545 5.08071 8.09115 5.48641 8.66652L5.71461 8.98235C5.92651 9.29208 6.13899 9.67383 6.31248 10.0838C6.18306 10.468 6.09149 10.8697 6.04242 11.2852C5.70855 11.5742 5.35278 11.8218 5.02877 12.0059L4.68651 12.189C4.06964 12.5283 3.99097 12.7522 4.03994 13.0701L4.05332 13.1453L4.33361 14.3657L4.37409 14.5175C4.46947 14.8248 4.63831 14.9915 5.34149 15.026L5.72883 15.0405C6.09978 15.0639 6.52679 15.1304 6.95192 15.2444C7.17669 15.5934 7.43667 15.9176 7.72807 16.2118C7.74467 16.7385 7.69598 17.2518 7.6101 17.6571C7.409 18.6062 7.59621 18.7591 7.9936 18.9565L9.11968 19.5042C9.239 19.5578 9.34564 19.594 9.45646 19.5926L9.52358 19.587C9.70464 19.5594 9.90505 19.4252 10.1939 19.1023L10.4517 18.8074C10.7084 18.5287 11.0363 18.233 11.4002 17.9704L11.6981 17.9926L12 18L12.3018 17.9925L12.5999 17.9696C12.9637 18.2328 13.2915 18.5286 13.5483 18.8074L13.806 19.1023C14.131 19.4656 14.344 19.59 14.5435 19.5926L14.6096 19.5891C14.6682 19.5822 14.7265 19.5659 14.7872 19.543L14.8803 19.5042L16.0063 18.9565L16.1452 18.8829C16.4445 18.7084 16.5658 18.4875 16.3898 17.6571C16.3039 17.2518 16.2553 16.7385 16.2731 16.212C16.5633 15.9176 16.8232 15.5934 17.0483 15.2428C17.4737 15.13 17.9005 15.0638 18.2712 15.0405L18.6584 15.026C19.4698 14.9862 19.5698 14.7703 19.6663 14.3657L19.9298 13.2243C20.0204 12.8183 20.0252 12.5805 19.3134 12.189L18.9711 12.0059C18.6471 11.8218 18.2913 11.574 17.9577 11.2844C17.9084 10.8697 17.8169 10.468 17.6869 10.0829C17.8609 9.67369 18.0734 9.29205 18.2853 8.98234L18.5135 8.66652C18.9192 8.09115 18.8918 7.85545 18.7084 7.59113L18.6634 7.52945L17.8765 6.55542C17.7356 6.38403 17.6174 6.26133 17.4245 6.23266L17.3484 6.2264C17.1886 6.22306 16.9798 6.2758 16.6812 6.40374L16.3313 6.5586C15.9959 6.69718 15.5942 6.82232 15.1729 6.90668C14.8131 6.68209 14.4278 6.49456 14.0224 6.35105C13.8278 5.98059 13.6741 5.60007 13.5693 5.25832L13.4558 4.84375C13.264 4.16636 13.0635 4.03935 12.7427 4.01554L12.6665 4.01167ZM12 8.20004C14.0986 8.20004 15.8 9.90136 15.8 12C15.8 14.0987 14.0986 15.8 12 15.8C9.90128 15.8 8.19997 14.0987 8.19997 12C8.19997 9.90136 9.90128 8.20004 12 8.20004ZM12 10C10.8954 10 9.99997 10.8955 9.99997 12C9.99997 13.1046 10.8954 14 12 14C13.1045 14 14 13.1046 14 12C14 10.8955 13.1045 10 12 10Z" fill="#023F80"/>
</svg>
