<svg width="28" height="28" viewBox="0 0 28 28" fill="none" xmlns="http://www.w3.org/2000/svg">
<path d="M24.6336 14.7213C25.0298 13.8894 24.9554 12.8275 24.4422 12.0577C23.3574 10.4306 21.2989 10.2402 20 11.5185V7.25455C20 5.44903 18.2096 4.11848 16.4961 4.60424C16.4198 3.15035 15.2202 2 13.75 2C12.4432 2 11.3541 2.90811 11.0714 4.12541C10.8121 4.04396 10.5362 4 10.25 4C9.57959 4 8.78003 4.24895 8.78003 5.06006C8.78003 5.61234 9.22774 6.06006 9.78003 6.06006C9.93746 6.06006 10.0845 6 10.25 6C10.6642 6 11 6.34375 11 6.75262V7.27C11 7.82064 11.4439 8.27 12 8.27C12.5523 8.27 13 7.80973 13 7.27V4.75163C13 4.33651 13.3329 4 13.75 4C14.1642 4 14.5 4.33272 14.5 4.75163V10.77C14.5 11.3197 14.9439 11.77 15.5 11.77C16.0523 11.77 16.5 11.3192 16.5 10.77V7.24655C16.5 6.83424 16.8329 6.5 17.25 6.5C17.6642 6.5 18 6.83177 18 7.25455V14.2018C18 15.3396 19.4757 15.7864 20.1069 14.8397L21.2288 13.1569C21.6547 12.5179 22.3498 12.5246 22.7781 13.1671C22.9006 13.351 22.9215 13.6649 22.8279 13.8614L21.3385 16.9892C20.9747 17.6337 21.4544 18.48 22.21 18.48C22.6071 18.48 22.9502 18.2485 23.1116 17.9131L23.1133 17.9139L24.6336 14.7213Z" fill="#023F80"/>
<path fill-rule="evenodd" clipRule="evenodd" d="M12 26C7.57839 26 4 22.4202 4 17.9913V10.1277C4 9.12023 4.54174 8.24151 5.34984 7.76405L3.29289 5.70711C2.90237 5.31658 2.90237 4.68342 3.29289 4.29289C3.68342 3.90237 4.31658 3.90237 4.70711 4.29289L23.7109 23.2967C24.1015 23.6872 24.1015 24.3204 23.7109 24.7109C23.3204 25.1015 22.6872 25.1015 22.2967 24.7109L20.2904 22.7046C18.0551 25.0206 15.1489 26 12 26ZM8.5 14.5C9.05228 14.5 9.5 14.043 9.5 13.4916V11.9142L18.8762 21.2904C17.0157 23.2346 14.6186 24 12 24C8.68629 24 6 21.319 6 17.9913V10.1277C6 9.7163 6.3329 9.38277 6.75 9.38277C7.16421 9.38277 7.5 9.71853 7.5 10.1378V13.5012C7.5 14.0528 7.94386 14.5 8.5 14.5Z" fill="#023F80"/>
</svg>
