<svg width="28" height="28" viewBox="0 0 28 28" fill="none" xmlns="http://www.w3.org/2000/svg">
<path fill-rule="evenodd" clipRule="evenodd" d="M23.0791 3.5C24.5146 3.5 25.6901 4.6131 25.7896 6.02326L25.7964 6.21732L25.8419 18.1951C25.8419 19.6305 24.7288 20.8061 23.3187 20.9056L23.1246 20.9124H13.7732L10.699 23.8917C9.95368 24.6141 8.72816 24.1403 8.62301 23.1481L8.61576 23.0096V20.9124H4.51282C3.07733 20.9124 1.90182 19.7993 1.80232 18.3891L1.7955 18.1951L1.75 6.21732C1.75 4.78184 2.8631 3.60633 4.27326 3.50682L4.46732 3.5H23.0791ZM23.0791 4.83591H4.46732C3.75525 4.83591 3.16901 5.37468 3.09401 6.06268L3.0859 6.21225L3.13141 18.1951C3.13141 18.9071 3.67017 19.4934 4.3623 19.5684L4.51282 19.5765H8.61576C9.30438 19.5765 9.87131 20.0975 9.94384 20.7668L9.95168 20.9124V22.7557L12.8435 19.9531C13.0512 19.7518 13.3174 19.6244 13.6012 19.5876L13.7732 19.5765H23.1246C23.8367 19.5765 24.4229 19.0377 24.4979 18.3497L24.506 18.2001L24.4605 6.21732C24.4605 5.45439 23.8421 4.83591 23.0791 4.83591ZM12.5973 8.87511C13.0033 8.87511 13.3324 9.20422 13.3324 9.6102C13.3324 9.94275 13.1105 10.2272 12.7929 10.3172L12.6696 10.3415L12.5973 10.3453H10.9645C9.96784 10.3453 9.15991 11.1532 9.15991 12.1498C9.15991 13.0487 9.81881 13.7987 10.6809 13.9328L10.8686 13.952L10.9645 13.9544H12.5973C13.0033 13.9544 13.3324 14.2835 13.3324 14.6895C13.3324 15.022 13.1105 15.3065 12.7929 15.3964L12.6696 15.4208L12.5973 15.4246H10.9645C9.15588 15.4246 7.68973 13.9584 7.68973 12.1498C7.68973 10.4671 8.96134 9.07411 10.6083 8.89454L10.846 8.87725L12.5973 8.87511ZM16.3622 8.87511C18.1707 8.87511 19.6369 10.3413 19.6369 12.1498C19.6369 13.8326 18.3653 15.2256 16.7183 15.4051L16.4806 15.4224L15.0079 15.4246C14.6019 15.4246 14.2728 15.0955 14.2728 14.6895C14.2728 14.3569 14.4946 14.0725 14.8122 13.9825L14.9355 13.9582L15.0079 13.9544H16.3622C17.3588 13.9544 18.1667 13.1465 18.1667 12.1498C18.1667 11.251 17.5078 10.501 16.6457 10.3669L16.458 10.3477L16.3622 10.3453H15.0079C14.6019 10.3453 14.2728 10.0162 14.2728 9.6102C14.2728 9.27765 14.4946 8.99323 14.8122 8.90325L14.9355 8.8789L15.0079 8.87511H16.3622ZM15.1499 11.4723C15.5241 11.4723 15.8274 11.7757 15.8274 12.1498C15.8274 12.4825 15.5877 12.7591 15.2717 12.8165L15.1499 12.8274H12.4951C12.1209 12.8274 11.8176 12.524 11.8176 12.1498C11.8176 11.8172 12.0573 11.5406 12.3733 11.4832L12.4951 11.4723H15.1499Z" fill="#023F80"/>
</svg>
