<svg width="24" height="24" viewBox="0 0 24 24" fill="none" xmlns="http://www.w3.org/2000/svg">
<path fill-rule="evenodd" clipRule="evenodd" d="M10.7068 8.20001H8.99996C6.36861 8.20001 4.92057 10.3059 4.58516 11.9829L3.88097 15.5039C3.00556 15.6507 2.22702 16.2405 1.87984 17.1272C1.35421 18.4696 2.01642 19.9838 3.35874 20.5094C5.782 21.4581 8.54335 21.9043 11.6021 21.9043C14.6609 21.9043 17.4222 21.4581 19.8455 20.5094C21.1878 19.9838 21.85 18.4696 21.3244 17.1272C20.9831 16.2557 20.2252 15.671 19.3681 15.5118L18.7648 12.1788C18.8508 12.1828 18.919 12.1822 18.9632 12.1819C18.9735 12.1818 18.9824 12.1818 18.99 12.1818H19.097C20.4267 12.1818 21.5046 11.1038 21.5046 9.7741V7.56833C21.8215 7.3237 22.1142 6.95966 22.2435 6.4188C22.3775 5.85818 22.2495 5.37372 22.1157 5.06127C21.9829 4.75121 21.7995 4.50079 21.6434 4.3165C21.1337 3.71469 20.5109 3.13796 19.6929 2.72274C18.8657 2.30282 17.9417 2.10003 16.9 2.10003C13.4041 2.10003 10.8548 4.93722 10.7068 8.20001ZM16.4786 9.65456L16.4638 9.57154C16.4633 9.56922 16.4629 9.56677 16.4626 9.5642C16.4604 9.54867 16.4593 9.52857 16.4593 9.50508C16.4592 9.32279 16.5234 8.93622 16.6258 8.89526C16.7255 8.85538 16.7639 8.88494 16.8725 8.96857C16.8886 8.98099 16.9063 8.9946 16.9259 9.00936L18.0842 9.97665C18.2126 10.1051 18.3198 10.1928 18.4161 10.2527C18.6236 10.3818 18.7804 10.3818 18.99 10.3818H19.097C19.4326 10.3818 19.7046 10.1097 19.7046 9.7741V6.7072C19.7046 6.5789 19.7046 6.51476 19.7249 6.46752C19.7449 6.42091 19.7673 6.393 19.8085 6.36334C19.8502 6.33328 19.9261 6.31639 20.0781 6.28259C20.5671 6.17382 20.6311 5.90625 20.2699 5.47989C20.1146 5.29654 19.9545 5.12587 19.7861 4.96968C19.6629 4.85551 19.5353 4.74907 19.4019 4.65106C19.3837 4.63769 19.3654 4.62447 19.347 4.61142C18.712 4.16144 17.9439 3.90003 16.9 3.90003C14.3954 3.90003 12.5 6 12.5 8.5L12.5 9.36001C12.5 9.58403 12.5 9.69604 12.4564 9.78161C12.418 9.85687 12.3568 9.91806 12.2816 9.95641C12.196 10 12.084 10 11.86 10H8.99996C7.49996 10 6.57744 11.1998 6.35021 12.3359L5.44423 16.8658C5.39535 17.1102 5.37091 17.2324 5.30015 17.3129C5.283 17.3324 5.26346 17.3503 5.24221 17.3663C5.19128 17.4047 5.13048 17.4318 5.06897 17.4428C5.06602 17.4433 5.06307 17.4438 5.06012 17.4442C4.95416 17.4604 4.84303 17.4171 4.62077 17.3304L4.60575 17.3245C4.1891 17.1614 3.71906 17.3669 3.55593 17.7835C3.39279 18.2001 3.59831 18.6701 4.01497 18.8333C4.02057 18.8355 4.02622 18.8377 4.03182 18.8399C4.20651 18.908 4.38354 18.9734 4.56291 19.036C4.76845 19.1078 4.97707 19.1759 5.18874 19.2404C5.68333 19.3912 6.19463 19.5221 6.72261 19.6333C6.73347 19.6356 6.74433 19.6379 6.7552 19.6401C7.09647 19.7114 7.44469 19.7744 7.79986 19.8292C8.98944 20.0128 10.2569 20.1043 11.6021 20.1043C12.9474 20.1043 14.2151 20.0128 15.4048 19.8291C15.7599 19.7743 16.1082 19.7113 16.4494 19.64C16.4603 19.6378 16.4712 19.6355 16.482 19.6332C17.0173 19.5205 17.5353 19.3875 18.0363 19.2341C18.2408 19.1715 18.4425 19.1055 18.6413 19.036C18.8264 18.9714 19.0091 18.9038 19.1892 18.8333C19.6059 18.6702 19.8114 18.2001 19.6483 17.7835C19.4852 17.3669 19.0152 17.1614 18.5985 17.3245C18.3798 17.4101 18.2704 17.4529 18.1664 17.4382C18.1585 17.4371 18.1505 17.4357 18.1426 17.4341C18.0849 17.422 18.0284 17.396 17.9805 17.36C17.956 17.3416 17.9337 17.3207 17.9146 17.2976C17.8475 17.2168 17.8256 17.096 17.7819 16.8544L16.4786 9.65456ZM15.6201 17.968C15.6534 17.8913 15.6534 17.8177 15.6534 17.6739C15.6534 15.4365 13.8397 13.6228 11.6023 13.6228C9.36495 13.6228 7.55122 15.4365 7.55122 17.6739C7.55122 17.8178 7.55122 17.8914 7.5845 17.9681L7.58685 17.9734C7.61509 18.0357 7.67523 18.1058 7.73253 18.1433C7.80485 18.1905 7.88557 18.2029 8.04701 18.2279C9.15189 18.3984 10.3368 18.484 11.6021 18.484C12.8675 18.484 14.0526 18.3984 15.1576 18.2278C15.319 18.2029 15.3998 18.1904 15.4721 18.1432C15.5294 18.1058 15.5895 18.0356 15.6177 17.9733L15.6201 17.968ZM13.5829 16.6031C13.2021 15.9002 12.4579 15.4228 11.6023 15.4228C10.7467 15.4228 10.0025 15.9002 9.6217 16.6031C10.2508 16.6567 10.9107 16.684 11.6021 16.684C12.2936 16.684 12.9536 16.6566 13.5829 16.6031Z" fill="#023F80"/>
</svg>
