<svg width="28" height="28" viewBox="0 0 28 28" fill="none" xmlns="http://www.w3.org/2000/svg">
<path fill-rule="evenodd" clipRule="evenodd" d="M9.8 2H9.7587H9.75868C8.95372 1.99999 8.28937 1.99998 7.74818 2.04419C7.18608 2.09012 6.66937 2.18868 6.18404 2.43598C5.43139 2.81947 4.81947 3.43139 4.43598 4.18404C4.18868 4.66937 4.09012 5.18608 4.04419 5.74818C3.99998 6.28937 3.99999 6.95372 4 7.75868V7.7587V7.8V20.2V20.2413V20.2413C3.99999 21.0463 3.99998 21.7106 4.04419 22.2518C4.09012 22.8139 4.18868 23.3306 4.43598 23.816C4.81947 24.5686 5.43139 25.1805 6.18404 25.564C6.66937 25.8113 7.18608 25.9099 7.74818 25.9558C8.28937 26 8.95372 26 9.75868 26H9.8H18.2H18.2413C19.0463 26 19.7106 26 20.2518 25.9558C20.8139 25.9099 21.3306 25.8113 21.816 25.564C22.5686 25.1805 23.1805 24.5686 23.564 23.816C23.8113 23.3306 23.9099 22.8139 23.9558 22.2518C24 21.7106 24 21.0463 24 20.2413V20.2V7.8V7.75868C24 6.95372 24 6.28937 23.9558 5.74818C23.9099 5.18608 23.8113 4.66937 23.564 4.18404C23.1805 3.43139 22.5686 2.81947 21.816 2.43598C21.3306 2.18868 20.8139 2.09012 20.2518 2.04419C19.7106 1.99998 19.0463 1.99999 18.2413 2H18.2413H18.2H9.8ZM7.09202 4.21799C7.24842 4.1383 7.47262 4.07337 7.91104 4.03755C8.36113 4.00078 8.94342 4 9.8 4H18.2C19.0566 4 19.6389 4.00078 20.089 4.03755C20.5274 4.07337 20.7516 4.1383 20.908 4.21799C21.2843 4.40974 21.5903 4.7157 21.782 5.09202C21.8617 5.24842 21.9266 5.47262 21.9624 5.91104C21.9992 6.36113 22 6.94342 22 7.8V20.2C22 21.0566 21.9992 21.6389 21.9624 22.089C21.9266 22.5274 21.8617 22.7516 21.782 22.908C21.5903 23.2843 21.2843 23.5903 20.908 23.782C20.7516 23.8617 20.5274 23.9266 20.089 23.9624C19.6389 23.9992 19.0566 24 18.2 24H9.8C8.94342 24 8.36113 23.9992 7.91104 23.9624C7.47262 23.9266 7.24842 23.8617 7.09202 23.782C6.7157 23.5903 6.40974 23.2843 6.21799 22.908C6.1383 22.7516 6.07337 22.5274 6.03755 22.089C6.00078 21.6389 6 21.0566 6 20.2V7.8C6 6.94342 6.00078 6.36113 6.03755 5.91104C6.07337 5.47262 6.1383 5.24842 6.21799 5.09202C6.40974 4.7157 6.7157 4.40974 7.09202 4.21799ZM14 19C13.1716 19 12.5 19.6716 12.5 20.5C12.5 21.3284 13.1716 22 14 22C14.8284 22 15.5 21.3284 15.5 20.5C15.5 19.6716 14.8284 19 14 19Z" fill="#023F80"/>
</svg>
