<svg width="28" height="28" viewBox="0 0 28 28" fill="none" xmlns="http://www.w3.org/2000/svg">
<path d="M21.0711 6.92895C18.0753 3.93311 13.6496 3.23407 9.98621 4.83768C9.48027 5.05915 8.89059 4.82855 8.66912 4.32261C8.44765 3.81668 8.67826 3.227 9.18419 3.00553C13.5765 1.08283 18.8878 1.91728 22.4853 5.51473C26.0843 9.11372 26.9179 14.4281 24.992 18.8215C24.7703 19.3273 24.1805 19.5576 23.6747 19.3358C23.1689 19.1141 22.9386 18.5243 23.1603 18.0185C24.7666 14.3542 24.0682 9.92606 21.0711 6.92895Z" fill="#023F80"/>
<path fill-rule="evenodd" clipRule="evenodd" d="M3.29292 3.2929C3.68344 2.90238 4.31661 2.90238 4.70713 3.2929L24.7071 23.2929C25.0977 23.6834 25.0977 24.3166 24.7071 24.7071C24.3166 25.0976 23.6834 25.0976 23.2929 24.7071L21.7491 23.1633C17.0344 27.1595 9.96289 26.9335 5.51472 22.4853C1.06654 18.0371 0.840526 10.9656 4.83667 6.25087L3.29292 4.70712C2.90239 4.31659 2.90239 3.68343 3.29292 3.2929ZM18.1925 19.6067L20.3291 21.7433C16.4011 24.9617 10.5955 24.7377 6.92893 21.0711C3.26233 17.4045 3.03827 11.599 6.25675 7.67095L8.39331 9.80751C6.33772 12.5493 6.55672 16.4562 9.0503 18.9498C11.5439 21.4433 15.4507 21.6623 18.1925 19.6067ZM10.4645 17.5355C8.75406 15.8251 8.54193 13.1837 9.82812 11.2423L12.0679 13.4821C11.8897 14.1493 12.0624 14.8908 12.5858 15.4142C13.1093 15.9377 13.8507 16.1103 14.5179 15.9321L16.7577 18.1719C14.8164 19.4581 12.175 19.246 10.4645 17.5355Z" fill="#023F80"/>
<path d="M13.7246 9.00755C15.0964 8.93241 16.4893 9.41823 17.5356 10.4645C18.5841 11.513 19.0698 12.9098 18.992 14.2845C18.9608 14.8359 19.3825 15.3082 19.9339 15.3394C20.4853 15.3706 20.9576 14.9488 20.9888 14.3974C21.0974 12.478 20.4179 10.5184 18.9498 9.05026C17.4849 7.58536 15.5306 6.90563 13.6152 7.01054C13.0637 7.04074 12.6412 7.51227 12.6714 8.06373C12.7016 8.61519 13.1731 9.03775 13.7246 9.00755Z" fill="#023F80"/>
</svg>
