<svg width="28" height="28" viewBox="0 0 28 28" fill="none" xmlns="http://www.w3.org/2000/svg">
<path fill-rule="evenodd" clipRule="evenodd" d="M10.5 2C9.9477 2 9.49999 2.44772 9.49999 3C9.49999 3.55228 9.9477 4 10.5 4C11.0523 4 11.5 3.55228 11.5 3C11.5 2.44772 11.0523 2 10.5 2ZM14.8631 3.26172C14.7468 2.91276 14.2532 2.91276 14.1369 3.26172L13.8457 4.13528C13.6552 4.70676 13.2067 5.1552 12.6353 5.34569L11.7617 5.63688C11.4127 5.7532 11.4127 6.2468 11.7617 6.36312L12.6353 6.65431C13.2067 6.8448 13.6552 7.29324 13.8457 7.86472L14.1369 8.73828C14.2532 9.08724 14.7468 9.08724 14.8631 8.73828L15.1543 7.86472C15.3448 7.29324 15.7932 6.8448 16.3647 6.65431L17.2383 6.36312C17.5872 6.2468 17.5872 5.7532 17.2383 5.63688L16.3647 5.34569C15.7932 5.1552 15.3448 4.70676 15.1543 4.13528L14.8631 3.26172ZM8.19453 7.92987C8.70809 7.82242 9.0373 7.319 8.92985 6.80545C8.82241 6.2919 8.31899 5.96269 7.80544 6.07013C6.45452 6.35277 5.33211 6.74639 4.52225 7.25565C3.73187 7.75265 3.04999 8.4908 3.04999 9.48839C3.04999 10.2877 3.49533 10.9287 4.06753 11.3963C4.56497 11.8028 5.22271 12.1369 5.99075 12.4095C5.99353 12.5722 5.99569 12.7357 5.99721 12.9C5.99906 13.0989 5.99999 13.2989 5.99999 13.5C5.99999 17.3379 5.66207 20.8017 5.03069 23.2597C5.01046 23.3384 4.99999 23.4187 4.99999 23.5C4.99999 24.8807 8.27942 26 14 26C19.7206 26 23 24.8807 23 23.5C23 23.4187 22.9895 23.3384 22.9693 23.2597C22.3379 20.8017 22 17.3379 22 13.5C22 13.2989 22.0009 13.0989 22.0028 12.9C22.0043 12.7357 22.0064 12.5722 22.0092 12.4095C22.7773 12.1369 23.435 11.8028 23.9325 11.3963C24.5046 10.9287 24.95 10.2877 24.95 9.48839C24.95 8.4908 24.2681 7.75265 23.4777 7.25565C22.6679 6.74639 21.5455 6.35277 20.1945 6.07013C19.681 5.96269 19.1776 6.2919 19.0701 6.80545C18.9627 7.319 19.2919 7.82242 19.8054 7.92987C21.0466 8.18955 21.9242 8.52319 22.4663 8.86408C23.0279 9.21722 23.05 9.45211 23.05 9.48839C23.05 9.5207 23.0399 9.67199 22.7302 9.92502C22.417 10.1809 21.8869 10.4597 21.0944 10.713C19.5174 11.2169 17.125 11.55 14 11.55C10.8749 11.55 8.48261 11.2169 6.90559 10.713C6.11304 10.4597 5.58296 10.1809 5.26977 9.92502C4.96013 9.67199 4.94999 9.5207 4.94999 9.48839C4.94999 9.45211 4.97205 9.21722 5.53366 8.86408C6.07577 8.52319 6.95336 8.18955 8.19453 7.92987ZM20.1025 12.9256C18.4527 13.2621 16.398 13.45 14 13.45C11.6019 13.45 9.54731 13.2621 7.89752 12.9256C7.89916 13.1162 7.89999 13.3077 7.89999 13.5C7.89999 17.1276 7.60668 20.5147 7.01903 23.1176C7.21282 23.2138 7.49615 23.3286 7.89194 23.4453C9.18641 23.8268 11.2367 24.1 14 24.1C16.7633 24.1 18.8136 23.8268 20.108 23.4453C20.5038 23.3286 20.7872 23.2138 20.9809 23.1176C20.3933 20.5147 20.1 17.1276 20.1 13.5C20.1 13.3077 20.1008 13.1162 20.1025 12.9256Z" fill="#023F80"/>
</svg>
