<svg width="28" height="28" viewBox="0 0 28 28" fill="none" xmlns="http://www.w3.org/2000/svg">
<path d="M16.2853 15.8399C15.7996 16.0906 15.1077 16.4476 14 16.4476C12.8923 16.4476 12.2003 16.0906 11.7146 15.8399C11.2685 15.6098 10.9964 15.4694 10.736 15.7777C10.192 16.4218 11.28 18.9984 14 18.9984C16.72 18.9984 17.808 16.4218 17.264 15.7777C17.0035 15.4694 16.7314 15.6098 16.2853 15.8399Z" fill="#023F80"/>
<path d="M10.8113 10.0085C11.7481 10.0885 12.4578 10.7092 12.3963 11.3948C12.3348 12.0805 11.5255 12.5714 10.5887 12.4915C9.65186 12.4115 8.94224 11.7908 9.00371 11.1052C9.06518 10.4195 9.87447 9.92856 10.8113 10.0085Z" fill="#023F80"/>
<path d="M18.9963 11.1052C18.9348 10.4195 18.1255 9.92856 17.1887 10.0085C16.2518 10.0885 15.5422 10.7092 15.6037 11.3948C15.6652 12.0805 16.4744 12.5714 17.4113 12.4915C18.3481 12.4115 19.0577 11.7908 18.9963 11.1052Z" fill="#023F80"/>
<path fill-rule="evenodd" clipRule="evenodd" d="M23.4429 4.26222C25.8037 6.70196 25.2135 13.4112 23.4429 17.6808C21.6724 21.9503 18.1313 25 14 25C9.86871 25 6.32761 21.9503 4.55706 17.6808C2.78651 13.4112 2.19632 6.70196 4.55706 4.26222C6.11022 2.65709 7.66338 2.90798 9.88882 3.26748C11.046 3.4544 12.3848 3.67068 14 3.67068C15.6152 3.67068 16.954 3.4544 18.1112 3.26747C20.3366 2.90798 21.8898 2.65709 23.4429 4.26222ZM22.0056 5.65297C22.259 5.91485 22.5419 6.41529 22.7429 7.2539C22.9398 8.07529 23.0263 9.09124 22.993 10.2267C22.9261 12.5086 22.3842 15.0127 21.5955 16.9147C20.0237 20.7049 17.0677 23 14 23C10.9323 23 7.97628 20.7049 6.4045 16.9147C5.61576 15.0127 5.07387 12.5086 5.00697 10.2267C4.97367 9.09124 5.06018 8.07529 5.25705 7.2539C5.45805 6.41529 5.74095 5.91485 5.99435 5.65297C6.36335 5.27163 6.64684 5.13611 6.88729 5.07099C7.16759 4.99508 7.5474 4.9728 8.18152 5.04031C8.48326 5.07243 8.87612 5.13532 9.33896 5.2094C10.5431 5.40213 12.2208 5.67068 14 5.67068C15.7792 5.67068 17.4569 5.40213 18.661 5.2094C19.1239 5.13532 19.5167 5.07243 19.8185 5.04031C20.4526 4.9728 20.8324 4.99508 21.1127 5.07099C21.3532 5.13611 21.6367 5.27163 22.0056 5.65297Z" fill="#023F80"/>
</svg>
