<svg width="28" height="28" viewBox="0 0 28 28" fill="none" xmlns="http://www.w3.org/2000/svg">
<path fill-rule="evenodd" clipRule="evenodd" d="M7.7587 5.5H20.2413C21.0463 5.49999 21.7106 5.49998 22.2518 5.54419C22.8139 5.59012 23.3306 5.68868 23.816 5.93598C24.5686 6.31947 25.1805 6.93139 25.564 7.68404C25.8113 8.16937 25.9099 8.68608 25.9558 9.24818C26 9.78937 26 10.4537 26 11.2587V16.7413C26 17.5463 26 18.2106 25.9558 18.7518C25.9099 19.3139 25.8113 19.8306 25.564 20.316C25.1805 21.0686 24.5686 21.6805 23.816 22.064C23.3306 22.3113 22.8139 22.4099 22.2518 22.4558C21.7106 22.5 21.0463 22.5 20.2413 22.5H7.75868C6.95372 22.5 6.28937 22.5 5.74818 22.4558C5.18608 22.4099 4.66938 22.3113 4.18404 22.064C3.43139 21.6805 2.81947 21.0686 2.43598 20.316C2.18868 19.8306 2.09012 19.3139 2.0442 18.7518C1.99998 18.2106 1.99999 17.5463 2 16.7413V11.2587C1.99999 10.4537 1.99998 9.78936 2.0442 9.24818C2.09012 8.68608 2.18868 8.16937 2.43598 7.68404C2.81947 6.93139 3.43139 6.31947 4.18404 5.93598C4.66938 5.68868 5.18608 5.59012 5.74818 5.54419C6.28937 5.49998 6.95374 5.49999 7.7587 5.5ZM5.91104 7.53755C5.47262 7.57337 5.24842 7.6383 5.09202 7.71799C4.7157 7.90974 4.40974 8.2157 4.21799 8.59202C4.1383 8.74842 4.07337 8.97262 4.03755 9.41104C4.00078 9.86113 4 10.4434 4 11.3V16.7C4 17.5566 4.00078 18.1389 4.03755 18.589C4.07337 19.0274 4.1383 19.2516 4.21799 19.408C4.40974 19.7843 4.7157 20.0903 5.09202 20.282C5.24842 20.3617 5.47262 20.4266 5.91104 20.4624C6.36113 20.4992 6.94342 20.5 7.8 20.5H9L9 17C7.34315 17 6 15.6569 6 14C6 12.3431 7.34315 11 9 11L9 7.5H7.8C6.94342 7.5 6.36113 7.50078 5.91104 7.53755ZM17 20.5H11V7.5H17V20.5ZM19 20.5H20.2C21.0566 20.5 21.6389 20.4992 22.089 20.4624C22.5274 20.4266 22.7516 20.3617 22.908 20.282C23.2843 20.0903 23.5903 19.7843 23.782 19.408C23.8617 19.2516 23.9266 19.0274 23.9625 18.589C23.9992 18.1389 24 17.5566 24 16.7V11.3C24 10.4434 23.9992 9.86113 23.9625 9.41104C23.9266 8.97262 23.8617 8.74842 23.782 8.59202C23.5903 8.2157 23.2843 7.90974 22.908 7.71799C22.7516 7.6383 22.5274 7.57337 22.089 7.53755C21.6389 7.50078 21.0566 7.5 20.2 7.5H19V11C20.6569 11 22 12.3431 22 14C22 15.6569 20.6569 17 19 17V20.5Z" fill="#023F80"/>
</svg>
