<svg width="24" height="24" viewBox="0 0 24 24" fill="none" xmlns="http://www.w3.org/2000/svg">
<path d="M18.5024 5.3999C18.6066 5.3999 18.7082 5.43226 18.7931 5.49249L21.9555 7.73484C22.1818 7.89537 22.2352 8.20902 22.0747 8.43541C22.042 8.48159 22.0016 8.52191 21.9555 8.55466L18.7931 10.797C18.5667 10.9575 18.2531 10.9041 18.0925 10.6778C18.0323 10.5928 17.9999 10.4912 17.9999 10.3871V8.9999H14.3999C13.3781 8.9999 12.5197 9.75613 10.8384 11.9995C12.4636 14.1687 13.3198 14.9476 14.2978 14.9973L14.3999 14.9999H17.9999V13.6127C17.9999 13.3352 18.2249 13.1102 18.5024 13.1102C18.6066 13.1102 18.7082 13.1425 18.7931 13.2028L21.9555 15.4451C22.1818 15.6057 22.2352 15.9193 22.0747 16.1457C22.042 16.1919 22.0016 16.2322 21.9555 16.2649L18.7931 18.5073C18.5667 18.6678 18.2531 18.6144 18.0925 18.388C18.0323 18.3031 17.9999 18.2015 17.9999 18.0974V16.7142H14.3999C12.6959 16.7142 11.6305 15.866 9.77185 13.433C7.91227 15.866 6.84688 16.7142 5.1428 16.7142H2.57138C2.09799 16.7142 1.71423 16.3304 1.71423 15.857C1.71423 15.3837 2.09799 14.9999 2.57138 14.9999H5.1428C6.16452 14.9999 7.02282 14.2439 8.70369 12.0012C7.07936 9.83128 6.22308 9.05223 5.24498 9.00248L5.1428 8.9999H2.57138C2.09799 8.9999 1.71423 8.61615 1.71423 8.14276C1.71423 7.70319 2.04513 7.3409 2.47142 7.29138L2.57138 7.28562H5.1428C6.84688 7.28562 7.91227 8.13384 9.7709 10.5668C11.6305 8.13384 12.6959 7.28562 14.3999 7.28562H17.9999V5.9024C17.9999 5.62488 18.2249 5.3999 18.5024 5.3999Z" fill="#023F80"/>
</svg>
