<svg width="24" height="24" viewBox="0 0 24 24" fill="none" xmlns="http://www.w3.org/2000/svg">
<path d="M12.0041 2.09998C12.6788 2.09998 13.3303 2.19222 13.9484 2.37338C14.4254 2.51318 14.6988 3.01319 14.559 3.49018C14.4192 3.96718 13.9192 4.24052 13.4422 4.10072C12.9896 3.96808 12.5086 3.89998 12.0041 3.89998C9.10882 3.89998 7.00469 6.20971 6.90377 9.39132L6.89998 9.63155V11.2312C6.89998 12.0229 6.56418 12.6061 5.84482 13.3781L5.11831 14.1288C4.58325 14.6997 4.39998 15.0123 4.39998 15.3272C4.39998 15.5193 4.41352 15.6192 4.4569 15.7094C4.55653 15.9167 4.84447 16.0758 5.5632 16.0975L5.73682 16.1H18.2631C19.0832 16.1 19.4165 15.9315 19.5352 15.7032C19.5846 15.6081 19.6 15.5055 19.6 15.3272C19.6 15.0123 19.4167 14.6997 18.8816 14.1288L18.328 13.5598L18.0698 13.2858C17.992 13.2003 17.9214 13.119 17.8539 13.0372C17.5376 12.6538 17.592 12.0865 17.9755 11.7702C18.3589 11.4539 18.9262 11.5084 19.2425 11.8918C19.3168 11.982 19.4018 12.0771 19.5075 12.1891L19.8909 12.5823C20.9721 13.6789 21.4 14.3107 21.4 15.3272C21.4 15.7717 21.3481 16.1182 21.1323 16.5334C20.7029 17.3594 19.8209 17.8411 18.5133 17.8949L18.2631 17.9L16.3773 17.9008C16.3754 17.9092 16.3733 17.9175 16.3712 17.9258C15.7541 20.3061 14.2446 21.6 12 21.6C9.75537 21.6 8.24589 20.3061 7.62878 17.9258L7.62298 17.9H5.73682C4.24886 17.9 3.27132 17.3977 2.83464 16.4894C2.64368 16.0922 2.59998 15.7698 2.59998 15.3272C2.59998 14.3743 2.97604 13.7594 3.91396 12.7827L4.37946 12.307L4.61591 12.0543C4.93079 11.7031 5.07098 11.4717 5.09587 11.29L5.09998 11.2312V9.63155C5.09998 5.37994 7.98769 2.09998 12.0041 2.09998ZM14.5016 17.9007H9.49834C9.94848 19.2185 10.7432 19.8 12 19.8C13.2568 19.8 14.0515 19.2185 14.5016 17.9007ZM19.4636 4.26358C19.8151 3.91211 20.3849 3.91211 20.7364 4.26358C21.0878 4.61505 21.0878 5.1849 20.7364 5.53637L16.5364 9.73637C16.1849 10.0878 15.6151 10.0878 15.2636 9.73637L13.2636 7.73637C12.9121 7.3849 12.9121 6.81505 13.2636 6.46358C13.6151 6.11211 14.1849 6.11211 14.5364 6.46358L15.9 7.82718L19.4636 4.26358Z" fill="#023F80"/>
</svg>
