<svg width="28" height="28" viewBox="0 0 28 28" fill="none" xmlns="http://www.w3.org/2000/svg">
<path d="M13.9546 3.34998C14.7347 3.34998 15.4973 3.46554 16.2254 3.69138C16.7001 3.83863 16.9656 4.34285 16.8183 4.8176C16.6711 5.29234 16.1669 5.55783 15.6921 5.41058C15.1367 5.2383 14.5539 5.14998 13.9546 5.14998C10.6073 5.14998 7.96704 7.90971 7.85383 11.5827L7.85005 11.8289V13.6571C7.85005 14.1764 7.70167 14.6517 7.43754 15.1188C7.28343 15.3914 7.08664 15.6681 6.82616 15.9876L6.59358 16.2651L6.23451 16.683L5.98286 16.9867L5.78239 17.2454C5.42899 17.7235 5.35005 17.9836 5.35005 18.3382L5.35424 18.5402C5.36192 18.6753 5.38189 18.7409 5.42747 18.8379C5.56037 19.1206 5.92734 19.3217 6.76378 19.3472L6.95029 19.35H20.9497C21.8865 19.35 22.3063 19.1407 22.4619 18.8346C22.5338 18.6931 22.55 18.6127 22.55 18.3382C22.55 17.9543 22.4573 17.6813 22.0225 17.1216L21.7967 16.8414L21.5168 16.5119C21.1918 16.1358 21.2332 15.5675 21.6092 15.2425C21.9853 14.9174 22.5536 14.9588 22.8787 15.3349C24.0093 16.643 24.35 17.3141 24.35 18.3382C24.35 18.8777 24.2784 19.2333 24.0665 19.6503C23.5999 20.568 22.6292 21.0899 21.2058 21.1451L20.95 21.15H18.2734L18.253 21.2223C17.9249 22.3347 17.3895 23.1925 16.6661 23.7713C15.9399 24.3522 15.0272 24.65 13.95 24.65C12.873 24.65 11.9602 24.3522 11.234 23.7712C10.571 23.2408 10.0659 22.4759 9.7335 21.4952L9.62544 21.15H6.95005C5.33818 21.15 4.26984 20.6062 3.79852 19.6037C3.61051 19.2038 3.55005 18.8739 3.55005 18.3382C3.55005 17.3715 3.85345 16.7191 4.83786 15.5476L5.2894 15.0204C5.56641 14.6937 5.75167 14.4433 5.87063 14.2329C5.96848 14.0598 6.0246 13.9082 6.04313 13.764L6.05005 13.6571V11.8289C6.05005 7.06749 9.5086 3.34998 13.9546 3.34998ZM16.376 21.1517L11.5242 21.1517C11.7414 21.6986 12.0245 22.0985 12.3585 22.3657C12.7539 22.682 13.2687 22.85 13.95 22.85C14.6315 22.85 15.1461 22.6821 15.5416 22.3657C15.8757 22.0984 16.1588 21.6985 16.376 21.1517ZM19.95 4.74998C20.4629 4.74998 20.8855 5.13602 20.9433 5.63336L20.95 5.74998V8.24998H23.45C24.0023 8.24998 24.45 8.6977 24.45 9.24998C24.45 9.76283 24.064 10.1855 23.5667 10.2432L23.45 10.25H20.95V12.75C20.95 13.3023 20.5023 13.75 19.95 13.75C19.4372 13.75 19.0145 13.3639 18.9568 12.8666L18.95 12.75V10.25H16.45C15.8977 10.25 15.45 9.80228 15.45 9.24998C15.45 8.73714 15.8361 8.31447 16.3334 8.2567L16.45 8.24998H18.95V5.74998C18.95 5.1977 19.3977 4.74998 19.95 4.74998Z" fill="#023F80"/>
</svg>
