<svg width="24" height="24" viewBox="0 0 24 24" fill="none" xmlns="http://www.w3.org/2000/svg">
<path fill-rule="evenodd" clipRule="evenodd" d="M4.99974 4.99962C6.7903 3.20906 9.26654 2.09998 12.0001 2.09998C14.7337 2.09998 17.2099 3.20906 19.0005 4.99962C20.791 6.79018 21.9001 9.26641 21.9001 12C21.9001 13.933 21.2901 15.2816 20.1299 16.041C19.0573 16.7429 17.7136 16.8036 16.4763 16.6722C16.0322 16.6246 15.5881 16.5757 15.1437 16.5301C14.487 16.4848 14.196 16.6703 14.0806 16.8097C13.9651 16.9491 13.8371 17.2695 14.004 17.9063C14.0556 18.1033 14.1126 18.2841 14.1763 18.4863C14.2095 18.5916 14.2445 18.7027 14.2815 18.8248C14.7454 20.3557 13.5997 21.9 12.0001 21.9C9.26654 21.9 6.7903 20.7909 4.99974 19.0003C3.20918 17.2098 2.1001 14.7335 2.1001 12C2.1001 9.26641 3.20918 6.79018 4.99974 4.99962ZM12.0001 3.89998C9.76309 3.89998 7.73933 4.80561 6.27253 6.27241C4.80574 7.73921 3.9001 9.76297 3.9001 12C3.9001 14.237 4.80574 16.2607 6.27253 17.7275C7.73933 19.1943 9.7631 20.1 12.0001 20.1C12.3919 20.1 12.6724 19.7217 12.5588 19.3468C12.534 19.2648 12.5057 19.1748 12.4758 19.0799C12.405 18.8548 12.3255 18.6019 12.2627 18.3625C12.0071 17.3868 12.0838 16.3988 12.6943 15.6616C13.3048 14.9244 14.2613 14.665 15.2675 14.7344C15.3232 14.7382 15.7289 14.7817 16.4656 14.8607L16.6696 14.8826C17.7444 14.9979 18.5883 14.8987 19.1442 14.5348C19.6304 14.2166 20.1001 13.555 20.1001 12C20.1001 9.76297 19.1945 7.73921 17.7277 6.27241C16.2609 4.80561 14.2371 3.89998 12.0001 3.89998Z" fill="#023F80"/>
<path d="M13.0001 7.39998C13.0001 6.62678 13.6269 5.99998 14.4001 5.99998C15.1733 5.99998 15.8001 6.62678 15.8001 7.39998C15.8001 8.17317 15.1733 8.79998 14.4001 8.79998C13.6269 8.79998 13.0001 8.17317 13.0001 7.39998Z" fill="#023F80"/>
<path d="M15.7501 11.4C15.7501 10.6268 16.3769 9.99998 17.1501 9.99998C17.9233 9.99998 18.5501 10.6268 18.5501 11.4C18.5501 12.1732 17.9233 12.8 17.1501 12.8C16.3769 12.8 15.7501 12.1732 15.7501 11.4Z" fill="#023F80"/>
<path d="M5.45029 11.4C5.45029 10.6268 6.07709 9.99998 6.85029 9.99998C7.62349 9.99998 8.25029 10.6268 8.25029 11.4C8.25029 12.1732 7.62349 12.8 6.85029 12.8C6.07709 12.8 5.45029 12.1732 5.45029 11.4Z" fill="#023F80"/>
<path d="M8.0001 7.39998C8.0001 6.62678 8.6269 5.99998 9.4001 5.99998C10.1733 5.99998 10.8001 6.62678 10.8001 7.39998C10.8001 8.17317 10.1733 8.79998 9.4001 8.79998C8.6269 8.79998 8.0001 8.17317 8.0001 7.39998Z" fill="#023F80"/>
</svg>
