<svg width="24" height="24" viewBox="0 0 24 24" fill="none" xmlns="http://www.w3.org/2000/svg">
<path fill-rule="evenodd" clipRule="evenodd" d="M9.92872 3.84759C10.4971 4.41921 10.9044 5.22549 11.0699 6.1232C11.2354 7.02056 11.1419 7.91651 10.8085 8.64769C10.4763 9.37641 9.85869 10.0189 8.9689 10.169C8.08382 10.3182 7.28525 9.91989 6.72105 9.35246C6.1527 8.78084 5.74536 7.97456 5.57985 7.07684C5.41442 6.17948 5.50787 5.28354 5.84124 4.55236C6.17349 3.82364 6.79108 3.18114 7.68088 3.03109C8.56596 2.88184 9.36453 3.28016 9.92872 3.84759ZM8.65229 5.11674C8.3644 4.82719 8.12232 4.78206 7.98019 4.80603C7.84276 4.82921 7.64104 4.94379 7.47904 5.29909C7.31817 5.65193 7.24244 6.16692 7.35002 6.75049C7.45755 7.33371 7.71375 7.79795 7.99748 8.08331C8.28538 8.37286 8.52745 8.41798 8.66959 8.39402C8.80702 8.37084 9.00874 8.25626 9.17073 7.90095C9.33161 7.54812 9.40734 7.03312 9.29975 6.44955C9.19223 5.86634 8.93603 5.4021 8.65229 5.11674ZM15.3475 5.11674C15.0637 5.4021 14.8075 5.86634 14.7 6.44955C14.5924 7.03312 14.6682 7.54812 14.829 7.90095C14.991 8.25626 15.1928 8.37084 15.3302 8.39402C15.4723 8.41798 15.7144 8.37286 16.0023 8.08331C16.286 7.79795 16.5422 7.33371 16.6498 6.75049C16.7573 6.16692 16.6816 5.65193 16.5207 5.29909C16.3587 4.94379 16.157 4.82921 16.0196 4.80603C15.8774 4.78206 15.6354 4.82719 15.3475 5.11674ZM14.0711 3.84759C14.6352 3.28016 15.4338 2.88184 16.3189 3.03109C17.2087 3.18114 17.8263 3.82364 18.1585 4.55236C18.4919 5.28354 18.5854 6.17948 18.4199 7.07684C18.2544 7.97456 17.8471 8.78084 17.2787 9.35246C16.7145 9.91989 15.916 10.3182 15.0309 10.169C14.1411 10.0189 13.5235 9.37641 13.1912 8.64769C12.8579 7.91651 12.7644 7.02056 12.9299 6.1232C13.0954 5.22549 13.5027 4.41921 14.0711 3.84759ZM4.9909 9.53559C5.64816 9.95097 6.20802 10.6285 6.57327 11.4423C6.93886 12.2569 7.07459 13.1299 6.96073 13.9039C6.84879 14.6649 6.46554 15.4581 5.67056 15.8432C4.8657 16.2332 4.01047 16.0263 3.35888 15.6145C2.70161 15.1991 2.14175 14.5216 1.7765 13.7077C1.41091 12.8931 1.27519 12.0202 1.38905 11.2462C1.50099 10.4852 1.88423 9.69199 2.67921 9.30682C3.48408 8.91685 4.33931 9.1238 4.9909 9.53559ZM4.02927 11.0572C3.71069 10.8559 3.53031 10.8946 3.46406 10.9267C3.38793 10.9636 3.2295 11.1028 3.16988 11.5081C3.11217 11.9004 3.17499 12.4277 3.4187 12.9707C3.66276 13.5145 4.00761 13.8951 4.32051 14.0929C4.63909 14.2942 4.81947 14.2554 4.88572 14.2234C4.96184 14.1865 5.12027 14.0472 5.17989 13.6419C5.2376 13.2496 5.17479 12.7224 4.93107 12.1793C4.68701 11.6355 4.34216 11.2549 4.02927 11.0572ZM19.9705 11.0572C19.6576 11.2549 19.3128 11.6355 19.0687 12.1793C18.825 12.7224 18.7622 13.2496 18.8199 13.6419C18.8795 14.0472 19.0379 14.1865 19.1141 14.2234C19.1803 14.2554 19.3607 14.2942 19.6793 14.0929C19.9922 13.8951 20.337 13.5145 20.5811 12.9707C20.8248 12.4277 20.8876 11.9004 20.8299 11.5081C20.7703 11.1028 20.6118 10.9636 20.5357 10.9267C20.4695 10.8946 20.2891 10.8559 19.9705 11.0572ZM19.0089 9.53559C19.6605 9.1238 20.5157 8.91685 21.3206 9.30682C22.1155 9.69199 22.4988 10.4852 22.6107 11.2462C22.7246 12.0202 22.5889 12.8931 22.2233 13.7077C21.858 14.5216 21.2982 15.1991 20.6409 15.6145C19.9893 16.0263 19.1341 16.2332 18.3292 15.8432C17.5342 15.4581 17.151 14.6649 17.039 13.9039C16.9252 13.1299 17.0609 12.2569 17.4265 11.4423C17.7918 10.6285 18.3516 9.95097 19.0089 9.53559ZM9.29254 12.4767C9.9051 11.6968 10.7523 11.1 11.9999 11.1C13.2475 11.1 14.0947 11.6968 14.7072 12.4767C15.1636 13.0577 15.5328 13.8035 15.8661 14.4767C15.9416 14.6293 16.0153 14.7781 16.0877 14.9204C16.3861 15.5068 16.6733 15.9659 16.9427 16.3964C17.0426 16.5562 17.1401 16.7121 17.2349 16.8691C17.5539 17.3978 17.9 18.0265 17.8999 18.7543C17.8998 19.3366 17.7601 19.8497 17.4714 20.2717C17.1843 20.6914 16.7971 20.9517 16.4175 21.1113C15.7285 21.4012 14.9488 21.4005 14.5424 21.4001C14.5278 21.4 14.5136 21.4 14.4999 21.4C14.0381 21.4 13.6929 21.3367 13.3928 21.2817C13.3542 21.2746 13.3164 21.2677 13.2792 21.261C12.9653 21.205 12.6077 21.15 11.9999 21.15C11.3921 21.15 11.0345 21.205 10.7206 21.261C10.6834 21.2677 10.6456 21.2746 10.607 21.2817C10.3069 21.3367 9.96163 21.4 9.49989 21.4C9.48621 21.4 9.47202 21.4 9.45734 21.4001C9.05101 21.4005 8.27124 21.4012 7.58223 21.1114C7.2027 20.9517 6.81551 20.6914 6.52834 20.2717C6.23965 19.8497 6.1 19.3366 6.09989 18.7543C6.09975 18.0265 6.4459 17.3978 6.76492 16.8691C6.85963 16.7121 6.95713 16.5562 7.0571 16.3964C7.32646 15.9659 7.61368 15.5068 7.91205 14.9204C7.98448 14.7781 8.05816 14.6293 8.13368 14.4767C8.46696 13.8035 8.83616 13.0577 9.29254 12.4767ZM9.78808 15.1947C9.7026 15.3666 9.61279 15.5471 9.5163 15.7368C9.17833 16.4009 8.82839 16.9601 8.55107 17.4033C8.46075 17.5476 8.37814 17.6796 8.30615 17.7989C7.98227 18.3358 7.89985 18.5776 7.89989 18.7539C7.89994 19.0445 7.96663 19.1862 8.01391 19.2553C8.06271 19.3266 8.14113 19.3937 8.2803 19.4522C8.60382 19.5883 9.04231 19.6 9.49989 19.6C9.79118 19.6 9.9831 19.5652 10.2824 19.511C10.321 19.504 10.3615 19.4967 10.4042 19.489C10.7903 19.4201 11.2577 19.35 11.9999 19.35C12.7421 19.35 13.2095 19.4201 13.5956 19.489C13.6383 19.4967 13.6788 19.504 13.7174 19.511C14.0167 19.5652 14.2086 19.6 14.4999 19.6C14.9575 19.6 15.396 19.5883 15.7195 19.4522C15.8587 19.3937 15.9371 19.3266 15.9859 19.2553C16.0331 19.1862 16.0998 19.0445 16.0999 18.7539C16.0999 18.5776 16.0175 18.3358 15.6936 17.7989C15.6216 17.6796 15.539 17.5476 15.4487 17.4033C15.1714 16.9601 14.8214 16.4009 14.4835 15.7368C14.387 15.5471 14.2972 15.3666 14.2117 15.1947C13.8852 14.5382 13.6219 14.009 13.2917 13.5886C12.9278 13.1253 12.5607 12.9 11.9999 12.9C11.4391 12.9 11.072 13.1253 10.7081 13.5886C10.3779 14.009 10.1146 14.5382 9.78808 15.1947Z" fill="#023F80"/>
</svg>
