<svg width="24" height="24" viewBox="0 0 24 24" fill="none" xmlns="http://www.w3.org/2000/svg">
<path fill-rule="evenodd" clipRule="evenodd" d="M14.2593 7.47797L5.22216 16.5151C5.01587 16.7214 4.89998 17.0012 4.89998 17.2929L4.89998 19C4.89998 19.0552 4.94475 19.1 4.99998 19.1H6.70708C6.99882 19.1 7.27861 18.9841 7.4849 18.7778L16.522 9.74071L14.2593 7.47797ZM15.532 6.20518L17.7948 8.46792L18.9262 7.33655C19.1605 7.10223 19.1605 6.72234 18.9262 6.48802L17.5119 5.07381C17.2776 4.83949 16.8977 4.83949 16.6634 5.07381L15.532 6.20518ZM3.94936 15.2423L15.3906 3.80102C16.3279 2.86376 17.8475 2.86376 18.7847 3.80102L20.199 5.21523C21.1362 6.15249 21.1362 7.67208 20.199 8.60934L8.75769 20.0506C8.21384 20.5945 7.47621 20.9 6.70708 20.9L4.99998 20.9C3.95064 20.9 3.09998 20.0494 3.09998 19L3.09998 17.2929C3.09998 16.5238 3.40551 15.7862 3.94936 15.2423Z" fill="#023F80"/>
</svg>
