<svg width="24" height="24" viewBox="0 0 24 24" fill="none" xmlns="http://www.w3.org/2000/svg">
<path d="M9.40969 2.09998L14.9233 2.10166C16.8671 2.12204 17.8488 2.32991 18.8665 2.87418C19.8382 3.39382 20.6061 4.16177 21.1258 5.13342C21.7003 6.20764 21.9 7.24178 21.9 9.40969V14.5903C21.9 16.7582 21.7003 17.7923 21.1258 18.8665C20.6061 19.8382 19.8382 20.6061 18.8665 21.1258C17.7923 21.7003 16.7582 21.9 14.5903 21.9H9.40969C7.24178 21.9 6.20764 21.7003 5.13342 21.1258C4.16177 20.6061 3.39382 19.8382 2.87418 18.8665C2.29968 17.7923 2.09998 16.7582 2.09998 14.5903L2.10166 9.07664C2.12204 7.13281 2.32991 6.1511 2.87418 5.13342C3.39382 4.16177 4.16177 3.39382 5.13342 2.87418C6.20764 2.29968 7.24178 2.09998 9.40969 2.09998ZM15.0895 13.2916L11.3616 17.8218C11.0461 18.2052 10.4797 18.2607 10.0958 17.9458L8.05402 16.2709L5.24815 19.0265C5.46762 19.2233 5.71261 19.3943 5.9823 19.5385C6.67823 19.9107 7.35463 20.0663 8.84752 20.095L9.40969 20.1H14.5903L15.1524 20.095C16.4697 20.0697 17.1513 19.9456 17.7715 19.661L18.0177 19.5385C18.6756 19.1866 19.1866 18.6756 19.5385 18.0177C19.6383 17.831 19.7226 17.6458 19.793 17.4459L15.0895 13.2916ZM14.5903 3.89998H9.40969L8.84752 3.90496C7.53027 3.93023 6.84868 4.05439 6.22847 4.33892L5.9823 4.46144C5.32433 4.81333 4.81333 5.32433 4.46144 5.9823L4.33892 6.22847C4.01645 6.93138 3.89998 7.71311 3.89998 9.40969V14.5903L3.90496 15.1524C3.92669 16.2849 4.02151 16.9476 4.2285 17.5053L7.36934 14.4204C7.69732 14.0982 8.21535 14.0751 8.57078 14.3666L10.5427 15.9842L14.2918 11.4281C14.6155 11.0348 15.2008 10.9882 15.5826 11.3255L20.0914 15.3104C20.0928 15.2588 20.094 15.2061 20.095 15.1524L20.1 14.5903V9.40969L20.095 8.84752C20.0697 7.53027 19.9456 6.84868 19.661 6.22847L19.5385 5.9823C19.1866 5.32433 18.6756 4.81333 18.0177 4.46144C17.3217 4.08925 16.6453 3.9336 15.1524 3.90496L14.5903 3.89998ZM8.49998 6.99998C9.3284 6.99998 9.99998 7.67155 9.99998 8.49998C9.99998 9.3284 9.3284 9.99998 8.49998 9.99998C7.67155 9.99998 6.99998 9.3284 6.99998 8.49998C6.99998 7.67155 7.67155 6.99998 8.49998 6.99998Z" fill="#023F80"/>
</svg>
