<svg width="28" height="28" viewBox="0 0 28 28" fill="none" xmlns="http://www.w3.org/2000/svg">
<path fill-rule="evenodd" clipRule="evenodd" d="M7.8 7H7.7587C6.95374 6.99999 6.28937 6.99998 5.74818 7.0442C5.18608 7.09012 4.66937 7.18869 4.18404 7.43598C3.43139 7.81947 2.81947 8.43139 2.43598 9.18404C2.18868 9.66938 2.09012 10.1861 2.04419 10.7482C1.99998 11.2894 1.99999 11.9537 2 12.7587V12.8V15.2V15.2413C1.99999 16.0463 1.99998 16.7106 2.04419 17.2518C2.09012 17.8139 2.18868 18.3306 2.43598 18.816C2.81947 19.5686 3.43139 20.1805 4.18404 20.564C4.66937 20.8113 5.18608 20.9099 5.74818 20.9558C6.28938 21 6.95374 21 7.75872 21H7.8H20.2H20.2413C21.0463 21 21.7106 21 22.2518 20.9558C22.8139 20.9099 23.3306 20.8113 23.816 20.564C24.5686 20.1805 25.1805 19.5686 25.564 18.816C25.8113 18.3306 25.9099 17.8139 25.9558 17.2518C26 16.7106 26 16.0463 26 15.2413V15.2V12.8V12.7587C26 11.9537 26 11.2894 25.9558 10.7482C25.9099 10.1861 25.8113 9.66938 25.564 9.18404C25.1805 8.43139 24.5686 7.81947 23.816 7.43598C23.3306 7.18869 22.8139 7.09012 22.2518 7.0442C21.7106 6.99998 21.0463 6.99999 20.2413 7H20.2H7.8ZM5.09202 9.21799C5.24842 9.1383 5.47262 9.07337 5.91104 9.03755C6.36113 9.00078 6.94342 9 7.8 9H20.2C21.0566 9 21.6389 9.00078 22.089 9.03755C22.5274 9.07337 22.7516 9.1383 22.908 9.21799C23.2843 9.40974 23.5903 9.7157 23.782 10.092C23.8617 10.2484 23.9266 10.4726 23.9624 10.911C23.9992 11.3611 24 11.9434 24 12.8V15.2C24 16.0566 23.9992 16.6389 23.9624 17.089C23.9266 17.5274 23.8617 17.7516 23.782 17.908C23.5903 18.2843 23.2843 18.5903 22.908 18.782C22.7516 18.8617 22.5274 18.9266 22.089 18.9624C21.6389 18.9992 21.0566 19 20.2 19H7.8C6.94342 19 6.36113 18.9992 5.91104 18.9624C5.47262 18.9266 5.24842 18.8617 5.09202 18.782C4.7157 18.5903 4.40974 18.2843 4.21799 17.908C4.1383 17.7516 4.07337 17.5274 4.03755 17.089C4.00078 16.6389 4 16.0566 4 15.2V12.8C4 11.9434 4.00078 11.3611 4.03755 10.911C4.07337 10.4726 4.1383 10.2484 4.21799 10.092C4.40974 9.7157 4.7157 9.40974 5.09202 9.21799ZM9 12.5C8.17157 12.5 7.5 13.1716 7.5 14C7.5 14.8284 8.17157 15.5 9 15.5C9.82843 15.5 10.5 14.8284 10.5 14C10.5 13.1716 9.82843 12.5 9 12.5ZM12.5 14C12.5 13.1716 13.1716 12.5 14 12.5C14.8284 12.5 15.5 13.1716 15.5 14C15.5 14.8284 14.8284 15.5 14 15.5C13.1716 15.5 12.5 14.8284 12.5 14ZM19 12.5C18.1716 12.5 17.5 13.1716 17.5 14C17.5 14.8284 18.1716 15.5 19 15.5C19.8284 15.5 20.5 14.8284 20.5 14C20.5 13.1716 19.8284 12.5 19 12.5Z" fill="#023F80"/>
</svg>
