<svg width="24" height="24" viewBox="0 0 24 24" fill="none" xmlns="http://www.w3.org/2000/svg">
<path d="M16.7916 3.42847C18.702 3.42847 19.3948 3.62738 20.0932 4.00089C20.7916 4.37441 21.3397 4.92253 21.7132 5.62094C22.0867 6.31935 22.2857 7.01211 22.2857 8.92251V15.0773C22.2857 16.9877 22.0867 17.6804 21.7132 18.3788C21.3397 19.0773 20.7916 19.6254 20.0932 19.9989C19.3948 20.3724 18.702 20.5713 16.7916 20.5713H7.20827C5.29788 20.5713 4.60512 20.3724 3.90671 19.9989C3.20829 19.6254 2.66018 19.0773 2.28666 18.3788C1.91315 17.6804 1.71423 16.9877 1.71423 15.0773V8.92251C1.71423 7.01211 1.91315 6.31935 2.28666 5.62094C2.66018 4.92253 3.20829 4.37441 3.90671 4.00089C4.60512 3.62738 5.29788 3.42847 7.20827 3.42847H16.7916ZM20.5705 11.1428H3.42766L3.42852 15.5606C3.42852 16.7069 3.54787 17.1225 3.77198 17.5416C3.99608 17.9606 4.32496 18.2895 4.744 18.5136C5.13686 18.7237 5.52673 18.8417 6.5184 18.8556L6.72494 18.857H17.275C18.4212 18.857 18.8368 18.7377 19.2559 18.5136C19.6749 18.2895 20.0038 17.9606 20.2279 17.5416C20.438 17.1487 20.556 16.7588 20.57 15.7671L20.5714 15.5606L20.5705 11.1428ZM7.496 13.7142C7.84996 13.7142 7.9932 13.754 8.13288 13.8287C8.27256 13.9034 8.38219 14.013 8.45689 14.1527C8.53159 14.2924 8.57138 14.4356 8.57138 14.7896V15.2102C8.57138 15.5642 8.53159 15.7074 8.45689 15.8471C8.38219 15.9868 8.27256 16.0964 8.13288 16.1711C7.9932 16.2458 7.84996 16.2856 7.496 16.2856H7.07532C6.72136 16.2856 6.57812 16.2458 6.43844 16.1711C6.29876 16.0964 6.18914 15.9868 6.11443 15.8471C6.03973 15.7074 5.99995 15.5642 5.99995 15.2102V14.7896C5.99995 14.4356 6.03973 14.2924 6.11443 14.1527C6.18914 14.013 6.29876 13.9034 6.43844 13.8287C6.57812 13.754 6.72136 13.7142 7.07532 13.7142H7.496ZM17.275 5.14275H6.72494C5.5787 5.14275 5.16305 5.2621 4.744 5.48621C4.32496 5.71032 3.99608 6.03919 3.77198 6.45824C3.56187 6.85109 3.44385 7.24097 3.42991 8.23264L3.42852 8.43918L3.42766 8.57132H20.5705L20.5714 8.43918C20.5714 7.29294 20.452 6.87728 20.2279 6.45824C20.0038 6.03919 19.6749 5.71032 19.2559 5.48621C18.863 5.27611 18.4732 5.15808 17.4815 5.14415L17.275 5.14275Z" fill="#023F80"/>
</svg>
