<svg width="28" height="28" viewBox="0 0 28 28" fill="none" xmlns="http://www.w3.org/2000/svg">
<path d="M20.3251 8.19779C20.4235 8.74272 20.9503 9.10564 21.5017 9.00839C22.0531 8.91114 22.4204 8.39054 22.322 7.84561C22.0096 6.11587 21.7713 4.87742 21.0666 3.95334C20.4222 3.10815 19.5234 2.48628 18.4993 2.17686C17.8546 1.98206 17.193 1.9693 16.4545 2.03738C15.7373 2.10349 14.8642 2.25563 13.7817 2.44426L8.50237 3.3642C7.41986 3.55282 6.54674 3.70495 5.84988 3.88524C5.13239 4.07087 4.51512 4.30647 3.97668 4.70743C3.12141 5.34434 2.49213 6.23246 2.17902 7.24452C1.98775 7.86278 1.97 8.49622 2.03187 9.19936C2.09271 9.89084 2.23907 10.7254 2.42221 11.7529C2.51938 12.298 3.04534 12.6621 3.59699 12.5661C4.14864 12.47 4.51707 11.9503 4.4199 11.4051C4.23204 10.3511 4.10422 9.61138 4.05269 9.02572C4.00218 8.45173 4.03388 8.10519 4.11883 7.83059C4.3067 7.22336 4.68427 6.69048 5.19743 6.30834C5.43684 6.13006 5.76788 5.97856 6.36362 5.82444C6.97085 5.66733 7.76209 5.52867 8.89735 5.33085L14.0912 4.42582C15.2264 4.22801 16.0179 4.09088 16.6429 4.03326C17.2561 3.97674 17.6196 4.00721 17.9063 4.09382C18.5207 4.27947 19.06 4.6526 19.4467 5.15971C19.7992 5.622 19.9856 6.31787 20.3251 8.19779Z" fill="#023F80"/>
<path d="M14.8617 14.5699C14.7904 14.5036 14.7012 14.4596 14.6052 14.4432C14.333 14.3969 14.0747 14.58 14.0284 14.8522L13.1594 19.957C13.1438 20.0484 13.154 20.1424 13.1888 20.2284C13.2923 20.4844 13.5838 20.608 13.8398 20.5044L18.2721 18.7116C18.34 18.6841 18.401 18.6421 18.4509 18.5884C18.6389 18.3862 18.6273 18.0698 18.425 17.8818L14.8617 14.5699Z" fill="#023F80"/>
<path fill-rule="evenodd" clipRule="evenodd" d="M25.5001 19.5742L25.5504 19.2922C25.7413 18.2225 25.8952 17.3597 25.9621 16.6509C26.031 15.9211 26.0181 15.2673 25.821 14.6302C25.5079 13.6181 24.8786 12.73 24.0233 12.0931C23.4849 11.6921 22.8676 11.4565 22.1501 11.2709C21.4533 11.0906 20.5801 10.9385 19.4976 10.7499L14.2183 9.82993C13.1358 9.64129 12.2627 9.48914 11.5455 9.42303C10.807 9.35496 10.1454 9.36772 9.50067 9.56251C8.47655 9.87193 7.57784 10.4938 6.93335 11.339C6.52761 11.8711 6.28919 12.4811 6.10135 13.1901C5.91893 13.8787 5.76499 14.7415 5.57415 15.8111L5.5238 16.0933C5.33293 17.163 5.17895 18.0259 5.11205 18.7346C5.04317 19.4644 5.05609 20.1182 5.2532 20.7554C5.56631 21.7674 6.19559 22.6555 7.05086 23.2924C7.5893 23.6934 8.20656 23.929 8.92406 24.1146C9.62092 24.2949 10.494 24.4471 11.5766 24.6357L16.8558 25.5556C17.9384 25.7442 18.8115 25.8964 19.5287 25.9625C20.2672 26.0306 20.9288 26.0178 21.5735 25.823C22.5976 25.5136 23.4963 24.8917 24.1408 24.0465C24.5466 23.5144 24.785 22.9044 24.9728 22.1954C25.1553 21.5067 25.3092 20.6439 25.5001 19.5742ZM23.8812 15.2162C23.9688 15.4995 23.9996 15.8588 23.9424 16.4647C23.8841 17.0823 23.7454 17.8645 23.5452 18.9864L23.51 19.1838C23.3098 20.3057 23.1695 21.0876 23.0105 21.6877C22.8545 22.2764 22.7012 22.6036 22.5208 22.8402C22.1341 23.3473 21.5949 23.7204 20.9804 23.9061C20.6938 23.9927 20.3303 24.0231 19.7171 23.9666C19.0921 23.909 18.3006 23.7719 17.1654 23.5741L11.9715 22.669C10.8363 22.4712 10.045 22.3325 9.4378 22.1754C8.84206 22.0213 8.51101 21.8698 8.2716 21.6915C7.75844 21.3094 7.38088 20.7765 7.19301 20.1693C7.10537 19.886 7.07454 19.5268 7.13173 18.9208C7.19003 18.3032 7.32879 17.521 7.52897 16.3991L7.56419 16.2017C7.76437 15.0798 7.90469 14.2979 8.06366 13.6978C8.21963 13.1091 8.37293 12.782 8.55333 12.5454C8.94003 12.0383 9.47925 11.6651 10.0937 11.4795C10.3804 11.3929 10.7439 11.3624 11.3571 11.4189C11.9821 11.4765 12.7736 11.6137 13.9088 11.8115L19.1026 12.7165C20.2379 12.9143 21.0291 13.053 21.6364 13.2101C22.2321 13.3642 22.5632 13.5157 22.8026 13.694C23.3157 14.0761 23.6933 14.609 23.8812 15.2162Z" fill="#023F80"/>
</svg>
