<svg width="28" height="28" viewBox="0 0 28 28" fill="none" xmlns="http://www.w3.org/2000/svg">
<path d="M16.1788 2.19745C21.8345 3.23527 26.0002 8.18446 26.0002 14C26.0002 19.816 21.8338 24.7654 16.1776 25.8028C15.6344 25.9024 15.1133 25.5428 15.0137 24.9996C14.914 24.4563 15.2736 23.9352 15.8169 23.8356C20.5276 22.9716 24.0002 18.8463 24.0002 14C24.0002 9.15404 20.5281 5.02894 15.8178 4.1646C15.2746 4.06492 14.9151 3.54375 15.0147 3.00053C15.1144 2.45732 15.6356 2.09776 16.1788 2.19745ZM6.37508 20.4705C7.65861 21.9813 9.36293 23.0842 11.2741 23.6243C11.571 23.7082 11.8721 23.7783 12.1768 23.8344C12.7199 23.9344 13.0792 24.4557 12.9792 24.9989C12.8792 25.5421 12.3578 25.9013 11.8147 25.8013C11.4487 25.734 11.0869 25.6497 10.7302 25.5489C8.43474 24.9002 6.38993 23.577 4.85085 21.7653C4.49327 21.3444 4.54462 20.7134 4.96552 20.3558C5.38643 19.9982 6.01751 20.0496 6.37508 20.4705ZM3.992 9.31952C4.51139 9.50728 4.78022 10.0805 4.59247 10.5999C4.20201 11.68 3.99988 12.8254 3.99988 14C3.99988 15.1275 4.18611 16.2282 4.54658 17.2703C4.72712 17.7923 4.45035 18.3618 3.9284 18.5423C3.40646 18.7228 2.83699 18.4461 2.65645 17.9241C2.22349 16.6724 1.99988 15.3507 1.99988 14C1.99988 12.5928 2.2426 11.2173 2.71159 9.91999C2.89935 9.4006 3.47261 9.13176 3.992 9.31952ZM12.2001 10.0785C12.3393 10.0785 12.4761 10.1149 12.597 10.1839L18.0595 13.3054C18.4431 13.5246 18.5764 14.0133 18.3572 14.3969C18.2863 14.5209 18.1835 14.6237 18.0595 14.6946L12.597 17.816C12.2134 18.0353 11.7247 17.902 11.5055 17.5184C11.4364 17.3975 11.4001 17.2607 11.4001 17.1215V10.8785C11.4001 10.4367 11.7582 10.0785 12.2001 10.0785ZM12.9812 3.00091C13.0811 3.54409 12.7217 4.0654 12.1786 4.16528C9.93661 4.57757 7.91509 5.74784 6.43209 7.46301C6.07087 7.88079 5.43936 7.92663 5.02159 7.56541C4.60381 7.20419 4.55797 6.57269 4.91919 6.15491C6.69756 4.09812 9.12393 2.69348 11.8168 2.19827C12.36 2.09838 12.8813 2.45774 12.9812 3.00091Z" fill="#023F80"/>
</svg>
