<svg width="24" height="24" viewBox="0 0 24 24" fill="none" xmlns="http://www.w3.org/2000/svg">
<path fill-rule="evenodd" clipRule="evenodd" d="M14.0387 3.09998H9.96128H9.96127C8.944 3.09997 8.12579 3.09996 7.46369 3.15406C6.78272 3.20969 6.18803 3.32701 5.63892 3.6068C4.76397 4.05261 4.05261 4.76397 3.6068 5.63892C3.32701 6.18803 3.20969 6.78272 3.15406 7.46369C3.09996 8.12579 3.09997 8.944 3.09998 9.96127V9.96128V14.0387V14.0387C3.09997 15.056 3.09996 15.8742 3.15406 16.5363C3.20969 17.2172 3.32701 17.8119 3.6068 18.361C4.05261 19.236 4.76397 19.9473 5.63892 20.3932C6.18803 20.6729 6.78272 20.7903 7.46369 20.8459C8.12579 20.9 8.944 20.9 9.96128 20.9H14.0387C15.0559 20.9 15.8742 20.9 16.5363 20.8459C17.2172 20.7903 17.8119 20.6729 18.361 20.3932C19.236 19.9473 19.9473 19.236 20.3932 18.361C20.6729 17.8119 20.7903 17.2172 20.8459 16.5363C20.9 15.8742 20.9 15.0559 20.9 14.0387V9.96128C20.9 8.944 20.9 8.12579 20.8459 7.46369C20.7903 6.78272 20.6729 6.18803 20.3932 5.63892C19.9473 4.76397 19.236 4.05261 18.361 3.6068C17.8119 3.32701 17.2172 3.20969 16.5363 3.15406C15.8742 3.09996 15.056 3.09997 14.0387 3.09998H14.0387ZM6.4561 5.21061C6.70917 5.08167 7.04061 4.99462 7.61027 4.94808C8.19044 4.90068 8.93503 4.89998 9.99998 4.89998H14C15.0649 4.89998 15.8095 4.90068 16.3897 4.94808C16.9593 4.99462 17.2908 5.08167 17.5438 5.21061C18.0801 5.48385 18.5161 5.91984 18.7893 6.4561C18.9183 6.70917 19.0053 7.04061 19.0519 7.61027C19.0993 8.19044 19.1 8.93503 19.1 9.99998V14C19.1 15.0649 19.0993 15.8095 19.0519 16.3897C19.0053 16.9593 18.9183 17.2908 18.7893 17.5438C18.5161 18.0801 18.0801 18.5161 17.5438 18.7893C17.2908 18.9183 16.9593 19.0053 16.3897 19.0519C15.8095 19.0993 15.0649 19.1 14 19.1H9.99998C8.93503 19.1 8.19044 19.0993 7.61027 19.0519C7.04061 19.0053 6.70917 18.9183 6.4561 18.7893C5.91984 18.5161 5.48385 18.0801 5.21061 17.5438C5.08167 17.2908 4.99462 16.9593 4.94808 16.3897C4.90068 15.8095 4.89998 15.0649 4.89998 14V9.99998C4.89998 8.93503 4.90068 8.19044 4.94808 7.61027C4.99462 7.04061 5.08167 6.70917 5.21061 6.4561C5.48385 5.91984 5.91984 5.48385 6.4561 5.21061ZM12.9 7.9C12.9 7.40294 12.497 7 12 7C11.5029 7 11.1 7.40294 11.1 7.9V16.1C11.1 16.597 11.5029 17 12 17C12.497 17 12.9 16.597 12.9 16.1V7.9ZM7.99998 10C8.49703 10 8.89998 10.4029 8.89998 10.9V16.1C8.89998 16.5971 8.49703 17 7.99998 17C7.50292 17 7.09998 16.5971 7.09998 16.1V10.9C7.09998 10.4029 7.50292 10 7.99998 10ZM16.9 12.9C16.9 12.4029 16.497 12 16 12C15.5029 12 15.1 12.4029 15.1 12.9V16.1C15.1 16.5971 15.5029 17 16 17C16.497 17 16.9 16.5971 16.9 16.1V12.9Z" fill="#023F80"/>
</svg>
