<svg width="24" height="24" viewBox="0 0 24 24" fill="none" xmlns="http://www.w3.org/2000/svg">
<path fill-rule="evenodd" clipRule="evenodd" d="M8.8625 2.09993H15.1374C15.8111 2.09839 16.3363 2.31122 16.8195 2.79671L21.2032 7.18041C21.6807 7.65573 21.9016 8.17755 21.9 8.86257V15.1375C21.9016 15.8225 21.6807 16.3443 21.2032 16.8196L16.8195 21.2033C16.3442 21.6808 15.8224 21.9017 15.1374 21.9001H8.8625C8.17748 21.9017 7.65566 21.6808 7.18034 21.2033L2.79664 16.8196C2.31914 16.3443 2.09829 15.8225 2.09986 15.1374V8.86258C2.09829 8.17756 2.31914 7.65573 2.79664 7.18041L7.18034 2.79671C7.66361 2.31122 8.18877 2.09839 8.8625 2.09993ZM8.41771 4.10504L4.10496 8.41778C3.92524 8.5975 3.89994 8.65964 3.89994 8.91275V15.0873C3.89994 15.3378 3.92521 15.4025 4.10496 15.5822L8.41771 19.895C8.59669 20.074 8.6585 20.1 8.91268 20.1H15.0872C15.3403 20.1 15.4026 20.0745 15.5822 19.895L19.8949 15.5822C20.0745 15.4027 20.0999 15.3369 20.0999 15.0873V8.91275C20.0999 8.65885 20.0739 8.59676 19.8949 8.41778L15.5822 4.10504C15.402 3.92483 15.3399 3.90001 15.0872 3.90001H8.91268C8.65877 3.90001 8.59422 3.92852 8.41771 4.10504ZM12.9999 16C12.9999 16.5523 12.5522 17 11.9999 17C11.4477 17 10.9999 16.5523 10.9999 16C10.9999 15.4477 11.4477 15 11.9999 15C12.5522 15 12.9999 15.4477 12.9999 16ZM12.8999 7.9C12.8999 7.40294 12.497 7 11.9999 7C11.5029 7 11.0999 7.40294 11.0999 7.9V13.1C11.0999 13.5971 11.5029 14 11.9999 14C12.497 14 12.8999 13.5971 12.8999 13.1V7.9Z" fill="#023F80"/>
</svg>
