<svg width="28" height="28" viewBox="0 0 28 28" fill="none" xmlns="http://www.w3.org/2000/svg">
<path d="M13.6 5H14.4C16.1132 5 17.2778 5.00156 18.178 5.0751C19.0548 5.14674 19.5032 5.27659 19.816 5.43597C20.5687 5.81947 21.1806 6.43139 21.5641 7.18404C21.7235 7.49684 21.8533 7.94525 21.9249 8.82208C21.9985 9.72226 22 10.8868 22 12.6V15.4C22 17.1132 21.9985 18.2777 21.9249 19.1779C21.8533 20.0548 21.7235 20.5032 21.5641 20.816C21.1806 21.5686 20.5687 22.1805 19.816 22.564C19.5919 22.6782 19.2983 22.7772 18.8274 22.8505L18.8276 22.8516C18.3476 22.925 17.98 23.3396 17.98 23.84C17.98 24.3923 18.4277 24.84 18.98 24.84C19.0511 24.84 19.1205 24.8326 19.1874 24.8185C19.7835 24.7217 20.2777 24.5734 20.724 24.346C21.853 23.7708 22.7708 22.8529 23.3461 21.7239C24 20.4405 24 18.7603 24 15.4V12.6C24 9.23969 24 7.55953 23.3461 6.27606C22.7708 5.14708 21.853 4.2292 20.724 3.65396C19.4405 3 17.7604 3 14.4 3H13.6C10.2397 3 8.55958 3 7.2761 3.65396C6.14713 4.2292 5.22925 5.14708 4.65401 6.27606C4.19577 7.1754 4.05862 8.26952 4.01758 10L4.02021 10.0001L4.02002 10.02C4.02002 10.5723 4.46773 11.02 5.02002 11.02C5.5723 11.02 6.02002 10.5723 6.02002 10.02C6.02002 10.0035 6.01962 9.98704 6.01882 9.9707C6.02986 9.53989 6.04737 9.16212 6.07515 8.82208C6.14679 7.94525 6.27664 7.49684 6.43602 7.18404C6.81951 6.43139 7.43144 5.81947 8.18409 5.43597C8.49688 5.27659 8.94529 5.14674 9.82212 5.0751C10.7223 5.00156 11.8869 5 13.6 5Z" fill="#023F80"/>
<path d="M8.64909 8.29096C8.60014 8.44159 8.60014 8.62772 8.60014 8.99998C8.60014 9.37223 8.60014 9.55836 8.64909 9.70899C8.74801 10.0134 8.98669 10.2521 9.29113 10.351C9.44176 10.4 9.62789 10.4 10.0001 10.4C10.3724 10.4 10.5585 10.4 10.7092 10.351C11.0136 10.2521 11.2523 10.0134 11.3512 9.70899C11.4001 9.55836 11.4001 9.37223 11.4001 8.99998C11.4001 8.62772 11.4001 8.44159 11.3512 8.29096C11.2523 7.98652 11.0136 7.74784 10.7092 7.64892C10.5585 7.59998 10.3724 7.59998 10.0001 7.59998C9.62789 7.59998 9.44176 7.59998 9.29113 7.64892C8.98669 7.74784 8.74801 7.98652 8.64909 8.29096Z" fill="#023F80"/>
<path d="M16.6491 8.29096C16.6001 8.44159 16.6001 8.62772 16.6001 8.99998C16.6001 9.37223 16.6001 9.55836 16.6491 9.70899C16.748 10.0134 16.9867 10.2521 17.2911 10.351C17.4418 10.4 17.6279 10.4 18.0001 10.4C18.3724 10.4 18.5585 10.4 18.7092 10.351C19.0136 10.2521 19.2523 10.0134 19.3512 9.70899C19.4001 9.55836 19.4001 9.37223 19.4001 8.99998C19.4001 8.62772 19.4001 8.44159 19.3512 8.29096C19.2523 7.98652 19.0136 7.74784 18.7092 7.64892C18.5585 7.59998 18.3724 7.59998 18.0001 7.59998C17.6279 7.59998 17.4418 7.59998 17.2911 7.64892C16.9867 7.74784 16.748 7.98652 16.6491 8.29096Z" fill="#023F80"/>
<path d="M16.6491 13.291C16.6001 13.4416 16.6001 13.6277 16.6001 14C16.6001 14.3722 16.6001 14.5584 16.6491 14.709C16.748 15.0134 16.9867 15.2521 17.2911 15.351C17.4418 15.4 17.6279 15.4 18.0001 15.4C18.3724 15.4 18.5585 15.4 18.7092 15.351C19.0136 15.2521 19.2523 15.0134 19.3512 14.709C19.4001 14.5584 19.4001 14.3722 19.4001 14C19.4001 13.6277 19.4001 13.4416 19.3512 13.291C19.2523 12.9865 19.0136 12.7478 18.7092 12.6489C18.5585 12.6 18.3724 12.6 18.0001 12.6C17.6279 12.6 17.4418 12.6 17.2911 12.6489C16.9867 12.7478 16.748 12.9865 16.6491 13.291Z" fill="#023F80"/>
<path d="M16.6001 19C16.6001 18.6277 16.6001 18.4416 16.6491 18.291C16.748 17.9865 16.9867 17.7478 17.2911 17.6489C17.4418 17.6 17.6279 17.6 18.0001 17.6C18.3724 17.6 18.5585 17.6 18.7092 17.6489C19.0136 17.7478 19.2523 17.9865 19.3512 18.291C19.4001 18.4416 19.4001 18.6277 19.4001 19C19.4001 19.3722 19.4001 19.5584 19.3512 19.709C19.2523 20.0134 19.0136 20.2521 18.7092 20.351C18.5585 20.4 18.3724 20.4 18.0001 20.4C17.6279 20.4 17.4418 20.4 17.2911 20.351C16.9867 20.2521 16.748 20.0134 16.6491 19.709C16.6001 19.5584 16.6001 19.3722 16.6001 19Z" fill="#023F80"/>
<path d="M5.08991 15.0333C5.33458 15.0113 5.58259 15 5.83349 15C10.3438 15 14.0002 18.6563 14.0002 23.1667C14.0002 23.4176 13.9889 23.6656 13.9668 23.9102C13.9173 24.4603 14.323 24.9464 14.873 24.996C15.4231 25.0455 15.9092 24.6398 15.9588 24.0897C15.9862 23.7855 16.0002 23.4776 16.0002 23.1667C16.0002 17.5518 11.4484 13 5.83349 13C5.52258 13 5.21468 13.014 4.91041 13.0414C4.36035 13.091 3.95462 13.5771 4.00419 14.1271C4.05376 14.6772 4.53985 15.0829 5.08991 15.0333Z" fill="#023F80"/>
<path d="M5.8573 19C5.62092 19 5.38991 19.0197 5.16561 19.0573C4.62094 19.1487 4.10532 18.7812 4.01394 18.2366C3.92256 17.6919 4.29003 17.1763 4.8347 17.0849C5.1679 17.029 5.5096 17 5.8573 17C9.24991 17 12.0002 19.7503 12.0002 23.1429C12.0002 23.4906 11.9712 23.8323 11.9153 24.1655C11.8239 24.7101 11.3083 25.0776 10.7636 24.9862C10.2189 24.8948 9.85145 24.3792 9.94283 23.8345C9.98046 23.6102 10.0002 23.3792 10.0002 23.1429C10.0002 20.8548 8.14534 19 5.8573 19Z" fill="#023F80"/>
<path d="M6.00016 25C7.10473 25 8.00016 24.1046 8.00016 23C8.00016 21.8954 7.10473 21 6.00016 21C4.89559 21 4.00016 21.8954 4.00016 23C4.00016 24.1046 4.89559 25 6.00016 25Z" fill="#023F80"/>
</svg>
