<svg width="28" height="28" viewBox="0 0 28 28" fill="none" xmlns="http://www.w3.org/2000/svg">
<path fill-rule="evenodd" clipRule="evenodd" d="M12 6.90022C12 4.73312 13.7753 3 15.9219 3C16.8945 3 17.7555 3.33622 18.4954 3.93721C19.2329 3.33412 20.0977 3 21.0781 3C23.2247 3 25 4.73312 25 6.90022C25 8.02712 24.6942 8.91826 23.9688 9.81635C23.3036 10.6399 22.2749 11.4777 20.8935 12.5589L20.8904 12.5614L19.4615 13.6707C18.8959 14.1098 18.1041 14.1098 17.5385 13.6707L16.1096 12.5614L16.1065 12.5589C14.7251 11.4777 13.6964 10.6399 13.0312 9.81635C12.3058 8.91826 12 8.02712 12 6.90022Z" fill="#023F80"/>
<path d="M9.54851 6.90846C10.0287 6.6357 10.1969 6.02528 9.92415 5.54505C9.65138 5.06483 9.04096 4.89665 8.56073 5.16942C5.83938 6.71515 4 9.64213 4 13C4 17.9706 8.02944 22 13 22C15.1256 22 17.0784 21.263 18.6176 20.0318L23.2929 24.7071C23.6834 25.0976 24.3166 25.0976 24.7071 24.7071C25.0976 24.3166 25.0976 23.6834 24.7071 23.2929L20.0318 18.6176C20.3884 18.1717 20.7035 17.6913 20.9711 17.1822C21.2281 16.6933 21.0401 16.0887 20.5512 15.8317C20.0623 15.5748 19.4577 15.7628 19.2008 16.2516C18.0283 18.4823 15.6906 20 13 20C9.13401 20 6 16.866 6 13C6 10.3906 7.42728 8.11333 9.54851 6.90846Z" fill="#023F80"/>
</svg>
