<svg width="28" height="28" viewBox="0 0 28 28" fill="none" xmlns="http://www.w3.org/2000/svg">
<path d="M15.9219 4C14.3177 4 13 5.29524 13 6.90022C13 8.7023 13.9167 9.57518 16.7228 11.7715L18.1517 12.8808C18.3565 13.0397 18.6435 13.0397 18.8483 12.8808L20.2772 11.7715C23.0833 9.57518 24 8.7023 24 6.90022C24 5.29524 22.6823 4 21.0781 4C20.0851 4 19.2257 4.45052 18.5 5.35156C17.759 4.45052 16.8997 4 15.9219 4Z" stroke="#023F80" stroke-width="2" stroke-linejoin="round"/>
<path d="M9.05462 6.03894C6.63333 7.41424 5 10.0164 5 13C5 17.4183 8.58172 21 13 21C16.0765 21 18.7475 19.2634 20.0859 16.7169" stroke="#023F80" stroke-width="2" stroke-linecap="round"/>
<path d="M19 19L24 24" stroke="#023F80" stroke-width="2" stroke-linecap="round"/>
<path fill-rule="evenodd" clipRule="evenodd" d="M12 6.90022C12 4.73312 13.7753 3 15.9219 3C16.8945 3 17.7555 3.33622 18.4954 3.93721C19.2329 3.33412 20.0977 3 21.0781 3C23.2247 3 25 4.73312 25 6.90022C25 8.02712 24.6942 8.91826 23.9688 9.81635C23.3036 10.6399 22.2749 11.4777 20.8935 12.5589L20.8904 12.5614L19.4615 13.6707C18.8959 14.1098 18.1041 14.1098 17.5385 13.6707L16.1096 12.5614L16.1065 12.5589C14.7251 11.4777 13.6964 10.6399 13.0312 9.81635C12.3058 8.91826 12 8.02712 12 6.90022ZM15.9219 5C14.8601 5 14 5.85737 14 6.90022C14 7.5754 14.1525 8.02173 14.587 8.55968C15.0815 9.17191 15.9138 9.86839 17.3376 10.9828L17.3391 10.984L18.5 11.8852L19.6609 10.984L19.6624 10.9827C21.0862 9.86837 21.9185 9.17191 22.413 8.55968C22.8474 8.02173 23 7.5754 23 6.90022C23 5.85737 22.1399 5 21.0781 5C20.4395 5 19.8498 5.2699 19.2788 5.97881C19.0901 6.21312 18.8059 6.35001 18.5051 6.35155C18.2043 6.35308 17.9187 6.21909 17.7276 5.98672C17.136 5.26726 16.542 5 15.9219 5Z" fill="#023F80"/>
<path d="M9.54851 6.90846C10.0287 6.6357 10.1969 6.02528 9.92415 5.54505C9.65138 5.06483 9.04096 4.89665 8.56073 5.16942C5.83938 6.71515 4 9.64213 4 13C4 17.9706 8.02944 22 13 22C15.1256 22 17.0784 21.263 18.6176 20.0318L23.2929 24.7071C23.6834 25.0976 24.3166 25.0976 24.7071 24.7071C25.0976 24.3166 25.0976 23.6834 24.7071 23.2929L20.0318 18.6176C20.3884 18.1717 20.7035 17.6913 20.9711 17.1822C21.2281 16.6933 21.0401 16.0887 20.5512 15.8317C20.0623 15.5748 19.4577 15.7628 19.2008 16.2516C18.0283 18.4823 15.6906 20 13 20C9.13401 20 6 16.866 6 13C6 10.3906 7.42728 8.11333 9.54851 6.90846Z" fill="#023F80"/>
</svg>
