<svg width="24" height="24" viewBox="0 0 24 24" fill="none" xmlns="http://www.w3.org/2000/svg">
<path fill-rule="evenodd" clipRule="evenodd" d="M11.1429 3.42847C6.88239 3.42847 3.42859 6.88227 3.42859 11.1428C3.42859 15.4032 6.88239 18.857 11.1429 18.857C12.9643 18.857 14.6383 18.2258 15.958 17.1701L19.9654 21.1774C20.3001 21.5122 20.8428 21.5122 21.1775 21.1774C21.5123 20.8427 21.5123 20.3 21.1775 19.9652L17.1702 15.9579C18.2259 14.6382 18.8572 12.9642 18.8572 11.1428C18.8572 6.88227 15.4034 3.42847 11.1429 3.42847ZM11.1429 5.14275C7.82917 5.14275 5.14287 7.82904 5.14287 11.1428C5.14287 14.4565 7.82917 17.1428 11.1429 17.1428C14.4566 17.1428 17.1429 14.4565 17.1429 11.1428C17.1429 7.82904 14.4566 5.14275 11.1429 5.14275Z" fill="#023F80"/>
</svg>
