<svg width="28" height="28" viewBox="0 0 28 28" fill="none" xmlns="http://www.w3.org/2000/svg">
<path fill-rule="evenodd" clipRule="evenodd" d="M11.96 2H11.9293H11.9293C11.5083 1.99999 11.145 1.99998 10.8441 2.0197C10.5274 2.04045 10.2103 2.08607 9.89563 2.21067C9.12544 2.51561 8.51562 3.12544 8.21068 3.89563C8.08607 4.21034 8.04045 4.52743 8.0197 4.84414C8.01641 4.89436 8.01367 4.94632 8.01139 5H6.34755L6.3163 5C6.03727 4.99998 5.77955 4.99997 5.57695 5.01336L5.57433 5.01353C5.4179 5.02387 5.04644 5.04841 4.73008 5.26831C4.16937 5.65803 3.94265 6.37728 4.1785 7.0181C4.31158 7.37966 4.60181 7.61279 4.72404 7.71096L4.72609 7.71261C4.88438 7.83976 5.09554 7.98756 5.32415 8.14756L5.34973 8.16546L8.00001 10.0207V11H6.34755L6.31623 11H6.3162H6.31617H6.31614C6.03717 11 5.77951 11 5.57695 11.0134L5.57433 11.0135C5.4179 11.0239 5.04644 11.0484 4.73008 11.2683C4.16937 11.658 3.94265 12.3773 4.1785 13.0181C4.31158 13.3797 4.60181 13.6128 4.72404 13.711L4.72609 13.7126C4.88438 13.8398 5.09553 13.9875 5.32413 14.1475L5.34973 14.1655L8.00001 16.0207V17H6.34756L6.31623 17H6.3162H6.31617H6.31615C6.03718 17 5.77951 17 5.57695 17.0134L5.57433 17.0135C5.4179 17.0239 5.04644 17.0484 4.73008 17.2683C4.16937 17.658 3.94265 18.3773 4.1785 19.0181C4.31158 19.3797 4.60182 19.6128 4.72405 19.711L4.72609 19.7126C4.8843 19.8397 5.09551 19.9875 5.32397 20.1474L5.32418 20.1476L5.34973 20.1655L8.00001 22.0207V22.04L8.00001 22.0707C7.99999 22.4917 7.99998 22.8549 8.0197 23.1559C8.04045 23.4726 8.08607 23.7897 8.21068 24.1044C8.51562 24.8746 9.12544 25.4844 9.89563 25.7893C10.2103 25.9139 10.5274 25.9596 10.8441 25.9803C11.145 26 11.5084 26 11.9293 26H11.96H16.04H16.0708C16.4918 26 16.855 26 17.1559 25.9803C17.4726 25.9596 17.7897 25.9139 18.1044 25.7893C18.8746 25.4844 19.4844 24.8746 19.7893 24.1044C19.9139 23.7897 19.9596 23.4726 19.9803 23.1559C20 22.855 20 22.4917 20 22.0707V22.04V22.0207L22.6503 20.1655L22.6758 20.1476C22.9045 19.9876 23.1156 19.8398 23.2739 19.7126L23.276 19.711C23.3982 19.6128 23.6884 19.3797 23.8215 19.0181C24.0574 18.3773 23.8306 17.658 23.2699 17.2683C22.9536 17.0484 22.5821 17.0239 22.4257 17.0135L22.4231 17.0134C22.2205 17 21.9627 17 21.6838 17H21.6837H21.6837H21.6837L21.6525 17H20V16.0207L22.6503 14.1655L22.6759 14.1475C22.9045 13.9875 23.1156 13.8398 23.2739 13.7126L23.276 13.711C23.3982 13.6128 23.6884 13.3797 23.8215 13.0181C24.0574 12.3773 23.8306 11.658 23.2699 11.2683C22.9536 11.0484 22.5821 11.0239 22.4257 11.0135L22.4231 11.0134C22.2205 11 21.9627 11 21.6838 11H21.6837H21.6837H21.6837L21.6525 11H20V10.0207L22.6503 8.16547L22.6759 8.14754C22.9045 7.98754 23.1156 7.83976 23.2739 7.71261L23.276 7.71097C23.3982 7.61279 23.6884 7.37967 23.8215 7.0181C24.0574 6.37728 23.8306 5.65803 23.2699 5.26831C22.9536 5.04841 22.5821 5.02387 22.4257 5.01353L22.4231 5.01336C22.2205 4.99997 21.9627 4.99998 21.6837 5L21.6525 5H19.9886C19.9863 4.94632 19.9836 4.89436 19.9803 4.84414C19.9596 4.52743 19.9139 4.21034 19.7893 3.89563C19.4844 3.12544 18.8746 2.51561 18.1044 2.21067C17.7897 2.08607 17.4726 2.04045 17.1559 2.0197C16.855 1.99998 16.4917 1.99999 16.0707 2H16.0707H16.04H11.96ZM10.6319 4.07023C10.6719 4.05438 10.7558 4.02978 10.9749 4.01542C11.2026 4.0005 11.4997 4 11.96 4H16.04C16.5003 4 16.7975 4.0005 17.0251 4.01542C17.2443 4.02978 17.3281 4.05438 17.3681 4.07023C17.6249 4.17187 17.8281 4.37515 17.9298 4.63188C17.9456 4.67189 17.9702 4.75575 17.9846 4.97491C17.9995 5.20256 18 5.49971 18 5.96V6C18 6.55229 18.4477 7 19 7H20.8276L18.4265 8.68077C18.1592 8.8679 18 9.17369 18 9.50001V12C18 12.5523 18.4477 13 19 13H20.8276L18.4265 14.6808C18.1592 14.8679 18 15.1737 18 15.5V18C18 18.5523 18.4477 19 19 19H20.8276L18.4265 20.6808C18.1592 20.8679 18 21.1737 18 21.5V22.04C18 22.5003 17.9995 22.7975 17.9846 23.0251C17.9702 23.2443 17.9456 23.3281 17.9298 23.3681C17.8281 23.6249 17.6249 23.8281 17.3681 23.9298C17.3281 23.9456 17.2443 23.9702 17.0251 23.9846C16.7975 23.9995 16.5003 24 16.04 24H11.96C11.4997 24 11.2026 23.9995 10.9749 23.9846C10.7558 23.9702 10.6719 23.9456 10.6319 23.9298C10.3752 23.8281 10.1719 23.6249 10.0702 23.3681C10.0544 23.3281 10.0298 23.2443 10.0154 23.0251C10.0005 22.7975 10 22.5003 10 22.04V21.5C10 21.1737 9.8408 20.8679 9.57347 20.6808L7.17237 19H9.00001C9.55229 19 10 18.5523 10 18V15.5C10 15.1737 9.8408 14.8679 9.57347 14.6808L7.17237 13H9.00001C9.55229 13 10 12.5523 10 12V9.50001C10 9.17369 9.8408 8.8679 9.57347 8.68077L7.17237 7H9.00001C9.55229 7 10 6.55229 10 6V5.96C10 5.49971 10.0005 5.20256 10.0154 4.97491C10.0298 4.75575 10.0544 4.67189 10.0702 4.63188C10.1719 4.37515 10.3752 4.17187 10.6319 4.07023ZM14 10C14.8284 10 15.5 9.32843 15.5 8.5C15.5 7.67157 14.8284 7 14 7C13.1716 7 12.5 7.67157 12.5 8.5C12.5 9.32843 13.1716 10 14 10ZM15.5 14C15.5 14.8284 14.8284 15.5 14 15.5C13.1716 15.5 12.5 14.8284 12.5 14C12.5 13.1716 13.1716 12.5 14 12.5C14.8284 12.5 15.5 13.1716 15.5 14ZM14 21C14.8284 21 15.5 20.3284 15.5 19.5C15.5 18.6716 14.8284 18 14 18C13.1716 18 12.5 18.6716 12.5 19.5C12.5 20.3284 13.1716 21 14 21Z" fill="#023F80"/>
</svg>
