<svg width="28" height="28" viewBox="0 0 28 28" fill="none" xmlns="http://www.w3.org/2000/svg">
<path d="M14 2C12.3134 2 10.7065 2.34849 9.2488 2.97761L8.92094 3.125C8.59307 3.27837 8.27326 3.44613 7.96234 3.62747C7.9051 3.66085 7.84817 3.69469 7.79154 3.72899C6.96118 4.2319 6.19697 4.83249 5.51472 5.51474C3.34424 7.68521 2 10.6866 2 14C2 14.4251 2.02214 14.8453 2.06539 15.2595C2.12274 15.8088 2.61453 16.2076 3.16383 16.1503C3.71313 16.0929 4.11193 15.6012 4.05458 15.0519C4.01852 14.7065 4 14.3556 4 14C4 11.2383 5.11819 8.73969 6.92893 6.92895C7.49821 6.35967 8.13561 5.85882 8.82764 5.43969C8.92192 5.38259 9.01721 5.32701 9.11349 5.27297C9.41359 5.10454 9.72321 4.95118 10.0413 4.81389L10.0458 4.81195C11.2579 4.28952 12.5943 4 14 4C15.5114 4 16.9424 4.33468 18.2249 4.93344C18.3855 5.00838 18.5437 5.08747 18.6994 5.17055L18.7659 5.20636C19.6159 5.66811 20.392 6.24981 21.0711 6.92893C22.8818 8.73967 24 11.2383 24 14C24 16.0138 23.4058 17.8858 22.3834 19.4538C22.0817 19.9164 22.2122 20.536 22.6749 20.8376C23.1375 21.1393 23.7571 21.0088 24.0587 20.5462C25.2865 18.6631 26 16.4134 26 14C26 10.6866 24.6558 7.6852 22.4853 5.51472C21.6714 4.70088 20.7409 4.0032 19.7206 3.44893C19.6143 3.39116 19.5069 3.33495 19.3987 3.28033C19.1845 3.17224 18.9665 3.07036 18.7451 2.97495L18.7394 2.97253C17.2847 2.34654 15.6818 2 14 2Z" fill="#023F80"/>
<path fill-rule="evenodd" clipRule="evenodd" d="M11.9234 11.7993L3.01799 19.0465C2.01795 19.8604 2.93377 21.4466 4.13859 20.9875L14.8676 16.8987C14.978 16.8566 15.0843 16.8089 15.1863 16.7559C15.2926 16.7099 15.3973 16.6574 15.5001 16.5981C16.9349 15.7697 17.4266 13.9349 16.5981 12.5C15.7697 11.0651 13.9349 10.5735 12.5001 11.4019C12.3977 11.461 12.3002 11.5252 12.2075 11.5941C12.1103 11.6561 12.0154 11.7245 11.9234 11.7993ZM13.5001 13.1342C13.9784 12.858 14.59 13.0219 14.8662 13.5002C15.1423 13.9785 14.9784 14.5901 14.5001 14.8662C14.0218 15.1424 13.4103 14.9785 13.1341 14.5002C12.858 14.0219 13.0218 13.4103 13.5001 13.1342Z" fill="#023F80"/>
</svg>
