<svg width="24" height="24" viewBox="0 0 24 24" fill="none" xmlns="http://www.w3.org/2000/svg">
<path fill-rule="evenodd" clipRule="evenodd" d="M7.59998 10.9L7.63331 10.9C8.02482 10.9 8.37131 10.9 8.65846 10.8766C8.96425 10.8516 9.2811 10.7956 9.58956 10.6384C10.0411 10.4083 10.4083 10.0411 10.6384 9.58956C10.7956 9.2811 10.8516 8.96425 10.8766 8.65846C10.9 8.37132 10.9 8.02484 10.9 7.63334V7.63333V7.63332V7.63331L10.9 7.59998V6.39998L10.9 6.36665C10.9 5.97514 10.9 5.62865 10.8766 5.34149C10.8516 5.03571 10.7956 4.71886 10.6384 4.4104C10.4083 3.95881 10.0411 3.59166 9.58956 3.36156C9.2811 3.2044 8.96425 3.14839 8.65846 3.1234C8.37133 3.09994 8.02486 3.09996 7.63338 3.09998H7.63332L7.59998 3.09998L6.39998 3.09998L6.36664 3.09998H6.36658C5.9751 3.09996 5.62863 3.09994 5.34149 3.1234C5.03571 3.14839 4.71886 3.2044 4.4104 3.36156C3.95881 3.59166 3.59166 3.95881 3.36156 4.4104C3.2044 4.71886 3.14839 5.03571 3.1234 5.34149C3.09994 5.62863 3.09996 5.9751 3.09998 6.36657V6.36664L3.09998 6.39998L3.09998 7.59998L3.09998 7.63331V7.63338C3.09996 8.02486 3.09994 8.37133 3.1234 8.65846C3.14839 8.96425 3.2044 9.2811 3.36156 9.58956C3.59166 10.0411 3.95881 10.4083 4.4104 10.6384C4.71886 10.7956 5.03571 10.8516 5.34149 10.8766C5.62864 10.9 5.97512 10.9 6.36661 10.9H6.36662H6.36663H6.36664L6.39998 10.9H7.59998ZM8.77237 9.03458C8.75996 9.04091 8.70636 9.06664 8.51189 9.08253C8.30691 9.09928 8.03487 9.09998 7.59998 9.09998L6.39998 9.09998C5.96509 9.09998 5.69305 9.09928 5.48807 9.08253C5.2936 9.06664 5.24 9.04091 5.22758 9.03458C5.11469 8.97706 5.0229 8.88527 4.96537 8.77237C4.95905 8.75996 4.93331 8.70636 4.91743 8.51189C4.90068 8.30691 4.89998 8.03487 4.89998 7.59998L4.89998 6.39998C4.89998 5.96509 4.90068 5.69305 4.91743 5.48807C4.93331 5.2936 4.95905 5.24 4.96537 5.22758C5.0229 5.11469 5.11469 5.0229 5.22758 4.96537C5.24 4.95905 5.2936 4.93331 5.48807 4.91743C5.69305 4.90068 5.96509 4.89998 6.39998 4.89998L7.59998 4.89998C8.03487 4.89998 8.30691 4.90068 8.51189 4.91743C8.70636 4.93331 8.75996 4.95905 8.77237 4.96537C8.88527 5.0229 8.97706 5.11469 9.03458 5.22758C9.04091 5.24 9.06664 5.2936 9.08253 5.48807C9.09928 5.69305 9.09998 5.96509 9.09998 6.39998L9.09998 7.59998C9.09998 8.03487 9.09928 8.30691 9.08253 8.51189C9.06664 8.70636 9.04091 8.75996 9.03458 8.77237C8.97706 8.88527 8.88527 8.97706 8.77237 9.03458ZM7.59998 20.9L7.63331 20.9H7.63341C8.02488 20.9 8.37133 20.9 8.65846 20.8766C8.96425 20.8516 9.2811 20.7956 9.58956 20.6384C10.0411 20.4083 10.4083 20.0411 10.6384 19.5896C10.7956 19.2811 10.8516 18.9642 10.8766 18.6585C10.9 18.3713 10.9 18.0248 10.9 17.6333V17.6333V17.6333V17.6333L10.9 17.6V16.4L10.9 16.3666C10.9 15.9751 10.9 15.6286 10.8766 15.3415C10.8516 15.0357 10.7956 14.7189 10.6384 14.4104C10.4083 13.9588 10.0411 13.5917 9.58956 13.3616C9.2811 13.2044 8.96425 13.1484 8.65846 13.1234C8.37133 13.0999 8.02486 13.1 7.63339 13.1H7.63338H7.63337H7.63331L7.59998 13.1H6.39998L6.36664 13.1H6.36659H6.36658H6.36657C5.97509 13.1 5.62863 13.0999 5.34149 13.1234C5.03571 13.1484 4.71886 13.2044 4.4104 13.3616C3.95881 13.5917 3.59166 13.9588 3.36156 14.4104C3.2044 14.7189 3.14839 15.0357 3.1234 15.3415C3.09994 15.6286 3.09996 15.9751 3.09998 16.3666V16.3666L3.09998 16.4L3.09998 17.6L3.09998 17.6333V17.6334C3.09996 18.0249 3.09994 18.3713 3.1234 18.6585C3.14839 18.9642 3.2044 19.2811 3.36156 19.5896C3.59166 20.0411 3.95881 20.4083 4.4104 20.6384C4.71886 20.7956 5.03571 20.8516 5.34149 20.8766C5.62862 20.9 5.97508 20.9 6.36654 20.9H6.36664L6.39998 20.9H7.59998ZM8.77237 19.0346C8.75996 19.0409 8.70636 19.0666 8.51189 19.0825C8.30691 19.0993 8.03487 19.1 7.59998 19.1H6.39998C5.96509 19.1 5.69305 19.0993 5.48807 19.0825C5.2936 19.0666 5.24 19.0409 5.22758 19.0346C5.11469 18.9771 5.0229 18.8853 4.96537 18.7724C4.95905 18.76 4.93331 18.7064 4.91743 18.5119C4.90068 18.3069 4.89998 18.0349 4.89998 17.6L4.89998 16.4C4.89998 15.9651 4.90068 15.693 4.91743 15.4881C4.93331 15.2936 4.95905 15.24 4.96537 15.2276C5.0229 15.1147 5.11469 15.0229 5.22758 14.9654C5.24 14.9591 5.2936 14.9333 5.48807 14.9174C5.69305 14.9007 5.96509 14.9 6.39998 14.9H7.59998C8.03487 14.9 8.30691 14.9007 8.51189 14.9174C8.70636 14.9333 8.75996 14.9591 8.77237 14.9654C8.88527 15.0229 8.97706 15.1147 9.03458 15.2276C9.04091 15.24 9.06664 15.2936 9.08253 15.4881C9.09928 15.693 9.09998 15.9651 9.09998 16.4L9.09998 17.6C9.09998 18.0349 9.09928 18.3069 9.08253 18.5119C9.06664 18.7064 9.04091 18.76 9.03458 18.7724C8.97706 18.8853 8.88527 18.9771 8.77237 19.0346ZM17.6333 10.9L17.6 10.9H16.4L16.3666 10.9H16.3666H16.3666C15.9751 10.9 15.6286 10.9 15.3415 10.8766C15.0357 10.8516 14.7189 10.7956 14.4104 10.6384C13.9588 10.4083 13.5917 10.0411 13.3616 9.58956C13.2044 9.2811 13.1484 8.96425 13.1234 8.65846C13.0999 8.37131 13.1 8.02482 13.1 7.63331L13.1 7.59998V6.39998L13.1 6.36664C13.1 5.97514 13.0999 5.62865 13.1234 5.34149C13.1484 5.03571 13.2044 4.71886 13.3616 4.4104C13.5917 3.95881 13.9588 3.59166 14.4104 3.36156C14.7189 3.2044 15.0357 3.14839 15.3415 3.1234C15.6286 3.09994 15.9751 3.09996 16.3666 3.09998H16.3666L16.4 3.09998L17.6 3.09998L17.6333 3.09998H17.6334C18.0249 3.09996 18.3713 3.09994 18.6585 3.1234C18.9642 3.14839 19.2811 3.2044 19.5896 3.36156C20.0411 3.59166 20.4083 3.95881 20.6384 4.4104C20.7956 4.71886 20.8516 5.03571 20.8766 5.34149C20.9 5.62865 20.9 5.97514 20.9 6.36665L20.9 6.39998V7.59998L20.9 7.63331C20.9 8.02482 20.9 8.37131 20.8766 8.65846C20.8516 8.96425 20.7956 9.2811 20.6384 9.58956C20.4083 10.0411 20.0411 10.4083 19.5896 10.6384C19.2811 10.7956 18.9642 10.8516 18.6585 10.8766C18.3713 10.9 18.0248 10.9 17.6333 10.9ZM18.5119 9.08253C18.7064 9.06664 18.76 9.04091 18.7724 9.03458C18.8853 8.97706 18.9771 8.88527 19.0346 8.77237C19.0409 8.75996 19.0666 8.70636 19.0825 8.51189C19.0993 8.30691 19.1 8.03487 19.1 7.59998V6.39998C19.1 5.96509 19.0993 5.69305 19.0825 5.48807C19.0666 5.2936 19.0409 5.24 19.0346 5.22758C18.9771 5.11469 18.8853 5.0229 18.7724 4.96537C18.76 4.95905 18.7064 4.93331 18.5119 4.91743C18.3069 4.90068 18.0349 4.89998 17.6 4.89998L16.4 4.89998C15.9651 4.89998 15.693 4.90068 15.4881 4.91743C15.2936 4.93331 15.24 4.95905 15.2276 4.96537C15.1147 5.0229 15.0229 5.11469 14.9654 5.22758C14.959 5.24 14.9333 5.2936 14.9174 5.48807C14.9007 5.69305 14.9 5.96509 14.9 6.39998V7.59998C14.9 8.03487 14.9007 8.30691 14.9174 8.51189C14.9333 8.70636 14.959 8.75996 14.9654 8.77237C15.0229 8.88527 15.1147 8.97706 15.2276 9.03458C15.24 9.04091 15.2936 9.06664 15.4881 9.08253C15.693 9.09928 15.9651 9.09998 16.4 9.09998L17.6 9.09998C18.0349 9.09998 18.3069 9.09928 18.5119 9.08253ZM17.6 20.9L17.6333 20.9H17.6334C18.0249 20.9 18.3713 20.9 18.6585 20.8766C18.9642 20.8516 19.2811 20.7956 19.5896 20.6384C20.0411 20.4083 20.4083 20.0411 20.6384 19.5896C20.7956 19.2811 20.8516 18.9642 20.8766 18.6585C20.9 18.3713 20.9 18.0248 20.9 17.6333L20.9 17.6V16.4L20.9 16.3666C20.9 15.9751 20.9 15.6286 20.8766 15.3415C20.8516 15.0357 20.7956 14.7189 20.6384 14.4104C20.4083 13.9588 20.0411 13.5917 19.5896 13.3616C19.2811 13.2044 18.9642 13.1484 18.6585 13.1234C18.3713 13.0999 18.0249 13.1 17.6334 13.1H17.6333L17.6 13.1H16.4L16.3666 13.1H16.3666C15.9751 13.1 15.6286 13.0999 15.3415 13.1234C15.0357 13.1484 14.7189 13.2044 14.4104 13.3616C13.9588 13.5917 13.5917 13.9588 13.3616 14.4104C13.2044 14.7189 13.1484 15.0357 13.1234 15.3415C13.0999 15.6286 13.1 15.9751 13.1 16.3666L13.1 16.4V17.6L13.1 17.6333C13.1 18.0248 13.0999 18.3713 13.1234 18.6585C13.1484 18.9642 13.2044 19.2811 13.3616 19.5896C13.5917 20.0411 13.9588 20.4083 14.4104 20.6384C14.7189 20.7956 15.0357 20.8516 15.3415 20.8766C15.6286 20.9 15.9751 20.9 16.3665 20.9H16.3666L16.4 20.9H17.6ZM18.7724 19.0346C18.76 19.0409 18.7064 19.0666 18.5119 19.0825C18.3069 19.0993 18.0349 19.1 17.6 19.1H16.4C15.9651 19.1 15.693 19.0993 15.4881 19.0825C15.2936 19.0666 15.24 19.0409 15.2276 19.0346C15.1147 18.9771 15.0229 18.8853 14.9654 18.7724C14.959 18.76 14.9333 18.7064 14.9174 18.5119C14.9007 18.3069 14.9 18.0349 14.9 17.6V16.4C14.9 15.9651 14.9007 15.693 14.9174 15.4881C14.9333 15.2936 14.959 15.24 14.9654 15.2276C15.0229 15.1147 15.1147 15.0229 15.2276 14.9654C15.24 14.959 15.2936 14.9333 15.4881 14.9174C15.693 14.9007 15.9651 14.9 16.4 14.9H17.6C18.0349 14.9 18.3069 14.9007 18.5119 14.9174C18.7064 14.9333 18.76 14.959 18.7724 14.9654C18.8853 15.0229 18.9771 15.1147 19.0346 15.2276C19.0409 15.24 19.0666 15.2936 19.0825 15.4881C19.0993 15.693 19.1 15.9651 19.1 16.4V17.6C19.1 18.0349 19.0993 18.3069 19.0825 18.5119C19.0666 18.7064 19.0409 18.76 19.0346 18.7724C18.9771 18.8853 18.8853 18.9771 18.7724 19.0346Z" fill="#023F80"/>
</svg>
