<svg width="24" height="24" viewBox="0 0 24 24" fill="none" xmlns="http://www.w3.org/2000/svg">
<path d="M9.12775 3.09998L15.1738 3.10172C16.7345 3.12048 17.5414 3.29313 18.3781 3.74061C19.1868 4.1731 19.8268 4.81315 20.2593 5.62185C20.7348 6.51086 20.9 7.36624 20.9 9.12775V14.8722C20.9 16.6337 20.7348 17.4891 20.2593 18.3781C19.8268 19.1868 19.1868 19.8268 18.3781 20.2593C17.4891 20.7348 16.6337 20.9 14.8722 20.9H9.12775C7.36624 20.9 6.51086 20.7348 5.62185 20.2593C4.81315 19.8268 4.1731 19.1868 3.74061 18.3781C3.26516 17.4891 3.09998 16.6337 3.09998 14.8722L3.10172 8.82611C3.12048 7.26549 3.29313 6.45857 3.74061 5.62185C4.1731 4.81315 4.81315 4.1731 5.62185 3.74061C6.51086 3.26516 7.36624 3.09998 9.12775 3.09998ZM14.8722 4.89998H9.12775C7.81325 4.89998 7.2112 4.98637 6.68065 5.22441L6.47072 5.32787C5.97571 5.59261 5.59261 5.97571 5.32787 6.47072C5.01095 7.06332 4.89998 7.63798 4.89998 9.12775V14.8722C4.89998 16.1867 4.98637 16.7887 5.22441 17.3193L5.32787 17.5292C5.59261 18.0242 5.97571 18.4073 6.47072 18.6721C6.9936 18.9517 7.50252 19.071 8.63842 19.0952L9.12775 19.1H14.8722C16.1867 19.1 16.7887 19.0136 17.3193 18.7755L17.5292 18.6721C18.0242 18.4073 18.4073 18.0242 18.6721 17.5292C18.9517 17.0063 19.071 16.4974 19.0952 15.3615L19.1 14.8722V9.12775C19.1 7.81325 19.0136 7.2112 18.7755 6.68065L18.6721 6.47072C18.4073 5.97571 18.0242 5.59261 17.5292 5.32787C16.9366 5.01095 16.362 4.89998 14.8722 4.89998ZM12 8.09998C14.1539 8.09998 15.9 9.84606 15.9 12C15.9 14.1539 14.1539 15.9 12 15.9C9.84606 15.9 8.09998 14.1539 8.09998 12C8.09998 9.84606 9.84606 8.09998 12 8.09998ZM12 9.89998C10.8402 9.89998 9.89998 10.8402 9.89998 12C9.89998 13.1598 10.8402 14.1 12 14.1C13.1598 14.1 14.1 13.1598 14.1 12C14.1 10.8402 13.1598 9.89998 12 9.89998Z" fill="#023F80"/>
</svg>
