<svg width="24" height="24" viewBox="0 0 24 24" fill="none" xmlns="http://www.w3.org/2000/svg">
<path fill-rule="evenodd" clipRule="evenodd" d="M13.8244 3.60984C14.2664 2.87316 15.2159 2.46178 16.1065 2.87486C16.9187 3.25153 18.2172 3.99302 19.4119 5.29028C20.7665 6.7612 21.2899 8.14363 21.4846 8.86997C21.4864 8.87653 21.4883 8.88361 21.4904 8.89118C21.5177 8.99093 21.5685 9.17678 21.5535 9.41114C21.5412 9.60449 21.4788 9.82059 21.3863 9.9908C21.2727 10.1996 21.1152 10.3434 21.0333 10.4181C21.0259 10.425 21.019 10.4312 21.0129 10.4369L18.9 12.3932V17.462C18.9 17.4858 18.9001 17.5094 18.9001 17.5329C18.9005 17.9944 18.9008 18.3955 18.7457 18.8517C18.6263 19.2032 18.3498 19.658 18.0928 19.9259C17.7604 20.2724 17.4732 20.4213 17.1387 20.5946C17.1291 20.5996 17.1195 20.6046 17.1099 20.6096C15.9611 21.2054 14.1622 21.9 12 21.9C9.8379 21.9 8.03898 21.2054 6.89023 20.6096C6.88059 20.6046 6.87098 20.5996 6.86142 20.5947C6.52694 20.4213 6.23967 20.2724 5.90726 19.9259C5.6503 19.658 5.37383 19.2032 5.25436 18.8517C5.09926 18.3955 5.09961 17.9944 5.1 17.5329C5.10002 17.5094 5.10004 17.4858 5.10004 17.462V12.3932L2.98696 10.4368C2.98083 10.4311 2.97399 10.4249 2.96651 10.4181C2.88464 10.3433 2.72716 10.1996 2.61362 9.99084C2.52106 9.82067 2.45869 9.60461 2.44632 9.41129C2.43133 9.17697 2.48209 8.99117 2.50934 8.89143C2.51141 8.88386 2.51334 8.87679 2.5151 8.87023C2.70974 8.14384 3.23294 6.76127 4.58784 5.29023C5.78261 3.99306 7.08101 3.25158 7.89314 2.8749C8.78382 2.46179 9.73334 2.87317 10.1754 3.60983C11.0018 4.9872 12.998 4.98718 13.8244 3.60984ZM15.3784 4.52139C15.3751 4.52505 15.3715 4.5298 15.3679 4.53591C13.8424 7.07851 10.1574 7.07847 8.63187 4.53594C8.6282 4.52982 8.6246 4.52507 8.62135 4.52141C7.95154 4.83546 6.8874 5.45049 5.91182 6.50969C4.88453 7.62503 4.46149 8.64668 4.29444 9.19432L6.61149 11.3396C6.79546 11.5099 6.90005 11.7493 6.90005 12V17.462C6.90005 18.0196 6.90872 18.1257 6.95858 18.2724C6.99333 18.3746 7.13147 18.6019 7.20623 18.6798C7.3221 18.8006 7.37394 18.8328 7.71903 19.0117C8.70788 19.5247 10.2181 20.1 12 20.1C13.782 20.1 15.2922 19.5247 16.2811 19.0117C16.6261 18.8327 16.678 18.8006 16.7939 18.6798C16.8686 18.6019 17.0068 18.3746 17.0415 18.2724C17.0914 18.1257 17.1 18.0196 17.1 17.462V12C17.1 11.7493 17.2046 11.5099 17.3886 11.3396L19.7054 9.19443C19.5382 8.64671 19.115 7.62502 18.0878 6.50965C17.1124 5.45045 16.0482 4.83543 15.3784 4.52139Z" fill="#023F80"/>
</svg>
