<svg width="24" height="24" viewBox="0 0 24 24" fill="none" xmlns="http://www.w3.org/2000/svg">
<path fill-rule="evenodd" clipRule="evenodd" d="M16.8861 1C17.9388 1 18.7952 1.82798 18.7952 2.8457V4.77344H16.2498V6.00391H17.0909C18.1436 6.00391 19 6.83189 19 7.84961V22H5L5.00437 7.84899C5.00467 6.83164 5.86107 6.00391 6.91344 6.00391H7.75042V2.8457C7.75042 1.82798 8.60682 1 9.65948 1H16.8861ZM17.0909 7.23437H6.91344C6.56264 7.23437 6.27717 7.51025 6.27708 7.8494L6.27309 20.7695H17.7273V7.84961C17.7273 7.51037 17.4418 7.23437 17.0909 7.23437ZM11.3637 18.3086V19.5391H10.091V18.3086H11.3637ZM8.81831 18.3086V19.5391H7.54559V18.3086H8.81831ZM13.9092 18.3086V19.5391H12.6364V18.3086H13.9092ZM16.4546 18.3086V19.5391H15.1819V18.3086H16.4546ZM11.3637 15.8477V17.0781H10.091V15.8477H11.3637ZM8.81831 15.8477V17.0781H7.54559V15.8477H8.81831ZM13.9092 15.8477V17.0781H12.6364V15.8477H13.9092ZM16.4546 13.3867V17.0781H15.1819V13.3867H16.4546ZM11.3637 13.3867V14.6172H10.091V13.3867H11.3637ZM8.81831 13.3867V14.6172H7.54559V13.3867H8.81831ZM13.9092 13.3867V14.6172H12.6364V13.3867H13.9092ZM16.4546 8.46484V12.1562H7.54559V8.46484H16.4546ZM15.1819 9.69531H8.81831V10.9258H15.1819V9.69531ZM15.0861 2.23047H9.65948C9.3086 2.23047 9.02313 2.50646 9.02313 2.8457V6.00391H14.977V2.8457C14.977 2.63008 15.0155 2.42295 15.0861 2.23047ZM16.8861 2.23047C16.5352 2.23047 16.2498 2.50646 16.2498 2.8457V3.54297H17.5225V2.8457C17.5225 2.50646 17.237 2.23047 16.8861 2.23047Z" fill="#023F80"/>
</svg>
