<svg width="28" height="28" viewBox="0 0 28 28" fill="none" xmlns="http://www.w3.org/2000/svg">
<path fill-rule="evenodd" clipRule="evenodd" d="M14.4934 5.00085H13.5922C9.55438 5.00085 4.95215 8.84026 4.95215 14.0558V20.798C4.95215 21.3502 4.50443 21.798 3.95215 21.798C3.39986 21.798 2.95215 21.3502 2.95215 20.798V14.0558C2.95215 7.98065 8.10337 3.00085 13.5922 3.00085C13.9627 3.00085 14.3293 3.01921 14.691 3.05512C15.2406 3.10969 15.6418 3.59945 15.5873 4.14903C15.5327 4.69861 15.0395 5.03735 14.4934 5.00085ZM17.9734 5.91433C17.4673 5.69321 17.2363 5.10369 17.4574 4.59761C17.6785 4.09152 18.2743 3.84661 18.7741 4.08162C22.2307 5.70704 25.0502 9.47656 24.9971 14.0224V15.9947C24.9971 16.547 24.5494 16.9947 23.9971 16.9947C23.4449 16.9947 22.9971 16.547 22.9971 15.9947V14.0224C22.9801 10.5464 20.8753 7.23777 17.9734 5.91433ZM22.9972 20.0212C22.9972 19.4689 23.4449 19.0212 23.9972 19.0212C24.5494 19.0212 24.9972 19.4689 24.9972 20.0212V22.0056C24.9972 22.5579 24.5494 23.0056 23.9972 23.0056C23.4449 23.0056 22.9972 22.5579 22.9972 22.0056V20.0212ZM14 8.99998C11.2386 8.99998 9 11.4886 9 14.25C9 14.8023 8.55228 15.25 8 15.25C7.44771 15.25 7.00794 14.8022 7 14.25C6.93803 9.94284 10.2663 6.99998 14 6.99998C14.6027 6.99998 15.1891 7.07639 15.7493 7.22057C16.2841 7.35823 16.6061 7.90341 16.4684 8.43826C16.3308 8.97312 15.7856 9.2951 15.2507 9.15744C14.8521 9.05483 14.4332 8.99998 14 8.99998ZM18.069 9.54185C18.4806 9.17353 19.1128 9.20855 19.4811 9.62008C20.604 10.8747 21 12.4461 21 14.25V20.75C21 21.3023 20.5523 21.75 20 21.75C19.4477 21.75 19 21.3023 19 20.75V14.25C19 12.9688 18.7831 11.8392 17.9908 10.9539C17.6225 10.5424 17.6575 9.91018 18.069 9.54185ZM8 17.2114C8.55228 17.2114 9 17.6592 9 18.2114V22.1802C9 22.7325 8.55228 23.1802 8 23.1802C7.44771 23.1802 7 22.7325 7 22.1802V18.2114C7 17.6592 7.44771 17.2114 8 17.2114ZM14 13.0078C13.4477 13.0078 13 13.4555 13 14.0078V22.9922C13 23.5445 12.5523 23.9922 12 23.9922C11.4477 23.9922 11 23.5445 11 22.9922V14.0078C11 12.351 12.3431 11.0078 14 11.0078C15.6569 11.0078 17 12.351 17 14.0078V15.9922C17 16.5444 16.5523 16.9922 16 16.9922C15.4477 16.9922 15 16.5444 15 15.9922V14.0078C15 13.4555 14.5523 13.0078 14 13.0078ZM16 19.0156C16.5523 19.0156 17 19.4633 17 20.0156V23.9765C17 24.5288 16.5523 24.9765 16 24.9765C15.4477 24.9765 15 24.5288 15 23.9765V20.0156C15 19.4633 15.4477 19.0156 16 19.0156Z" fill="#023F80"/>
</svg>
