<svg width="28" height="28" viewBox="0 0 28 28" fill="none" xmlns="http://www.w3.org/2000/svg">
<path fill-rule="evenodd" clipRule="evenodd" d="M13 2H12.9562C11.5932 1.99999 10.5092 1.99999 9.63458 2.07144C8.73898 2.14462 7.97531 2.29768 7.27606 2.65396C6.14709 3.2292 5.2292 4.14708 4.65396 5.27606C4.29768 5.9753 4.14462 6.73898 4.07144 7.63458C3.99999 8.50916 3.99999 9.59318 4 10.9562V10.9562V11V16.6V16.6428V16.6428C3.99999 17.7266 3.99998 18.6008 4.05782 19.3086C4.11737 20.0375 4.24318 20.6777 4.54497 21.27C5.02434 22.2108 5.78924 22.9757 6.73005 23.455C6.87227 23.5275 7.01725 23.5898 7.16555 23.6435L6.57151 25.1286C6.3664 25.6414 6.61582 26.2234 7.1286 26.4285C7.64138 26.6336 8.22335 26.3842 8.42847 25.8714L9.17702 24H11.2372L11.3571 24H11.3572H11.4H16.6H16.6428H16.6429L16.7628 24H18.823L19.5715 25.8714C19.7766 26.3842 20.3586 26.6336 20.8714 26.4285C21.3842 26.2234 21.6336 25.6414 21.4285 25.1286L20.8344 23.6435C20.9827 23.5898 21.1277 23.5275 21.27 23.455C22.2108 22.9757 22.9757 22.2108 23.455 21.27C23.7568 20.6777 23.8826 20.0375 23.9422 19.3086C24 18.6008 24 17.7266 24 16.6428V16.6V11V10.9562V10.9561C24 9.59313 24 8.50914 23.9286 7.63458C23.8554 6.73898 23.7023 5.9753 23.346 5.27606C22.7708 4.14708 21.8529 3.2292 20.7239 2.65396C20.0247 2.29768 19.261 2.14462 18.3654 2.07144C17.4908 1.99999 16.4068 1.99999 15.0438 2H15H13ZM16.6793 22C17.7736 21.9999 18.5434 21.998 19.1458 21.9488C19.7509 21.8994 20.0986 21.8072 20.362 21.673C20.9265 21.3854 21.3854 20.9265 21.673 20.362C21.8072 20.0986 21.8994 19.7509 21.9488 19.1458C21.9992 18.5289 22 17.7366 22 16.6V16H6V16.6C6 17.7366 6.00078 18.5289 6.05118 19.1458C6.10062 19.7509 6.1928 20.0986 6.32698 20.362C6.6146 20.9265 7.07354 21.3854 7.63803 21.673C7.90139 21.8072 8.24907 21.8994 8.85424 21.9488C9.45664 21.998 10.2264 21.9999 11.3207 22L11.4 22H16.6L16.6793 22ZM6 14H22V11C22 9.58337 21.9992 8.58104 21.9352 7.79744C21.8721 7.02552 21.7527 6.55435 21.564 6.18404C21.1805 5.43139 20.5686 4.81947 19.816 4.43597C19.4457 4.24729 18.9745 4.12787 18.2026 4.0648C17.8515 4.03612 17.4565 4.02013 17 4.01122C16.9939 5.6629 15.6531 6.99997 14 6.99997C12.3469 6.99997 11.0061 5.6629 11 4.01122C10.5435 4.02013 10.1485 4.03612 9.79744 4.0648C9.02552 4.12787 8.55435 4.24729 8.18404 4.43597C7.43139 4.81947 6.81947 5.43139 6.43598 6.18404C6.24729 6.55435 6.12787 7.02552 6.0648 7.79744C6.00078 8.58104 6 9.58337 6 11V14ZM13 4C13 4.55227 13.4477 4.99997 14 4.99997C14.5523 4.99997 15 4.55227 15 4H13ZM9 18C8.44771 18 8 18.4477 8 19C8 19.5523 8.44771 20 9 20H10C10.5523 20 11 19.5523 11 19C11 18.4477 10.5523 18 10 18H9ZM17 19C17 18.4477 17.4477 18 18 18H19C19.5523 18 20 18.4477 20 19C20 19.5523 19.5523 20 19 20H18C17.4477 20 17 19.5523 17 19Z" fill="#023F80"/>
</svg>
