<svg width="24" height="24" viewBox="0 0 24 24" fill="none" xmlns="http://www.w3.org/2000/svg">
<path d="M14.8501 7.94999C14.8501 6.37517 13.5749 5.09999 12.0001 5.09999C10.4253 5.09999 9.1501 6.37517 9.1501 7.94999C9.1501 9.52481 10.4253 10.8 12.0001 10.8C13.5749 10.8 14.8501 9.52481 14.8501 7.94999ZM16.6501 7.94999C16.6501 10.5189 14.569 12.6 12.0001 12.6C9.43117 12.6 7.3501 10.5189 7.3501 7.94999C7.3501 5.38106 9.43117 3.29999 12.0001 3.29999C14.569 3.29999 16.6501 5.38106 16.6501 7.94999ZM5.9001 18.4286C5.9001 19.1974 5.80933 19.1 6.23539 19.1H17.7648C18.1909 19.1 18.1001 19.1974 18.1001 18.4286C18.1001 16.536 15.3219 15.4 12.0001 15.4C8.67829 15.4 5.9001 16.536 5.9001 18.4286ZM4.1001 18.4286C4.1001 15.1018 7.77289 13.6 12.0001 13.6C16.2273 13.6 19.9001 15.1018 19.9001 18.4286C19.9001 20.1642 19.2146 20.9 17.7648 20.9H6.23539C4.78564 20.9 4.1001 20.1642 4.1001 18.4286Z" fill="#023F80"/>
</svg>
