<svg width="24" height="24" viewBox="0 0 24 24" fill="none" xmlns="http://www.w3.org/2000/svg">
<path d="M17.0001 13.5C20.6885 13.5 23.9001 14.8092 23.9001 17.7571C23.9001 19.3112 23.2564 20 21.9413 20L16.3454 20C15.8022 20 15.4184 19.449 15.5257 18.9165C15.601 18.5429 15.9146 18.2 16.2957 18.2001C18.555 18.2004 22.0781 18.202 22.0781 18.202C22.0781 18.202 22.1001 17.9052 22.1001 17.7571C22.1001 16.2449 19.7822 15.3 17.0001 15.3C16.528 15.3 16.0693 15.3272 15.633 15.3798C15.2978 15.4202 14.9733 15.2608 14.7834 14.9816C14.4324 14.4658 14.6173 13.6856 15.2363 13.6071C15.8032 13.5352 16.3952 13.5 17.0001 13.5ZM7.0001 13.5C10.6885 13.5 13.9001 14.8092 13.9001 17.7571C13.9001 19.3112 13.2564 20 11.9413 20H2.05892C0.743807 20 0.100098 19.3112 0.100098 17.7571C0.100098 14.8092 3.31165 13.5 7.0001 13.5ZM7.0001 15.3C4.21796 15.3 1.9001 16.2449 1.9001 17.7571C1.9001 17.9059 1.9201 18.202 1.9201 18.202H12.0781C12.0781 18.202 12.1001 17.9052 12.1001 17.7571C12.1001 16.2449 9.78224 15.3 7.0001 15.3ZM17.0001 4.20001C19.2928 4.20001 21.1501 6.05733 21.1501 8.35001C21.1501 10.6427 19.2928 12.5 17.0001 12.5C14.7074 12.5 12.8501 10.6427 12.8501 8.35001C12.8501 6.05733 14.7074 4.20001 17.0001 4.20001ZM7.0001 4.20001C9.29278 4.20001 11.1501 6.05733 11.1501 8.35001C11.1501 10.6427 9.29278 12.5 7.0001 12.5C4.70742 12.5 2.8501 10.6427 2.8501 8.35001C2.8501 6.05733 4.70742 4.20001 7.0001 4.20001ZM17.0001 6.00001C15.7015 6.00001 14.6501 7.05144 14.6501 8.35001C14.6501 9.64858 15.7015 10.7 17.0001 10.7C18.2987 10.7 19.3501 9.64858 19.3501 8.35001C19.3501 7.05144 18.2987 6.00001 17.0001 6.00001ZM7.0001 6.00001C5.70153 6.00001 4.6501 7.05144 4.6501 8.35001C4.6501 9.64858 5.70153 10.7 7.0001 10.7C8.29867 10.7 9.3501 9.64858 9.3501 8.35001C9.3501 7.05144 8.29867 6.00001 7.0001 6.00001Z" fill="#023F80"/>
</svg>
