<svg width="28" height="28" viewBox="0 0 28 28" fill="none" xmlns="http://www.w3.org/2000/svg">
<path fill-rule="evenodd" clipRule="evenodd" d="M6.70711 3.29289C7.09763 3.68342 7.09763 4.31658 6.70711 4.70711L4.70711 6.70711C4.31658 7.09763 3.68342 7.09763 3.29289 6.70711C2.90237 6.31658 2.90237 5.68342 3.29289 5.29289L5.29289 3.29289C5.68342 2.90237 6.31658 2.90237 6.70711 3.29289ZM12.7071 3.29289C13.0976 3.68342 13.0976 4.31658 12.7071 4.70711L11.2071 6.20711C10.8166 6.59763 10.1834 6.59763 9.79289 6.20711C9.40237 5.81658 9.40237 5.18342 9.79289 4.79289L11.2929 3.29289C11.6834 2.90237 12.3166 2.90237 12.7071 3.29289ZM8.20711 7.79289C8.59763 8.18342 8.59763 8.81658 8.20711 9.20711L4.70711 12.7071C4.31658 13.0976 3.68342 13.0976 3.29289 12.7071C2.90237 12.3166 2.90237 11.6834 3.29289 11.2929L6.79289 7.79289C7.18342 7.40237 7.81658 7.40237 8.20711 7.79289ZM23.2071 18.2071L24.7071 16.7071C25.0976 16.3166 25.0976 15.6834 24.7071 15.2929C24.3166 14.9024 23.6834 14.9024 23.2929 15.2929L21.7929 16.7929C21.4024 17.1834 21.4024 17.8166 21.7929 18.2071C22.1834 18.5976 22.8166 18.5976 23.2071 18.2071ZM18.7071 3.29289C19.0976 3.68342 19.0976 4.31658 18.7071 4.70711L17.7071 5.70711C17.3166 6.09763 16.6834 6.09763 16.2929 5.70711C15.9024 5.31658 15.9024 4.68342 16.2929 4.29289L17.2929 3.29289C17.6834 2.90237 18.3166 2.90237 18.7071 3.29289ZM8.20711 13.7929C8.59763 14.1834 8.59763 14.8166 8.20711 15.2071L4.70711 18.7071C4.31658 19.0976 3.68342 19.0976 3.29289 18.7071C2.90237 18.3166 2.90237 17.6834 3.29289 17.2929L6.79289 13.7929C7.18342 13.4024 7.81658 13.4024 8.20711 13.7929ZM24.7071 10.7071C25.0976 10.3166 25.0976 9.68342 24.7071 9.29289C24.3166 8.90237 23.6834 8.90237 23.2929 9.29289L20.2929 12.2929C19.9024 12.6834 19.9024 13.3166 20.2929 13.7071C20.6834 14.0976 21.3166 14.0976 21.7071 13.7071L24.7071 10.7071ZM23.7071 4.29289C24.0976 4.68341 24.0976 5.31658 23.7071 5.7071L20.7071 8.7071C20.3166 9.09763 19.6834 9.09763 19.2929 8.70711C18.9024 8.31659 18.9024 7.68342 19.2929 7.2929L22.2929 4.2929C22.6834 3.90237 23.3166 3.90237 23.7071 4.29289ZM21.5 22.4286C21.5 19.0424 17.9973 17.5 14 17.5C10.0027 17.5 6.5 19.0424 6.5 22.4286C6.5 24.2035 7.18907 25 8.64706 25H19.3529C20.8109 25 21.5 24.2035 21.5 22.4286ZM8.5 22.4286C8.5 20.5954 10.9875 19.5 14 19.5C17.0125 19.5 19.5 20.5954 19.5 22.4286C19.5 22.7089 19.483 22.8908 19.4704 22.9882L19.468 23.003L19.4554 23.0017C19.4477 23.0012 19.4389 23.0008 19.4288 23.0005L8.56385 23.0008L8.54456 23.0017L8.531 23.003L8.52958 22.9882C8.51695 22.8908 8.5 22.7089 8.5 22.4286ZM18.25 11.75C18.25 9.40209 16.3479 7.5 14 7.5C11.6521 7.5 9.75 9.40209 9.75 11.75C9.75 14.0979 11.6521 16 14 16C16.3479 16 18.25 14.0979 18.25 11.75ZM11.75 11.75C11.75 10.5067 12.7567 9.5 14 9.5C15.2433 9.5 16.25 10.5067 16.25 11.75C16.25 12.9933 15.2433 14 14 14C12.7567 14 11.75 12.9933 11.75 11.75Z" fill="#023F80"/>
</svg>
