<svg width="24" height="24" viewBox="0 0 24 24" fill="none" xmlns="http://www.w3.org/2000/svg">
<path d="M9.89999 9.4C9.89999 8.90294 9.49705 8.5 8.99999 8.5C8.50293 8.5 8.09999 8.90294 8.09999 9.4V11.1H6.4C5.90294 11.1 5.5 11.5029 5.5 12C5.5 12.497 5.90294 12.9 6.4 12.9H8.09999V14.6C8.09999 15.097 8.50293 15.5 8.99999 15.5C9.49705 15.5 9.89999 15.097 9.89999 14.6V12.9H11.6C12.097 12.9 12.5 12.497 12.5 12C12.5 11.5029 12.097 11.1 11.6 11.1H9.89999V9.4Z" fill="#023F80"/>
<path fill-rule="evenodd" clipRule="evenodd" d="M14.9537 5.03427C14.3018 4.68565 13.6553 4.5 11.8722 4.5H6.12777C4.34473 4.5 3.69816 4.68565 3.04631 5.03427C2.39446 5.38288 1.88288 5.89446 1.53427 6.54631C1.18565 7.19816 1 7.84473 1 9.62777V14.3722C1 16.1553 1.18565 16.8018 1.53427 17.4537C1.88288 18.1055 2.39446 18.6171 3.04631 18.9657C3.69816 19.3143 4.34473 19.5 6.12777 19.5H11.8722C13.6553 19.5 14.3018 19.3143 14.9537 18.9657C15.6055 18.6171 16.1171 18.1055 16.4657 17.4537C16.6755 17.0614 16.8263 16.671 16.9131 16.0337L19.3907 17.4784C19.7578 17.6926 20.1751 17.8054 20.6 17.8054C21.9255 17.8054 23 16.7309 23 15.4054V8.59462C23 8.16969 22.8872 7.75238 22.6731 7.38533C22.0052 6.24041 20.5356 5.85368 19.3907 6.52155L16.9131 7.96632C16.8263 7.32899 16.6755 6.9386 16.4657 6.54631C16.1171 5.89446 15.6055 5.38288 14.9537 5.03427ZM6.12777 6.3H11.8722C13.2261 6.3 13.6604 6.38387 14.1048 6.62153C14.443 6.80238 14.6976 7.05702 14.8785 7.39519C15.1161 7.83958 15.2 8.27387 15.2 9.62777V14.3722C15.2 15.7261 15.1161 16.1604 14.8785 16.6048C14.6976 16.943 14.443 17.1976 14.1048 17.3785C13.6604 17.6161 13.2261 17.7 11.8722 17.7H6.12777C4.77387 17.7 4.33958 17.6161 3.89519 17.3785C3.55702 17.1976 3.30238 16.943 3.12153 16.6048C2.88387 16.1604 2.8 15.7261 2.8 14.3722V9.62777C2.8 8.27387 2.88387 7.83958 3.12153 7.39519C3.30238 7.05702 3.55702 6.80238 3.89519 6.62153C4.33958 6.38387 4.77387 6.3 6.12777 6.3ZM17 10L20.2977 8.07635C20.5839 7.90939 20.9513 8.00607 21.1183 8.2923C21.1718 8.38406 21.2 8.48839 21.2 8.59462V15.4054C21.2 15.7367 20.9314 16.0054 20.6 16.0054C20.4938 16.0054 20.3894 15.9772 20.2977 15.9236L17 14V10Z" fill="#023F80"/>
</svg>
