<svg width="24" height="24" viewBox="0 0 24 24" fill="none" xmlns="http://www.w3.org/2000/svg">
<path d="M11.8722 4.5C13.6553 4.5 14.3018 4.68565 14.9537 5.03427C15.6055 5.38288 16.1171 5.89446 16.4657 6.54631C16.6755 6.9386 16.8263 7.32899 16.9131 7.96632L19.3907 6.52155C20.5356 5.85368 22.0052 6.24041 22.6731 7.38533C22.8872 7.75238 23 8.16969 23 8.59462V15.4054C23 16.7309 21.9255 17.8054 20.6 17.8054C20.1751 17.8054 19.7578 17.6926 19.3907 17.4784L16.9131 16.0337C16.8263 16.671 16.6755 17.0614 16.4657 17.4537C16.1171 18.1055 15.6055 18.6171 14.9537 18.9657C14.3018 19.3143 13.6553 19.5 11.8722 19.5H6.12777C4.34473 19.5 3.69816 19.3143 3.04631 18.9657C2.39446 18.6171 1.88288 18.1055 1.53427 17.4537C1.18565 16.8018 1 16.1553 1 14.3722V9.62777C1 7.84473 1.18565 7.19816 1.53427 6.54631C1.88288 5.89446 2.39446 5.38288 3.04631 5.03427C3.69816 4.68565 4.34473 4.5 6.12777 4.5H11.8722ZM11.8722 6.3H6.12777C4.77387 6.3 4.33958 6.38387 3.89519 6.62153C3.55702 6.80238 3.30238 7.05702 3.12153 7.39519C2.88387 7.83958 2.8 8.27387 2.8 9.62777V14.3722C2.8 15.7261 2.88387 16.1604 3.12153 16.6048C3.30238 16.943 3.55702 17.1976 3.89519 17.3785C4.33958 17.6161 4.77387 17.7 6.12777 17.7H11.8722C13.2261 17.7 13.6604 17.6161 14.1048 17.3785C14.443 17.1976 14.6976 16.943 14.8785 16.6048C15.1161 16.1604 15.2 15.7261 15.2 14.3722V9.62777C15.2 8.27387 15.1161 7.83958 14.8785 7.39519C14.6976 7.05702 14.443 6.80238 14.1048 6.62153C13.6604 6.38387 13.2261 6.3 11.8722 6.3ZM20.2977 8.07635L17 10V14L20.2977 15.9236C20.3894 15.9772 20.4938 16.0054 20.6 16.0054C20.9314 16.0054 21.2 15.7367 21.2 15.4054V8.59462C21.2 8.48839 21.1718 8.38406 21.1183 8.2923C20.9513 8.00607 20.5839 7.90939 20.2977 8.07635Z" fill="#023F80"/>
</svg>
