<svg width="28" height="28" viewBox="0 0 28 28" fill="none" xmlns="http://www.w3.org/2000/svg">
<path fill-rule="evenodd" clipRule="evenodd" d="M13.6 7C14.7366 7 15.5289 7.00078 16.1458 7.05118C16.7509 7.10062 17.0986 7.19279 17.362 7.32698C17.9265 7.6146 18.3854 8.07354 18.673 8.63803C18.8072 8.90138 18.8994 9.24907 18.9488 9.85424C18.9992 10.4711 19 11.2634 19 12.4V16.4948C19 17.1724 19.3431 17.8039 19.9116 18.1727C20.1652 18.3372 20.4188 18.5016 20.6724 18.6661C21.1911 19.0024 21.7098 19.3387 22.2282 19.6753C22.467 19.8304 22.748 20.0128 23.0015 20.1461C23.2557 20.2798 23.795 20.5411 24.4826 20.4945C25.2644 20.4415 25.9856 20.0516 26.4577 19.4243C26.8732 18.8722 26.9478 18.2762 26.9741 17.9901C27.0003 17.705 27.0001 17.37 27 17.0859C26.9991 15.0286 26.9991 12.9714 27 10.9141C27.0001 10.63 27.0003 10.295 26.9741 10.0099C26.9478 9.72379 26.8732 9.12781 26.4577 8.57574C25.9856 7.94844 25.2644 7.55847 24.4826 7.50552C23.795 7.45894 23.2557 7.72023 23.0015 7.85392C22.748 7.9872 22.467 8.16964 22.2282 8.32466C21.9268 8.52035 21.6253 8.71588 21.3237 8.91142C21.1785 9.00558 21.0333 9.09975 20.8881 9.19393C20.8141 8.66564 20.6862 8.18379 20.455 7.73005C19.9757 6.78924 19.2108 6.02433 18.27 5.54497C17.6777 5.24318 17.0375 5.11737 16.3086 5.05782C15.6007 4.99998 14.7266 4.99999 13.6428 5L8.65629 5C8.10401 5 7.65629 5.44772 7.65629 6C7.65629 6.55228 8.10401 7 8.65629 7H13.6ZM21 16.4948L23.2696 17.9669C23.8328 18.3322 24.1144 18.5148 24.3474 18.4991C24.5505 18.4853 24.7375 18.384 24.8597 18.2216C25 18.0352 25 17.7001 25 17.0298V10.9702C25 10.2999 25 9.96478 24.8597 9.77839C24.7375 9.61598 24.5505 9.5147 24.3474 9.50094C24.1144 9.48516 23.8328 9.6678 23.2696 10.0331L21 11.5052V16.4948Z" fill="#023F80"/>
<path fill-rule="evenodd" clipRule="evenodd" d="M13.6428 23H9.35717C8.27339 23 7.39925 23 6.69138 22.9422C5.96253 22.8826 5.32234 22.7568 4.73005 22.455C3.78924 21.9757 3.02434 21.2108 2.54497 20.27C2.24318 19.6777 2.11737 19.0375 2.05782 18.3086C1.99998 17.6007 1.99999 16.7266 2 15.6428V12.3572C1.99999 11.2734 1.99998 10.3993 2.05782 9.69138C2.11737 8.96253 2.24318 8.32234 2.54497 7.73005C2.63066 7.56187 2.72547 7.39932 2.82879 7.243L1.29289 5.70711C0.902369 5.31658 0.902369 4.68342 1.29289 4.29289C1.68342 3.90237 2.31658 3.90237 2.70711 4.29289L21.7071 23.2929C22.0976 23.6834 22.0976 24.3166 21.7071 24.7071C21.3166 25.0976 20.6834 25.0976 20.2929 24.7071L18.1152 22.5294C17.5663 22.7781 16.9745 22.8878 16.3086 22.9422C15.6008 23 14.7266 23 13.6428 23ZM4.05118 9.85424C4.00078 10.4711 4 11.2634 4 12.4V15.6C4 16.7366 4.00078 17.5289 4.05118 18.1458C4.10062 18.7509 4.19279 19.0986 4.32698 19.362C4.6146 19.9265 5.07355 20.3854 5.63803 20.673C5.90139 20.8072 6.24907 20.8994 6.85424 20.9488C7.47108 20.9992 8.2634 21 9.4 21H13.6C14.7366 21 15.5289 20.9992 16.1458 20.9488C16.274 20.9383 16.3907 20.926 16.4974 20.9116L12.5 16.9142V17C12.5 17.5523 12.0523 18 11.5 18C10.9477 18 10.5 17.5523 10.5 17V14.9142L9.75 14.1642L9.20711 14.7071C8.81658 15.0976 8.18342 15.0976 7.79289 14.7071C7.40237 14.3166 7.40237 13.6834 7.79289 13.2929L8.33579 12.75L4.29343 8.70765C4.17732 8.96282 4.09639 9.30089 4.05118 9.85424Z" fill="#023F80"/>
</svg>
