<svg width="24" height="24" viewBox="0 0 24 24" fill="none" xmlns="http://www.w3.org/2000/svg">
<path fill-rule="evenodd" clipRule="evenodd" d="M3.9001 12C3.9001 7.52649 7.52659 3.9 12.0001 3.9C16.4736 3.9 20.1001 7.52649 20.1001 12C20.1001 16.4735 16.4736 20.1 12.0001 20.1C7.52659 20.1 3.9001 16.4735 3.9001 12ZM12.0001 2.1C6.53248 2.1 2.1001 6.53238 2.1001 12C2.1001 17.4676 6.53248 21.9 12.0001 21.9C17.4677 21.9 21.9001 17.4676 21.9001 12C21.9001 6.53238 17.4677 2.1 12.0001 2.1ZM10.5744 7.73051C11.0224 7.58097 11.5018 7.49997 12.0001 7.49997C12.4984 7.49997 12.9778 7.58097 13.4258 7.73051L13.2207 8.08587C12.9721 8.51634 13.1196 9.06677 13.5501 9.31529C13.9805 9.56382 14.531 9.41633 14.7795 8.98587L14.9841 8.63154C15.7002 9.26638 16.2124 10.1261 16.4101 11.1H16.0001C15.503 11.1 15.1001 11.5029 15.1001 12C15.1001 12.497 15.503 12.9 16.0001 12.9H16.4101C16.2124 13.8739 15.7002 14.7335 14.9841 15.3684L14.7795 15.014C14.531 14.5836 13.9806 14.4361 13.5501 14.6846C13.1196 14.9331 12.9722 15.4836 13.2207 15.914L13.4259 16.2694C12.9778 16.419 12.4984 16.5 12.0001 16.5C11.5018 16.5 11.0224 16.419 10.5743 16.2694L10.7795 15.9141C11.028 15.4836 10.8806 14.9332 10.4501 14.6846C10.0196 14.4361 9.4692 14.5836 9.22067 15.0141L9.0161 15.3684C8.30001 14.7335 7.78781 13.8739 7.59012 12.9H8.00012C8.49717 12.9 8.90012 12.497 8.90012 12C8.90012 11.5029 8.49717 11.1 8.00012 11.1H7.59012C7.78781 10.1261 8.30003 9.26638 9.01613 8.63154L9.2207 8.98586C9.46922 9.41632 10.0197 9.56381 10.4501 9.31528C10.8806 9.06675 11.0281 8.51632 10.7795 8.08586L10.5744 7.73051ZM12.0001 5.69997C8.52071 5.69997 5.7001 8.52058 5.7001 12C5.7001 15.4794 8.52071 18.3 12.0001 18.3C15.4795 18.3 18.3001 15.4794 18.3001 12C18.3001 8.52058 15.4795 5.69997 12.0001 5.69997ZM10.7501 12C10.7501 11.3096 11.3097 10.75 12.0001 10.75C12.6905 10.75 13.2501 11.3096 13.2501 12C13.2501 12.6904 12.6905 13.25 12.0001 13.25C11.3097 13.25 10.7501 12.6904 10.7501 12Z" fill="#023F80"/>
</svg>
