<svg width="28" height="28" viewBox="0 0 28 28" fill="none" xmlns="http://www.w3.org/2000/svg">
<path fill-rule="evenodd" clipRule="evenodd" d="M14 4H15.2C16.7731 4 17.8327 4.00156 18.6495 4.06829C19.443 4.13312 19.8296 4.24935 20.089 4.38148C20.7475 4.71703 21.283 5.25247 21.6185 5.91103C21.7507 6.17035 21.8669 6.55702 21.9317 7.35047C21.9984 8.16728 22 9.22685 22 10.8V17.2C22 18.7731 21.9984 19.8327 21.9317 20.6495C21.8669 21.443 21.7507 21.8296 21.6185 22.089C21.283 22.7475 20.7475 23.283 20.089 23.6185C19.8296 23.7507 19.443 23.8669 18.6495 23.9317C17.8327 23.9984 16.7731 24 15.2 24H12.8C11.2269 24 10.1673 23.9984 9.35047 23.9317C8.55702 23.8669 8.17035 23.7507 7.91103 23.6185C7.25247 23.283 6.71703 22.7475 6.38148 22.089C6.24935 21.8296 6.13312 21.443 6.06829 20.6495C6.00156 19.8327 6 18.7731 6 17.2V10.8C6 9.22685 6.00156 8.16728 6.06829 7.35047C6.13312 6.55702 6.24935 6.17035 6.38148 5.91103C6.71703 5.25247 7.25247 4.71703 7.91103 4.38148C8.17035 4.24935 8.55702 4.13312 9.35047 4.06829C10.0205 4.01355 10.8538 4.00266 12 4.00052V5.2C12 5.48003 12 5.62004 12.0545 5.727C12.1024 5.82108 12.1789 5.89757 12.273 5.9455C12.38 6 12.52 6 12.8 6H14V8H12.8C12.52 8 12.38 8 12.273 8.0545C12.1789 8.10243 12.1024 8.17892 12.0545 8.273C12 8.37996 12 8.51997 12 8.8V9.2C12 9.48003 12 9.62004 12.0545 9.727C12.1024 9.82108 12.1789 9.89757 12.273 9.9455C12.38 10 12.52 10 12.8 10H14V11.2C14 11.48 14 11.62 14.0545 11.727C14.1024 11.8211 14.1789 11.8976 14.273 11.9455C14.38 12 14.52 12 14.8 12H15.2C15.48 12 15.62 12 15.727 11.9455C15.8211 11.8976 15.8976 11.8211 15.9455 11.727C16 11.62 16 11.48 16 11.2V10.8C16 10.52 16 10.38 15.9455 10.273C15.8976 10.1789 15.8211 10.1024 15.727 10.0545C15.62 10 15.48 10 15.2 10H14V8H15.2C15.48 8 15.62 8 15.727 7.9455C15.8211 7.89757 15.8976 7.82108 15.9455 7.727C16 7.62004 16 7.48003 16 7.2V6.8C16 6.51997 16 6.37996 15.9455 6.273C15.8976 6.17892 15.8211 6.10243 15.727 6.0545C15.62 6 15.48 6 15.2 6H14V4ZM4 10.8C4 7.71971 4 6.17957 4.59946 5.00305C5.12677 3.96816 5.96816 3.12677 7.00305 2.59946C8.17957 2 9.71971 2 12.8 2H15.2C18.2803 2 19.8204 2 20.9969 2.59946C22.0318 3.12677 22.8732 3.96816 23.4005 5.00305C24 6.17957 24 7.71971 24 10.8V17.2C24 20.2803 24 21.8204 23.4005 22.9969C22.8732 24.0318 22.0318 24.8732 20.9969 25.4005C19.8204 26 18.2803 26 15.2 26H12.8C9.71971 26 8.17957 26 7.00305 25.4005C5.96816 24.8732 5.12677 24.0318 4.59946 22.9969C4 21.8204 4 20.2803 4 17.2V10.8ZM16 16V14.8C16 14.52 16 14.38 15.9455 14.273C15.8976 14.1789 15.8211 14.1024 15.727 14.0545C15.62 14 15.48 14 15.2 14H12.8C12.52 14 12.38 14 12.273 14.0545C12.1789 14.1024 12.1024 14.1789 12.0545 14.273C12 14.38 12 14.52 12 14.8V16C12 17.1046 12.8954 18 14 18C15.1046 18 16 17.1046 16 16Z" fill="#023F80"/>
</svg>
