<svg width="88" height="34" viewBox="0 0 88 34" fill="none" xmlns="http://www.w3.org/2000/svg">
<path d="M39.5393 16.1092C39.3447 15.6167 38.996 15.1975 38.5435 14.9119C38.0495 14.6112 37.4765 14.4596 36.8956 14.4758C36.5757 14.4756 36.2579 14.5253 35.9539 14.6233C35.6626 14.7146 35.3836 14.8403 35.1231 14.9977C34.9251 15.1164 34.7392 15.2536 34.5682 15.4075L34.601 15.2251C34.6228 15.1316 34.6217 15.0345 34.5977 14.9416C34.5737 14.8487 34.5275 14.7627 34.4629 14.6908C34.3923 14.6175 34.3062 14.5603 34.2107 14.5232C34.1151 14.4862 34.0125 14.4701 33.9099 14.4762C33.6807 14.473 33.4577 14.549 33.2798 14.6908C33.1055 14.822 32.9878 15.0127 32.9499 15.2251L31.5931 22.7793C31.5697 22.8735 31.5699 22.9719 31.5937 23.066C31.6175 23.1601 31.6642 23.2472 31.7298 23.3197C31.8016 23.3913 31.8882 23.447 31.9838 23.483C32.0794 23.519 32.1817 23.5345 32.2839 23.5284C32.5131 23.5316 32.7362 23.4556 32.9141 23.3137C33.0883 23.1825 33.2061 22.9918 33.244 22.7795L33.6595 20.4666C33.7489 20.561 33.846 20.6481 33.9499 20.7268C34.184 20.9017 34.4452 21.0385 34.7234 21.1321C35.0459 21.2419 35.3853 21.2959 35.7266 21.2918C36.3424 21.2937 36.9489 21.1438 37.4903 20.8557C38.0459 20.562 38.5283 20.151 38.9028 19.6523C39.2978 19.1288 39.5603 18.5205 39.6686 17.8777C39.7957 17.288 39.7508 16.675 39.5393 16.1092ZM37.6432 18.9276C37.4262 19.2345 37.1406 19.4886 36.8081 19.6705C36.471 19.8523 36.0917 19.9454 35.7071 19.9408C35.35 19.9535 34.9974 19.8593 34.6962 19.6705C34.4267 19.4915 34.2246 19.2304 34.1211 18.9276C34.0063 18.5892 33.9836 18.2272 34.0552 17.8775C34.1197 17.499 34.2713 17.1399 34.4984 16.8275C34.7184 16.5247 35.0056 16.2748 35.3382 16.0968C35.678 15.9156 36.0594 15.8226 36.4461 15.8267C36.8011 15.8133 37.1516 15.9076 37.45 16.0968C37.7141 16.275 37.9138 16.5308 38.0205 16.8275C38.1373 17.1655 38.16 17.528 38.0864 17.8775C38.0202 18.2556 37.8688 18.6144 37.6432 18.9276Z" fill="#F0F5FB"/>
<path d="M48.1489 14.6844C48.0769 14.6127 47.9902 14.557 47.8945 14.521C47.7987 14.485 47.6963 14.4695 47.594 14.4757C47.3648 14.4725 47.1417 14.5484 46.9637 14.6903C46.7895 14.8214 46.6717 15.0121 46.6338 15.2244L46.6306 15.2424C46.5576 15.1704 46.4802 15.103 46.3988 15.0403C46.1607 14.8639 45.8948 14.727 45.6116 14.635C45.2704 14.524 44.9127 14.47 44.5533 14.4754C43.9399 14.4751 43.3361 14.625 42.7964 14.9114C42.2378 15.2037 41.7526 15.6148 41.3764 16.1148C40.9812 16.6382 40.7187 17.2466 40.6105 17.8894C40.4853 18.4773 40.5305 19.0878 40.7411 19.6517C40.9344 20.1482 41.2856 20.5702 41.7426 20.8551C42.2349 21.1542 42.8054 21.3058 43.3841 21.2911C43.7229 21.2926 44.0596 21.2408 44.3816 21.1376C44.6768 21.0448 44.9601 20.9191 45.2262 20.7631C45.3928 20.6651 45.5511 20.5543 45.6997 20.4316C45.6798 20.5232 45.6819 20.6181 45.7061 20.7087C45.7302 20.7993 45.7757 20.8831 45.8388 20.9533C45.9094 21.0266 45.9954 21.0838 46.091 21.1209C46.1865 21.158 46.2892 21.1741 46.3917 21.1679C46.6209 21.1712 46.844 21.0952 47.0219 20.9533C47.1962 20.8222 47.314 20.6316 47.3518 20.4192L48.2849 15.2244C48.3083 15.1303 48.3082 15.032 48.2845 14.938C48.2608 14.8439 48.2143 14.7569 48.1489 14.6844ZM44.9419 19.6703C44.6021 19.8517 44.2207 19.9447 43.8339 19.9406C43.4813 19.9522 43.1335 19.8579 42.8368 19.6703C42.5683 19.4928 42.366 19.2341 42.2607 18.9335C42.1449 18.5975 42.1217 18.2374 42.1935 17.8897C42.2585 17.5092 42.4104 17.148 42.6377 16.8331C42.8569 16.5276 43.1445 16.2754 43.4785 16.0961C43.8138 15.916 44.1904 15.823 44.5726 15.826C44.9297 15.8133 45.2823 15.9075 45.5836 16.0961C45.8518 16.274 46.054 16.5327 46.1596 16.8331C46.2756 17.1736 46.2979 17.5381 46.2246 17.8897C46.159 18.2659 46.0079 18.6226 45.7825 18.9335C45.5634 19.239 45.2758 19.4911 44.9419 19.6703Z" fill="#F0F5FB"/>
<path d="M55.3819 14.6907C55.3113 14.6174 55.2252 14.5602 55.1297 14.5232C55.0342 14.4861 54.9315 14.47 54.829 14.4761C54.5998 14.4729 54.3767 14.5488 54.1988 14.6907C54.0245 14.8219 53.9068 15.0126 53.8689 15.225L53.3042 18.3688C53.2594 18.6533 53.1496 18.9242 52.983 19.1612C52.8309 19.3733 52.625 19.5427 52.3858 19.6526C52.1213 19.7678 51.8342 19.8242 51.545 19.8177C51.0771 19.8177 50.7319 19.7092 50.5095 19.4923C50.2871 19.2753 50.2237 18.9008 50.3194 18.3686L50.884 15.2248C50.9058 15.1314 50.9047 15.0342 50.8807 14.9413C50.8567 14.8484 50.8106 14.7625 50.7461 14.6905C50.6755 14.6173 50.5894 14.5601 50.4938 14.523C50.3983 14.4859 50.2956 14.4699 50.1931 14.4759C49.9639 14.4727 49.7408 14.5487 49.5628 14.6905C49.3886 14.8218 49.2709 15.0124 49.2329 15.2248L48.5889 18.8107C48.5026 19.2178 48.5314 19.6403 48.6721 20.0325C48.8022 20.3796 49.0474 20.6737 49.3683 20.8675C49.7372 21.0792 50.1598 21.1836 50.5869 21.1685C50.9663 21.1725 51.3446 21.127 51.7118 21.0333C52.0335 20.9502 52.339 20.8154 52.6158 20.6342C52.738 20.5525 52.8533 20.4613 52.9607 20.3615L52.937 20.4936C52.8873 20.8486 52.7535 21.1872 52.5462 21.4822C52.3628 21.722 52.1099 21.9017 51.8206 21.998C51.4718 22.1078 51.1068 22.1597 50.7406 22.1515C50.4673 22.158 50.1952 22.1142 49.9383 22.0226C49.715 21.9367 49.5337 21.8733 49.3945 21.8322C49.2035 21.7668 48.994 21.7778 48.8112 21.8629C48.5965 21.964 48.4246 22.1356 48.3251 22.348C48.2781 22.4241 48.2509 22.5103 48.2457 22.5992C48.2406 22.688 48.2577 22.7768 48.2955 22.8576C48.4066 23.0462 48.5842 23.1882 48.7947 23.2568C49.0449 23.3517 49.3067 23.4136 49.5734 23.4409C49.8801 23.4808 50.189 23.5013 50.4983 23.5023C51.1247 23.5078 51.7476 23.4082 52.3399 23.2076C52.8996 23.0162 53.3982 22.6838 53.786 22.2436C54.2147 21.7268 54.4907 21.1043 54.5838 20.444L55.5213 15.2248C55.5429 15.1313 55.5415 15.0341 55.5173 14.9412C55.4931 14.8483 55.4466 14.7625 55.3819 14.6907Z" fill="#F0F5FB"/>
<path d="M65.9481 14.6906C65.8841 14.6201 65.8051 14.5643 65.7167 14.5272C65.6282 14.4901 65.5325 14.4726 65.4364 14.476C65.0145 14.476 64.7205 14.6316 64.5546 14.9427L62.4458 18.4738L61.8487 15.9128C61.8212 15.7833 61.7535 15.6653 61.6549 15.575C61.5267 15.4866 61.371 15.4454 61.215 15.4585C61.0468 15.4544 60.8805 15.4944 60.7331 15.5742C60.5858 15.654 60.4628 15.7709 60.3766 15.9128L58.8192 18.542L57.9784 14.9429C57.9712 14.8706 57.9472 14.8008 57.9082 14.7391C57.8691 14.6773 57.8162 14.6252 57.7534 14.5868C57.6173 14.5101 57.4623 14.4718 57.3055 14.4761C57.0672 14.4694 56.8354 14.553 56.6583 14.7096C56.4951 14.8454 56.384 15.0318 56.3431 15.2379C56.3254 15.3314 56.3269 15.4275 56.3475 15.5204L57.5439 20.58C57.5597 20.6592 57.5934 20.734 57.6424 20.7988C57.6915 20.8637 57.7547 20.9169 57.8274 20.9546C57.9785 21.0399 58.1545 21.0723 58.3268 21.0467C58.4862 21.0362 58.6407 20.9883 58.7773 20.9071C58.914 20.8259 59.0288 20.7138 59.1122 20.58L60.7632 17.5587L61.3962 20.58C61.433 20.7134 61.5134 20.8313 61.625 20.9157C61.7366 21 61.8732 21.046 62.014 21.0467C62.2015 21.0675 62.391 21.0345 62.5598 20.9517C62.7285 20.8688 62.8691 20.7397 62.9646 20.58L65.9785 15.5204C66.004 15.4795 66.0256 15.4363 66.0429 15.3914C66.0614 15.3416 66.0752 15.2902 66.0841 15.2379C66.1074 15.1426 66.1072 15.0433 66.0835 14.9481C66.0598 14.8529 66.0134 14.7647 65.9481 14.6906Z" fill="#F0F5FB"/>
<path d="M73.6125 14.6844C73.5405 14.6128 73.4538 14.5571 73.3581 14.5211C73.2624 14.4851 73.1599 14.4696 73.0576 14.4757C72.8284 14.4725 72.6054 14.5485 72.4275 14.6904C72.2532 14.8214 72.1354 15.0121 72.0976 15.2244L72.0943 15.2424C72.0213 15.1704 71.9439 15.1029 71.8624 15.0404C71.6243 14.8639 71.3584 14.727 71.0753 14.635C70.7341 14.524 70.3764 14.4701 70.0171 14.4754C69.4037 14.4751 68.7999 14.625 68.2603 14.9114C67.7015 15.2037 67.2164 15.6149 66.8402 16.1148C66.445 16.6382 66.1824 17.2466 66.0743 17.8895C65.9491 18.4773 65.9945 19.0879 66.2053 19.6517C66.3985 20.1482 66.7496 20.5702 67.2066 20.8551C67.6989 21.1543 68.2694 21.3058 68.8481 21.2912C69.1869 21.2927 69.5237 21.2408 69.8457 21.1376C70.1409 21.0448 70.4243 20.9191 70.6904 20.7632C70.8569 20.6652 71.0152 20.5544 71.1637 20.4316C71.1438 20.5232 71.146 20.6181 71.1701 20.7087C71.1943 20.7993 71.2397 20.8831 71.3028 20.9534C71.3734 21.0267 71.4595 21.0839 71.555 21.121C71.6506 21.1581 71.7533 21.1741 71.8558 21.168C72.085 21.1712 72.3081 21.0952 72.4861 20.9534C72.6604 20.8223 72.7781 20.6316 72.8158 20.4193L73.749 15.2244C73.7724 15.1303 73.7721 15.032 73.7484 14.938C73.7246 14.8439 73.678 14.7569 73.6125 14.6844ZM70.4055 19.6704C70.0657 19.8517 69.6843 19.9447 69.2976 19.9406C68.9449 19.9522 68.5971 19.858 68.3004 19.6704C68.0319 19.4928 67.8296 19.2341 67.7242 18.9335C67.6084 18.5975 67.5852 18.2374 67.6569 17.8898C67.7221 17.5092 67.8739 17.148 68.1012 16.8332C68.3203 16.5276 68.608 16.2755 68.9419 16.0962C69.2773 15.9161 69.6539 15.8231 70.0361 15.8261C70.3932 15.8133 70.7457 15.9076 71.047 16.0962C71.3154 16.274 71.5176 16.5327 71.6233 16.8332C71.7391 17.1737 71.7615 17.5381 71.688 17.8898C71.6226 18.266 71.4715 18.6228 71.2459 18.9335C71.0269 19.2391 70.7394 19.4911 70.4055 19.6704Z" fill="#F0F5FB"/>
<path d="M80.8454 14.6906C80.7748 14.6174 80.6887 14.5602 80.5931 14.5231C80.4976 14.486 80.3949 14.47 80.2924 14.476C80.0632 14.4728 79.8401 14.5488 79.6621 14.6906C79.4879 14.8218 79.3702 15.0125 79.3324 15.2249L78.7676 18.3687C78.7228 18.6532 78.6131 18.9242 78.4466 19.1612C78.2944 19.3733 78.0885 19.5426 77.8491 19.6525C77.5847 19.7678 77.2976 19.8241 77.0084 19.8176C76.5406 19.8176 76.1955 19.7091 75.9731 19.4922C75.7507 19.2753 75.6872 18.9007 75.7827 18.3685L76.3474 15.2247C76.3692 15.1313 76.3681 15.0342 76.3441 14.9413C76.3202 14.8484 76.274 14.7624 76.2095 14.6905C76.1389 14.6172 76.0528 14.56 75.9572 14.523C75.8617 14.4859 75.759 14.4698 75.6564 14.4758C75.4273 14.4726 75.2043 14.5486 75.0264 14.6905C74.852 14.8216 74.7342 15.0123 74.6965 15.2247L74.0523 18.8107C73.9661 19.2177 73.9949 19.6402 74.1355 20.0324C74.2656 20.3795 74.5108 20.6736 74.8317 20.8675C75.2006 21.0791 75.6232 21.1835 76.0503 21.1684C76.4297 21.1725 76.808 21.127 77.1752 21.0332C77.4969 20.9501 77.8024 20.8153 78.0793 20.6342C78.2015 20.5524 78.3167 20.4612 78.424 20.3614L78.4005 20.4935C78.3509 20.8486 78.217 21.1872 78.0096 21.4821C77.8262 21.7219 77.5733 21.9016 77.2841 21.9979C76.9353 22.1078 76.5702 22.1597 76.2039 22.1514C75.9307 22.1579 75.6586 22.1142 75.4017 22.0225C75.1784 21.9366 74.9971 21.8732 74.8579 21.8321C74.667 21.7667 74.4575 21.7777 74.2747 21.8628C74.06 21.964 73.8881 22.1355 73.7885 22.3479C73.7415 22.424 73.7143 22.5103 73.7091 22.5991C73.7039 22.688 73.721 22.7767 73.7589 22.8576C73.8701 23.0461 74.0477 23.1881 74.2583 23.2568C74.5083 23.3517 74.7701 23.4136 75.0368 23.4409C75.3434 23.4807 75.6523 23.5013 75.9616 23.5023C76.5881 23.5078 77.2109 23.4081 77.8032 23.2076C78.363 23.0162 78.8617 22.6838 79.2493 22.2436C79.6782 21.7268 79.9542 21.1043 80.0472 20.444L80.9848 15.2247C81.0064 15.1312 81.0051 15.034 80.9808 14.9412C80.9566 14.8483 80.9102 14.7624 80.8454 14.6906Z" fill="#F0F5FB"/>
<path d="M12.1227 12.2172L8.0005 8.16986C7.89603 8.06485 7.75396 8.00402 7.6045 8.0003C7.52593 7.9978 7.44765 8.01085 7.37433 8.03869C7.30101 8.06652 7.23414 8.10858 7.17773 8.16234C7.12132 8.21609 7.07651 8.28045 7.04597 8.35158C7.01544 8.42271 6.9998 8.49915 7 8.57633V16.6721C6.99983 16.7493 7.01548 16.8257 7.04602 16.8968C7.07657 16.9679 7.12138 17.0322 7.17779 17.086C7.2342 17.1397 7.30106 17.1817 7.37437 17.2096C7.44768 17.2374 7.52595 17.2505 7.6045 17.248C7.75392 17.2442 7.89597 17.1835 8.0005 17.0786L12.1227 13.0312C12.1772 12.9777 12.2203 12.9143 12.2498 12.8445C12.2793 12.7746 12.2944 12.6998 12.2944 12.6242C12.2944 12.5486 12.2793 12.4738 12.2498 12.404C12.2203 12.3341 12.1772 12.2707 12.1227 12.2172Z" fill="#1AAAAD"/>
<path d="M26.0086 20.6837L21.201 15.9634L18.084 19.0243L25.0187 25.8331C25.0999 25.9128 25.2033 25.9671 25.316 25.9891C25.4286 26.0111 25.5453 25.9998 25.6514 25.9566C25.7574 25.9135 25.8481 25.8404 25.9119 25.7467C25.9756 25.6529 26.0097 25.5427 26.0096 25.43L26.0086 20.6837Z" fill="#FECF2F"/>
<path d="M16.8096 11.6518C16.7553 11.5984 16.6907 11.5561 16.6197 11.5272C16.5486 11.4983 16.4725 11.4834 16.3956 11.4834C16.3187 11.4834 16.2425 11.4983 16.1715 11.5272C16.1004 11.5561 16.0359 11.5984 15.9815 11.6518L7.17205 20.2967C7.11766 20.3501 7.07451 20.4135 7.04508 20.4833C7.01564 20.553 7.00049 20.6278 7.00049 20.7033C7.00049 20.7789 7.01564 20.8537 7.04508 20.9234C7.07451 20.9932 7.11766 21.0566 7.17205 21.11L9.46311 23.3598C9.57297 23.4676 9.72194 23.5282 9.87727 23.5282C10.0326 23.5282 10.1816 23.4676 10.2914 23.3598L15.9815 17.7728C16.0913 17.665 16.2403 17.6045 16.3956 17.6045C16.551 17.6045 16.6999 17.665 16.8098 17.7728L18.0841 19.024L21.2011 15.9634L16.8096 11.6518Z" fill="#DD2457"/>
<path d="M25.0088 12.224L21.2012 15.9633L26.0088 20.6836L26.01 12.6308C26.0101 12.5168 25.9758 12.4054 25.9114 12.3106C25.8469 12.2158 25.7553 12.142 25.648 12.0984C25.5408 12.0548 25.4228 12.0435 25.309 12.0659C25.1952 12.0882 25.0907 12.1433 25.0088 12.224Z" fill="white"/>
</svg>
