<svg width="32" height="32" viewBox="0 0 32 32" fill="none" xmlns="http://www.w3.org/2000/svg">
<path d="M10.4674 9.71237L5.26309 4.23003C5.13119 4.08787 4.95187 4.00549 4.76324 4.00041C4.66405 3.99703 4.56523 4.01472 4.47266 4.05243C4.3801 4.09013 4.29569 4.14709 4.22447 4.21989C4.15325 4.29269 4.09667 4.37986 4.0581 4.47619C4.01954 4.57251 3.99978 4.67603 4 4.78058V15.7464C3.99978 15.851 4.01953 15.9545 4.05809 16.0508C4.09664 16.1471 4.15321 16.2343 4.22442 16.3071C4.29562 16.3799 4.38001 16.4368 4.47255 16.4745C4.5651 16.5123 4.6639 16.53 4.76308 16.5266C4.95177 16.5216 5.13115 16.4392 5.26309 16.297L10.4674 10.8146C10.6062 10.6685 10.6841 10.4702 10.6841 10.2635C10.6841 10.0568 10.6062 9.85855 10.4674 9.71237Z" fill="#1AAAAD"/>
<path d="M27.9987 21.1806L21.9279 14.7869L17.9922 18.9328L26.7472 28.1553C26.8498 28.2632 26.9804 28.3367 27.1225 28.3664C27.2646 28.3961 27.4119 28.3808 27.5458 28.3224C27.6797 28.264 27.7941 28.165 27.8747 28.0381C27.9552 27.9112 27.9982 27.762 27.9982 27.6093L27.9987 21.1806Z" fill="#FECF2F"/>
<path d="M16.3839 8.94678C16.2453 8.80077 16.0573 8.71875 15.8612 8.71875C15.6652 8.71875 15.4772 8.80077 15.3385 8.94678L4.21663 20.6566C4.14795 20.7289 4.09347 20.8148 4.0563 20.9093C4.01913 21.0038 4 21.1051 4 21.2074C4 21.3097 4.01913 21.411 4.0563 21.5055C4.09347 21.6 4.14795 21.6858 4.21663 21.7582L7.10864 24.8047C7.17729 24.877 7.2588 24.9343 7.3485 24.9735C7.4382 25.0126 7.53434 25.0328 7.63143 25.0328C7.72852 25.0328 7.82466 25.0126 7.91436 24.9735C8.00407 24.9343 8.08557 24.877 8.15422 24.8047L15.3379 17.2373C15.4065 17.1649 15.488 17.1076 15.5777 17.0684C15.6674 17.0293 15.7636 17.0092 15.8607 17.0092C15.9578 17.0092 16.0539 17.0293 16.1436 17.0684C16.2333 17.1076 16.3148 17.1649 16.3835 17.2373L17.9928 18.9326L21.9285 14.7866L16.3839 8.94678Z" fill="#DD2457"/>
<path d="M26.7368 9.72167L21.9277 14.7867L27.9986 21.1805L28.0002 10.2727C28.0002 10.1185 27.9569 9.96769 27.8756 9.83943C27.7943 9.71117 27.6786 9.6112 27.5434 9.5522C27.4081 9.4932 27.2592 9.47781 27.1156 9.50797C26.9721 9.53814 26.8402 9.61251 26.7368 9.72167Z" fill="#023F80"/>
</svg>
