<svg width="64" height="64" viewBox="0 0 64 64" fill="none" xmlns="http://www.w3.org/2000/svg">
<path d="M24.6232 23.8704L17.6841 16.5606C17.5083 16.3711 17.2692 16.2612 17.0176 16.2544C16.8854 16.2499 16.7536 16.2735 16.6302 16.3238C16.5068 16.3741 16.3943 16.45 16.2993 16.5471C16.2043 16.6442 16.1289 16.7604 16.0775 16.8888C16.0261 17.0173 15.9997 17.1553 16 17.2947V31.9157C15.9997 32.0551 16.026 32.1931 16.0775 32.3215C16.1289 32.45 16.2043 32.5662 16.2992 32.6632C16.3942 32.7603 16.5067 32.8363 16.6301 32.8865C16.7535 32.9368 16.8852 32.9604 17.0174 32.956C17.269 32.9492 17.5082 32.8394 17.6841 32.6498L24.6232 25.3401C24.8082 25.1452 24.9121 24.8808 24.9121 24.6052C24.9121 24.3296 24.8082 24.0653 24.6232 23.8704Z" fill="#1AAAAD"/>
<path d="M47.9977 39.1612L39.9033 30.6362L34.6558 36.1641L46.3291 48.4608C46.4658 48.6046 46.6399 48.7026 46.8294 48.7422C47.019 48.7819 47.2154 48.7614 47.3939 48.6835C47.5724 48.6056 47.725 48.4737 47.8323 48.3045C47.9397 48.1353 47.997 47.9363 47.9971 47.7328L47.9977 39.1612Z" fill="#FECF2F"/>
<path d="M32.5123 22.8495C32.3275 22.6548 32.0768 22.5454 31.8154 22.5454C31.554 22.5454 31.3033 22.6548 31.1184 22.8495L16.2893 38.4624C16.1978 38.5588 16.1251 38.6733 16.0756 38.7993C16.026 38.9254 16.0005 39.0604 16.0005 39.1968C16.0005 39.3332 16.026 39.4683 16.0756 39.5943C16.1251 39.7203 16.1978 39.8348 16.2893 39.9312L20.1453 43.9932C20.2369 44.0896 20.3455 44.1661 20.4651 44.2183C20.5847 44.2705 20.7129 44.2973 20.8424 44.2973C20.9718 44.2973 21.1 44.2705 21.2196 44.2183C21.3392 44.1661 21.4479 44.0896 21.5394 43.9932L31.1176 33.9034C31.2091 33.807 31.3178 33.7305 31.4374 33.6783C31.557 33.6261 31.6852 33.5992 31.8146 33.5992C31.9441 33.5992 32.0723 33.6261 32.1919 33.6783C32.3115 33.7305 32.4202 33.807 32.5117 33.9034L34.6575 36.1638L39.905 30.6359L32.5123 22.8495Z" fill="#DD2457"/>
<path d="M46.3153 23.8826L39.9033 30.636L47.9977 39.161L47.9999 24.6174C48 24.4117 47.9422 24.2107 47.8337 24.0396C47.7253 23.8686 47.5712 23.7353 47.3908 23.6567C47.2104 23.578 47.012 23.5575 46.8205 23.5977C46.6291 23.6379 46.4532 23.7371 46.3153 23.8826Z" fill="#023F80"/>
</svg>
