<svg width="24" height="24" viewBox="0 0 24 24" fill="none" xmlns="http://www.w3.org/2000/svg">
<path d="M8.31162 7.80825L4.84206 4.15335C4.75413 4.05858 4.63458 4.00366 4.50882 4.00027C4.4427 3.99802 4.37682 4.00981 4.31511 4.03495C4.2534 4.06009 4.19713 4.09806 4.14965 4.14659C4.10216 4.19513 4.06445 4.25324 4.03874 4.31746C4.01303 4.38168 3.99985 4.45069 4 4.52038V11.831C3.99985 11.9006 4.01302 11.9696 4.03873 12.0339C4.06443 12.0981 4.10214 12.1562 4.14961 12.2047C4.19708 12.2532 4.25334 12.2912 4.31503 12.3164C4.37673 12.3415 4.4426 12.3533 4.50872 12.3511C4.63451 12.3477 4.7541 12.2928 4.84206 12.198L8.31162 8.5431C8.40411 8.44564 8.45608 8.31348 8.45608 8.17567C8.45608 8.03786 8.40411 7.9057 8.31162 7.80825Z" fill="white"/>
<path d="M19.9989 15.4537L15.9517 11.1912L13.3279 13.9551L19.1646 20.1035C19.233 20.1754 19.32 20.2244 19.4148 20.2442C19.5096 20.264 19.6078 20.2538 19.697 20.2148C19.7863 20.1759 19.8626 20.1099 19.9162 20.0253C19.9699 19.9407 19.9986 19.8412 19.9986 19.7395L19.9989 15.4537Z" fill="white"/>
<path d="M12.2562 7.29778C12.1638 7.20044 12.0384 7.14576 11.9077 7.14576C11.777 7.14576 11.6517 7.20044 11.5593 7.29778L4.14466 15.1043C4.09888 15.1525 4.06256 15.2098 4.03778 15.2728C4.013 15.3358 4.00024 15.4033 4.00024 15.4715C4.00024 15.5397 4.013 15.6072 4.03778 15.6702C4.06256 15.7332 4.09888 15.7905 4.14466 15.8387L6.07267 17.8697C6.11844 17.9179 6.17278 17.9562 6.23258 17.9823C6.29238 18.0083 6.35647 18.0218 6.4212 18.0218C6.48593 18.0218 6.55002 18.0083 6.60982 17.9823C6.66962 17.9562 6.72396 17.9179 6.76973 17.8697L11.5588 12.8248C11.6046 12.7766 11.6589 12.7383 11.7187 12.7122C11.7785 12.6861 11.8426 12.6727 11.9074 12.6727C11.9721 12.6727 12.0362 12.6861 12.096 12.7122C12.1558 12.7383 12.2101 12.7766 12.2559 12.8248L13.3288 13.955L15.9526 11.191L12.2562 7.29778Z" fill="white"/>
<path d="M19.1577 7.81435L15.9517 11.1912L19.9989 15.4537L20 8.18172C20.0001 8.07889 19.9712 7.97836 19.9169 7.89285C19.8627 7.80735 19.7857 7.74071 19.6955 7.70137C19.6053 7.66203 19.506 7.65177 19.4103 7.67188C19.3146 7.692 19.2267 7.74158 19.1577 7.81435Z" fill="white"/>
</svg>
