<?xml version="1.0" encoding="UTF-8" standalone="no"?>
<!-- Created with Inkscape (http://www.inkscape.org/) -->

<svg
   width="180"
   height="37.675999"
   viewBox="0 0 47.624999 9.9684416"
   version="1.1"
   id="svg470"
   sodipodi:docname="rbr2.svg"
   inkscape:version="1.1.2 (0a00cf5339, 2022-02-04)"
   xmlns:inkscape="http://www.inkscape.org/namespaces/inkscape"
   xmlns:sodipodi="http://sodipodi.sourceforge.net/DTD/sodipodi-0.dtd"
   xmlns="http://www.w3.org/2000/svg"
   xmlns:svg="http://www.w3.org/2000/svg">
  <sodipodi:namedview
     id="namedview472"
     pagecolor="#ffffff"
     bordercolor="#666666"
     borderopacity="1.0"
     inkscape:pageshadow="2"
     inkscape:pageopacity="0.0"
     inkscape:pagecheckerboard="0"
     inkscape:document-units="mm"
     showgrid="false"
     inkscape:zoom="0.75187991"
     inkscape:cx="298.58492"
     inkscape:cy="287.94492"
     inkscape:window-width="1920"
     inkscape:window-height="1016"
     inkscape:window-x="0"
     inkscape:window-y="27"
     inkscape:window-maximized="1"
     inkscape:current-layer="layer1"
     units="px" />
  <defs
     id="defs467" />
  <g
     inkscape:label="Capa 1"
     inkscape:groupmode="layer"
     id="layer1">
    <path
       style="fill:#cf0303;stroke:none;stroke-width:0.0667911"
       d="M 4.882707,0.34992483 C 3.075423,0.56646383 1.444837,1.4066968 0.62945697,3.1265698 -0.93258303,6.4213798 1.676128,10.709576 5.483828,10.254194 7.546341,10.007468 9.370409,8.6771868 9.898995,6.5997128 10.669832,3.5701968 8.234824,-0.05162417 4.882707,0.34992483 M 26.857015,1.3232068 V 3.2601508 C 25.914724,3.2601508 24.819751,3.1065998 23.918201,3.4304038 22.223309,4.0390728 22.124926,7.4132298 23.195856,8.6024458 23.917868,9.4041428 25.012442,9.2713618 25.988731,9.2713618 26.582304,9.2713618 27.543428,9.4638528 27.958135,8.9303938 28.330831,8.4510308 28.126048,7.3780988 28.126048,6.8000858 V 1.3232068 H 26.857015 M 29.194709,1.3232068 V 6.7332958 C 29.194709,7.3503788 28.997074,8.4022068 29.376913,8.9301918 29.768444,9.4744068 30.818468,9.2713618 31.398818,9.2713618 32.327217,9.2713618 33.406362,9.3905168 34.117153,8.6579508 35.324872,7.4132298 35.110006,4.0167628 33.335763,3.4004798 32.481972,3.1039258 31.422129,3.2601508 30.530531,3.2601508 V 1.3232068 H 29.194709 M 6.285323,4.5291858 H 6.218532 C 5.795009,3.9377488 5.44215,2.5587118 4.61561,2.4237928 4.267159,2.3668868 4.012083,2.7047828 3.613674,2.6590298 3.94349,1.8744338 4.656551,1.7532748 5.282452,2.3320878 5.918706,2.9204508 6.131236,3.7113248 6.285323,4.5291858 M 6.018158,4.7963498 C 5.458247,4.7963498 4.905617,4.8622718 4.348377,4.8631408 3.914502,4.8638098 3.392035,4.9407528 3.013582,4.6826048 2.404298,4.2670308 2.398528,3.3841848 3.079605,3.0389388 3.488321,2.8318198 4.01402,2.9284658 4.415169,3.1051958 4.776376,3.2642928 5.074398,3.5159628 5.349243,3.7947488 5.635979,4.0854908 5.893192,4.4041528 6.018158,4.7963498 M 21.714093,9.2713618 V 8.2694938 C 20.127068,8.2694938 17.608571,8.8762248 17.439456,6.7332958 H 20.311477 C 20.717769,6.7332958 21.235601,6.7940078 21.566217,6.5042028 22.372453,5.7975518 21.762918,4.1483408 21.046181,3.6367198 20.190452,3.0259158 18.682707,3.0815528 17.70662,3.3202648 16.079387,3.7181388 16.097152,5.4462298 16.103698,6.8000858 16.106971,7.4847648 16.219581,8.3673418 16.777755,8.8352818 17.304604,9.2769058 17.993889,9.2713618 18.641698,9.2713618 H 21.714093 M 41.083547,9.2713618 V 8.2694938 C 40.079274,8.2694938 37.889321,8.6805268 37.157892,7.8650718 36.863206,7.5366608 36.904417,7.1342428 36.808906,6.7332958 H 39.680931 C 40.094303,6.7332958 40.600913,6.8032918 40.93567,6.5049368 41.66944,5.8510508 41.219066,4.2359048 40.543205,3.7135978 39.662896,3.0332608 38.105993,3.0683958 37.076071,3.3202648 35.395003,3.7312968 35.309644,5.8565938 35.511753,7.2676258 35.591703,7.8252648 35.707317,8.4330658 36.15335,8.8251288 36.671918,9.2809798 37.362739,9.2713618 38.011148,9.2713618 H 41.083547 M 47.562296,9.2713618 V 8.2694938 C 46.055352,8.2694938 43.354714,8.8750228 43.354446,6.7332958 H 46.159677 C 46.577658,6.7332958 47.077926,6.8002878 47.419829,6.5049368 48.152662,5.8718908 47.694341,4.2172048 47.025294,3.7135978 46.146722,3.0522318 44.648058,3.0685958 43.621613,3.3055048 41.903141,3.7021088 41.793268,5.7534028 41.990303,7.2008338 42.075731,7.8280688 42.182662,8.4172358 42.687538,8.8563198 43.170103,9.2760378 43.820518,9.2713618 44.423108,9.2713618 H 47.562296 M 12.563696,9.2713618 H 13.832731 C 13.832731,8.1327058 13.721121,6.9270558 13.871201,5.7982178 13.934186,5.3242688 13.96304,4.8815078 14.369931,4.5571708 14.770011,4.2383108 15.353767,4.2620198 15.836466,4.2620198 V 3.2601508 C 14.955023,3.2601508 13.897918,3.1466058 13.167689,3.7537378 12.592551,4.2319638 12.563696,4.9787568 12.563696,5.6646358 V 9.2713618 M 5.417037,4.3956018 C 5.046747,3.8742978 3.889655,2.9422928 3.222819,3.4948568 2.535456,4.0643838 3.585916,4.5406058 4.081213,4.5152258 4.52691,4.4923828 4.971139,4.4147728 5.417037,4.3956018 M 17.439456,5.6646358 C 17.601157,4.3916618 18.87353,3.7139988 20.043311,4.4620598 20.313548,4.6348488 20.759646,5.3011568 20.395501,5.5959738 20.098681,5.8362888 19.147575,5.6646358 18.77528,5.6646358 H 17.439456 M 36.808906,5.6646358 C 37.038001,4.4352098 37.964394,3.8437078 39.213392,4.3610058 39.584885,4.5148928 40.145732,5.1239608 39.802558,5.5575708 39.653947,5.7453868 39.222743,5.6646358 39.013017,5.6646358 H 36.808906 M 43.354446,5.6646358 C 43.355315,4.3352248 44.868537,3.6994388 45.956433,4.5057418 46.19855,4.6852088 46.594825,5.3252028 46.252987,5.5959738 45.958703,5.8290768 45.055421,5.6646358 44.690271,5.6646358 H 43.354446 M 25.187236,4.2813228 C 25.497413,4.2409158 26.578697,4.1043248 26.788355,4.3690858 27.058525,4.7101908 26.857015,5.8375588 26.857015,6.2657558 26.857015,6.7493918 27.108551,8.1546798 26.455266,8.2596088 25.830234,8.3599958 24.735327,8.3787628 24.289428,7.8561878 23.452935,6.8758268 23.790899,4.4633298 25.187236,4.2813228 M 30.530531,4.2620198 C 31.214942,4.2620198 32.190359,4.0913028 32.801166,4.4629278 33.634254,4.9698068 33.685615,7.1759888 33.05357,7.8617318 32.608874,8.3442318 31.926803,8.2696948 31.332026,8.2694938 31.106539,8.2694268 30.757822,8.3227268 30.60928,8.1069238 30.428808,7.8447018 30.530531,7.3044268 30.530531,7.0004598 V 4.2620198 M 7.354249,4.8923948 C 8.008068,4.7191388 8.727744,5.3837788 8.959977,5.9318008 9.119341,6.3079028 9.096832,6.7942098 8.622748,6.9123638 7.978613,7.0729958 7.25974,6.4792208 7.013681,5.9318008 6.837553,5.5400028 6.860595,5.0231728 7.354249,4.8923948 M 6.68607,4.9967228 C 6.68607,5.7704328 6.982289,6.0675208 7.287191,6.7332958 6.825263,6.6967608 6.132504,6.6202178 5.785056,6.2791148 4.92305,5.4328038 5.946291,4.9967228 6.68607,4.9967228 M 1.275982,7.8019548 C 1.862588,6.7761098 2.534616,5.3919958 3.814048,5.1613638 5.4153,4.8726268 6.095636,6.5847508 4.615542,7.3795678 4.112805,7.6495368 3.507336,7.7564048 2.945763,7.6226868 2.721992,7.5694558 2.506897,7.3843088 2.277849,7.3782988 1.955575,7.3699498 1.569542,7.6797258 1.275982,7.8019548 M 8.689807,6.2657558 C 8.65768,5.9698068 8.157279,4.8771688 7.729282,5.3052318 7.289396,5.7451198 8.401936,6.2144608 8.689807,6.2657558 M 4.214795,5.4642618 C 4.223545,5.6676408 4.251931,5.8648088 4.287197,6.0653828 4.310908,6.1999678 4.336489,6.3353528 4.378032,6.4657948 4.652345,7.3284058 5.560237,5.9969888 4.746186,5.5615768 4.579541,5.4724098 4.398471,5.4686028 4.214795,5.4642618 M 3.747256,7.3344168 3.34651,5.7314278 C 2.863849,5.9184418 2.171858,6.6773898 2.760643,7.1538808 3.031275,7.3728878 3.422231,7.3343488 3.747256,7.3344168 Z"
       id="path433" />
  </g>
</svg>
