<svg width="178" height="38" version="1.1" viewBox="0 0 47.096 10.054" xmlns="http://www.w3.org/2000/svg">
 <path d="m4.4217.47231c-1.7872.21413-3.3997 1.045-4.206 2.7458-1.5447 3.2582 1.035 7.4988 4.8004 7.0484 2.0396-.24398 3.8434-1.5595 4.3661-3.6139.76227-2.9959-1.6457-6.5774-4.9606-6.1803m21.73.96247v1.9154c-.93182 0-2.0146-.15185-2.9062.16836-1.6761.60191-1.7734 3.9386-.71432 5.1146.71399.79279 1.7964.66148 2.7618.66148.58698 0 1.5374.19035 1.9475-.33718.36856-.47404.16605-1.535.16605-2.1066v-5.416h-1.2549m2.3117 0v5.35c0 .61023-.19544 1.6504.18018 2.1725.38718.53817 1.4255.33738 1.9994.33738.91808 0 1.9852.11783 2.6881-.6066 1.1943-1.2309.98182-4.5896-.77271-5.1991-.8443-.29326-1.8924-.13877-2.7741-.13877v-1.9154h-1.321m-22.655 3.1704h-.06605c-.41882-.58487-.76775-1.9486-1.5851-2.082-.34458-.056273-.59682.27787-.9908.23262.32615-.77588 1.0313-.89569 1.6502-.32331.62918.58182.83935 1.3639.99173 2.1727m-.2642.2642c-.55369 0-1.1002.06519-1.6512.066049-.42906.000662-.94572.07675-1.32-.17853-.60251-.41096-.60822-1.284.065289-1.6254.40418-.20482.92403-.10924 1.3207.065522.35719.15733.6519.4062.9237.68189.28355.28751.5379.60263.66148.99047m15.522 4.4253v-.99074c-1.5694 0-4.0599.59999-4.2271-1.5191h2.8401c.40178 0 .91386.060037 1.2408-.22655.79728-.6988.19451-2.3297-.51426-2.8356-.84622-.60402-2.3372-.549-3.3025-.31294-1.6092.39345-1.5916 2.1023-1.5851 3.4412.003237.67707.1146 1.5498.66657 2.0126.521.43672 1.2026.43124 1.8432.43124h3.0383m19.154 0v-.99074c-.99311 0-3.1587.40646-3.882-.39993-.29141-.32476-.25066-.72271-.34511-1.1192h2.8401c.40878 0 .90976.069219 1.2408-.22582.72562-.64662.28025-2.2438-.3881-2.7603-.87053-.67278-2.4101-.63803-3.4286-.38896-1.6624.40646-1.7468 2.5081-1.5469 3.9035.079062.55144.19339 1.1525.63447 1.5402.51281.45079 1.196.44128 1.8372.44128h3.0383m6.4068 0v-.99074c-1.4902 0-4.1608.5988-4.1611-1.5191h2.7741c.41334 0 .90804.066248 1.2462-.22582.72469-.62601.27146-2.2623-.39015-2.7603-.86881-.65402-2.3508-.63784-3.3659-.40356-1.6994.3922-1.808 2.4207-1.6132 3.852.084479.62027.19022 1.2029.68949 1.6371.4772.41505 1.1204.41043 1.7163.41043h3.1043m-34.61 0h1.2549c0-1.126-.11037-2.3183.038044-3.4346.062285-.46868.090818-.90652.49319-1.2273.39563-.31532.9729-.29187 1.4502-.29187v-.99074c-.87165 0-1.917-.11228-2.6391.4881-.56875.47291-.59728 1.2114-.59728 1.8897v3.5667m-7.0673-4.8216c-.36618-.51551-1.5104-1.4372-2.1698-.89074-.67972.5632.35906 1.0341.84886 1.009.44075-.022589.88004-.099336 1.321-.11829m11.889 1.2549c.1599-1.2588 1.4181-1.929 2.5749-1.1892.26723.17087.70838.82978.34828 1.1213-.29352.23764-1.2341.067898-1.6022.067898h-1.321m19.154 0c.22655-1.2158 1.1426-1.8007 2.3778-1.2891.36736.15218.92198.75448.58262 1.1833-.14696.18573-.57337.10588-.78077.10588h-2.1796m6.4728 0c.000859-1.3146 1.4973-1.9434 2.5731-1.146.23943.17747.6313.81036.29326 1.0781-.29102.23051-1.1843.067898-1.5454.067898h-1.321m-17.965-1.3679c.30673-.039959 1.376-.17503 1.5833.086788.26717.33731.067897 1.4522.067897 1.8756 0 .47826.24874 1.8679-.39729 1.9717-.61809.099272-1.7008.11783-2.1418-.39894-.8272-.96947-.49299-3.3552.88783-3.5351m5.2839-.01909c.67681 0 1.6414-.16882 2.2454.19868.82383.50124.87462 2.6829.2496 3.361-.43976.47714-1.1142.40343-1.7024.40323-.22298-6.7e-5-.56782.052641-.71472-.16076-.17847-.25931-.077873-.79358-.077873-1.0942v-2.708m-22.919.62337c.64656-.17133 1.3582.48592 1.5879 1.0279.15759.37192.13533.85283-.33348.96967-.63698.15885-1.3479-.42833-1.5912-.96967-.17417-.38744-.15138-.89853.33678-1.0279m-.66076.10317c0 .76511.29293 1.0589.59444 1.7173-.4568-.03613-1.1419-.11182-1.4854-.44914-.85243-.83691.15944-1.2681.891-1.2681m-5.35 2.7741c.58009-1.0144 1.2446-2.3832 2.5099-2.6113 1.5835-.28553 2.2562 1.4076.79259 2.1936-.49715.26697-1.0959.37265-1.6512.24042-.22128-.05264-.43399-.23573-.66049-.24167-.31869-.008256-.70044.29808-.99074.41895m7.3314-1.5191c-.03177-.29266-.52661-1.3732-.94985-.94985-.435.435.66518.89913.94985.94985m-4.4253-.79259c.008652.20112.036723.3961.071597.59444.023448.13309.048744.26697.089827.39596.27126.85303 1.1691-.4636.36406-.89417-.16479-.088176-.34385-.09194-.52549-.096234m-.46234 1.8494-.3963-1.5852c-.4773.18494-1.1616.93545-.57936 1.4066.26762.21658.65424.17846.97565.17853z" style="fill:#cf0303"/>
</svg>
