
<svg version="1.0" xmlns="http://www.w3.org/2000/svg"
 width="800.000000pt" height="400.000000pt" viewBox="0 0 800.000000 400.000000"
 preserveAspectRatio="xMidYMid meet">

<g transform="translate(0.000000,400.000000) scale(0.100000,-0.100000)"
fill="#000000" stroke="none">
<path d="M1090 2730 c-244 -30 -468 -191 -575 -414 -53 -111 -69 -184 -69
-321 -1 -141 15 -211 73 -330 268 -544 1041 -551 1321 -13 58 110 80 207 80
342 0 125 -16 206 -59 300 -136 300 -446 476 -771 436z m55 -249 c76 -34 151
-137 188 -256 19 -64 30 -122 19 -110 -34 40 -65 91 -78 127 -51 147 -176 234
-233 163 -15 -20 -25 -24 -45 -19 -33 8 -33 24 1 64 44 53 83 61 148 31z m-55
-166 c64 -32 158 -119 200 -185 16 -26 30 -49 30 -52 0 -3 -83 -9 -184 -13
-197 -8 -239 -2 -284 39 -77 69 -65 177 25 226 53 28 139 22 213 -15z m539
-281 c91 -46 166 -164 142 -227 -21 -54 -86 -72 -156 -43 -50 21 -125 95 -147
145 -25 54 -18 102 19 131 35 27 78 25 142 -6z m-209 -49 c0 -66 16 -108 60
-159 18 -20 30 -39 27 -42 -10 -11 -150 26 -192 49 -32 18 -43 32 -57 72 -9
28 -17 60 -17 72 -1 32 60 62 127 63 l52 0 0 -55z m-278 25 c47 -14 71 -44 88
-113 16 -68 9 -97 -36 -147 -99 -109 -299 -143 -405 -69 -26 18 -27 18 -90
-16 -80 -43 -91 -44 -53 -2 43 45 68 84 88 139 59 159 243 253 408 208z"/>
<path d="M914 2276 c-51 -23 -61 -87 -20 -125 36 -34 103 -43 225 -31 58 6
107 13 109 14 1 2 -21 25 -50 50 -95 84 -201 121 -264 92z"/>
<path d="M1572 1998 c-22 -22 -13 -50 27 -89 43 -40 107 -67 122 -52 6 6 -6
33 -30 70 -50 78 -89 101 -119 71z"/>
<path d="M1050 1954 c0 -34 28 -152 43 -179 l14 -27 36 32 c33 29 37 37 37 80
0 64 -28 99 -88 107 -36 5 -42 3 -42 -13z"/>
<path d="M854 1887 c-73 -68 -72 -152 1 -183 30 -12 125 -20 125 -11 0 2 -7
18 -16 36 -22 43 -44 128 -44 169 0 17 -5 32 -11 32 -5 0 -30 -19 -55 -43z"/>
<path d="M4440 2446 l0 -144 -197 -4 c-188 -3 -201 -5 -253 -29 -135 -63 -190
-184 -190 -419 0 -236 54 -356 190 -419 54 -25 61 -26 297 -29 267 -4 292 1
326 57 15 26 17 79 17 580 l0 551 -95 0 -95 0 0 -144z m-5 -584 c0 -339 12
-312 -142 -312 -170 0 -224 24 -266 119 -17 39 -20 67 -20 181 -1 125 2 140
25 192 41 89 88 107 278 105 l125 -2 0 -283z"/>
<path d="M4790 2048 c0 -497 2 -546 18 -578 31 -64 58 -70 308 -70 196 0 230
2 289 21 87 26 152 88 184 173 32 87 46 236 33 354 -18 157 -54 235 -136 291
-70 49 -137 61 -328 61 l-168 0 0 145 0 145 -100 0 -100 0 0 -542z m526 79
c83 -44 109 -122 102 -312 -3 -105 -7 -126 -28 -164 -47 -83 -92 -100 -262
-101 -84 0 -110 3 -122 16 -14 13 -16 55 -16 301 l0 285 148 -4 c112 -3 154
-8 178 -21z"/>
<path d="M3111 2299 c-157 -28 -243 -117 -272 -284 -16 -91 -7 -352 15 -421
24 -77 66 -127 133 -160 l58 -29 313 -3 312 -3 0 75 0 76 -237 0 c-140 0 -254
5 -278 11 -74 20 -105 65 -120 172 l-6 47 276 0 c306 0 329 4 364 61 27 44 34
111 21 194 -21 131 -91 213 -213 251 -63 19 -288 27 -366 13z m286 -170 c52
-25 83 -67 90 -119 10 -70 9 -70 -239 -70 l-219 0 6 38 c17 100 61 155 132
167 21 4 43 8 48 11 24 9 144 -9 182 -27z"/>
<path d="M6011 2299 c-213 -38 -288 -172 -278 -494 7 -232 43 -317 154 -372
l58 -28 313 -3 312 -3 0 75 0 76 -237 0 c-133 0 -254 5 -275 10 -77 22 -111
70 -121 172 l-4 47 291 3 c321 3 321 3 354 68 13 26 17 58 16 128 -1 85 -4 99
-35 160 -39 76 -94 120 -182 148 -63 19 -288 27 -366 13z m289 -172 c53 -26
90 -77 90 -123 0 -67 10 -64 -234 -64 l-222 0 6 48 c4 26 12 59 18 73 15 37
67 77 110 84 20 4 42 8 47 11 25 10 144 -9 185 -29z"/>
<path d="M6980 2299 c-211 -37 -291 -183 -277 -509 9 -215 48 -304 154 -357
l58 -28 313 -3 312 -3 0 75 0 75 -257 3 c-237 3 -261 5 -292 23 -55 32 -75 67
-79 140 l-4 64 288 3 c319 3 319 3 352 68 12 26 17 59 17 126 -1 83 -4 98 -34
158 -39 80 -96 126 -186 152 -71 20 -282 28 -365 13z m290 -172 c53 -26 90
-77 90 -123 0 -67 10 -64 -231 -64 l-219 0 0 38 c0 46 36 119 70 144 58 42
209 45 290 5z"/>
<path d="M2525 2286 c-76 -19 -122 -44 -161 -89 -60 -71 -64 -101 -64 -469 l0
-328 94 0 94 0 5 293 c3 192 8 306 17 332 26 83 103 125 230 125 l50 0 0 75 0
75 -107 -1 c-60 0 -130 -6 -158 -13z"/>
</g>
</svg>
