<svg width="24" height="24" viewBox="0 0 24 24" fill="none" xmlns="http://www.w3.org/2000/svg">
<path fill-rule="evenodd" clipRule="evenodd" d="M12.7248 2.19478C12.2501 2.06658 11.7499 2.06658 11.2752 2.19478C10.7322 2.34144 10.2637 2.70568 9.71944 3.12887L9.71943 3.12887L9.60574 3.21718L9.51426 3.28809C9.20517 3.52769 9.13878 3.57462 9.07456 3.60751C9.00227 3.64452 8.92567 3.6724 8.8465 3.69051C8.77617 3.7066 8.69515 3.71333 8.30436 3.72846L8.1887 3.73294L8.04484 3.73837C7.35589 3.76404 6.76289 3.78613 6.25262 4.02286C5.80658 4.22978 5.4234 4.55131 5.14216 4.95465C4.82043 5.41606 4.6957 5.9962 4.55078 6.67024L4.55078 6.67024L4.52045 6.81096L4.49596 6.92409C4.41319 7.30631 4.3925 7.38494 4.36444 7.45141C4.33286 7.52622 4.2921 7.59683 4.24309 7.66159C4.19956 7.71912 4.14182 7.77636 3.85218 8.03914L3.76646 8.11692L3.65975 8.21355C3.14848 8.67606 2.70842 9.07416 2.46969 9.58349C2.26101 10.0287 2.17415 10.5213 2.21797 11.0111C2.2681 11.5713 2.54546 12.0959 2.86771 12.7054L2.86772 12.7054L2.93494 12.8327L2.98889 12.9351C3.17118 13.2811 3.20586 13.3547 3.22709 13.4236C3.25099 13.5012 3.26515 13.5815 3.26924 13.6626C3.27287 13.7347 3.26542 13.8156 3.21247 14.2031L3.1968 14.3178L3.17717 14.4604C3.08281 15.1434 3.00159 15.7312 3.14611 16.2748C3.27244 16.75 3.52254 17.1832 3.87091 17.5302C4.26945 17.9272 4.81913 18.1507 5.45776 18.4105L5.59107 18.4648L5.69822 18.5086C6.06027 18.6565 6.13411 18.6905 6.19469 18.7297C6.26289 18.7738 6.32534 18.8262 6.38061 18.8857C6.42971 18.9385 6.47605 19.0053 6.68455 19.3362L6.74626 19.4341L6.82289 19.556C7.1896 20.1398 7.50523 20.6423 7.96537 20.9659C8.36759 21.2487 8.83764 21.4198 9.32755 21.4617C9.88801 21.5096 10.4528 21.3275 11.109 21.116L11.246 21.0719L11.3562 21.0366C11.7286 20.9171 11.8071 20.8957 11.8787 20.8868C11.9593 20.8767 12.0408 20.8767 12.1214 20.8868C12.193 20.8957 12.2714 20.9171 12.6438 21.0366L12.754 21.0719L12.8911 21.116C13.5472 21.3275 14.112 21.5096 14.6725 21.4617C15.1624 21.4198 15.6324 21.2487 16.0347 20.9659C16.4948 20.6423 16.8104 20.1398 17.1772 19.556L17.2538 19.4341L17.3155 19.3362C17.524 19.0053 17.5703 18.9385 17.6194 18.8857C17.6747 18.8262 17.7371 18.7738 17.8053 18.7297C17.8659 18.6905 17.9398 18.6565 18.3018 18.5086L18.409 18.4648L18.5423 18.4105C19.1809 18.1507 19.7306 17.9272 20.1291 17.5302C20.4775 17.1832 20.7276 16.75 20.8539 16.2748C20.9984 15.7312 20.9172 15.1434 20.8229 14.4604L20.8032 14.3178L20.7876 14.2031C20.7346 13.8156 20.7272 13.7347 20.7308 13.6626C20.7349 13.5815 20.749 13.5012 20.7729 13.4236C20.7942 13.3547 20.8289 13.2811 21.0112 12.9351L21.0651 12.8327L21.1323 12.7054C21.4546 12.0959 21.7319 11.5713 21.7821 11.0111C21.8259 10.5213 21.739 10.0287 21.5303 9.58349C21.2916 9.07416 20.8516 8.67607 20.3403 8.21355L20.2336 8.11692L20.1479 8.03914C19.8582 7.77636 19.8005 7.71912 19.7569 7.66159C19.7079 7.59683 19.6672 7.52622 19.6356 7.45141C19.6075 7.38494 19.5868 7.30631 19.5041 6.92409L19.4796 6.81096L19.4493 6.67024C19.3043 5.99621 19.1796 5.41606 18.8579 4.95464C18.5766 4.55131 18.1935 4.22978 17.7474 4.02286C17.2371 3.78613 16.6442 3.76404 15.9552 3.73837L15.8113 3.73294L15.6957 3.72846C15.3049 3.71333 15.2239 3.7066 15.1535 3.69051C15.0744 3.6724 14.9978 3.64452 14.9255 3.60751C14.8613 3.57462 14.7949 3.52769 14.4858 3.28809L14.3943 3.21718L14.2806 3.12888C13.7363 2.70568 13.2679 2.34144 12.7248 2.19478ZM11.7445 3.93253C11.9119 3.88733 12.0882 3.88733 12.2555 3.93253C12.4027 3.97226 12.5667 4.07793 13.2915 4.6398L13.383 4.71072L13.43 4.74717C13.6669 4.93108 13.8721 5.09039 14.1051 5.2097C14.3102 5.3147 14.5275 5.39379 14.7521 5.44517C15.0073 5.50356 15.2669 5.51344 15.5666 5.52484L15.626 5.52711L15.7417 5.53159C16.6581 5.56709 16.8517 5.59157 16.9899 5.6557C17.1472 5.72865 17.2822 5.84199 17.3814 5.98418C17.4685 6.10919 17.5263 6.29557 17.7204 7.1919L17.7448 7.30502L17.7574 7.36313C17.8207 7.65631 17.8755 7.91027 17.9773 8.15146C18.0669 8.3637 18.1825 8.56397 18.3215 8.74768C18.4795 8.95646 18.672 9.13091 18.8943 9.3323L18.9383 9.37221L19.0241 9.44999C19.7033 10.0662 19.8358 10.2094 19.9005 10.3474C19.9741 10.5044 20.0047 10.678 19.9892 10.8507C19.9756 11.0025 19.9001 11.1823 19.4726 11.9937L19.4186 12.0961L19.3909 12.1487C19.2509 12.414 19.1297 12.6438 19.0526 12.894C18.9848 13.1141 18.9447 13.3419 18.9331 13.572C18.9199 13.8334 18.9553 14.0908 18.9961 14.3879L19.0041 14.4469L19.0198 14.5615C19.144 15.4702 19.1535 15.6651 19.1143 15.8124C19.0698 15.9799 18.9816 16.1326 18.8588 16.2549C18.7509 16.3625 18.5773 16.4517 17.7283 16.7985L17.6212 16.8422L17.5661 16.8647C17.2884 16.9779 17.0478 17.076 16.828 17.2181C16.6345 17.3432 16.4574 17.4919 16.3006 17.6607C16.1224 17.8525 15.9841 18.0724 15.8243 18.3262L15.8243 18.3262L15.7926 18.3765L15.7309 18.4745C15.242 19.2504 15.124 19.4058 14.9993 19.4934C14.8575 19.5931 14.6918 19.6534 14.5191 19.6682C14.3673 19.6812 14.177 19.638 13.3037 19.3579L13.1935 19.3226L13.1369 19.3044C12.8514 19.2126 12.604 19.1331 12.3442 19.1006C12.1156 19.0721 11.8844 19.0721 11.6558 19.1006C11.396 19.1331 11.1487 19.2126 10.8631 19.3044L10.8065 19.3226L10.6963 19.3579C9.82302 19.638 9.63275 19.6812 9.4809 19.6682C9.3082 19.6534 9.1425 19.5931 9.00071 19.4934C8.87604 19.4058 8.75805 19.2504 8.26911 18.4745L8.2074 18.3765L8.17572 18.3262C8.01599 18.0724 7.87763 17.8525 7.69946 17.6607C7.54268 17.4919 7.36552 17.3432 7.17207 17.2181C6.95223 17.076 6.71165 16.9779 6.43392 16.8647L6.37886 16.8422L6.27171 16.7985C5.4227 16.4517 5.24917 16.3625 5.1412 16.2549C5.01839 16.1326 4.93022 15.9799 4.88569 15.8124C4.84654 15.6651 4.85604 15.4702 4.98022 14.5615L4.99589 14.4469L5.00397 14.3879C5.04478 14.0908 5.08014 13.8334 5.06695 13.572C5.05535 13.3419 5.01519 13.1141 4.9474 12.894C4.87037 12.6437 4.74911 12.414 4.60913 12.1487L4.5814 12.0961L4.52745 11.9937C4.09998 11.1823 4.02439 11.0025 4.01081 10.8507C3.99536 10.678 4.02598 10.5044 4.09955 10.3474C4.16423 10.2094 4.29677 10.0662 4.97597 9.44999L5.0617 9.37221L5.10575 9.33228C5.32801 9.1309 5.52054 8.95645 5.6785 8.74768C5.81751 8.56397 5.93314 8.3637 6.02273 8.15146C6.12455 7.91027 6.17936 7.65632 6.24263 7.36314L6.25519 7.30502L6.27968 7.1919C6.47377 6.29557 6.5315 6.10919 6.61866 5.98418C6.7178 5.84199 6.85288 5.72865 7.01012 5.6557C7.14837 5.59157 7.34194 5.56709 8.25836 5.53159L8.37402 5.52711L8.43343 5.52484C8.73314 5.51344 8.99275 5.50356 9.24796 5.44517C9.47253 5.39379 9.68984 5.3147 9.8949 5.2097C10.1279 5.09039 10.3332 4.93108 10.5701 4.74717L10.6171 4.71072L10.7085 4.6398C11.4334 4.07793 11.5974 3.97226 11.7445 3.93253ZM12.9001 8.89993C12.9001 8.40287 12.4971 7.99993 12.0001 7.99993C11.503 7.99993 11.1001 8.40287 11.1001 8.89993V11.0999L8.90005 11.1C8.40299 11.1 8.00005 11.5029 8.00006 12C8.00006 12.497 8.40301 12.9 8.90007 12.9L11.1001 12.8999V15.1C11.1001 15.597 11.503 16 12.0001 16C12.4971 16 12.9001 15.597 12.9001 15.1V12.8999H15.1001C15.5971 12.8999 16.0001 12.497 16.0001 11.9999C16.0001 11.5029 15.5971 11.0999 15.1001 11.0999H12.9001V8.89993Z" fill="#023F80"/>
</svg>
