<svg width="24" height="24" viewBox="0 0 24 24" fill="none" xmlns="http://www.w3.org/2000/svg">
<path fill-rule="evenodd" clipRule="evenodd" d="M15.1637 14.4467H14.621V13.3737H14.1954V13.0035C14.3491 13.0035 14.4726 12.9713 14.5667 12.9069C14.6603 12.8426 14.7218 12.734 14.7516 12.5803H15.1637V14.4467ZM15.3462 14.4467C15.3462 14.342 15.364 14.2488 15.3995 14.1657C15.4355 14.0836 15.486 14.0072 15.5522 13.9376C15.6185 13.868 15.7688 13.7527 16.0037 13.5918C16.239 13.4309 16.3562 13.2911 16.3562 13.173C16.3569 13.1468 16.3512 13.1209 16.3395 13.0975C16.3279 13.074 16.3107 13.0538 16.2895 13.0385C16.245 13.0045 16.1903 12.9866 16.1343 12.9876C16.0388 12.9876 15.9706 13.0212 15.9293 13.087C15.8858 13.1641 15.8646 13.2517 15.8683 13.3401H15.3803C15.3803 13.0789 15.448 12.8872 15.5839 12.7648C15.7194 12.6418 15.912 12.5808 16.1603 12.5808C16.3711 12.5808 16.5469 12.6288 16.6876 12.7268C16.8288 12.8243 16.8989 12.9737 16.8989 13.1754C16.8989 13.3445 16.8509 13.4669 16.7553 13.5433C16.6598 13.6201 16.5661 13.6869 16.4753 13.7431C16.3836 13.7998 16.2957 13.8521 16.2112 13.8997C16.1528 13.9317 16.0958 13.9662 16.0402 14.0029H16.8937V14.4467H15.3462Z" fill="#023F80"/>
<mask id="mask0_102_76" style="mask-type:alpha" maskUnits="userSpaceOnUse" x="3" y="3" width="18" height="18">
<path d="M3 3H20.9995V21H3V3Z" fill="white"/>
</mask>
<g mask="url(#mask0_102_76)">
<path fill-rule="evenodd" clipRule="evenodd" d="M12 19.513C7.85037 19.513 4.48695 16.1492 4.48695 12C4.48695 7.85085 7.85085 4.48791 12.0005 4.48791C16.1496 4.48791 19.513 7.85133 19.513 12.0005C19.513 16.1496 16.1496 19.5135 12.0005 19.5135L12 19.513ZM12.0005 3.00048C7.02908 3 3 7.02956 3 12.0005C3 16.9704 7.02956 21 12 21C16.97 21 20.9995 16.9704 20.9995 12C20.9995 7.02908 16.97 3 12 3" fill="#023F80"/>
</g>
<path fill-rule="evenodd" clipRule="evenodd" d="M12.3142 18.1643C12.3142 18.1643 7.62861 18.3876 7.18242 12.7165C7.18242 12.7165 6.84767 9.03512 7.9259 9.07258C7.9259 9.07258 8.39081 8.9794 8.26066 10.0019C8.26066 10.0019 8.13098 11.3592 8.18669 11.8241C8.18669 11.8241 8.18189 12.033 8.37688 12.033C8.55123 12.033 8.5445 11.838 8.5445 11.838L8.58629 10.1787C8.58629 10.1787 8.5445 7.47324 9.67365 7.47324C9.67365 7.47324 10.2039 7.47324 9.98103 8.74263C9.98103 8.74263 9.77114 10.1643 9.82734 10.4299C9.82734 10.4299 9.81293 10.6249 10.0084 10.6249C10.2039 10.6249 10.1895 10.3737 10.1895 10.3737C10.1895 10.3737 10.3571 7.43146 11.3614 6.3441C11.3614 6.3441 11.9084 5.57565 12.4766 5.9397C12.9232 6.22547 12.5741 6.88778 12.5741 6.88778C12.5741 6.88778 11.9675 8.0174 11.7096 9.35595C11.7096 9.35595 11.6471 9.586 11.7931 9.66957C11.978 9.77523 12.1975 9.64892 12.1975 9.64892C12.1975 9.64892 13.1879 9.09083 14.4568 9.73249C15.7257 10.3737 15.7535 11.2665 15.7747 11.5873C15.7747 11.5873 15.8164 12.1377 15.4327 12.2357C15.0115 12.3428 14.9169 11.8515 14.9169 11.8515C14.9169 11.8515 14.5961 10.6316 13.2297 10.6249C11.7513 10.6176 11.4166 11.8241 11.4166 11.8241C11.4166 11.8241 10.6592 14.4176 11.7192 15.9238C11.7192 15.9238 12.1096 16.5467 13.2714 16.5097C14.6234 16.4665 14.9447 15.1846 14.9447 15.1846C14.9447 15.1846 15.0053 14.6179 15.5489 14.6876C16.0931 14.7572 15.949 15.6169 15.949 15.6169C15.949 15.6169 15.5542 18.2993 12.3142 18.1643Z" fill="#023F80"/>
<path fill-rule="evenodd" clipRule="evenodd" d="M12.3175 13.5175C12.3175 14.0717 12.3838 14.5515 12.5163 14.9579C12.6484 15.3637 12.8742 15.5664 13.1926 15.5664C13.4904 15.5664 13.7113 15.3815 13.8563 15.0121C14.0014 14.6423 14.0739 14.1447 14.0739 13.5175C14.0739 12.9767 13.9995 12.5132 13.8506 12.1271C13.7017 11.7409 13.4779 11.5479 13.1801 11.5479C12.878 11.5479 12.659 11.7448 12.5221 12.1372C12.3857 12.5295 12.3175 12.9897 12.3175 13.5175Z" fill="#023F80"/>
</svg>
