<svg width="24" height="24" viewBox="0 0 24 24" fill="none" xmlns="http://www.w3.org/2000/svg">
<path d="M12.0001 12.4285C15.3104 12.4285 17.5715 13.9359 17.5715 16.2856C17.5715 17.94 16.471 18.8571 15.0001 18.8571H9.00005C7.52914 18.8571 6.42862 17.94 6.42862 16.2856C6.42862 13.9359 8.68974 12.4285 12.0001 12.4285ZM18.8572 12.4285C21.2107 12.4285 22.7143 13.8486 22.7143 15.6428C22.7143 17.0935 21.6064 17.9999 20.3572 17.9999H19.7143C19.241 17.9999 18.8572 17.6162 18.8572 17.1428C18.8572 16.6694 19.241 16.2856 19.7143 16.2856H20.3572C20.727 16.2856 21.0001 16.0623 21.0001 15.6428C21.0001 14.818 20.2852 14.1428 18.8572 14.1428C18.3838 14.1428 18.0001 13.759 18.0001 13.2856C18.0001 12.8123 18.3838 12.4285 18.8572 12.4285ZM5.14291 12.4285C5.6163 12.4285 6.00005 12.8123 6.00005 13.2856C6.00005 13.759 5.6163 14.1428 5.14291 14.1428C3.71493 14.1428 3.00005 14.818 3.00005 15.6428C3.00005 16.0623 3.27309 16.2856 3.64291 16.2856H4.28577C4.75915 16.2856 5.14291 16.6694 5.14291 17.1428C5.14291 17.6162 4.75915 17.9999 4.28577 17.9999H3.64291C2.39368 17.9999 1.28577 17.0935 1.28577 15.6428C1.28577 13.8486 2.78937 12.4285 5.14291 12.4285ZM12.0001 14.1428C9.52465 14.1428 8.14291 15.064 8.14291 16.2856C8.14291 16.917 8.41382 17.1428 9.00005 17.1428H15.0001C15.5863 17.1428 15.8572 16.917 15.8572 16.2856C15.8572 15.064 14.4755 14.1428 12.0001 14.1428ZM17.1429 5.14279C18.7998 5.14279 20.1429 6.48593 20.1429 8.14279C20.1429 9.79964 18.7998 11.1428 17.1429 11.1428C16.6695 11.1428 16.2858 10.759 16.2858 10.2856C16.2858 9.81226 16.6695 9.4285 17.1429 9.4285L17.2667 9.42262C17.9187 9.36032 18.4286 8.8111 18.4286 8.14279C18.4286 7.43271 17.853 6.85707 17.1429 6.85707L17.0429 6.85131C16.6167 6.80179 16.2858 6.4395 16.2858 5.99993C16.2858 5.52654 16.6695 5.14279 17.1429 5.14279ZM6.8572 5.14279C7.33058 5.14279 7.71434 5.52654 7.71434 5.99993C7.71434 6.4395 7.38345 6.80179 6.95716 6.85131L6.8572 6.85707C6.14712 6.85707 5.57148 7.43271 5.57148 8.14279C5.57148 8.8111 6.08139 9.36032 6.73337 9.42262L6.8572 9.4285C7.33058 9.4285 7.71434 9.81226 7.71434 10.2856C7.71434 10.759 7.33058 11.1428 6.8572 11.1428C5.20034 11.1428 3.8572 9.79964 3.8572 8.14279C3.8572 6.48593 5.20034 5.14279 6.8572 5.14279ZM12.0001 4.28564C13.8936 4.28564 15.4286 5.82067 15.4286 7.71422C15.4286 9.60776 13.8936 11.1428 12.0001 11.1428C10.1065 11.1428 8.57148 9.60776 8.57148 7.71422C8.57148 5.82067 10.1065 4.28564 12.0001 4.28564ZM12.0001 5.99993C11.0533 5.99993 10.2858 6.76744 10.2858 7.71422C10.2858 8.66099 11.0533 9.4285 12.0001 9.4285C12.9468 9.4285 13.7143 8.66099 13.7143 7.71422C13.7143 6.76744 12.9468 5.99993 12.0001 5.99993Z" fill="#023F80"/>
</svg>
