<svg width="28" height="28" viewBox="0 0 28 28" fill="none" xmlns="http://www.w3.org/2000/svg">
<path fill-rule="evenodd" clipRule="evenodd" d="M13.2 1H13.1615H13.1614C12.6343 0.999984 12.1795 0.999969 11.805 1.03057C11.4096 1.06287 11.0164 1.13419 10.638 1.32698C10.0735 1.6146 9.6146 2.07354 9.32698 2.63803C9.13419 3.01641 9.06287 3.40963 9.03057 3.80497C9.00013 4.17754 8.99998 4.62943 9 5.15298C8.50794 5.23364 8.0993 5.35683 7.73005 5.54497C6.78924 6.02434 6.02433 6.78924 5.54497 7.73005C5 8.79961 5 10.1997 5 13V15C5 17.8003 5 19.2004 5.54497 20.27C6.02433 21.2108 6.78924 21.9757 7.73005 22.455C8.0993 22.6432 8.50794 22.7664 9 22.847C8.99998 23.3706 9.00013 23.8225 9.03057 24.195C9.06287 24.5904 9.13419 24.9836 9.32698 25.362C9.6146 25.9265 10.0735 26.3854 10.638 26.673C11.0164 26.8658 11.4096 26.9371 11.805 26.9694C12.1795 27 12.6343 27 13.1614 27H13.1614H13.1615L13.2 27H14.8L14.8385 27H14.8386H14.8386C15.3657 27 15.8205 27 16.195 26.9694C16.5904 26.9371 16.9836 26.8658 17.362 26.673C17.9265 26.3854 18.3854 25.9265 18.673 25.362C18.8658 24.9836 18.9371 24.5904 18.9694 24.195C18.9999 23.8225 19 23.3706 19 22.847C19.4921 22.7664 19.9007 22.6432 20.27 22.455C21.2108 21.9757 21.9757 21.2108 22.455 20.27C23 19.2004 23 17.8003 23 15V13C23 12.9968 23 12.9936 23 12.9904C23.1961 12.9784 23.3352 12.9515 23.454 12.891C23.6422 12.7951 23.7951 12.6422 23.891 12.454C24 12.2401 24 11.9601 24 11.4V10.6C24 10.04 24 9.75992 23.891 9.54601C23.7951 9.35785 23.6422 9.20487 23.454 9.109C23.3066 9.03389 23.1278 9.01054 22.8476 9.00328C22.7669 8.50976 22.6436 8.10012 22.455 7.73005C21.9757 6.78924 21.2108 6.02434 20.27 5.54497C19.9007 5.35683 19.4921 5.23364 19 5.15298C19 4.62943 18.9999 4.17754 18.9694 3.80497C18.9371 3.40963 18.8658 3.01641 18.673 2.63803C18.3854 2.07354 17.9265 1.6146 17.362 1.32698C16.9836 1.13419 16.5904 1.06287 16.195 1.03057C15.8205 0.999969 15.3657 0.999984 14.8386 1H14.8385H14.8H13.2ZM21 13C21 11.5669 20.9984 10.6123 20.9385 9.87888C20.8805 9.1688 20.7779 8.84387 20.673 8.63803C20.3854 8.07355 19.9265 7.6146 19.362 7.32698C19.1561 7.2221 18.8312 7.1195 18.1211 7.06148C17.3877 7.00156 16.4331 7 15 7H13C11.5669 7 10.6123 7.00156 9.87887 7.06148C9.1688 7.1195 8.84387 7.2221 8.63803 7.32698C8.07354 7.6146 7.6146 8.07355 7.32698 8.63803C7.2221 8.84387 7.11949 9.1688 7.06148 9.87888C7.00156 10.6123 7 11.5669 7 13V15C7 16.4331 7.00156 17.3877 7.06148 18.1211C7.11949 18.8312 7.2221 19.1561 7.32698 19.362C7.6146 19.9265 8.07354 20.3854 8.63803 20.673C8.84387 20.7779 9.1688 20.8805 9.87887 20.9385C10.6123 20.9984 11.5669 21 13 21H15C16.4331 21 17.3877 20.9984 18.1211 20.9385C18.8312 20.8805 19.1561 20.7779 19.362 20.673C19.9265 20.3854 20.3854 19.9265 20.673 19.362C20.7779 19.1561 20.8805 18.8312 20.9385 18.1211C20.9984 17.3877 21 16.4331 21 15V13ZM11.0239 24.0322C11.0034 23.7811 11.0005 23.4601 11.0001 22.989C11.5771 23 12.2365 23 13 23H15C15.7635 23 16.4229 23 16.9999 22.989C16.9995 23.4601 16.9966 23.7811 16.9761 24.0322C16.9539 24.3038 16.9162 24.4045 16.891 24.454C16.7951 24.6422 16.6422 24.7951 16.454 24.891C16.4045 24.9162 16.3038 24.9539 16.0322 24.9761C15.7488 24.9992 15.3766 25 14.8 25H13.2C12.6234 25 12.2512 24.9992 11.9678 24.9761C11.6962 24.9539 11.5955 24.9162 11.546 24.891C11.3578 24.7951 11.2049 24.6422 11.109 24.454C11.0838 24.4045 11.0461 24.3038 11.0239 24.0322ZM16.9999 5.01105C16.9995 4.53992 16.9966 4.21895 16.9761 3.96784C16.9539 3.69618 16.9162 3.59546 16.891 3.54601C16.7951 3.35785 16.6422 3.20487 16.454 3.109C16.4045 3.0838 16.3038 3.04613 16.0322 3.02393C15.7488 3.00078 15.3766 3 14.8 3H13.2C12.6234 3 12.2512 3.00078 11.9678 3.02393C11.6962 3.04613 11.5955 3.0838 11.546 3.109C11.3578 3.20487 11.2049 3.35785 11.109 3.54601C11.0838 3.59546 11.0461 3.69618 11.0239 3.96784C11.0034 4.21895 11.0005 4.53992 11.0001 5.01105C11.5771 5 12.2365 5 13 5H15C15.7635 5 16.4229 5 16.9999 5.01105ZM14 9C14.5523 9 15 9.44772 15 10V13.807L18.3511 15.0637C18.8682 15.2576 19.1302 15.834 18.9363 16.3511C18.7424 16.8682 18.166 17.1303 17.6489 16.9363L13.6489 15.4363C13.2586 15.29 13 14.9168 13 14.5V10C13 9.44772 13.4477 9 14 9Z" fill="#023F80"/>
</svg>
