<svg width="24" height="24" viewBox="0 0 24 24" fill="none" xmlns="http://www.w3.org/2000/svg">
<path fill-rule="evenodd" clipRule="evenodd" d="M10.2365 3.2636C10.588 3.61508 10.588 4.18492 10.2365 4.5364L7.67289 7.1H12.0001C15.2586 7.1 17.9001 9.74152 17.9001 13C17.9001 16.2585 15.2586 18.9 12.0001 18.9H7.9001C7.40304 18.9 7.0001 18.4971 7.0001 18C7.0001 17.5029 7.40304 17.1 7.9001 17.1H12.0001C14.2645 17.1 16.1001 15.2644 16.1001 13C16.1001 10.7356 14.2645 8.9 12.0001 8.9H7.6729L10.2365 11.4636C10.588 11.815 10.588 12.3849 10.2365 12.7364C9.88502 13.0878 9.31518 13.0878 8.9637 12.7364L4.8637 8.6364C4.69492 8.46762 4.6001 8.2387 4.6001 8C4.6001 7.76131 4.69492 7.53239 4.8637 7.3636L8.9637 3.2636C9.31517 2.91213 9.88502 2.91213 10.2365 3.2636Z" fill="#023F80"/>
</svg>
