<svg width="28" height="28" viewBox="0 0 28 28" fill="none" xmlns="http://www.w3.org/2000/svg">
<path d="M8 14.22C8 13.081 8 12.5115 8.22517 12.0781C8.41492 11.7128 8.71276 11.4149 9.07805 11.2252C9.51153 11 10.081 11 11.22 11H16.78C17.919 11 18.4885 11 18.9219 11.2252C19.2872 11.4149 19.5851 11.7128 19.7748 12.0781C20 12.5115 20 13.081 20 14.22V21.78C20 22.919 20 23.4885 19.7748 23.9219C19.5851 24.2872 19.2872 24.5851 18.9219 24.7748C18.4885 25 17.919 25 16.78 25H11.22C10.081 25 9.51153 25 9.07805 24.7748C8.71276 24.5851 8.41492 24.2872 8.22517 23.9219C8 23.4885 8 22.919 8 21.78V14.22Z" stroke="#023F80" stroke-width="2"/>
<rect x="7.5" y="15.5" width="4" height="1" rx="0.5" stroke="#023F80"/>
<rect x="7.5" y="19.5" width="6" height="1" rx="0.5" stroke="#023F80"/>
<path d="M9 10.2C9 9.07989 9 8.51984 9.21799 8.09202C9.40973 7.71569 9.71569 7.40973 10.092 7.21799C10.5198 7 11.0799 7 12.2 7H15.8C16.9201 7 17.4802 7 17.908 7.21799C18.2843 7.40973 18.5903 7.71569 18.782 8.09202C19 8.51984 19 9.07989 19 10.2V11H9V10.2Z" stroke="#023F80" stroke-width="2"/>
<path d="M17 6C17 5 16 4.5 16 4C16 2.89543 15.1046 2 14 2C12.8954 2 12 2.89543 12 4C12 4.5 11 5 11 6V7H17V6Z" stroke="#023F80" stroke-width="2"/>
<path fill-rule="evenodd" clipRule="evenodd" d="M14 1C12.3978 1 11.0889 2.25601 11.0043 3.83713C10.9709 3.88222 10.9373 3.92249 10.8906 3.9784C10.8478 4.02974 10.794 4.09426 10.7191 4.1878C10.4396 4.53727 10 5.14201 10 6V6.17825C9.87814 6.21747 9.75735 6.26619 9.63803 6.32698C9.07354 6.6146 8.6146 7.07354 8.32698 7.63803C8.13419 8.01641 8.06287 8.40963 8.03057 8.80497C7.99997 9.17954 7.99998 9.63431 8 10.1615L8 10.2V10.7639C7.73098 11.0046 7.50604 11.2931 7.33776 11.6171C7.13867 12.0003 7.06495 12.3998 7.03158 12.8017C6.99997 13.1824 6.99998 13.6447 7 14.1808V14.1808L7 14.22V15.998L7 16L7 16.002V19.998L7 20L7 20.002V21.78L7 21.8192V21.8193C6.99998 22.3553 6.99997 22.8176 7.03158 23.1983C7.06495 23.6002 7.13867 23.9997 7.33776 24.3829C7.62239 24.9309 8.06915 25.3776 8.61708 25.6622C9.00035 25.8613 9.39982 25.935 9.8017 25.9684C10.1823 26 10.6447 26 11.1807 26H11.1807H11.1808H11.1808H11.1808H11.22H16.78H16.8192H16.8192H16.8193H16.8193H16.8193C17.3553 26 17.8177 26 18.1983 25.9684C18.6002 25.935 18.9997 25.8613 19.3829 25.6622C19.9309 25.3776 20.3776 24.9309 20.6622 24.3829C20.8613 23.9997 20.9351 23.6002 20.9684 23.1983C21 22.8176 21 22.3552 21 21.8192V21.78V14.22V14.1808C21 13.6448 21 13.1824 20.9684 12.8017C20.9351 12.3998 20.8613 12.0003 20.6622 11.6171C20.494 11.2931 20.269 11.0046 20 10.7639V10.2V10.1615V10.1614C20 9.6343 20 9.17954 19.9694 8.80497C19.9371 8.40963 19.8658 8.01641 19.673 7.63803C19.3854 7.07354 18.9265 6.6146 18.362 6.32698C18.2427 6.26619 18.1219 6.21747 18 6.17825V6C18 5.14201 17.5604 4.53727 17.2809 4.1878C17.2061 4.09428 17.1522 4.02977 17.1094 3.97844L17.1094 3.9784C17.0627 3.92248 17.0291 3.88221 16.9957 3.83712C16.9111 2.25601 15.6022 1 14 1ZM15.8 8H12.2C11.6234 8 11.2512 8.00078 10.9678 8.02393C10.6962 8.04612 10.5955 8.0838 10.546 8.10899C10.3579 8.20487 10.2049 8.35785 10.109 8.54601C10.0838 8.59545 10.0461 8.69617 10.0239 8.96784C10.0036 9.21698 10.0005 9.5349 10.0001 10H11.1037L11.1808 10H11.1808L11.22 10H16.78L16.8192 10H16.8192L16.8963 10H17.9999C17.9995 9.5349 17.9964 9.21698 17.9761 8.96784C17.9539 8.69617 17.9162 8.59545 17.891 8.54601C17.7951 8.35785 17.6422 8.20487 17.454 8.10899C17.4045 8.0838 17.3038 8.04612 17.0322 8.02393C16.7488 8.00078 16.3766 8 15.8 8ZM15.9155 6H16C16 5.85799 15.9396 5.71273 15.7191 5.43719C15.6992 5.4123 15.6714 5.37862 15.6391 5.33953L15.6389 5.3393C15.5486 5.23015 15.4236 5.07897 15.3393 4.9595C15.2191 4.78917 15 4.44859 15 4C15 3.44772 14.5523 3 14 3C13.4477 3 13 3.44772 13 4C13 4.44859 12.7809 4.78917 12.6607 4.9595C12.5764 5.07897 12.4514 5.23014 12.3612 5.33928L12.3611 5.3393L12.3611 5.33933C12.3287 5.3785 12.3008 5.41226 12.2809 5.43719C12.0604 5.71273 12 5.85799 12 6H12.0845C12.11 6 12.1356 6 12.1615 6L12.2 6H15.8L15.8385 6C15.8644 6 15.89 6 15.9155 6ZM11.051 3.76805C11.0513 3.76797 11.0495 3.77152 11.0449 3.77898C11.0484 3.77187 11.0507 3.76814 11.051 3.76805ZM16.949 3.76805C16.9493 3.76814 16.9516 3.77186 16.9551 3.77898C16.9505 3.77152 16.9487 3.76797 16.949 3.76805ZM9.96722 12.0247C10.2552 12.0008 10.6337 12 11.22 12H16.78C17.3663 12 17.7448 12.0008 18.0328 12.0247C18.3088 12.0476 18.4108 12.0865 18.461 12.1126C18.6436 12.2075 18.7925 12.3564 18.8874 12.539C18.9135 12.5892 18.9524 12.6912 18.9753 12.9672C18.9992 13.2552 19 13.6337 19 14.22V21.78C19 22.3663 18.9992 22.7448 18.9753 23.0328C18.9524 23.3088 18.9135 23.4108 18.8874 23.461C18.7925 23.6436 18.6436 23.7925 18.461 23.8874C18.4108 23.9135 18.3088 23.9524 18.0328 23.9753C17.7448 23.9992 17.3663 24 16.78 24H11.22C10.6337 24 10.2552 23.9992 9.96722 23.9753C9.69125 23.9524 9.58924 23.9135 9.53903 23.8874C9.35638 23.7925 9.20746 23.6436 9.11259 23.461C9.08651 23.4108 9.04764 23.3088 9.02472 23.0328C9.00081 22.7448 9 22.3663 9 21.78V21H13C13.5523 21 14 20.5523 14 20C14 19.4477 13.5523 19 13 19H9V17H11C11.5523 17 12 16.5523 12 16C12 15.4477 11.5523 15 11 15H9V14.22C9 13.6337 9.00081 13.2552 9.02472 12.9672C9.04764 12.6912 9.08651 12.5892 9.11259 12.539C9.20746 12.3564 9.35638 12.2075 9.53903 12.1126C9.58924 12.0865 9.69125 12.0476 9.96722 12.0247Z" fill="#023F80"/>
</svg>
