<svg width="24" height="24" viewBox="0 0 24 24" fill="none" xmlns="http://www.w3.org/2000/svg">
<path fill-rule="evenodd" clipRule="evenodd" d="M9.00009 4.89998H8.8001C7.94517 4.89998 7.3581 4.90068 6.90299 4.93786C6.45839 4.97418 6.21957 5.04079 6.04672 5.12886C5.65158 5.3302 5.33032 5.65146 5.12899 6.0466C5.04092 6.21944 4.97431 6.45827 4.93798 6.90287C4.9008 7.35798 4.9001 7.94505 4.9001 8.79998V15.2C4.9001 16.0549 4.9008 16.642 4.93798 17.0971C4.97431 17.5417 5.04092 17.7805 5.12899 17.9534C5.33032 18.3485 5.65158 18.6698 6.04672 18.8711C6.21957 18.9592 6.45839 19.0258 6.90299 19.0621C7.3581 19.0993 7.94517 19.1 8.8001 19.1H15.2001C16.055 19.1 16.6421 19.0993 17.0972 19.0621C17.5418 19.0258 17.7806 18.9592 17.9535 18.8711C18.3486 18.6698 18.6699 18.3485 18.8712 17.9534C18.9593 17.7805 19.0259 17.5417 19.0622 17.0971C19.0994 16.642 19.1001 16.0549 19.1001 15.2V8.79998C19.1001 7.94505 19.0994 7.35798 19.0622 6.90287C19.0259 6.45827 18.9593 6.21944 18.8712 6.0466C18.6699 5.65146 18.3486 5.3302 17.9535 5.12886C17.7806 5.04079 17.5418 4.97418 17.0972 4.93786C16.6421 4.90068 16.055 4.89998 15.2001 4.89998H15.0001H9.00009ZM14.9908 3.09998H15.2001L15.2378 3.09998C16.0459 3.09997 16.7067 3.09996 17.2438 3.14384C17.7997 3.18926 18.3018 3.28614 18.7707 3.52505C19.5045 3.89896 20.1011 4.49558 20.475 5.22941C20.7139 5.6983 20.8108 6.20038 20.8562 6.75629C20.9001 7.29337 20.9001 7.95422 20.9001 8.76227V8.79998V15.2V15.2377C20.9001 16.0457 20.9001 16.7066 20.8562 17.2437C20.8108 17.7996 20.7139 18.3017 20.475 18.7705C20.1011 19.5044 19.5045 20.101 18.7707 20.4749C18.3018 20.7138 17.7997 20.8107 17.2438 20.8561C16.7067 20.9 16.0459 20.9 15.2378 20.9H15.2001H8.8001H8.76239C7.95434 20.9 7.29349 20.9 6.75642 20.8561C6.2005 20.8107 5.69843 20.7138 5.22954 20.4749C4.4957 20.101 3.89908 19.5044 3.52517 18.7705C3.28626 18.3017 3.18938 17.7996 3.14396 17.2437C3.10008 16.7066 3.10009 16.0458 3.1001 15.2377V15.2V8.79998V8.76227C3.10009 7.95425 3.10008 7.29336 3.14396 6.75629C3.18938 6.20038 3.28626 5.6983 3.52517 5.22941C3.89908 4.49558 4.4957 3.89896 5.22954 3.52505C5.69843 3.28614 6.2005 3.18926 6.75642 3.14384C7.29349 3.09996 7.95434 3.09997 8.7624 3.09998L8.8001 3.09998H9.00935C9.02419 2.752 9.06286 2.51669 9.16358 2.31901C9.30739 2.03677 9.53686 1.8073 9.81911 1.66349C10.14 1.5 10.56 1.5 11.4001 1.5H12.6001C13.4402 1.5 13.8602 1.5 14.1811 1.66349C14.4633 1.8073 14.6928 2.03677 14.8366 2.31901C14.9373 2.51669 14.976 2.752 14.9908 3.09998ZM11.0001 7.09998C10.503 7.09998 10.1001 7.50292 10.1001 7.99998C10.1001 8.49703 10.503 8.89998 11.0001 8.89998H16.0001C16.4972 8.89998 16.9001 8.49703 16.9001 7.99998C16.9001 7.50292 16.4972 7.09998 16.0001 7.09998H11.0001ZM10.1001 12C10.1001 11.5029 10.503 11.1 11.0001 11.1H16.0001C16.4972 11.1 16.9001 11.5029 16.9001 12C16.9001 12.497 16.4972 12.9 16.0001 12.9H11.0001C10.503 12.9 10.1001 12.497 10.1001 12ZM11.0001 15.1C10.503 15.1 10.1001 15.5029 10.1001 16C10.1001 16.497 10.503 16.9 11.0001 16.9H14.0001C14.4972 16.9 14.9001 16.497 14.9001 16C14.9001 15.5029 14.4972 15.1 14.0001 15.1H11.0001ZM7.0001 7.99995C7.0001 7.5029 7.40304 7.09995 7.9001 7.09995C8.39716 7.09995 8.8001 7.5029 8.8001 7.99995C8.8001 8.49701 8.39716 8.89995 7.9001 8.89995C7.40304 8.89995 7.0001 8.49701 7.0001 7.99995ZM7.9001 11.1C7.40304 11.1 7.0001 11.5029 7.0001 12C7.0001 12.497 7.40304 12.9 7.9001 12.9C8.39716 12.9 8.8001 12.497 8.8001 12C8.8001 11.5029 8.39716 11.1 7.9001 11.1ZM7.0001 16C7.0001 15.5029 7.40304 15.1 7.9001 15.1C8.39716 15.1 8.8001 15.5029 8.8001 16C8.8001 16.497 8.39716 16.9 7.9001 16.9C7.40304 16.9 7.0001 16.497 7.0001 16Z" fill="#023F80"/>
</svg>
