<svg width="28" height="28" viewBox="0 0 28 28" fill="none" xmlns="http://www.w3.org/2000/svg">
<path fill-rule="evenodd" clipRule="evenodd" d="M9.99811 5.00001C9.85462 5.00055 9.60772 5.06196 9.24949 5.26095C8.90175 5.45412 8.52135 5.73631 8.13271 6.07423C7.43382 6.68189 6.78302 7.40365 6.3417 7.9275L8.23848 9.82427C8.2502 9.83599 8.26227 9.84799 8.27464 9.8603C8.40928 9.99422 8.57883 10.1629 8.70529 10.3692C8.81494 10.5482 8.89575 10.7433 8.94475 10.9473C9.00125 11.1827 9.00061 11.4218 9.0001 11.6117C9.00005 11.6292 9.00001 11.6462 9.00001 11.6628V16.7874C9.00001 17.4759 9.00632 17.643 9.02289 17.7192C9.04719 17.8308 9.05481 17.8556 9.05592 17.8589C9.0572 17.862 9.06773 17.8858 9.1225 17.986C9.12245 17.9859 9.12219 17.9855 9.1225 17.986C9.12697 17.9928 9.172 18.0612 9.32739 18.2488C9.47929 18.4322 9.69231 18.6778 9.99166 19.023C10.7683 19.9183 11.5557 21.0265 12.0986 21.8272C12.2481 22.0478 12.3393 22.1818 12.4135 22.28C12.4836 22.3727 12.5069 22.39 12.5044 22.388C12.5608 22.4339 12.606 22.4578 12.6756 22.4788C12.7118 22.4897 12.7764 22.5 13.3302 22.5H14.8465C15.321 22.5 15.3662 22.491 15.4042 22.4798C15.4547 22.465 15.5309 22.4258 15.5723 22.3933C15.6055 22.3673 15.6316 22.345 15.8798 21.9974C16.116 21.6667 16.3548 21.3139 16.5955 20.9586C17.0549 20.2801 17.5207 19.5921 17.9862 19.0302C18.2947 18.6578 18.5161 18.3906 18.6731 18.193C18.8251 18.0018 18.8751 17.9265 18.8837 17.9136C18.8849 17.9117 18.8853 17.9112 18.885 17.9117C18.916 17.8527 18.9321 17.8215 18.9426 17.7996C18.9452 17.7942 18.947 17.7904 18.9482 17.7878C18.9489 17.7851 18.95 17.781 18.9514 17.7752C18.9572 17.7517 18.9648 17.7174 18.9785 17.6522C18.9942 17.5779 19 17.4264 19 16.7874V11.6627C19 11.6462 19 11.6292 18.9999 11.6117C18.9994 11.4218 18.9988 11.1827 19.0553 10.9473C19.1043 10.7433 19.1851 10.5482 19.2947 10.3692C19.4212 10.1629 19.5907 9.99423 19.7254 9.8603C19.7377 9.848 19.7498 9.83599 19.7615 9.82427L21.6583 7.9275C21.217 7.40365 20.5662 6.68189 19.8673 6.07423C19.4787 5.73631 19.0983 5.45412 18.7505 5.26095C18.3907 5.06108 18.1432 5.00001 18 5.00001H17.9988C17.4548 5.65267 16.0906 7.00001 14 7.00001C11.899 7.00001 10.542 5.65765 9.99811 5.00001ZM10.086 2.99982C10.1983 2.99891 10.4224 2.9971 10.6256 3.05209C10.8051 3.10066 10.9496 3.16876 11.1013 3.27629C11.224 3.3633 11.3142 3.46159 11.3641 3.51752C11.4151 3.57478 11.4728 3.64473 11.5278 3.7114L11.5365 3.72196C11.9451 4.21716 12.7929 5.00001 14 5.00001C15.1958 5.00001 16.0517 4.21381 16.4662 3.715L16.4749 3.70455C16.5295 3.63889 16.5869 3.56973 16.6378 3.51304C16.6878 3.45738 16.7777 3.36027 16.8998 3.27415C17.051 3.16753 17.1953 3.09981 17.3739 3.05167C17.5763 2.99713 17.7991 2.99892 17.9107 2.99982C17.923 2.99992 17.934 3.00001 17.9434 3.00001H18C18.6259 3.00001 19.2214 3.23468 19.7217 3.51258C20.2341 3.79719 20.7308 4.17478 21.1796 4.56495C22.0774 5.34562 22.8756 6.25847 23.3407 6.82226C23.3489 6.83213 23.3585 6.84352 23.3694 6.85637C23.4761 6.98237 23.7017 7.24867 23.7883 7.59184C23.8603 7.87694 23.8455 8.18625 23.7466 8.46319C23.6723 8.67143 23.5606 8.8242 23.4699 8.9311C23.3948 9.01958 23.3037 9.1106 23.2313 9.18293L21.1757 11.2385C21.0831 11.3311 21.037 11.3775 21.005 11.4126C21.0042 11.4136 21.0034 11.4144 21.0026 11.4153C21.0025 11.4164 21.0025 11.4176 21.0024 11.4189C21.0002 11.4664 21 11.5317 21 11.6627V16.7874C21 16.8247 21 16.8615 21.0001 16.8978C21.0005 17.3654 21.0008 17.7549 20.9356 18.0643L20.9339 18.0724C20.9095 18.1883 20.8808 18.3249 20.8299 18.466C20.779 18.6072 20.714 18.7308 20.6589 18.8355L20.655 18.8429C20.5558 19.0314 20.3951 19.2408 20.2388 19.4375C20.0675 19.653 19.833 19.936 19.5341 20.2968L19.5263 20.3062C19.1159 20.8015 18.7514 21.3416 18.3371 21.9555C18.086 22.3276 17.8165 22.7268 17.5075 23.1596C17.4944 23.1779 17.4814 23.1962 17.4683 23.2146C17.2833 23.4746 17.0926 23.7425 16.8072 23.9666C16.5658 24.156 16.2614 24.3127 15.967 24.399C15.6181 24.5013 15.2683 24.5007 14.9245 24.5001C14.8985 24.5001 14.8725 24.5 14.8465 24.5H13.3302C13.2985 24.5 13.2667 24.5001 13.235 24.5001C12.8453 24.5008 12.4567 24.5016 12.0989 24.3938C11.7795 24.2976 11.5017 24.1503 11.2429 23.94C10.9527 23.7041 10.728 23.3712 10.5002 23.034C10.4812 23.0058 10.4622 22.9776 10.4431 22.9495C9.91322 22.1678 9.17857 21.1378 8.48084 20.3335L8.47192 20.3232C8.18346 19.9906 7.95541 19.7277 7.78723 19.5247C7.63153 19.3368 7.47148 19.1354 7.36749 18.9452C7.30629 18.8332 7.23744 18.7062 7.18222 18.5583C7.127 18.4103 7.09581 18.2693 7.06867 18.1446C6.99917 17.8254 6.99952 17.4105 6.99994 16.9079C6.99997 16.8683 7.00001 16.8281 7.00001 16.7874V11.6628C7.00001 11.5317 6.99977 11.4664 6.9976 11.4189C6.99754 11.4176 6.99748 11.4164 6.99743 11.4153C6.99666 11.4144 6.99585 11.4136 6.99501 11.4126C6.96297 11.3775 6.9169 11.3311 6.82427 11.2385L4.78351 9.19773C4.77867 9.19288 4.77372 9.18794 4.76868 9.18291C4.69628 9.11058 4.60519 9.01957 4.53013 8.9311C4.43943 8.8242 4.32768 8.67143 4.25335 8.46319C4.15451 8.18625 4.13972 7.87694 4.21169 7.59184C4.29831 7.24867 4.52388 6.98237 4.6306 6.85637C4.64149 6.84352 4.65114 6.83212 4.65928 6.82226C5.12444 6.25847 5.92256 5.34562 6.82043 4.56495C7.26916 4.17478 7.76594 3.79719 8.2783 3.51258C8.77858 3.23468 9.37412 3.00001 10 3.00001H10.053C10.0625 3.00001 10.0735 2.99992 10.086 2.99982Z" fill="#023F80"/>
</svg>
