<svg width="24" height="24" viewBox="0 0 24 24" fill="none" xmlns="http://www.w3.org/2000/svg">
<path fill-rule="evenodd" clipRule="evenodd" d="M11.9951 2.00006C14.3186 1.99917 15.7979 3.58494 16.0675 5.30014C16.2425 5.20897 16.6522 5.05208 16.9424 5C19.3909 4.56047 21.8772 6.69401 20.6982 10.2041C19.9348 12.4769 18.3428 14.0147 16.1235 14.2331C16.0305 16.0437 15.8656 17.9575 15.5951 19.8853L15.5819 19.9813C15.5331 20.3404 15.475 20.7671 15.2472 21.1234C15.0524 21.4281 14.7662 21.677 14.4374 21.8275C14.2056 21.9337 13.9801 21.9702 13.7792 21.9859C13.5985 22.0001 13.3873 22.0001 13.1703 22H10.82C10.603 22.0001 10.3918 22.0001 10.2111 21.9859C10.0102 21.9702 9.78462 21.9337 9.55283 21.8275C9.22408 21.677 8.93782 21.4281 8.74306 21.1234C8.51523 20.7671 8.4572 20.3404 8.40835 19.9812L8.39515 19.8852C8.21161 18.577 8.07667 17.2751 7.97982 16.0075C6 16 4.32985 14.4256 3.70058 13.1636C1.79421 9.34038 4.12108 6.99543 6.38424 6.93851H6.49881C6.9654 6.92946 7.41355 7.02812 7.81542 7.21343C7.83238 6.72387 7.85248 6.26675 7.87398 5.84666L7.87484 5.82975C7.88364 5.65752 7.8902 5.52905 7.91418 5.35816C8.15848 3.61698 9.67163 2.00095 11.9951 2.00006ZM16.1953 12.4083C17.5415 12.1755 19.2082 10.6648 19.2082 8.57009C19.2082 7.41272 18.4727 6.5 17.1031 6.80349C16.518 6.93313 16.2107 7.46372 16.2107 8.03174V8.55195C16.2328 9.72055 16.2335 11.0214 16.1953 12.4083ZM14.4107 8.57009V10.6648C14.4107 10.7162 14.415 10.7666 14.4233 10.8157C14.402 13.463 14.2474 16.5355 13.8126 19.6352C13.7781 19.8807 13.7589 20.0129 13.7376 20.1084C13.7315 20.1358 13.7266 20.1532 13.7236 20.1631C13.7167 20.1709 13.7075 20.1789 13.6988 20.1848C13.6878 20.1865 13.6686 20.1891 13.6387 20.1914C13.5369 20.1994 13.3976 20.2 13.1432 20.2H10.847C10.5927 20.2 10.4534 20.1994 10.3516 20.1914C10.3216 20.1891 10.3025 20.1865 10.2915 20.1848C10.2828 20.1789 10.2736 20.1709 10.2667 20.1631C10.2636 20.1532 10.2587 20.1358 10.2527 20.1084C10.2314 20.0129 10.2121 19.8807 10.1777 19.6352C9.43222 14.3214 9.51051 9.08716 9.67162 5.93865C9.68135 5.74855 9.68465 5.69425 9.69672 5.60827C9.82464 4.69656 10.6146 3.80006 11.9951 3.80006C13.3756 3.80006 14.1656 4.69655 14.2935 5.60826C14.3056 5.69424 14.3089 5.74854 14.3186 5.93863C14.3577 6.70255 14.3919 7.58926 14.4107 8.57009ZM7.77498 11.49C7.78886 12.3517 7.81705 13.2528 7.86411 14.1814C6.72234 14.2331 4.93865 12.7321 4.77738 10.8157C4.69313 9.81452 5.18824 8.74274 6.35664 8.74274C7.14927 8.74274 7.69495 9.21044 7.72514 9.81452C7.75133 10.3386 7.77054 10.896 7.77054 11.4001C7.77054 11.4304 7.77205 11.4604 7.77498 11.49Z" fill="#023F80"/>
</svg>
