<svg width="28" height="28" viewBox="0 0 28 28" fill="none" xmlns="http://www.w3.org/2000/svg">
<path fill-rule="evenodd" clipRule="evenodd" d="M6 17L6.00001 14V10.2932L13.5378 6.90115C15.452 6.03976 16.7635 5.45176 17.7861 5.09934C18.8072 4.74741 19.2668 4.7335 19.523 4.77887C20.3189 4.91978 21.0242 5.37582 21.4792 6.04372C21.6258 6.25877 21.8017 6.68355 21.8998 7.7592C21.998 8.83634 22 10.2736 22 12.3727V17C22 18.4331 21.9984 19.3877 21.9385 20.1211C21.8805 20.8312 21.7779 21.1561 21.673 21.362C21.3854 21.9265 20.9265 22.3854 20.362 22.673C20.1561 22.7779 19.8312 22.8805 19.1211 22.9385C18.3877 22.9984 17.4331 23 16 23H12C10.5669 23 9.6123 22.9984 8.87887 22.9385C8.1688 22.8805 7.84387 22.7779 7.63803 22.673C7.07354 22.3854 6.6146 21.9265 6.32698 21.362C6.2221 21.1561 6.11949 20.8312 6.06148 20.1211C6.00156 19.3877 6 18.4331 6 17ZM6.00001 8.09999L9.00001 6.74999V6.10001C9.00001 5.80348 8.99923 5.64122 8.9897 5.52464L8.98856 5.51145L8.97537 5.51031C8.85879 5.50078 8.69653 5.50001 8.40001 5.50001H6.60001C6.30348 5.50001 6.14122 5.50078 6.02464 5.51031L6.01145 5.51145L6.01031 5.52464C6.00078 5.64122 6.00001 5.80348 6.00001 6.1V8.09999ZM10.9996 5.85017L12.7171 5.07731C16.4749 3.38627 18.3539 2.54075 19.8717 2.8095C21.1981 3.04434 22.3736 3.80441 23.132 4.91758C24 6.19146 24 8.25187 24 12.3727V17C24 19.8003 24 21.2004 23.455 22.2699C22.9757 23.2108 22.2108 23.9757 21.27 24.455C20.2004 25 18.8003 25 16 25H12C9.19974 25 7.79961 25 6.73005 24.455C5.78924 23.9757 5.02433 23.2108 4.54497 22.2699C4 21.2004 4 19.8003 4 17V9L4.00001 8.99999V6.1L4 6.06811L4 6.06809C3.99997 5.81572 3.99994 5.56993 4.01695 5.36178C4.03563 5.13318 4.07969 4.86345 4.21799 4.59202C4.40974 4.2157 4.7157 3.90974 5.09202 3.71799C5.36345 3.57969 5.63318 3.53563 5.86178 3.51695C6.06993 3.49994 6.31572 3.49997 6.56809 3.5H6.56811L6.60001 3.50001H8.40001L8.4319 3.5H8.43192C8.68429 3.49997 8.93008 3.49994 9.13824 3.51695C9.36683 3.53563 9.63656 3.57969 9.90799 3.71799C10.2843 3.90974 10.5903 4.2157 10.782 4.59202C10.9203 4.86345 10.9644 5.13318 10.9831 5.36178C10.9951 5.50935 10.9986 5.67583 10.9996 5.85017ZM9.29289 11.2929C9.68342 10.9024 10.3166 10.9024 10.7071 11.2929L11.4142 12H16.5858L17.2929 11.2929C17.6834 10.9024 18.3166 10.9024 18.7071 11.2929C19.0976 11.6834 19.0976 12.3166 18.7071 12.7071L18 13.4142V18.5858L18.7071 19.2929C19.0976 19.6834 19.0976 20.3166 18.7071 20.7071C18.3166 21.0976 17.6834 21.0976 17.2929 20.7071L16.5858 20H11.4142L10.7071 20.7071C10.3166 21.0976 9.68342 21.0976 9.29289 20.7071C8.90237 20.3166 8.90237 19.6834 9.29289 19.2929L10 18.5858V13.4142L9.29289 12.7071C8.90237 12.3166 8.90237 11.6834 9.29289 11.2929ZM12 14V18H16V14H12Z" fill="#023F80"/>
</svg>
