<svg width="24" height="24" viewBox="0 0 24 24" fill="none" xmlns="http://www.w3.org/2000/svg">
<path d="M14.9637 9.2636C15.3152 8.91213 15.885 8.91213 16.2365 9.2636C16.588 9.61508 16.588 10.1849 16.2365 10.5364L11.6365 15.1364C11.285 15.4879 10.7152 15.4879 10.3637 15.1364L7.7637 12.5364C7.41222 12.1849 7.41222 11.6151 7.7637 11.2636C8.11517 10.9121 8.68502 10.9121 9.03649 11.2636L11.0001 13.2272L14.9637 9.2636Z" fill="#023F80"/>
<path fill-rule="evenodd" clipRule="evenodd" d="M12.0001 2.09998C17.4672 2.09998 21.9001 6.53285 21.9001 12C21.9001 17.4671 17.4672 21.9 12.0001 21.9C6.53297 21.9 2.1001 17.4671 2.1001 12C2.1001 6.53285 6.53298 2.09998 12.0001 2.09998ZM12.0001 3.89998C7.52609 3.89998 3.9001 7.52597 3.9001 12C3.9001 16.474 7.52609 20.1 12.0001 20.1C16.4741 20.1 20.1001 16.474 20.1001 12C20.1001 7.52597 16.4741 3.89998 12.0001 3.89998Z" fill="#023F80"/>
</svg>
