<svg width="28" height="28" viewBox="0 0 28 28" fill="none" xmlns="http://www.w3.org/2000/svg">
<path fill-rule="evenodd" clipRule="evenodd" d="M10 8C10 5.79086 11.7909 4 14 4C16.2091 4 18 5.79086 18 8C18 8.55228 18.4477 9 19 9C19.5523 9 20 8.55228 20 8C20 7.65958 19.9717 7.32578 19.9172 7.00084C22.1279 6.95615 24 8.78755 24 11C24 12.6106 23.048 14.001 21.6721 14.6351C21.2728 14.7736 20.99 15.1627 21 15.6069V18H7V15.6069C7.01003 15.1627 6.72724 14.7736 6.32792 14.6351C4.95202 14.001 4 12.6106 4 11C4 8.78755 5.87207 6.95615 8.08282 7.00084C8.02835 7.32578 8 7.65958 8 8C8 8.55228 8.44772 9 9 9C9.55228 9 10 8.55228 10 8ZM8.77431 5.04961C9.80449 3.22888 11.7587 2 14 2C16.2413 2 18.1955 3.22888 19.2257 5.04961C19.4795 5.01685 19.738 5 20 5C23.3137 5 26 7.68629 26 11C26 13.2222 24.7921 15.1604 23 16.1971V20.0403C23 20.7061 23 21.2657 22.9626 21.7235C22.9235 22.2022 22.8386 22.6572 22.6185 23.089C22.283 23.7476 21.7475 24.283 21.089 24.6186C20.6571 24.8386 20.2021 24.9236 19.7234 24.9627C19.2656 25.0001 18.7061 25.0001 18.0402 25.0001H9.95986C9.29403 25.0001 8.73442 25.0001 8.27657 24.9627C7.79785 24.9236 7.34289 24.8386 6.91103 24.6186C6.25247 24.283 5.71703 23.7476 5.38148 23.089C5.16143 22.6572 5.07649 22.2022 5.03738 21.7235C4.99997 21.2656 4.99998 20.7061 5 20.0402L5 16.1971C3.20794 15.1604 2 13.2222 2 11C2 7.68629 4.68629 5 8 5C8.26199 5 8.52046 5.01685 8.77431 5.04961ZM7 20H21C21 20.7166 20.9992 21.1939 20.9693 21.5606C20.9403 21.9157 20.889 22.0781 20.8365 22.1811C20.6927 22.4633 20.4632 22.6928 20.181 22.8366C20.0781 22.889 19.9156 22.9403 19.5606 22.9693C19.1938 22.9993 18.7166 23.0001 18 23.0001H10C9.28343 23.0001 8.80615 22.9993 8.43944 22.9693C8.0844 22.9403 7.92194 22.889 7.81901 22.8366C7.53677 22.6928 7.3073 22.4633 7.16349 22.1811C7.11105 22.0781 7.05975 21.9157 7.03074 21.5606C7.00078 21.1939 7 20.7166 7 20Z" fill="#023F80"/>
</svg>
