<svg width="24" height="24" viewBox="0 0 24 24" fill="none" xmlns="http://www.w3.org/2000/svg">
<path d="M15.3634 2.57153C17.0419 2.58926 17.896 2.77014 18.7817 3.2438C19.6295 3.6972 20.3 4.36767 20.7534 5.21546C21.227 6.10113 21.4079 6.95529 21.4256 8.63373V15.3635C21.4079 17.042 21.227 17.8962 20.7534 18.7818C20.3 19.6296 19.6295 20.3001 18.7817 20.7535C17.896 21.2271 17.0419 21.408 15.3634 21.4257H8.63361C6.95517 21.408 6.101 21.2271 5.21533 20.7535C4.36755 20.3001 3.69708 19.6296 3.24368 18.7818C2.77001 17.8962 2.58914 17.042 2.57141 15.3635V8.63373C2.58914 6.95529 2.77001 6.10113 3.24368 5.21546C3.69708 4.36767 4.36755 3.6972 5.21533 3.2438C6.101 2.77014 6.95517 2.58926 8.63361 2.57153H15.3634ZM15.0759 4.28435H8.92113L8.44337 4.28853C7.17541 4.31258 6.60767 4.44321 6.02379 4.75548C5.47475 5.04911 5.04898 5.47487 4.75536 6.02391C4.44309 6.60779 4.31246 7.17553 4.28841 8.44349L4.28423 8.92125V15.076L4.28841 15.5538C4.31246 16.8217 4.44309 17.3895 4.75536 17.9734C5.04898 18.5224 5.47475 18.9482 6.02379 19.2418C6.60767 19.5541 7.17541 19.6847 8.44337 19.7087L8.92113 19.7129H15.0759L15.5537 19.7087C16.8216 19.6847 17.3894 19.5541 17.9732 19.2418C18.5223 18.9482 18.948 18.5224 19.2417 17.9734C19.5539 17.3895 19.6846 16.8217 19.7086 15.5538L19.7128 15.076V8.92125L19.7086 8.44349C19.6846 7.17553 19.5539 6.60779 19.2417 6.02391C18.948 5.47487 18.5223 5.04911 17.9732 4.75548C17.3894 4.44321 16.8216 4.31258 15.5537 4.28853L15.0759 4.28435ZM12 7.71439C12.4734 7.71439 12.8571 8.09815 12.8571 8.57153V11.143H15.4286C15.9019 11.143 16.2857 11.5267 16.2857 12.0001C16.2857 12.4735 15.9019 12.8572 15.4286 12.8572H12.8571V15.4287C12.8571 15.9021 12.4734 16.2858 12 16.2858C11.5266 16.2858 11.1428 15.9021 11.1428 15.4287V12.8572H8.57141C8.09802 12.8572 7.71427 12.4735 7.71427 12.0001C7.71427 11.5267 8.09802 11.143 8.57141 11.143H11.1428V8.57153C11.1428 8.09815 11.5266 7.71439 12 7.71439Z" fill="#023F80"/>
</svg>
