<svg width="28" height="28" viewBox="0 0 28 28" fill="none" xmlns="http://www.w3.org/2000/svg">
<path fill-rule="evenodd" clipRule="evenodd" d="M15.2118 4.375C20.3498 4.375 24.5965 8.62291 24.5965 13.7685C24.5965 18.9078 20.3587 23.1545 15.2118 23.1545C12.3554 23.1545 9.75855 21.8554 8.14675 19.9182C7.89605 19.6029 7.78463 19.3155 7.78463 19.0648C7.78463 18.5368 8.22019 18.1747 8.69246 18.1747C8.97101 18.1747 9.25969 18.295 9.49013 18.5647C10.8538 20.1322 12.8657 21.235 15.2118 21.235C19.3572 21.235 22.696 17.9063 22.6872 13.7685C22.677 9.62443 19.3572 6.29574 15.2118 6.29574C11.4286 6.29574 8.33161 9.0686 7.82135 12.7037L8.92543 11.8035C9.08243 11.6642 9.26855 11.6085 9.46227 11.6085C9.91682 11.6085 10.2878 11.9706 10.2878 12.434C10.2878 12.7126 10.1587 12.9734 9.92695 13.1304L7.42125 14.9764C7.18195 15.141 6.95911 15.2259 6.69955 15.2259C6.29185 15.2259 6.02216 15.0777 5.70689 14.6877L3.69499 12.2479C3.56457 12.082 3.5 11.8769 3.5 11.6743C3.5 11.1919 3.88111 10.8665 4.34325 10.8665C4.63953 10.8665 4.88263 11.0159 5.04723 11.2565L5.91074 12.491C6.54128 7.94553 10.5005 4.375 15.2118 4.375ZM15.3814 8.85549C15.5984 8.85549 15.7752 8.92199 15.9117 9.05499C16.0482 9.18799 16.1164 9.36299 16.1164 9.57999V10.0735L16.4057 10.1298C16.886 10.2416 17.3566 10.4433 17.8174 10.735C17.9434 10.819 18.0326 10.9117 18.0851 11.0132C18.1376 11.1147 18.1639 11.239 18.1639 11.386C18.1639 11.596 18.1009 11.778 17.9749 11.932C17.8489 12.086 17.7019 12.163 17.5339 12.163C17.4499 12.163 17.3694 12.149 17.2924 12.121C17.2154 12.093 17.1034 12.0405 16.9564 11.9635C16.9074 11.9355 16.7989 11.8777 16.6309 11.7902C16.4629 11.7027 16.2826 11.6327 16.0901 11.5802C15.8976 11.5277 15.6929 11.5015 15.4759 11.5015C15.1609 11.5015 14.9054 11.5697 14.7094 11.7062C14.5134 11.8427 14.4154 12.0265 14.4154 12.2575C14.4154 12.4815 14.5274 12.6495 14.7514 12.7615C14.9754 12.8735 15.3289 12.9855 15.8119 13.0975C16.3299 13.2165 16.7551 13.3425 17.0876 13.4755C17.4201 13.6085 17.7071 13.822 17.9486 14.116C18.1901 14.41 18.3109 14.8055 18.3109 15.3025C18.3109 15.8695 18.1167 16.3525 17.7282 16.7515C17.3397 17.1505 16.8164 17.413 16.1584 17.539V18.0535L16.1502 18.1786C16.1284 18.3388 16.0629 18.4721 15.9537 18.5785C15.8172 18.7115 15.6404 18.778 15.4234 18.778C15.2064 18.778 15.0297 18.7115 14.8932 18.5785C14.7567 18.4455 14.6884 18.2705 14.6884 18.0535V17.581L14.3623 17.5311C13.7237 17.4153 13.1674 17.2045 12.6934 16.8985C12.5674 16.8215 12.4781 16.734 12.4256 16.636C12.3731 16.538 12.3469 16.4085 12.3469 16.2475C12.3469 16.0375 12.4082 15.8555 12.5307 15.7015C12.6531 15.5475 12.7984 15.4705 12.9664 15.4705C13.0504 15.4705 13.1344 15.4845 13.2184 15.5125C13.3024 15.5405 13.4109 15.593 13.5439 15.67C13.8519 15.838 14.1389 15.957 14.4049 16.027C14.6709 16.097 14.9544 16.132 15.2554 16.132C15.6264 16.132 15.9081 16.0707 16.1006 15.9482C16.2931 15.8257 16.3894 15.642 16.3894 15.397C16.3894 15.25 16.3316 15.1292 16.2161 15.0347C16.1006 14.9402 15.9571 14.865 15.7856 14.809C15.6141 14.753 15.3639 14.683 15.0349 14.599C14.5099 14.466 14.0794 14.3312 13.7434 14.1947C13.4074 14.0582 13.1169 13.8447 12.8719 13.5542C12.6269 13.2637 12.5044 12.8735 12.5044 12.3835C12.5044 11.8235 12.7004 11.337 13.0924 10.924C13.4844 10.511 14.0024 10.238 14.6464 10.105V9.57999L14.6548 9.4584C14.6772 9.30216 14.7444 9.16944 14.8564 9.06024C14.9964 8.92374 15.1714 8.85549 15.3814 8.85549Z" fill="#023F80"/>
</svg>
