<svg width="24" height="24" viewBox="0 0 24 24" fill="none" xmlns="http://www.w3.org/2000/svg">
<path fill-rule="evenodd" clipRule="evenodd" d="M16.8896 2.25649C16.4289 2.09868 15.9226 2.09924 15.3201 2.09991H8.68012C8.07756 2.09924 7.57132 2.09868 7.11062 2.25649C6.21809 2.56222 5.47515 3.36654 5.24107 4.28048C5.16989 4.55841 5.15378 4.83507 5.1616 5.12774C4.69978 5.06109 4.22441 5.11595 3.79085 5.28937C2.79925 5.686 2.1001 6.65955 2.1001 7.99999C2.1001 10.3591 4.19371 12.5259 6.80945 12.8565C7.4229 14.1973 8.30469 15.4863 9.59672 16.248C9.57913 16.8764 9.51787 17.579 9.07964 18.0683C8.88152 18.2896 8.66064 18.4863 8.49176 18.7331C8.23958 19.1016 8.1001 19.5354 8.1001 20.1L8.10011 21C8.10011 21.4971 8.50305 21.9 9.00011 21.9H15.0001C15.4971 21.9 15.9001 21.4971 15.9001 21L15.9001 20.1C15.9001 19.5354 15.7606 19.1015 15.5084 18.7331C15.3395 18.4863 15.1187 18.2896 14.9206 18.0683C14.4823 17.579 14.4211 16.8764 14.4035 16.248C15.6955 15.4862 16.5773 14.1973 17.1907 12.8565C19.8065 12.5259 21.9001 10.3591 21.9001 7.99999C21.9001 6.65955 21.2009 5.686 20.2093 5.28937C19.7758 5.11595 19.3004 5.06109 18.8386 5.12774C18.8464 4.83507 18.8303 4.55841 18.7591 4.28048C18.525 3.36654 17.7821 2.56222 16.8896 2.25649ZM8.8001 3.9C8.01228 3.9 7.83311 3.91168 7.69393 3.95936C7.37513 4.06856 7.06839 4.40064 6.98479 4.72708C6.94764 4.8721 6.94882 5.02387 7.00469 5.72703C7.23143 8.58066 7.82117 10.9923 8.72051 12.66C9.61535 14.3193 10.7234 15.1 12.0001 15.1C13.2768 15.1 14.3848 14.3193 15.2797 12.66C16.179 10.9923 16.7688 8.58066 16.9955 5.72703C17.0514 5.02387 17.0526 4.8721 17.0154 4.72708C16.9318 4.40064 16.6251 4.06856 16.3063 3.95936C16.1671 3.91168 15.9879 3.9 15.2001 3.9H8.8001ZM4.45934 6.96063C4.20094 7.06399 3.9001 7.34043 3.9001 7.99999C3.9001 9.07728 4.75942 10.2823 6.06318 10.8175C5.75857 9.7675 5.52909 8.61984 5.3707 7.40658C5.35817 7.31059 5.3519 7.26259 5.31581 7.18887C5.1628 6.87631 4.75144 6.84379 4.45934 6.96063ZM19.5409 6.96063C19.7993 7.06399 20.1001 7.34043 20.1001 7.99999C20.1001 9.07728 19.2408 10.2823 17.937 10.8175C18.2416 9.7675 18.4711 8.61984 18.6295 7.40658C18.642 7.31059 18.6483 7.26259 18.6844 7.18887C18.8374 6.87633 19.2474 6.84324 19.5409 6.96063ZM10.4206 19.2692C10.277 19.4294 10.099 19.5717 9.97718 19.7497C9.94811 19.7922 9.9001 19.8646 9.9001 20.1L14.1001 20.1C14.1001 19.8646 14.0521 19.7922 14.023 19.7497C13.9012 19.5717 13.7232 19.4294 13.5796 19.2692C12.9776 18.5969 12.7201 17.7426 12.6374 16.859C12.224 16.9131 11.7762 16.9131 11.3628 16.859C11.2801 17.7426 11.0226 18.5969 10.4206 19.2692Z" fill="#023F80"/>
</svg>
