<svg width="24" height="24" viewBox="0 0 24 24" fill="none" xmlns="http://www.w3.org/2000/svg">
<path d="M20.5714 11.0106C20.5714 10.095 20.5084 9.76898 20.3292 9.43389C20.185 9.16422 19.9785 8.9577 19.7088 8.81348C19.3737 8.63427 19.0477 8.57132 18.1321 8.57132H3.42852V16.4178C3.42852 17.3334 3.49147 17.6594 3.67067 17.9945C3.8149 18.2641 4.02141 18.4707 4.29109 18.6149C4.62617 18.7941 4.95215 18.857 5.8678 18.857H19.3585L18.251 17.7488C17.9163 17.4141 17.9163 16.8714 18.251 16.5367C18.5857 16.2019 19.1284 16.2019 19.4632 16.5367L22.0346 19.1081C22.3693 19.4428 22.3693 19.9855 22.0346 20.3203L19.4632 22.8917C19.1284 23.2264 18.5857 23.2264 18.251 22.8917C17.9163 22.557 17.9163 22.0143 18.251 21.6795L19.3585 20.5713H5.8678C4.69335 20.5713 4.10002 20.4567 3.48263 20.1266C2.91421 19.8226 2.46299 19.3713 2.15899 18.8029C1.82881 18.1855 1.71423 17.5922 1.71423 16.4178V6.85704H1.71595L1.71604 6.81015C1.7307 5.95273 1.83615 5.47425 2.10175 4.97762C2.36839 4.47904 2.76481 4.08263 3.26339 3.81598C3.8014 3.52825 4.31812 3.42847 5.3184 3.42847H15.2529C16.2532 3.42847 16.7699 3.52825 17.3079 3.81598C17.8065 4.08263 18.2029 4.47904 18.4696 4.97762C18.7418 5.48655 18.8458 5.97643 18.8562 6.87458C19.5805 6.92109 20.0418 7.0475 20.5173 7.3018C21.0857 7.60579 21.5369 8.05702 21.8409 8.62544C22.1711 9.24282 22.2857 9.83616 22.2857 11.0106V14.5713C22.2857 15.0447 21.9019 15.4285 21.4285 15.4285C20.9551 15.4285 20.5714 15.0447 20.5714 14.5713V11.0106ZM17.1428 12.857C17.6162 12.857 17.9999 13.2408 17.9999 13.7142C17.9999 14.1876 17.6162 14.5713 17.1428 14.5713H15.4285C14.9551 14.5713 14.5714 14.1876 14.5714 13.7142C14.5714 13.2408 14.9551 12.857 15.4285 12.857H17.1428ZM15.2529 5.14275H5.3184C4.57692 5.14275 4.32755 5.19091 4.07184 5.32766C3.87201 5.43454 3.7203 5.58624 3.61343 5.78607C3.48808 6.02045 3.43717 6.2495 3.42955 6.85704H17.1418C17.1342 6.2495 17.0832 6.02045 16.9579 5.78607C16.851 5.58624 16.6993 5.43454 16.4995 5.32766C16.2438 5.19091 15.9944 5.14275 15.2529 5.14275Z" fill="#023F80"/>
</svg>
