<svg width="24" height="24" viewBox="0 0 24 24" fill="none" xmlns="http://www.w3.org/2000/svg">
<path fill-rule="evenodd" clipRule="evenodd" d="M13.1 3.89996H10.6C9.60503 3.89996 8.91295 3.90067 8.37447 3.94466C7.8465 3.9878 7.54593 4.06803 7.3196 4.18335C6.83038 4.43262 6.43263 4.83037 6.18336 5.31959C6.06804 5.54592 5.98781 5.84649 5.94467 6.37446C5.90068 6.91294 5.89998 7.60502 5.89998 8.59997V15.4C5.89998 16.3949 5.90068 17.087 5.94467 17.6255C5.98781 18.1534 6.06804 18.454 6.18336 18.6803C6.43263 19.1696 6.83038 19.5673 7.3196 19.8166C7.54593 19.9319 7.8465 20.0121 8.37447 20.0553C8.91295 20.0993 9.60503 20.1 10.6 20.1H14.4C15.3949 20.1 16.087 20.0993 16.6255 20.0553C17.1535 20.0121 17.454 19.9319 17.6804 19.8166C18.1696 19.5673 18.5673 19.1696 18.8166 18.6803C18.9319 18.454 19.0121 18.1534 19.0553 17.6255C19.0993 17.087 19.1 16.3949 19.1 15.4V9.89996H17.2L17.1646 9.89997C16.6347 9.89998 16.1835 9.89999 15.8131 9.86973C15.4239 9.83793 15.0453 9.7683 14.6834 9.58388C14.1377 9.30585 13.6941 8.86221 13.4161 8.31654C13.2316 7.9546 13.162 7.57601 13.1302 7.18685C13.0999 6.81642 13.1 6.36524 13.1 5.83537L13.1 5.79997V3.89996ZM18.3272 8.09997L14.9 4.67276V5.79997C14.9 6.37487 14.9007 6.75192 14.9242 7.04027C14.9469 7.31812 14.9863 7.43346 15.0199 7.49935C15.1253 7.70633 15.2936 7.87461 15.5006 7.98007C15.5665 8.01365 15.6818 8.053 15.9597 8.07571C16.248 8.09927 16.6251 8.09997 17.2 8.09997H18.3272ZM14.4389 2.16628C14.1594 2.09918 13.8727 2.09954 13.5731 2.09991L13.5059 2.09997H10.6H10.5616C9.61407 2.09996 8.84832 2.09995 8.22789 2.15064C7.58861 2.20287 7.02478 2.31338 6.50242 2.57954C5.6745 3.00138 5.00139 3.67449 4.57955 4.50241C4.31339 5.02477 4.20288 5.58859 4.15065 6.22788C4.09996 6.8483 4.09997 7.61406 4.09998 8.56156V8.59997V15.4V15.4384C4.09997 16.3859 4.09996 17.1516 4.15065 17.772C4.20288 18.4113 4.31339 18.9752 4.57955 19.4975C5.00139 20.3254 5.6745 20.9986 6.50242 21.4204C7.02478 21.6866 7.58861 21.7971 8.22789 21.8493C8.84831 21.9 9.61407 21.9 10.5616 21.9H10.6H14.4H14.4384C15.3859 21.9 16.1516 21.9 16.7721 21.8493C17.4113 21.7971 17.9752 21.6866 18.4975 21.4204C19.3254 20.9986 19.9986 20.3254 20.4204 19.4975C20.6866 18.9752 20.7971 18.4113 20.8493 17.772C20.9 17.1516 20.9 16.3859 20.9 15.4384V15.4V9.49408L20.9 9.42687C20.9004 9.12725 20.9008 8.84049 20.8337 8.56102C20.7749 8.31613 20.6779 8.08202 20.5463 7.86729C20.3961 7.62223 20.1931 7.41972 19.981 7.20812L19.9334 7.16062L15.8393 3.06651L15.7918 3.01895C15.5802 2.80682 15.3777 2.6038 15.1327 2.45363C14.9179 2.32204 14.6838 2.22507 14.4389 2.16628Z" fill="#023F80"/>
</svg>
