<svg width="28" height="28" viewBox="0 0 28 28" fill="none" xmlns="http://www.w3.org/2000/svg">
<path fill-rule="evenodd" clipRule="evenodd" d="M4 2H5H23H24V3V14V14.0438V14.0439C24 15.4069 24 16.4909 23.9286 17.3654C23.8554 18.261 23.7023 19.0247 23.346 19.7239C22.7708 20.8529 21.8529 21.7708 20.7239 22.346C20.0247 22.7023 19.261 22.8554 18.3654 22.9286C18.3083 22.9332 18.2503 22.9376 18.1914 22.9417C18.1295 22.9537 18.0655 22.96 18 22.96C17.0312 22.96 16.236 23.3545 15.6583 23.7831C15.3716 23.9958 15.1499 24.2087 15.0022 24.3659C14.9288 24.4441 14.8749 24.5072 14.8415 24.5477C14.8249 24.5679 14.8135 24.5824 14.8074 24.5902L14.8026 24.5964C14.614 24.8502 14.3164 25 14 25C13.6836 25 13.386 24.8502 13.1974 24.5964L13.1926 24.5902C13.1865 24.5824 13.1751 24.5679 13.1585 24.5477C13.1251 24.5072 13.0712 24.4441 12.9978 24.3659C12.8501 24.2087 12.6284 23.9958 12.3417 23.7831C11.764 23.3545 10.9688 22.96 10 22.96C9.93454 22.96 9.87054 22.9537 9.80858 22.9417C9.74968 22.9376 9.69168 22.9332 9.63458 22.9286C8.73898 22.8554 7.97531 22.7023 7.27606 22.346C6.14709 21.7708 5.2292 20.8529 4.65396 19.7239C4.29768 19.0247 4.14462 18.261 4.07144 17.3654C3.99999 16.4908 3.99999 15.4068 4 14.0438V14.0438V14V3V2ZM10.5 20.9824C11.7949 21.099 12.8249 21.6514 13.5333 22.1768C13.706 22.3049 13.8617 22.433 14 22.5552C14.1383 22.433 14.294 22.3049 14.4667 22.1768C15.1751 21.6514 16.2051 21.099 17.5 20.9824V20.9751C17.7536 20.9657 17.9864 20.9529 18.2026 20.9352C18.9745 20.8721 19.4457 20.7527 19.816 20.564C20.5686 20.1805 21.1805 19.5686 21.564 18.816C21.7527 18.4457 21.8721 17.9745 21.9352 17.2026C21.9992 16.419 22 15.4166 22 14V4H6V14C6 15.4166 6.00078 16.419 6.0648 17.2026C6.12787 17.9745 6.24729 18.4457 6.43597 18.816C6.81947 19.5686 7.43139 20.1805 8.18404 20.564C8.55435 20.7527 9.02552 20.8721 9.79744 20.9352C10.0136 20.9529 10.2464 20.9657 10.5 20.9751V20.9824Z" fill="#023F80"/>
</svg>
