<svg width="24" height="24" viewBox="0 0 24 24" fill="none" xmlns="http://www.w3.org/2000/svg">
<path fill-rule="evenodd" clipRule="evenodd" d="M12.9001 1.99998C12.9001 1.50292 12.4971 1.09998 12.0001 1.09998C11.503 1.09998 11.1001 1.50292 11.1001 1.99998V2.17464C8.80532 2.55963 7.00132 4.39194 6.65881 6.70083L6.58947 6.68971C6.45083 6.66722 6.34515 6.64867 6.27535 6.63598C6.24045 6.62963 6.21452 6.62475 6.19794 6.62158L6.18012 6.61814L6.1766 6.61745C5.68935 6.52025 5.21502 6.83621 5.11757 7.32347C5.02009 7.81087 5.33618 8.28502 5.82359 8.3825L5.82497 8.38277L5.82728 8.38323L5.83462 8.38468L5.8601 8.3896C5.88185 8.39375 5.91306 8.39962 5.95335 8.40694C6.03394 8.42159 6.15091 8.4421 6.30134 8.4665C6.56039 8.5085 6.9189 8.56208 7.36182 8.61713C7.35405 8.72706 7.3501 8.83805 7.3501 8.94996C7.3501 11.5189 9.43117 13.6 12.0001 13.6C14.569 13.6 16.6501 11.5189 16.6501 8.94996C16.6501 8.83805 16.6461 8.72706 16.6384 8.61713C17.0813 8.56208 17.4398 8.5085 17.6988 8.4665C17.8493 8.4421 17.9662 8.42159 18.0468 8.40694C18.0871 8.39962 18.1183 8.39375 18.1401 8.3896L18.1656 8.38468L18.1729 8.38323L18.1752 8.38277L18.1763 8.38255C18.6637 8.28507 18.9801 7.81087 18.8826 7.32347C18.7851 6.83613 18.3111 6.52006 17.8238 6.61741L17.8201 6.61814L17.8022 6.62158C17.7857 6.62475 17.7597 6.62963 17.7248 6.63598C17.655 6.64867 17.5494 6.66722 17.4107 6.68971L17.3414 6.70083C16.9989 4.39194 15.1949 2.55963 12.9001 2.17464V1.99998ZM11.1002 4.01337C11.1073 4.50425 11.5075 4.89998 12.0001 4.89998C12.4927 4.89998 12.8928 4.50425 12.9 4.01337C14.2721 4.36648 15.3276 5.50815 15.5547 6.92647C14.5924 7.02085 13.3753 7.09998 12.0001 7.09998C10.6249 7.09998 9.4078 7.02085 8.44552 6.92647C8.67258 5.50815 9.72811 4.36647 11.1002 4.01337ZM9.15428 8.79404C9.15151 8.84566 9.1501 8.89765 9.1501 8.94996C9.1501 10.5248 10.4253 11.8 12.0001 11.8C13.5749 11.8 14.8501 10.5248 14.8501 8.94996C14.8501 8.89764 14.8487 8.84566 14.8459 8.79404C14.0105 8.85613 13.0492 8.89998 12.0001 8.89998C10.951 8.89998 9.98974 8.85613 9.15428 8.79404ZM5.92779 20.0808C5.88735 20.0459 5.88959 19.9615 5.89483 19.7647C5.89717 19.6769 5.9001 19.5667 5.9001 19.4285C5.9001 17.5359 8.67829 16.4 12.0001 16.4C15.3219 16.4 18.1001 17.5359 18.1001 19.4285C18.1001 19.5667 18.103 19.6769 18.1054 19.7647C18.1106 19.9615 18.1128 20.0459 18.0724 20.0808C18.0421 20.107 17.9877 20.1053 17.8925 20.1024C17.8562 20.1013 17.8139 20.1 17.7648 20.1H6.23539C6.18627 20.1 6.14401 20.1013 6.10769 20.1024C6.01251 20.1053 5.95813 20.107 5.92779 20.0808ZM12.0001 14.6C7.77289 14.6 4.1001 16.1017 4.1001 19.4285C4.1001 21.1641 4.78564 21.9 6.23539 21.9H17.7648C19.2146 21.9 19.9001 21.1641 19.9001 19.4285C19.9001 16.1017 16.2273 14.6 12.0001 14.6Z" fill="#023F80"/>
</svg>
