<svg width="28" height="28" viewBox="0 0 28 28" fill="none" xmlns="http://www.w3.org/2000/svg">
<path d="M18 8H10V20H18V18H12V15H17V13H12V10H18V8Z" fill="#023F80"/>
<path fill-rule="evenodd" clipRule="evenodd" d="M17.6428 3H10.3572C9.27341 2.99999 8.39925 2.99998 7.69138 3.05782C6.96253 3.11737 6.32234 3.24318 5.73005 3.54497C4.78924 4.02434 4.02434 4.78924 3.54497 5.73005C3.24318 6.32234 3.11737 6.96253 3.05782 7.69138C2.99998 8.39925 2.99999 9.2734 3 10.3572V17.6428C2.99999 18.7266 2.99998 19.6007 3.05782 20.3086C3.11737 21.0375 3.24318 21.6777 3.54497 22.27C4.02434 23.2108 4.78924 23.9757 5.73005 24.455C6.32234 24.7568 6.96253 24.8826 7.69138 24.9422C8.39923 25 9.27334 25 10.3571 25H17.6428C18.7266 25 19.6008 25 20.3086 24.9422C21.0375 24.8826 21.6777 24.7568 22.27 24.455C23.2108 23.9757 23.9757 23.2108 24.455 22.27C24.7568 21.6777 24.8826 21.0375 24.9422 20.3086C25 19.6008 25 18.7267 25 17.6429V10.3572C25 9.27344 25 8.39923 24.9422 7.69138C24.8826 6.96253 24.7568 6.32234 24.455 5.73005C23.9757 4.78924 23.2108 4.02434 22.27 3.54497C21.6777 3.24318 21.0375 3.11737 20.3086 3.05782C19.6007 2.99998 18.7266 2.99999 17.6428 3ZM6.63803 5.32698C6.90138 5.1928 7.24907 5.10062 7.85424 5.05118C8.47108 5.00078 9.26339 5 10.4 5H17.6C18.7366 5 19.5289 5.00078 20.1458 5.05118C20.7509 5.10062 21.0986 5.1928 21.362 5.32698C21.9265 5.6146 22.3854 6.07354 22.673 6.63803C22.8072 6.90138 22.8994 7.24907 22.9488 7.85424C22.9992 8.47108 23 9.26339 23 10.4V17.6C23 18.7366 22.9992 19.5289 22.9488 20.1458C22.8994 20.7509 22.8072 21.0986 22.673 21.362C22.3854 21.9265 21.9265 22.3854 21.362 22.673C21.0986 22.8072 20.7509 22.8994 20.1458 22.9488C19.5289 22.9992 18.7366 23 17.6 23H10.4C9.26339 23 8.47108 22.9992 7.85424 22.9488C7.24907 22.8994 6.90138 22.8072 6.63803 22.673C6.07354 22.3854 5.6146 21.9265 5.32698 21.362C5.1928 21.0986 5.10062 20.7509 5.05118 20.1458C5.00078 19.5289 5 18.7366 5 17.6V10.4C5 9.26339 5.00078 8.47108 5.05118 7.85424C5.10062 7.24907 5.1928 6.90138 5.32698 6.63803C5.6146 6.07354 6.07354 5.6146 6.63803 5.32698Z" fill="#023F80"/>
</svg>
