<svg width="28" height="28" viewBox="0 0 28 28" fill="none" xmlns="http://www.w3.org/2000/svg">
<path fill-rule="evenodd" clipRule="evenodd" d="M11.284 3H11.3197H16.6803H16.716H16.716C17.2763 2.99999 17.751 2.99998 18.1442 3.02939C18.5583 3.06038 18.9522 3.12756 19.3384 3.29799C19.9337 3.56073 20.444 3.98422 20.8119 4.52092C21.0506 4.86904 21.1892 5.24383 21.296 5.64513C21.3974 6.02614 21.4848 6.4927 21.588 7.0433L21.5881 7.04343L21.5947 7.07856L22.3299 11H25C25.5523 11 26 11.4477 26 12C26 12.5523 25.5523 13 25 13H21.5178C21.5051 13.0002 21.4925 13.0002 21.48 13H6.52003C6.50746 13.0002 6.49486 13.0002 6.48222 13H3C2.44772 13 2 12.5523 2 12C2 11.4477 2.44772 11 3 11H5.67007L6.40534 7.07856L6.41193 7.04345L6.41193 7.04345L6.41193 7.04344L6.41193 7.04342L6.41194 7.04339C6.51517 6.49275 6.60264 6.02616 6.70402 5.64513C6.81078 5.24383 6.94941 4.86904 7.18808 4.52092C7.55603 3.98422 8.06631 3.56073 8.66162 3.29799C9.04777 3.12756 9.44168 3.06038 9.85578 3.02939C10.249 2.99998 10.7237 2.99999 11.284 3H11.284ZM19.6289 7.44714L20.2951 11H7.70493L8.37109 7.44714C8.48268 6.85198 8.55693 6.45947 8.63679 6.15933C8.7134 5.87137 8.77823 5.73848 8.83765 5.65182C8.99534 5.42181 9.21403 5.24031 9.46916 5.12771C9.56528 5.08529 9.70785 5.04605 10.005 5.02382C10.3147 5.00065 10.7142 5 11.3197 5H16.6803C17.2858 5 17.6853 5.00065 17.995 5.02382C18.2922 5.04605 18.4347 5.08529 18.5308 5.12771C18.786 5.24031 19.0047 5.42181 19.1624 5.65182C19.2218 5.73848 19.2866 5.87137 19.3632 6.15933C19.4431 6.45947 19.5173 6.85198 19.6289 7.44714ZM5 20C5 18.3431 6.34315 17 8 17C9.65685 17 11 18.3431 11 20C11 21.6569 9.65685 23 8 23C6.34315 23 5 21.6569 5 20ZM8 15C5.23858 15 3 17.2386 3 20C3 22.7614 5.23858 25 8 25C10.7337 25 12.9551 22.8061 12.9993 20.0829C13.3243 20.0284 13.6585 20 14 20C14.3415 20 14.6757 20.0284 15.0007 20.0829C15.0449 22.8061 17.2663 25 20 25C22.7614 25 25 22.7614 25 20C25 17.2386 22.7614 15 20 15C17.9049 15 16.1108 16.2886 15.3669 18.1165C14.9222 18.0399 14.4655 18 14 18C13.5345 18 13.0778 18.0399 12.6331 18.1165C11.8892 16.2886 10.0951 15 8 15ZM20 17C18.3431 17 17 18.3431 17 20C17 21.6569 18.3431 23 20 23C21.6569 23 23 21.6569 23 20C23 18.3431 21.6569 17 20 17Z" fill="#023F80"/>
</svg>
