<svg width="24" height="24" viewBox="0 0 24 24" fill="none" xmlns="http://www.w3.org/2000/svg">
<path fill-rule="evenodd" clipRule="evenodd" d="M12 13C12.5523 13 13 13.4477 13 14V16C13 16.5523 12.5523 17 12 17C11.4477 17 11 16.5523 11 16V14C11 13.4477 11.4477 13 12 13Z" fill="#023F80"/>
<path fill-rule="evenodd" clipRule="evenodd" d="M18.7705 8.52505C18.1921 8.23031 17.5403 8.1524 16.9 8.12212V6.99998C16.9 4.29378 14.7062 2.09998 12 2.09998C9.29378 2.09998 7.09998 4.29378 7.09998 6.99998V8.12212C6.45969 8.1524 5.80787 8.23031 5.22941 8.52505C4.49558 8.89896 3.89896 9.49558 3.52505 10.2294C3.28614 10.6983 3.18926 11.2004 3.14384 11.7563C3.09996 12.2934 3.09997 12.9542 3.09998 13.7623V16.2377C3.09997 17.0457 3.09996 17.7066 3.14384 18.2437C3.18926 18.7996 3.28614 19.3016 3.52505 19.7705C3.89896 20.5044 4.49558 21.101 5.22941 21.4749C5.6983 21.7138 6.20038 21.8107 6.75629 21.8561C7.29337 21.9 7.95422 21.9 8.76227 21.9H15.2377C16.0457 21.9 16.7066 21.9 17.2437 21.8561C17.7996 21.8107 18.3017 21.7138 18.7705 21.4749C19.5044 21.101 20.101 20.5044 20.4749 19.7705C20.7138 19.3016 20.8107 18.7996 20.8561 18.2437C20.9 17.7066 20.9 17.0457 20.9 16.2377V13.7623C20.9 12.9542 20.9 12.2934 20.8561 11.7563C20.8107 11.2004 20.7138 10.6983 20.4749 10.2294C20.101 9.49558 19.5044 8.89896 18.7705 8.52505ZM6.90287 9.93786C6.45827 9.97418 6.21944 10.0408 6.0466 10.1289C5.65146 10.3302 5.3302 10.6515 5.12886 11.0466C5.04079 11.2194 4.97419 11.4583 4.93786 11.9029C4.90068 12.358 4.89998 12.945 4.89998 13.8V16.2C4.89998 17.0549 4.90068 17.642 4.93786 18.0971C4.97419 18.5417 5.04079 18.7805 5.12886 18.9534C5.3302 19.3485 5.65146 19.6698 6.0466 19.8711C6.21944 19.9592 6.45827 20.0258 6.90287 20.0621C7.35798 20.0993 7.94505 20.1 8.79998 20.1H15.2C16.0549 20.1 16.642 20.0993 17.0971 20.0621C17.5417 20.0258 17.7805 19.9592 17.9534 19.8711C18.3485 19.6698 18.6698 19.3485 18.8711 18.9534C18.9592 18.7805 19.0258 18.5417 19.0621 18.0971C19.0993 17.642 19.1 17.0549 19.1 16.2V13.8C19.1 12.945 19.0993 12.358 19.0621 11.9029C19.0258 11.4583 18.9592 11.2194 18.8711 11.0466C18.6698 10.6515 18.3485 10.3302 17.9534 10.1289C17.7805 10.0408 17.5417 9.97418 17.0971 9.93786C16.642 9.90068 16.0549 9.89998 15.2 9.89998H8.79998C7.94505 9.89998 7.35798 9.90068 6.90287 9.93786ZM15.1 6.99998C15.1 5.28789 13.7121 3.89998 12 3.89998C10.2879 3.89998 8.89998 5.28789 8.89998 6.99998V8.09998H15.1V6.99998Z" fill="#023F80"/>
<path fill-rule="evenodd" clipRule="evenodd" d="M13 14C13 13.4477 12.5523 13 12 13C11.4477 13 11 13.4477 11 14V16C11 16.5523 11.4477 17 12 17C12.5523 17 13 16.5523 13 16V14Z" fill="#023F80"/>
</svg>
