<svg width="28" height="28" viewBox="0 0 28 28" fill="none" xmlns="http://www.w3.org/2000/svg">
<path d="M18.0992 14.0102C18.0992 19.5349 14.5169 24.0136 13.948 24.0136C13.3791 24.0136 9.79681 19.5349 9.79681 14.0102C9.79681 8.48546 13.3541 4.00677 13.948 4.00677C14.5419 4.00677 18.0992 8.48546 18.0992 14.0102Z" stroke="#023F80" stroke-width="2"/>
<path d="M10.0776 11.0317C8.01444 8.56289 5.01091 8.17465 4.82559 8.36072C4.40019 8.78784 4.8223 12.2867 5.64555 13.9355" stroke="#023F80" stroke-width="2"/>
<path d="M17.4386 11.0317C19.5017 8.56289 22.5053 8.17465 22.6906 8.36072C23.116 8.78784 22.6939 12.2867 21.8706 13.9355" stroke="#023F80" stroke-width="2"/>
<path d="M10.2086 14.9436C6.34901 13.217 2.05872 14.0278 1.7458 14.3245C1.38049 14.6709 2.30229 18.237 6.89666 21.088C9.37817 22.5375 13.528 23.9996 13.9605 23.9994" stroke="#023F80" stroke-width="2"/>
<path d="M17.8033 14.946C21.6592 13.2159 25.9443 14.0258 26.2567 14.3227C26.6215 14.6694 25.6992 18.2398 21.1089 21.0959C18.6296 22.5481 14.6394 24.0136 14.0519 24.0136" stroke="#023F80" stroke-width="2"/>
<path fill-rule="evenodd" clipRule="evenodd" d="M13.3005 3.19415C13.4021 3.13499 13.64 3.00677 13.948 3.00677C14.256 3.00677 14.4939 3.13499 14.5955 3.19415C14.7264 3.27036 14.8468 3.36352 14.9509 3.45358C15.1618 3.63588 15.3889 3.87784 15.619 4.15706C16.0829 4.72025 16.6194 5.50948 17.129 6.46685C17.5156 7.19317 17.893 8.02826 18.2124 8.94766C18.9714 8.39264 19.7441 8.01201 20.4226 7.76059C21 7.54661 21.5257 7.41997 21.9399 7.36049C22.144 7.33117 22.3424 7.31506 22.5183 7.31907C22.6038 7.32102 22.7118 7.32821 22.8249 7.35164L22.8277 7.35222C22.8942 7.36598 23.1668 7.4223 23.396 7.65247C23.6736 7.93115 23.757 8.29286 23.7902 8.46132C23.8337 8.68152 23.8513 8.9246 23.8555 9.16284C23.8641 9.64443 23.8196 10.2278 23.7376 10.8271C23.6488 11.4754 23.5089 12.1947 23.3204 12.8719C23.3385 12.8721 23.3566 12.8723 23.3746 12.8726C24.2222 12.885 24.9615 12.9648 25.5229 13.0654C25.8021 13.1154 26.0506 13.1729 26.2534 13.2348C26.3539 13.2655 26.4578 13.3016 26.5551 13.3445C26.6266 13.3761 26.7937 13.4526 26.9435 13.5949C27.1516 13.7927 27.2366 14.0244 27.2741 14.1659C27.3146 14.3189 27.326 14.4665 27.3267 14.5895C27.328 14.8365 27.2861 15.1033 27.22 15.368C27.0859 15.9051 26.8198 16.562 26.4009 17.2759C25.5581 18.712 24.0638 20.4354 21.634 21.9472L21.6227 21.9543L21.6112 21.961C20.3103 22.723 18.6412 23.4738 17.2369 24.0309C16.5314 24.3108 15.8792 24.5473 15.3585 24.7155C15.099 24.7994 14.8629 24.8693 14.6641 24.9194C14.498 24.9613 14.2619 25.0155 14.0506 25.0155L14.0506 25.0089C14.0174 25.0119 13.9831 25.0136 13.948 25.0136C13.8022 25.0136 13.6722 24.9846 13.5651 24.9478C13.4917 24.9312 13.4264 24.9138 13.3766 24.9005C13.1932 24.8514 12.9673 24.7827 12.7136 24.6997C12.2041 24.5332 11.5495 24.2986 10.8346 24.0198C9.41389 23.4657 7.7003 22.7157 6.39341 21.9523L6.38188 21.9456L6.37053 21.9385C3.93859 20.4294 2.44332 18.7085 1.60021 17.2744C1.18109 16.5615 0.914999 15.9054 0.780967 15.369C0.714912 15.1046 0.673057 14.8382 0.674473 14.5915C0.675179 14.4686 0.686629 14.3211 0.727283 14.1683C0.76489 14.0269 0.85001 13.7955 1.05846 13.5978C1.20847 13.4556 1.37578 13.3791 1.44742 13.3476C1.54487 13.3047 1.64888 13.2685 1.74947 13.2379C1.95253 13.176 2.20133 13.1184 2.48088 13.0683C2.94541 12.9851 3.53159 12.916 4.20008 12.8873C4.00943 12.2057 3.86802 11.4803 3.7786 10.8271C3.69656 10.2278 3.65202 9.64443 3.66062 9.16284C3.66487 8.9246 3.68248 8.68152 3.72591 8.46132C3.75913 8.29286 3.84253 7.93117 4.12009 7.65248C4.34933 7.42231 4.62191 7.36598 4.6885 7.35222L4.6913 7.35164C4.80433 7.32821 4.91236 7.32102 4.99788 7.31907C5.17371 7.31506 5.3721 7.33117 5.57626 7.36049C5.99047 7.41997 6.5161 7.54661 7.09357 7.76059C7.86219 8.04542 8.75178 8.49606 9.60533 9.17823C9.94036 8.16758 10.3483 7.25343 10.7669 6.46685C11.2765 5.50948 11.813 4.72025 12.277 4.15706C12.507 3.87784 12.7342 3.63588 12.945 3.45358C13.0492 3.36352 13.1695 3.27036 13.3005 3.19415ZM12.5324 7.40657C11.6221 9.11676 10.7968 11.4557 10.7968 14.0102C10.7968 16.5633 11.6275 18.9016 12.5412 20.6126C12.9967 21.4658 13.4621 22.1424 13.8321 22.5927C13.8726 22.642 13.9112 22.6878 13.948 22.7301C13.9847 22.6878 14.0234 22.642 14.0639 22.5927C14.4338 22.1424 14.8992 21.4658 15.3548 20.6126C16.2685 18.9016 17.0992 16.5633 17.0992 14.0102C17.0992 11.4557 16.2738 9.11676 15.3635 7.40657C14.9096 6.55368 14.4454 5.87794 14.0753 5.42873C14.0306 5.37444 13.9881 5.3245 13.948 5.27877C13.9079 5.3245 13.8654 5.37444 13.8206 5.42873C13.4506 5.87794 12.9864 6.55368 12.5324 7.40657ZM16.8578 22.0259C18.1231 21.51 19.519 20.8667 20.595 20.2377C22.7486 18.8952 24.0074 17.4086 24.681 16.2608C24.966 15.7752 25.1406 15.3598 25.2366 15.0501C25.2149 15.046 25.1925 15.0419 25.1696 15.0378C24.7191 14.9571 24.0876 14.8869 23.3429 14.8759C22.0734 14.8574 20.5277 15.0117 19.0157 15.5401C18.7611 17.8912 17.9602 19.9795 17.119 21.5547C17.0325 21.7167 16.9453 21.8739 16.8578 22.0259ZM19.0866 13.4185C19.8024 13.2149 20.5104 13.0788 21.1873 12.9933C21.4359 12.3156 21.6425 11.4122 21.7601 10.5529C21.819 10.1224 21.8517 9.73113 21.859 9.41435C21.6439 9.4647 21.3916 9.5381 21.1149 9.64062C20.3968 9.90671 19.5562 10.3534 18.7937 11.0564C18.9481 11.8111 19.0522 12.6017 19.0866 13.4185ZM10.777 21.5547C10.8444 21.6809 10.9122 21.8042 10.9802 21.9244C9.75027 21.4245 8.42365 20.8204 7.41139 20.2304C5.25591 18.8904 3.99634 17.406 3.32247 16.2597C3.03737 15.7748 2.86266 15.3599 2.76672 15.0507C2.78849 15.0466 2.81086 15.0425 2.83384 15.0383C3.28481 14.9575 3.91711 14.8871 4.66266 14.8759C5.9003 14.8573 7.40026 15.0025 8.87566 15.4969C9.12509 17.8657 9.93063 19.9699 10.777 21.5547ZM9.04126 11.3709C8.9223 12.0199 8.84151 12.6938 8.81071 13.3867C7.9503 13.1511 7.10295 13.0116 6.30915 12.9388C6.0693 12.2677 5.87057 11.3894 5.75607 10.5529C5.69715 10.1224 5.66448 9.73113 5.65719 9.41435C5.87222 9.4647 6.12459 9.5381 6.40125 9.64062C7.22105 9.94441 8.20059 10.4836 9.04126 11.3709ZM5.03608 9.3227C5.03606 9.3227 5.03564 9.32273 5.03608 9.3227V9.3227ZM5.68701 8.83457C5.6906 8.81856 5.69303 8.8117 5.69335 8.81228C5.69367 8.81285 5.69187 8.82086 5.68701 8.83457ZM21.8291 8.83457C21.8256 8.81856 21.8231 8.8117 21.8228 8.81228C21.8225 8.81285 21.8243 8.82086 21.8291 8.83457Z" fill="#023F80"/>
</svg>
