<svg width="24" height="24" viewBox="0 0 24 24" fill="none" xmlns="http://www.w3.org/2000/svg">
<path d="M12.0001 1.10001C14.7615 1.10001 17.0001 3.33858 17.0001 6.10001H17.0543C18.3915 6.10001 18.8765 6.23924 19.3654 6.50071C19.8543 6.76217 20.2379 7.14585 20.4994 7.63474C20.7609 8.12363 20.9001 8.60855 20.9001 9.94583V14.8344C20.9001 16.9234 20.6796 17.6959 20.2657 18.47C19.8517 19.2441 19.2442 19.8516 18.4701 20.2656C17.696 20.6795 16.9235 20.9 14.8344 20.9H9.16575C7.07668 20.9 6.30416 20.6795 5.53009 20.2656C4.75602 19.8516 4.14852 19.2441 3.73454 18.47C3.32056 17.6959 3.1001 16.9234 3.1001 14.8344V9.94583C3.1001 8.60855 3.23934 8.12363 3.5008 7.63474C3.76226 7.14585 4.14594 6.76217 4.63483 6.50071C5.12372 6.23924 5.60865 6.10001 6.94593 6.10001H7.0001C7.0001 3.33858 9.23867 1.10001 12.0001 1.10001ZM17.247 7.90078L6.94593 7.90001C5.99844 7.90001 5.7429 7.94935 5.48371 8.08797C5.3085 8.18167 5.18176 8.30841 5.08806 8.48362C4.94945 8.7428 4.9001 8.99834 4.9001 9.94583V14.8344C4.9001 16.4694 5.01062 17.0393 5.3218 17.6211C5.56802 18.0815 5.91858 18.4321 6.37897 18.6783C6.96082 18.9895 7.53073 19.1 9.16575 19.1H14.8344C16.4695 19.1 17.0394 18.9895 17.6212 18.6783C18.0816 18.4321 18.4322 18.0815 18.6784 17.6211C18.9896 17.0393 19.1001 16.4694 19.1001 14.8344V9.94583C19.1001 8.99834 19.0507 8.7428 18.9121 8.48362C18.8184 8.30841 18.6917 8.18167 18.5165 8.08797C18.2758 7.95925 18.0383 7.90751 17.247 7.90078ZM15.9461 9.00001C16.1515 9.00001 16.2942 9.03482 16.4164 9.10018C16.5386 9.16555 16.6346 9.26147 16.6999 9.38369C16.7653 9.50591 16.8001 9.64864 16.8001 9.85399V9.94602C16.8001 10.1514 16.7653 10.2941 16.6999 10.4163C16.6346 10.5385 16.5386 10.6345 16.4164 10.6998C16.2942 10.7652 16.1515 10.8 15.9461 10.8H15.8541C15.6487 10.8 15.506 10.7652 15.3838 10.6998C15.2616 10.6345 15.1656 10.5385 15.1003 10.4163C15.0349 10.2941 15.0001 10.1514 15.0001 9.94602V9.85399C15.0001 9.64864 15.0349 9.50591 15.1003 9.38369C15.1656 9.26147 15.2616 9.16555 15.3838 9.10018C15.506 9.03482 15.6487 9.00001 15.8541 9.00001H15.9461ZM7.94611 9.00001C8.15147 9.00001 8.29419 9.03482 8.41641 9.10018C8.53864 9.16555 8.63456 9.26147 8.69992 9.38369C8.76529 9.50591 8.8001 9.64864 8.8001 9.85399V9.94602C8.8001 10.1514 8.76529 10.2941 8.69992 10.4163C8.63456 10.5385 8.53864 10.6345 8.41641 10.6998C8.29419 10.7652 8.15147 10.8 7.94611 10.8H7.85409C7.64873 10.8 7.506 10.7652 7.38378 10.6998C7.26156 10.6345 7.16564 10.5385 7.10027 10.4163C7.03491 10.2941 7.0001 10.1514 7.0001 9.94602V9.85399C7.0001 9.64864 7.03491 9.50591 7.10027 9.38369C7.16564 9.26147 7.26156 9.16555 7.38378 9.10018C7.506 9.03482 7.64873 9.00001 7.85409 9.00001H7.94611ZM12.0001 2.90001C10.2328 2.90001 8.8001 4.3327 8.8001 6.10001H15.2001C15.2001 4.3327 13.7674 2.90001 12.0001 2.90001Z" fill="#023F80"/>
</svg>
