<svg width="24" height="24" viewBox="0 0 24 24" fill="none" xmlns="http://www.w3.org/2000/svg">
<path fill-rule="evenodd" clipRule="evenodd" d="M15.9945 4.9783C15.7877 4.91109 15.5008 4.89999 14.5001 4.89999H7.0001C6.28518 4.89999 5.80312 4.90069 5.43139 4.93106C5.07017 4.96058 4.89308 5.01356 4.77372 5.07438C4.47266 5.22778 4.22789 5.47255 4.07449 5.77361C4.01367 5.89297 3.96068 6.07006 3.93117 6.43128C3.91573 6.62029 3.90796 6.83783 3.90405 7.09999H17.0001L17.0369 7.09999H17.0369C17.0578 7.09999 17.0786 7.09999 17.0992 7.09999C17.0956 6.41601 17.079 6.18174 17.0218 6.00556C16.8635 5.51846 16.4816 5.13657 15.9945 4.9783ZM18.9002 7.15479C18.8996 6.46306 18.8866 5.92004 18.7337 5.44933C18.3974 4.41424 17.5858 3.60272 16.5508 3.2664C16.0352 3.09889 15.433 3.09934 14.6436 3.09992L14.5001 3.09999H7.0001L6.96335 3.09999C6.29455 3.09998 5.73856 3.09997 5.28482 3.13704C4.81228 3.17565 4.37194 3.25891 3.95653 3.47057C3.31678 3.79654 2.79665 4.31667 2.47068 4.95642C2.25902 5.37183 2.17576 5.81217 2.13715 6.28471C2.10008 6.73844 2.10009 7.2944 2.1001 7.96318V7.96324V7.99999V16V16.0367V16.0368C2.10009 16.7056 2.10008 17.2615 2.13715 17.7153C2.17576 18.1878 2.25902 18.6281 2.47068 19.0436C2.79665 19.6833 3.31678 20.2034 3.95653 20.5294C4.37194 20.7411 4.81228 20.8243 5.28482 20.8629C5.73856 20.9 6.29454 20.9 6.96334 20.9H7.0001H18.9273L17.9637 21.8636C17.6122 22.2151 17.6122 22.7849 17.9637 23.1364C18.3152 23.4879 18.885 23.4879 19.2365 23.1364L21.7365 20.6364C22.088 20.2849 22.088 19.7151 21.7365 19.3636L19.2365 16.8636C18.885 16.5121 18.3152 16.5121 17.9637 16.8636C17.6122 17.2151 17.6122 17.7849 17.9637 18.1364L18.9273 19.1H7.0001C6.28518 19.1 5.80312 19.0993 5.43139 19.0689C5.07017 19.0394 4.89308 18.9864 4.77372 18.9256C4.47266 18.7722 4.22789 18.5274 4.07449 18.2264C4.01367 18.107 3.96068 17.9299 3.93117 17.5687C3.9008 17.197 3.9001 16.7149 3.9001 16V8.89999H17.0001C17.715 8.89999 18.1971 8.90069 18.5688 8.93106C18.93 8.96058 19.1071 9.01356 19.2265 9.07438C19.5275 9.22778 19.7723 9.47255 19.9257 9.77361C19.9865 9.89297 20.0395 10.0701 20.069 10.4313C20.0994 10.803 20.1001 11.2851 20.1001 12V14.6C20.1001 15.097 20.503 15.5 21.0001 15.5C21.4972 15.5 21.9001 15.097 21.9001 14.6V12V11.9632C21.9001 11.2944 21.9001 10.7385 21.8631 10.2847C21.8244 9.81217 21.7412 9.37183 21.5295 8.95642C21.2036 8.31667 20.6834 7.79654 20.0437 7.47057C19.6829 7.28675 19.3033 7.19978 18.9002 7.15479ZM15.9001 13.1C15.403 13.1 15.0001 13.5029 15.0001 14C15.0001 14.497 15.403 14.9 15.9001 14.9H17.1001C17.5972 14.9 18.0001 14.497 18.0001 14C18.0001 13.5029 17.5972 13.1 17.1001 13.1H15.9001Z" fill="#023F80"/>
</svg>
