<svg width="24" height="24" viewBox="0 0 24 24" fill="none" xmlns="http://www.w3.org/2000/svg">
<path fill-rule="evenodd" clipRule="evenodd" d="M4.1001 6.20485C4.1001 5.05296 4.2135 4.46571 4.54038 3.8545C4.84214 3.29025 5.29035 2.84204 5.8546 2.54028C6.4188 2.23854 6.96258 2.1187 7.94889 2.10205L8.20495 2.09999L15.7952 2.09999L16.0513 2.10205C17.0376 2.1187 17.5814 2.23854 18.1456 2.54028C18.7098 2.84204 19.158 3.29025 19.4598 3.8545L19.5315 3.99539C19.8035 4.5594 19.9001 5.14157 19.9001 6.20485L19.9001 17.7951C19.9001 18.8584 19.8035 19.4406 19.5315 20.0046L19.4598 20.1455C19.1581 20.7097 18.7098 21.1579 18.1456 21.4597C17.5814 21.7614 17.0376 21.8813 16.0513 21.8979L15.7952 21.9L8.20495 21.9C7.05307 21.9 6.46582 21.7866 5.8546 21.4597C5.29035 21.1579 4.84215 20.7097 4.54038 20.1455C4.23865 19.5813 4.11881 19.0375 4.10216 18.0512L4.1001 17.7951L4.1001 6.20485ZM9.9001 3.90099L15.7952 3.9C16.6754 3.9 16.9819 3.95919 17.2967 4.12754C17.5473 4.26155 17.7385 4.45281 17.8725 4.70338C18.028 4.99396 18.0903 5.27749 18.099 6.01166L18.1001 6.20485L18.1001 17.7951L18.099 17.9883C18.0903 18.7225 18.028 19.006 17.8725 19.2966C17.7385 19.5472 17.5473 19.7384 17.2967 19.8724C16.9819 20.0408 16.6754 20.1 15.7952 20.1L9.9001 20.101L9.9001 3.90099ZM5.9001 17.7951L5.9001 6.20485L5.90117 6.01166C5.90985 5.27749 5.97224 4.99396 6.12764 4.70338C6.26165 4.45281 6.45291 4.26155 6.70348 4.12754C6.99406 3.97214 7.27759 3.90975 8.01176 3.90107L8.1001 3.90199L8.1001 20.1L8.01176 20.0989C7.27759 20.0902 6.99406 20.0279 6.70348 19.8724C6.45291 19.7384 6.26165 19.5472 6.12765 19.2966C5.95929 18.9818 5.9001 18.6753 5.9001 17.7951Z" fill="#023F80"/>
<path d="M14.8001 18C14.5201 18 14.3801 18 14.2731 17.9455C14.179 17.8976 14.1026 17.8211 14.0546 17.727C14.0001 17.62 14.0001 17.48 14.0001 17.2L14.0001 16.8C14.0001 16.52 14.0001 16.38 14.0546 16.273C14.1026 16.1789 14.179 16.1024 14.2731 16.0545C14.3801 16 14.5201 16 14.8001 16L15.2001 16C15.4801 16 15.6202 16 15.7271 16.0545C15.8212 16.1024 15.8977 16.1789 15.9456 16.273C16.0001 16.38 16.0001 16.52 16.0001 16.8L16.0001 17.2C16.0001 17.48 16.0001 17.62 15.9456 17.727C15.8977 17.8211 15.8212 17.8976 15.7271 17.9455C15.6202 18 15.4801 18 15.2001 18L14.8001 18Z" fill="#023F80"/>
</svg>
