<svg width="28" height="28" viewBox="0 0 28 28" fill="none" xmlns="http://www.w3.org/2000/svg">
<path d="M19.9945 4.85074C19.9182 3.81588 19.0544 3 18 3H10C8.89543 3 8 3.89543 8 5H20L19.9945 4.85074Z" fill="#023F80"/>
<path d="M15.6873 15.3631C16.1155 14.9349 16.1155 14.2407 15.6873 13.8126C15.2592 13.3844 14.565 13.3844 14.1368 13.8126L11.2558 16.6936C10.5913 17.358 10.0652 18.1476 9.70794 19.0167L9.52995 19.4496C9.49002 19.5467 9.49002 19.6557 9.52995 19.7528C9.61368 19.9565 9.84664 20.0537 10.0503 19.9699L10.4832 19.792C11.3523 19.4346 12.1419 18.9086 12.8063 18.2441L15.6873 15.3631Z" fill="#023F80"/>
<path d="M17.3038 11C17.9644 11 18.4999 11.5355 18.4999 12.1961C18.4999 12.8566 17.9644 13.3921 17.3038 13.3921C16.6433 13.3921 16.1078 12.8566 16.1078 12.1961C16.1078 11.5355 16.6433 11 17.3038 11Z" fill="#023F80"/>
<path d="M8.7587 7H19.2413C20.0463 6.99999 20.7106 6.99998 21.2518 7.04419C21.8139 7.09012 22.3306 7.18868 22.816 7.43598C23.5686 7.81947 24.1805 8.43139 24.564 9.18404C24.8113 9.66937 24.9099 10.1861 24.9558 10.7482C25 11.2894 25 11.9537 25 12.7587V13C25 13.5523 24.5523 14 24 14C23.4477 14 23 13.5523 23 13V12.8C23 11.9434 22.9992 11.3611 22.9624 10.911C22.9266 10.4726 22.8617 10.2484 22.782 10.092C22.5903 9.7157 22.2843 9.40973 21.908 9.21799C21.7516 9.1383 21.5274 9.07337 21.089 9.03755C20.6389 9.00078 20.0566 9 19.2 9H8.8C7.94342 9 7.36113 9.00078 6.91104 9.03755C6.47262 9.07337 6.24842 9.1383 6.09202 9.21799C5.7157 9.40973 5.40973 9.7157 5.21799 10.092C5.1383 10.2484 5.07337 10.4726 5.03755 10.911C5.00078 11.3611 5 11.9434 5 12.8V18.2C5 19.0566 5.00078 19.6389 5.03755 20.089C5.07337 20.5274 5.1383 20.7516 5.21799 20.908C5.40973 21.2843 5.7157 21.5903 6.09202 21.782C6.24842 21.8617 6.47262 21.9266 6.91104 21.9624C7.36113 21.9992 7.94342 22 8.8 22H14C14.5523 22 15 22.4477 15 23C15 23.5523 14.5523 24 14 24H8.75868C7.95372 24 7.28937 24 6.74818 23.9558C6.18608 23.9099 5.66937 23.8113 5.18404 23.564C4.43139 23.1805 3.81947 22.5686 3.43598 21.816C3.18868 21.3306 3.09012 20.8139 3.04419 20.2518C2.99998 19.7106 2.99999 19.0463 3 18.2413V12.7587C2.99999 11.9537 2.99998 11.2894 3.04419 10.7482C3.09012 10.1861 3.18868 9.66937 3.43598 9.18404C3.81947 8.43139 4.43139 7.81947 5.18404 7.43598C5.66937 7.18868 6.18608 7.09012 6.74818 7.04419C7.28937 6.99998 7.95373 6.99999 8.7587 7Z" fill="#023F80"/>
<path fill-rule="evenodd" clipRule="evenodd" d="M24.5 18.492C24.5 16.8365 23.1569 15.5 21.5 15.5L21.3241 15.5051C19.7521 15.5964 18.5 16.9029 18.5 18.5012V19.999L17.7519 20C17.3418 20 17 20.3402 17 20.7599V25.2401C17 25.6602 17.3366 26 17.7519 26H25.2481C25.6582 26 26 25.6598 26 25.2401V20.7599C26 20.3398 25.6634 20 25.2481 20L24.5 19.999V18.492ZM21.3546 17.0069L21.5 17C22.3284 17 23 17.6658 23 18.5V20H20V18.5C20 17.7203 20.5898 17.0796 21.3546 17.0069Z" fill="#023F80"/>
</svg>
