<svg width="28" height="28" viewBox="0 0 28 28" fill="none" xmlns="http://www.w3.org/2000/svg">
<path d="M15.5736 3.12976C15.5736 2.57748 16.0214 2.12976 16.5736 2.12976C21.7007 2.12976 25.857 6.28605 25.857 11.4131C25.857 11.9654 25.4093 12.4131 24.857 12.4131C24.3047 12.4131 23.857 11.9654 23.857 11.4131C23.857 7.39062 20.5961 4.12976 16.5736 4.12976C16.0214 4.12976 15.5736 3.68204 15.5736 3.12976Z" fill="#023F80"/>
<path fill-rule="evenodd" clipRule="evenodd" d="M13.3109 14.6976C13.8347 15.2215 14.2915 15.6188 14.6608 15.8894C16.784 13.766 20.0879 13.5724 22.3118 15.4421L23.3353 16.3044C25.3645 18.0122 25.5675 21.0553 23.8241 23.1023C22.9288 24.138 21.6686 24.7886 20.3828 24.9099C16.4007 25.4463 12.3961 23.6067 8.39906 19.6094C4.40196 15.6119 2.56171 11.6062 3.0881 7.71369C3.12511 7.30008 3.21106 6.89233 3.34556 6.49482C3.65106 5.59839 4.19036 4.79979 4.91787 4.17285C6.95514 2.44062 9.99669 2.64355 11.7033 4.67347L12.5638 5.6962C14.4359 7.91653 14.2441 11.223 12.1638 13.3035C12.3897 13.7169 12.7869 14.1735 13.3109 14.6976ZM16.1196 17.259L15.3856 17.9931C15.1895 18.1894 14.8972 18.254 14.6367 18.1586C13.9066 17.8901 12.9932 17.2085 11.8966 16.1118C10.801 15.016 10.1184 14.1026 9.85097 13.3715C9.75528 13.1111 9.81945 12.8188 10.0154 12.6225L10.7505 11.8884C12.1046 10.5341 12.2285 8.40114 11.0348 6.98543L10.1729 5.96104C9.18924 4.79103 7.41702 4.67313 6.21341 5.69653C5.76578 6.0823 5.42927 6.58062 5.23864 7.13998C5.15626 7.38347 5.10305 7.63588 5.08014 7.89192C4.63932 11.1642 6.21738 14.599 9.81333 18.1952C13.4093 21.7914 16.8428 23.3686 20.1158 22.9278C20.9661 22.8466 21.7524 22.4407 22.311 21.7944C23.3353 20.5917 23.2164 18.8184 22.0475 17.8346L21.0232 16.9717C19.6056 15.7799 17.4738 15.9047 16.1196 17.259Z" fill="#023F80"/>
<path d="M19.6007 10.8953C20.2088 10.8273 20.6185 10.2265 20.3277 9.68804C19.8639 8.82904 19.1564 8.12234 18.2969 7.65943C17.7583 7.36942 17.158 7.77928 17.0903 8.38717L16.9142 9.96757C16.8432 10.6049 17.3819 11.1434 18.0192 11.0721L19.6007 10.8953Z" fill="#023F80"/>
</svg>
