<svg width="28" height="28" viewBox="0 0 28 28" fill="none" xmlns="http://www.w3.org/2000/svg">
<path fill-rule="evenodd" clipRule="evenodd" d="M21.912 3.78431C20.8787 3.2317 19.8822 3.02068 17.924 3H10.0726C8.11438 3.02068 7.11786 3.2317 6.08458 3.78431C5.09549 4.31328 4.31328 5.09549 3.78431 6.08458C3.2317 7.11786 3.02068 8.11438 3 10.0726V17.924C3.02068 19.8822 3.2317 20.8787 3.78431 21.912C4.31328 22.9011 5.09549 23.6833 6.08458 24.2123C7.11786 24.7649 8.11438 24.9759 10.0726 24.9966H17.924C19.8822 24.9759 20.8787 24.7649 21.912 24.2123C22.9011 23.6833 23.6833 22.9011 24.2123 21.912C24.7649 20.8787 24.9759 19.8822 24.9966 17.924V10.0726C24.9759 8.11438 24.7649 7.11786 24.2123 6.08458C23.6833 5.09549 22.9011 4.31328 21.912 3.78431ZM10.408 4.99829H17.5886L18.146 5.00317C19.6252 5.03122 20.2876 5.18363 20.9688 5.54793C21.6094 5.8905 22.1061 6.38723 22.4486 7.02777C22.813 7.70897 22.9654 8.37134 22.9934 9.85062L22.9983 10.408V17.5886L22.9934 18.146C22.9654 19.6252 22.813 20.2876 22.4486 20.9688C22.1061 21.6094 21.6094 22.1061 20.9688 22.4486C20.2876 22.813 19.6252 22.9654 18.146 22.9934L17.5886 22.9983H10.408L9.85062 22.9934C8.37134 22.9654 7.70897 22.813 7.02777 22.4486C6.38723 22.1061 5.8905 21.6094 5.54793 20.9688C5.18363 20.2876 5.03122 19.6252 5.00317 18.146L4.99829 17.5886V10.408L5.00317 9.85062C5.03122 8.37134 5.18363 7.70897 5.54793 7.02777C5.8905 6.38723 6.38723 5.8905 7.02777 5.54793C7.70897 5.18363 8.37134 5.03122 9.85062 5.00317L10.408 4.99829ZM19 14C19 16.419 17.2822 18.4367 15 18.9V18.8C15 18.52 15 18.38 14.9455 18.273C14.8976 18.1789 14.8211 18.1024 14.727 18.0545C14.62 18 14.48 18 14.2 18H13.8C13.52 18 13.38 18 13.273 18.0545C13.1789 18.1024 13.1024 18.1789 13.0545 18.273C13 18.38 13 18.52 13 18.8V18.9C10.7178 18.4367 9 16.419 9 14C9 11.581 10.7178 9.56329 13 9.10002V9.2C13 9.48003 13 9.62004 13.0545 9.727C13.1024 9.82108 13.1789 9.89757 13.273 9.9455C13.38 10 13.52 10 13.8 10H14.2C14.48 10 14.62 10 14.727 9.9455C14.8211 9.89757 14.8976 9.82108 14.9455 9.727C15 9.62004 15 9.48003 15 9.2V9.10002C17.2822 9.56329 19 11.581 19 14ZM21 14C21 17.866 17.866 21 14 21C10.134 21 7 17.866 7 14C7 10.134 10.134 7 14 7C17.866 7 21 10.134 21 14ZM12 13C11.4477 13 11 13.4477 11 14C11 14.5523 11.4477 15 12 15C12.5523 15 13 14.5523 13 14C13 13.4477 12.5523 13 12 13ZM15 14C15 13.4477 15.4477 13 16 13C16.5523 13 17 13.4477 17 14C17 14.5523 16.5523 15 16 15C15.4477 15 15 14.5523 15 14Z" fill="#023F80"/>
</svg>
