<svg width="24" height="24" viewBox="0 0 24 24" fill="none" xmlns="http://www.w3.org/2000/svg">
<path d="M15.3634 2.57153C17.0419 2.58926 17.896 2.77014 18.7817 3.2438C19.6295 3.6972 20.3 4.36767 20.7534 5.21546C21.227 6.10113 21.4079 6.95529 21.4256 8.63373V15.3635C21.4079 17.042 21.227 17.8962 20.7534 18.7818C20.3 19.6296 19.6295 20.3001 18.7817 20.7535C17.896 21.2271 17.0419 21.408 15.3634 21.4257H8.63361C6.95517 21.408 6.101 21.2271 5.21533 20.7535C4.36755 20.3001 3.69708 19.6296 3.24368 18.7818C2.77001 17.8962 2.58914 17.042 2.57141 15.3635V8.63373C2.58914 6.95529 2.77001 6.10113 3.24368 5.21546C3.69708 4.36767 4.36755 3.6972 5.21533 3.2438C6.101 2.77014 6.95517 2.58926 8.63361 2.57153H15.3634ZM15.0759 4.28435H8.92113L8.44337 4.28853C7.17541 4.31258 6.60767 4.44321 6.02379 4.75548C5.47475 5.04911 5.04898 5.47487 4.75536 6.02391C4.44309 6.60779 4.31246 7.17553 4.28841 8.44349L4.28423 8.92125V15.076L4.28841 15.5538C4.31246 16.8217 4.44309 17.3895 4.75536 17.9734C5.04898 18.5224 5.47475 18.9482 6.02379 19.2418C6.60767 19.5541 7.17541 19.6847 8.44337 19.7087L8.92113 19.7129H15.0759L15.5537 19.7087C16.8216 19.6847 17.3894 19.5541 17.9732 19.2418C18.5223 18.9482 18.948 18.5224 19.2417 17.9734C19.5539 17.3895 19.6846 16.8217 19.7086 15.5538L19.7128 15.076V8.92125L19.7086 8.44349C19.6846 7.17553 19.5539 6.60779 19.2417 6.02391C18.948 5.47487 18.5223 5.04911 17.9732 4.75548C17.3894 4.44321 16.8216 4.31258 15.5537 4.28853L15.0759 4.28435ZM12.2993 8.34931C12.6587 8.04124 13.1998 8.08286 13.5079 8.44228L16.0793 11.4423C16.0815 11.4448 16.0836 11.4473 16.0857 11.4498C16.121 11.4919 16.1524 11.5375 16.1791 11.5859C16.3212 11.8432 16.3212 12.157 16.1792 12.4141C16.1524 12.4628 16.121 12.5083 16.0857 12.5504L16.0793 12.5579L13.5079 15.5579C13.1998 15.9173 12.6587 15.959 12.2993 15.6509C11.9399 15.3428 11.8983 14.8017 12.2063 14.4423L13.5643 12.8572H8.57141C8.09802 12.8572 7.71427 12.4735 7.71427 12.0001C7.71427 11.5267 8.09802 11.143 8.57141 11.143H13.5643L12.2063 9.55793C11.922 9.22615 11.9355 8.73956 12.222 8.42436L12.2993 8.34931Z" fill="#023F80"/>
</svg>
