<svg width="24" height="24" viewBox="0 0 24 24" fill="none" xmlns="http://www.w3.org/2000/svg">
<path d="M13.0332 1.81896C13.3805 1.89901 13.6943 2.02898 13.9964 2.21797C14.3015 2.40874 14.5356 2.60915 15.0184 3.09202L19.1938 7.26737C19.6766 7.75023 19.8771 7.98431 20.0678 8.28936C20.2568 8.59154 20.3868 8.90532 20.4668 9.25263C20.5476 9.60323 20.5714 9.91046 20.5714 10.5933V16.484C20.5714 18.181 20.4125 19.0041 19.955 19.8596C19.5389 20.6376 18.9232 21.2532 18.1453 21.6693C17.2898 22.1268 16.4666 22.2858 14.7697 22.2858H9.23037C7.53339 22.2858 6.71023 22.1268 5.85473 21.6693C5.07679 21.2532 4.46113 20.6376 4.04508 19.8596C3.58755 19.0041 3.42859 18.181 3.42859 16.484V6.91374C3.42859 5.81244 3.62718 4.92189 4.04508 4.1405C4.46113 3.36255 5.07679 2.74689 5.85473 2.33084C6.63612 1.91295 7.52667 1.71436 8.62798 1.71436H11.6925C12.3753 1.71436 12.6826 1.73816 13.0332 1.81896ZM11.851 3.4291L8.62798 3.42864C7.79512 3.42864 7.181 3.56559 6.66318 3.84252C6.18399 4.0988 5.81303 4.46975 5.55676 4.94895C5.27982 5.46677 5.14287 6.08088 5.14287 6.91374V16.484C5.14287 17.9222 5.25021 18.478 5.55676 19.0512C5.81303 19.5304 6.18399 19.9013 6.66318 20.1576C7.23638 20.4642 7.79219 20.5715 9.23037 20.5715H14.7697C16.2078 20.5715 16.7636 20.4642 17.3368 20.1576C17.816 19.9013 18.187 19.5304 18.4433 19.0512C18.7498 18.478 18.8572 17.9222 18.8572 16.484V10.5933C18.8572 10.4756 18.8565 10.3742 18.8551 10.2854L14.1429 10.2858C12.9594 10.2858 12 9.32639 12 8.14293L12.0013 3.43074C11.9549 3.42999 11.9049 3.42945 11.851 3.4291ZM13.8063 4.3042L13.7143 4.21293V8.14293C13.7143 8.35332 13.8659 8.5283 14.0658 8.56459L14.1429 8.5715L18.0749 8.57326C18.0455 8.54364 18.0145 8.51245 17.9816 8.47955L13.8063 4.3042Z" fill="#023F80"/>
</svg>
