<svg width="24" height="24" viewBox="0 0 24 24" fill="none" xmlns="http://www.w3.org/2000/svg">
<path fill-rule="evenodd" clipRule="evenodd" d="M15.9429 2.57131H18.3429L18.3825 2.5713C18.5867 2.57122 18.8306 2.57113 19.0454 2.58868C19.2944 2.60902 19.6509 2.66121 20.0245 2.85158C20.5084 3.09811 20.9018 3.49149 21.1483 3.97533C21.3387 4.34896 21.3909 4.70551 21.4112 4.95446C21.4288 5.16928 21.4287 5.41313 21.4286 5.61732L21.4286 5.65702V6.34274L21.4286 6.38241C21.4287 6.5866 21.4288 6.83049 21.4112 7.04531C21.3909 7.29425 21.3387 7.65081 21.1483 8.02443C20.9018 8.50827 20.5084 8.90165 20.0245 9.14818C19.6509 9.33855 19.2944 9.39074 19.0454 9.41108C18.8306 9.42863 18.5867 9.42854 18.3825 9.42846L18.3429 9.42845H15.9429L15.9032 9.42846C15.699 9.42854 15.4551 9.42863 15.2403 9.41108C14.9913 9.39074 14.6348 9.33855 14.2612 9.14818C13.7773 8.90165 13.3839 8.50827 13.1374 8.02443C12.947 7.65081 12.8949 7.29425 12.8745 7.04531C12.857 6.83047 12.8571 6.5866 12.8571 6.38241L12.8571 6.34274V5.65702L12.8571 5.61736C12.8571 5.41316 12.857 5.16929 12.8745 4.95446C12.8949 4.70551 12.947 4.34896 13.1374 3.97533C13.3839 3.49149 13.7773 3.09811 14.2612 2.85158C14.6348 2.66121 14.9913 2.60902 15.2403 2.58868C15.4551 2.57113 15.699 2.57122 15.9032 2.5713L15.9429 2.57131ZM14.6649 4.7536C14.5714 4.93696 14.5714 5.17698 14.5714 5.65702V6.34274C14.5714 6.82278 14.5714 7.06281 14.6649 7.24616C14.747 7.40744 14.8782 7.53857 15.0394 7.62074C15.2228 7.71417 15.4628 7.71417 15.9429 7.71417H18.3429C18.8229 7.71417 19.0629 7.71417 19.2463 7.62074C19.4076 7.53857 19.5387 7.40744 19.6209 7.24616C19.7143 7.06281 19.7143 6.82279 19.7143 6.34276V5.65702C19.7143 5.177 19.7143 4.93695 19.6209 4.7536C19.5387 4.59232 19.4076 4.4612 19.2463 4.37902C19.0629 4.2856 18.8229 4.2856 18.3429 4.2856H15.9429C15.4628 4.2856 15.2228 4.2856 15.0394 4.37902C14.8782 4.4612 14.747 4.59232 14.6649 4.7536ZM8.05715 14.5713H5.65715L5.61748 14.5713C5.41328 14.5712 5.16941 14.5711 4.95458 14.5887C4.70564 14.609 4.34908 14.6612 3.97546 14.8516C3.49161 15.0981 3.09823 15.4915 2.8517 15.9753C2.66133 16.349 2.60914 16.7055 2.5888 16.9545C2.57125 17.1693 2.57134 17.4132 2.57142 17.6174L2.57143 17.657V18.3427L2.57142 18.3824C2.57134 18.5866 2.57125 18.8305 2.5888 19.0453C2.60914 19.2942 2.66133 19.6508 2.8517 20.0244C3.09823 20.5083 3.49161 20.9016 3.97546 21.1482C4.34908 21.3386 4.70564 21.3907 4.95458 21.4111C5.1694 21.4286 5.41325 21.4285 5.61744 21.4285L5.65715 21.4284H8.05715L8.09681 21.4285C8.301 21.4285 8.54489 21.4286 8.75971 21.4111C9.00866 21.3907 9.36521 21.3386 9.73884 21.1482C10.2227 20.9016 10.6161 20.5083 10.8626 20.0244C11.053 19.6508 11.1051 19.2942 11.1255 19.0453C11.143 18.8305 11.1429 18.5866 11.1429 18.3824L11.1429 18.3427V17.657L11.1429 17.6174C11.1429 17.4132 11.143 17.1693 11.1255 16.9545C11.1051 16.7055 11.053 16.349 10.8626 15.9753C10.6161 15.4915 10.2227 15.0981 9.73884 14.8516C9.36521 14.6612 9.00866 14.609 8.75971 14.5887C8.54488 14.5711 8.30101 14.5712 8.09681 14.5713L8.05715 14.5713ZM4.28572 17.657C4.28572 17.177 4.28572 16.937 4.37914 16.7536C4.46132 16.5923 4.59244 16.4612 4.75373 16.379C4.93708 16.2856 5.1771 16.2856 5.65715 16.2856H8.05715C8.53719 16.2856 8.77721 16.2856 8.96057 16.379C9.12185 16.4612 9.25297 16.5923 9.33515 16.7536C9.42857 16.937 9.42857 17.177 9.42857 17.657V18.3427C9.42857 18.8228 9.42857 19.0628 9.33515 19.2462C9.25297 19.4074 9.12185 19.5386 8.96057 19.6207C8.77722 19.7142 8.5372 19.7142 8.05717 19.7142H5.65715C5.17712 19.7142 4.93708 19.7142 4.75373 19.6207C4.59244 19.5386 4.46132 19.4074 4.37914 19.2462C4.28572 19.0628 4.28572 18.8228 4.28572 18.3427V17.657ZM18.3429 11.1427H15.9429L15.9032 11.1427C15.699 11.1426 15.4551 11.1426 15.2403 11.1601C14.9913 11.1804 14.6348 11.2326 14.2612 11.423C13.7773 11.6695 13.3839 12.0629 13.1374 12.5468C12.947 12.9204 12.8949 13.2769 12.8745 13.5259C12.857 13.7407 12.8571 13.9846 12.8571 14.1888L12.8571 14.2285V18.3427L12.8571 18.3824C12.8571 18.5866 12.857 18.8305 12.8745 19.0453C12.8949 19.2942 12.947 19.6508 13.1374 20.0244C13.3839 20.5083 13.7773 20.9016 14.2612 21.1482C14.6348 21.3386 14.9913 21.3907 15.2403 21.4111C15.4551 21.4286 15.699 21.4285 15.9032 21.4285L15.9429 21.4284H18.3429L18.3825 21.4285C18.5867 21.4285 18.8306 21.4286 19.0454 21.4111C19.2944 21.3907 19.6509 21.3386 20.0245 21.1482C20.5084 20.9016 20.9018 20.5083 21.1483 20.0244C21.3387 19.6508 21.3909 19.2942 21.4112 19.0453C21.4288 18.8305 21.4287 18.5866 21.4286 18.3824L21.4286 18.3427V14.2285L21.4286 14.1888C21.4287 13.9846 21.4288 13.7407 21.4112 13.5259C21.3909 13.2769 21.3387 12.9204 21.1483 12.5468C20.9018 12.0629 20.5084 11.6695 20.0245 11.423C19.6509 11.2326 19.2944 11.1804 19.0454 11.1601C18.8306 11.1426 18.5867 11.1426 18.3825 11.1427L18.3429 11.1427ZM14.5714 14.2285C14.5714 13.7484 14.5714 13.5084 14.6649 13.325C14.747 13.1637 14.8782 13.0326 15.0394 12.9504C15.2228 12.857 15.4628 12.857 15.9429 12.857H18.3429C18.8229 12.857 19.0629 12.857 19.2463 12.9504C19.4076 13.0326 19.5387 13.1637 19.6209 13.325C19.7143 13.5084 19.7143 13.7484 19.7143 14.2284V18.3427C19.7143 18.8228 19.7143 19.0628 19.6209 19.2462C19.5387 19.4074 19.4076 19.5386 19.2463 19.6207C19.0629 19.7142 18.8229 19.7142 18.3429 19.7142H15.9429C15.4628 19.7142 15.2228 19.7142 15.0394 19.6207C14.8782 19.5386 14.747 19.4074 14.6649 19.2462C14.5714 19.0628 14.5714 18.8228 14.5714 18.3427V14.2285ZM8.05715 2.57131H5.65715L5.61748 2.5713C5.41328 2.57122 5.16941 2.57113 4.95458 2.58868C4.70564 2.60902 4.34908 2.66121 3.97546 2.85158C3.49161 3.09811 3.09823 3.49149 2.8517 3.97533C2.66133 4.34896 2.60914 4.70551 2.5888 4.95446C2.57125 5.16929 2.57134 5.41316 2.57142 5.61736L2.57143 5.65702V9.77131L2.57142 9.81098C2.57134 10.0152 2.57125 10.259 2.5888 10.4739C2.60914 10.7228 2.66133 11.0794 2.8517 11.453C3.09823 11.9368 3.49161 12.3302 3.97546 12.5768C4.34908 12.7671 4.70564 12.8193 4.95458 12.8397C5.16941 12.8572 5.41328 12.8571 5.61748 12.857L5.65715 12.857H8.05715L8.09681 12.857C8.30101 12.8571 8.54488 12.8572 8.75971 12.8397C9.00866 12.8193 9.36521 12.7671 9.73884 12.5768C10.2227 12.3302 10.6161 11.9368 10.8626 11.453C11.053 11.0794 11.1051 10.7228 11.1255 10.4739C11.143 10.259 11.1429 10.0152 11.1429 9.81098L11.1429 9.77131V5.65702L11.1429 5.61736C11.1429 5.41316 11.143 5.16929 11.1255 4.95446C11.1051 4.70551 11.053 4.34896 10.8626 3.97533C10.6161 3.49149 10.2227 3.09811 9.73884 2.85158C9.36521 2.66121 9.00866 2.60902 8.75971 2.58868C8.54488 2.57113 8.30101 2.57122 8.09681 2.5713L8.05715 2.57131ZM4.28572 5.65702C4.28572 5.17698 4.28572 4.93696 4.37914 4.7536C4.46132 4.59232 4.59244 4.4612 4.75373 4.37902C4.93708 4.2856 5.1771 4.2856 5.65715 4.2856H8.05715C8.53719 4.2856 8.77721 4.2856 8.96057 4.37902C9.12185 4.4612 9.25297 4.59232 9.33515 4.7536C9.42857 4.93696 9.42857 5.17698 9.42857 5.65702V9.77131C9.42857 10.2514 9.42857 10.4914 9.33515 10.6747C9.25297 10.836 9.12185 10.9671 8.96057 11.0493C8.77721 11.1427 8.53719 11.1427 8.05715 11.1427H5.65715C5.1771 11.1427 4.93708 11.1427 4.75373 11.0493C4.59244 10.9671 4.46132 10.836 4.37914 10.6747C4.28572 10.4914 4.28572 10.2514 4.28572 9.77131V5.65702Z" fill="#023F80"/>
</svg>
