<svg width="28" height="28" viewBox="0 0 28 28" fill="none" xmlns="http://www.w3.org/2000/svg">
<path fill-rule="evenodd" clipRule="evenodd" d="M14.6366 6.10401C14.2235 5.96533 13.7765 5.96533 13.3634 6.10401C13.1929 6.16126 12.9829 6.28132 12.6388 6.58719C12.2864 6.90051 11.8653 7.34139 11.2483 7.9893L7.72414 11.6896C7.5354 11.8878 7.27368 12 7 12H4V19C4 19.7166 4.00078 20.1938 4.03074 20.5606C4.05975 20.9156 4.11105 21.0781 4.16349 21.181C4.3073 21.4632 4.53677 21.6927 4.81902 21.8365C4.92194 21.8889 5.0844 21.9402 5.43944 21.9693C5.80615 21.9992 6.28344 22 7 22H10.5V18.5C10.5 16.567 12.067 15 14 15C15.933 15 17.5 16.567 17.5 18.5V22H21C21.7166 22 22.1939 21.9992 22.5606 21.9693C22.9156 21.9402 23.0781 21.8889 23.181 21.8365C23.4632 21.6927 23.6927 21.4632 23.8365 21.181C23.889 21.0781 23.9403 20.9156 23.9693 20.5606C23.9992 20.1938 24 19.7166 24 19V12H21C20.7263 12 20.4646 11.8878 20.2759 11.6896L16.7517 7.9893C16.1347 7.34139 15.7137 6.9005 15.3612 6.58719C15.0171 6.28132 14.8071 6.16126 14.6366 6.10401ZM15.5 18.5V22H12.5V18.5C12.5 17.6716 13.1716 17 14 17C14.8284 17 15.5 17.6716 15.5 18.5ZM7 24H11.5H16.5H21H21.0402H21.0402H21.0402C21.7061 24 22.2656 24 22.7234 23.9626C23.2022 23.9235 23.6571 23.8386 24.089 23.6185C24.7475 23.283 25.283 22.7475 25.6185 22.089C25.8386 21.6571 25.9235 21.2021 25.9626 20.7234C26 20.2656 26 19.7061 26 19.0402V19.0402V19.0402V19V11V10.9598V10.9598V10.9597C26 10.2939 26 9.73441 25.9626 9.27656C25.9235 8.79784 25.8386 8.34288 25.6185 7.91103C25.283 7.25246 24.7475 6.71702 24.089 6.38146C23.6571 6.16142 23.2022 6.07648 22.7234 6.03737C22.2656 5.99996 21.706 5.99997 21.0402 5.99998L21 5.99998L17.6166 5.99998C17.2741 5.64551 16.9697 5.34112 16.69 5.09244C16.2525 4.70348 15.8074 4.38739 15.2731 4.20801C14.447 3.93066 13.553 3.93066 12.7269 4.20801C12.1926 4.38739 11.7475 4.70348 11.31 5.09244C11.0303 5.34112 10.7259 5.64551 10.3834 5.99999H6.99999L6.95983 5.99999C6.29397 5.99998 5.73445 5.99996 5.27658 6.03737C4.79786 6.07648 4.3429 6.16142 3.91105 6.38146C3.25247 6.71702 2.71703 7.25246 2.38147 7.91104C2.16143 8.34289 2.0765 8.79785 2.03738 9.27657C1.99998 9.73442 1.99999 10.2939 2 10.9597V10.9598L2 11V19L2 19.0401V19.0402C1.99999 19.7061 1.99998 20.2656 2.03738 20.7234C2.0765 21.2021 2.16144 21.6571 2.38148 22.089C2.71704 22.7475 3.25247 23.283 3.91104 23.6185C4.34289 23.8386 4.79785 23.9235 5.27658 23.9626C5.73443 24 6.29393 24 6.95976 24H6.95979H6.95982H7ZM23.9943 9.99998C23.99 9.78428 23.9825 9.60111 23.9693 9.43942C23.9403 9.08439 23.889 8.92193 23.8365 8.81901C23.6927 8.53676 23.4632 8.30729 23.181 8.16348C23.0781 8.11104 22.9156 8.05973 22.5606 8.03073C22.1939 8.00076 21.7166 7.99999 21 7.99998L19.5238 7.99998L21.4286 9.99998H23.9943ZM8.47619 7.99999H6.99999C6.28343 7.99999 5.80615 8.00077 5.43944 8.03073C5.0844 8.05974 4.92194 8.11104 4.81902 8.16348C4.53678 8.30729 4.3073 8.53676 4.16349 8.81901C4.11105 8.92193 4.05975 9.08439 4.03074 9.43943C4.01753 9.60111 4.01 9.78428 4.0057 9.99998H6.57143L8.47619 7.99999ZM14 8.99999C13.1716 8.99999 12.5 9.67157 12.5 10.5C12.5 11.3284 13.1716 12 14 12C14.8284 12 15.5 11.3284 15.5 10.5C15.5 9.67157 14.8284 8.99999 14 8.99999Z" fill="#023F80"/>
</svg>
