<svg width="24" height="24" viewBox="0 0 24 24" fill="none" xmlns="http://www.w3.org/2000/svg">
<path fill-rule="evenodd" clipRule="evenodd" d="M13.7944 4.69014L13.818 4.66657L14.6665 3.81804L14.6901 3.79447C14.9669 3.51762 15.2119 3.2726 15.4315 3.08614C15.6654 2.88758 15.9291 2.70314 16.2583 2.59616C16.7403 2.43954 17.2596 2.43954 17.7416 2.59616C18.0708 2.70314 18.3345 2.88758 18.5684 3.08614C18.788 3.2726 19.033 3.51762 19.3098 3.79447L19.3334 3.81804L20.1819 4.66657L20.2055 4.69014L20.2055 4.69019C20.4824 4.96699 20.7274 5.21197 20.9138 5.43159C21.1124 5.66548 21.2968 5.92914 21.4038 6.25838C21.5604 6.7404 21.5604 7.25964 21.4038 7.74166C21.2968 8.0709 21.1124 8.33456 20.9138 8.56844C20.7274 8.78808 20.4823 9.03308 20.2055 9.3099L20.1819 9.33347L19.3334 10.182L19.3098 10.2056C19.033 10.4824 18.788 10.7274 18.5684 10.9139C18.3345 11.1125 18.0708 11.2969 17.7416 11.4039C17.2596 11.5605 16.7403 11.5605 16.2583 11.4039C15.9291 11.2969 15.6654 11.1125 15.4315 10.9139C15.2119 10.7274 14.9669 10.4824 14.6901 10.2056L14.6665 10.182L13.818 9.33347L13.7944 9.3099L13.7944 9.30989L13.7943 9.30985C13.5175 9.03305 13.2725 8.78807 13.0861 8.56844C12.8875 8.33456 12.7031 8.0709 12.5961 7.74166C12.4395 7.25964 12.4395 6.7404 12.5961 6.25838C12.7031 5.92913 12.8875 5.66548 13.0861 5.43159C13.2725 5.21196 13.5175 4.96697 13.7944 4.69015L13.7944 4.69014ZM14.4583 6.59651C14.332 6.74526 14.3123 6.80136 14.308 6.81461C14.2688 6.93511 14.2688 7.06492 14.308 7.18543C14.3123 7.19868 14.332 7.25478 14.4583 7.40353C14.5914 7.56031 14.7832 7.75317 15.0908 8.06068L15.9393 8.90921C16.2468 9.21672 16.4397 9.40859 16.5964 9.54169C16.7452 9.66796 16.8013 9.68767 16.8145 9.69197C16.935 9.73113 17.0648 9.73113 17.1854 9.69197C17.1986 9.68767 17.2547 9.66796 17.4035 9.54169C17.5602 9.40859 17.7531 9.21672 18.0606 8.90921L18.9091 8.06068C19.2166 7.75317 19.4085 7.56031 19.5416 7.40353C19.6679 7.25478 19.6876 7.19868 19.6919 7.18543C19.7311 7.06492 19.7311 6.93511 19.6919 6.81461C19.6876 6.80136 19.6679 6.74526 19.5416 6.59651C19.4085 6.43973 19.2166 6.24687 18.9091 5.93936L18.0606 5.09083C17.7531 4.78332 17.5602 4.59145 17.4035 4.45835C17.2547 4.33207 17.1986 4.31237 17.1854 4.30806C17.0648 4.26891 16.935 4.26891 16.8145 4.30806C16.8013 4.31237 16.7452 4.33207 16.5964 4.45835C16.4397 4.59145 16.2468 4.78332 15.9393 5.09083L15.0908 5.93936C14.7832 6.24687 14.5914 6.43973 14.4583 6.59651ZM7.59998 10.9L7.63331 10.9C8.02482 10.9 8.37131 10.9001 8.65846 10.8766C8.96425 10.8516 9.2811 10.7956 9.58956 10.6384C10.0411 10.4083 10.4083 10.0412 10.6384 9.5896C10.7956 9.28114 10.8516 8.96429 10.8766 8.6585C10.9 8.37136 10.9 8.02488 10.9 7.63338V7.63337V7.63336V7.63335L10.9 7.60002V6.40002L10.9 6.36669C10.9 5.97518 10.9 5.62869 10.8766 5.34153C10.8516 5.03575 10.7956 4.7189 10.6384 4.41044C10.4083 3.95885 10.0411 3.5917 9.58956 3.3616C9.2811 3.20444 8.96425 3.14843 8.65846 3.12344C8.37131 3.09998 8.02483 3.1 7.63332 3.10002H7.63332L7.59998 3.10002L6.39998 3.10002L6.36664 3.10002H6.36663C5.97513 3.1 5.62865 3.09998 5.34149 3.12344C5.03571 3.14843 4.71886 3.20444 4.4104 3.3616C3.95881 3.5917 3.59166 3.95885 3.36156 4.41044C3.2044 4.7189 3.14839 5.03575 3.1234 5.34153C3.09994 5.62867 3.09996 5.97514 3.09998 6.36661V6.36668L3.09998 6.40002L3.09998 7.60002L3.09998 7.63335V7.63342C3.09996 8.0249 3.09994 8.37137 3.1234 8.6585C3.14839 8.96429 3.2044 9.28114 3.36156 9.5896C3.59166 10.0412 3.95881 10.4083 4.4104 10.6384C4.71886 10.7956 5.03571 10.8516 5.34149 10.8766C5.62865 10.9001 5.97514 10.9 6.36664 10.9L6.39998 10.9H7.59998ZM8.77237 9.03462C8.75996 9.04095 8.70636 9.06668 8.51189 9.08257C8.30691 9.09932 8.03487 9.10002 7.59998 9.10002L6.39998 9.10002C5.96509 9.10002 5.69305 9.09932 5.48807 9.08257C5.2936 9.06668 5.24 9.04095 5.22758 9.03462C5.11469 8.9771 5.0229 8.88531 4.96537 8.77241C4.95905 8.76 4.93331 8.7064 4.91743 8.51193C4.90068 8.30695 4.89998 8.03491 4.89998 7.60002L4.89998 6.40002C4.89998 5.96513 4.90068 5.69309 4.91743 5.48811C4.93331 5.29364 4.95905 5.24004 4.96537 5.22762C5.0229 5.11473 5.11469 5.02294 5.22758 4.96541C5.24 4.95909 5.2936 4.93335 5.48807 4.91747C5.69305 4.90072 5.96509 4.90002 6.39998 4.90002H7.59998C8.03487 4.90002 8.30691 4.90072 8.51189 4.91747C8.70636 4.93335 8.75996 4.95909 8.77237 4.96542C8.88527 5.02294 8.97706 5.11473 9.03458 5.22762C9.04091 5.24004 9.06664 5.29364 9.08253 5.48811C9.09928 5.69309 9.09998 5.96513 9.09998 6.40002L9.09998 7.60002C9.09998 8.03491 9.09928 8.30695 9.08253 8.51193C9.06664 8.7064 9.04091 8.76 9.03458 8.77241C8.97706 8.88531 8.88527 8.9771 8.77237 9.03462ZM7.59998 20.9L7.63331 20.9H7.63341C8.02488 20.9 8.37133 20.9001 8.65846 20.8766C8.96425 20.8516 9.2811 20.7956 9.58956 20.6384C10.0411 20.4083 10.4083 20.0412 10.6384 19.5896C10.7956 19.2811 10.8516 18.9643 10.8766 18.6585C10.9 18.3714 10.9 18.0249 10.9 17.6334V17.6334V17.6334V17.6334L10.9 17.6V16.4L10.9 16.3667C10.9 15.9752 10.9 15.6287 10.8766 15.3415C10.8516 15.0357 10.7956 14.7189 10.6384 14.4104C10.4083 13.9589 10.0411 13.5917 9.58956 13.3616C9.2811 13.2044 8.96425 13.1484 8.65846 13.1234C8.37133 13.1 8.02486 13.1 7.63339 13.1H7.63338H7.63337H7.63331L7.59998 13.1H6.39998L6.36664 13.1H6.36659H6.36658H6.36657C5.97509 13.1 5.62863 13.1 5.34149 13.1234C5.03571 13.1484 4.71886 13.2044 4.4104 13.3616C3.95881 13.5917 3.59166 13.9589 3.36156 14.4104C3.2044 14.7189 3.14839 15.0357 3.1234 15.3415C3.09994 15.6287 3.09996 15.9751 3.09998 16.3666V16.3667L3.09998 16.4L3.09998 17.6L3.09998 17.6334V17.6334C3.09996 18.0249 3.09994 18.3714 3.1234 18.6585C3.14839 18.9643 3.2044 19.2811 3.36156 19.5896C3.59166 20.0412 3.95881 20.4083 4.4104 20.6384C4.71886 20.7956 5.03571 20.8516 5.34149 20.8766C5.62862 20.9001 5.97508 20.9 6.36654 20.9H6.36664L6.39998 20.9H7.59998ZM8.77237 19.0346C8.75996 19.0409 8.70636 19.0667 8.51189 19.0826C8.30691 19.0993 8.03487 19.1 7.59998 19.1H6.39998C5.96509 19.1 5.69305 19.0993 5.48807 19.0826C5.2936 19.0667 5.24 19.0409 5.22758 19.0346C5.11469 18.9771 5.0229 18.8853 4.96537 18.7724C4.95905 18.76 4.93331 18.7064 4.91743 18.5119C4.90068 18.3069 4.89998 18.0349 4.89998 17.6L4.89998 16.4C4.89998 15.9651 4.90068 15.6931 4.91743 15.4881C4.93331 15.2936 4.95905 15.24 4.96537 15.2276C5.0229 15.1147 5.11469 15.0229 5.22758 14.9654C5.24 14.9591 5.2936 14.9334 5.48807 14.9175C5.69305 14.9007 5.96509 14.9 6.39998 14.9H7.59998C8.03487 14.9 8.30691 14.9007 8.51189 14.9175C8.70636 14.9334 8.75996 14.9591 8.77237 14.9654C8.88527 15.0229 8.97706 15.1147 9.03458 15.2276C9.04091 15.24 9.06664 15.2936 9.08253 15.4881C9.09928 15.6931 9.09998 15.9651 9.09998 16.4L9.09998 17.6C9.09998 18.0349 9.09928 18.3069 9.08253 18.5119C9.06664 18.7064 9.04091 18.76 9.03458 18.7724C8.97706 18.8853 8.88527 18.9771 8.77237 19.0346ZM17.6 20.9L17.6333 20.9H17.6334C18.0249 20.9 18.3713 20.9001 18.6585 20.8766C18.9642 20.8516 19.2811 20.7956 19.5896 20.6384C20.0411 20.4083 20.4083 20.0412 20.6384 19.5896C20.7956 19.2811 20.8516 18.9643 20.8766 18.6585C20.9 18.3713 20.9 18.0249 20.9 17.6334L20.9 17.6V16.4L20.9 16.3667C20.9 15.9752 20.9 15.6287 20.8766 15.3415C20.8516 15.0357 20.7956 14.7189 20.6384 14.4104C20.4083 13.9589 20.0411 13.5917 19.5896 13.3616C19.2811 13.2044 18.9642 13.1484 18.6585 13.1234C18.3713 13.1 18.0249 13.1 17.6334 13.1H17.6333L17.6 13.1H16.4L16.3666 13.1H16.3666C15.9751 13.1 15.6286 13.1 15.3415 13.1234C15.0357 13.1484 14.7189 13.2044 14.4104 13.3616C13.9588 13.5917 13.5917 13.9589 13.3616 14.4104C13.2044 14.7189 13.1484 15.0357 13.1234 15.3415C13.0999 15.6287 13.1 15.9752 13.1 16.3667L13.1 16.4V17.6L13.1 17.6334C13.1 18.0249 13.0999 18.3713 13.1234 18.6585C13.1484 18.9643 13.2044 19.2811 13.3616 19.5896C13.5917 20.0412 13.9588 20.4083 14.4104 20.6384C14.7189 20.7956 15.0357 20.8516 15.3415 20.8766C15.6286 20.9001 15.9751 20.9 16.3665 20.9H16.3666L16.4 20.9H17.6ZM18.7724 19.0346C18.76 19.0409 18.7064 19.0667 18.5119 19.0826C18.3069 19.0993 18.0349 19.1 17.6 19.1H16.4C15.9651 19.1 15.693 19.0993 15.4881 19.0826C15.2936 19.0667 15.24 19.0409 15.2276 19.0346C15.1147 18.9771 15.0229 18.8853 14.9654 18.7724C14.959 18.76 14.9333 18.7064 14.9174 18.5119C14.9007 18.3069 14.9 18.0349 14.9 17.6V16.4C14.9 15.9651 14.9007 15.6931 14.9174 15.4881C14.9333 15.2936 14.959 15.24 14.9654 15.2276C15.0229 15.1147 15.1147 15.0229 15.2276 14.9654C15.24 14.9591 15.2936 14.9334 15.4881 14.9175C15.693 14.9007 15.9651 14.9 16.4 14.9H17.6C18.0349 14.9 18.3069 14.9007 18.5119 14.9175C18.7064 14.9334 18.76 14.9591 18.7724 14.9654C18.8853 15.0229 18.9771 15.1147 19.0346 15.2276C19.0409 15.24 19.0666 15.2936 19.0825 15.4881C19.0993 15.6931 19.1 15.9651 19.1 16.4V17.6C19.1 18.0349 19.0993 18.3069 19.0825 18.5119C19.0666 18.7064 19.0409 18.76 19.0346 18.7724C18.9771 18.8853 18.8853 18.9771 18.7724 19.0346Z" fill="#023F80"/>
</svg>
