<svg width="24" height="24" viewBox="0 0 24 24" fill="none" xmlns="http://www.w3.org/2000/svg">
<path fill-rule="evenodd" clipRule="evenodd" d="M3.49353 4.93373C3.40777 4.90883 3.28297 4.90001 2.65906 4.90001H2.0001C1.50304 4.90001 1.1001 4.49707 1.1001 4.00001C1.1001 3.50296 1.50304 3.10001 2.0001 3.10001H2.65906L2.76047 3.09993C3.22283 3.09938 3.62962 3.0989 3.99547 3.20513C4.72564 3.41716 5.32956 3.93259 5.65367 4.62038C5.72399 4.7696 5.77575 4.92954 5.81769 5.10002H18.1096L18.1358 5.10001C18.5665 5.1 18.9286 5.1 19.2242 5.11741C19.5292 5.13539 19.8305 5.17445 20.1227 5.28377C21.1189 5.65633 21.8312 6.5443 21.9788 7.59757C22.0221 7.9066 21.9949 8.20913 21.9463 8.51084C21.8992 8.80311 21.8206 9.15661 21.7272 9.57701L21.7215 9.60266L21.0877 12.4545L21.0628 12.5667C20.9225 13.2001 20.8147 13.6865 20.596 14.0974C20.158 14.9204 19.4013 15.5274 18.5029 15.7764C18.0544 15.9008 17.5562 15.9005 16.9074 15.9001L16.7925 15.9H9.4873L9.36497 15.9001C8.67901 15.9005 8.15311 15.9009 7.68569 15.7651C6.74888 15.4931 5.97404 14.8318 5.5582 13.9494C5.35072 13.5091 5.26843 12.9896 5.16111 12.3121L5.14194 12.1913L4.18981 6.20648C4.09178 5.59032 4.06347 5.46846 4.0254 5.38768C3.92144 5.16707 3.72773 5.00174 3.49353 4.93373ZM6.12278 6.90001L6.91959 11.9085C7.05561 12.7635 7.10292 13.0048 7.18646 13.1821C7.38215 13.5973 7.74678 13.9085 8.18764 14.0365C8.37585 14.0912 8.62156 14.1 9.4873 14.1H16.7925C17.61 14.1 17.8413 14.092 18.0221 14.0419C18.4449 13.9247 18.801 13.639 19.0071 13.2517C19.0953 13.0861 19.1532 12.8621 19.3306 12.064L19.9643 9.21218C20.0649 8.75941 20.1315 8.45799 20.1692 8.22439C20.2063 7.99431 20.2031 7.89659 20.1962 7.84736C20.1402 7.44785 19.8701 7.11103 19.4922 6.96971C19.4456 6.9523 19.3509 6.928 19.1183 6.9143C18.8821 6.90038 18.5734 6.90001 18.1096 6.90001H6.12278ZM7.00009 19.25C7.00009 18.2835 7.78359 17.5 8.75009 17.5C9.71659 17.5 10.5001 18.2835 10.5001 19.25C10.5001 20.2165 9.71659 21 8.75009 21C7.78359 21 7.00009 20.2165 7.00009 19.25ZM17.2501 17.5C16.2836 17.5 15.5001 18.2835 15.5001 19.25C15.5001 20.2165 16.2836 21 17.2501 21C18.2166 21 19.0001 20.2165 19.0001 19.25C19.0001 18.2835 18.2166 17.5 17.2501 17.5Z" fill="#023F80"/>
</svg>
