<svg width="28" height="28" viewBox="0 0 28 28" fill="none" xmlns="http://www.w3.org/2000/svg">
<path fill-rule="evenodd" clipRule="evenodd" d="M18.4545 3.82286C18.4545 2.1948 17.0947 0.875 15.4174 0.875H4.78719C3.1098 0.875 1.75 2.1948 1.75 3.82286V22.984C1.75 24.612 3.1098 25.9318 4.78719 25.9318H15.1818C14.8138 25.4861 14.5034 24.991 14.2622 24.4579H4.78719C3.94849 24.4579 3.2686 23.798 3.2686 22.984V3.82286C3.2686 3.00883 3.94849 2.34893 4.78719 2.34893H15.4174C16.2561 2.34893 16.936 3.00883 16.936 3.82286V16.0869C17.4078 15.8109 17.9172 15.5922 18.4545 15.4402V3.82286ZM12.7233 21.7473C12.7233 21.3287 12.3736 20.9894 11.9423 20.9894H7.96666C7.53536 20.9894 7.18573 21.3287 7.18573 21.7473V22.023C7.18573 22.4416 7.53536 22.7809 7.96666 22.7809H11.9423C12.3736 22.7809 12.7233 22.4416 12.7233 22.023V21.7473Z" fill="#023F80"/>
<path fill-rule="evenodd" clipRule="evenodd" d="M20.2443 27.125C23.1782 27.125 25.6136 24.7122 25.6136 21.7557C25.6136 18.8105 23.1782 16.3864 20.2443 16.3864C17.2991 16.3864 14.875 18.8105 14.875 21.7557C14.875 24.7122 17.2991 27.125 20.2443 27.125ZM19.6601 24.7386C19.5154 24.7386 19.3396 24.6677 19.2259 24.526L17.3751 22.1869C17.2924 22.0924 17.2614 21.927 17.2614 21.7852C17.2614 21.4426 17.4888 21.1709 17.7887 21.1709C17.9748 21.1709 18.1092 21.2772 18.2023 21.3954L19.6395 23.1556L22.245 19.0326C22.3381 18.879 22.5035 18.7727 22.6896 18.7727C22.9791 18.7727 23.2273 19.0208 23.2273 19.3752C23.2273 19.4815 23.1859 19.6115 23.1032 19.7414L20.1047 24.5024C20.0117 24.6441 19.8462 24.7386 19.6601 24.7386Z" fill="#023F80"/>
<path fill-rule="evenodd" clipRule="evenodd" d="M10.1546 5.64771C10.3717 5.64771 10.5485 5.71168 10.685 5.83962C10.8216 5.96757 10.8898 6.13592 10.8898 6.34467V6.34467V6.81942L11.1793 6.87357C11.6597 6.98113 12.1304 7.1752 12.5914 7.45579C12.7174 7.53659 12.8067 7.62582 12.8592 7.72346C12.9117 7.82111 12.938 7.94063 12.938 8.08205C12.938 8.28407 12.875 8.45915 12.7489 8.6073C12.6229 8.75545 12.4759 8.82952 12.3078 8.82952C12.2238 8.82952 12.1432 8.81606 12.0662 8.78912C11.9892 8.76218 11.8772 8.71168 11.7301 8.6376C11.6811 8.61067 11.5726 8.55511 11.4045 8.47094C11.2365 8.38676 11.0562 8.31942 10.8636 8.26892C10.671 8.21841 10.4662 8.19316 10.2491 8.19316C9.93404 8.19316 9.67846 8.25882 9.4824 8.39013C9.28633 8.52144 9.1883 8.69821 9.1883 8.92043C9.1883 9.13592 9.30034 9.29754 9.52441 9.40528C9.74848 9.51302 10.1021 9.62077 10.5852 9.72851C11.1034 9.84299 11.5288 9.9642 11.8614 10.0921C12.194 10.2201 12.4811 10.4255 12.7227 10.7083C12.9643 10.9911 13.085 11.3716 13.085 11.8497C13.085 12.3952 12.8907 12.8598 12.5021 13.2437C12.1135 13.6275 11.5901 13.88 10.9319 14.0012V14.0012V14.4962L10.9237 14.6166C10.9018 14.7707 10.8363 14.8989 10.727 15.0012C10.5905 15.1292 10.4137 15.1932 10.1966 15.1932C9.97956 15.1932 9.80275 15.1292 9.66621 15.0012C9.52966 14.8733 9.46139 14.7049 9.46139 14.4962V14.4962V14.0416L9.13514 13.9936C8.49637 13.8823 7.9399 13.6795 7.46575 13.3851C7.33971 13.311 7.25043 13.2268 7.19792 13.1326C7.1454 13.0383 7.11914 12.9137 7.11914 12.7588C7.11914 12.5568 7.18041 12.3817 7.30295 12.2336C7.42549 12.0854 7.57079 12.0113 7.73884 12.0113C7.82287 12.0113 7.90689 12.0248 7.99092 12.0517C8.07495 12.0787 8.18348 12.1292 8.31652 12.2033C8.62462 12.3649 8.91171 12.4794 9.1778 12.5467C9.44388 12.614 9.72747 12.6477 10.0286 12.6477C10.3997 12.6477 10.6815 12.5888 10.8741 12.4709C11.0667 12.3531 11.1629 12.1763 11.1629 11.9406C11.1629 11.7992 11.1052 11.6831 10.9896 11.5921C10.8741 11.5012 10.7305 11.4288 10.559 11.375C10.3874 11.3211 10.1371 11.2538 9.808 11.173C9.28283 11.045 8.85219 10.9154 8.51609 10.7841C8.17998 10.6528 7.88939 10.4474 7.64431 10.1679C7.39923 9.88845 7.27669 9.51302 7.27669 9.04164C7.27669 8.50292 7.47275 8.03491 7.86488 7.6376C8.257 7.2403 8.77517 6.97767 9.41938 6.84973V6.84973V6.34467L9.42778 6.22771C9.45019 6.0774 9.51741 5.94973 9.62944 5.84467C9.76949 5.71336 9.94454 5.64771 10.1546 5.64771Z" fill="#023F80"/>
</svg>
