<svg width="28" height="28" viewBox="0 0 28 28" fill="none" xmlns="http://www.w3.org/2000/svg">
<path d="M13.1 4C13.6523 4 14.1 4.44772 14.1 5C14.1 5.51284 13.714 5.93551 13.2166 5.99327L13.1 6H11.2632C9.43543 6 8.72535 6.14434 7.98998 6.55832C7.36715 6.90895 6.88115 7.42052 6.5441 8.08393C6.16254 8.83494 6.0156 9.56593 6.00119 11.2952L6 16.4072C6 18.3529 6.14134 19.1233 6.5441 19.9161C6.88115 20.5795 7.36715 21.0911 7.98998 21.4417C8.60682 21.7889 9.20587 21.9465 10.4617 21.9882L10.7218 21.9951L11.2632 22H16.7368L17.2782 21.9951C18.7143 21.9666 19.3521 21.8121 20.01 21.4417C20.6329 21.0911 21.1188 20.5795 21.4559 19.9161C21.7937 19.2511 21.9476 18.6019 21.9885 17.2614L21.9952 16.9839L22 16.4072V14C22 13.4477 22.4477 13 23 13C23.5128 13 23.9355 13.386 23.9933 13.8834L24 14V16.4072C24 18.6416 23.804 19.7098 23.239 20.822C22.7244 21.8348 21.9607 22.6387 20.9911 23.1845C19.9734 23.7575 18.9894 23.9767 17.0662 23.9982L16.7368 24H11.2632C9.11979 24 8.08318 23.7893 7.00886 23.1845C6.03931 22.6387 5.27559 21.8348 4.76103 20.822C4.22422 19.7654 4.02052 18.7485 4.00149 16.7337L4 11.5928C4 9.35841 4.19596 8.29021 4.76103 7.17801C5.27559 6.16523 6.03931 5.36132 7.00886 4.81551C8.02663 4.24255 9.01057 4.02327 10.9338 4.00178L13.1 4Z" fill="#023F80"/>
<path fill-rule="evenodd" clipRule="evenodd" d="M14 9.7C16.4853 9.7 18.5 11.7147 18.5 14.2C18.5 16.6853 16.4853 18.7 14 18.7C11.5147 18.7 9.5 16.6853 9.5 14.2C9.5 11.7147 11.5147 9.7 14 9.7ZM14 11.7C12.6193 11.7 11.5 12.8193 11.5 14.2C11.5 15.5807 12.6193 16.7 14 16.7C15.3807 16.7 16.5 15.5807 16.5 14.2C16.5 12.8193 15.3807 11.7 14 11.7Z" fill="#023F80"/>
<path d="M21 1C21.5128 1 21.9355 1.38604 21.9933 1.88338L22 2V5H25C25.5128 5 25.9355 5.38604 25.9933 5.88338L26 6C26 6.51284 25.614 6.93551 25.1166 6.99327L25 7H22V10C22 10.5523 21.5523 11 21 11C20.4872 11 20.0645 10.614 20.0067 10.1166L20 10V7H17C16.4872 7 16.0645 6.61396 16.0067 6.11662L16 6C16 5.48716 16.386 5.06449 16.8834 5.00673L17 5H20V2C20 1.44772 20.4477 1 21 1Z" fill="#023F80"/>
</svg>
