<svg width="24" height="24" viewBox="0 0 24 24" fill="none" xmlns="http://www.w3.org/2000/svg">
<path d="M11.1428 17.1429C10.6694 17.1429 10.2857 17.5267 10.2857 18.0001C10.2857 18.4735 10.6694 18.8572 11.1428 18.8572H12.8571C13.3305 18.8572 13.7143 18.4735 13.7143 18.0001C13.7143 17.5267 13.3305 17.1429 12.8571 17.1429H11.1428Z" fill="#023F80"/>
<path fill-rule="evenodd" clipRule="evenodd" d="M5.14282 7.20007C5.14282 5.27989 5.14282 4.3198 5.51651 3.58639C5.84522 2.94126 6.36973 2.41676 7.01485 2.08805C7.74827 1.71436 8.70836 1.71436 10.6285 1.71436H13.3714C15.2916 1.71436 16.2517 1.71436 16.9851 2.08805C17.6302 2.41676 18.1547 2.94126 18.4834 3.58639C18.8571 4.3198 18.8571 5.27989 18.8571 7.20007V16.8001C18.8571 18.7202 18.8571 19.6803 18.4834 20.4137C18.1547 21.0589 17.6302 21.5834 16.9851 21.9121C16.2517 22.2858 15.2916 22.2858 13.3714 22.2858H10.6285C8.70836 22.2858 7.74827 22.2858 7.01485 21.9121C6.36973 21.5834 5.84522 21.0589 5.51651 20.4137C5.14282 19.6803 5.14282 18.7202 5.14282 16.8001V7.20007ZM10.6285 3.42864H13.3714C14.3598 3.42864 14.998 3.42997 15.4837 3.46966C15.9494 3.50771 16.122 3.5723 16.2068 3.61549C16.5294 3.77984 16.7916 4.04209 16.956 4.36466C16.9992 4.44942 17.0638 4.62208 17.1018 5.08779C17.1415 5.57351 17.1428 6.21169 17.1428 7.20007V16.8001C17.1428 17.7884 17.1415 18.4266 17.1018 18.9123C17.0638 19.3781 16.9992 19.5507 16.956 19.6355C16.7916 19.958 16.5294 20.2203 16.2068 20.3846C16.122 20.4278 15.9494 20.4924 15.4837 20.5305C14.998 20.5702 14.3598 20.5715 13.3714 20.5715H10.6285C9.64016 20.5715 9.00198 20.5702 8.51626 20.5305C8.05055 20.4924 7.87789 20.4278 7.79312 20.3846C7.47056 20.2203 7.20831 19.958 7.04395 19.6355C7.00077 19.5507 6.93618 19.3781 6.89813 18.9123C6.85844 18.4266 6.85711 17.7884 6.85711 16.8001V7.20007C6.85711 6.21169 6.85844 5.57351 6.89813 5.08779C6.93618 4.62208 7.00077 4.44942 7.04395 4.36466C7.20831 4.04209 7.47056 3.77984 7.79312 3.61549C7.87789 3.5723 8.05055 3.50771 8.51626 3.46966C9.00198 3.42997 9.64016 3.42864 10.6285 3.42864Z" fill="#023F80"/>
</svg>
