<svg width="24" height="24" viewBox="0 0 24 24" fill="none" xmlns="http://www.w3.org/2000/svg">
<path fill-rule="evenodd" clipRule="evenodd" d="M16.5884 6.34766H18.3677C19.0945 6.34843 19.6834 6.9098 19.6842 7.60251V20.7429C19.6834 21.4356 19.0944 21.997 18.3677 21.9977H7.3165C6.58977 21.997 6.00083 21.4356 6 20.7429V7.60251C6.00082 6.9098 6.58975 6.34843 7.3165 6.34766H8.28076V3.77863C8.28076 2.7979 9.11785 2 10.1468 2H17.2104C18.2393 2 19.0764 2.7979 19.0764 3.77863V5.63632H16.5884V6.34766ZM9.52477 6.34766V3.46416C9.52477 3.13724 9.8038 2.87128 10.1468 2.87128H15.7046C15.6356 3.05677 15.5981 3.25637 15.5981 3.46416V6.34766H9.52477ZM17.8622 3.5825C17.8622 3.25559 17.5534 2.98962 17.2104 2.98962C16.8674 2.98962 16.537 3.25559 16.537 3.5825V4.51271H17.8622V3.5825ZM17.4554 20.7253C17.9488 20.7248 18.3487 20.3437 18.3492 19.8734V8.47208C18.3487 8.00177 17.9488 7.62064 17.4554 7.62014H8.22878C7.73537 7.62064 7.33552 8.00177 7.33499 8.47208V19.8734C7.33554 20.3437 7.73538 20.7248 8.22878 20.7253H17.4554ZM11.106 14.9167C11.0511 14.9673 11.0291 15.0422 11.0484 15.1126C11.0677 15.1831 11.1254 15.2381 11.1993 15.2565C11.2732 15.275 11.3518 15.254 11.4049 15.2016L14.6325 11.6901C14.6871 11.6394 14.7089 11.5647 14.6895 11.4945C14.6701 11.4242 14.6126 11.3694 14.5389 11.3509C14.4652 11.3324 14.3868 11.3531 14.3336 11.4052L11.106 14.9167ZM13.368 15.2015L15.0344 13.1784C15.089 13.1277 15.1108 13.053 15.0914 12.9827C15.072 12.9125 15.0145 12.8576 14.9408 12.8392C14.8671 12.8207 14.7887 12.8414 14.7356 12.8935L13.0692 14.9167C12.9867 14.9954 12.9867 15.1228 13.0692 15.2015C13.1517 15.2802 13.2855 15.2802 13.368 15.2015ZM13.4347 19.6328H12.2494C12.1327 19.6328 12.0381 19.723 12.0381 19.8343C12.0381 19.9455 12.1327 20.0357 12.2494 20.0357H13.4347C13.5514 20.0357 13.646 19.9455 13.646 19.8343C13.646 19.723 13.5514 19.6328 13.4347 19.6328Z" fill="#023F80"/>
</svg>
