<svg width="24" height="24" viewBox="0 0 24 24" fill="none" xmlns="http://www.w3.org/2000/svg">
<path fill-rule="evenodd" clipRule="evenodd" d="M12 20.5C12.4734 20.5 12.8571 20.1162 12.8571 19.6429V10.5693L14.8225 12.5347C15.1572 12.8694 15.6999 12.8694 16.0346 12.5347C16.3694 12.1999 16.3694 11.6572 16.0346 11.3225L12.6061 7.89391C12.2713 7.55917 11.7286 7.55917 11.3939 7.89391L7.96532 11.3225C7.63058 11.6572 7.63058 12.1999 7.96532 12.5347C8.30005 12.8694 8.84277 12.8694 9.1775 12.5347L11.1428 10.5693V19.6429C11.1428 20.1162 11.5266 20.5 12 20.5Z" fill="#023F80"/>
<path d="M13.7857 2.57153C12.3178 2.57153 10.9397 3.13929 9.92266 4.12361C8.65989 3.77076 7.35895 4.08968 6.38884 4.79247C5.42506 5.49068 4.72751 6.61392 4.71391 7.92196C3.4259 8.60162 2.57141 9.93256 2.57141 11.4376C2.57141 13.6745 4.46797 15.3659 6.6047 15.4283L8.57141 15.4287C9.0448 15.4287 9.42855 15.0449 9.42855 14.5715C9.42855 14.0981 9.0448 13.7144 8.57141 13.7144H6.64314C5.32891 13.6701 4.2857 12.6376 4.2857 11.4376C4.2857 10.4672 4.92426 9.5969 5.88244 9.28167C6.28579 9.14898 6.53119 8.74097 6.45937 8.32248C6.31306 7.46993 6.70407 6.68097 7.39457 6.18074C8.08919 5.67753 9.00371 5.53026 9.80393 5.90131C10.1582 6.06557 10.5786 5.96965 10.8266 5.66803C11.537 4.80388 12.6136 4.28582 13.7857 4.28582C16.0323 4.28582 17.7931 6.26493 17.5472 8.3732C17.5002 8.77644 17.7425 9.15736 18.1277 9.28568C19.0803 9.60306 19.7143 10.4707 19.7143 11.4376C19.7143 12.6357 18.7416 13.6544 17.4692 13.7119H15.4286C14.9552 13.7119 14.5714 14.0956 14.5714 14.569C14.5714 15.0424 14.9552 15.4262 15.4286 15.4262C16.1326 15.4262 17.5471 15.4244 17.5471 15.4244C19.6968 15.3273 21.4286 13.5904 21.4286 11.4376C21.4286 9.93264 20.574 8.60089 19.2848 7.92166C19.2572 5.02638 16.7929 2.57153 13.7857 2.57153Z" fill="#023F80"/>
</svg>
