<svg width="24" height="24" viewBox="0 0 24 24" fill="none" xmlns="http://www.w3.org/2000/svg">
<path fill-rule="evenodd" clipRule="evenodd" d="M12.0001 8.8C11.0612 8.8 10.3001 9.56112 10.3001 10.5C10.3001 11.4389 11.0612 12.2 12.0001 12.2C12.939 12.2 13.7001 11.4389 13.7001 10.5C13.7001 9.56112 12.939 8.8 12.0001 8.8ZM8.50012 10.5C8.50012 8.567 10.0671 7 12.0001 7C13.9331 7 15.5001 8.567 15.5001 10.5C15.5001 12.433 13.9331 14 12.0001 14C10.0671 14 8.50012 12.433 8.50012 10.5Z" fill="#023F80"/>
<path fill-rule="evenodd" clipRule="evenodd" d="M8.22787 3.09998C6.65822 3.09998 5.90856 3.22664 5.14641 3.63424C4.49687 3.98161 3.98174 4.49675 3.63436 5.14628C3.22676 5.90843 3.1001 6.6581 3.1001 8.22775V15.7722C3.1001 17.3419 3.22676 18.0915 3.63436 18.8537C3.98174 19.5032 4.49687 20.0183 5.14641 20.3657C5.90856 20.7733 6.65822 20.9 8.22787 20.9H15.7723C17.342 20.9 18.0916 20.7733 18.8538 20.3657C19.5033 20.0183 20.0185 19.5032 20.3658 18.8537C20.7734 18.0915 20.9001 17.3419 20.9001 15.7722V8.22775C20.9001 6.6581 20.7734 5.90843 20.3658 5.14628C20.0185 4.49675 19.5033 3.98161 18.8538 3.63424C18.0916 3.22664 17.342 3.09998 15.7723 3.09998H8.22787ZM8.22787 4.89998C6.7412 4.89998 6.35727 5.02791 5.99529 5.2215C5.65944 5.40112 5.40124 5.65931 5.22163 5.99516C5.02804 6.35714 4.9001 6.74108 4.9001 8.22775V15.7722C4.9001 17.2589 5.02804 17.6428 5.22163 18.0048C5.29092 18.1344 5.3719 18.2524 5.46453 18.3588C7.08955 16.6017 9.416 15.4999 12.0001 15.4999C14.5842 15.4999 16.9106 16.6017 18.5357 18.3588C18.6283 18.2524 18.7093 18.1344 18.7786 18.0048C18.9722 17.6428 19.1001 17.2589 19.1001 15.7722V8.22775C19.1001 6.74108 18.9722 6.35714 18.7786 5.99516C18.599 5.65931 18.3408 5.40112 18.0049 5.2215C17.6429 5.02791 17.259 4.89998 15.7723 4.89998H8.22787ZM12.0001 7C10.0671 7 8.50012 8.567 8.50012 10.5C8.50012 12.433 10.0671 14 12.0001 14C13.9331 14 15.5001 12.433 15.5001 10.5C15.5001 8.567 13.9331 7 12.0001 7ZM10.3001 10.5C10.3001 9.56112 11.0612 8.8 12.0001 8.8C12.939 8.8 13.7001 9.56112 13.7001 10.5C13.7001 11.4389 12.939 12.2 12.0001 12.2C11.0612 12.2 10.3001 11.4389 10.3001 10.5ZM8.22787 19.1H15.7723C16.1447 19.1 16.4478 19.092 16.6988 19.0769C15.4463 17.9703 13.8014 17.2999 12.0001 17.2999C10.1988 17.2999 8.55384 17.9703 7.30138 19.0769C7.55236 19.092 7.85553 19.1 8.22787 19.1Z" fill="#023F80"/>
</svg>
