<svg width="120" height="100" viewBox="0 0 120 100" fill="none" xmlns="http://www.w3.org/2000/svg">
<path d="M28.925 71.0522C28.5606 70.1121 27.9073 69.3119 27.0591 68.7668C26.133 68.1933 25.0589 67.9043 23.97 67.9356C23.3707 67.9353 22.7752 68.0303 22.2058 68.217C21.6597 68.3914 21.1369 68.6315 20.6486 68.9318C20.2775 69.1584 19.9291 69.4204 19.6084 69.714L19.6698 69.3659C19.7108 69.1876 19.7088 69.0021 19.6638 68.8247C19.6188 68.6474 19.5322 68.4833 19.4111 68.3461C19.2789 68.2061 19.1175 68.0968 18.9385 68.0259C18.7594 67.9549 18.567 67.9242 18.3747 67.9356C17.9451 67.9297 17.5272 68.075 17.1939 68.3461C16.8672 68.5965 16.6465 68.9605 16.5756 69.3659L14.0329 83.7834C13.9888 83.9631 13.9891 84.1509 14.0336 84.3305C14.0781 84.5102 14.1657 84.6763 14.2886 84.8146C14.4232 84.9514 14.5854 85.0578 14.7645 85.1265C14.9437 85.1953 15.1354 85.2249 15.3269 85.2133C15.7564 85.2191 16.1744 85.0739 16.5078 84.8031C16.8343 84.5526 17.0549 84.1887 17.1261 83.7834L17.9048 79.3689C18.072 79.5491 18.2538 79.7151 18.4483 79.8654C18.887 80.199 19.3764 80.4601 19.8977 80.639C20.502 80.8483 21.1379 80.9514 21.7774 80.9437C22.9314 80.9477 24.068 80.6619 25.0829 80.1125C26.1245 79.5519 27.029 78.7675 27.7314 77.8156C28.4718 76.816 28.9637 75.6544 29.1664 74.427C29.4048 73.3018 29.3212 72.1321 28.925 71.0522ZM25.3722 76.4317C24.9652 77.0179 24.4294 77.503 23.8057 77.8498C23.174 78.1969 22.4633 78.3747 21.7425 78.3658C21.0733 78.3903 20.4125 78.2103 19.8481 77.8498C19.3427 77.5084 18.9639 77.01 18.7702 76.4317C18.555 75.7859 18.5124 75.0951 18.6465 74.4277C18.7674 73.7051 19.0516 73.0197 19.4776 72.4236C19.89 71.8456 20.4282 71.3687 21.0517 71.0289C21.6886 70.6828 22.4033 70.5053 23.128 70.5132C23.7932 70.4876 24.4502 70.6677 25.0093 71.0289C25.5042 71.369 25.8785 71.8573 26.0783 72.4236C26.2971 73.0687 26.3398 73.7605 26.202 74.4277C26.0781 75.1491 25.7945 75.8338 25.3722 76.4317Z" fill="white"/>
<path d="M45.06 68.3321C44.9253 68.1954 44.763 68.0891 44.5838 68.0203C44.4047 67.9515 44.2129 67.9219 44.0213 67.9334C43.5917 67.9275 43.1738 68.0728 42.8404 68.3439C42.5138 68.5942 42.2931 68.958 42.2222 69.3633L42.2161 69.3976C42.0792 69.2602 41.934 69.1314 41.7814 69.0117C41.3352 68.6751 40.837 68.4139 40.3064 68.2384C39.6674 68.0265 38.9975 67.9234 38.3244 67.9334C37.1748 67.9327 36.0432 68.2184 35.0317 68.7646C33.9846 69.3227 33.0754 70.1075 32.3704 71.0618C31.6297 72.0614 31.1377 73.2229 30.935 74.4504C30.7005 75.5724 30.7853 76.7378 31.1799 77.814C31.5422 78.7616 32.2004 79.5671 33.0567 80.1109C33.9794 80.6815 35.0485 80.9704 36.1329 80.9421C36.7678 80.9449 37.3989 80.8459 38.0024 80.6489C38.5556 80.4719 39.0866 80.2321 39.5852 79.9341C39.8974 79.7475 40.1942 79.536 40.4726 79.3018C40.4352 79.4766 40.4393 79.6577 40.4845 79.8307C40.5298 80.0036 40.6149 80.1635 40.7331 80.2976C40.8653 80.4377 41.0266 80.547 41.2057 80.6179C41.3848 80.6887 41.5773 80.7194 41.7695 80.7078C42.1991 80.7138 42.6171 80.5686 42.9504 80.2976C43.2771 80.0472 43.4977 79.6833 43.5687 79.2778L45.3173 69.3627C45.3609 69.1829 45.3602 68.9952 45.3154 68.8157C45.2706 68.6362 45.1829 68.4703 45.06 68.3321ZM39.05 77.8486C38.4132 78.1948 37.6985 78.3724 36.9737 78.3645C36.3129 78.3867 35.661 78.2067 35.1052 77.8486C34.6019 77.5095 34.2228 77.0158 34.0253 76.442C33.8086 75.8006 33.7652 75.1133 33.8997 74.4497C34.0215 73.7238 34.3056 73.0347 34.7308 72.4339C35.1416 71.8505 35.6808 71.3693 36.3069 71.0273C36.9352 70.6834 37.641 70.5059 38.3573 70.5116C39.0264 70.4873 39.6872 70.6671 40.2517 71.0273C40.7547 71.3666 41.1338 71.8603 41.3316 72.4339C41.5487 73.0834 41.5906 73.7788 41.4531 74.4497C41.3305 75.1677 41.0473 75.8487 40.6247 76.442C40.2144 77.0256 39.6755 77.5073 39.0497 77.8498L39.05 77.8486Z" fill="white"/>
<path d="M58.6144 68.3454C58.4822 68.2054 58.321 68.0961 58.142 68.0252C57.9629 67.9543 57.7706 67.9234 57.5784 67.9349C57.1481 67.9285 56.7294 68.0738 56.3955 68.3454C56.0689 68.5958 55.8483 68.9597 55.7773 69.3651L54.7192 75.3655C54.635 75.9084 54.4292 76.4253 54.1172 76.8776C53.8322 77.2821 53.4465 77.6053 52.9983 77.8152C52.5025 78.0357 51.9639 78.1437 51.4214 78.1316C50.5444 78.1316 49.8976 77.9245 49.4809 77.5102C49.0643 77.0959 48.9454 76.381 49.1242 75.3655L50.1826 69.3651C50.2237 69.1868 50.2216 69.0013 50.1767 68.824C50.1317 68.6466 50.0451 68.4825 49.924 68.3454C49.7918 68.2053 49.6304 68.096 49.4514 68.0251C49.2723 67.9542 49.0799 67.9234 48.8876 67.9349C48.458 67.9289 48.04 68.0742 47.7067 68.3454C47.3801 68.5957 47.1594 68.9597 47.0884 69.3651L45.8813 76.2094C45.7194 76.987 45.7734 77.794 46.0374 78.5431C46.2813 79.2056 46.7408 79.7669 47.342 80.137C48.0334 80.5412 48.8253 80.7408 49.6257 80.7124C50.3368 80.72 51.0458 80.6333 51.734 80.4544C52.3369 80.2956 52.9094 80.0382 53.4283 79.6926C53.6574 79.5366 53.8735 79.3625 54.0747 79.1719L54.0303 79.4231C53.9372 80.1005 53.6863 80.7466 53.2979 81.3092C52.9542 81.7669 52.4803 82.1101 51.9383 82.2939C51.2845 82.5034 50.6004 82.6024 49.9141 82.5867C49.4023 82.5989 48.8927 82.5154 48.4116 82.3405C47.9935 82.1764 47.6539 82.0554 47.3928 81.9774C47.035 81.8521 46.6422 81.8731 46.2998 82.0359C45.8974 82.2294 45.575 82.5572 45.3884 82.9629C45.3005 83.1082 45.2495 83.2728 45.2398 83.4423C45.2302 83.6118 45.2622 83.7811 45.3331 83.9354C45.5412 84.2953 45.8742 84.5664 46.2688 84.6972C46.7375 84.8783 47.2281 84.9966 47.7278 85.0488C48.3023 85.1249 48.881 85.1641 49.4605 85.1662C50.635 85.1767 51.8026 84.9865 52.913 84.6035C53.9618 84.2382 54.8962 83.6036 55.6226 82.7635C56.426 81.7773 56.9432 80.5895 57.1177 79.3295L58.8759 69.3677C58.917 69.1888 58.9148 69.0026 58.8693 68.8248C58.8238 68.6469 58.7364 68.4826 58.6144 68.3454Z" fill="white"/>
<path d="M78.4165 68.3453C78.2967 68.2105 78.1487 68.1039 77.9829 68.0329C77.8171 67.962 77.6377 67.9285 77.4575 67.9348C76.6666 67.9348 76.1158 68.2318 75.8051 68.8258L71.8529 75.5659L70.734 70.6777C70.6825 70.4303 70.5555 70.205 70.3706 70.0329C70.1307 69.8635 69.8387 69.7843 69.5461 69.8091C69.2309 69.8014 68.9193 69.8777 68.6432 70.0301C68.3672 70.1825 68.1366 70.4055 67.9752 70.6764L65.0565 75.6953L63.4802 68.8251C63.4666 68.6871 63.4215 68.5541 63.3484 68.4363C63.2753 68.3185 63.1761 68.219 63.0585 68.1455C62.8035 67.9991 62.513 67.9259 62.2191 67.9342C61.7719 67.9211 61.3369 68.0807 61.0043 68.3798C60.6988 68.6391 60.4907 68.9945 60.4142 69.3878C60.3807 69.5662 60.3835 69.7494 60.4222 69.9268L62.6641 79.5842C62.6938 79.7354 62.7569 79.8781 62.8488 80.0017C62.9408 80.1254 63.0591 80.227 63.1954 80.299C63.4784 80.462 63.8085 80.524 64.1314 80.4748C64.4298 80.4546 64.719 80.3632 64.9749 80.2083C65.2307 80.0533 65.4458 79.8393 65.6019 79.5842L68.6958 73.8182L69.8853 79.5849C69.9542 79.8395 70.1049 80.0646 70.314 80.2255C70.5232 80.3863 70.7793 80.4742 71.0432 80.4755C71.3944 80.515 71.7495 80.4519 72.0656 80.2939C72.3818 80.1358 72.6453 79.8895 72.8244 79.5849L78.4728 69.9274C78.5207 69.8494 78.561 69.7669 78.5933 69.6812C78.6281 69.5862 78.654 69.4882 78.6707 69.3884C78.7139 69.2068 78.7134 69.0176 78.6693 68.8362C78.6251 68.6549 78.5384 68.4866 78.4165 68.3453Z" fill="white"/>
<path d="M92.7811 68.3321C92.6465 68.1954 92.4841 68.0891 92.305 68.0203C92.1258 67.9515 91.934 67.9219 91.7425 67.9334C91.3129 67.9275 90.8949 68.0728 90.5616 68.3439C90.235 68.5942 90.0143 68.958 89.9433 69.3633L89.9373 69.3976C89.8004 69.2601 89.6552 69.1313 89.5025 69.0117C89.0564 68.6751 88.5581 68.4139 88.0275 68.2384C87.3886 68.0265 86.7186 67.9234 86.0455 67.9334C84.896 67.9327 83.7644 68.2184 82.7529 68.7646C81.7058 69.3227 80.7966 70.1076 80.0915 71.0618C79.3508 72.0614 78.8588 73.2229 78.6562 74.4504C78.4216 75.5724 78.5064 76.7378 78.901 77.814C79.2633 78.7616 79.9215 79.5671 80.7779 80.1109C81.7005 80.6815 82.7697 80.9704 83.8541 80.9421C84.4889 80.9449 85.1201 80.8459 85.7236 80.6489C86.2768 80.4718 86.808 80.232 87.3067 79.9341C87.6188 79.7474 87.9154 79.5359 88.1937 79.3018C88.1564 79.4766 88.1605 79.6577 88.2057 79.8307C88.251 80.0036 88.3361 80.1635 88.4543 80.2976C88.5865 80.4377 88.7478 80.547 88.9269 80.6179C89.106 80.6887 89.2984 80.7194 89.4907 80.7078C89.9202 80.7138 90.3383 80.5686 90.6716 80.2976C90.9982 80.0472 91.2189 79.6833 91.2898 79.2778L93.0385 69.3627C93.082 69.1829 93.0814 68.9952 93.0366 68.8157C92.9918 68.6362 92.9041 68.4703 92.7811 68.3321ZM86.7712 77.8498C86.1339 78.1963 85.4186 78.3739 84.6933 78.3658C84.0324 78.3879 83.3806 78.2079 82.8248 77.8498C82.3215 77.5108 81.9424 77.017 81.7449 76.4433C81.5281 75.8019 81.4848 75.1146 81.6193 74.451C81.7411 73.7251 82.0252 73.036 82.4504 72.4351C82.8613 71.8519 83.4004 71.3707 84.0264 71.0286C84.6548 70.6847 85.3606 70.5072 86.0768 70.5129C86.7461 70.4886 87.4069 70.6684 87.9716 71.0286C88.4744 71.368 88.8533 71.8616 89.0511 72.4351C89.2682 73.0847 89.3101 73.7801 89.1726 74.451C89.05 75.169 88.7669 75.85 88.3443 76.4433C87.9345 77.0263 87.3963 77.5075 86.7712 77.8498Z" fill="white"/>
<path d="M106.335 68.3454C106.203 68.2054 106.042 68.0961 105.863 68.0252C105.684 67.9543 105.491 67.9234 105.299 67.9349C104.869 67.9286 104.45 68.0739 104.116 68.3454C103.79 68.5958 103.569 68.9597 103.498 69.3651L102.44 75.3655C102.356 75.9084 102.15 76.4253 101.838 76.8776C101.553 77.2822 101.167 77.6053 100.719 77.8152C100.223 78.0357 99.6848 78.1437 99.1422 78.1316C98.2652 78.1316 97.6184 77.9245 97.2018 77.5102C96.7851 77.0959 96.6662 76.381 96.845 75.3655L97.9035 69.3651C97.9445 69.1868 97.9425 69.0013 97.8975 68.824C97.8525 68.6466 97.7659 68.4825 97.6449 68.3454C97.5126 68.2053 97.3513 68.096 97.1722 68.0251C96.9931 67.9542 96.8007 67.9234 96.6084 67.9349C96.1789 67.929 95.7609 68.0743 95.4276 68.3454C95.1009 68.5957 94.8802 68.9597 94.8093 69.3651L93.6022 76.2094C93.4405 76.987 93.4944 77.794 93.7582 78.5431C94.0022 79.2056 94.4616 79.7669 95.0628 80.137C95.7542 80.5412 96.5462 80.7407 97.3466 80.7124C98.0577 80.72 98.7666 80.6333 99.4549 80.4544C100.058 80.2956 100.63 80.0382 101.149 79.6926C101.378 79.5358 101.595 79.3608 101.796 79.1693L101.751 79.4206C101.658 80.098 101.408 80.7441 101.019 81.3067C100.675 81.7644 100.202 82.1076 99.6595 82.2913C99.0057 82.5008 98.3216 82.5998 97.6353 82.5841C97.1235 82.5964 96.6139 82.5129 96.1328 82.338C95.7144 82.1739 95.3747 82.0528 95.1137 81.9748C94.7559 81.8495 94.363 81.8706 94.0207 82.0333C93.6182 82.2268 93.2959 82.5547 93.1093 82.9604C93.0213 83.1056 92.9703 83.2702 92.9607 83.4397C92.951 83.6092 92.9831 83.7786 93.054 83.9328C93.2621 84.2928 93.595 84.5638 93.9897 84.6946C94.4585 84.8758 94.9492 84.994 95.449 85.0463C96.0233 85.1223 96.6019 85.1615 97.1813 85.1636C98.3558 85.1742 99.5235 84.9839 100.634 84.601C101.683 84.2356 102.617 83.6011 103.343 82.7609C104.147 81.7747 104.664 80.5869 104.839 79.3269L106.596 69.3651C106.636 69.1867 106.634 69.0011 106.589 68.8237C106.544 68.6464 106.457 68.4824 106.335 68.3454Z" fill="white"/>
<path d="M49.2119 24.8791L38.7709 14.4378C38.5062 14.1672 38.1465 14.0105 37.7681 14.0008C37.5691 13.9943 37.3708 14.028 37.1851 14.0998C36.9993 14.1716 36.83 14.28 36.6871 14.4187C36.5442 14.5574 36.4307 14.7234 36.3533 14.9069C36.276 15.0903 36.2363 15.2875 36.2368 15.4866V36.3706C36.2364 36.5696 36.276 36.7668 36.3534 36.9502C36.4307 37.1336 36.5442 37.2996 36.6871 37.4383C36.8299 37.5769 36.9992 37.6854 37.1849 37.7572C37.3706 37.8291 37.5688 37.8628 37.7678 37.8564C38.1464 37.8468 38.5062 37.6899 38.7709 37.4191L49.2119 26.9781C49.4903 26.6998 49.6466 26.3222 49.6466 25.9286C49.6466 25.535 49.4903 25.1574 49.2119 24.8791ZM48.2257 26.3816L38.4474 36.1599C38.358 36.2493 38.2441 36.3101 38.1201 36.3348C37.9961 36.3595 37.8676 36.3468 37.7507 36.2984C37.6339 36.25 37.5341 36.1681 37.4638 36.063C37.3936 35.9579 37.356 35.8343 37.356 35.7079V16.1503C37.356 16.0238 37.3935 15.9002 37.4637 15.795C37.5339 15.6899 37.6338 15.6079 37.7506 15.5595C37.8674 15.5111 37.996 15.4984 38.12 15.523C38.2441 15.5477 38.358 15.6085 38.4474 15.698L48.2257 25.4766C48.3456 25.5965 48.4129 25.7591 48.4129 25.9286C48.4129 26.0981 48.3456 26.2617 48.2257 26.3816Z" fill="white"/>
<path d="M84.3842 25.9453C84.3841 25.6518 84.297 25.3649 84.1339 25.1209C83.9708 24.8769 83.739 24.6867 83.4678 24.5744C83.1966 24.4621 82.8982 24.4327 82.6103 24.49C82.3224 24.5473 82.058 24.6886 81.8504 24.8962L72.2073 34.5421L61.0826 23.4189C60.8044 23.1409 60.4272 22.9846 60.0339 22.9846C59.6405 22.9846 59.2633 23.1409 58.9852 23.4189L36.6716 45.72C36.3934 45.9982 36.2372 46.3755 36.2372 46.769C36.2372 47.1624 36.3934 47.5398 36.6716 47.818L42.4751 53.6211C42.6128 53.7589 42.7763 53.8683 42.9562 53.9429C43.1362 54.0174 43.3291 54.0558 43.524 54.0558C43.7188 54.0558 43.9117 54.0174 44.0916 53.9429C44.2716 53.8683 44.4351 53.7589 44.5728 53.6211L58.9842 39.2094C59.1219 39.0717 59.2855 38.9624 59.4654 38.8879C59.6454 38.8133 59.8383 38.775 60.0331 38.775C60.2278 38.775 60.4208 38.8133 60.6007 38.8879C60.7807 38.9624 60.9442 39.0717 61.0819 39.2094L81.8773 60.0044C82.083 60.2098 82.345 60.3496 82.6301 60.4062C82.9152 60.4627 83.2106 60.4335 83.4792 60.3223C83.7477 60.211 83.9773 60.0226 84.1388 59.781C84.3003 59.5393 84.3866 59.2552 84.3867 58.9645L84.3842 25.9453ZM82.1739 26.1551C82.2634 26.0657 82.3773 26.0048 82.5013 25.9801C82.6253 25.9555 82.7538 25.9681 82.8706 26.0165C82.9874 26.0649 83.0873 26.1468 83.1575 26.2519C83.2278 26.3571 83.2653 26.4806 83.2653 26.6071V45.603L72.9963 35.334L82.1739 26.1551ZM61.8744 38.4188C61.6328 38.1772 61.3459 37.9854 61.0302 37.8546C60.7145 37.7238 60.3761 37.6565 60.0343 37.6565C59.6926 37.6565 59.3542 37.7238 59.0385 37.8546C58.7227 37.9854 58.4359 38.1772 58.1943 38.4188L43.9756 52.6359C43.9163 52.6953 43.8458 52.7424 43.7682 52.7745C43.6906 52.8067 43.6075 52.8232 43.5235 52.8232C43.4395 52.8232 43.3563 52.8067 43.2787 52.7745C43.2011 52.7424 43.1307 52.6953 43.0713 52.6359L37.6566 47.2212C37.5972 47.1618 37.5501 47.0913 37.5179 47.0137C37.4858 46.9361 37.4692 46.853 37.4692 46.769C37.4692 46.685 37.4858 46.6018 37.5179 46.5243C37.5501 46.4467 37.5972 46.3762 37.6566 46.3168L59.5807 24.4048C59.7006 24.285 59.8632 24.2176 60.0327 24.2176C60.2023 24.2176 60.3649 24.285 60.4848 24.4048L71.4139 35.3352L65.1044 41.6495L61.8744 38.4188ZM82.1771 58.7219L65.896 42.4407L72.2054 36.1248L83.2663 47.1857L83.2688 58.2692C83.2693 58.3961 83.2319 58.5201 83.1617 58.6257C83.0914 58.7312 82.9913 58.8135 82.8741 58.862C82.757 58.9106 82.628 58.9232 82.5037 58.8982C82.3793 58.8732 82.2652 58.8119 82.1758 58.7219H82.1771Z" fill="white"/>
</svg>
