<svg width="88" height="72" viewBox="0 0 88 72" fill="none" xmlns="http://www.w3.org/2000/svg">
<path d="M22.3124 50.4542C22.0606 49.8206 21.6092 49.2812 21.0232 48.9138C20.3833 48.5271 19.641 48.3324 18.8886 48.3536C18.4745 48.3534 18.063 48.4174 17.6696 48.5432C17.2924 48.6608 16.9312 48.8226 16.5939 49.025C16.3373 49.1777 16.0965 49.3542 15.8749 49.5522L15.9174 49.3174C15.9456 49.1972 15.9442 49.0722 15.9131 48.9527C15.8821 48.8332 15.8224 48.7226 15.7389 48.6301C15.6475 48.5358 15.536 48.4622 15.4123 48.4144C15.2885 48.3666 15.1556 48.3459 15.0228 48.3536C14.726 48.3496 14.4372 48.4475 14.2069 48.6301C13.9812 48.7988 13.8287 49.0441 13.7797 49.3174L12.0226 59.0348C11.9923 59.1559 11.9925 59.2824 12.0232 59.4035C12.054 59.5246 12.1144 59.6365 12.1993 59.7298C12.2923 59.822 12.4044 59.8936 12.5282 59.9399C12.6519 59.9862 12.7844 60.0061 12.9167 59.9983C13.2135 60.0023 13.5023 59.9045 13.7327 59.7219C13.9582 59.5531 14.1107 59.3079 14.1598 59.0348L14.6977 56.0592C14.8133 56.1806 14.9388 56.2926 15.0732 56.394C15.3762 56.6189 15.7143 56.7949 16.0744 56.9155C16.492 57.0565 16.9315 57.126 17.3734 57.1208C18.1707 57.1234 18.956 56.9308 19.6573 56.5606C20.3769 56.1827 21.0018 55.6539 21.487 55.0123C21.9987 54.3386 22.3387 53.5557 22.4787 52.7284C22.6434 51.9701 22.5858 51.1819 22.3124 50.4542ZM19.8574 54.08C19.576 54.4749 19.2058 54.8018 18.7751 55.0358C18.3385 55.2697 17.8473 55.3894 17.3493 55.3833C16.8869 55.3998 16.4304 55.2786 16.0404 55.0358C15.6914 54.8055 15.4297 54.4697 15.2958 54.08C15.1471 53.6447 15.1177 53.1791 15.2103 52.7292C15.2939 52.2422 15.4903 51.7801 15.7846 51.3783C16.0695 50.9887 16.4413 50.6673 16.872 50.4382C17.3124 50.205 17.8066 50.0854 18.3077 50.0909C18.7673 50.0736 19.2213 50.1949 19.6078 50.4382C19.9497 50.6675 20.2083 50.9966 20.3464 51.3783C20.4975 51.8132 20.527 52.2795 20.4319 52.7292C20.3458 53.2156 20.1495 53.677 19.8574 54.08Z" fill="#023F80"/>
<path d="M33.4603 48.6207C33.3673 48.5286 33.2551 48.4569 33.1314 48.4106C33.0076 48.3643 32.8752 48.3444 32.7429 48.3523C32.4461 48.3483 32.1573 48.4461 31.9269 48.6287C31.7012 48.7974 31.5488 49.0428 31.4998 49.316L31.4956 49.3391C31.401 49.2464 31.3007 49.1596 31.1952 49.079C30.8869 48.8521 30.5427 48.6759 30.176 48.5576C29.7346 48.4149 29.2716 48.3454 28.8066 48.3523C28.0123 48.3516 27.2304 48.5442 26.5316 48.9125C25.8081 49.2885 25.1798 49.8175 24.6928 50.4608C24.1809 51.1344 23.841 51.9173 23.701 52.7447C23.5388 53.5009 23.5974 54.2864 23.8702 55.0118C24.1204 55.6505 24.5752 56.1935 25.167 56.5601C25.8044 56.9446 26.543 57.1393 27.2923 57.1203C27.731 57.1222 28.1671 57.0555 28.5842 56.9227C28.9663 56.8032 29.3332 56.6416 29.6777 56.4409C29.8934 56.315 30.0984 56.1724 30.2907 56.0145C30.2648 56.1324 30.2677 56.2545 30.299 56.371C30.3303 56.4876 30.3892 56.5954 30.4709 56.6857C30.5622 56.7801 30.6736 56.8538 30.7973 56.9015C30.921 56.9493 31.054 56.97 31.1868 56.9621C31.4836 56.9662 31.7725 56.8684 32.0029 56.6857C32.2284 56.5169 32.3809 56.2717 32.4301 55.9986L33.6383 49.3158C33.6684 49.1945 33.6679 49.068 33.6369 48.9469C33.6059 48.8259 33.5453 48.7139 33.4603 48.6207ZM29.3078 55.035C28.8674 55.2685 28.3732 55.3881 27.8721 55.3826C27.4154 55.3976 26.965 55.2764 26.5808 55.035C26.2331 54.8065 25.9713 54.4737 25.8349 54.087C25.685 53.6547 25.655 53.1913 25.7481 52.744C25.8322 52.2547 26.0285 51.7902 26.3224 51.3853C26.6062 50.9923 26.9787 50.668 27.4111 50.4373C27.8454 50.2057 28.3331 50.0861 28.828 50.09C29.2903 50.0736 29.7468 50.1947 30.1369 50.4373C30.4845 50.666 30.7463 50.9987 30.8831 51.3853C31.0331 51.8231 31.062 52.2918 30.967 52.744C30.8821 53.228 30.6865 53.687 30.3947 54.087C30.1114 54.4799 29.7396 54.8042 29.3078 55.035Z" fill="#023F80"/>
<path d="M42.8259 48.6286C42.7345 48.5343 42.623 48.4607 42.4993 48.4129C42.3756 48.3652 42.2426 48.3444 42.1098 48.3522C41.813 48.3482 41.5242 48.446 41.2939 48.6286C41.0682 48.7974 40.9158 49.0427 40.8667 49.3159L40.1354 53.3604C40.0773 53.7262 39.9352 54.0745 39.7197 54.3793C39.5228 54.652 39.2563 54.8699 38.9466 55.0112C38.604 55.1599 38.2319 55.2327 37.857 55.2246C37.2513 55.2246 36.8043 55.085 36.5163 54.8059C36.2283 54.5268 36.1462 54.045 36.27 53.3604L37.0011 49.3159C37.0294 49.1958 37.028 49.0708 36.9969 48.9513C36.9659 48.8318 36.9062 48.7212 36.8227 48.6286C36.7313 48.5343 36.6198 48.4607 36.4961 48.4129C36.3723 48.3652 36.2394 48.3444 36.1066 48.3522C35.8097 48.3482 35.5209 48.446 35.2905 48.6286C35.0649 48.7974 34.9125 49.0427 34.8635 49.3159L34.0295 53.9292C33.9176 54.4533 33.9549 54.9972 34.1372 55.5021C34.3057 55.9486 34.6232 56.3269 35.0387 56.5762C35.5162 56.8487 36.0634 56.9832 36.6164 56.964C37.1081 56.9692 37.5983 56.9108 38.0742 56.7901C38.4908 56.6832 38.8864 56.5097 39.2448 56.2767C39.403 56.1716 39.5523 56.0543 39.6912 55.9259L39.6607 56.095C39.5963 56.5515 39.423 56.9869 39.1547 57.3663C38.9172 57.6747 38.5896 57.9059 38.2151 58.0297C37.7634 58.171 37.2907 58.2378 36.8165 58.2272C36.4629 58.2354 36.1108 58.1791 35.7784 58.0613C35.4895 57.9507 35.2548 57.8691 35.0744 57.8166C34.8271 57.7321 34.5557 57.7462 34.319 57.856C34.041 57.9863 33.8183 58.2074 33.6895 58.4808C33.6288 58.5788 33.5936 58.6897 33.5869 58.804C33.5802 58.9183 33.6022 59.0324 33.6511 59.1365C33.7951 59.379 34.0251 59.5617 34.2978 59.6499C34.6216 59.772 34.9606 59.8517 35.3059 59.8869C35.7028 59.9381 36.1027 59.9645 36.5031 59.9658C37.3146 59.973 38.1213 59.8448 38.8885 59.5868C39.6131 59.3405 40.2586 58.9128 40.7605 58.3466C41.3157 57.682 41.6731 56.8814 41.7937 56.0321L43.0086 49.3177C43.0366 49.1969 43.0347 49.0714 43.0029 48.9515C42.9711 48.8317 42.9104 48.7209 42.8259 48.6286Z" fill="#023F80"/>
<path d="M56.5078 48.6287C56.425 48.5379 56.3227 48.4661 56.2082 48.4183C56.0936 48.3705 55.9697 48.348 55.8452 48.3523C55.2987 48.3523 54.9181 48.5524 54.7033 48.9526L51.973 53.4954L51.1999 50.2007C51.1643 50.0341 51.0766 49.8823 50.9488 49.7664C50.783 49.6522 50.5813 49.5988 50.3791 49.6156C50.1613 49.6104 49.946 49.6618 49.7552 49.7645C49.5644 49.8672 49.4051 50.0175 49.2935 50.2001L47.2769 53.5829L46.1878 48.9524C46.1784 48.8593 46.1473 48.7696 46.0968 48.6902C46.0463 48.6108 45.9777 48.5438 45.8964 48.4943C45.7203 48.3957 45.5196 48.3464 45.3166 48.3521C45.0076 48.3431 44.707 48.4507 44.4773 48.6524C44.2662 48.8271 44.1223 49.0666 44.0693 49.3316C44.0464 49.4519 44.0483 49.5755 44.0751 49.6951L45.6241 56.204C45.6446 56.3059 45.6882 56.4021 45.7517 56.4855C45.8152 56.5689 45.897 56.6374 45.9912 56.686C46.1868 56.7957 46.4148 56.8375 46.6379 56.8045C46.8441 56.7908 47.044 56.7292 47.2208 56.6247C47.3975 56.5202 47.5461 56.3759 47.6539 56.204L49.7916 52.3179L50.6113 56.204C50.659 56.3756 50.7631 56.5273 50.9075 56.6357C51.052 56.7442 51.229 56.8034 51.4113 56.8045C51.654 56.8311 51.8994 56.7886 52.1179 56.682C52.3364 56.5754 52.5185 56.4094 52.6422 56.204L56.5447 49.6951C56.5778 49.6424 56.6058 49.5869 56.6282 49.5292C56.6522 49.465 56.6701 49.3989 56.6817 49.3316C56.7118 49.2094 56.7117 49.0819 56.6815 48.9597C56.6513 48.8375 56.5918 48.7241 56.5078 48.6287Z" fill="#023F80"/>
<path d="M66.4322 48.6207C66.3391 48.5286 66.2269 48.457 66.1031 48.4107C65.9794 48.3644 65.8469 48.3445 65.7145 48.3522C65.4178 48.3483 65.129 48.4461 64.8986 48.6287C64.6729 48.7974 64.5204 49.0427 64.4714 49.316L64.4672 49.339C64.3727 49.2464 64.2724 49.1595 64.1668 49.079C63.8586 48.852 63.5144 48.6759 63.1477 48.5576C62.7062 48.4148 62.2433 48.3454 61.7783 48.3522C60.984 48.3516 60.2021 48.5442 59.5032 48.9124C58.7797 49.2885 58.1515 49.8175 57.6644 50.4607C57.1526 51.1344 56.8126 51.9173 56.6727 52.7446C56.5105 53.5009 56.5691 54.2864 56.8419 55.0117C57.0922 55.6504 57.547 56.1934 58.1387 56.56C58.7762 56.9445 59.5149 57.1392 60.2642 57.1202C60.7028 57.1221 61.1389 57.0554 61.5559 56.9227C61.938 56.8032 62.3049 56.6416 62.6494 56.4409C62.8651 56.3149 63.0702 56.1724 63.2626 56.0145C63.2367 56.1323 63.2395 56.2544 63.2708 56.3709C63.3021 56.4875 63.3609 56.5953 63.4426 56.6857C63.5339 56.78 63.6453 56.8537 63.769 56.9015C63.8927 56.9493 64.0257 56.9699 64.1585 56.9621C64.4557 56.9664 64.745 56.8686 64.9757 56.6857C65.2013 56.5169 65.3537 56.2717 65.4029 55.9985L66.6111 49.3158C66.641 49.1944 66.6404 49.0678 66.6092 48.9468C66.5781 48.8257 66.5173 48.7138 66.4322 48.6207ZM62.2797 55.035C61.8397 55.2683 61.3458 55.3879 60.8451 55.3825C60.3885 55.3976 59.9381 55.2763 59.554 55.035C59.2063 54.8065 58.9444 54.4737 58.8079 54.087C58.6582 53.6546 58.6282 53.1913 58.7211 52.744C58.8053 52.2547 59.0016 51.7903 59.2954 51.3853C59.5793 50.9922 59.9518 50.6678 60.3843 50.4372C60.8185 50.2056 61.3062 50.0861 61.801 50.0899C62.2633 50.0735 62.7198 50.1947 63.1099 50.4372C63.4575 50.666 63.7193 50.9987 63.8561 51.3853C64.0061 51.8231 64.035 52.2918 63.94 52.744C63.8553 53.2279 63.6596 53.687 63.3677 54.087C63.084 54.48 62.7117 54.8043 62.2795 55.035H62.2797Z" fill="#023F80"/>
<path d="M75.7974 48.6286C75.706 48.5343 75.5945 48.4607 75.4708 48.4129C75.3471 48.3652 75.2141 48.3444 75.0813 48.3522C74.7845 48.3482 74.4957 48.446 74.2654 48.6286C74.0397 48.7974 73.8873 49.0427 73.8382 49.3159L73.1071 53.3604C73.0489 53.7262 72.9067 54.0745 72.6912 54.3793C72.4943 54.652 72.2278 54.8699 71.9181 55.0112C71.5755 55.1599 71.2034 55.2327 70.8285 55.2246C70.2229 55.2246 69.776 55.085 69.488 54.8059C69.2 54.5268 69.1178 54.045 69.2415 53.3604L69.9726 49.3159C70.001 49.1958 69.9996 49.0707 69.9686 48.9512C69.9376 48.8317 69.8778 48.7211 69.7942 48.6286C69.7027 48.5343 69.5913 48.4607 69.4675 48.4129C69.3438 48.3652 69.2109 48.3444 69.0781 48.3522C68.7813 48.3482 68.4925 48.446 68.2622 48.6286C68.0365 48.7974 67.884 49.0427 67.835 49.3159L67.0009 53.9292C66.8891 54.4533 66.9263 54.9972 67.1087 55.5021C67.2772 55.9486 67.5947 56.3269 68.0101 56.5762C68.4877 56.8487 69.0349 56.9832 69.5879 56.964C70.0795 56.9692 70.5698 56.9107 71.0457 56.7901C71.4623 56.6833 71.8579 56.5098 72.2163 56.2767C72.3745 56.1716 72.5238 56.0543 72.6627 55.9259L72.6322 56.095C72.5679 56.5516 72.3945 56.987 72.1262 57.3663C71.8887 57.6747 71.5613 57.9059 71.1868 58.0297C70.7351 58.171 70.2624 58.2378 69.7882 58.2272C69.4346 58.2354 69.0825 58.1791 68.7501 58.0613C68.4612 57.9507 68.2265 57.8691 68.0461 57.8166C67.7989 57.7321 67.5274 57.7462 67.2907 57.856C67.0127 57.9863 66.79 58.2074 66.6612 58.4808C66.6005 58.5788 66.5652 58.6897 66.5585 58.804C66.5518 58.9183 66.5739 59.0324 66.6228 59.1365C66.7668 59.379 66.9969 59.5616 67.2695 59.6499C67.5933 59.772 67.9323 59.8517 68.2776 59.8869C68.6745 59.9381 69.0744 59.9645 69.4748 59.9658C70.2863 59.973 71.093 59.8448 71.8602 59.5868C72.5849 59.3405 73.2305 58.9128 73.7324 58.3466C74.2875 57.6819 74.6449 56.8813 74.7655 56.0321L75.9803 49.3177C76.0083 49.1969 76.0063 49.0713 75.9745 48.9515C75.9427 48.8316 75.882 48.7209 75.7974 48.6286Z" fill="#023F80"/>
<path d="M36.3302 19.3327L29.1159 12.2953C28.9331 12.1128 28.6845 12.007 28.423 12.0005C28.2855 11.9962 28.1485 12.0189 28.0202 12.0673C27.8919 12.1157 27.7749 12.1888 27.6762 12.2823C27.5774 12.3757 27.499 12.4876 27.4455 12.6113C27.3921 12.7349 27.3647 12.8678 27.365 13.002V27.0784C27.3647 27.2126 27.3921 27.3454 27.4455 27.4691C27.499 27.5927 27.5774 27.7046 27.6761 27.798C27.7748 27.8915 27.8918 27.9646 28.02 28.013C28.1483 28.0614 28.2853 28.0842 28.4228 28.0798C28.6843 28.0733 28.933 27.9676 29.1159 27.7851L36.3302 20.7477C36.5225 20.56 36.6306 20.3055 36.6306 20.0402C36.6306 19.7748 36.5225 19.5204 36.3302 19.3327Z" fill="#1AAAAD"/>
<path d="M60.6314 34.0533L52.2159 25.8459L46.7603 31.1679L58.8966 43.0065C59.0387 43.1449 59.2197 43.2392 59.4168 43.2774C59.6138 43.3156 59.818 43.2959 60.0036 43.2209C60.1892 43.1459 60.3478 43.0189 60.4594 42.856C60.571 42.6931 60.6306 42.5015 60.6307 42.3056L60.6314 34.0533Z" fill="#FECF2F"/>
<path d="M44.5317 18.3496C44.3395 18.1622 44.0789 18.0569 43.8071 18.0569C43.5354 18.0569 43.2747 18.1622 43.0825 18.3496L27.6653 33.3809C27.5701 33.4737 27.4946 33.584 27.443 33.7053C27.3915 33.8266 27.365 33.9566 27.365 34.0879C27.365 34.2193 27.3915 34.3493 27.443 34.4706C27.4946 34.5919 27.5701 34.7022 27.6653 34.795L31.6742 38.7056C31.7694 38.7985 31.8824 38.8721 32.0067 38.9224C32.131 38.9726 32.2643 38.9985 32.3989 38.9985C32.5335 38.9985 32.6668 38.9726 32.7911 38.9224C32.9155 38.8721 33.0284 38.7985 33.1236 38.7056L43.0816 28.9917C43.1768 28.8989 43.2898 28.8252 43.4141 28.775C43.5385 28.7248 43.6718 28.6989 43.8063 28.6989C43.9409 28.6989 44.0742 28.7248 44.1986 28.775C44.3229 28.8252 44.4359 28.8989 44.531 28.9917L46.7619 31.1679L52.2176 25.846L44.5317 18.3496Z" fill="#DD2457"/>
<path d="M58.8826 19.3444L52.2163 25.8462L60.6317 34.0536L60.634 20.0518C60.6341 19.8538 60.574 19.6602 60.4612 19.4956C60.3485 19.3309 60.1883 19.2026 60.0007 19.1269C59.8132 19.0511 59.6069 19.0314 59.4078 19.0701C59.2088 19.1088 59.026 19.2043 58.8826 19.3444Z" fill="#023F80"/>
</svg>
