<svg width="88" height="72" viewBox="0 0 88 72" fill="none" xmlns="http://www.w3.org/2000/svg">
<path d="M22.3126 50.4537C22.0608 49.82 21.6094 49.2807 21.0233 48.9133C20.3834 48.5267 19.6413 48.3319 18.8889 48.3531C18.4748 48.3529 18.0633 48.4169 17.6699 48.5427C17.2926 48.6603 16.9313 48.8221 16.5939 49.0245C16.3375 49.1772 16.0968 49.3538 15.8752 49.5517L15.9176 49.3171C15.946 49.1969 15.9445 49.0719 15.9135 48.9523C15.8824 48.8328 15.8225 48.7222 15.7389 48.6297C15.6475 48.5354 15.536 48.4617 15.4123 48.4139C15.2886 48.3661 15.1556 48.3453 15.0228 48.3531C14.7259 48.3491 14.4371 48.447 14.2068 48.6297C13.9811 48.7985 13.8286 49.0438 13.7796 49.3171L12.0227 59.0346C11.9923 59.1557 11.9924 59.2823 12.0232 59.4034C12.054 59.5244 12.1145 59.6364 12.1994 59.7297C12.2924 59.8218 12.4045 59.8935 12.5283 59.9399C12.652 59.9862 12.7845 60.0062 12.9168 59.9983C13.2136 60.0023 13.5024 59.9044 13.7328 59.7219C13.9584 59.553 14.1108 59.3078 14.16 59.0346L14.6981 56.0592C14.8136 56.1806 14.9392 56.2925 15.0736 56.3938C15.3767 56.6187 15.7149 56.7947 16.0751 56.9153C16.4926 57.0563 16.932 57.1258 17.3739 57.1206C18.1712 57.1233 18.9566 56.9307 19.6578 56.5604C20.3776 56.1825 21.0025 55.6538 21.4878 55.0123C21.9995 54.3385 22.3393 53.5556 22.4794 52.7283C22.6441 51.9699 22.5863 51.1815 22.3126 50.4537ZM19.8577 54.0795C19.5766 54.4746 19.2063 54.8016 18.7754 55.0353C18.3389 55.2693 17.8478 55.3891 17.3498 55.3831C16.8874 55.3996 16.4308 55.2783 16.0408 55.0353C15.6916 54.8052 15.4299 54.4693 15.296 54.0795C15.1473 53.6442 15.1179 53.1786 15.2105 52.7288C15.2941 52.2417 15.4905 51.7798 15.7848 51.378C16.0698 50.9884 16.4417 50.667 16.8725 50.4379C17.3125 50.2047 17.8063 50.0851 18.3071 50.0904C18.7667 50.0731 19.2207 50.1945 19.607 50.4379C19.949 50.6672 20.2076 50.9963 20.3457 51.378C20.4969 51.8128 20.5264 52.2791 20.4311 52.7288C20.3455 53.215 20.1496 53.6765 19.8577 54.0795Z" fill="white"/>
<path d="M33.4612 48.6203C33.3682 48.5281 33.256 48.4565 33.1322 48.4101C33.0084 48.3638 32.8759 48.3438 32.7436 48.3516C32.4468 48.3476 32.1579 48.4455 31.9276 48.6282C31.7019 48.7969 31.5495 49.0422 31.5005 49.3154L31.4962 49.3384C31.4016 49.2459 31.3013 49.159 31.1958 49.0784C30.8876 48.8515 30.5433 48.6754 30.1767 48.5571C29.7352 48.4143 29.2723 48.3448 28.8072 48.3516C28.0129 48.3511 27.231 48.5436 26.5321 48.9118C25.8086 49.2879 25.1804 49.8169 24.6932 50.4601C24.1814 51.1338 23.8415 51.9167 23.7015 52.7441C23.5394 53.5003 23.598 54.2858 23.8706 55.0112C24.121 55.6499 24.5757 56.1928 25.1675 56.5593C25.805 56.9439 26.5437 57.1386 27.293 57.1195C27.7317 57.1214 28.1678 57.0547 28.5848 56.9219C28.967 56.8026 29.3339 56.641 29.6784 56.4402C29.8941 56.3143 30.0992 56.1718 30.2915 56.014C30.2657 56.1318 30.2685 56.2539 30.2998 56.3704C30.3311 56.487 30.3899 56.5948 30.4716 56.6851C30.5629 56.7796 30.6744 56.8532 30.7981 56.901C30.9218 56.9488 31.0548 56.9695 31.1877 56.9616C31.4845 56.9657 31.7733 56.8678 32.0036 56.6851C32.2293 56.5164 32.3818 56.2711 32.4308 55.9978L33.6391 49.3149C33.6692 49.1937 33.6687 49.0672 33.6377 48.9463C33.6068 48.8253 33.5462 48.7134 33.4612 48.6203ZM29.3086 55.0345C28.8686 55.2678 28.3747 55.3875 27.8739 55.3822C27.4173 55.3972 26.9669 55.2759 26.5829 55.0345C26.2351 54.806 25.9732 54.4732 25.8367 54.0864C25.687 53.6541 25.657 53.1909 25.7499 52.7436C25.8341 52.2543 26.0304 51.7899 26.3242 51.3849C26.608 50.9918 26.9806 50.6674 27.4132 50.4369C27.8474 50.2051 28.335 50.0855 28.8299 50.0893C29.2923 50.0729 29.7488 50.1941 30.1389 50.4369C30.4865 50.6655 30.7484 50.9983 30.8851 51.3849C31.0351 51.8227 31.064 52.2914 30.969 52.7436C30.8843 53.2276 30.6886 53.6866 30.3967 54.0864C30.1131 54.4798 29.7408 54.8044 29.3084 55.0353L29.3086 55.0345Z" fill="white"/>
<path d="M42.8269 48.6292C42.7355 48.5349 42.6241 48.4612 42.5004 48.4134C42.3767 48.3656 42.2438 48.3448 42.111 48.3526C41.8137 48.3483 41.5243 48.4462 41.2937 48.6292C41.068 48.798 40.9155 49.0433 40.8665 49.3166L40.1354 53.3608C40.0772 53.7268 39.935 54.0752 39.7195 54.38C39.5225 54.6527 39.256 54.8705 38.9464 55.012C38.6037 55.1606 38.2316 55.2334 37.8567 55.2253C37.2508 55.2253 36.8038 55.0856 36.516 54.8064C36.2281 54.5272 36.1459 54.0453 36.2694 53.3608L37.0008 49.3166C37.0292 49.1964 37.0278 49.0713 36.9967 48.9518C36.9656 48.8323 36.9058 48.7217 36.8221 48.6292C36.7307 48.5349 36.6193 48.4612 36.4955 48.4134C36.3718 48.3656 36.2388 48.3448 36.106 48.3526C35.8092 48.3485 35.5203 48.4465 35.2901 48.6292C35.0643 48.798 34.9119 49.0433 34.8628 49.3166L34.0288 53.9297C33.9169 54.4537 33.9542 54.9977 34.1366 55.5026C34.3051 55.9491 34.6226 56.3275 35.038 56.5769C35.5158 56.8493 36.063 56.9838 36.616 56.9647C37.1073 56.9699 37.5972 56.9114 38.0728 56.7908C38.4893 56.6838 38.8849 56.5103 39.2434 56.2774C39.4017 56.1722 39.5511 56.0549 39.6901 55.9264L39.6594 56.0958C39.5951 56.5523 39.4217 56.9877 39.1533 57.367C38.9159 57.6755 38.5884 57.9068 38.2139 58.0306C37.7622 58.1719 37.2895 58.2386 36.8153 58.228C36.4616 58.2362 36.1095 58.18 35.7771 58.0621C35.4882 57.9515 35.2535 57.8699 35.0731 57.8173C34.8259 57.7329 34.5545 57.7471 34.3179 57.8568C34.0399 57.9872 33.8171 58.2082 33.6882 58.4816C33.6274 58.5795 33.5922 58.6904 33.5855 58.8047C33.5789 58.9189 33.601 59.0331 33.65 59.137C33.7938 59.3796 34.0238 59.5623 34.2965 59.6505C34.6203 59.7726 34.9593 59.8523 35.3046 59.8875C35.7015 59.9388 36.1014 59.9652 36.5018 59.9666C37.3134 59.9737 38.1202 59.8455 38.8874 59.5874C39.6121 59.3411 40.2577 58.9134 40.7596 58.3472C41.3148 57.6825 41.6721 56.8819 41.7927 56.0326L43.0075 49.3183C43.036 49.1977 43.0344 49.0722 43.0029 48.9524C42.9715 48.8325 42.9111 48.7217 42.8269 48.6292Z" fill="white"/>
<path d="M56.5093 48.6292C56.4265 48.5384 56.3243 48.4665 56.2097 48.4186C56.0952 48.3708 55.9712 48.3483 55.8467 48.3525C55.3002 48.3525 54.9196 48.5527 54.7049 48.953L51.9741 53.4959L51.201 50.2012C51.1655 50.0345 51.0777 49.8826 50.9499 49.7666C50.7841 49.6525 50.5824 49.5991 50.3802 49.6158C50.1624 49.6106 49.9471 49.662 49.7564 49.7647C49.5656 49.8675 49.4063 50.0178 49.2948 50.2004L47.2781 53.5832L46.1889 48.9526C46.1795 48.8596 46.1484 48.7699 46.0979 48.6905C46.0473 48.6111 45.9788 48.5441 45.8976 48.4945C45.7214 48.3958 45.5206 48.3465 45.3175 48.3521C45.0086 48.3433 44.708 48.4508 44.4782 48.6525C44.2671 48.8272 44.1233 49.0668 44.0704 49.3318C44.0473 49.4521 44.0492 49.5756 44.0759 49.6951L45.625 56.2043C45.6455 56.3062 45.6892 56.4024 45.7527 56.4857C45.8162 56.5691 45.898 56.6375 45.9921 56.6861C46.1877 56.7959 46.4158 56.8377 46.6389 56.8046C46.8451 56.791 47.0449 56.7294 47.2217 56.6249C47.3985 56.5205 47.547 56.3763 47.6549 56.2043L49.7927 52.318L50.6146 56.2047C50.6622 56.3764 50.7663 56.5281 50.9108 56.6365C51.0553 56.7449 51.2323 56.8041 51.4146 56.805C51.6573 56.8317 51.9027 56.7892 52.1211 56.6826C52.3395 56.5761 52.5217 56.4101 52.6454 56.2047L56.5482 49.6955C56.5813 49.6429 56.6092 49.5874 56.6315 49.5296C56.6555 49.4656 56.6734 49.3995 56.6849 49.3323C56.7148 49.2099 56.7145 49.0823 56.684 48.9601C56.6534 48.8379 56.5936 48.7245 56.5093 48.6292Z" fill="white"/>
<path d="M66.4347 48.6203C66.3417 48.5281 66.2295 48.4565 66.1057 48.4101C65.9819 48.3638 65.8494 48.3438 65.7171 48.3516C65.4203 48.3476 65.1314 48.4455 64.9011 48.6282C64.6754 48.7969 64.5229 49.0422 64.4739 49.3154L64.4697 49.3384C64.3752 49.2458 64.2748 49.1589 64.1693 49.0784C63.8611 48.8515 63.5168 48.6754 63.1502 48.5571C62.7087 48.4143 62.2458 48.3448 61.7807 48.3516C60.9864 48.3511 60.2045 48.5436 59.5056 48.9118C58.7821 49.288 58.1539 49.817 57.6667 50.4601C57.1549 51.1338 56.8149 51.9167 56.6749 52.7441C56.5128 53.5003 56.5715 54.2858 56.8441 55.0112C57.0945 55.6499 57.5492 56.1928 58.1409 56.5593C58.7784 56.9439 59.5172 57.1386 60.2665 57.1195C60.7052 57.1214 61.1413 57.0547 61.5583 56.9219C61.9405 56.8026 62.3075 56.6409 62.6521 56.4402C62.8677 56.3143 63.0727 56.1718 63.265 56.014C63.2392 56.1318 63.242 56.2539 63.2733 56.3704C63.3046 56.487 63.3634 56.5948 63.4451 56.6851C63.5364 56.7796 63.6479 56.8532 63.7716 56.901C63.8953 56.9488 64.0283 56.9695 64.1611 56.9616C64.458 56.9657 64.7468 56.8678 64.9771 56.6851C65.2028 56.5164 65.3553 56.2711 65.4043 55.9978L66.6125 49.3149C66.6426 49.1937 66.6422 49.0672 66.6112 48.9463C66.5803 48.8253 66.5197 48.7134 66.4347 48.6203ZM62.2821 55.0353C61.8418 55.2688 61.3475 55.3885 60.8463 55.3831C60.3897 55.398 59.9393 55.2767 59.5553 55.0353C59.2075 54.8068 58.9456 54.474 58.8091 54.0873C58.6593 53.655 58.6294 53.1917 58.7223 52.7445C58.8065 52.2552 59.0028 51.7908 59.2966 51.3858C59.5805 50.9927 59.953 50.6683 60.3856 50.4377C60.8197 50.206 61.3074 50.0863 61.8023 50.0902C62.2648 50.0738 62.7214 50.195 63.1115 50.4377C63.459 50.6665 63.7207 50.9992 63.8574 51.3858C64.0074 51.8236 64.0364 52.2923 63.9414 52.7445C63.8567 53.2284 63.661 53.6874 63.3691 54.0873C63.0859 54.4803 62.714 54.8046 62.2821 55.0353Z" fill="white"/>
<path d="M75.8001 48.6292C75.7088 48.5349 75.5973 48.4612 75.4737 48.4134C75.35 48.3656 75.2171 48.3448 75.0842 48.3526C74.787 48.3483 74.4977 48.4462 74.267 48.6292C74.0413 48.798 73.8888 49.0433 73.8398 49.3166L73.1087 53.3608C73.0504 53.7268 72.9083 54.0752 72.6927 54.38C72.4958 54.6527 72.2293 54.8705 71.9196 55.012C71.577 55.1606 71.2049 55.2334 70.83 55.2253C70.224 55.2253 69.7771 55.0856 69.4892 54.8064C69.2013 54.5272 69.1192 54.0453 69.2427 53.3608L69.9741 49.3166C70.0024 49.1964 70.001 49.0713 69.9699 48.9518C69.9389 48.8323 69.879 48.7217 69.7954 48.6292C69.704 48.5349 69.5925 48.4612 69.4688 48.4134C69.3451 48.3656 69.2121 48.3448 69.0793 48.3526C68.7824 48.3486 68.4936 48.4465 68.2633 48.6292C68.0376 48.798 67.8851 49.0433 67.8361 49.3166L67.0021 53.9297C66.8903 54.4538 66.9276 54.9977 67.1099 55.5026C67.2784 55.9491 67.5959 56.3275 68.0113 56.5769C68.489 56.8493 69.0363 56.9838 69.5893 56.9647C70.0806 56.9699 70.5705 56.9114 71.046 56.7908C71.4626 56.6838 71.8582 56.5103 72.2167 56.2774C72.3751 56.1717 72.5246 56.0537 72.6636 55.9247L72.6329 56.094C72.5686 56.5506 72.3953 56.9861 72.1268 57.3653C71.8894 57.6738 71.5619 57.9051 71.1874 58.0289C70.7357 58.1701 70.263 58.2368 69.7887 58.2263C69.4351 58.2345 69.083 58.1783 68.7506 58.0604C68.4615 57.9498 68.2268 57.8682 68.0464 57.8156C67.7992 57.7312 67.5278 57.7453 67.2912 57.855C67.0131 57.9854 66.7904 58.2064 66.6615 58.4799C66.6007 58.5778 66.5655 58.6887 66.5588 58.803C66.5521 58.9172 66.5743 59.0313 66.6233 59.1353C66.7671 59.3779 66.9971 59.5606 67.2698 59.6488C67.5937 59.7709 67.9327 59.8506 68.2781 59.8858C68.675 59.9371 69.0748 59.9635 69.4751 59.9649C70.2866 59.972 71.0934 59.8437 71.8607 59.5856C72.5853 59.3394 73.231 58.9117 73.7329 58.3454C74.288 57.6807 74.6454 56.8801 74.7662 56.0309L75.9799 49.3166C76.0082 49.1963 76.0066 49.0712 75.9753 48.9517C75.944 48.8321 75.884 48.7216 75.8001 48.6292Z" fill="white"/>
<path d="M36.3301 19.3326L29.1158 12.2951C28.9328 12.1127 28.6843 12.0071 28.4228 12.0005C28.2853 11.9962 28.1483 12.0188 28.02 12.0672C27.8917 12.1156 27.7746 12.1887 27.6759 12.2822C27.5772 12.3757 27.4987 12.4876 27.4453 12.6112C27.3918 12.7349 27.3645 12.8678 27.3648 13.002V27.0779C27.3645 27.2121 27.3919 27.345 27.4453 27.4686C27.4988 27.5923 27.5772 27.7041 27.6759 27.7976C27.7746 27.8911 27.8916 27.9642 28.0199 28.0126C28.1482 28.061 28.2851 28.0837 28.4226 28.0794C28.6842 28.0729 28.9329 27.9672 29.1158 27.7847L36.3301 20.7474C36.5224 20.5597 36.6304 20.3053 36.6304 20.04C36.6304 19.7747 36.5224 19.5202 36.3301 19.3326ZM35.6487 20.3453L28.8922 26.9359C28.8304 26.9962 28.7517 27.0372 28.6661 27.0538C28.5804 27.0705 28.4916 27.0619 28.4108 27.0293C28.3301 26.9967 28.2612 26.9415 28.2126 26.8706C28.1641 26.7998 28.1381 26.7165 28.1381 26.6313V13.4493C28.1381 13.3641 28.164 13.2808 28.2125 13.2099C28.261 13.139 28.33 13.0837 28.4107 13.0511C28.4915 13.0185 28.5803 13.0099 28.666 13.0265C28.7517 13.0431 28.8304 13.0842 28.8922 13.1444L35.6487 19.7353C35.7315 19.8161 35.778 19.9257 35.778 20.04C35.778 20.1542 35.7315 20.2645 35.6487 20.3453Z" fill="white"/>
<path d="M60.6328 20.0513C60.6327 19.8534 60.5725 19.66 60.4598 19.4956C60.3471 19.3311 60.187 19.2029 59.9996 19.1272C59.8122 19.0515 59.606 19.0317 59.4071 19.0703C59.2082 19.1089 59.0255 19.2042 58.882 19.3441L52.219 25.8456L44.5323 18.3484C44.3401 18.161 44.0794 18.0557 43.8076 18.0557C43.5359 18.0557 43.2752 18.161 43.083 18.3484L27.6652 33.3795C27.473 33.5671 27.365 33.8214 27.365 34.0866C27.365 34.3518 27.473 34.6061 27.6652 34.7936L31.6752 38.705C31.7703 38.7979 31.8833 38.8715 32.0076 38.9218C32.132 38.9721 32.2653 38.998 32.3999 38.998C32.5345 38.998 32.6678 38.9721 32.7922 38.9218C32.9165 38.8715 33.0295 38.7979 33.1246 38.705L43.0823 28.9914C43.1775 28.8985 43.2905 28.8249 43.4149 28.7746C43.5392 28.7244 43.6725 28.6985 43.8071 28.6985C43.9417 28.6985 44.075 28.7244 44.1993 28.7746C44.3237 28.8249 44.4366 28.8985 44.5318 28.9914L58.9006 43.0074C59.0427 43.1458 59.2237 43.24 59.4207 43.2782C59.6178 43.3163 59.8219 43.2966 60.0074 43.2216C60.193 43.1466 60.3516 43.0196 60.4632 42.8568C60.5748 42.6939 60.6344 42.5024 60.6345 42.3065L60.6328 20.0513ZM59.1056 20.1926C59.1673 20.1324 59.2461 20.0913 59.3317 20.0747C59.4174 20.0581 59.5062 20.0666 59.5869 20.0992C59.6677 20.1318 59.7366 20.1871 59.7852 20.2579C59.8337 20.3288 59.8597 20.4121 59.8597 20.4973V33.3007L52.7642 26.3793L59.1056 20.1926ZM45.0794 28.4585C44.9124 28.2956 44.7142 28.1664 44.4961 28.0782C44.2779 27.9901 44.0441 27.9447 43.808 27.9447C43.5718 27.9447 43.338 27.9901 43.1198 28.0782C42.9017 28.1664 42.7035 28.2956 42.5365 28.4585L32.712 38.0409C32.671 38.0809 32.6223 38.1127 32.5687 38.1344C32.5151 38.156 32.4576 38.1672 32.3996 38.1672C32.3416 38.1672 32.2841 38.156 32.2305 38.1344C32.1769 38.1127 32.1282 38.0809 32.0871 38.0409L28.3458 34.3914C28.3047 34.3513 28.2722 34.3038 28.25 34.2515C28.2278 34.1992 28.2163 34.1432 28.2163 34.0866C28.2163 34.03 28.2278 33.9739 28.25 33.9216C28.2722 33.8693 28.3047 33.8218 28.3458 33.7818L43.4945 19.0129C43.5774 18.9321 43.6897 18.8868 43.8069 18.8868C43.924 18.8868 44.0364 18.9321 44.1192 19.0129L51.6708 26.3801L47.3112 30.636L45.0794 28.4585ZM59.1078 42.1429L47.8581 31.1693L52.2177 26.9123L59.8603 34.3674L59.8621 41.8378C59.8624 41.9233 59.8366 42.0069 59.788 42.0781C59.7395 42.1492 59.6703 42.2047 59.5894 42.2374C59.5084 42.2701 59.4193 42.2786 59.3334 42.2618C59.2475 42.2449 59.1686 42.2036 59.1069 42.1429H59.1078Z" fill="white"/>
</svg>
