<svg width="120" height="100" viewBox="0 0 120 100" fill="none" xmlns="http://www.w3.org/2000/svg">
<path d="M30.1796 70.4768C29.8333 69.5792 29.2126 68.8151 28.4068 68.2946C27.527 67.7468 26.5064 67.4709 25.4718 67.501C24.9025 67.5006 24.3367 67.5913 23.7957 67.7696C23.277 67.9361 22.7803 68.1653 22.3166 68.4521C21.9638 68.6684 21.6327 68.9185 21.328 69.1991L21.3864 68.8663C21.4252 68.6961 21.4232 68.519 21.3805 68.3497C21.3379 68.1804 21.2558 68.0238 21.141 67.8926C21.0153 67.759 20.862 67.6548 20.6919 67.5871C20.5218 67.5194 20.339 67.4901 20.1563 67.501C19.7483 67.4954 19.3512 67.634 19.0345 67.8926C18.7241 68.1317 18.5144 68.4792 18.4471 68.8663L16.0311 82.6326C15.9893 82.8043 15.9896 82.9835 16.032 83.155C16.0743 83.3266 16.1574 83.4852 16.2741 83.6173C16.4019 83.7479 16.5561 83.8494 16.7263 83.915C16.8964 83.9806 17.0786 84.0088 17.2605 83.9977C17.6686 84.0033 18.0657 83.8647 18.3824 83.606C18.6926 83.3669 18.9022 83.0196 18.9698 82.6326L19.7093 78.4173C19.8682 78.5893 20.0409 78.7479 20.2256 78.8916C20.6423 79.2101 21.1071 79.4595 21.6023 79.6303C22.1765 79.8301 22.7808 79.9285 23.3884 79.9212C24.4847 79.9249 25.5645 79.652 26.5287 79.1276C27.5182 78.5921 28.3775 77.8431 29.0446 76.9341C29.7483 75.9797 30.2157 74.8706 30.4083 73.6986C30.6347 72.6244 30.5554 71.5078 30.1796 70.4768ZM26.8039 75.6134C26.417 76.1728 25.9079 76.6359 25.3157 76.9674C24.7154 77.2987 24.0401 77.4684 23.3553 77.4597C22.7195 77.4831 22.0918 77.3114 21.5555 76.9674C21.0756 76.6412 20.7158 76.1654 20.5317 75.6134C20.3273 74.9967 20.2868 74.3371 20.4142 73.6998C20.5291 73.0098 20.7992 72.3552 21.2038 71.786C21.5956 71.2341 22.1068 70.7788 22.699 70.4542C23.3045 70.1238 23.9841 69.9544 24.6731 69.9622C25.3051 69.9377 25.9293 70.1095 26.4607 70.4542C26.9309 70.779 27.2864 71.2452 27.4763 71.786C27.684 72.4021 27.7246 73.0627 27.5938 73.6998C27.4754 74.3888 27.2056 75.0425 26.8039 75.6134Z" fill="#023F80"/>
<path d="M45.5078 67.8793C45.38 67.7487 45.2258 67.6472 45.0557 67.5816C44.8855 67.516 44.7033 67.4878 44.5214 67.4989C44.1133 67.4933 43.7163 67.6319 43.3995 67.8906C43.0892 68.1296 42.8795 68.4772 42.8122 68.8643L42.8064 68.8969C42.6764 68.7657 42.5384 68.6427 42.3933 68.5285C41.9695 68.207 41.4961 67.9575 40.992 67.7898C40.385 67.5876 39.7485 67.4893 39.1091 67.4989C38.0169 67.4981 36.9418 67.7708 35.9809 68.2926C34.9861 68.8253 34.1222 69.5747 33.4525 70.486C32.7488 71.4404 32.2813 72.5495 32.0889 73.7215C31.8659 74.7929 31.9465 75.9057 32.3215 76.9333C32.6656 77.8382 33.2909 78.6074 34.1046 79.1267C34.9811 79.6715 35.9967 79.9473 37.0269 79.9203C37.6301 79.923 38.2298 79.8285 38.8032 79.6404C39.3287 79.4712 39.8331 79.2422 40.3069 78.9579C40.6035 78.7796 40.8853 78.5776 41.1497 78.3539C41.1141 78.5208 41.1181 78.6937 41.1611 78.8589C41.2041 79.024 41.2851 79.1767 41.3975 79.3047C41.523 79.4384 41.6762 79.5428 41.8463 79.6105C42.0164 79.6781 42.1992 79.7074 42.3818 79.6963C42.79 79.7021 43.1872 79.5635 43.504 79.3047C43.8141 79.0655 44.0237 78.7182 44.0914 78.3313L45.7526 68.864C45.794 68.6922 45.7933 68.5129 45.7507 68.3414C45.708 68.1699 45.6247 68.0113 45.5078 67.8793ZM39.7982 76.9662C39.1927 77.297 38.5131 77.4665 37.8241 77.4586C37.1962 77.4799 36.5768 77.3081 36.0486 76.9662C35.5705 76.6425 35.2105 76.171 35.023 75.6232C34.8168 75.0107 34.7757 74.3543 34.9036 73.7206C35.0193 73.0274 35.2892 72.3694 35.6933 71.7958C36.0835 71.239 36.5957 70.7795 37.1902 70.4527C37.7874 70.1246 38.458 69.9553 39.1385 69.9607C39.7742 69.9375 40.4019 70.1091 40.9383 70.4527C41.4161 70.7768 41.7762 71.2481 41.9642 71.7958C42.1704 72.416 42.2103 73.08 42.0796 73.7206C41.9629 74.4062 41.694 75.0565 41.2927 75.6232C40.9031 76.1797 40.3919 76.6392 39.7982 76.9662Z" fill="#023F80"/>
<path d="M58.3855 67.8907C58.2598 67.7571 58.1065 67.6528 57.9364 67.5851C57.7663 67.5175 57.5835 67.4881 57.4008 67.4991C56.9928 67.4934 56.5957 67.632 56.2789 67.8907C55.9687 68.1298 55.7591 68.4773 55.6916 68.8644L54.686 74.594C54.6061 75.1123 54.4107 75.6058 54.1144 76.0375C53.8437 76.4239 53.4773 76.7325 53.0515 76.9328C52.5804 77.1434 52.0687 77.2466 51.5533 77.235C50.7203 77.235 50.1058 77.0373 49.7098 76.6419C49.3138 76.2465 49.2009 75.5639 49.3712 74.594L50.3764 68.8644C50.4153 68.6942 50.4133 68.5171 50.3706 68.3478C50.3279 68.1785 50.2458 68.0218 50.131 67.8907C50.0053 67.7571 49.852 67.6528 49.6819 67.5851C49.5118 67.5175 49.329 67.4881 49.1464 67.4991C48.7382 67.4935 48.3411 67.6321 48.0242 67.8907C47.714 68.1298 47.5045 68.4774 47.4372 68.8644L46.2904 75.3999C46.1365 76.1423 46.1878 76.9129 46.4386 77.6281C46.6702 78.2607 47.1067 78.7966 47.678 79.1497C48.3347 79.5359 49.087 79.7264 49.8474 79.6992C50.5234 79.7066 51.1975 79.6238 51.8518 79.4528C52.4247 79.3014 52.9686 79.0556 53.4615 78.7255C53.679 78.5766 53.8842 78.4104 54.0753 78.2285L54.0333 78.4681C53.9447 79.1149 53.7064 79.7317 53.3376 80.269C53.0109 80.706 52.5606 81.0335 52.0456 81.2089C51.4245 81.4091 50.7746 81.5037 50.1225 81.4888C49.6363 81.5003 49.1522 81.4206 48.6951 81.2537C48.2979 81.0971 47.9752 80.9815 47.7272 80.907C47.3872 80.7873 47.0139 80.8074 46.6885 80.9628C46.3062 81.1475 46 81.4606 45.823 81.848C45.7395 81.9868 45.691 82.144 45.6818 82.3059C45.6726 82.4678 45.7029 82.6295 45.7701 82.7769C45.968 83.1205 46.2844 83.3793 46.6594 83.5043C47.1046 83.6772 47.5707 83.7901 48.0455 83.84C48.5912 83.9126 49.1411 83.9499 49.6916 83.9517C50.8074 83.9619 51.9167 83.7804 52.9716 83.4148C53.9679 83.0659 54.8554 82.46 55.5455 81.6579C56.3089 80.7163 56.8004 79.5821 56.9662 78.379L58.6366 68.8668C58.6752 68.6958 58.6725 68.518 58.6288 68.3481C58.5851 68.1783 58.5017 68.0215 58.3855 67.8907Z" fill="#023F80"/>
<path d="M77.1982 67.8907C77.0844 67.7621 76.9437 67.6603 76.7862 67.5926C76.6287 67.5249 76.4583 67.493 76.2871 67.4991C75.5357 67.4991 75.0123 67.7826 74.7169 68.3495L70.9628 74.7851L69.8998 70.1177C69.8509 69.8816 69.7303 69.6666 69.5545 69.5024C69.3266 69.3407 69.0492 69.265 68.7713 69.2887C68.4718 69.2814 68.1757 69.3542 67.9134 69.4997C67.6511 69.6452 67.432 69.8582 67.2786 70.1168L64.5057 74.9091L63.0081 68.3492C62.9953 68.2174 62.9525 68.0903 62.8831 67.9778C62.8136 67.8653 62.7193 67.7703 62.6076 67.7002C62.3654 67.5605 62.0895 67.4908 61.8103 67.4988C61.3855 67.4861 60.9721 67.6385 60.6562 67.9243C60.366 68.1717 60.1682 68.511 60.0953 68.8864C60.0638 69.0569 60.0664 69.2319 60.1032 69.4013L62.2331 78.6223C62.2613 78.7667 62.3212 78.903 62.4086 79.0211C62.4959 79.1393 62.6084 79.2363 62.7378 79.3051C63.0068 79.4606 63.3203 79.5198 63.6271 79.473C63.9106 79.4537 64.1854 79.3663 64.4285 79.2183C64.6716 79.0703 64.8758 78.8659 65.0241 78.6223L67.9634 73.117L69.0905 78.6223C69.1561 78.8655 69.2992 79.0803 69.4978 79.234C69.6965 79.3876 69.9398 79.4716 70.1905 79.473C70.5242 79.5107 70.8617 79.4505 71.1621 79.2995C71.4625 79.1485 71.7129 78.9133 71.883 78.6223L77.2489 69.4013C77.2945 69.3268 77.3329 69.2481 77.3637 69.1663C77.3967 69.0755 77.4213 68.9818 77.4372 68.8864C77.4787 68.7133 77.4786 68.5327 77.437 68.3596C77.3955 68.1865 77.3136 68.0258 77.1982 67.8907Z" fill="#023F80"/>
<path d="M90.8443 67.8795C90.7164 67.749 90.5621 67.6476 90.3919 67.582C90.2217 67.5164 90.0395 67.4882 89.8576 67.4991C89.4495 67.4935 89.0525 67.6321 88.7357 67.8908C88.4254 68.1298 88.2157 68.4774 88.1483 68.8645L88.1426 68.8971C88.0126 68.7659 87.8746 68.6429 87.7295 68.5287C87.3057 68.2072 86.8323 67.9577 86.3282 67.79C85.7212 67.5878 85.0847 67.4895 84.4452 67.4991C83.3531 67.4983 82.278 67.7711 81.3171 68.2928C80.3223 68.8255 79.4584 69.5749 78.7887 70.4862C78.0849 71.4406 77.6175 72.5497 77.4251 73.7217C77.2021 74.7931 77.2827 75.9059 77.6577 76.9335C78.0019 77.8383 78.6272 78.6075 79.4408 79.1269C80.3174 79.6716 81.3331 79.9474 82.3633 79.9205C82.9664 79.9232 83.5661 79.8287 84.1394 79.6406C84.6649 79.4715 85.1694 79.2425 85.6431 78.9581C85.9397 78.7797 86.2216 78.5777 86.4862 78.354C86.4506 78.5209 86.4545 78.6939 86.4974 78.859C86.5404 79.0242 86.6213 79.1769 86.7337 79.3049C86.8592 79.4386 87.0124 79.543 87.1825 79.6106C87.3526 79.6783 87.5354 79.7076 87.718 79.6965C88.1267 79.7026 88.5245 79.564 88.8417 79.3049C89.1519 79.0658 89.3615 78.7184 89.4291 78.3315L91.0903 68.8642C91.1315 68.6923 91.1306 68.5129 91.0878 68.3414C91.045 68.1699 90.9614 68.0114 90.8443 67.8795ZM85.1347 76.9664C84.5297 77.2969 83.8506 77.4664 83.1621 77.4588C82.5343 77.4801 81.915 77.3083 81.3869 76.9664C80.9088 76.6427 80.5487 76.1712 80.361 75.6234C80.1551 75.0108 80.1139 74.3545 80.2416 73.7208C80.3574 73.0277 80.6273 72.3697 81.0313 71.796C81.4216 71.2391 81.9338 70.7796 82.5286 70.4529C83.1256 70.1248 83.7961 69.9554 84.4765 69.9609C85.1122 69.9377 85.7399 70.1093 86.2763 70.4529C86.7541 70.777 87.1142 71.2483 87.3022 71.796C87.5085 72.4162 87.5483 73.0802 87.4176 73.7208C87.3011 74.4064 87.0321 75.0568 86.6307 75.6234C86.2406 76.1801 85.7287 76.6396 85.1344 76.9664H85.1347Z" fill="#023F80"/>
<path d="M103.721 67.8907C103.596 67.7571 103.442 67.6528 103.272 67.5851C103.102 67.5175 102.919 67.4881 102.737 67.4991C102.329 67.4934 101.932 67.632 101.615 67.8907C101.305 68.1298 101.095 68.4773 101.027 68.8644L100.022 74.594C99.9422 75.1123 99.7467 75.6058 99.4504 76.0375C99.1797 76.4239 98.8132 76.7325 98.3874 76.9328C97.9163 77.1434 97.4047 77.2466 96.8892 77.235C96.0564 77.235 95.442 77.0373 95.046 76.6419C94.65 76.2465 94.537 75.5639 94.7071 74.594L95.7123 68.8644C95.7514 68.6942 95.7495 68.5171 95.7068 68.3477C95.6641 68.1784 95.5819 68.0217 95.4669 67.8907C95.3412 67.7571 95.1879 67.6528 95.0178 67.5851C94.8477 67.5175 94.6649 67.4881 94.4823 67.4991C94.0742 67.4934 93.6772 67.632 93.3604 67.8907C93.0502 68.1298 92.8405 68.4773 92.7731 68.8644L91.6263 75.3999C91.4724 76.1423 91.5237 76.9129 91.7745 77.6281C92.0061 78.2607 92.4427 78.7966 93.0139 79.1497C93.6706 79.5358 94.423 79.7264 95.1833 79.6992C95.8593 79.7066 96.5334 79.6237 97.1877 79.4528C97.7606 79.3015 98.3045 79.0557 98.7974 78.7255C99.0149 78.5767 99.2202 78.4105 99.4112 78.2285L99.3693 78.4681C99.2808 79.1149 99.0424 79.7317 98.6735 80.269C98.347 80.706 97.8967 81.0335 97.3818 81.2089C96.7608 81.4091 96.1108 81.5037 95.4587 81.4888C94.9725 81.5003 94.4884 81.4206 94.0313 81.2537C93.6341 81.0971 93.3114 80.9815 93.0634 80.907C92.7234 80.7873 92.3501 80.8074 92.0247 80.9628C91.6424 81.1475 91.3362 81.4606 91.1592 81.848C91.0757 81.9868 91.0272 82.144 91.018 82.3059C91.0088 82.4678 91.0391 82.6295 91.1063 82.7769C91.3043 83.1204 91.6207 83.3792 91.9956 83.5043C92.4408 83.6772 92.9069 83.7901 93.3817 83.84C93.9274 83.9126 94.4773 83.9499 95.0278 83.9517C96.1436 83.9619 97.2529 83.7804 98.3078 83.4148C99.3042 83.0659 100.192 82.46 100.882 81.6579C101.645 80.7163 102.137 79.5821 102.302 78.379L103.973 68.8668C104.011 68.6958 104.009 68.5179 103.965 68.3481C103.921 68.1783 103.838 68.0215 103.721 67.8907Z" fill="#023F80"/>
<path d="M49.4538 26.388L39.5342 16.4183C39.2828 16.1598 38.941 16.01 38.5815 16.0007C38.3924 15.9946 38.204 16.0268 38.0276 16.0953C37.8512 16.1639 37.6903 16.2675 37.5546 16.3999C37.4188 16.5323 37.311 16.6908 37.2375 16.8659C37.164 17.0411 37.1263 17.2294 37.1267 17.4195V37.3611C37.1263 37.5512 37.1639 37.7394 37.2374 37.9145C37.3109 38.0897 37.4187 38.2482 37.5545 38.3806C37.6902 38.513 37.851 38.6165 38.0274 38.6851C38.2038 38.7537 38.3921 38.7859 38.5812 38.7798C38.9408 38.7706 39.2827 38.6208 39.5342 38.3622L49.4538 28.3925C49.7183 28.1267 49.8669 27.7662 49.8669 27.3903C49.8669 27.0144 49.7183 26.6539 49.4538 26.388Z" fill="#1AAAAD"/>
<path d="M82.8682 47.2424L71.2969 35.6152L63.7954 43.1546L80.4828 59.926C80.6783 60.1222 80.9272 60.2558 81.1981 60.3098C81.469 60.3639 81.7498 60.3361 82.005 60.2298C82.2601 60.1235 82.4783 59.9436 82.6317 59.7128C82.7852 59.482 82.8672 59.2107 82.8673 58.9331L82.8682 47.2424Z" fill="#FECF2F"/>
<path d="M60.7314 24.9952C60.4671 24.7297 60.1088 24.5806 59.7351 24.5806C59.3614 24.5806 59.0031 24.7297 58.7388 24.9952L37.5401 46.2896C37.4092 46.4212 37.3054 46.5773 37.2345 46.7492C37.1637 46.921 37.1272 47.1053 37.1272 47.2913C37.1272 47.4773 37.1637 47.6615 37.2345 47.8334C37.3054 48.0053 37.4092 48.1614 37.5401 48.2929L43.0524 53.833C43.1832 53.9645 43.3386 54.0689 43.5095 54.14C43.6805 54.2112 43.8638 54.2479 44.0488 54.2479C44.2339 54.2479 44.4171 54.2112 44.5881 54.14C44.7591 54.0689 44.9144 53.9645 45.0453 53.833L58.7376 40.0716C58.8684 39.9401 59.0238 39.8358 59.1948 39.7646C59.3657 39.6934 59.549 39.6568 59.734 39.6568C59.9191 39.6568 60.1023 39.6934 60.2733 39.7646C60.4443 39.8358 60.5996 39.9401 60.7305 40.0716L63.7979 43.1545L71.2995 35.6151L60.7314 24.9952Z" fill="#DD2457"/>
<path d="M80.4633 26.4045L71.2971 35.6154L82.8683 47.2426L82.8714 27.4066C82.8715 27.1261 82.7889 26.8519 82.6339 26.6187C82.4789 26.3854 82.2585 26.2036 82.0007 26.0963C81.7429 25.989 81.4591 25.961 81.1855 26.0159C80.9118 26.0708 80.6604 26.206 80.4633 26.4045Z" fill="#023F80"/>
</svg>
