<svg width="24" height="24" viewBox="0 0 24 24" fill="none" xmlns="http://www.w3.org/2000/svg">
<path fill-rule="evenodd" clipRule="evenodd" d="M11.1647 3.09998H11.2001H12.8001H12.8355H12.8355C13.3654 3.09996 13.8166 3.09995 14.187 3.13021C14.5761 3.16201 14.9547 3.23164 15.3167 3.41606C15.8623 3.69409 16.306 4.13773 16.584 4.6834C16.7684 5.04534 16.8381 5.42393 16.8699 5.81309C16.8989 6.16838 16.9001 6.59795 16.9001 7.09998H17.8001L17.8355 7.09998C18.3654 7.09996 18.8166 7.09995 19.187 7.13021C19.5761 7.16201 19.9547 7.23164 20.3167 7.41606C20.8623 7.69409 21.306 8.13773 21.584 8.6834C21.7684 9.04534 21.8381 9.42393 21.8699 9.81309C21.9001 10.1835 21.9001 10.6347 21.9001 11.1645V11.1646V11.1646V11.2V12.6V12.6333C21.9001 13.0248 21.9001 13.3713 21.8767 13.6585C21.8517 13.9642 21.7957 14.2811 21.6385 14.5896C21.4084 15.0411 21.0413 15.4083 20.5897 15.6384C20.3618 15.7545 20.1293 15.8154 19.9001 15.8494V16.4V16.4361C19.9001 17.0354 19.9001 17.539 19.8665 17.9511C19.8313 18.3819 19.7548 18.7914 19.5568 19.18C19.2548 19.7728 18.7729 20.2546 18.1802 20.5566C17.7915 20.7547 17.382 20.8311 16.9512 20.8663C16.5391 20.9 16.0356 20.9 15.4363 20.9H15.4362L15.4001 20.9H8.6001L8.56396 20.9H8.56386C7.96462 20.9 7.46108 20.9 7.04902 20.8663C6.61817 20.8311 6.2087 20.7547 5.82003 20.5566C5.22732 20.2546 4.74543 19.7728 4.44343 19.18C4.24539 18.7914 4.16895 18.3819 4.13374 17.9511C4.10008 17.539 4.10009 17.0354 4.1001 16.4361L4.1001 16.4V15.8494C3.87089 15.8154 3.63842 15.7545 3.41052 15.6384C2.95893 15.4083 2.59178 15.0411 2.36169 14.5896C2.20452 14.2811 2.14851 13.9642 2.12353 13.6585C2.10007 13.3713 2.10008 13.0248 2.1001 12.6334V12.6333L2.1001 12.6V11.2L2.1001 11.1646V11.1645C2.10009 10.6347 2.10007 10.1835 2.13034 9.81309C2.16213 9.42393 2.23177 9.04534 2.41618 8.6834C2.69421 8.13773 3.13786 7.69409 3.68353 7.41606C4.04546 7.23164 4.42405 7.16201 4.81322 7.13021C5.18365 7.09995 5.63483 7.09996 6.1647 7.09998L6.2001 7.09998H7.1001C7.10013 6.59795 7.10131 6.16838 7.13034 5.81309C7.16213 5.42393 7.23177 5.04534 7.41618 4.6834C7.69421 4.13773 8.13786 3.69409 8.68353 3.41606C9.04546 3.23164 9.42405 3.16201 9.81322 3.13021C10.1836 3.09995 10.6348 3.09996 11.1647 3.09998H11.1647ZM5.4001 14.1H18.6001C19.035 14.1 19.307 14.0993 19.512 14.0825C19.7065 14.0666 19.7601 14.0409 19.7725 14.0346C19.8854 13.9771 19.9772 13.8853 20.0347 13.7724C20.041 13.76 20.0668 13.7064 20.0827 13.5119C20.0994 13.3069 20.1001 13.0349 20.1001 12.6V11.2C20.1001 10.6251 20.0994 10.248 20.0758 9.95967C20.0531 9.68182 20.0138 9.56648 19.9802 9.50059C19.8747 9.29361 19.7065 9.12533 19.4995 9.01987C19.4336 8.9863 19.3183 8.94694 19.0404 8.92424C18.7521 8.90068 18.375 8.89998 17.8001 8.89998H16.9001V8.89999H16.0001H8.0001H7.1001V8.89998H6.2001C5.6252 8.89998 5.24815 8.90068 4.95979 8.92424C4.68195 8.94694 4.5666 8.9863 4.50071 9.01987C4.29373 9.12533 4.12545 9.29361 4.01999 9.50059C3.98642 9.56648 3.94706 9.68182 3.92436 9.95967C3.9008 10.248 3.9001 10.6251 3.9001 11.2V12.6C3.9001 13.0349 3.9008 13.3069 3.91755 13.5119C3.93344 13.7064 3.95917 13.76 3.9655 13.7724C4.02302 13.8853 4.11481 13.9771 4.22771 14.0346C4.24012 14.0409 4.29372 14.0666 4.48819 14.0825C4.69317 14.0993 4.96521 14.1 5.4001 14.1ZM5.9001 15.9V16.4C5.9001 17.0449 5.9008 17.4744 5.92777 17.8045C5.95387 18.124 6.00004 18.2702 6.04724 18.3629C6.17667 18.6169 6.38319 18.8234 6.63721 18.9528C6.72984 19 6.87606 19.0462 7.19559 19.0723C7.52564 19.0993 7.95519 19.1 8.6001 19.1H15.4001C16.045 19.1 16.4746 19.0993 16.8046 19.0723C17.1241 19.0462 17.2704 19 17.363 18.9528C17.617 18.8234 17.8235 18.6169 17.953 18.3629C18.0002 18.2702 18.0463 18.124 18.0724 17.8045C18.0994 17.4744 18.1001 17.0449 18.1001 16.4V15.9H5.9001ZM15.0758 5.95967C15.098 6.23096 15.0999 6.58076 15.1001 7.09998H8.90011C8.90026 6.58076 8.90219 6.23096 8.92436 5.95967C8.94706 5.68182 8.98642 5.56648 9.01999 5.50059C9.12545 5.29361 9.29373 5.12533 9.50071 5.01987C9.5666 4.9863 9.68195 4.94694 9.95979 4.92424C10.2481 4.90068 10.6252 4.89998 11.2001 4.89998H12.8001C13.375 4.89998 13.7521 4.90068 14.0404 4.92424C14.3183 4.94694 14.4336 4.9863 14.4995 5.01987C14.7065 5.12533 14.8747 5.29361 14.9802 5.50059C15.0138 5.56648 15.0531 5.68182 15.0758 5.95967Z" fill="#023F80"/>
</svg>
